<svg xmlns="http://www.w3.org/2000/svg" xmlns:xlink="http://www.w3.org/1999/xlink" width="90.997" height="90.997" viewBox="0 0 90.997 90.997">
  <defs>
    <clipPath id="clip-path">
      <rect id="Rectángulo_36880" data-name="Rectángulo 36880" width="77.336" height="77.332" fill="none"/>
    </clipPath>
  </defs>
  <g id="Grupo_86477" data-name="Grupo 86477" transform="translate(-0.278 -0.277)">
    <circle id="Elipse_5411" data-name="Elipse 5411" cx="45.498" cy="45.498" r="45.498" transform="translate(0.278 0.277)" fill="#2ff980"/>
    <g id="Grupo_86501" data-name="Grupo 86501" transform="translate(7.109 7.11)">
      <g id="Grupo_86501-2" data-name="Grupo 86501" clip-path="url(#clip-path)">
        <path id="Trazado_130197" data-name="Trazado 130197" d="M62.542,17.172c1.227-.245,1.449-.131,1.992,1a8.636,8.636,0,0,1,.88,2.787c.069.643.341.781.958.774,3.1-.036,6.193-.017,9.289-.015a4.3,4.3,0,0,1,.753.028,1.042,1.042,0,0,1,.907.97,1.064,1.064,0,0,1-.668,1.152,2,2,0,0,1-.89.117H66.778c-1,0-1,0-.939.964.082,1.357.185,2.712.234,4.07.018.5.2.605.671.6,2.97-.021,5.941-.011,8.912-.011.176,0,.354-.01.529,0a1.146,1.146,0,0,1,1.152,1.151,1.119,1.119,0,0,1-1.184,1.106c-1.661.018-3.323.007-4.985.007-1.485,0-2.971.014-4.456-.009-.4-.006-.51.109-.5.509.055,1.534.1,3.07.091,4.6,0,.508.2.563.623.561,2.895-.015,5.79-.008,8.685-.007a5.968,5.968,0,0,1,.679.015,1.114,1.114,0,0,1,.039,2.217,5.025,5.025,0,0,1-.752.036c-2.87,0-5.74.016-8.609-.011-.538-.005-.667.157-.664.673.007,1.459-.015,2.921-.092,4.378-.028.538.155.613.622.61,3.071-.017,6.143-.013,9.214-.005a1.142,1.142,0,0,1,1.283,1.084c.024.686-.475,1.149-1.277,1.18-.151.006-.3,0-.453,0-2.845,0-5.69.032-8.534-.021-.775-.015-1.021.2-1.033.964-.021,1.357-.111,2.716-.241,4.068-.051.525.089.627.578.623,3.071-.019,6.143-.01,9.214-.009.2,0,.4-.012.6.006a1.144,1.144,0,0,1,1.143,1.162A1.114,1.114,0,0,1,76.141,55.6c-1.133.021-2.266.007-3.4.007-2.165,0-4.33.022-6.495-.015-.539-.009-.716.149-.82.669a11.1,11.1,0,0,1-7.877,8.876c-.1.032-.189.068-.287.092-.534.129-1.3.087-1.542.423-.278.388-.106,1.108-.107,1.684,0,2.845,0,5.689,0,8.534,0,.94-.421,1.468-1.138,1.456s-1.126-.538-1.127-1.487c0-3.147-.014-6.294.01-9.44,0-.536-.122-.659-.666-.607-1.452.138-2.912.215-4.37.275-.483.02-.615.177-.611.66.024,2.945.012,5.89.012,8.836,0,.2.011.4,0,.6a1.151,1.151,0,0,1-1.146,1.16,1.121,1.121,0,0,1-1.112-1.178c-.019-1.158-.006-2.316-.006-3.474,0-1.963-.015-3.927.01-5.89.006-.463-.107-.6-.586-.575-1.458.066-2.919.105-4.378.089-.565-.006-.718.138-.712.709.031,2.869.015,5.739.012,8.609a4.117,4.117,0,0,1-.054.825,1.1,1.1,0,0,1-2.156.019,3.784,3.784,0,0,1-.057-.825c0-2.87-.015-5.74.01-8.609,0-.537-.093-.739-.69-.729-1.459.023-2.921-.01-4.377-.09-.556-.031-.6.182-.6.634.015,2.895.008,5.79.008,8.685,0,.2.007.4,0,.6a1.133,1.133,0,1,1-2.261-.018c-.023-.729-.005-1.46-.005-2.19,0-2.341-.035-4.683.021-7.023.017-.69-.221-.83-.827-.853-1.458-.055-2.916-.141-4.37-.271-.6-.054-.444.317-.444.606q-.009,4.607,0,9.213a5.067,5.067,0,0,1-.015.679,1.145,1.145,0,0,1-1.171,1.053A1.123,1.123,0,0,1,21.729,76.2c-.013-.2-.005-.4-.005-.6,0-3.121-.012-6.243.012-9.364,0-.481-.1-.7-.6-.8a11.127,11.127,0,0,1-9.236-9.215c-.1-.5-.289-.622-.782-.617-2.87.027-5.74.013-8.61.013H1.672C.534,55.61-.019,55.229,0,54.46c.018-.754.551-1.116,1.647-1.117h7.7c.579,0,1.158-.01,1.737,0,.321.007.5-.023.464-.442-.125-1.53-.224-3.062-.289-4.6-.021-.5-.2-.6-.67-.6-2.97.021-5.941.011-8.912.011-.176,0-.354.01-.528,0A1.147,1.147,0,0,1,0,46.562a1.116,1.116,0,0,1,1.183-1.105c1.712-.017,3.424-.007,5.136-.007,1.435,0,2.87-.014,4.3.009.4.006.51-.107.5-.509-.055-1.509-.1-3.019-.09-4.529,0-.506-.153-.626-.638-.622-2.845.022-5.689.011-8.534.011-.2,0-.4.008-.6-.005C.469,39.75.005,39.327,0,38.672c0-.687.48-1.125,1.315-1.128,3-.01,5.992-.017,8.987.008.539,0,.738-.1.729-.69-.022-1.459.013-2.921.088-4.378.028-.534-.151-.615-.621-.612-3.046.018-6.092.012-9.138.007-.837,0-1.335-.411-1.36-1.084-.027-.711.488-1.176,1.35-1.179,2.971-.007,5.942-.033,8.912.018.771.013,1.023-.2,1.035-.961.021-1.357.111-2.716.24-4.068.05-.52-.081-.63-.575-.627-3.071.02-6.143.01-9.214.01-.2,0-.4.013-.6-.006A1.145,1.145,0,0,1,0,22.821a1.113,1.113,0,0,1,1.192-1.094c1.183-.02,2.366-.007,3.55-.007,2.115,0,4.23-.022,6.344.015.536.009.716-.143.82-.667a11.1,11.1,0,0,1,7.875-8.879c.1-.032.189-.069.287-.092.535-.126,1.329-.082,1.542-.413.278-.433.11-1.161.111-1.762.005-2.819,0-5.639,0-8.458,0-.945.413-1.469,1.13-1.462s1.134.53,1.136,1.479c0,3.147.013,6.293-.01,9.44,0,.522.1.671.657.617,1.427-.138,2.861-.213,4.294-.267.536-.02.705-.166.7-.737-.035-2.97-.017-5.941-.016-8.911a4.305,4.305,0,0,1,.014-.6,1.113,1.113,0,0,1,1.2-1.01,1.062,1.062,0,0,1,1.044,1.084c.03.7.01,1.409.01,2.114,0,2.417.014,4.833-.011,7.25,0,.5.088.691.65.66,1.381-.076,2.768-.109,4.151-.084.663.012.891-.134.879-.852-.047-2.794-.019-5.588-.019-8.382,0-.2-.008-.4.006-.6A1.138,1.138,0,0,1,38.646,0c.659-.013,1.1.455,1.154,1.224.013.2,0,.4,0,.6,0,2.819.019,5.639-.015,8.458-.007.608.174.748.755.741q2.151-.025,4.3.089c.529.028.621-.14.618-.617-.018-3.071-.014-6.142-.006-9.213A1.142,1.142,0,0,1,46.538,0c.682-.026,1.151.477,1.183,1.274.007.176,0,.353,0,.529v8.307c0,1.111,0,1.113,1.091,1.179,1.306.079,2.616.12,3.917.248.525.051.627-.087.624-.576-.019-3.071-.01-6.142-.01-9.213,0-.2-.012-.4.006-.6A1.147,1.147,0,0,1,54.512,0a1.112,1.112,0,0,1,1.094,1.191c.019,1.233.006,2.467.006,3.7,0,2.089.016,4.179-.012,6.268-.006.469.128.649.594.718A10.666,10.666,0,0,1,60.577,13.6c.9.6,1,.949.6,1.954a1.452,1.452,0,0,1-1.868-.047,7.9,7.9,0,0,0-3.763-1.444c-3.973-.422-7.964-.64-11.956-.742a175.01,175.01,0,0,0-21.689.737,7.514,7.514,0,0,0-4.247,1.765,8.167,8.167,0,0,0-3.571,5.952c-.508,4.162-.662,8.359-.769,12.55a177.741,177.741,0,0,0,.453,17.781,20.762,20.762,0,0,0,.577,4.7,8.319,8.319,0,0,0,3.312,4.7,7.37,7.37,0,0,0,4.171,1.758c4.552.462,9.12.7,13.7.776a193.379,193.379,0,0,0,19.662-.723,9.186,9.186,0,0,0,8.095-7.822q.68-7.019.76-14.073c.042-3.269.011-6.538-.116-9.807-.109-2.839-.321-5.67-.51-8.5a9.116,9.116,0,0,0-.934-3.928,1.643,1.643,0,0,1,.063-2.009" transform="translate(0 0)" fill="#040404"/>
        <path id="Trazado_130198" data-name="Trazado 130198" d="M96.565,47.721A1.643,1.643,0,0,0,96.5,49.73a9.117,9.117,0,0,1,.934,3.929c.19,2.833.4,5.664.51,8.5.126,3.269.158,6.538.116,9.807q-.091,7.051-.76,14.073a9.186,9.186,0,0,1-8.095,7.822,193.464,193.464,0,0,1-19.662.723c-4.575-.074-9.144-.314-13.7-.776a7.368,7.368,0,0,1-4.171-1.759.684.684,0,0,0-.185-.476,10.133,10.133,0,0,1-1.74-4.29c-.277-2.331-.462-4.675-.615-7.018-.17-2.625-.17-5.259-.3-7.888-.179-3.741.141-7.483.133-11.226,0-.1,0-.2.012-.3.2-2.667.433-5.333.578-8a11.272,11.272,0,0,1,1.755-5.669,1.365,1.365,0,0,0,.356-.808,7.514,7.514,0,0,1,4.247-1.765,175.012,175.012,0,0,1,21.689-.737c3.992.1,7.982.32,11.956.742a7.9,7.9,0,0,1,3.763,1.444A1.452,1.452,0,0,0,95.2,46.1a4.415,4.415,0,0,1,1.367,1.616M58.8,89.15a18.515,18.515,0,0,0,2.224.136c.027.731.348,1.2,1.129,1.235,1.958.1,3.915.23,5.874.272a194.174,194.174,0,0,0,20.2-.6c3.059-.254,4.955-1.882,5.35-4.931a103.527,103.527,0,0,0,.67-10.376,187.987,187.987,0,0,0-.578-21.254c-.259-3.049-1.883-4.906-4.9-5.3a103.6,103.6,0,0,0-10.527-.68,189.273,189.273,0,0,0-21.1.578c-3.066.26-4.941,1.877-5.334,4.945a104.181,104.181,0,0,0-.675,10.527,192.051,192.051,0,0,0,.576,21.028,5.488,5.488,0,0,0,5.516,5.458c.945.052,1.222-.132,1.576-1.044" transform="translate(-34.022 -30.549)" fill="#645d64"/>
        <path id="Trazado_130199" data-name="Trazado 130199" d="M48.2,52.286a1.368,1.368,0,0,1-.357.808,11.277,11.277,0,0,0-1.754,5.669c-.146,2.67-.381,5.335-.578,8-.007.1-.012.2-.011.3.007,3.743-.313,7.485-.134,11.226.126,2.629.125,5.263.3,7.888.152,2.343.337,4.687.614,7.018a10.141,10.141,0,0,0,1.741,4.29.684.684,0,0,1,.185.476,8.317,8.317,0,0,1-3.311-4.7,20.723,20.723,0,0,1-.578-4.7,177.732,177.732,0,0,1-.453-17.781c.107-4.191.261-8.387.769-12.55A8.163,8.163,0,0,1,48.2,52.286" transform="translate(-30.548 -36.461)" fill="#524e55"/>
        <path id="Trazado_130200" data-name="Trazado 130200" d="M71.488,103.231a18.453,18.453,0,0,1-2.224-.136,1.271,1.271,0,0,0-1.427-1.232,4.223,4.223,0,0,1-.673-.083,2.922,2.922,0,0,1-2.616-2.609c-.148-1.2-.215-2.4-.3-3.609a177.345,177.345,0,0,1,.215-27.826A3.137,3.137,0,0,1,67.7,64.468q5.98-.519,11.984-.634a186.465,186.465,0,0,1,18.7.607c2.321.192,3.332,1.18,3.489,3.511.121,1.807.256,3.614.362,5.422a176.086,176.086,0,0,1-.388,25.265,3.1,3.1,0,0,1-3.211,3.208c-3.736.317-7.479.551-11.228.623-4.757.09-9.513.065-14.264-.245-1.057-.069-1.366.133-1.655,1.006m2.551-18.422a2.884,2.884,0,0,1-.68,2.557,11.78,11.78,0,0,0-2.709,7.362c-.035.909.349,1.418,1.053,1.461.754.047,1.165-.42,1.212-1.375a10.086,10.086,0,0,1,1.4-4.869c.268.208.261.512.36.761a8.233,8.233,0,0,0,3.239,3.962,10.079,10.079,0,0,0,7.132,1.2,7.971,7.971,0,0,0,6.679-5.395c.069-.176.036-.407.283-.508A10.086,10.086,0,0,1,93.4,94.839a1.378,1.378,0,0,0,.342,1.041A1.091,1.091,0,0,0,95,96.1a1.184,1.184,0,0,0,.673-1.243,12.068,12.068,0,0,0-2.822-7.629,2.6,2.6,0,0,1-.64-1.978c.021-.39.1-.455.479-.335a30.03,30.03,0,0,1,3.507,1.364,1.145,1.145,0,0,0,1.605-.5,1.123,1.123,0,0,0-.659-1.543,14.2,14.2,0,0,0-2.858-1.147c-1.528-.318-2.415-.987-2.415-2.662A1.433,1.433,0,0,1,92.1,79.41a11.024,11.024,0,0,0,2.313-6.648,1.14,1.14,0,1,0-2.265-.009,9.689,9.689,0,0,1-1.14,4.256c-.324.621-.548.628-.944.078a4.293,4.293,0,0,0-.866-.836,1,1,0,0,1-.433-.814,3.887,3.887,0,0,0-2.432-3.522.718.718,0,0,1-.5-.708,1.04,1.04,0,0,0-1.051-1.071,1.017,1.017,0,0,0-1.174,1c-.03.337-.158.41-.464.417-.343.009-.4-.147-.436-.446a1.112,1.112,0,0,0-2.212.052.807.807,0,0,1-.608.8,3.317,3.317,0,0,0-2.131,2.473A4.759,4.759,0,0,1,76.2,77.182c-.511.528-.619.291-.859-.137a9.726,9.726,0,0,1-1.188-4.4,1.074,1.074,0,0,0-1.192-1.161,1.119,1.119,0,0,0-1.054,1.3,9.8,9.8,0,0,0,1.631,5.567,3.61,3.61,0,0,1,.7,3.287c-.158.6-.345.888-.933,1.03a21.336,21.336,0,0,0-4.153,1.561,1.134,1.134,0,0,0,.348,2.19,1.764,1.764,0,0,0,.926-.283,21.145,21.145,0,0,1,3.62-1.334" transform="translate(-44.489 -44.494)" fill="#9febab"/>
        <path id="Trazado_130201" data-name="Trazado 130201" d="M66.256,97.986c.289-.873.6-1.075,1.655-1.006,4.751.31,9.507.335,14.264.245,3.75-.071,7.492-.305,11.228-.622a3.1,3.1,0,0,0,3.211-3.208A176.131,176.131,0,0,0,97,68.129c-.106-1.808-.24-3.615-.362-5.422-.157-2.331-1.168-3.318-3.489-3.511a186.374,186.374,0,0,0-18.7-.607q-6,.106-11.984.633a3.137,3.137,0,0,0-3.236,3.269,177.346,177.346,0,0,0-.215,27.826c.088,1.2.155,2.412.3,3.608a2.922,2.922,0,0,0,2.616,2.609,4.224,4.224,0,0,0,.673.083,1.27,1.27,0,0,1,1.427,1.232c-.354.912-.631,1.1-1.576,1.044a5.488,5.488,0,0,1-5.516-5.458,192.047,192.047,0,0,1-.576-21.028,104.27,104.27,0,0,1,.675-10.527c.393-3.068,2.268-4.685,5.334-4.945a189.278,189.278,0,0,1,21.1-.578A103.6,103.6,0,0,1,94,57.038c3.013.39,4.636,2.248,4.9,5.3a187.982,187.982,0,0,1,.578,21.254,103.527,103.527,0,0,1-.67,10.376c-.395,3.049-2.291,4.676-5.35,4.931a194.176,194.176,0,0,1-20.2.6c-1.959-.041-3.916-.177-5.874-.272-.781-.038-1.1-.5-1.129-1.235" transform="translate(-39.256 -39.249)" fill="#020202"/>
        <path id="Trazado_130202" data-name="Trazado 130202" d="M84.674,99.387a21.144,21.144,0,0,0-3.62,1.334,1.765,1.765,0,0,1-.926.283,1.134,1.134,0,0,1-.348-2.19,21.336,21.336,0,0,1,4.153-1.561c.588-.142.775-.431.933-1.03a3.61,3.61,0,0,0-.7-3.287,9.8,9.8,0,0,1-1.631-5.567,1.119,1.119,0,0,1,1.054-1.3,1.075,1.075,0,0,1,1.192,1.161,9.726,9.726,0,0,0,1.188,4.4c.24.428.348.665.859.137a4.76,4.76,0,0,0,1.558-2.748,3.317,3.317,0,0,1,2.131-2.474.807.807,0,0,0,.608-.8,1.112,1.112,0,0,1,2.212-.052c.035.3.093.455.436.446.306-.008.434-.081.464-.417a1.017,1.017,0,0,1,1.174-1,1.04,1.04,0,0,1,1.051,1.071.719.719,0,0,0,.5.708A3.886,3.886,0,0,1,99.4,90.017a1,1,0,0,0,.433.814,4.284,4.284,0,0,1,.866.836c.4.549.62.543.944-.078a9.69,9.69,0,0,0,1.14-4.256,1.14,1.14,0,1,1,2.265.009,11.022,11.022,0,0,1-2.313,6.648A1.434,1.434,0,0,0,102.5,95c0,1.674.887,2.344,2.415,2.662a14.2,14.2,0,0,1,2.858,1.147,1.123,1.123,0,0,1,.659,1.543,1.145,1.145,0,0,1-1.605.5,29.975,29.975,0,0,0-3.507-1.364c-.381-.12-.458-.055-.479.335a2.6,2.6,0,0,0,.64,1.978,12.068,12.068,0,0,1,2.822,7.629,1.184,1.184,0,0,1-.673,1.243,1.091,1.091,0,0,1-1.26-.216,1.378,1.378,0,0,1-.342-1.041,10.086,10.086,0,0,0-1.386-4.874c-.247.1-.213.332-.283.508a7.971,7.971,0,0,1-6.679,5.395,10.08,10.08,0,0,1-7.132-1.2,8.232,8.232,0,0,1-3.239-3.962c-.1-.248-.091-.553-.36-.761a10.087,10.087,0,0,0-1.4,4.869c-.048.955-.458,1.422-1.212,1.375-.7-.044-1.088-.553-1.053-1.461a11.782,11.782,0,0,1,2.709-7.362,2.883,2.883,0,0,0,.68-2.557M96.659,89.133l.069.058-.061-.065a1.353,1.353,0,0,0-1.361-.732c-1.006-.036-2.014-.025-3.02.006a1.325,1.325,0,0,0-1.318.721,23.23,23.23,0,0,1,5.692.013m-5.62,18.757.184.092c.291.071.581.144.872.214.375.09.555-.021.553-.444q-.018-3.426,0-6.852c0-.316-.11-.444-.435-.448a13.364,13.364,0,0,1-3.249-.564l-1.939-.809c0,1.239-.058,2.4.012,3.544a5.763,5.763,0,0,0,4.013,5.278Zm.179-16.365a5.242,5.242,0,0,0-3.575,3.051c-.863,1.917-.755,1.732.906,2.669a3.088,3.088,0,0,0,.414.162c2.288,1.061,4.709.833,7.112.7a6.515,6.515,0,0,0,2.6-.7c2.052-1.051,2.3-.886,1.035-3.226-1.569-2.9-4.735-3.517-8.5-2.658m9.368,7.629c-.31-.076-.479.109-.676.2a11.486,11.486,0,0,1-4.356,1.085c-.5.02-.63.177-.624.658.023,2.161.032,4.324,0,6.485-.011.645.252.7.768.593a5.776,5.776,0,0,0,4.583-4.1c.513-1.607.258-3.276.309-4.915" transform="translate(-55.124 -59.073)" fill="#030302"/>
        <path id="Trazado_130203" data-name="Trazado 130203" d="M114.034,106.4c3.761-.859,6.926-.242,8.5,2.658,1.266,2.34,1.018,2.175-1.035,3.226a6.519,6.519,0,0,1-2.6.7c-2.4.134-4.823.362-7.112-.7a7.642,7.642,0,0,1,.249-2.153,8.347,8.347,0,0,1,2.006-3.729" transform="translate(-77.94 -73.946)" fill="#cc696f"/>
        <path id="Trazado_130204" data-name="Trazado 130204" d="M137.167,132.386c-.052,1.639.2,3.308-.309,4.915a5.776,5.776,0,0,1-4.583,4.1c-.515.111-.778.052-.768-.593.036-2.161.027-4.323,0-6.485-.005-.481.124-.638.624-.658a11.486,11.486,0,0,0,4.356-1.085c.2-.09.366-.275.676-.2" transform="translate(-91.705 -92.305)" fill="#cc696f"/>
        <path id="Trazado_130205" data-name="Trazado 130205" d="M111.8,134.855a13.349,13.349,0,0,0,3.249.563c.325,0,.436.132.435.448q-.011,3.426,0,6.852c0,.423-.178.534-.553.444-.291-.07-.582-.143-.872-.214l-.185-.092.01.012a23.922,23.922,0,0,1-1.534-2.629,15.014,15.014,0,0,1-.552-5.385" transform="translate(-77.957 -94.04)" fill="#cd696f"/>
        <path id="Trazado_130206" data-name="Trazado 130206" d="M107.289,132.991a15.015,15.015,0,0,0,.552,5.385A23.923,23.923,0,0,0,109.375,141a5.762,5.762,0,0,1-4.012-5.278c-.07-1.149-.012-2.306-.012-3.544l1.938.809" transform="translate(-73.45 -92.176)" fill="#c65256"/>
        <path id="Trazado_130207" data-name="Trazado 130207" d="M109.793,107.221a8.347,8.347,0,0,0-2.006,3.729,7.642,7.642,0,0,0-.249,2.153,3.087,3.087,0,0,1-.414-.162c-1.661-.937-1.769-.752-.906-2.669a5.243,5.243,0,0,1,3.575-3.051" transform="translate(-73.699 -74.769)" fill="#c65357"/>
        <path id="Trazado_130208" data-name="Trazado 130208" d="M124.121,97.563a23.23,23.23,0,0,0-5.692-.013,1.325,1.325,0,0,1,1.318-.721c1.006-.031,2.015-.042,3.02-.006a1.353,1.353,0,0,1,1.361.733Z" transform="translate(-82.585 -67.502)" fill="#575258"/>
        <path id="Trazado_130209" data-name="Trazado 130209" d="M137.242,99.293l.061.065-.069-.057.008-.008" transform="translate(-95.699 -69.241)" fill="#575258"/>
        <path id="Trazado_130210" data-name="Trazado 130210" d="M118.665,161.291l.185.092-.185-.092" transform="translate(-82.75 -112.475)" fill="#c65256"/>
      </g>
    </g>
  </g>
</svg>
