<svg xmlns="http://www.w3.org/2000/svg" width="90.997" height="90.997" viewBox="0 0 90.997 90.997">
  <g id="Grupo_86479" data-name="Grupo 86479" transform="translate(-0.278 -0.277)">
    <circle id="Elipse_5411" data-name="Elipse 5411" cx="45.498" cy="45.498" r="45.498" transform="translate(0.278 0.277)" fill="#2ff980"/>
    <g id="Grupo_86510" data-name="Grupo 86510" transform="translate(-5347.286 8342.904)">
      <path id="Trazado_130211" data-name="Trazado 130211" d="M418.127,28.218a9.567,9.567,0,0,0,1.639-1.35c.772.619,1.047.644,1.893.055a44.379,44.379,0,0,1,11-5.749c.3-.1.535-.214.824.08q3.777,3.835,7.581,7.642a2.193,2.193,0,0,1-.2.97,42.056,42.056,0,0,1-2.711,5.889A51.934,51.934,0,0,1,431,45.578a77.143,77.143,0,0,1-5.7,5.614c-2.278,2.009-4.57,4-6.938,5.9a116.3,116.3,0,0,1-9.848,7.151,1.427,1.427,0,0,1-.645.283c-.158-.142-.323-.277-.473-.426-3.135-3.132-6.258-6.276-9.414-9.387a.745.745,0,0,1-.117-1.167,123.783,123.783,0,0,1,19.9-23.568,1.285,1.285,0,0,0,.358-1.761m16.1,8.37a6.135,6.135,0,1,0-6.319,5.834,6.136,6.136,0,0,0,6.319-5.834m-12.284,12.1a6.142,6.142,0,1,0-12.283-.2,6.142,6.142,0,1,0,12.283.2" transform="translate(4982.188 -8350.637)" fill="#e3e6e9"/>
      <path id="Trazado_130212" data-name="Trazado 130212" d="M410.991,18.532q-3.794-3.818-7.581-7.642c-.289-.294-.524-.183-.825-.08a44.393,44.393,0,0,0-11,5.75c-.846.589-1.121.563-1.892-.055a1.171,1.171,0,0,1,.412-1.565,45.14,45.14,0,0,1,13.045-6.613A41.127,41.127,0,0,1,415.9,6.54c1.137.013,1.495.368,1.515,1.5a41.35,41.35,0,0,1-6.821,23.487A62.57,62.57,0,0,1,400.3,43.544a1.353,1.353,0,0,0-.483,1.1A17.9,17.9,0,0,1,397.9,52.26a52.792,52.792,0,0,1-9.668,13.627c-.647.7-1.312,1.383-1.982,2.062-.759.77-1.476.674-2.01-.279-1.428-2.551-2.856-5.1-4.253-7.671-.254-.466-.429-.6-.936-.3a32.214,32.214,0,0,1-3.759,1.877,1.4,1.4,0,0,1-1.739-.325q-5.423-5.448-10.87-10.871a1.356,1.356,0,0,1-.319-1.676A33.841,33.841,0,0,1,364.3,44.82c.248-.416.163-.577-.239-.8-2.525-1.377-5.036-2.781-7.551-4.177-1.279-.709-1.348-1.314-.286-2.356a64.36,64.36,0,0,1,12.2-9.73,25.982,25.982,0,0,1,8.417-3.4,9.865,9.865,0,0,1,2.125-.219,1.945,1.945,0,0,0,1.658-.708,63.649,63.649,0,0,1,5.589-5.424c.722-.62,1.032-.647,1.838-.155a1.285,1.285,0,0,1-.358,1.761,123.793,123.793,0,0,0-19.9,23.568.745.745,0,0,0,.117,1.167c3.156,3.11,6.279,6.255,9.414,9.387.15.15.315.285.473.426.6.612,1.225,1.2,1.779,1.845.4.473.714.479,1.23.138a137.414,137.414,0,0,0,12.79-9.588c5.075-4.274,9.933-8.759,13.8-14.2a42.973,42.973,0,0,0,5.766-11.015.693.693,0,0,0-.181-.871c-.682-.626-1.33-1.288-1.992-1.936m.829-2.343c.616.63,1.228,1.263,1.85,1.886.156.156.346.434.467-.053a40.753,40.753,0,0,0,1.115-8.911c.008-.314-.108-.432-.416-.405-.569.049-1.139.083-1.709.124a32.884,32.884,0,0,0-7.18.978c-.432.1-.3.257-.1.454l5.97,5.927m-37.9,40.295c.148.406.314.819-.02,1.211-.2.238-.385.488-.056.722.431.306.62,1.12,1.347.816a18.61,18.61,0,0,0,2.6-1.332c.329-.2.3-.371.057-.6-.683-.662-1.36-1.33-2.04-2q-4.561-4.572-9.116-9.149c-.329-.332-.519-.333-.727.091-.386.79-.765,1.585-1.193,2.352-.452.81.363.995.656,1.437s.563.226.883.011a.952.952,0,0,1,1.3.167.891.891,0,0,1,.163,1.232c-.387.482-.257.783.162,1.1a3.123,3.123,0,0,1,.455.453c.284.332.521.54.97.148a.925.925,0,0,1,1.3.1.875.875,0,0,1,.213,1.219c-.549.611-.126.891.246,1.248.189.181.377.363.554.556a.376.376,0,0,0,.605.047,1.1,1.1,0,0,1,1.644.163M397.54,46.095c-.312.25-.535.421-.749.6-1.184,1-2.347,2.019-3.551,2.99a127.924,127.924,0,0,1-11.22,8.236c-.264.169-.583.266-.31.743,1.218,2.125,2.4,4.272,3.575,6.422.214.391.347.389.644.073,1.288-1.372,2.553-2.763,3.746-4.219a41.532,41.532,0,0,0,6.807-10.918,15.785,15.785,0,0,0,1.058-3.929M377.851,26.4a19.5,19.5,0,0,0-5.867,1.919,54.868,54.868,0,0,0-13.237,9.747c-.42.4-.1.477.167.625,2.059,1.145,4.127,2.272,6.171,3.443.471.27.69.218.982-.241a112.764,112.764,0,0,1,7.755-10.6c1.306-1.6,2.63-3.191,4.03-4.889" transform="translate(5012.26 -8340.272)" fill="#030303"/>
      <path id="Trazado_130213" data-name="Trazado 130213" d="M333.621,171.752a8.347,8.347,0,0,1,7.766,5.405,8.18,8.18,0,0,1-2.344,9.212,66.97,66.97,0,0,1-15.858,10.182,12.655,12.655,0,0,1-3.479,1.017c-2.545.34-4.018-1.2-3.571-3.752a21.8,21.8,0,0,1,2.723-6.856,74.259,74.259,0,0,1,8.47-12.337,8.269,8.269,0,0,1,6.293-2.871m4.054,3.811a6.047,6.047,0,0,0-8.659.442,68.272,68.272,0,0,0-7.486,10.66,27.46,27.46,0,0,0-2.879,6.1,5.222,5.222,0,0,0-.391,1.586c-.13.9.172,1.185,1.07,1.076a13.04,13.04,0,0,0,4.047-1.338,69.749,69.749,0,0,0,11.171-6.887,19.11,19.11,0,0,0,3.98-3.458,6.089,6.089,0,0,0-.853-8.179" transform="translate(5040.39 -8458.137)" fill="#040303"/>
      <path id="Trazado_130214" data-name="Trazado 130214" d="M466.532,48.389c.662.647,1.311,1.309,1.992,1.936a.693.693,0,0,1,.181.871,42.979,42.979,0,0,1-5.766,11.015c-3.867,5.446-8.726,9.931-13.8,14.2A137.462,137.462,0,0,1,436.349,86c-.516.341-.825.335-1.23-.138-.554-.648-1.182-1.233-1.779-1.845a1.424,1.424,0,0,0,.645-.283,116.316,116.316,0,0,0,9.847-7.151c2.368-1.9,4.66-3.892,6.938-5.9a77.093,77.093,0,0,0,5.7-5.614,51.944,51.944,0,0,0,7.151-9.823,42.1,42.1,0,0,0,2.711-5.889,2.191,2.191,0,0,0,.2-.97" transform="translate(4956.719 -8370.131)" fill="#c9ced4"/>
      <path id="Trazado_130215" data-name="Trazado 130215" d="M494.772,59.178a6.135,6.135,0,1,1-5.852-6.442,6.107,6.107,0,0,1,5.852,6.442m-9.542,1.659a3.908,3.908,0,0,0,4.157,1.951,4.067,4.067,0,0,0,3.192-3.248,4,4,0,0,0-6.738-3.483,3.946,3.946,0,0,0-.611,4.78" transform="translate(4921.643 -8373.228)" fill="#020303"/>
      <path id="Trazado_130216" data-name="Trazado 130216" d="M451.86,101.882a6.142,6.142,0,1,1-6.08-6.25,6.156,6.156,0,0,1,6.08,6.25m-9.6,1.816a3.926,3.926,0,0,0,4.2,2,4.068,4.068,0,0,0,3.187-3.249,4,4,0,0,0-6.692-3.528,3.966,3.966,0,0,0-.7,4.78" transform="translate(4952.271 -8403.831)" fill="#020303"/>
      <path id="Trazado_130217" data-name="Trazado 130217" d="M462.558,144.563a15.79,15.79,0,0,1-1.058,3.929,41.542,41.542,0,0,1-6.807,10.918c-1.193,1.456-2.458,2.847-3.747,4.219-.3.316-.43.318-.643-.073-1.176-2.149-2.357-4.3-3.575-6.422-.273-.476.046-.573.31-.743a127.906,127.906,0,0,0,11.22-8.236c1.2-.972,2.368-1.994,3.551-2.991.214-.18.437-.351.749-.6" transform="translate(4947.242 -8438.741)" fill="#da5c58"/>
      <path id="Trazado_130218" data-name="Trazado 130218" d="M385.464,75.841c-1.4,1.7-2.724,3.286-4.03,4.889a112.768,112.768,0,0,0-7.755,10.6c-.292.459-.511.511-.982.241-2.044-1.17-4.112-2.3-6.171-3.443-.265-.147-.587-.228-.167-.625A54.869,54.869,0,0,1,379.6,77.76a19.5,19.5,0,0,1,5.867-1.919" transform="translate(5004.648 -8389.715)" fill="#eb736f"/>
      <path id="Trazado_130219" data-name="Trazado 130219" d="M396.708,154.5a1.1,1.1,0,0,0-1.644-.163.377.377,0,0,1-.606-.047c-.177-.193-.365-.375-.554-.556-.371-.357-.8-.637-.246-1.248a.876.876,0,0,0-.213-1.219.925.925,0,0,0-1.3-.1c-.449.392-.686.184-.97-.148a3.116,3.116,0,0,0-.455-.453c-.419-.322-.549-.622-.163-1.1a.892.892,0,0,0-.163-1.232.952.952,0,0,0-1.3-.166c-.321.215-.6.422-.883-.011s-1.107-.627-.656-1.437c.428-.767.807-1.562,1.193-2.352.207-.424.4-.424.727-.091q4.547,4.586,9.116,9.149a5.348,5.348,0,0,1-1.891,1.184" transform="translate(4989.471 -8438.287)" fill="#57636f"/>
      <path id="Trazado_130220" data-name="Trazado 130220" d="M536.717,21.9q-2.985-2.963-5.969-5.927c-.2-.2-.335-.352.1-.454a32.9,32.9,0,0,1,7.18-.978,33.769,33.769,0,0,1-1.307,7.359" transform="translate(4887.362 -8345.98)" fill="#eb736f"/>
      <path id="Trazado_130221" data-name="Trazado 130221" d="M552.045,21.578a33.78,33.78,0,0,0,1.307-7.359c.57-.041,1.14-.075,1.71-.124.308-.026.424.091.416.406a40.762,40.762,0,0,1-1.115,8.911c-.122.486-.312.209-.468.053-.622-.623-1.234-1.256-1.85-1.886" transform="translate(4872.035 -8345.662)" fill="#d95b57"/>
      <path id="Trazado_130222" data-name="Trazado 130222" d="M419.16,177.867a5.349,5.349,0,0,0,1.892-1.184c.68.666,1.357,1.334,2.04,2,.241.234.272.4-.057.6a18.548,18.548,0,0,1-2.6,1.332c-.727.3-.916-.51-1.347-.816-.329-.234-.146-.484.056-.722.334-.391.168-.8.02-1.211" transform="translate(4967.019 -8461.656)" fill="#232e3c"/>
      <path id="Trazado_130223" data-name="Trazado 130223" d="M343.088,185.05a6.089,6.089,0,0,1,.853,8.179,19.109,19.109,0,0,1-3.98,3.458,69.745,69.745,0,0,1-11.171,6.887,13.034,13.034,0,0,1-4.047,1.338c-.9.109-1.2-.179-1.07-1.075a5.222,5.222,0,0,1,.391-1.586A16.475,16.475,0,0,0,328.908,200a2.034,2.034,0,0,0,1.78.126,10.362,10.362,0,0,0,2.059-.964,68.85,68.85,0,0,0,8.595-6.339,4.112,4.112,0,0,0,1.467-4.449c.211-.215.2-.5.277-.766a9.629,9.629,0,0,0,0-2.561" transform="translate(5034.977 -8467.624)" fill="#d95b57"/>
      <path id="Trazado_130224" data-name="Trazado 130224" d="M329.953,195.973a16.483,16.483,0,0,1-4.845,2.248,27.455,27.455,0,0,1,2.879-6.1,68.276,68.276,0,0,1,7.486-10.66,6.046,6.046,0,0,1,8.659-.442,9.628,9.628,0,0,1,0,2.561c-.075.266-.066.551-.277.766-1.339-3.22-4.818-3.741-7.082-1.079a75.725,75.725,0,0,0-5.443,7.165,12.539,12.539,0,0,0-1.867,3.594,1.712,1.712,0,0,0,.49,1.946" transform="translate(5033.932 -8463.595)" fill="#ea726e"/>
      <path id="Trazado_130225" data-name="Trazado 130225" d="M490.658,66.258a3.929,3.929,0,0,1,5.385-5.378,4.95,4.95,0,0,1-1.993,4.382,5.037,5.037,0,0,1-3.392,1" transform="translate(4916.214 -8378.649)" fill="#649ef5"/>
      <path id="Trazado_130226" data-name="Trazado 130226" d="M492,67.627a5.037,5.037,0,0,0,3.392-1,4.95,4.95,0,0,0,1.993-4.382,3.906,3.906,0,0,1,1.964,4.081,4.067,4.067,0,0,1-3.192,3.248A3.908,3.908,0,0,1,492,67.627" transform="translate(4914.868 -8380.018)" fill="#4484d4"/>
      <path id="Trazado_130227" data-name="Trazado 130227" d="M447.691,109.138a3.966,3.966,0,0,1,.7-4.78,3.914,3.914,0,0,1,4.727-.548,14.716,14.716,0,0,1-.116,1.555,4.97,4.97,0,0,1-5.306,3.773" transform="translate(4946.84 -8409.272)" fill="#649ef5"/>
      <path id="Trazado_130228" data-name="Trazado 130228" d="M448.943,110.519a4.97,4.97,0,0,0,5.306-3.773,14.708,14.708,0,0,0,.116-1.555,3.9,3.9,0,0,1,1.964,4.076,4.068,4.068,0,0,1-3.187,3.249,3.926,3.926,0,0,1-4.2-2" transform="translate(4945.588 -8410.652)" fill="#4484d4"/>
      <path id="Trazado_130229" data-name="Trazado 130229" d="M340.532,201.351a1.712,1.712,0,0,1-.49-1.946,12.54,12.54,0,0,1,1.867-3.594,75.732,75.732,0,0,1,5.442-7.165c2.264-2.662,5.743-2.141,7.082,1.079a4.112,4.112,0,0,1-1.467,4.449,68.879,68.879,0,0,1-8.595,6.339,10.368,10.368,0,0,1-2.059.964,2.034,2.034,0,0,1-1.78-.126m2.062-2.4c.209-.087.291-.11.362-.152a62.057,62.057,0,0,0,8.891-6.544,1.551,1.551,0,0,0,.465-.706,1.768,1.768,0,0,0-.777-2.158,1.788,1.788,0,0,0-2.318.42,59.694,59.694,0,0,0-3.861,4.858,28.43,28.43,0,0,0-2.762,4.281" transform="translate(5023.352 -8468.974)" fill="#040202"/>
      <path id="Trazado_130230" data-name="Trazado 130230" d="M349.207,204.415a28.425,28.425,0,0,1,2.762-4.281,59.706,59.706,0,0,1,3.861-4.858,1.788,1.788,0,0,1,2.318-.42,1.768,1.768,0,0,1,.777,2.158,1.552,1.552,0,0,1-.465.706,62.058,62.058,0,0,1-8.891,6.544c-.071.042-.153.065-.362.152" transform="translate(5016.74 -8474.437)" fill="#f1c769"/>
    </g>
  </g>
</svg>
