<svg xmlns="http://www.w3.org/2000/svg" width="90.997" height="90.997" viewBox="0 0 90.997 90.997">
  <g id="Grupo_86485" data-name="Grupo 86485" transform="translate(-0.278 -0.277)">
    <circle id="Elipse_5411" data-name="Elipse 5411" cx="45.498" cy="45.498" r="45.498" transform="translate(0.278 0.277)" fill="#2ff980"/>
    <g id="Grupo_86515" data-name="Grupo 86515" transform="translate(-5848.714 8341.693)">
      <path id="Trazado_130288" data-name="Trazado 130288" d="M1774.053,4.748a3.525,3.525,0,0,1,2.58,1.156.713.713,0,0,0,1.054.185,16.626,16.626,0,0,1,3.677-1.53.711.711,0,0,0,.632-.792A3.486,3.486,0,0,1,1785.85.019c1.623,0,3.246-.005,4.869,0a3.463,3.463,0,0,1,3.718,3.648.789.789,0,0,0,.689.908,16.932,16.932,0,0,1,3.674,1.537.657.657,0,0,0,.934-.139,3.49,3.49,0,0,1,5.325.005q1.759,1.739,3.5,3.5a3.5,3.5,0,0,1,.049,5.279c-.31.321-.439.557-.187,1a16.578,16.578,0,0,1,1.558,3.75c.13.457.359.583.828.589a3.5,3.5,0,0,1,3.708,3.751q.012,2.474,0,4.948a3.5,3.5,0,0,1-3.7,3.763c-.447,0-.7.088-.834.566a17.376,17.376,0,0,1-1.581,3.826.62.62,0,0,0,.137.869,3.532,3.532,0,0,1-.073,5.446c-1.145,1.151-2.287,2.3-3.445,3.441a3.485,3.485,0,0,1-5.219.032.748.748,0,0,0-1.063-.173,17.727,17.727,0,0,1-3.679,1.53c-.429.127-.617.29-.622.791a3.506,3.506,0,0,1-3.788,3.753q-2.435.014-4.869,0a3.514,3.514,0,0,1-3.792-3.752c-.006-.428-.094-.66-.536-.78a17.117,17.117,0,0,1-3.825-1.579.665.665,0,0,0-.936.152,3.506,3.506,0,0,1-5.388-.079c-1.168-1.164-2.34-2.325-3.5-3.5a3.477,3.477,0,0,1-.025-5.161.781.781,0,0,0,.183-1.125,15.864,15.864,0,0,1-1.5-3.607.737.737,0,0,0-.846-.653,3.489,3.489,0,0,1-3.71-3.747q-.011-2.474,0-4.948a3.485,3.485,0,0,1,3.694-3.762.752.752,0,0,0,.861-.65A17.346,17.346,0,0,1,1768,15.762a.664.664,0,0,0-.1-.943c-1.7-1.769-1.66-3.7.075-5.441,1.164-1.168,2.338-2.328,3.5-3.5a3.673,3.673,0,0,1,2.585-1.129m7.926,40.21c0-2.1-.023-4.089.015-6.077a.963.963,0,0,0-.635-1.005,13.878,13.878,0,0,1-4.086-21.372,10.019,10.019,0,0,1,4.563-3.336,2.459,2.459,0,0,1,3.275,1.917,4.908,4.908,0,0,1,.138,1.323c-.132,2.643-.026,5.287-.055,7.931a5.493,5.493,0,0,0,.111,1.168,3.309,3.309,0,0,0,2.832,2.567,3.269,3.269,0,0,0,2.908-2.264,4.315,4.315,0,0,0,.187-1.234q.026-3.534,0-7.069a11.736,11.736,0,0,1,.034-2.191,2.513,2.513,0,0,1,3.4-2.128,5.314,5.314,0,0,1,1.013.41,13.88,13.88,0,0,1-.75,24.353.762.762,0,0,0-.486.778c.021,1.885.032,3.771,0,5.655-.011.586.176.572.616.4a23.622,23.622,0,0,0,3.514-1.72,1.6,1.6,0,0,1,2.26.268c.359.344.723.685,1.053,1.057.369.416.669.371,1.037-.014.741-.776,1.513-1.522,2.273-2.28,1.574-1.571,1.574-1.571.06-3.138-.018-.019-.038-.037-.055-.056a1.563,1.563,0,0,1-.254-2.193,20.755,20.755,0,0,0,2.424-5.837,1.657,1.657,0,0,1,1.918-1.45c.471,0,.943-.016,1.414,0,.449.019.683-.133.679-.622q-.018-2.474,0-4.948c0-.484-.214-.648-.669-.634-.549.018-1.1.022-1.649,0a1.54,1.54,0,0,1-1.638-1.292,21.7,21.7,0,0,0-2.556-6.122,1.5,1.5,0,0,1,.216-1.945,16.086,16.086,0,0,1,1.164-1.167c.431-.381.441-.683.01-1.089-.839-.789-1.637-1.621-2.451-2.436-1.409-1.41-1.409-1.41-2.851.012-.075.073-.146.15-.224.221a1.525,1.525,0,0,1-2.069.227,21.467,21.467,0,0,0-6.051-2.517,1.547,1.547,0,0,1-1.3-1.635c-.022-.549-.019-1.1,0-1.649.015-.452-.138-.672-.629-.667q-2.473.025-4.947,0c-.5,0-.636.227-.621.674.019.549.02,1.1,0,1.649a1.552,1.552,0,0,1-1.226,1.614,21.789,21.789,0,0,0-6.2,2.57,1.482,1.482,0,0,1-2-.271c-.4-.376-.794-.762-1.165-1.167-.339-.37-.615-.38-.972-.006-.8.833-1.623,1.635-2.437,2.449-1.46,1.461-1.46,1.461-.039,2.906.073.075.15.147.219.225a1.545,1.545,0,0,1,.219,2.074,21.1,21.1,0,0,0-2.486,5.981,1.591,1.591,0,0,1-1.748,1.363q-.785.026-1.57,0c-.456-.015-.671.152-.667.636q.022,2.474,0,4.948c0,.491.233.636.681.62.549-.019,1.1-.018,1.649,0a1.541,1.541,0,0,1,1.614,1.22,21.607,21.607,0,0,0,2.571,6.2,1.5,1.5,0,0,1-.275,2c-.375.4-.762.794-1.167,1.165-.375.344-.359.631,0,.98.828.8,1.634,1.623,2.449,2.437,1.456,1.452,1.456,1.452,2.916.017a1.688,1.688,0,0,1,2.509-.3,18.317,18.317,0,0,0,3.979,1.819m12.391-28.53c0,.369,0,.543,0,.718a82.275,82.275,0,0,1-.117,8.631,6.073,6.073,0,0,1-12.086-.065c-.306-2.84-.074-5.7-.112-8.553,0-.187.131-.409-.13-.59-.077.051-.161.1-.24.159a10.341,10.341,0,0,0-4.6,9.58,10.469,10.469,0,0,0,6.584,9.194c1.221.556,1.454.858,1.454,2.194,0,3.639.016,7.278-.013,10.918-.005.7.221.909.9.89,1.465-.042,2.933-.052,4.4,0,.753.028.924-.254.919-.956-.029-3.691-.007-7.383-.018-11.074a1.829,1.829,0,0,1,1.227-1.88,10.465,10.465,0,0,0,6.8-9.2c.355-4.179-1.438-7.422-4.965-9.97" transform="translate(4117.036 -8336.123)" fill="#030303"/>
      <path id="Trazado_130289" data-name="Trazado 130289" d="M1747.254,187.149a1.672,1.672,0,0,1-.7,2.3c-.911.659-1.836,1.3-2.748,1.957a12.454,12.454,0,0,1-11.423,1.979c-6.613-1.934-13.292-3.644-19.946-5.436a19.607,19.607,0,0,0-4.219-.178c-.28-.014-.314.213-.407.4a4.147,4.147,0,0,1-4.032,2.457c-1.964-.021-3.927,0-5.891-.007a4.143,4.143,0,0,1-4.336-4.348q-.015-8.052,0-16.1a4.186,4.186,0,0,1,4.337-4.369q2.984-.021,5.969,0a4.112,4.112,0,0,1,3.911,2.407.686.686,0,0,0,.7.467,9.977,9.977,0,0,0,4.138-.66,19.735,19.735,0,0,1,6.916-1.6,15.132,15.132,0,0,1,10.157,3.706,4.788,4.788,0,0,1,.839.707,4.019,4.019,0,0,0,3.746,1.4c2.167-.11,4.345-.005,6.517-.036a5.82,5.82,0,0,1,4.244,1.509c.37.345.6.122.886-.025q5.817-2.987,11.63-5.981a6.3,6.3,0,0,1,4.164-.752,5.259,5.259,0,0,1,4.413,4.048,5.376,5.376,0,0,1-1.942,5.835c-1.89,1.524-3.921,2.875-5.915,4.267a1.583,1.583,0,0,1-2.081-.242,1.637,1.637,0,0,1,.592-2.536c1.721-1.234,3.462-2.442,5.163-3.7a2.5,2.5,0,1,0-2.549-4.306c-.119.051-.238.106-.354.166q-5.817,2.987-11.635,5.967a.731.731,0,0,0-.486.884,5.737,5.737,0,0,1-4.9,6.4,7.163,7.163,0,0,1-1.17.094q-6.556.01-13.111,0c-.131,0-.262,0-.393-.005a1.6,1.6,0,0,1-1.6-1.6,1.531,1.531,0,0,1,1.638-1.532q6.516-.016,13.033-.005c2.176,0,3.411-.978,3.4-2.694-.01-1.695-1.216-2.647-3.351-2.647-2.068,0-4.143-.112-6.2.03a6.966,6.966,0,0,1-5.85-2.152,12.348,12.348,0,0,0-6.089-3.387,13.971,13.971,0,0,0-8.352,1.023,11.687,11.687,0,0,1-5.111.946c-.543-.037-.708.13-.7.688q.036,5.732,0,11.465c0,.557.152.68.693.69a16.9,16.9,0,0,1,4.289.24c6.745,1.85,13.519,3.6,20.246,5.509a9.12,9.12,0,0,0,8.316-1.362c.975-.7,1.964-1.387,2.948-2.08a1.674,1.674,0,0,1,2.608.2m-42.23-8.967q0-3.923,0-7.845c0-1.06-.338-1.39-1.415-1.393q-2.745-.008-5.491,0c-1.076,0-1.423.34-1.423,1.394q-.006,7.884,0,15.769c0,1.033.332,1.368,1.348,1.371q2.784.008,5.57,0c1.138,0,1.411-.283,1.413-1.451q0-3.923,0-7.845" transform="translate(4163.878 -8449.711)" fill="#030202"/>
      <path id="Trazado_130290" data-name="Trazado 130290" d="M1779.053,195.36a1.674,1.674,0,0,0-2.608-.2c-.983.692-1.972,1.376-2.947,2.08a9.121,9.121,0,0,1-8.317,1.362c-6.727-1.912-13.5-3.659-20.246-5.509a16.9,16.9,0,0,0-4.289-.24c-.541-.01-.7-.134-.693-.69q.038-5.732,0-11.465c0-.558.162-.726.7-.688a11.688,11.688,0,0,0,5.111-.946,13.971,13.971,0,0,1,8.352-1.023,12.346,12.346,0,0,1,6.089,3.387,6.967,6.967,0,0,0,5.85,2.152c2.057-.142,4.133-.03,6.2-.03,2.135,0,3.341.953,3.351,2.647.011,1.715-1.224,2.693-3.4,2.694q-6.516,0-13.033.005a1.53,1.53,0,0,0-1.637,1.532,1.6,1.6,0,0,0,1.6,1.6c.13.009.261.005.392.005q6.556,0,13.111,0a7.2,7.2,0,0,0,1.17-.094,5.737,5.737,0,0,0,4.9-6.4.731.731,0,0,1,.486-.884q5.824-2.97,11.635-5.967c.116-.06.235-.114.354-.166a2.5,2.5,0,1,1,2.549,4.306c-1.7,1.26-3.442,2.467-5.163,3.7a1.637,1.637,0,0,0-.592,2.536,9.849,9.849,0,0,0-3.142,2.257c-.763-.831-1.521-1.005-2.255-.518-.778.517-.9,1.3-.368,2.338a14.22,14.22,0,0,0-3.16,2.22" transform="translate(4132.08 -8457.922)" fill="#f7dbd4"/>
      <path id="Trazado_130291" data-name="Trazado 130291" d="M1873.488,220.914c-.534-1.033-.41-1.82.368-2.338.734-.488,1.491-.314,2.255.518.285.98.126,1.638-.5,2.074a1.673,1.673,0,0,1-2.12-.253" transform="translate(4040.804 -8485.696)" fill="#060606"/>
      <path id="Trazado_130292" data-name="Trazado 130292" d="M1788.817,51.793a18.315,18.315,0,0,1-3.979-1.819,1.687,1.687,0,0,0-2.509.3c-1.461,1.435-1.461,1.435-2.916-.017-.815-.813-1.621-1.637-2.449-2.437-.361-.349-.377-.637,0-.98.4-.371.792-.764,1.167-1.165a1.5,1.5,0,0,0,.275-2,21.614,21.614,0,0,1-2.571-6.2,1.541,1.541,0,0,0-1.614-1.221c-.549-.018-1.1-.019-1.649,0-.448.016-.685-.129-.681-.62q.019-2.474,0-4.948c0-.483.21-.651.667-.636.523.018,1.047.017,1.57,0a1.59,1.59,0,0,0,1.748-1.363,21.117,21.117,0,0,1,2.486-5.981,1.546,1.546,0,0,0-.219-2.074c-.07-.078-.146-.15-.22-.224-1.421-1.446-1.421-1.446.04-2.906.814-.815,1.642-1.616,2.437-2.449.358-.374.634-.364.972.006.371.4.765.79,1.165,1.167a1.482,1.482,0,0,0,2,.271,21.782,21.782,0,0,1,6.2-2.57,1.553,1.553,0,0,0,1.226-1.615c.021-.549.019-1.1,0-1.649-.015-.447.124-.679.621-.674q2.474.025,4.948,0c.49-.005.644.215.629.667-.018.549-.02,1.1,0,1.649a1.547,1.547,0,0,0,1.3,1.635,21.464,21.464,0,0,1,6.051,2.517,1.525,1.525,0,0,0,2.069-.227c.078-.071.149-.147.224-.221,1.443-1.422,1.443-1.422,2.851-.012.814.815,1.612,1.647,2.451,2.436.431.405.421.708-.01,1.089a16.078,16.078,0,0,0-1.164,1.167,1.5,1.5,0,0,0-.216,1.945,21.7,21.7,0,0,1,2.556,6.122,1.539,1.539,0,0,0,1.638,1.291c.549.026,1.1.021,1.649,0,.455-.014.673.15.669.634q-.021,2.474,0,4.948c0,.49-.23.641-.679.622-.47-.02-.942-.008-1.413,0a1.657,1.657,0,0,0-1.918,1.45,20.748,20.748,0,0,1-2.424,5.837,1.563,1.563,0,0,0,.254,2.193l.055.056c1.513,1.567,1.513,1.567-.06,3.138-.76.758-1.532,1.5-2.273,2.28-.368.385-.668.431-1.037.014-.329-.371-.693-.713-1.052-1.057a1.6,1.6,0,0,0-2.26-.268,23.584,23.584,0,0,1-3.514,1.72c-.44.172-.627.186-.616-.4.036-1.884.025-3.77,0-5.655a.761.761,0,0,1,.486-.778,13.88,13.88,0,0,0,.75-24.353,5.338,5.338,0,0,0-1.013-.41,2.513,2.513,0,0,0-3.4,2.128,11.712,11.712,0,0,0-.034,2.191q.026,3.534,0,7.069a4.317,4.317,0,0,1-.187,1.234,3.269,3.269,0,0,1-2.908,2.264,3.309,3.309,0,0,1-2.832-2.567,5.463,5.463,0,0,1-.111-1.168c.028-2.643-.078-5.288.054-7.931a4.892,4.892,0,0,0-.138-1.323A2.459,2.459,0,0,0,1788.674,20a10.022,10.022,0,0,0-4.563,3.336,13.878,13.878,0,0,0,4.086,21.372.962.962,0,0,1,.635,1c-.038,1.989-.015,3.978-.015,6.078" transform="translate(4110.197 -8342.958)" fill="#c9bec2"/>
      <path id="Trazado_130293" data-name="Trazado 130293" d="M1827.323,52.151c3.528,2.548,5.321,5.79,4.965,9.97a10.465,10.465,0,0,1-6.8,9.2,1.829,1.829,0,0,0-1.227,1.88c.011,3.691-.011,7.383.018,11.074.005.7-.166.984-.919.956-1.464-.055-2.932-.045-4.4,0-.681.02-.908-.193-.9-.89.03-3.639.015-7.278.013-10.918,0-1.336-.233-1.638-1.454-2.194a10.469,10.469,0,0,1-6.584-9.194,10.342,10.342,0,0,1,4.6-9.58c.079-.057.163-.108.24-.159.261.181.127.4.13.59.038,2.851-.193,5.713.112,8.553a6.073,6.073,0,0,0,12.086.065,82.308,82.308,0,0,0,.117-8.631c0-.174,0-.348,0-.718" transform="translate(4084.083 -8371.847)" fill="#f0edee"/>
      <path id="Trazado_130294" data-name="Trazado 130294" d="M1711.873,185.038q0,3.923,0,7.845c0,1.168-.274,1.449-1.413,1.451q-2.785.005-5.57,0c-1.015,0-1.347-.338-1.347-1.371q-.006-7.885,0-15.769c0-1.055.348-1.391,1.423-1.394q2.745-.007,5.491,0c1.077,0,1.414.334,1.416,1.393q.006,3.923,0,7.845" transform="translate(4157.029 -8456.567)" fill="#f0a2b0"/>
    </g>
  </g>
</svg>
