<svg xmlns="http://www.w3.org/2000/svg" xmlns:xlink="http://www.w3.org/1999/xlink" width="96" height="96" viewBox="0 0 96 96">
  <defs>
    <clipPath id="clip-path">
      <rect id="Rect치ngulo_36784" data-name="Rect치ngulo 36784" width="96" height="96" fill="#fff" stroke="#707070" stroke-width="1"/>
    </clipPath>
    <clipPath id="clip-path-2">
      <rect id="Rect치ngulo_36881" data-name="Rect치ngulo 36881" width="81.344" height="86.794" fill="none"/>
    </clipPath>
  </defs>
  <g id="Grupo_86230" data-name="Grupo 86230" clip-path="url(#clip-path)">
    <g id="Grupo_86516" data-name="Grupo 86516" transform="translate(7.328 4.603)">
      <g id="Grupo_86516-2" data-name="Grupo 86516" clip-path="url(#clip-path-2)">
        <path id="Trazado_130350" data-name="Trazado 130350" d="M80.132,74.783a1.473,1.473,0,0,1,1.21,1.67c-.024,2.259,0,4.518-.011,6.777a3.348,3.348,0,0,1-3.548,3.561q-37.1.006-74.2,0A3.34,3.34,0,0,1,.012,83.252q-.014-10,0-19.994a3.364,3.364,0,0,1,3.618-3.582c1.723-.012,1.69-.013,1.73-1.77.015-.667-.168-.9-.836-.832A6.7,6.7,0,0,1,3,57.038a3.29,3.29,0,0,1-2.985-3.33Q-.011,43.5.02,33.291a3.275,3.275,0,0,1,3.346-3.316c1.985-.051,1.954-.051,1.994-2.049.014-.669-.173-.9-.832-.817a7.536,7.536,0,0,1-1.185.005,3.312,3.312,0,0,1-3.32-3.273C-.022,20.961.012,18.081.008,15.2a1.422,1.422,0,0,1,1.327-1.486,1.531,1.531,0,0,1,1.229,1.747C2.526,17.975,2.55,20.489,2.551,23c0,1.461.113,1.571,1.6,1.571q34.145,0,68.289,0c.31,0,.62-.017.93-.027,1.468.01,2.936.021,4.4.027.706,0,1.017-.375,1.017-1.062q0-9.957,0-19.915c0-.689-.3-1.06-1.015-1.054-1.468.012-2.937.018-4.4.027-.338-.009-.676-.025-1.014-.025q-11.345,0-22.688,0H3.956c-1.246,0-1.4.159-1.4,1.416,0,1.609-.022,3.218.008,4.826A1.393,1.393,0,0,1,1.313,10.4c-1.022-.249-1.3-.588-1.3-1.645C0,7,0,5.254.012,3.5A3.338,3.338,0,0,1,3.533,0Q40.677,0,77.822,0a3.328,3.328,0,0,1,3.507,3.513q.017,10.04,0,20.079a3.356,3.356,0,0,1-3.51,3.522c-1.821.026-1.763.029-1.844,1.833-.04.9.251,1.121,1.081,1.04a5.57,5.57,0,0,1,1.766.088,3.322,3.322,0,0,1,2.509,3.478q.009,9.447,0,18.893c0,.4.007.791,0,1.186a3.37,3.37,0,0,1-3.173,3.434c-.112.011-.225.013-.338.016-2.012.062-2.045.115-1.833,2.191.036.353.171.412.468.4q.762-.021,1.524,0a3.327,3.327,0,0,1,3.343,3.339c.036,2.315.013,4.631.007,6.947A1.282,1.282,0,0,1,80.19,71.4c-1.029-.106-1.39-.48-1.393-1.5q-.013-3.287,0-6.575c0-.72-.287-1.116-1.043-1.108-1.46.014-2.921.02-4.381.03-.169-.009-.338-.026-.506-.026q-34.526,0-69.053,0c-1.046,0-1.261.227-1.261,1.316q0,9.618,0,19.236c0,1.342.14,1.477,1.518,1.477H72.444c.31,0,.621-.016.931-.025,1.406.009,2.813.025,4.219.024.953,0,1.194-.242,1.2-1.2.007-2.167,0-4.334,0-6.5,0-1.234.183-1.47,1.337-1.765m-6.77-20.276c1.351.017,2.7.043,4.054.047,1.146,0,1.379-.239,1.379-1.388q0-6.806,0-13.613c0-1.973-.008-3.946,0-5.919,0-.766-.3-1.142-1.109-1.119-1.436.04-2.873.028-4.31.037-.225-.011-.45-.032-.676-.032q-34.44,0-68.881,0c-1.1,0-1.271.171-1.272,1.282q0,9.533,0,19.066c0,1.573.1,1.677,1.679,1.677q34.059,0,68.118,0c.338,0,.676-.025,1.014-.038M40.669,27.12H9.655c-1.731,0-1.731,0-1.73,1.729,0,1.138,0,1.138,1.141,1.138H71.6c1.818,0,1.767,0,1.837-1.82.034-.873-.23-1.069-1.079-1.067q-15.846.046-31.692.02m-.086,32.553H72.188c.226,0,.453-.013.678,0,.391.026.579-.13.552-.537-.017-.253,0-.508,0-.762-.016-1.432.16-1.267-1.263-1.268q-31.352,0-62.7,0c-1.527,0-1.473,0-1.546,1.516-.042.864.214,1.075,1.072,1.072,10.535-.031,21.07-.02,31.605-.02" transform="translate(0 0)" fill="#010102"/>
        <path id="Trazado_130351" data-name="Trazado 130351" d="M3.867,15.347a1.392,1.392,0,0,0,1.246-1.614c-.03-1.608-.01-3.217-.008-4.826,0-1.257.159-1.416,1.4-1.416H52.225q11.344,0,22.688,0c.338,0,.676.016,1.014.025a17.122,17.122,0,0,1,.17,3.839l-.4-.111a4.1,4.1,0,0,0-5.356,4.049c-.014,2.2-.006,4.4,0,6.6a3.88,3.88,0,0,0,1.23,2.872,4.181,4.181,0,0,0,4.53.891,17.1,17.1,0,0,1-.173,3.838c-.31.01-.62.027-.93.027q-34.144,0-68.289,0c-1.488,0-1.6-.111-1.6-1.571,0-2.514-.025-5.028.013-7.542A1.531,1.531,0,0,0,3.889,18.66Q3.878,17,3.867,15.347m26.22,8.072q8.684,0,17.369,0a4.911,4.911,0,1,0,.077-9.821q-17.369-.023-34.738-.007a4.8,4.8,0,0,0-1.894.388,4.91,4.91,0,0,0,1.9,9.438c5.761.015,11.523.005,17.284.005m28.906-4.995c0,1.1-.009,2.2,0,3.3a4.155,4.155,0,0,0,3.978,4.229,4.1,4.1,0,0,0,4.254-4.033c.076-2.285.079-4.576,0-6.86a4.084,4.084,0,0,0-4.267-4.012,4.15,4.15,0,0,0-3.963,4.239c-.01,1.045,0,2.089,0,3.134" transform="translate(-2.553 -4.946)" fill="#7c8a96"/>
        <path id="Trazado_130352" data-name="Trazado 130352" d="M216.005,183.194c1.46-.01,2.921-.015,4.381-.03.756-.007,1.046.388,1.043,1.108q-.015,3.287,0,6.575c0,1.018.364,1.392,1.393,1.5a18.44,18.44,0,0,0-.058,3.385c-1.154.3-1.336.532-1.338,1.766,0,2.167,0,4.334,0,6.5,0,.957-.244,1.2-1.2,1.2-1.407,0-2.813-.015-4.22-.024a17.159,17.159,0,0,0,.17-3.84,4.508,4.508,0,0,0,2.5-4.44c-.017-1.8-.021-3.61,0-5.415a4.536,4.536,0,0,0-2.5-4.444,17.092,17.092,0,0,0-.172-3.837" transform="translate(-142.632 -120.946)" fill="#5c6a73"/>
        <path id="Trazado_130353" data-name="Trazado 130353" d="M78.5,201.334a17.175,17.175,0,0,1-.17,3.84c-.31.009-.62.025-.931.025H9.028c-1.377,0-1.517-.136-1.518-1.477q0-9.618,0-19.236c0-1.088.216-1.316,1.261-1.316q34.526,0,69.053,0c.169,0,.338.017.507.027a17.112,17.112,0,0,1,.172,3.837,4.241,4.241,0,0,0-5.792,4.449c.149,1.706.021,3.436.03,5.156a8.842,8.842,0,0,0,.078,1.684c.515,2.559,2.848,3.78,5.683,3.01M32.581,199.1v0q8.43,0,16.86,0a6.713,6.713,0,0,0,1.516-.1,4.91,4.91,0,0,0-1.023-9.722c-3.672-.017-7.343,0-11.015,0q-11.777,0-23.554,0a4.733,4.733,0,0,0-4.639,2.948,4.873,4.873,0,0,0,4.486,6.869c5.79.034,11.579.009,17.369.009M61.4,194.182c0,1.073-.008,2.146,0,3.219a4.149,4.149,0,0,0,3.966,4.237,4.088,4.088,0,0,0,4.265-4.016c.079-2.284.077-4.576,0-6.86a4.1,4.1,0,0,0-4.256-4.028,4.152,4.152,0,0,0-3.976,4.23c-.011,1.073,0,2.146,0,3.219" transform="translate(-4.959 -120.95)" fill="#7c8a96"/>
        <path id="Trazado_130354" data-name="Trazado 130354" d="M78.32,117.725c-.338.013-.676.038-1.014.038q-34.059,0-68.118,0c-1.575,0-1.679-.1-1.679-1.677q0-9.533,0-19.066c0-1.112.17-1.282,1.272-1.282q34.44,0,68.881,0c.225,0,.45.02.676.031a17.682,17.682,0,0,1,.166,3.827,4.212,4.212,0,0,0-5.792,4.346c.139,2.02.034,4.058.024,6.087a3.885,3.885,0,0,0,.839,2.515,4.194,4.194,0,0,0,4.934,1.346c-.091,1.276.2,2.571-.19,3.832M32.635,101.831c-5.791,0-11.581-.023-17.371.009a4.842,4.842,0,0,0-4.893,5.673,4.947,4.947,0,0,0,5.106,4.15q13.135.011,26.269,0c2.712,0,5.424.025,8.135-.007a4.912,4.912,0,1,0-.043-9.822c-5.734-.019-11.468-.006-17.2-.005M61.4,106.7c0,1.073-.007,2.145,0,3.218a4.118,4.118,0,1,0,8.233.2c.074-2.256.073-4.518,0-6.774A4.056,4.056,0,0,0,65.32,99.3a4.116,4.116,0,0,0-3.921,4.262c-.008,1.045,0,2.089,0,3.134" transform="translate(-4.958 -63.218)" fill="#7c8a96"/>
        <path id="Trazado_130355" data-name="Trazado 130355" d="M56.075,79.8q15.846,0,31.692-.02c.849,0,1.113.194,1.079,1.067-.07,1.818-.019,1.82-1.837,1.82H24.473c-1.141,0-1.141,0-1.142-1.138,0-1.729,0-1.729,1.73-1.729H56.075" transform="translate(-15.406 -52.681)" fill="#49585e"/>
        <path id="Trazado_130356" data-name="Trazado 130356" d="M55.941,170.675c-10.535,0-21.07-.011-31.605.02-.858,0-1.114-.208-1.072-1.072.073-1.513.019-1.516,1.546-1.516q31.352,0,62.7,0c1.423,0,1.247-.165,1.263,1.268,0,.254-.015.509,0,.762.027.407-.161.563-.552.537-.225-.015-.452,0-.678,0H55.941" transform="translate(-15.359 -111.002)" fill="#4a5a60"/>
        <path id="Trazado_130357" data-name="Trazado 130357" d="M216.156,99.587a17.678,17.678,0,0,0-.166-3.827c1.437-.01,2.874,0,4.31-.037.811-.022,1.114.353,1.109,1.119-.012,1.973,0,3.945,0,5.918q0,6.806,0,13.613c0,1.148-.233,1.391-1.379,1.388-1.351,0-2.7-.031-4.054-.047.394-1.261.1-2.556.19-3.832a4.509,4.509,0,0,0,2.438-4.537c-.1-1.8-.079-3.606-.005-5.406a4.3,4.3,0,0,0-2.437-4.352" transform="translate(-142.609 -63.207)" fill="#5a6871"/>
        <path id="Trazado_130358" data-name="Trazado 130358" d="M216,29.489a17.1,17.1,0,0,0,.173-3.838,4.257,4.257,0,0,0,2.461-3.855q.057-3.3,0-6.6a4.218,4.218,0,0,0-2.461-3.849,17.124,17.124,0,0,0-.17-3.839c1.468-.008,2.936-.015,4.4-.027.715-.006,1.016.365,1.015,1.054q0,9.958,0,19.915c0,.686-.311,1.065-1.017,1.062-1.468-.006-2.936-.018-4.4-.027" transform="translate(-142.631 -4.943)" fill="#5c6a73"/>
        <path id="Trazado_130359" data-name="Trazado 130359" d="M37.917,35.267c-5.761,0-11.523.01-17.284-.005a4.91,4.91,0,0,1-1.9-9.438,4.8,4.8,0,0,1,1.894-.388q17.369,0,34.738.007a4.911,4.911,0,1,1-.077,9.821q-8.684.017-17.369,0m.115-7.289H28.544c-2.6,0-5.2-.014-7.793.007a2.327,2.327,0,0,0-2.453,2.52,2.381,2.381,0,0,0,2.681,2.217q17.027,0,34.055,0a5.289,5.289,0,0,0,.592-.015,2.375,2.375,0,0,0-.481-4.726q-8.556-.013-17.112,0" transform="translate(-10.384 -16.795)" fill="#010101"/>
        <path id="Trazado_130360" data-name="Trazado 130360" d="M205.3,18.3a4.218,4.218,0,0,1,2.461,3.849q.053,3.3,0,6.595A4.258,4.258,0,0,1,205.3,32.6a4.181,4.181,0,0,1-4.53-.891,3.878,3.878,0,0,1-1.23-2.872c-.007-2.2-.015-4.4,0-6.6a4.1,4.1,0,0,1,5.356-4.049l.4.111m-3.222,7.139c0,1.072-.012,2.145,0,3.217a1.58,1.58,0,0,0,1.51,1.7,1.54,1.54,0,0,0,1.6-1.6q.047-3.3,0-6.6a1.53,1.53,0,0,0-1.588-1.611,1.567,1.567,0,0,0-1.524,1.682c-.017,1.072,0,2.144,0,3.217" transform="translate(-131.753 -11.896)" fill="#020203"/>
        <path id="Trazado_130361" data-name="Trazado 130361" d="M166.146,25.342c0-1.045-.008-2.09,0-3.134a4.15,4.15,0,0,1,3.963-4.239,4.084,4.084,0,0,1,4.267,4.012c.08,2.284.077,4.576,0,6.86a4.1,4.1,0,0,1-4.254,4.033,4.155,4.155,0,0,1-3.978-4.229c-.011-1.1,0-2.2,0-3.3m2.543.085c0,1.073-.017,2.145,0,3.217a1.593,1.593,0,0,0,1.536,1.686,1.564,1.564,0,0,0,1.605-1.617q.058-3.3,0-6.6a1.541,1.541,0,0,0-1.62-1.595,1.58,1.58,0,0,0-1.521,1.7c-.02,1.072,0,2.145,0,3.217" transform="translate(-109.707 -11.864)" fill="#020203"/>
        <path id="Trazado_130362" data-name="Trazado 130362" d="M205.218,208.269c-2.835.77-5.168-.451-5.683-3.01a8.813,8.813,0,0,1-.078-1.684c-.009-1.719.12-3.449-.03-5.156a4.242,4.242,0,0,1,5.792-4.449,4.536,4.536,0,0,1,2.5,4.444c-.022,1.8-.018,3.61,0,5.415a4.508,4.508,0,0,1-2.5,4.44m-.092-7.109c0-1.044.013-2.088,0-3.131-.017-1.118-.638-1.822-1.567-1.816s-1.552.715-1.556,1.825q-.012,3.089,0,6.178c0,1.112.622,1.813,1.566,1.813s1.54-.691,1.558-1.823c.016-1.015,0-2.031,0-3.047" transform="translate(-131.673 -127.886)" fill="#020203"/>
        <path id="Trazado_130363" data-name="Trazado 130363" d="M37.99,210.954c-5.79,0-11.579.025-17.369-.009a4.873,4.873,0,0,1-4.486-6.869,4.733,4.733,0,0,1,4.639-2.948q11.777-.015,23.554,0c3.672,0,7.343-.012,11.015,0a4.91,4.91,0,0,1,1.023,9.722,6.714,6.714,0,0,1-1.516.1q-8.431,0-16.86,0Zm-.005-7.286H32.732c-3.982,0-7.963-.007-11.945,0a2.347,2.347,0,0,0-2.512,2.3,2.309,2.309,0,0,0,2.38,2.428q17.324.022,34.648.009a2.734,2.734,0,0,0,.422-.026,2.374,2.374,0,0,0-.545-4.713q-8.6-.016-17.2,0" transform="translate(-10.368 -132.803)" fill="#010101"/>
        <path id="Trazado_130364" data-name="Trazado 130364" d="M166.146,201.106c0-1.073-.009-2.146,0-3.219a4.152,4.152,0,0,1,3.976-4.23,4.1,4.1,0,0,1,4.256,4.029c.077,2.284.078,4.576,0,6.86a4.088,4.088,0,0,1-4.265,4.016,4.148,4.148,0,0,1-3.966-4.237c-.011-1.073,0-2.146,0-3.219m2.543.012c0,1.073-.017,2.146,0,3.218a1.583,1.583,0,0,0,1.536,1.683,1.55,1.55,0,0,0,1.607-1.611q.058-3.3,0-6.6a1.556,1.556,0,0,0-1.618-1.6,1.593,1.593,0,0,0-1.524,1.7c-.02,1.072,0,2.145,0,3.218" transform="translate(-109.707 -127.874)" fill="#020203"/>
        <path id="Trazado_130365" data-name="Trazado 130365" d="M38.1,113.658c5.734,0,11.468-.013,17.2.005a4.912,4.912,0,1,1,.043,9.822c-2.711.033-5.423.007-8.135.007q-13.134,0-26.269,0a4.947,4.947,0,0,1-5.106-4.15,4.842,4.842,0,0,1,4.893-5.673c5.79-.032,11.581-.009,17.371-.01m.032,2.54H21.442c-.31,0-.622,0-.931.019a2.345,2.345,0,0,0-.31,4.637,5.537,5.537,0,0,0,1.093.085q16.771.007,33.541,0a5.007,5.007,0,0,0,1.174-.11,2.188,2.188,0,0,0,1.719-1.779c.341-1.588-.781-2.843-2.576-2.847q-8.512-.017-17.025,0" transform="translate(-10.419 -75.046)" fill="#030303"/>
        <path id="Trazado_130366" data-name="Trazado 130366" d="M205.235,106.5a4.3,4.3,0,0,1,2.438,4.352c-.074,1.8-.094,3.609.005,5.406a4.51,4.51,0,0,1-2.438,4.537,4.194,4.194,0,0,1-4.934-1.346,3.889,3.889,0,0,1-.839-2.516c.011-2.03.115-4.067-.024-6.087a4.212,4.212,0,0,1,5.792-4.346m-3.222,7.11c0,1.071-.011,2.141,0,3.212a1.59,1.59,0,0,0,1.576,1.72,1.559,1.559,0,0,0,1.532-1.674q.033-3.254,0-6.508a1.486,1.486,0,0,0-1.565-1.611,1.531,1.531,0,0,0-1.538,1.649c-.019,1.07,0,2.141-.005,3.212" transform="translate(-131.688 -70.116)" fill="#020203"/>
        <path id="Trazado_130367" data-name="Trazado 130367" d="M166.147,113.622c0-1.045-.006-2.089,0-3.134a4.116,4.116,0,0,1,3.921-4.262,4.057,4.057,0,0,1,4.313,4.035q.109,3.384,0,6.774a4.118,4.118,0,1,1-8.233-.2c-.009-1.073,0-2.145,0-3.218m2.543-.026c0,1.072-.012,2.144,0,3.216a1.583,1.583,0,1,0,3.151.034c.027-2.144.031-4.288,0-6.432a1.526,1.526,0,0,0-1.641-1.645,1.556,1.556,0,0,0-1.506,1.7c-.018,1.044,0,2.088,0,3.132" transform="translate(-109.708 -70.142)" fill="#020203"/>
        <path id="Trazado_130368" data-name="Trazado 130368" d="M43.025,32.914q8.556,0,17.112,0a2.375,2.375,0,0,1,.481,4.726,5.29,5.29,0,0,1-.592.016q-17.028,0-34.055,0a2.381,2.381,0,0,1-2.681-2.217,2.327,2.327,0,0,1,2.453-2.52c2.6-.021,5.2-.007,7.793-.007h9.488" transform="translate(-15.376 -21.731)" fill="#a0abb8"/>
        <path id="Trazado_130369" data-name="Trazado 130369" d="M207.015,30.361c0-1.072-.014-2.145,0-3.217a1.566,1.566,0,0,1,1.524-1.682,1.53,1.53,0,0,1,1.588,1.611q.045,3.3,0,6.6a1.54,1.54,0,0,1-1.6,1.6,1.58,1.58,0,0,1-1.51-1.7c-.016-1.072,0-2.144,0-3.217" transform="translate(-136.693 -16.813)" fill="#f1cb6c"/>
        <path id="Trazado_130370" data-name="Trazado 130370" d="M173.627,30.375c0-1.073-.016-2.145,0-3.217a1.58,1.58,0,0,1,1.522-1.7,1.541,1.541,0,0,1,1.619,1.595q.061,3.3,0,6.6a1.564,1.564,0,0,1-1.605,1.617,1.593,1.593,0,0,1-1.536-1.686c-.021-1.072,0-2.145,0-3.217" transform="translate(-114.645 -16.813)" fill="#71b1f2"/>
        <path id="Trazado_130371" data-name="Trazado 130371" d="M210.148,206.1c0,1.016.012,2.031,0,3.047-.017,1.131-.62,1.822-1.558,1.823s-1.561-.7-1.566-1.813q-.012-3.089,0-6.178c0-1.111.62-1.82,1.556-1.825s1.55.7,1.567,1.816c.016,1.044,0,2.087,0,3.131" transform="translate(-136.696 -132.824)" fill="#71b1f2"/>
        <path id="Trazado_130372" data-name="Trazado 130372" d="M42.986,208.616q8.6,0,17.2,0a2.374,2.374,0,0,1,.545,4.713,2.736,2.736,0,0,1-.422.026q-17.324,0-34.648-.009a2.31,2.31,0,0,1-2.38-2.428,2.347,2.347,0,0,1,2.512-2.3c3.982-.012,7.963,0,11.945,0h5.252" transform="translate(-15.37 -137.752)" fill="#a0abb8"/>
        <path id="Trazado_130373" data-name="Trazado 130373" d="M173.626,206.067c0-1.073-.015-2.146,0-3.218a1.593,1.593,0,0,1,1.524-1.7,1.557,1.557,0,0,1,1.618,1.6q.06,3.3,0,6.6a1.55,1.55,0,0,1-1.607,1.611,1.583,1.583,0,0,1-1.536-1.683c-.021-1.072,0-2.145,0-3.218" transform="translate(-114.644 -132.823)" fill="#f1cb6c"/>
        <path id="Trazado_130374" data-name="Trazado 130374" d="M43.088,121.149q8.512,0,17.025,0c1.8,0,2.917,1.259,2.576,2.847a2.188,2.188,0,0,1-1.719,1.779,4.99,4.99,0,0,1-1.174.11q-16.77.009-33.541,0a5.561,5.561,0,0,1-1.093-.085,2.345,2.345,0,0,1,.31-4.637c.309-.023.621-.019.931-.019H43.088" transform="translate(-15.379 -79.996)" fill="#9ea9b6"/>
        <path id="Trazado_130375" data-name="Trazado 130375" d="M207.024,118.582c0-1.071-.015-2.141,0-3.212a1.531,1.531,0,0,1,1.538-1.65,1.486,1.486,0,0,1,1.565,1.611q.041,3.253,0,6.508a1.559,1.559,0,0,1-1.532,1.674,1.591,1.591,0,0,1-1.576-1.72c-.014-1.07,0-2.141,0-3.212" transform="translate(-136.698 -75.092)" fill="#e96d72"/>
        <path id="Trazado_130376" data-name="Trazado 130376" d="M173.629,118.539c0-1.044-.014-2.088,0-3.132a1.556,1.556,0,0,1,1.506-1.7,1.526,1.526,0,0,1,1.641,1.645c.035,2.143.031,4.288,0,6.432a1.583,1.583,0,1,1-3.151-.034c-.015-1.072,0-2.144,0-3.216" transform="translate(-114.647 -75.085)" fill="#71b1f2"/>
      </g>
    </g>
  </g>
</svg>
