<svg xmlns="http://www.w3.org/2000/svg" xmlns:xlink="http://www.w3.org/1999/xlink" width="64" height="64" viewBox="0 0 64 64">
  <defs>
    <clipPath id="clip-path">
      <rect id="Rect치ngulo_36883" data-name="Rect치ngulo 36883" width="64" height="64" fill="#fff" stroke="#707070" stroke-width="1"/>
    </clipPath>
    <clipPath id="clip-path-2">
      <rect id="Rect치ngulo_36890" data-name="Rect치ngulo 36890" width="52.909" height="39.003" fill="none"/>
    </clipPath>
  </defs>
  <g id="Grupo_86519" data-name="Grupo 86519" clip-path="url(#clip-path)">
    <g id="Grupo_86530" data-name="Grupo 86530" transform="translate(5.546 12.499)">
      <g id="Grupo_86529" data-name="Grupo 86529" clip-path="url(#clip-path-2)">
        <path id="Trazado_130485" data-name="Trazado 130485" d="M14.5,42.937q0-.958,0-1.916a.828.828,0,0,0,.785-.945c0-.935.019-1.87.029-2.806q20.142,0,40.285-.017a2.217,2.217,0,0,1,2.3,2.315c-.019,7.776-.008,15.552-.007,23.329-.187.012-.375.034-.562.034q-20.7,0-41.4,0c-.748,0-.651.083-.651-.665q0-9.1,0-18.208c0-.766-.122-.936-.783-1.122m9.971,13.9a.868.868,0,0,0,.492-.189c.244-.191.49-.379.734-.569q3.954-3.069,7.9-6.144c.294-.23.441-.241.66.084.326.483.709.929,1.074,1.386a.713.713,0,0,0,1,.231q2.414-1.535,4.8-3.115a.724.724,0,0,0,.2-1.047.775.775,0,0,0-1.05-.224c-.106.055-.205.126-.306.191-1.167.759-2.339,1.511-3.495,2.285-.258.172-.395.166-.576-.092-.306-.435-.649-.846-.978-1.265-.559-.714-.856-.75-1.578-.19q-4.262,3.3-8.517,6.616c-.27.211-.42.224-.669-.024-.537-.533-1.114-1.026-1.67-1.539a.812.812,0,0,0-1.079-.111c-.643.4-1.294.782-1.935,1.182a.76.76,0,0,0-.343,1.091.773.773,0,0,0,1.122.241,11.275,11.275,0,0,0,1.1-.673.526.526,0,0,1,.819.063c.515.529,1.085,1.005,1.627,1.509a.959.959,0,0,0,.668.3m5.474,1.955H19.667a3.231,3.231,0,0,0-.515.022.711.711,0,0,0-.66.783.7.7,0,0,0,.664.728,3.358,3.358,0,0,0,.464.02q10.356,0,20.712,0a2.723,2.723,0,0,0,.514-.031.7.7,0,0,0,.613-.72.694.694,0,0,0-.568-.755,2.652,2.652,0,0,0-.614-.046q-5.165,0-10.33,0m-2.272-19.63h7.434a2.979,2.979,0,0,0,.515-.022.76.76,0,0,0,.148-1.445,1.574,1.574,0,0,0-.555-.081q-7.589-.006-15.178,0a1.531,1.531,0,0,0-.506.071.758.758,0,0,0,.142,1.459,3.282,3.282,0,0,0,.515.018h7.486m26.679,4.535v0c.413,0,.826.01,1.239,0a1.761,1.761,0,0,0,1.826-1.77c.034-.841.033-1.686,0-2.527a1.77,1.77,0,0,0-1.772-1.781c-.842-.034-1.687-.034-2.529,0A1.763,1.763,0,0,0,51.345,39.4c-.028.876-.033,1.755.01,2.63a1.725,1.725,0,0,0,1.707,1.665c.429.02.86,0,1.29,0M43.624,40.629c0,.413-.006.826,0,1.238a1.761,1.761,0,0,0,1.767,1.824c.842.024,1.687.023,2.529,0a1.778,1.778,0,0,0,1.791-1.812c.019-.808.018-1.617,0-2.425a1.8,1.8,0,0,0-1.779-1.836c-.842-.036-1.687-.034-2.529,0a1.786,1.786,0,0,0-1.781,1.876c0,.378,0,.757,0,1.135m6.888,19.714q2.89,0,5.78,0a2.455,2.455,0,0,0,.564-.042.758.758,0,0,0,.039-1.451,2.268,2.268,0,0,0-.612-.057q-5.754,0-11.508,0a2.826,2.826,0,0,0-.513.029.759.759,0,0,0,.009,1.5,3.1,3.1,0,0,0,.514.025q2.864,0,5.728,0m0-5.492q2.89,0,5.78,0a2.779,2.779,0,0,0,.514-.024.7.7,0,0,0,.6-.671.726.726,0,0,0-.463-.782,1.419,1.419,0,0,0-.609-.073q-5.805,0-11.611,0a2.041,2.041,0,0,0-.56.054.694.694,0,0,0-.534.777.7.7,0,0,0,.636.7,3.132,3.132,0,0,0,.515.02h5.728m-.008,1.2H46.684c-.757,0-1.514-.01-2.27.006a.748.748,0,0,0-.787.771.772.772,0,0,0,.746.769,3.023,3.023,0,0,0,.31,0H56.344a1.956,1.956,0,0,0,.411-.014.734.734,0,0,0,.654-.795.716.716,0,0,0-.715-.733c-.136-.014-.275-.006-.412-.006H50.5m6.929-7.63c0-.893,0-1.786,0-2.678,0-.641-.3-1-.789-.993-.476.006-.766.351-.768.96q-.01,2.652,0,5.3c0,.613.284.955.761.965.5.011.79-.343.8-.984.007-.858,0-1.717,0-2.575m-9.682.465c0,.755-.009,1.51,0,2.265a.748.748,0,0,0,.73.823.765.765,0,0,0,.81-.81q.024-2.265,0-4.53a.755.755,0,0,0-.8-.818c-.466.01-.739.312-.746.856-.009.738,0,1.476,0,2.214M21.8,41.922c.654,0,1.309.008,1.963,0a.775.775,0,1,0-.012-1.542q-1.937-.014-3.874,0a.775.775,0,1,0,.012,1.543c.637.01,1.274,0,1.911,0m32.908,7.492c0-.567.008-1.134,0-1.7a.757.757,0,0,0-.761-.846.749.749,0,0,0-.779.785q-.029,1.777,0,3.554a.769.769,0,1,0,1.537-.041c.013-.583,0-1.167,0-1.751m-2.7.52c0-.361,0-.722,0-1.083-.007-.587-.312-.949-.788-.94-.459.008-.755.357-.76.914q-.009,1.108,0,2.217c0,.6.3.945.786.937s.757-.357.762-.963c0-.361,0-.722,0-1.083m-31.737.258v0c.172,0,.343.007.514,0a.711.711,0,0,0,.75-.69.7.7,0,0,0-.608-.819,3.275,3.275,0,0,0-1.278,0,.761.761,0,0,0,.108,1.5c.17.014.343,0,.514,0m.059-4.044c-.172,0-.343-.008-.514,0a.768.768,0,0,0-.075,1.532,6.1,6.1,0,0,0,1.13,0,.736.736,0,0,0,.667-.828.724.724,0,0,0-.744-.7c-.154-.011-.309,0-.463,0" transform="translate(-11.498 -29.541)" fill="#eef2f3"/>
        <path id="Trazado_130486" data-name="Trazado 130486" d="M3,13.4c.66.186.782.355.783,1.121q0,9.1,0,18.208c0,.748-.1.665.651.665q20.7,0,41.4,0c.187,0,.375-.022.562-.034.721.012,1.443,0,2.162.044.445.028.576-.09.575-.557q-.023-13.357,0-26.713c0-.4-.092-.524-.506-.517-1.5.026-2.993.016-4.49.007-.638,0-.828-.165-.976-.758.117-.607.29-.761.884-.773.292-.006.584,0,.875,0,1.285-.033,2.573.075,3.856-.059.7,0,1.408,0,2.112.01.323.006.475-.111.465-.449-.014-.514-.017-1.03,0-1.544.013-.357-.141-.5-.485-.5-.7.011-1.407.016-2.111.023-.189-.007-.378-.02-.566-.02H2.29c-.1,0-.207,0-.31,0-.309-.014-.433.136-.425.439.011.413,0,.825,0,1.238,0,.824,0,.824.81.824H39.8c.155,0,.31,0,.465,0a.868.868,0,0,1,.968.8c-.31.732-.378.775-1.227.776H4.486c-.138,0-.276.01-.413,0-.232-.019-.3.093-.289.306.018.6.023,1.2.033,1.8-.01.935-.024,1.87-.029,2.806A.828.828,0,0,1,3,11.48c-.616-.158-.764-.331-.767-.968-.007-1.462-.013-2.925.005-4.387,0-.353-.051-.5-.459-.524A1.774,1.774,0,0,1,.007,3.674c0-.619-.01-1.239,0-1.858A1.811,1.811,0,0,1,1.809,0c.12,0,.241,0,.361,0H50.714c1.532,0,2.188.661,2.188,2.2,0,.516.006,1.032,0,1.548A1.746,1.746,0,0,1,51.2,5.59c-.482.025-.533.208-.532.617q.016,13.315,0,26.629c0,.4.055.562.513.574A1.74,1.74,0,0,1,52.9,35.176c.015.67.014,1.342,0,2.012A1.813,1.813,0,0,1,51.147,39c-.1.006-.207,0-.31,0h-29.9c-.747,0-.926-.13-1.111-.8.192-.634.359-.752,1.09-.752H48.088c.223,0,.446-.013.669-.02.7.007,1.405.012,2.108.023.349.006.494-.162.486-.505-.011-.5-.021-.995,0-1.49.019-.4-.163-.5-.525-.493-.685.02-1.371.011-2.057.014-.206-.007-.412-.02-.618-.02H2.349c-.12,0-.241.006-.361,0-.3-.017-.441.113-.432.426.013.43,0,.86,0,1.29,0,.777,0,.778.768.778q7.281,0,14.562,0c.691,0,.853.126,1.023.761-.15.6-.358.785-.957.786q-7.54,0-15.08,0a1.8,1.8,0,0,1-1.866-1.85C0,36.494,0,35.84.01,35.187a1.745,1.745,0,0,1,1.707-1.778c.436-.014.527-.147.526-.562q-.021-9.161-.009-18.321c0-.788.1-.937.769-1.13" transform="translate(-0.001 0)" fill="#040505"/>
        <path id="Trazado_130487" data-name="Trazado 130487" d="M23.866,172.1c-.169-.635-.331-.76-1.023-.761q-7.281,0-14.562,0c-.767,0-.768,0-.768-.778,0-.43.01-.86,0-1.29-.01-.313.129-.442.432-.426.12.007.241,0,.361,0h45.8c.206,0,.412.013.618.02l-.015,2.451c-.223.007-.446.02-.669.02H26.868c-.731,0-.9.118-1.09.752l-1.912.009" transform="translate(-5.955 -133.89)" fill="#5b7781"/>
        <path id="Trazado_130488" data-name="Trazado 130488" d="M18.3,26.295c-.01-.6-.015-1.2-.033-1.8-.006-.213.058-.325.29-.306.137.011.275,0,.413,0H54.494c.849,0,.917-.045,1.227-.776l1.926.015c.148.593.338.755.976.758,1.5.008,2.993.019,4.489-.007.415-.007.507.119.506.517q-.017,13.357,0,26.713c0,.467-.13.586-.575.557-.719-.046-1.441-.033-2.162-.044,0-7.776-.012-15.553.006-23.329a2.216,2.216,0,0,0-2.3-2.315q-20.142.043-40.285.017" transform="translate(-14.487 -18.565)" fill="#cde0e2"/>
        <path id="Trazado_130489" data-name="Trazado 130489" d="M41.792,94.691a.959.959,0,0,1-.668-.3c-.542-.5-1.112-.98-1.627-1.509a.527.527,0,0,0-.819-.063,11.25,11.25,0,0,1-1.1.673.773.773,0,0,1-1.121-.241A.76.76,0,0,1,36.8,92.16c.641-.4,1.292-.785,1.935-1.182a.811.811,0,0,1,1.079.111c.556.514,1.134,1.006,1.67,1.539.249.248.4.236.669.024q4.248-3.322,8.517-6.616c.723-.56,1.019-.524,1.578.19.329.42.671.83.978,1.265.181.258.318.264.576.092,1.156-.775,2.329-1.526,3.5-2.285.1-.066.2-.136.306-.191a.775.775,0,0,1,1.05.224.724.724,0,0,1-.2,1.047q-2.384,1.58-4.8,3.115a.713.713,0,0,1-1-.231c-.365-.457-.748-.9-1.074-1.386-.22-.325-.367-.315-.661-.084q-3.941,3.086-7.9,6.144c-.245.19-.491.378-.734.569a.868.868,0,0,1-.492.189" transform="translate(-28.819 -67.397)" fill="#040404"/>
        <path id="Trazado_130490" data-name="Trazado 130490" d="M45.23,141.271q5.165,0,10.33,0a2.655,2.655,0,0,1,.615.046.7.7,0,0,1,.568.755.7.7,0,0,1-.613.72,2.706,2.706,0,0,1-.514.031q-10.356,0-20.712,0a3.356,3.356,0,0,1-.464-.02.7.7,0,0,1-.664-.728.711.711,0,0,1,.661-.783,3.227,3.227,0,0,1,.515-.022H45.23" transform="translate(-26.783 -112.023)" fill="#070808"/>
        <path id="Trazado_130491" data-name="Trazado 130491" d="M45.046,40.513H37.56a3.283,3.283,0,0,1-.515-.019.758.758,0,0,1-.142-1.458,1.531,1.531,0,0,1,.506-.071q7.589-.005,15.178,0a1.578,1.578,0,0,1,.555.08A.76.76,0,0,1,53,40.491a2.958,2.958,0,0,1-.515.021H45.046" transform="translate(-28.872 -30.896)" fill="#050606"/>
        <path id="Trazado_130492" data-name="Trazado 130492" d="M195.389,44.991c-.43,0-.861.017-1.29,0a1.725,1.725,0,0,1-1.707-1.665c-.042-.875-.038-1.754-.01-2.63a1.763,1.763,0,0,1,1.772-1.777c.842-.034,1.687-.034,2.529,0a1.77,1.77,0,0,1,1.772,1.781c.032.841.033,1.686,0,2.527a1.761,1.761,0,0,1-1.826,1.77c-.413.012-.826,0-1.239,0v0m.025-1.567c.361.007.722.007,1.083.025.319.016.43-.148.428-.437,0-.4.01-.792,0-1.187-.042-1.483.366-1.426-1.513-1.344-.341-.008-.682-.011-1.023-.027-.325-.015-.465.124-.459.454.011.7.013,1.4,0,2.1-.006.338.14.458.463.44.34-.02.682-.017,1.024-.024" transform="translate(-152.535 -30.838)" fill="#040404"/>
        <path id="Trazado_130493" data-name="Trazado 130493" d="M155.163,41.923c0-.378,0-.757,0-1.135a1.786,1.786,0,0,1,1.781-1.876c.842-.033,1.688-.035,2.529,0a1.8,1.8,0,0,1,1.779,1.836c.017.808.018,1.617,0,2.425a1.778,1.778,0,0,1-1.791,1.812c-.843.022-1.687.024-2.53,0a1.761,1.761,0,0,1-1.767-1.824c-.007-.413,0-.825,0-1.238m3.005,1.5c.376.008.751.011,1.127.026.315.012.418-.147.415-.441-.009-.7-.01-1.4,0-2.1.005-.336-.152-.464-.469-.452-.358.013-.717.019-1.075.027-.324-.008-.649-.008-.973-.025-.344-.018-.5.113-.484.478.022.392,0,.786,0,1.179,0,1.416,0,1.416,1.454,1.311" transform="translate(-123.037 -30.836)" fill="#040404"/>
        <path id="Trazado_130494" data-name="Trazado 130494" d="M162.086,142.824q-2.864,0-5.728,0a3.08,3.08,0,0,1-.514-.025.759.759,0,0,1-.009-1.5,2.826,2.826,0,0,1,.513-.029q5.754,0,11.508,0a2.275,2.275,0,0,1,.612.058.758.758,0,0,1-.039,1.451,2.455,2.455,0,0,1-.564.041q-2.89,0-5.78,0" transform="translate(-123.071 -112.022)" fill="#070808"/>
        <path id="Trazado_130495" data-name="Trazado 130495" d="M162.077,116.3h-5.728a3.09,3.09,0,0,1-.515-.02.7.7,0,0,1-.636-.7.7.7,0,0,1,.534-.777,2.035,2.035,0,0,1,.56-.054q5.805,0,11.611,0a1.42,1.42,0,0,1,.609.073.726.726,0,0,1,.463.782.7.7,0,0,1-.6.671,2.78,2.78,0,0,1-.514.024q-2.89,0-5.78,0" transform="translate(-123.065 -90.993)" fill="#050606"/>
        <path id="Trazado_130496" data-name="Trazado 130496" d="M162.061,128.05h5.779c.137,0,.276-.007.412.006a.716.716,0,0,1,.715.733.734.734,0,0,1-.654.795,1.943,1.943,0,0,1-.411.014H156.241a3.028,3.028,0,0,1-.31,0,.773.773,0,0,1-.746-.769.748.748,0,0,1,.787-.77c.757-.016,1.514-.006,2.27-.006h3.818" transform="translate(-123.056 -101.537)" fill="#020303"/>
        <path id="Trazado_130497" data-name="Trazado 130497" d="M215.874,77.146c0,.858.005,1.717,0,2.575-.005.641-.3.994-.8.983-.477-.01-.759-.352-.761-.965q-.009-2.652,0-5.305c0-.608.292-.954.769-.96.492-.006.784.352.788.993.006.893,0,1.785,0,2.678" transform="translate(-169.94 -58.263)" fill="#0e0e0e"/>
        <path id="Trazado_130498" data-name="Trazado 130498" d="M175.083,81.694c0-.738-.007-1.476,0-2.214.007-.545.28-.847.746-.856a.755.755,0,0,1,.8.818q.022,2.265,0,4.531a.765.765,0,0,1-.809.81.749.749,0,0,1-.731-.823c-.011-.755,0-1.51,0-2.265" transform="translate(-138.832 -62.346)" fill="#040505"/>
        <path id="Trazado_130499" data-name="Trazado 130499" d="M39.172,53.856c-.637,0-1.274.007-1.911,0a.775.775,0,1,1-.012-1.543q1.937-.016,3.874,0a.775.775,0,1,1,.012,1.542c-.654.011-1.308,0-1.963,0" transform="translate(-28.873 -41.475)" fill="#020303"/>
        <path id="Trazado_130500" data-name="Trazado 130500" d="M202.733,86.237c0,.584.01,1.168,0,1.751a.769.769,0,1,1-1.537.041q-.032-1.777,0-3.554a.748.748,0,0,1,.779-.784.756.756,0,0,1,.761.846c.01.566,0,1.133,0,1.7" transform="translate(-159.526 -66.364)" fill="#040505"/>
        <path id="Trazado_130501" data-name="Trazado 130501" d="M189.69,90.754c0,.361,0,.722,0,1.083-.005.606-.283.955-.762.963s-.782-.342-.786-.937q-.007-1.108,0-2.217c0-.557.3-.906.76-.914.476-.009.781.353.788.94,0,.361,0,.722,0,1.083" transform="translate(-149.186 -70.361)" fill="#020303"/>
        <path id="Trazado_130502" data-name="Trazado 130502" d="M37.645,93.732c-.171,0-.344.012-.514,0a.761.761,0,0,1-.108-1.5,3.283,3.283,0,0,1,1.278,0,.7.7,0,0,1,.608.819.711.711,0,0,1-.75.69c-.171.009-.343,0-.514,0v0" transform="translate(-28.878 -73.081)" fill="#050606"/>
        <path id="Trazado_130503" data-name="Trazado 130503" d="M37.7,80.2c.154,0,.309-.009.463,0a.724.724,0,0,1,.744.7.736.736,0,0,1-.667.828,6.1,6.1,0,0,1-1.13,0,.768.768,0,0,1,.075-1.532c.171-.009.343,0,.514,0" transform="translate(-28.873 -63.596)" fill="#040505"/>
        <path id="Trazado_130504" data-name="Trazado 130504" d="M49.115,10.792l-1.926-.015a.868.868,0,0,0-.968-.8c-.155,0-.31,0-.465,0H8.323c-.81,0-.81,0-.81-.824,0-.413.008-.826,0-1.238-.008-.3.115-.453.425-.439.1,0,.207,0,.31,0h45.9c.189,0,.378.013.566.02q.009,1.228.017,2.457c-1.284.134-2.571.026-3.856.059-.292.007-.584,0-.875,0-.594.013-.767.166-.884.773" transform="translate(-5.955 -5.93)" fill="#5a767f"/>
        <path id="Trazado_130505" data-name="Trazado 130505" d="M235.519,9.956Q235.51,8.728,235.5,7.5c.7-.007,1.407-.011,2.111-.023.344-.006.5.139.485.5-.019.514-.016,1.03,0,1.544.01.339-.143.455-.465.449-.7-.013-1.408-.008-2.112-.01" transform="translate(-186.745 -5.928)" fill="#44595d"/>
        <path id="Trazado_130506" data-name="Trazado 130506" d="M235.5,171.35q.007-1.225.015-2.451c.686,0,1.372,0,2.057-.015.362-.01.544.1.525.493-.024.5-.014.994,0,1.49.007.343-.137.511-.486.505-.7-.011-1.405-.016-2.108-.023" transform="translate(-186.742 -133.919)" fill="#44595d"/>
        <path id="Trazado_130507" data-name="Trazado 130507" d="M207.091,46.438c1.88-.082,1.472-.139,1.513,1.344.011.4,0,.791,0,1.187,0,.289-.109.454-.428.437-.36-.018-.722-.018-1.083-.025l0-2.944" transform="translate(-164.216 -36.797)" fill="#d94145"/>
        <path id="Trazado_130508" data-name="Trazado 130508" d="M201.41,46.463l0,2.944c-.341.007-.683,0-1.024.024-.323.019-.47-.1-.463-.44.013-.7.012-1.4,0-2.1-.005-.33.135-.469.459-.454.341.016.682.018,1.023.026" transform="translate(-158.535 -36.822)" fill="#e7585e"/>
        <path id="Trazado_130509" data-name="Trazado 130509" d="M169.679,46.464c.358-.009.717-.015,1.075-.027.316-.011.474.117.469.452-.011.7-.009,1.4,0,2.1,0,.294-.1.453-.415.441-.375-.014-.751-.018-1.127-.026l0-2.943" transform="translate(-134.549 -36.822)" fill="#57b9eb"/>
        <path id="Trazado_130510" data-name="Trazado 130510" d="M164.092,46.468q0,1.471,0,2.943c-1.454.1-1.454.1-1.454-1.311,0-.393.017-.787,0-1.179-.02-.364.14-.5.484-.478.324.017.648.018.973.025" transform="translate(-128.962 -36.826)" fill="#62cef2"/>
      </g>
    </g>
  </g>
</svg>
