<svg xmlns="http://www.w3.org/2000/svg" xmlns:xlink="http://www.w3.org/1999/xlink" width="64" height="64" viewBox="0 0 64 64">
  <defs>
    <clipPath id="clip-path">
      <rect id="Rect치ngulo_36887" data-name="Rect치ngulo 36887" width="64" height="64" fill="#fff" stroke="#707070" stroke-width="1"/>
    </clipPath>
    <clipPath id="clip-path-2">
      <rect id="Rect치ngulo_36892" data-name="Rect치ngulo 36892" width="54.222" height="54.213" fill="none"/>
    </clipPath>
  </defs>
  <g id="Grupo_86525" data-name="Grupo 86525" clip-path="url(#clip-path)">
    <g id="Grupo_86533" data-name="Grupo 86533" transform="translate(4.889 4.893)">
      <g id="Grupo_86532" data-name="Grupo 86532" clip-path="url(#clip-path-2)">
        <path id="Trazado_130529" data-name="Trazado 130529" d="M54.222,22.518q0,8.252,0,16.5a4.389,4.389,0,0,1-4.671,4.685c-4.1,0-8.2.007-12.295-.01-.421,0-.544.1-.534.528.03,1.23.008,1.23,1.242,1.23,2.2,0,4.408.009,6.612-.01a.826.826,0,0,1,.762.388c.826,1.132,1.67,2.25,2.519,3.365a1.134,1.134,0,0,1,.251.747c-.014,1.239-.032,2.478.007,3.715.015.472-.131.55-.569.55q-15.164-.02-30.327-.01a1.367,1.367,0,0,0-.218,0c-.316.051-.39-.088-.386-.39.016-1.311.013-2.623,0-3.934a.991.991,0,0,1,.227-.645c.869-1.145,1.737-2.291,2.586-3.451a.734.734,0,0,1,.676-.335c2.459.012,4.918,0,7.377.015.378,0,.531-.046.521-.487-.03-1.27-.006-1.255-1.258-1.274-2.057-.032-4.116.1-6.17-.084a10.074,10.074,0,0,1-3.395-.951.52.52,0,0,0-.728.138q-4.831,5.1-9.69,10.163a3.913,3.913,0,1,1-5.423-5.63q4.438-4.253,8.9-8.483c.461-.44,1.106-.806,1.328-1.345s-.357-1.139-.53-1.731a12.206,12.206,0,0,1-.535-3.438q0-8.689,0-17.378a4.356,4.356,0,0,1,4.481-4.487q8.852-.012,17.7.007c.433,0,.578-.065.564-.546-.042-1.438-.022-2.878-.015-4.317a2.04,2.04,0,0,1,2.12-2.143A8.92,8.92,0,0,0,41.513.956a3.051,3.051,0,0,1,4.439,0,8.858,8.858,0,0,0,6.1,2.517,2.057,2.057,0,0,1,2.166,2.21q0,8.416,0,16.831M31.505,38.439A14.7,14.7,0,0,1,29.3,40.914c-.409.337-.833.657-1.326,1.043h.477q10.6,0,21.2,0a2.635,2.635,0,0,0,2.82-2.839q0-10.765,0-21.53c0-.146.053-.31-.069-.472A14.083,14.083,0,0,1,51.056,19.2a1.444,1.444,0,0,0-.34.988q.019,7.3.007,14.59a1.763,1.763,0,0,1-1.935,1.93c-1.311,0-2.623,0-3.934,0q-6.01,0-12.021,0c-.2,0-.435-.1-.567.186-.245.523-.514,1.036-.774,1.553ZM44.6,2.106V5.975c0,1,0,1-1.026,1-.723,0-.723,0-.723-.7V2.179a.771.771,0,0,0-.15.068A10.6,10.6,0,0,1,35.46,5.221c-.4.008-.483.2-.481.551.011,1.384-.013,2.768.008,4.152A13.611,13.611,0,0,0,39.27,19.81a12.529,12.529,0,0,0,3.583,2.452V13.42c0-1.2,0-1.171,1.215-1.209.487-.016.546.155.544.581-.019,2.968-.01,5.936-.01,8.9v.57c.193-.092.307-.141.417-.2a13.678,13.678,0,0,0,7.021-8.826c.679-2.5.36-5.068.431-7.608.009-.31-.168-.4-.45-.409A10.75,10.75,0,0,1,44.6,2.106M15.746,22.72c4.341-2.41,8.633-2.5,12.675.379s5.417,6.972,4.541,11.862c2.914,0,5.808-.006,8.7.008.351,0,.316-.187.315-.411,0-2.04.009-4.08-.011-6.119,0-.377.082-.487.473-.483,2.039.021,4.079,0,6.119.018.339,0,.433-.086.421-.423-.026-.764-.008-1.53-.008-2.295V21.477c-.186.151-.3.237-.4.326a15.954,15.954,0,0,1-4.309,2.53,1.3,1.3,0,0,1-1.043.011,15.46,15.46,0,0,1-8.631-8.206.589.589,0,0,0-.633-.423q-8.878.016-17.756,0c-.4,0-.466.13-.463.492.017,2.04.008,4.08.008,6.119Zm15.74,9.642a9.619,9.619,0,1,0-9.644,9.6,9.635,9.635,0,0,0,9.644-9.6M4.084,52.45A2.111,2.111,0,0,0,5.5,51.77Q10.25,46.795,15,41.818c.213-.222.174-.322-.048-.489a9.877,9.877,0,0,1-2.039-2.037c-.209-.283-.321-.271-.566-.035-1.835,1.766-3.686,3.516-5.531,5.272Q4.638,46.6,2.469,48.674a2.137,2.137,0,0,0-.541,2.446,2.227,2.227,0,0,0,2.156,1.33M12.248,26.3A10.34,10.34,0,0,1,13.7,24.47.948.948,0,0,0,14,23.7c-.011-2.55-.007-5.1-.006-7.651a1.808,1.808,0,0,1,2.061-2.078H33.789c-.1-.464-.228-.883-.279-1.311-.044-.373-.2-.447-.559-.446q-8.962.019-17.924.01A2.623,2.623,0,0,0,12.25,15q-.007,3.935,0,7.87V26.3M32.379,52.452H45.221c1.131,0,1.1,0,1.145-1.125.025-.554-.161-.636-.664-.635q-13.087.024-26.175.012c-1.159,0-1.127,0-1.172,1.152-.021.529.166.608.636.606,4.463-.017,8.925-.01,13.388-.01m2.6-6.066c0-.782-.009-1.564.005-2.345.005-.26-.075-.341-.337-.339q-2.29.016-4.58,0c-.26,0-.341.075-.339.337q.016,2.29,0,4.581c0,.26.075.341.337.339q2.29-.016,4.58,0c.26,0,.345-.074.339-.337-.016-.745-.005-1.49-.005-2.236M46.325,34.961c.764,0,1.528-.013,2.292.006.288.007.366-.082.363-.366q-.019-2.265,0-4.53c0-.289-.08-.367-.366-.364q-2.265.021-4.529,0c-.289,0-.367.08-.364.366q.021,2.265,0,4.53c0,.289.08.371.366.364.745-.019,1.491-.006,2.237-.006M19.247,48.954h7.438c1.33,0,1.317,0,1.312-1.33,0-.33-.076-.43-.421-.427-2.221.017-4.442.01-6.663.007a.537.537,0,0,0-.519.21c-.343.488-.711.958-1.148,1.54M45.4,48.86c-.308-.414-.632-.821-.921-1.252a.849.849,0,0,0-.806-.413c-1.875.021-3.75.01-5.625.01-1.337,0-1.32,0-1.325,1.319,0,.38.132.438.466.436,2.6-.012,5.206-.006,7.81-.009.118,0,.251.051.4-.091" transform="translate(0 0)" fill="#010101"/>
        <path id="Trazado_130530" data-name="Trazado 130530" d="M169.291,9.611a10.749,10.749,0,0,0,7.419,3.119c.282.006.459.1.45.409-.071,2.54.248,5.1-.431,7.607a13.678,13.678,0,0,1-7.021,8.826c-.11.058-.224.108-.417.2V29.2c0-2.969-.009-5.937.01-8.9,0-.426-.057-.6-.544-.581-1.215.039-1.215.011-1.215,1.209v8.842a12.525,12.525,0,0,1-3.583-2.451,13.61,13.61,0,0,1-4.283-9.887c-.021-1.384,0-2.768-.008-4.152,0-.349.08-.542.481-.55a10.6,10.6,0,0,0,7.243-2.974.774.774,0,0,1,.15-.068v4.094c0,.7,0,.7.723.7,1.026,0,1.026,0,1.026-1V9.611m-1.749,7.452c0,.918,0,.918.885.918.863,0,.863,0,.863-.885,0-.864,0-.864-.885-.864-.863,0-.863,0-.863.831" transform="translate(-124.688 -7.506)" fill="#f4d67e"/>
        <path id="Trazado_130531" data-name="Trazado 130531" d="M71.846,78.73v-.4c0-2.04.009-4.08-.008-6.119,0-.362.059-.493.463-.492q8.878.021,17.756,0a.589.589,0,0,1,.633.423,15.46,15.46,0,0,0,8.631,8.206,1.3,1.3,0,0,0,1.043-.011,15.953,15.953,0,0,0,4.309-2.53c.107-.089.217-.176.4-.326v3.78c0,.765-.018,1.53.008,2.294.012.337-.082.426-.421.423-2.04-.017-4.079,0-6.119-.018-.391,0-.477.106-.473.483.02,2.04.008,4.08.011,6.119,0,.225.036.413-.315.411-2.894-.013-5.789-.007-8.7-.007.876-4.89-.49-8.975-4.541-11.863s-8.335-2.789-12.675-.379m10.288-5.249H78.309c-1.219,0-1.2,0-1.228,1.2-.012.451.1.569.559.566,2.95-.024,5.9-.014,8.852-.011.785,0,1.086.306,1.093,1.089,0,.364,0,.728,0,1.093,0,1.4,0,1.389,1.426,1.323.271-.013.333-.1.328-.348-.014-.71,0-1.421-.005-2.131a2.625,2.625,0,0,0-2.774-2.775c-1.475,0-2.951,0-4.426,0m14.2,12.152v-.3c0-1.4,0-1.4-1.386-1.361-.277.007-.378.068-.37.362.02.728.016,1.457,0,2.185a.876.876,0,0,1-.95.955c-.4.012-.8,0-1.2,0-1.4,0-1.388,0-1.351,1.4.008.3.1.364.375.358.783-.018,1.566.01,2.349-.012a2.616,2.616,0,0,0,2.435-1.93,7.564,7.564,0,0,0,.1-1.652m-5.247-3.681v-.164c0-1.355,0-1.349-1.374-1.317-.262.006-.391.037-.383.349.023.8-.012,1.6.015,2.4a2.63,2.63,0,0,0,2.332,2.488c1.157.129,1.157.129,1.157-1.023a.284.284,0,0,1,0-.055c.108-.548-.108-.708-.66-.674-.779.048-1.082-.3-1.089-1.08,0-.31,0-.619,0-.929m3.443.274h.49c1.458,0,1.452,0,1.319-1.474-.019-.209-.074-.28-.284-.278q-1.471.012-2.942,0c-.21,0-.265.069-.284.278-.134,1.475-.139,1.474,1.319,1.474ZM75.343,74.379c0-.9,0-.9-.906-.9-.842,0-.842,0-.842.852,0,.9,0,.9.906.9.842,0,.842,0,.842-.852" transform="translate(-56.1 -56.011)" fill="#83d2ee"/>
        <path id="Trazado_130532" data-name="Trazado 130532" d="M131.211,99.466c.259-.517.529-1.029.774-1.553.132-.283.368-.186.567-.186q6.011-.008,12.021,0c1.311,0,2.623,0,3.934,0a1.763,1.763,0,0,0,1.935-1.93q0-7.3-.007-14.59a1.444,1.444,0,0,1,.34-.988,14.085,14.085,0,0,0,1.344-2.086c.122.162.069.326.069.472q0,10.765,0,21.53a2.634,2.634,0,0,1-2.82,2.839q-10.6,0-21.2,0h-.477c.492-.386.917-.706,1.326-1.043a14.7,14.7,0,0,0,2.205-2.474c-.005.473.008.947-.02,1.419-.018.3.106.35.376.357,1.455.038,1.447.046,1.387-1.422-.011-.255-.067-.351-.335-.34-.473.018-.947,0-1.42,0m5.241.843c0-.837,0-.837-.854-.837-.891,0-.891,0-.891.912,0,.837,0,.837.857.837.887,0,.887,0,.887-.912" transform="translate(-99.719 -61.012)" fill="#ccd0d7"/>
        <path id="Trazado_130533" data-name="Trazado 130533" d="M75.146,113.345a9.619,9.619,0,1,1-9.6-9.643,9.638,9.638,0,0,1,9.6,9.643m-9.612-7.893a7.87,7.87,0,1,0,7.862,7.891,7.883,7.883,0,0,0-7.862-7.891" transform="translate(-43.66 -80.984)" fill="#e2e5e8"/>
        <path id="Trazado_130534" data-name="Trazado 130534" d="M10.326,191.757a2.228,2.228,0,0,1-2.157-1.33,2.137,2.137,0,0,1,.541-2.446q2.162-2.082,4.342-4.145c1.845-1.756,3.7-3.506,5.531-5.272.245-.236.357-.248.566.035a9.876,9.876,0,0,0,2.039,2.037c.222.166.26.267.048.489q-4.754,4.969-9.493,9.953a2.112,2.112,0,0,1-1.418.679" transform="translate(-6.241 -139.308)" fill="#c69d7b"/>
        <path id="Trazado_130535" data-name="Trazado 130535" d="M55.906,69.847V66.41q0-3.935,0-7.869a2.622,2.622,0,0,1,2.778-2.77q8.962,0,17.924-.01c.355,0,.514.074.559.446.051.428.177.848.279,1.311H59.715A1.808,1.808,0,0,0,57.655,59.6c0,2.55,0,5.1.006,7.651a.948.948,0,0,1-.3.768,10.338,10.338,0,0,0-1.453,1.832" transform="translate(-43.658 -43.545)" fill="#ccd0d7"/>
        <path id="Trazado_130536" data-name="Trazado 130536" d="M97.8,233.152c-4.463,0-8.925-.007-13.388.01-.47,0-.657-.078-.636-.606.045-1.151.013-1.152,1.172-1.152q13.087,0,26.175-.012c.5,0,.689.082.664.636-.05,1.123-.014,1.124-1.145,1.124Z" transform="translate(-65.425 -180.701)" fill="#969ea8"/>
        <path id="Trazado_130537" data-name="Trazado 130537" d="M140.97,202.17c0,.745-.01,1.491.005,2.236.005.263-.079.339-.339.337q-2.29-.016-4.58,0c-.262,0-.339-.079-.337-.339q.016-2.29,0-4.581c0-.262.079-.339.339-.337q2.29.016,4.58,0c.262,0,.342.079.337.339-.015.781-.005,1.563-.005,2.345" transform="translate(-105.987 -155.784)" fill="#aab1bb"/>
        <path id="Trazado_130538" data-name="Trazado 130538" d="M202.181,140.862c-.746,0-1.492-.013-2.237.007-.286.007-.369-.075-.366-.364q.021-2.265,0-4.53c0-.286.075-.369.364-.366q2.264.021,4.529,0c.286,0,.369.075.366.364q-.021,2.265,0,4.53c0,.284-.075.373-.364.366-.763-.019-1.528-.007-2.292-.007m.055-3.5c-.9,0-.9,0-.9.9,0,.849,0,.849.846.849.9,0,.9,0,.9-.9,0-.849,0-.849-.846-.849" transform="translate(-155.856 -105.901)" fill="#f5d67f"/>
        <path id="Trazado_130539" data-name="Trazado 130539" d="M87.856,217.2c.437-.583.8-1.052,1.148-1.54a.538.538,0,0,1,.519-.211c2.221,0,4.442.01,6.663-.006.344,0,.419.1.42.427.005,1.33.018,1.33-1.312,1.33H87.856" transform="translate(-68.609 -168.242)" fill="#aab1bb"/>
        <path id="Trazado_130540" data-name="Trazado 130540" d="M176.3,217.1c-.149.142-.283.091-.4.091-2.6,0-5.206,0-7.81.009-.335,0-.467-.056-.466-.436,0-1.319-.013-1.319,1.324-1.319,1.875,0,3.75.011,5.625-.01a.849.849,0,0,1,.806.413c.289.43.613.837.921,1.252" transform="translate(-130.904 -168.237)" fill="#aab1bb"/>
        <path id="Trazado_130541" data-name="Trazado 130541" d="M195.616,40.664c0-.831,0-.831.863-.831.885,0,.885,0,.885.864,0,.885,0,.885-.863.885-.885,0-.885,0-.885-.918" transform="translate(-152.762 -31.107)"/>
        <path id="Trazado_130542" data-name="Trazado 130542" d="M100.821,79.747c1.475,0,2.951,0,4.426,0a2.625,2.625,0,0,1,2.774,2.775c0,.71-.009,1.421.005,2.131.005.251-.058.336-.328.348-1.426.066-1.425.075-1.425-1.323,0-.364,0-.729,0-1.093-.007-.783-.309-1.089-1.093-1.089-2.951,0-5.9-.013-8.852.011-.46,0-.572-.115-.559-.566.033-1.195.01-1.2,1.228-1.2h3.825" transform="translate(-74.787 -62.276)" fill="#000101"/>
        <path id="Trazado_130543" data-name="Trazado 130543" d="M164.87,129.255a7.536,7.536,0,0,1-.1,1.652,2.616,2.616,0,0,1-2.435,1.93c-.782.022-1.566-.005-2.349.012-.277.006-.367-.061-.375-.358-.037-1.4-.048-1.4,1.351-1.4.4,0,.8.009,1.2,0a.876.876,0,0,0,.95-.955c.013-.728.017-1.457,0-2.185-.008-.294.093-.355.37-.362,1.386-.035,1.386-.043,1.386,1.36Z" transform="translate(-124.64 -99.632)" fill="#000101"/>
        <path id="Trazado_130544" data-name="Trazado 130544" d="M153.429,113.112c0,.31,0,.619,0,.929.007.785.31,1.128,1.089,1.08.552-.034.768.126.66.673a.284.284,0,0,0,0,.055c0,1.152,0,1.152-1.157,1.023a2.63,2.63,0,0,1-2.332-2.488c-.027-.8.008-1.6-.015-2.4-.009-.312.121-.343.383-.349,1.374-.031,1.374-.038,1.374,1.317v.164" transform="translate(-118.445 -87.17)" fill="#000101"/>
        <path id="Trazado_130545" data-name="Trazado 130545" d="M169.149,113.424h-.381c-1.458,0-1.452,0-1.319-1.474.019-.209.074-.28.284-.278q1.471.012,2.942,0c.21,0,.265.069.284.278.133,1.475.139,1.474-1.319,1.474Z" transform="translate(-130.722 -87.208)"/>
        <path id="Trazado_130546" data-name="Trazado 130546" d="M81.608,80.649c0,.852,0,.852-.842.852-.906,0-.906,0-.906-.9,0-.852,0-.852.842-.852.906,0,.906,0,.906.9" transform="translate(-62.365 -62.281)"/>
        <path id="Trazado_130547" data-name="Trazado 130547" d="M143.72,175.479c.473,0,.947.019,1.42,0,.268-.011.324.085.335.34.06,1.468.068,1.46-1.387,1.421-.27-.007-.394-.053-.376-.357.028-.471.015-.946.02-1.419l-.013.014" transform="translate(-112.228 -137.026)" fill="#010101"/>
        <path id="Trazado_130548" data-name="Trazado 130548" d="M161.458,176.394c0,.912,0,.912-.887.912-.857,0-.857,0-.857-.837,0-.912,0-.912.891-.912.853,0,.853,0,.853.837" transform="translate(-124.725 -137.097)" fill="#010101"/>
        <path id="Trazado_130549" data-name="Trazado 130549" d="M71.771,111.689a7.87,7.87,0,1,1-7.877,7.875,7.884,7.884,0,0,1,7.877-7.875m-4.38,3.738a5.69,5.69,0,0,0-1.329,6.286,5.8,5.8,0,0,0,5.342,3.939,6.113,6.113,0,1,0-1.886-11.784.5.5,0,0,0-.387.547c.023,1.092,0,2.185.012,3.277a.884.884,0,0,0,.971.99c.4.01.8,0,1.2,0,1.4,0,1.4,0,1.33,1.42-.012.263-.086.34-.344.335-.746-.015-1.493,0-2.239-.007a2.619,2.619,0,0,1-2.67-2.658c-.009-.782,0-1.565,0-2.347" transform="translate(-49.897 -87.221)" fill="#020303"/>
        <path id="Trazado_130550" data-name="Trazado 130550" d="M208.493,143.622c.846,0,.846,0,.846.849,0,.9,0,.9-.9.9-.846,0-.846,0-.846-.849,0-.9,0-.9.9-.9" transform="translate(-162.113 -112.159)"/>
        <path id="Trazado_130551" data-name="Trazado 130551" d="M73.574,121.65c0,.783-.008,1.565,0,2.347a2.619,2.619,0,0,0,2.67,2.658c.746.009,1.493-.008,2.239.007.258.005.331-.072.343-.335.066-1.42.074-1.42-1.33-1.42-.4,0-.8.008-1.2,0a.884.884,0,0,1-.971-.99c-.009-1.093.012-2.185-.012-3.277a.5.5,0,0,1,.387-.547,6.113,6.113,0,1,1,1.886,11.784,5.8,5.8,0,0,1-5.342-3.939,5.691,5.691,0,0,1,1.329-6.286m8.744,3.459h0c0-.382.011-.765,0-1.147a2.624,2.624,0,0,0-2.555-2.549c-.455-.014-.91,0-1.365,0-1.4,0-1.4,0-1.33,1.418.012.261.082.342.342.336.709-.016,1.419-.011,2.129,0s1.025.324,1.032,1.039c.007.692,0,1.383.005,2.075,0,.129-.082.352.116.364a4.2,4.2,0,0,0,1.514-.031c.295-.1.066-.622.11-.952a4.153,4.153,0,0,0,0-.545m-4.425,5.045h1.362c1.357,0,1.346,0,1.322-1.366-.005-.313-.1-.393-.4-.389-1.18.016-2.361.006-3.541.006-1.4,0-1.389,0-1.322,1.421.012.264.089.338.344.333.744-.014,1.489-.005,2.233-.005" transform="translate(-56.08 -93.444)" fill="#6dbde2"/>
        <path id="Trazado_130552" data-name="Trazado 130552" d="M100.969,131.342a4.193,4.193,0,0,1,0,.545c-.044.33.184.854-.11.952a4.2,4.2,0,0,1-1.514.032c-.2-.012-.114-.236-.116-.364-.008-.692,0-1.383-.005-2.075-.007-.714-.322-1.031-1.032-1.039s-1.42-.012-2.129,0c-.26.005-.33-.075-.342-.336-.065-1.418-.073-1.418,1.33-1.418.455,0,.91-.01,1.365,0a2.624,2.624,0,0,1,2.555,2.549c.012.382,0,.764,0,1.147Z" transform="translate(-74.73 -99.678)" fill="#000101"/>
        <path id="Trazado_130553" data-name="Trazado 130553" d="M90.307,161.316c-.744,0-1.489-.009-2.233.005-.255.005-.331-.068-.344-.333-.067-1.421-.076-1.421,1.322-1.421,1.18,0,2.36.01,3.541-.006.3,0,.394.076.4.389.023,1.366.035,1.366-1.322,1.366H90.307" transform="translate(-68.493 -124.606)"/>
      </g>
    </g>
  </g>
</svg>
