<svg xmlns="http://www.w3.org/2000/svg" xmlns:xlink="http://www.w3.org/1999/xlink" width="64" height="64" viewBox="0 0 64 64">
  <defs>
    <clipPath id="clip-path">
      <rect id="Rect치ngulo_36889" data-name="Rect치ngulo 36889" width="64" height="64" fill="#fff" stroke="#707070" stroke-width="1"/>
    </clipPath>
    <clipPath id="clip-path-2">
      <rect id="Rect치ngulo_36893" data-name="Rect치ngulo 36893" width="45.454" height="53.233" fill="none"/>
    </clipPath>
  </defs>
  <g id="Grupo_86528" data-name="Grupo 86528" clip-path="url(#clip-path)">
    <g id="Grupo_86534" data-name="Grupo 86534" transform="translate(9.273 5.383)">
      <g id="Grupo_86534-2" data-name="Grupo 86534" clip-path="url(#clip-path-2)">
        <path id="Trazado_130554" data-name="Trazado 130554" d="M18.6,142.285h-2.47c-.152-.636-.362-.8-1.061-.8-1.921,0-3.842,0-5.763,0-1.277,0-1.766-.48-1.766-1.744q0-7.191,0-14.382c0-1.291.492-1.779,1.787-1.779q9.267,0,18.535,0a10.682,10.682,0,0,0,1.656-.1,2.536,2.536,0,0,0,2.251-1.988c.3-1.114.692-2.206,1.066-3.3.285-.832.5-.967,1.365-.969q3.452-.006,6.9-.007c.985,0,1.97.014,2.956.021a3.292,3.292,0,0,1,.743,2.243c-.03,3.764-.012,7.529-.012,11.293a1.837,1.837,0,0,0-.31-.02c-.481.047-.613-.174-.585-.635a12.95,12.95,0,0,0-.021-1.764,3.558,3.558,0,0,0-3.461-3.3q-2.362-.052-4.726,0a3.571,3.571,0,0,0-3.49,3.434c-.026.6-.02,1.212-.009,1.817,0,.266-.048.393-.355.431a2.881,2.881,0,0,0-2.743,3.106c0,2.372-.014,4.744.01,7.115,0,.44-.116.537-.543.534-2.943-.02-5.886-.011-8.829-.01-.739,0-.923.136-1.13.8" transform="translate(-5.97 -92.802)" fill="#f9df8a"/>
        <path id="Trazado_130555" data-name="Trazado 130555" d="M38.091,24.431c-.985-.007-1.971-.021-2.956-.021q-3.453,0-6.905.007c-.868,0-1.08.137-1.364.969-.375,1.094-.763,2.186-1.067,3.3a2.536,2.536,0,0,1-2.251,1.988,10.686,10.686,0,0,1-1.656.1q-9.267,0-18.535,0c-1.294,0-1.786.488-1.786,1.779q0,7.191,0,14.382c0,1.264.489,1.743,1.766,1.744,1.921,0,3.842,0,5.763,0,.7,0,.908.167,1.061.8-.086.566-.433.766-.984.763-2.026-.013-4.052,0-6.078-.007a2.939,2.939,0,0,1-3.09-3.054c-.021-1.09,0-2.182,0-3.273q0-5.688,0-11.376a2.974,2.974,0,0,1,2.368-3.258c.193-.06.3-.126.272-.345a2.639,2.639,0,0,1,0-.363c0-8.762.02-17.524-.019-26.285A2.121,2.121,0,0,1,4.924,0c10.423.034,20.847.019,31.27.019,1.545,0,2.242.7,2.245,2.253,0,.675.006,1.351,0,2.026,0,.237.023.368.325.388A1.737,1.737,0,0,1,40.57,6.676q0,7.792-.009,15.584c0,.431.062.614.549.57,2.756-.249,4.385,1.483,4.343,4.3-.1,6.613-.03,13.229-.033,19.843a3.016,3.016,0,0,1-2.315,3.2,7.029,7.029,0,0,1-1.657.06c-.28,0-.419.029-.454.374a2.87,2.87,0,0,1-2.864,2.613q-6.051.021-12.1,0a2.876,2.876,0,0,1-2.879-2.6c-.039-.387-.2-.387-.483-.387-3,.005-5.991-.006-8.986.011a.906.906,0,0,1-1.048-.767c.206-.667.39-.8,1.129-.8,2.943,0,5.886-.01,8.829.01.427,0,.548-.094.543-.535-.024-2.372-.014-4.744-.01-7.115a2.881,2.881,0,0,1,2.743-3.106c.307-.038.36-.165.355-.431-.011-.606-.017-1.212.01-1.817a3.57,3.57,0,0,1,3.49-3.434q2.362-.047,4.726,0a3.558,3.558,0,0,1,3.461,3.3,12.92,12.92,0,0,1,.021,1.764c-.027.461.1.682.585.635a1.857,1.857,0,0,1,.31.02,3.017,3.017,0,0,1,2.2,3.345q0,3.195,0,6.389c0,.977,0,.979.97.977a2.051,2.051,0,0,0,1.206-.211,1.641,1.641,0,0,0,.662-1.54q-.009-9.09,0-18.181c0-.8.016-1.593-.006-2.389A1.859,1.859,0,0,0,41.982,24.4c-1.3-.038-2.594.015-3.891.028M37.26,39.518c-.967-.089-1.936-.034-2.9-.037q-4.074-.013-8.148,0a1.341,1.341,0,0,0-1.518,1.338q-.021,4.749,0,9.5A1.339,1.339,0,0,0,26,51.664l.052,0,11.105-.018c1.573.146,2.454-.15,2.308-2.157-.014-.189,0-.381,0-.571,0-2.649,0-5.3,0-7.947a1.35,1.35,0,0,0-1.475-1.49c-.24,0-.481.023-.722.035M32.585,6.262c-.19-.008-.379-.024-.569-.024l-10.953,0c-.739,0-.924-.136-1.129-.8a.864.864,0,0,1,1.045-.762c.138.013.277,0,.416,0,4.953,0,9.906-.011,14.859.015.553,0,.674-.162.635-.664-.042-.551-.009-1.108-.01-1.662,0-.783,0-.787-.776-.787H4.981c-.775,0-.776,0-.776.786V26.526c0,.762.014,1.525-.007,2.286-.009.313.071.42.4.409.779-.025,1.56-.04,2.337,0,.468.026.567-.121.566-.572q-.022-10.548-.01-21.1c0-.381-.012-.763.006-1.143A1.7,1.7,0,0,1,9.3,4.679c2.546-.007,5.092,0,7.637-.007a.821.821,0,0,1,.933.759c-.151.638-.362.8-1.059.8-2.405,0-4.811.012-7.216-.009-.44,0-.546.13-.546.554q.018,10.981,0,21.961c0,.4.111.48.491.479,4.136-.014,8.272-.006,12.407-.013a14.288,14.288,0,0,0,1.448-.1.9.9,0,0,0,.861-.7c.284-1.158.715-2.27,1.084-3.4a2.655,2.655,0,0,1,2.991-2.152c2.25-.006,4.5-.005,6.749-.011.241,0,.481-.028.722-.043.864.012,1.729,0,2.59.047.484.027.638-.086.636-.609-.023-4.933-.014-9.866-.014-14.8,0-.277-.009-.554,0-.831.011-.258-.079-.378-.356-.376-2.024.015-4.048.02-6.072.029m-.533,31.654c1.3,0,2.593-.011,3.889.007.342,0,.455-.1.439-.439-.028-.587.013-1.177-.025-1.762a2,2,0,0,0-2.005-1.914q-2.282-.031-4.564,0a2.006,2.006,0,0,0-2,1.974c-.022.57.016,1.142-.016,1.711-.02.359.117.433.444.428,1.279-.016,2.558-.006,3.838-.006" transform="translate(0 0)" fill="#050504"/>
        <path id="Trazado_130556" data-name="Trazado 130556" d="M182.906,117.158c1.3-.013,2.6-.066,3.891-.028a1.859,1.859,0,0,1,1.868,1.953c.022.8.006,1.593.006,2.389q0,9.09,0,18.181a1.641,1.641,0,0,1-.662,1.54,2.05,2.05,0,0,1-1.206.211c-.97,0-.97,0-.97-.976q0-3.195,0-6.389a3.017,3.017,0,0,0-2.2-3.345c0-3.764-.018-7.529.012-11.293a3.292,3.292,0,0,0-.743-2.243" transform="translate(-144.815 -92.726)" fill="#f4c264"/>
        <path id="Trazado_130557" data-name="Trazado 130557" d="M70.184,43.453c-.241.015-.481.043-.722.043-2.25.006-4.5.005-6.749.011a2.654,2.654,0,0,0-2.991,2.152c-.37,1.131-.8,2.242-1.084,3.4a.9.9,0,0,1-.861.7,14.293,14.293,0,0,1-1.448.1c-4.136.007-8.272,0-12.408.013-.38,0-.492-.079-.491-.479q.02-10.981,0-21.961c0-.424.106-.558.546-.554,2.405.021,4.811.012,7.216.009.7,0,.908-.167,1.059-.8l2.066,0c.2.665.391.8,1.129.8l10.954,0c.19,0,.379.015.569.024.348.726.714,1.443,1.037,2.18a5.227,5.227,0,0,1,.622,1.677c-.189.009-.379.026-.568.026-1.851,0-3.7,0-5.555,0-.628,0-.95.278-.951.778s.317.776.951.776c2.249,0,4.5,0,6.748-.008.015.084.026.169.044.252a9.962,9.962,0,0,1,.464,2.352A1,1,0,0,0,69,34.584c-2.2.009-4.4.005-6.6,0a.833.833,0,0,0-.578.182.737.737,0,0,0-.231.847.812.812,0,0,0,.861.534q3.247,0,6.494,0a.9.9,0,0,0,.911-.628c.039.054.1.1.113.163a19.021,19.021,0,0,1,.318,2.912,41.8,41.8,0,0,1-.105,4.856M58.157,34.9c0-.312.011-.624,0-.935a.938.938,0,0,0-.99-1.028,5.84,5.84,0,0,1-4.081-1.889.749.749,0,0,0-1.253,0,5.75,5.75,0,0,1-4.026,1.885c-.733.067-1.013.35-1.058,1.082a11.644,11.644,0,0,0,.209,3,10.657,10.657,0,0,0,5.037,6.936.858.858,0,0,0,1.017-.052c3.228-2.134,5.133-5.025,5.148-8.995m7.563,5.018c1.056,0,2.111,0,3.167,0,.606,0,.965-.3.967-.771s-.369-.786-.962-.787q-3.193-.007-6.386,0c-.612,0-.952.289-.953.781s.323.773.948.776c1.073.005,2.146,0,3.219,0" transform="translate(-34.385 -20.651)" fill="#f8f6f7"/>
        <path id="Trazado_130558" data-name="Trazado 130558" d="M35.89,11.441l-2.066,0a.821.821,0,0,0-.933-.759c-2.546.01-5.092,0-7.637.006a1.7,1.7,0,0,0-1.8,1.736c-.018.38-.006.762-.006,1.143q0,10.548.01,21.1c0,.451-.1.6-.566.572-.777-.044-1.559-.029-2.337,0-.33.011-.409-.1-.4-.409.021-.762.007-1.524.007-2.286V8.37c0-.785,0-.786.776-.786H52.058c.771,0,.775,0,.776.787,0,.554-.033,1.111.01,1.662.039.5-.081.667-.635.664-4.953-.026-9.906-.015-14.859-.015-.138,0-.278.011-.415,0a.864.864,0,0,0-1.045.762" transform="translate(-15.957 -6.005)" fill="#c5cdd6"/>
        <path id="Trazado_130559" data-name="Trazado 130559" d="M130.983,201.693l-11.105.018-.052,0a1.339,1.339,0,0,1-1.306-1.347q-.018-4.749,0-9.5a1.341,1.341,0,0,1,1.518-1.338q4.074-.011,8.148,0c.968,0,1.936-.051,2.9.037a7.122,7.122,0,0,1,.317,2.742c-.009,2.486-.016,4.971.006,7.456a3.715,3.715,0,0,1-.429,1.932m-5.109-9.377a2.655,2.655,0,0,0-2.5,1.833,2.443,2.443,0,0,0,.938,2.927,1.511,1.511,0,0,1,.817,1.743,2.013,2.013,0,0,0,0,.311.778.778,0,1,0,1.554,0,7.413,7.413,0,0,0,0-1.036.652.652,0,0,1,.435-.75,2.613,2.613,0,0,0,1.365-3.051,2.68,2.68,0,0,0-2.609-1.974" transform="translate(-93.83 -150.045)" fill="#c7cfd8"/>
        <path id="Trazado_130560" data-name="Trazado 130560" d="M158.124,33.815a5.22,5.22,0,0,0-.622-1.677c-.323-.736-.689-1.454-1.037-2.18,2.024-.009,4.048-.014,6.072-.029.277,0,.367.118.356.376-.011.276,0,.554,0,.831,0,4.933-.009,9.866.014,14.8,0,.523-.152.636-.636.609-.862-.049-1.727-.035-2.59-.047a41.8,41.8,0,0,0,.105-4.856,19.024,19.024,0,0,0-.318-2.912c-.01-.059-.074-.109-.113-.162l-.1-.574a9.973,9.973,0,0,0-.464-2.352c-.019-.083-.029-.168-.044-.252a.771.771,0,0,0,.568-.92c-.105-.5-.477-.638-.939-.626a1.786,1.786,0,0,1-.253-.029" transform="translate(-123.88 -23.697)" fill="#dedbdf"/>
        <path id="Trazado_130561" data-name="Trazado 130561" d="M137.618,166.388c-1.28,0-2.559-.009-3.838.006-.328,0-.464-.069-.444-.428.032-.569-.005-1.141.016-1.711a2.006,2.006,0,0,1,2-1.974q2.282-.035,4.564,0a2,2,0,0,1,2.005,1.914c.038.585,0,1.176.025,1.762.016.342-.1.444-.439.439-1.3-.018-2.593-.007-3.889-.007" transform="translate(-105.566 -128.472)" fill="#f5dc88"/>
        <path id="Trazado_130562" data-name="Trazado 130562" d="M178.4,201.749a3.716,3.716,0,0,0,.429-1.932c-.022-2.485-.014-4.971-.006-7.456a7.12,7.12,0,0,0-.317-2.742c.241-.013.481-.04.722-.035a1.35,1.35,0,0,1,1.475,1.49c.007,2.649,0,5.3,0,7.947,0,.19-.012.382,0,.571.146,2.007-.735,2.3-2.308,2.157" transform="translate(-141.249 -150.101)" fill="#a0a9b5"/>
        <path id="Trazado_130563" data-name="Trazado 130563" d="M70.687,52.482c-.015,3.97-1.92,6.86-5.148,8.995a.858.858,0,0,1-1.017.052,10.658,10.658,0,0,1-5.037-6.936,11.644,11.644,0,0,1-.209-3c.046-.732.325-1.014,1.058-1.081a5.751,5.751,0,0,0,4.026-1.885.748.748,0,0,1,1.252,0,5.841,5.841,0,0,0,4.081,1.889.938.938,0,0,1,.991,1.028c.013.311,0,.623,0,.935M66.2,51.138a7.788,7.788,0,0,1-.872-.64c-.248-.237-.4-.251-.669-.016A6.5,6.5,0,0,1,62.1,51.79c-.421.12-1.017-.013-1.233.358s-.02.912.032,1.374a8.15,8.15,0,0,0,3.1,5.646c.924.907.924.908,1.892.1.132-.111.261-.227.389-.344a8.419,8.419,0,0,0,2.847-6.444c0-.214.073-.46-.282-.5a8.07,8.07,0,0,1-2.652-.839" transform="translate(-46.915 -38.235)" fill="#040404"/>
        <path id="Trazado_130564" data-name="Trazado 130564" d="M134.624,86.568c-1.073,0-2.146,0-3.219,0-.625,0-.949-.277-.948-.776s.341-.78.953-.781q3.193-.006,6.386,0c.593,0,.964.314.962.787s-.361.768-.967.771c-1.056.005-2.111,0-3.167,0" transform="translate(-103.289 -67.303)" fill="#050504"/>
        <path id="Trazado_130565" data-name="Trazado 130565" d="M138.627,67.266l.1.574a.9.9,0,0,1-.91.628q-3.247-.008-6.494,0a.812.812,0,0,1-.861-.534.737.737,0,0,1,.231-.847.833.833,0,0,1,.578-.182c2.2,0,4.4.006,6.6,0a1,1,0,0,1,.763.365" transform="translate(-103.25 -52.968)" fill="#030304"/>
        <path id="Trazado_130566" data-name="Trazado 130566" d="M137.539,48.586a1.786,1.786,0,0,0,.253.029c.462-.012.834.131.939.626a.771.771,0,0,1-.568.92c-2.249,0-4.5.011-6.748.008-.634,0-.951-.276-.951-.776s.323-.776.951-.778c1.852-.006,3.7,0,5.555,0,.189,0,.379-.017.568-.026" transform="translate(-103.295 -38.468)" fill="#010101"/>
        <path id="Trazado_130567" data-name="Trazado 130567" d="M143.8,202.976a2.68,2.68,0,0,1,2.608,1.974A2.613,2.613,0,0,1,145.048,208a.652.652,0,0,0-.435.75,7.413,7.413,0,0,1,0,1.036.778.778,0,1,1-1.554,0,2.01,2.01,0,0,1,0-.311,1.512,1.512,0,0,0-.817-1.743,2.443,2.443,0,0,1-.938-2.927,2.655,2.655,0,0,1,2.5-1.833m0,1.583a1.029,1.029,0,0,0-1.051,1.093,1.073,1.073,0,0,0,1.11,1.1,1.156,1.156,0,0,0,1.081-1.111,1.1,1.1,0,0,0-1.14-1.085" transform="translate(-111.76 -160.705)" fill="#030304"/>
        <path id="Trazado_130568" data-name="Trazado 130568" d="M69.773,66.853a8.15,8.15,0,0,1-3.1-5.646c-.052-.462-.25-1-.033-1.374s.811-.239,1.233-.358a6.5,6.5,0,0,0,2.558-1.307c.269-.235.422-.22.669.016a7.781,7.781,0,0,0,.872.64,13.2,13.2,0,0,1-.525,4.489,14.6,14.6,0,0,1-1.67,3.541" transform="translate(-52.679 -45.92)" fill="#d2f0a6"/>
        <path id="Trazado_130569" data-name="Trazado 130569" d="M82.08,69.989a14.6,14.6,0,0,0,1.67-3.541,13.2,13.2,0,0,0,.525-4.489,8.067,8.067,0,0,0,2.652.839c.354.037.283.283.282.5a8.42,8.42,0,0,1-2.847,6.444c-.128.116-.256.233-.389.344-.968.812-.968.812-1.892-.1" transform="translate(-64.986 -49.056)" fill="#a1d1a6"/>
        <path id="Trazado_130570" data-name="Trazado 130570" d="M149.883,210.579a1.1,1.1,0,0,1,1.14,1.085,1.156,1.156,0,0,1-1.081,1.111,1.073,1.073,0,0,1-1.11-1.1,1.029,1.029,0,0,1,1.051-1.093" transform="translate(-117.837 -166.725)" fill="#635c64"/>
      </g>
    </g>
  </g>
</svg>
