<svg xmlns="http://www.w3.org/2000/svg" xmlns:xlink="http://www.w3.org/1999/xlink" width="375.379" height="305.953" viewBox="0 0 375.379 305.953">
  <defs>
    <linearGradient id="linear-gradient" x1="0.382" y1="0.838" x2="0.621" y2="0.154" gradientUnits="objectBoundingBox">
      <stop offset="0" stop-color="#eaf4f8"/>
      <stop offset="0.444" stop-color="#c9e3ec"/>
      <stop offset="1" stop-color="#92c1cf"/>
    </linearGradient>
    <linearGradient id="linear-gradient-2" x1="0.983" y1="0.419" x2="0.023" y2="0.58" gradientUnits="objectBoundingBox">
      <stop offset="0" stop-color="#fafdfd"/>
      <stop offset="1" stop-color="#daebf2"/>
    </linearGradient>
    <linearGradient id="linear-gradient-3" y1="0.5" x2="1" y2="0.5" gradientUnits="objectBoundingBox">
      <stop offset="0" stop-color="#826be9"/>
      <stop offset="1" stop-color="#583ae2"/>
    </linearGradient>
    <linearGradient id="linear-gradient-4" x1="0.371" y1="0.759" x2="0.667" y2="0.164" gradientUnits="objectBoundingBox">
      <stop offset="0" stop-color="#c9e3ec"/>
      <stop offset="1" stop-color="#92c1cf"/>
    </linearGradient>
    <linearGradient id="linear-gradient-5" x1="0.257" y1="0.962" x2="0.536" y2="0.39" gradientUnits="objectBoundingBox">
      <stop offset="0" stop-color="#d5cef8"/>
      <stop offset="1" stop-color="#ab9df1"/>
    </linearGradient>
    <linearGradient id="linear-gradient-6" x1="-0.166" y1="1.547" x2="0.697" y2="0.275" xlink:href="#linear-gradient-5"/>
    <linearGradient id="linear-gradient-7" x1="0.379" y1="0.718" x2="0.624" y2="0.275" xlink:href="#linear-gradient-5"/>
    <linearGradient id="linear-gradient-8" y1="0.5" x2="1" y2="0.5" gradientUnits="objectBoundingBox">
      <stop offset="0" stop-color="#fafdfd"/>
      <stop offset="1" stop-color="#f3f9fb"/>
    </linearGradient>
    <linearGradient id="linear-gradient-10" x1="1.01" y1="0.5" x2="-0.006" y2="0.5" gradientUnits="objectBoundingBox">
      <stop offset="0" stop-color="#4bf991"/>
      <stop offset="0.227" stop-color="#a9ffcc"/>
      <stop offset="0.434" stop-color="#63fca1"/>
    </linearGradient>
    <linearGradient id="linear-gradient-11" x1="0.589" y1="-0.245" x2="0.466" y2="0.784" gradientUnits="objectBoundingBox">
      <stop offset="0.035" stop-color="#4bf991"/>
      <stop offset="0.247" stop-color="#5af99a"/>
      <stop offset="0.656" stop-color="#82fcb3"/>
      <stop offset="1" stop-color="#a9ffcc"/>
    </linearGradient>
    <linearGradient id="linear-gradient-12" x1="1.371" y1="0.811" x2="-0.525" y2="0.005" gradientUnits="objectBoundingBox">
      <stop offset="0" stop-color="#92c1cf"/>
      <stop offset="0.606" stop-color="#c9e3ec"/>
      <stop offset="1" stop-color="#eaf4f8"/>
    </linearGradient>
    <radialGradient id="radial-gradient" cx="-0.18" cy="1.058" r="0.857" gradientTransform="translate(-0.158) scale(1.315 1)" gradientUnits="objectBoundingBox">
      <stop offset="0" stop-color="#a9ffcc"/>
      <stop offset="0.015" stop-color="#a3f6c5"/>
      <stop offset="0.132" stop-color="#7dbd97"/>
      <stop offset="0.252" stop-color="#5c8b6f"/>
      <stop offset="0.373" stop-color="#3f604d"/>
      <stop offset="0.494" stop-color="#283d31"/>
      <stop offset="0.617" stop-color="#16221b"/>
      <stop offset="0.741" stop-color="#0a0f0c"/>
      <stop offset="0.867" stop-color="#020303"/>
      <stop offset="1"/>
    </radialGradient>
    <radialGradient id="radial-gradient-2" cx="-0.549" cy="1.1" r="0.945" gradientTransform="translate(-2.392) scale(5.783 1)" xlink:href="#radial-gradient"/>
    <linearGradient id="linear-gradient-13" x1="0.621" y1="0.52" x2="-1.719" y2="0.119" xlink:href="#linear-gradient-12"/>
    <linearGradient id="linear-gradient-14" x1="0.971" y1="0.563" x2="-1.189" y2="0.242" xlink:href="#linear-gradient-12"/>
    <linearGradient id="linear-gradient-15" x1="1.285" y1="0.628" x2="-0.961" y2="0.261" gradientUnits="objectBoundingBox">
      <stop offset="0" stop-color="#ffe4a7"/>
      <stop offset="1"/>
    </linearGradient>
    <linearGradient id="linear-gradient-16" x1="1.755" y1="0.771" x2="-1.351" y2="0.119" xlink:href="#linear-gradient-15"/>
    <linearGradient id="linear-gradient-17" x1="1.344" y1="0.821" x2="-0.486" y2="-0.013" xlink:href="#linear-gradient-12"/>
    <radialGradient id="radial-gradient-3" cx="-0.18" cy="1.058" r="0.952" gradientTransform="translate(-0.092) scale(1.184 1)" xlink:href="#radial-gradient"/>
    <radialGradient id="radial-gradient-4" cx="-0.549" cy="1.1" r="1.03" gradientTransform="translate(-2.123) scale(5.246 1)" xlink:href="#radial-gradient"/>
    <linearGradient id="linear-gradient-18" x1="0.593" y1="0.518" x2="-1.457" y2="0.119" xlink:href="#linear-gradient-12"/>
    <linearGradient id="linear-gradient-19" x1="0.957" y1="0.566" x2="-1.14" y2="0.231" xlink:href="#linear-gradient-12"/>
    <linearGradient id="linear-gradient-20" x1="1.14" y1="0.621" x2="-0.756" y2="0.263" xlink:href="#linear-gradient-15"/>
    <linearGradient id="linear-gradient-21" x1="1.696" y1="0.779" x2="-1.268" y2="0.109" xlink:href="#linear-gradient-15"/>
    <linearGradient id="linear-gradient-22" x1="0.335" y1="0.172" x2="0.484" y2="0.59" xlink:href="#linear-gradient-15"/>
    <linearGradient id="linear-gradient-23" x1="1.042" y1="0.36" x2="-1.091" y2="1.043" xlink:href="#linear-gradient-15"/>
  </defs>
  <g id="Grupo_87541" data-name="Grupo 87541" transform="translate(-948.621 -3267.615)">
    <path id="hacker-working-in-the-darkness" d="M0,0H127.216A136.417,136.417,0,0,0,255.529,90.105a137.6,137.6,0,0,0,17.83-1.16V212.771q-8.838.6-17.83.607C127.923,213.379,21.819,121.324,0,0Z" transform="translate(1162 3286.928) rotate(90)" fill="#daf1f5"/>
    <g id="Grupo_85796" data-name="Grupo 85796" transform="translate(207.524 3176.518)">
      <g id="Grupo_85784" data-name="Grupo 85784" transform="translate(792.476 91.098)">
        <path id="Trazado_126953" data-name="Trazado 126953" d="M951.56,366.023,796.607,276.562c-2.727-1.575-4.087-3.673-4.13-5.876,0-.071,0-7.605,0-7.676.049-2.679,2.027,1.972,5.844-.231l87.939-50.771c7.065-4.079,17.754-4.522,23.873-.99l154.954,89.462c2.042,1.179,3.523-3.827,4.053-2.235.177.53.065,7.553.076,8.1.058,2.744-1.923,5.651-5.844,7.915l-87.939,50.772C968.367,369.114,957.679,369.556,951.56,366.023Z" transform="translate(-792.476 -62.456)" fill="#7cbac4"/>
        <path id="Trazado_126954" data-name="Trazado 126954" d="M951.56,359.966,796.607,270.5c-6.119-3.533-5.352-9.7,1.714-13.784l87.939-50.771c7.065-4.079,17.754-4.522,23.873-.99l154.954,89.462c6.119,3.533,5.352,9.7-1.715,13.784l-87.939,50.771C968.367,363.056,957.679,363.5,951.56,359.966Z" transform="translate(-792.476 -63.932)" fill="url(#linear-gradient)"/>
        <path id="Trazado_126955" data-name="Trazado 126955" d="M1069.237,289.6c-.008,1.621-.026,3.086-.021,3.324.058,2.745-1.923,5.653-5.843,7.916l-87.94,50.771c-7.065,4.079-17.754,4.522-23.873.99L796.608,263.14c-2.727-1.574-4.087-3.673-4.13-5.876,0-.03,0-1.429,0-3.025,0,2.242,0,5.288,0,5.333.044,2.2,1.4,4.3,4.13,5.876L951.56,354.909c6.119,3.533,16.807,3.091,23.873-.989l87.94-50.772c3.92-2.264,5.9-5.171,5.843-7.915C1069.208,294.88,1069.251,291.857,1069.237,289.6Z" transform="translate(-792.476 -51.342)" fill="#7cbac4" style="mix-blend-mode: multiply;isolation: isolate"/>
        <path id="Trazado_126956" data-name="Trazado 126956" d="M1063.371,294.929,975.432,345.7c-7.065,4.079-17.754,4.523-23.873.99L796.607,257.228c-2.54-1.465-3.874-3.387-4.084-5.423-.318,2.5,1.017,4.932,4.084,6.7L951.56,347.97c6.119,3.532,16.807,3.089,23.873-.99l87.939-50.771c4.135-2.388,6.1-5.488,5.8-8.36C1068.853,290.337,1066.9,292.893,1063.371,294.929Z" transform="translate(-792.476 -51.935)" fill="#fff"/>
        <path id="Trazado_126957" data-name="Trazado 126957" d="M1042.018,317.758l-152.4-87.99a12.76,12.76,0,0,1-5.883-14.581l33.2-114.851a12.759,12.759,0,0,1,18.642-7.522l152.4,87.991a12.76,12.76,0,0,1,5.881,14.58l-33.2,114.852A12.761,12.761,0,0,1,1042.018,317.758Z" transform="translate(-770.359 -91.098)" fill="#9bcddb"/>
        <path id="Trazado_126958" data-name="Trazado 126958" d="M1039.531,318.067l-152.4-87.99a12.76,12.76,0,0,1-5.881-14.58l33.2-114.852a12.76,12.76,0,0,1,18.643-7.521l152.4,87.99a12.759,12.759,0,0,1,5.881,14.58l-33.2,114.852A12.759,12.759,0,0,1,1039.531,318.067Z" transform="translate(-770.966 -91.022)" fill="url(#linear-gradient-2)"/>
        <path id="Trazado_126959" data-name="Trazado 126959" d="M1044.535,311.5a5.737,5.737,0,0,1-2.9-.788l-152.4-87.99a5.827,5.827,0,0,1-2.69-6.669l33.2-114.845a5.817,5.817,0,0,1,5.63-4.236,5.731,5.731,0,0,1,2.9.789l152.4,87.99a5.827,5.827,0,0,1,2.691,6.669l-33.2,114.845A5.817,5.817,0,0,1,1044.535,311.5Z" transform="translate(-769.609 -89.666)" fill="#583ae2"/>
        <path id="Trazado_126960" data-name="Trazado 126960" d="M1044.309,310.124a4.593,4.593,0,0,1-2.322-.635l-152.4-87.99a4.674,4.674,0,0,1-2.159-5.349l33.2-114.845a4.674,4.674,0,0,1,4.521-3.4,4.593,4.593,0,0,1,2.322.636l152.4,87.99a4.672,4.672,0,0,1,2.159,5.35l-33.2,114.843A4.672,4.672,0,0,1,1044.309,310.124Z" transform="translate(-769.383 -89.44)" fill="url(#linear-gradient-3)"/>
        <path id="Trazado_126961" data-name="Trazado 126961" d="M1076.948,181.112l-152.4-87.99a12.645,12.645,0,0,0-8.741-1.48,12.63,12.63,0,0,1,7.744,1.622l152.4,87.99a12.76,12.76,0,0,1,5.881,14.58l-33.2,114.852a12.726,12.726,0,0,1-9.9,9,12.732,12.732,0,0,0,10.9-9.142l33.2-114.852A12.761,12.761,0,0,0,1076.948,181.112Z" transform="translate(-762.422 -91.02)" fill="#fff"/>
        <path id="Trazado_126962" data-name="Trazado 126962" d="M967.518,323.593,841.689,250.946c-2.52-1.455-2.2-4,.705-5.676l47.242-27.275c2.91-1.679,7.31-1.862,9.83-.407l125.83,72.648c2.52,1.454,2.2,4-.706,5.675l-47.241,27.275C974.439,324.866,970.038,325.047,967.518,323.593Z" transform="translate(-780.898 -60.513)" fill="#7cbac4" style="mix-blend-mode: multiply;isolation: isolate"/>
        <path id="Trazado_126963" data-name="Trazado 126963" d="M890.959,222.5l8.063,4.655a4.09,4.09,0,0,0,3.7.006,1.127,1.127,0,0,0-.011-2.137l-8.063-4.656a4.093,4.093,0,0,0-3.7-.006A1.129,1.129,0,0,0,890.959,222.5Zm13.8,7.97,3.819,2.206a4.093,4.093,0,0,0,3.7.006,1.129,1.129,0,0,0-.012-2.138l-3.819-2.205a4.09,4.09,0,0,0-3.7-.006A1.128,1.128,0,0,0,904.764,230.466Zm9.563,5.521,3.819,2.205a4.09,4.09,0,0,0,3.7.008,1.129,1.129,0,0,0-.011-2.138l-3.819-2.205a4.093,4.093,0,0,0-3.7-.006A1.128,1.128,0,0,0,914.327,235.986Zm9.562,5.521,3.819,2.205a4.091,4.091,0,0,0,3.7.007,1.128,1.128,0,0,0-.011-2.138l-3.819-2.205a4.09,4.09,0,0,0-3.7-.006A1.127,1.127,0,0,0,923.888,241.507Zm9.561,5.521,3.819,2.205a4.089,4.089,0,0,0,3.7.006,1.128,1.128,0,0,0-.012-2.137L937.14,244.9a4.09,4.09,0,0,0-3.7-.006A1.128,1.128,0,0,0,933.45,247.028Zm9.561,5.521,3.821,2.205a4.09,4.09,0,0,0,3.7.006,1.128,1.128,0,0,0-.011-2.137l-3.819-2.205a4.093,4.093,0,0,0-3.7-.007A1.129,1.129,0,0,0,943.011,252.549Zm9.563,5.521,3.819,2.205a4.09,4.09,0,0,0,3.7.006,1.128,1.128,0,0,0-.011-2.137l-3.819-2.205a4.093,4.093,0,0,0-3.7-.007A1.128,1.128,0,0,0,952.574,258.069Zm9.561,5.521,3.819,2.205a4.093,4.093,0,0,0,3.7.006,1.128,1.128,0,0,0-.012-2.137l-3.819-2.206a4.09,4.09,0,0,0-3.7-.006A1.129,1.129,0,0,0,962.135,263.59Zm9.562,5.52,3.819,2.205a4.089,4.089,0,0,0,3.7.007,1.129,1.129,0,0,0-.011-2.138l-3.819-2.205a4.093,4.093,0,0,0-3.7-.006A1.128,1.128,0,0,0,971.7,269.109Zm9.563,5.521,3.819,2.205a4.09,4.09,0,0,0,3.7.007,1.129,1.129,0,0,0-.011-2.138L984.95,272.5a4.093,4.093,0,0,0-3.7-.006A1.128,1.128,0,0,0,981.259,274.63Zm9.562,5.521,3.819,2.205a4.093,4.093,0,0,0,3.7.007,1.129,1.129,0,0,0-.012-2.138l-3.819-2.205a4.09,4.09,0,0,0-3.7-.006A1.128,1.128,0,0,0,990.821,280.151Zm9.562,5.521,3.819,2.205a4.093,4.093,0,0,0,3.7.006,1.128,1.128,0,0,0-.012-2.137l-3.819-2.205a4.09,4.09,0,0,0-3.7-.007A1.129,1.129,0,0,0,1000.383,285.672Zm9.762,5.635,3.819,2.205a4.09,4.09,0,0,0,3.7.007,1.129,1.129,0,0,0-.011-2.138l-3.819-2.205a4.093,4.093,0,0,0-3.7-.006A1.128,1.128,0,0,0,1010.144,291.307Zm-127.785-63.55,3.306,1.909a4.658,4.658,0,0,0,4.214.007l3.286-1.9a1.284,1.284,0,0,0-.014-2.433l-3.306-1.909a4.654,4.654,0,0,0-4.214-.007l-3.286,1.9A1.284,1.284,0,0,0,882.359,227.757Zm17.081,7.437,3.286-1.9a1.283,1.283,0,0,0-.013-2.431l-3.307-1.909a4.651,4.651,0,0,0-4.212-.007l-3.287,1.9a1.284,1.284,0,0,0,.014,2.433l3.307,1.909A4.655,4.655,0,0,0,899.44,235.194Zm2.042,3.6,3.307,1.909a4.662,4.662,0,0,0,4.214.007l3.286-1.9a1.283,1.283,0,0,0-.014-2.431l-3.307-1.909a4.656,4.656,0,0,0-4.212-.009l-3.286,1.9A1.284,1.284,0,0,0,901.482,238.8Zm9.563,5.52,3.306,1.909a4.658,4.658,0,0,0,4.214.009l3.286-1.9a1.284,1.284,0,0,0-.014-2.433L918.53,240a4.662,4.662,0,0,0-4.214-.007l-3.286,1.9A1.283,1.283,0,0,0,911.045,244.318Zm20.354,3.108-3.307-1.909a4.655,4.655,0,0,0-4.212-.008l-3.287,1.9a1.283,1.283,0,0,0,.014,2.431l3.307,1.909a4.652,4.652,0,0,0,4.212.007l3.286-1.9A1.284,1.284,0,0,0,931.4,247.426Zm9.562,5.521-3.307-1.909a4.655,4.655,0,0,0-4.212-.007l-3.286,1.9a1.284,1.284,0,0,0,.012,2.433l3.307,1.909a4.651,4.651,0,0,0,4.212.007l3.287-1.9A1.284,1.284,0,0,0,940.96,252.947Zm9.561,5.521-3.306-1.909a4.654,4.654,0,0,0-4.214-.007l-3.286,1.9a1.284,1.284,0,0,0,.014,2.433l3.306,1.909a4.654,4.654,0,0,0,4.214.007l3.286-1.9A1.284,1.284,0,0,0,950.522,258.467Zm9.563,5.521-3.307-1.909a4.655,4.655,0,0,0-4.214-.007l-3.286,1.9a1.284,1.284,0,0,0,.014,2.433l3.307,1.909a4.656,4.656,0,0,0,4.212.007l3.286-1.9A1.284,1.284,0,0,0,960.085,263.988Zm9.561,5.521-3.307-1.909a4.655,4.655,0,0,0-4.212-.009l-3.286,1.9a1.284,1.284,0,0,0,.012,2.433l3.307,1.909a4.659,4.659,0,0,0,4.212.007l3.287-1.9A1.283,1.283,0,0,0,969.646,269.509Zm9.562,5.52-3.306-1.909a4.662,4.662,0,0,0-4.214-.007l-3.286,1.9a1.284,1.284,0,0,0,.014,2.433l3.306,1.909a4.662,4.662,0,0,0,4.214.007l3.286-1.9A1.284,1.284,0,0,0,979.207,275.028Zm-1.23,7.934,3.307,1.909a4.656,4.656,0,0,0,4.212.009l3.286-1.9a1.284,1.284,0,0,0-.012-2.433l-3.307-1.909a4.662,4.662,0,0,0-4.214-.007l-3.286,1.9A1.283,1.283,0,0,0,977.977,282.962Zm20.354,3.108-3.307-1.909a4.656,4.656,0,0,0-4.212-.007l-3.286,1.9a1.284,1.284,0,0,0,.012,2.433l3.307,1.909a4.651,4.651,0,0,0,4.212.007l3.286-1.9A1.284,1.284,0,0,0,998.332,286.07Zm14,8.085-7.55-4.359a4.659,4.659,0,0,0-4.212-.007l-3.286,1.9a1.283,1.283,0,0,0,.012,2.431l7.55,4.36a4.662,4.662,0,0,0,4.214.007l3.286-1.9A1.284,1.284,0,0,0,1012.336,294.155ZM873.5,232.87l7.55,4.359a4.651,4.651,0,0,0,4.212.007l3.286-1.9a1.284,1.284,0,0,0-.012-2.433l-7.55-4.359a4.658,4.658,0,0,0-4.214-.007l-3.286,1.9A1.283,1.283,0,0,0,873.5,232.87Zm13.8,7.971,3.307,1.909a4.652,4.652,0,0,0,4.212.007l3.287-1.9a1.284,1.284,0,0,0-.014-2.433l-3.307-1.909a4.655,4.655,0,0,0-4.212-.007l-3.286,1.9A1.284,1.284,0,0,0,887.308,240.84Zm12.868,7.43a4.654,4.654,0,0,0,4.214.007l3.286-1.9a1.284,1.284,0,0,0-.014-2.433l-3.306-1.909a4.654,4.654,0,0,0-4.214-.007l-3.286,1.9a1.284,1.284,0,0,0,.014,2.433Zm9.563,5.521a4.656,4.656,0,0,0,4.212.007l3.286-1.9a1.284,1.284,0,0,0-.012-2.433l-3.307-1.909a4.654,4.654,0,0,0-4.214-.007l-3.286,1.9a1.284,1.284,0,0,0,.014,2.433Zm9.528-.718-3.286,1.9a1.284,1.284,0,0,0,.012,2.433l3.307,1.909a4.655,4.655,0,0,0,4.212.007l3.287-1.9a1.283,1.283,0,0,0-.014-2.431l-3.307-1.909A4.651,4.651,0,0,0,919.267,253.073Zm9.763,5.4-3.69,2.13a1.16,1.16,0,0,0,.013,2.2l3.714,2.144a4.208,4.208,0,0,0,3.807.007l3.69-2.132a1.16,1.16,0,0,0-.011-2.2l-3.714-2.144A4.206,4.206,0,0,0,929.03,258.477Zm9.563,5.52-3.69,2.13a1.161,1.161,0,0,0,.011,2.2l3.714,2.144a4.21,4.21,0,0,0,3.808.006l3.69-2.13a1.16,1.16,0,0,0-.012-2.2L942.4,264A4.208,4.208,0,0,0,938.592,264Zm9.561,5.521-3.69,2.13a1.161,1.161,0,0,0,.012,2.2l3.712,2.144A4.21,4.21,0,0,0,952,276l3.69-2.13a1.16,1.16,0,0,0-.012-2.2l-3.712-2.144A4.21,4.21,0,0,0,948.154,269.517Zm9.562,5.521-3.69,2.13a1.161,1.161,0,0,0,.013,2.2l3.714,2.144a4.207,4.207,0,0,0,3.807.006l3.69-2.13a1.161,1.161,0,0,0-.011-2.2l-3.714-2.143A4.21,4.21,0,0,0,957.715,275.038Zm9.563,5.521-3.69,2.13a1.161,1.161,0,0,0,.011,2.2l3.714,2.143a4.2,4.2,0,0,0,3.807.007l3.691-2.13a1.161,1.161,0,0,0-.012-2.2l-3.714-2.143A4.2,4.2,0,0,0,967.278,280.559Zm13.4,12,3.69-2.13a1.161,1.161,0,0,0-.012-2.2l-3.712-2.144a4.21,4.21,0,0,0-3.808-.006l-3.69,2.13a1.16,1.16,0,0,0,.012,2.2l3.713,2.144A4.21,4.21,0,0,0,980.682,292.559Zm9.562,5.521,3.69-2.13a1.161,1.161,0,0,0-.011-2.2l-3.714-2.144a4.21,4.21,0,0,0-3.808-.006l-3.69,2.13a1.16,1.16,0,0,0,.012,2.2l3.714,2.144A4.208,4.208,0,0,0,990.244,298.08Zm13.439,1.306-3.714-2.144a4.207,4.207,0,0,0-3.807-.006l-3.69,2.13a1.16,1.16,0,0,0,.011,2.2l3.714,2.144a4.207,4.207,0,0,0,3.807.007l3.69-2.13A1.161,1.161,0,0,0,1003.683,299.386Zm-139.241-61.52,11.989,6.922a4.207,4.207,0,0,0,3.807.006l3.69-2.13a1.16,1.16,0,0,0-.011-2.2l-11.989-6.922a4.208,4.208,0,0,0-3.807-.006l-3.691,2.13A1.16,1.16,0,0,0,864.442,237.866Zm17.837,10.3,3.714,2.144a4.21,4.21,0,0,0,3.808.006l3.69-2.13a1.161,1.161,0,0,0-.012-2.2l-3.714-2.143a4.207,4.207,0,0,0-3.807-.007l-3.69,2.13A1.161,1.161,0,0,0,882.279,248.165Zm9.563,5.521,3.712,2.143a4.206,4.206,0,0,0,3.808.007l3.69-2.13a1.161,1.161,0,0,0-.012-2.2l-3.712-2.143a4.206,4.206,0,0,0-3.808-.007l-3.69,2.13A1.161,1.161,0,0,0,891.842,253.685Zm9.561,5.52,3.714,2.144a4.208,4.208,0,0,0,3.807.007l3.69-2.13a1.161,1.161,0,0,0-.011-2.2l-3.714-2.144a4.21,4.21,0,0,0-3.808-.006l-3.69,2.13A1.16,1.16,0,0,0,901.4,259.2Zm17.082,7.672,3.691-2.13a1.161,1.161,0,0,0-.012-2.2l-3.714-2.144a4.208,4.208,0,0,0-3.807-.006l-3.69,2.13a1.16,1.16,0,0,0,.011,2.2l3.714,2.144A4.208,4.208,0,0,0,918.486,266.877Zm9.563,5.52,3.69-2.13c1.048-.6,1.042-1.588-.012-2.2l-3.712-2.144a4.207,4.207,0,0,0-3.808-.006l-3.69,2.13a1.16,1.16,0,0,0,.012,2.2l3.712,2.144A4.206,4.206,0,0,0,928.048,272.4Zm9.561,5.521,3.69-2.13a1.16,1.16,0,0,0-.011-2.2l-3.714-2.144a4.21,4.21,0,0,0-3.808-.007l-3.69,2.13a1.161,1.161,0,0,0,.012,2.2l3.714,2.144A4.208,4.208,0,0,0,937.61,277.917Zm9.562,5.521,3.691-2.13a1.16,1.16,0,0,0-.012-2.2l-3.714-2.144a4.207,4.207,0,0,0-3.807-.007l-3.69,2.13a1.161,1.161,0,0,0,.011,2.2l3.714,2.144A4.207,4.207,0,0,0,947.171,283.438Zm9.563,5.521,3.69-2.13a1.161,1.161,0,0,0-.012-2.2l-3.714-2.143a4.2,4.2,0,0,0-3.807-.007l-3.69,2.13a1.161,1.161,0,0,0,.011,2.2l3.714,2.143A4.207,4.207,0,0,0,956.734,288.959Zm9.561,5.521,3.69-2.13a1.161,1.161,0,0,0-.011-2.2l-3.714-2.144a4.21,4.21,0,0,0-3.808-.006l-3.69,2.13a1.161,1.161,0,0,0,.012,2.2l3.714,2.143A4.207,4.207,0,0,0,966.3,294.479Zm2.041,3.369,3.714,2.144a4.208,4.208,0,0,0,3.807.007l3.69-2.13a1.161,1.161,0,0,0-.011-2.2l-3.714-2.144a4.208,4.208,0,0,0-3.807-.006l-3.69,2.13A1.16,1.16,0,0,0,968.336,297.849Zm26.49,6.651-9.443-5.452a4.207,4.207,0,0,0-3.807-.006l-3.69,2.13a1.16,1.16,0,0,0,.011,2.2l9.443,5.452a4.208,4.208,0,0,0,3.807.006l3.69-2.13A1.16,1.16,0,0,0,994.827,304.5Zm-139.2-61.257,17.011,9.821a4.752,4.752,0,0,0,4.3.007l3.2-1.846a1.311,1.311,0,0,0-.014-2.484l-17.011-9.821a4.752,4.752,0,0,0-4.3-.007l-3.2,1.847A1.31,1.31,0,0,0,855.622,243.243Zm23.355,13.484,3.217,1.858a4.754,4.754,0,0,0,4.3.007l3.2-1.846a1.311,1.311,0,0,0-.014-2.484l-3.217-1.858a4.754,4.754,0,0,0-4.3-.007l-3.2,1.846A1.311,1.311,0,0,0,878.977,256.727Zm9.561,5.521,3.219,1.858a4.752,4.752,0,0,0,4.3.007l3.2-1.847a1.31,1.31,0,0,0-.014-2.482l-3.219-1.858a4.752,4.752,0,0,0-4.3-.007l-3.2,1.846A1.311,1.311,0,0,0,888.539,262.248Zm9.562,5.521,3.219,1.858a4.752,4.752,0,0,0,4.3.007l3.2-1.847a1.31,1.31,0,0,0-.014-2.482l-3.219-1.858a4.755,4.755,0,0,0-4.3-.009l-3.2,1.847A1.311,1.311,0,0,0,898.1,267.769Zm9.563,5.521,3.217,1.858a4.758,4.758,0,0,0,4.3.007l3.2-1.847a1.311,1.311,0,0,0-.014-2.484l-3.217-1.858a4.758,4.758,0,0,0-4.3-.007l-3.2,1.847A1.311,1.311,0,0,0,907.663,273.29Zm9.561,5.519,3.219,1.858a4.756,4.756,0,0,0,4.3.009l3.2-1.847a1.311,1.311,0,0,0-.013-2.484l-3.219-1.858a4.751,4.751,0,0,0-4.3-.007l-3.2,1.847A1.31,1.31,0,0,0,917.224,278.809Zm9.562,5.521L930,286.188a4.752,4.752,0,0,0,4.3.007l3.2-1.846a1.311,1.311,0,0,0-.014-2.484l-3.219-1.858a4.752,4.752,0,0,0-4.3-.007l-3.2,1.847A1.31,1.31,0,0,0,926.786,284.33Zm9.563,5.521,3.217,1.858a4.754,4.754,0,0,0,4.3.007l3.2-1.846a1.311,1.311,0,0,0-.014-2.484l-3.217-1.858a4.754,4.754,0,0,0-4.3-.007l-3.2,1.846A1.311,1.311,0,0,0,936.349,289.85Zm9.561,5.521,3.219,1.858a4.752,4.752,0,0,0,4.3.007l3.2-1.846a1.311,1.311,0,0,0-.012-2.484l-3.219-1.858a4.751,4.751,0,0,0-4.3-.007l-3.2,1.846A1.311,1.311,0,0,0,945.91,295.371Zm9.562,5.521,3.219,1.858a4.752,4.752,0,0,0,4.3.007l3.2-1.847a1.31,1.31,0,0,0-.014-2.482l-3.219-1.858a4.756,4.756,0,0,0-4.3-.009l-3.2,1.847A1.311,1.311,0,0,0,955.472,300.892Zm9.563,5.521,3.217,1.858a4.754,4.754,0,0,0,4.3.007l3.2-1.847a1.31,1.31,0,0,0-.014-2.482l-3.218-1.858a4.754,4.754,0,0,0-4.3-.009l-3.2,1.847A1.311,1.311,0,0,0,965.034,306.413Zm20.477,3.179-3.219-1.858a4.752,4.752,0,0,0-4.3-.007l-3.2,1.846a1.311,1.311,0,0,0,.013,2.484l3.218,1.858a4.752,4.752,0,0,0,4.3.007l3.2-1.846A1.311,1.311,0,0,0,985.512,309.592Zm-123.8-61.248-7.462-4.308a4.755,4.755,0,0,0-4.3-.009l-3.2,1.847a1.311,1.311,0,0,0,.013,2.484l7.462,4.308a4.754,4.754,0,0,0,4.3.007l3.2-1.847A1.31,1.31,0,0,0,861.714,248.344Zm9.563,5.521-3.219-1.858a4.755,4.755,0,0,0-4.3-.009l-3.2,1.847a1.311,1.311,0,0,0,.014,2.484l3.219,1.858a4.752,4.752,0,0,0,4.3.007l3.2-1.847A1.31,1.31,0,0,0,871.276,253.864Zm9.562,5.519-3.219-1.858a4.756,4.756,0,0,0-4.3-.007l-3.2,1.847a1.311,1.311,0,0,0,.014,2.484l3.219,1.858a4.755,4.755,0,0,0,4.3.007l3.2-1.847A1.311,1.311,0,0,0,880.838,259.384Zm66.933,38.644-60.589-34.981a4.754,4.754,0,0,0-4.3-.007l-3.2,1.847a1.31,1.31,0,0,0,.014,2.482l60.589,34.981a4.752,4.752,0,0,0,4.3.009l3.2-1.847A1.311,1.311,0,0,0,947.771,298.028Zm9.562,5.521-3.217-1.858a4.754,4.754,0,0,0-4.3-.007l-3.2,1.847a1.31,1.31,0,0,0,.014,2.482l3.217,1.858a4.758,4.758,0,0,0,4.3.009l3.2-1.847A1.311,1.311,0,0,0,957.332,303.548Zm9.563,5.521-3.219-1.858a4.752,4.752,0,0,0-4.3-.007l-3.2,1.846a1.311,1.311,0,0,0,.014,2.484l3.219,1.858a4.752,4.752,0,0,0,4.3.008l3.2-1.846A1.311,1.311,0,0,0,966.895,309.069Zm9.76,5.635-3.219-1.858a4.752,4.752,0,0,0-4.3-.007l-3.2,1.847a1.31,1.31,0,0,0,.012,2.482l3.219,1.858a4.755,4.755,0,0,0,4.3.009l3.2-1.847A1.311,1.311,0,0,0,976.655,314.7Z" transform="translate(-779.465 -59.706)" fill="#7cbac4" opacity="0.8" style="mix-blend-mode: multiply;isolation: isolate"/>
        <path id="Trazado_126964" data-name="Trazado 126964" d="M890.959,221.784l8.063,4.655a4.09,4.09,0,0,0,3.7.007,1.128,1.128,0,0,0-.011-2.138l-8.063-4.655a4.093,4.093,0,0,0-3.7-.006A1.128,1.128,0,0,0,890.959,221.784Zm13.8,7.971,3.819,2.205a4.093,4.093,0,0,0,3.7.007,1.129,1.129,0,0,0-.012-2.138l-3.819-2.205a4.09,4.09,0,0,0-3.7-.006A1.128,1.128,0,0,0,904.764,229.755Zm9.563,5.521,3.819,2.205a4.09,4.09,0,0,0,3.7.006,1.128,1.128,0,0,0-.011-2.137l-3.819-2.205a4.089,4.089,0,0,0-3.7-.006A1.128,1.128,0,0,0,914.327,235.275Zm9.562,5.521L927.708,243a4.09,4.09,0,0,0,3.7.006,1.127,1.127,0,0,0-.011-2.137l-3.819-2.205a4.09,4.09,0,0,0-3.7-.007A1.128,1.128,0,0,0,923.888,240.8Zm9.561,5.521,3.819,2.205a4.093,4.093,0,0,0,3.7.006,1.128,1.128,0,0,0-.012-2.137l-3.819-2.205a4.09,4.09,0,0,0-3.7-.007A1.129,1.129,0,0,0,933.45,246.317Zm9.561,5.521,3.821,2.205a4.09,4.09,0,0,0,3.7.006,1.128,1.128,0,0,0-.011-2.137l-3.819-2.206a4.093,4.093,0,0,0-3.7-.006A1.129,1.129,0,0,0,943.011,251.838Zm9.563,5.519,3.819,2.205a4.09,4.09,0,0,0,3.7.007,1.129,1.129,0,0,0-.011-2.138l-3.819-2.205a4.093,4.093,0,0,0-3.7-.006A1.128,1.128,0,0,0,952.574,257.357Zm9.561,5.521,3.819,2.205a4.093,4.093,0,0,0,3.7.007,1.129,1.129,0,0,0-.012-2.138l-3.819-2.205a4.09,4.09,0,0,0-3.7-.006A1.128,1.128,0,0,0,962.135,262.878ZM971.7,268.4l3.819,2.205a4.093,4.093,0,0,0,3.7.007,1.129,1.129,0,0,0-.011-2.138l-3.819-2.205a4.093,4.093,0,0,0-3.7-.006A1.128,1.128,0,0,0,971.7,268.4Zm9.563,5.521,3.819,2.205a4.09,4.09,0,0,0,3.7.006,1.128,1.128,0,0,0-.011-2.137l-3.819-2.205a4.093,4.093,0,0,0-3.7-.007A1.129,1.129,0,0,0,981.259,273.919Zm9.562,5.521,3.819,2.205a4.093,4.093,0,0,0,3.7.006,1.128,1.128,0,0,0-.012-2.137l-3.819-2.205a4.091,4.091,0,0,0-3.7-.007A1.129,1.129,0,0,0,990.821,279.44Zm9.562,5.521,3.819,2.205a4.093,4.093,0,0,0,3.7.006,1.128,1.128,0,0,0-.012-2.137l-3.819-2.205a4.086,4.086,0,0,0-3.7-.007A1.129,1.129,0,0,0,1000.383,284.961Zm9.762,5.635,3.819,2.205a4.09,4.09,0,0,0,3.7.006,1.128,1.128,0,0,0-.011-2.137l-3.819-2.205a4.093,4.093,0,0,0-3.7-.007A1.129,1.129,0,0,0,1010.144,290.6Zm-127.785-63.55,3.306,1.909a4.662,4.662,0,0,0,4.214.007l3.286-1.9a1.283,1.283,0,0,0-.014-2.431l-3.306-1.91a4.662,4.662,0,0,0-4.214-.007l-3.286,1.9A1.284,1.284,0,0,0,882.359,227.046Zm17.081,7.437,3.286-1.9a1.284,1.284,0,0,0-.013-2.433l-3.307-1.909a4.659,4.659,0,0,0-4.212-.007l-3.287,1.9a1.283,1.283,0,0,0,.014,2.431l3.307,1.909A4.655,4.655,0,0,0,899.44,234.483Zm2.042,3.6L904.789,240A4.654,4.654,0,0,0,909,240l3.286-1.9a1.284,1.284,0,0,0-.014-2.433l-3.307-1.909a4.655,4.655,0,0,0-4.212-.007l-3.286,1.9A1.284,1.284,0,0,0,901.482,238.086Zm9.563,5.521,3.306,1.909a4.654,4.654,0,0,0,4.214.007l3.286-1.9a1.284,1.284,0,0,0-.014-2.433l-3.306-1.909a4.658,4.658,0,0,0-4.214-.007l-3.286,1.9A1.284,1.284,0,0,0,911.045,243.607Zm20.354,3.108-3.307-1.909a4.651,4.651,0,0,0-4.212-.007l-3.287,1.9a1.284,1.284,0,0,0,.014,2.433l3.307,1.909a4.656,4.656,0,0,0,4.212.007l3.286-1.9A1.284,1.284,0,0,0,931.4,246.715Zm9.562,5.521-3.307-1.909a4.652,4.652,0,0,0-4.212-.007l-3.286,1.9a1.284,1.284,0,0,0,.012,2.433l3.307,1.909a4.655,4.655,0,0,0,4.212.007l3.287-1.9A1.283,1.283,0,0,0,940.96,252.235Zm9.561,5.521-3.306-1.909a4.658,4.658,0,0,0-4.214-.009l-3.286,1.9a1.284,1.284,0,0,0,.014,2.433l3.306,1.909a4.662,4.662,0,0,0,4.214.007l3.286-1.9A1.283,1.283,0,0,0,950.522,257.756Zm9.563,5.52-3.307-1.909a4.662,4.662,0,0,0-4.214-.007l-3.286,1.9a1.283,1.283,0,0,0,.014,2.431l3.307,1.91a4.659,4.659,0,0,0,4.212.007l3.286-1.9A1.284,1.284,0,0,0,960.085,263.276Zm9.561,5.521-3.307-1.909a4.659,4.659,0,0,0-4.212-.008l-3.286,1.9a1.283,1.283,0,0,0,.012,2.431l3.307,1.909a4.652,4.652,0,0,0,4.212.007l3.287-1.9A1.284,1.284,0,0,0,969.646,268.8Zm9.562,5.521-3.306-1.909a4.658,4.658,0,0,0-4.214-.007l-3.286,1.9a1.284,1.284,0,0,0,.014,2.433l3.306,1.909a4.654,4.654,0,0,0,4.214.007l3.286-1.9A1.284,1.284,0,0,0,979.207,274.317Zm-1.23,7.934,3.307,1.909a4.652,4.652,0,0,0,4.212.007l3.286-1.9a1.284,1.284,0,0,0-.012-2.433l-3.307-1.909a4.654,4.654,0,0,0-4.214-.007l-3.286,1.9A1.284,1.284,0,0,0,977.977,282.251Zm20.354,3.108-3.307-1.909a4.652,4.652,0,0,0-4.212-.007l-3.286,1.9a1.284,1.284,0,0,0,.012,2.433l3.307,1.909a4.655,4.655,0,0,0,4.212.007l3.286-1.9A1.284,1.284,0,0,0,998.332,285.359Zm14,8.085-7.55-4.359a4.655,4.655,0,0,0-4.212-.007l-3.286,1.9a1.284,1.284,0,0,0,.012,2.433l7.55,4.359a4.654,4.654,0,0,0,4.214.007l3.286-1.9A1.284,1.284,0,0,0,1012.336,293.444ZM873.5,232.159l7.55,4.359a4.651,4.651,0,0,0,4.212.007l3.286-1.9a1.284,1.284,0,0,0-.012-2.433l-7.55-4.359a4.654,4.654,0,0,0-4.214-.007l-3.286,1.9A1.284,1.284,0,0,0,873.5,232.159Zm13.8,7.971,3.307,1.909a4.656,4.656,0,0,0,4.212.007l3.287-1.9a1.284,1.284,0,0,0-.014-2.433l-3.307-1.909a4.652,4.652,0,0,0-4.212-.007l-3.286,1.9A1.284,1.284,0,0,0,887.308,240.129Zm12.868,7.43a4.662,4.662,0,0,0,4.214.007l3.286-1.9a1.283,1.283,0,0,0-.014-2.431l-3.306-1.909a4.658,4.658,0,0,0-4.214-.009l-3.286,1.9a1.284,1.284,0,0,0,.014,2.433Zm9.563,5.521a4.659,4.659,0,0,0,4.212.007l3.286-1.9a1.284,1.284,0,0,0-.012-2.433l-3.307-1.909a4.662,4.662,0,0,0-4.214-.007l-3.286,1.9a1.284,1.284,0,0,0,.014,2.433Zm9.528-.719-3.286,1.9a1.283,1.283,0,0,0,.012,2.431L919.3,258.6a4.655,4.655,0,0,0,4.212.009l3.287-1.9a1.284,1.284,0,0,0-.014-2.433l-3.307-1.909A4.659,4.659,0,0,0,919.267,252.361Zm9.763,5.4-3.69,2.13a1.161,1.161,0,0,0,.013,2.2l3.714,2.144a4.208,4.208,0,0,0,3.807.006l3.69-2.13a1.16,1.16,0,0,0-.011-2.2l-3.714-2.144A4.21,4.21,0,0,0,929.03,257.765Zm9.563,5.521-3.69,2.13a1.161,1.161,0,0,0,.011,2.2l3.714,2.144a4.21,4.21,0,0,0,3.808.006l3.69-2.13a1.161,1.161,0,0,0-.012-2.2l-3.714-2.143A4.208,4.208,0,0,0,938.592,263.286Zm9.561,5.521-3.69,2.13a1.161,1.161,0,0,0,.012,2.2l3.712,2.143a4.21,4.21,0,0,0,3.808.007l3.69-2.13a1.161,1.161,0,0,0-.012-2.2l-3.712-2.144A4.211,4.211,0,0,0,948.154,268.806Zm9.562,5.521-3.69,2.13a1.16,1.16,0,0,0,.013,2.2l3.714,2.144a4.207,4.207,0,0,0,3.807.007l3.69-2.13a1.161,1.161,0,0,0-.011-2.2l-3.714-2.144A4.21,4.21,0,0,0,957.715,274.327Zm9.563,5.521-3.69,2.13a1.16,1.16,0,0,0,.011,2.2l3.714,2.144a4.208,4.208,0,0,0,3.807.007l3.691-2.13a1.161,1.161,0,0,0-.012-2.2l-3.714-2.144A4.207,4.207,0,0,0,967.278,279.848Zm13.4,12,3.69-2.13a1.16,1.16,0,0,0-.012-2.2l-3.712-2.144a4.21,4.21,0,0,0-3.808-.007l-3.69,2.132a1.16,1.16,0,0,0,.012,2.2l3.713,2.144A4.206,4.206,0,0,0,980.682,291.847Zm9.562,5.521,3.69-2.13a1.16,1.16,0,0,0-.011-2.2l-3.714-2.144a4.21,4.21,0,0,0-3.808-.007l-3.69,2.13a1.161,1.161,0,0,0,.012,2.2l3.714,2.144A4.207,4.207,0,0,0,990.244,297.368Zm13.439,1.307-3.714-2.144a4.2,4.2,0,0,0-3.807-.006l-3.69,2.13a1.16,1.16,0,0,0,.011,2.2L996.2,303A4.2,4.2,0,0,0,1000,303l3.69-2.13A1.16,1.16,0,0,0,1003.683,298.675Zm-139.241-61.52,11.989,6.921a4.207,4.207,0,0,0,3.807.007l3.69-2.13a1.161,1.161,0,0,0-.011-2.2l-11.989-6.921a4.208,4.208,0,0,0-3.807-.007l-3.691,2.13A1.161,1.161,0,0,0,864.442,237.155Zm17.837,10.3,3.714,2.144a4.21,4.21,0,0,0,3.808.007l3.69-2.13a1.161,1.161,0,0,0-.012-2.2l-3.714-2.144a4.207,4.207,0,0,0-3.807-.006l-3.69,2.13A1.16,1.16,0,0,0,882.279,247.452Zm9.563,5.521,3.712,2.144a4.21,4.21,0,0,0,3.808.007l3.69-2.13a1.161,1.161,0,0,0-.012-2.2l-3.712-2.144a4.21,4.21,0,0,0-3.808-.006l-3.69,2.13A1.16,1.16,0,0,0,891.842,252.973Zm9.561,5.521,3.714,2.144a4.2,4.2,0,0,0,3.807.006l3.69-2.13a1.16,1.16,0,0,0-.011-2.2l-3.714-2.144a4.21,4.21,0,0,0-3.808-.007l-3.69,2.132A1.16,1.16,0,0,0,901.4,258.494Zm17.082,7.671,3.691-2.13a1.16,1.16,0,0,0-.012-2.2l-3.714-2.144a4.208,4.208,0,0,0-3.807-.007l-3.69,2.13a1.161,1.161,0,0,0,.011,2.2l3.714,2.144A4.208,4.208,0,0,0,918.486,266.165Zm9.563,5.521,3.69-2.13a1.16,1.16,0,0,0-.012-2.2l-3.712-2.144a4.21,4.21,0,0,0-3.808-.007l-3.69,2.13a1.161,1.161,0,0,0,.012,2.2l3.712,2.144A4.21,4.21,0,0,0,928.048,271.686Zm9.561,5.521,3.69-2.13a1.161,1.161,0,0,0-.011-2.2l-3.714-2.143a4.206,4.206,0,0,0-3.808-.007l-3.69,2.13a1.161,1.161,0,0,0,.012,2.2L933.8,277.2A4.2,4.2,0,0,0,937.61,277.206Zm9.562,5.521,3.691-2.13a1.161,1.161,0,0,0-.012-2.2l-3.714-2.144a4.207,4.207,0,0,0-3.807-.006l-3.69,2.13a1.16,1.16,0,0,0,.011,2.2l3.714,2.144A4.207,4.207,0,0,0,947.171,282.727Zm9.563,5.521,3.69-2.13a1.161,1.161,0,0,0-.012-2.2l-3.714-2.144a4.207,4.207,0,0,0-3.807-.006l-3.69,2.13a1.16,1.16,0,0,0,.011,2.2l3.714,2.144A4.211,4.211,0,0,0,956.734,288.248Zm9.561,5.521,3.69-2.132a1.16,1.16,0,0,0-.011-2.2l-3.714-2.144a4.206,4.206,0,0,0-3.808-.006l-3.69,2.13a1.16,1.16,0,0,0,.012,2.2l3.714,2.144A4.207,4.207,0,0,0,966.3,293.768Zm2.041,3.369,3.714,2.144a4.208,4.208,0,0,0,3.807.006l3.69-2.13a1.16,1.16,0,0,0-.011-2.2l-3.714-2.144a4.208,4.208,0,0,0-3.807-.007l-3.69,2.13A1.161,1.161,0,0,0,968.336,297.138Zm26.49,6.65-9.443-5.451a4.208,4.208,0,0,0-3.807-.007l-3.69,2.13a1.161,1.161,0,0,0,.011,2.2l9.443,5.451a4.208,4.208,0,0,0,3.807.007l3.69-2.13A1.161,1.161,0,0,0,994.827,303.788Zm-139.2-61.255,17.011,9.821a4.752,4.752,0,0,0,4.3.007l3.2-1.847a1.31,1.31,0,0,0-.014-2.482l-17.011-9.821a4.752,4.752,0,0,0-4.3-.007l-3.2,1.846A1.311,1.311,0,0,0,855.622,242.532Zm23.355,13.484,3.217,1.858a4.754,4.754,0,0,0,4.3.007l3.2-1.847a1.31,1.31,0,0,0-.014-2.482l-3.217-1.858a4.754,4.754,0,0,0-4.3-.009l-3.2,1.847A1.311,1.311,0,0,0,878.977,256.016Zm9.561,5.521,3.219,1.857a4.751,4.751,0,0,0,4.3.009l3.2-1.847a1.311,1.311,0,0,0-.014-2.484l-3.219-1.858a4.755,4.755,0,0,0-4.3-.007l-3.2,1.847A1.311,1.311,0,0,0,888.539,261.537Zm9.562,5.519,3.219,1.858a4.756,4.756,0,0,0,4.3.009l3.2-1.847a1.311,1.311,0,0,0-.014-2.484l-3.219-1.858a4.752,4.752,0,0,0-4.3-.007l-3.2,1.847A1.31,1.31,0,0,0,898.1,267.057Zm9.563,5.521,3.217,1.858a4.754,4.754,0,0,0,4.3.007l3.2-1.846a1.311,1.311,0,0,0-.014-2.484l-3.217-1.858a4.754,4.754,0,0,0-4.3-.007l-3.2,1.847A1.31,1.31,0,0,0,907.663,272.577Zm9.561,5.521,3.219,1.858a4.752,4.752,0,0,0,4.3.007l3.2-1.846a1.311,1.311,0,0,0-.013-2.484l-3.219-1.858a4.751,4.751,0,0,0-4.3-.007l-3.2,1.846A1.311,1.311,0,0,0,917.224,278.1Zm9.562,5.521L930,285.477a4.751,4.751,0,0,0,4.3.007l3.2-1.847a1.31,1.31,0,0,0-.014-2.482l-3.219-1.858a4.752,4.752,0,0,0-4.3-.007l-3.2,1.846A1.311,1.311,0,0,0,926.786,283.619Zm9.563,5.521L939.566,291a4.754,4.754,0,0,0,4.3.007l3.2-1.847a1.31,1.31,0,0,0-.014-2.482l-3.217-1.858a4.758,4.758,0,0,0-4.3-.009l-3.2,1.847A1.311,1.311,0,0,0,936.349,289.14Zm9.561,5.521,3.219,1.858a4.755,4.755,0,0,0,4.3.007l3.2-1.847a1.31,1.31,0,0,0-.012-2.482l-3.219-1.858a4.751,4.751,0,0,0-4.3-.009l-3.2,1.847A1.311,1.311,0,0,0,945.91,294.66Zm9.562,5.519,3.219,1.858a4.752,4.752,0,0,0,4.3.009l3.2-1.847a1.311,1.311,0,0,0-.014-2.484l-3.219-1.858a4.752,4.752,0,0,0-4.3-.007l-3.2,1.847A1.31,1.31,0,0,0,955.472,300.18Zm9.563,5.521,3.217,1.858a4.758,4.758,0,0,0,4.3.009l3.2-1.847a1.311,1.311,0,0,0-.014-2.484l-3.218-1.858a4.754,4.754,0,0,0-4.3-.007l-3.2,1.847A1.31,1.31,0,0,0,965.034,305.7Zm20.477,3.18-3.219-1.858a4.752,4.752,0,0,0-4.3-.009l-3.2,1.847a1.311,1.311,0,0,0,.013,2.484l3.218,1.858a4.752,4.752,0,0,0,4.3.007l3.2-1.847A1.31,1.31,0,0,0,985.512,308.881Zm-123.8-61.249-7.462-4.308a4.752,4.752,0,0,0-4.3-.007l-3.2,1.847a1.31,1.31,0,0,0,.013,2.482l7.462,4.308a4.754,4.754,0,0,0,4.3.009l3.2-1.847A1.311,1.311,0,0,0,861.714,247.631Zm9.563,5.521-3.219-1.858a4.751,4.751,0,0,0-4.3-.007l-3.2,1.847a1.31,1.31,0,0,0,.014,2.482l3.219,1.858a4.755,4.755,0,0,0,4.3.009l3.2-1.847A1.311,1.311,0,0,0,871.276,253.152Zm9.562,5.521-3.219-1.858a4.752,4.752,0,0,0-4.3-.007l-3.2,1.846a1.311,1.311,0,0,0,.014,2.484l3.219,1.858a4.752,4.752,0,0,0,4.3.008l3.2-1.846A1.311,1.311,0,0,0,880.838,258.673Zm66.933,38.644-60.589-34.981a4.754,4.754,0,0,0-4.3-.007l-3.2,1.846a1.311,1.311,0,0,0,.014,2.484l60.589,34.981a4.752,4.752,0,0,0,4.3.007l3.2-1.846A1.311,1.311,0,0,0,947.771,297.317Zm9.562,5.521-3.217-1.858a4.754,4.754,0,0,0-4.3-.007l-3.2,1.846a1.311,1.311,0,0,0,.014,2.484l3.217,1.858a4.754,4.754,0,0,0,4.3.007l3.2-1.846A1.311,1.311,0,0,0,957.332,302.837Zm9.563,5.521-3.219-1.858a4.756,4.756,0,0,0-4.3-.009l-3.2,1.847a1.311,1.311,0,0,0,.014,2.484l3.219,1.858a4.752,4.752,0,0,0,4.3.008l3.2-1.847A1.31,1.31,0,0,0,966.895,308.358Zm9.76,5.635-3.219-1.858a4.752,4.752,0,0,0-4.3-.007l-3.2,1.846a1.311,1.311,0,0,0,.012,2.484l3.219,1.858a4.751,4.751,0,0,0,4.3.007l3.2-1.846A1.311,1.311,0,0,0,976.655,313.993Z" transform="translate(-779.465 -59.879)" fill="url(#linear-gradient-4)"/>
        <g id="Grupo_85782" data-name="Grupo 85782" transform="translate(66.417 160.636)">
          <path id="Trazado_126965" data-name="Trazado 126965" d="M888.039,257.963l3.219,1.858a4.755,4.755,0,0,0,4.3.009l3.2-1.847a1.389,1.389,0,0,0,.852-1.426,1.607,1.607,0,0,1-.852,1.042l-3.2,1.846a4.751,4.751,0,0,1-4.3-.007l-3.219-1.858a1.625,1.625,0,0,1-.866-1.057A1.406,1.406,0,0,0,888.039,257.963Z" transform="translate(-835.82 -211.422)" fill="#fff"/>
          <path id="Trazado_126966" data-name="Trazado 126966" d="M895.728,262.4l3.217,1.858a4.754,4.754,0,0,0,4.3.007l3.2-1.846A1.389,1.389,0,0,0,907.3,261a1.6,1.6,0,0,1-.852,1.041l-3.2,1.847a4.754,4.754,0,0,1-4.3-.007l-3.217-1.858a1.618,1.618,0,0,1-.866-1.057A1.407,1.407,0,0,0,895.728,262.4Z" transform="translate(-833.947 -210.34)" fill="#fff"/>
          <path id="Trazado_126967" data-name="Trazado 126967" d="M903.416,266.841l3.219,1.858a4.751,4.751,0,0,0,4.3.007l3.2-1.846a1.392,1.392,0,0,0,.853-1.427,1.6,1.6,0,0,1-.853,1.041l-3.2,1.847a4.752,4.752,0,0,1-4.3-.008l-3.219-1.858a1.622,1.622,0,0,1-.866-1.057A1.407,1.407,0,0,0,903.416,266.841Z" transform="translate(-832.073 -209.259)" fill="#fff"/>
          <path id="Trazado_126968" data-name="Trazado 126968" d="M925.7,263.1a1.44,1.44,0,0,1-.751.9l-3.69,2.13a4.208,4.208,0,0,1-3.807-.007l-3.714-2.144a1.449,1.449,0,0,1-.762-.914,1.237,1.237,0,0,0,.762,1.3l3.714,2.143a4.208,4.208,0,0,0,3.807.007l3.69-2.13A1.222,1.222,0,0,0,925.7,263.1Z" transform="translate(-829.533 -209.827)" fill="#fff"/>
          <path id="Trazado_126969" data-name="Trazado 126969" d="M890.676,251.051l3.714,2.144a4.2,4.2,0,0,0,3.807.006l3.69-2.13a1.222,1.222,0,0,0,.751-1.283,1.434,1.434,0,0,1-.751.9l-3.69,2.13a4.207,4.207,0,0,1-3.807-.006l-3.714-2.144a1.45,1.45,0,0,1-.762-.915A1.237,1.237,0,0,0,890.676,251.051Z" transform="translate(-835.154 -213.072)" fill="#fff"/>
          <path id="Trazado_126970" data-name="Trazado 126970" d="M898.364,255.49l3.714,2.144a4.207,4.207,0,0,0,3.807.006l3.691-2.13a1.221,1.221,0,0,0,.75-1.284,1.437,1.437,0,0,1-.75.9l-3.691,2.13a4.2,4.2,0,0,1-3.807-.007l-3.714-2.143a1.454,1.454,0,0,1-.762-.915A1.238,1.238,0,0,0,898.364,255.49Z" transform="translate(-833.28 -211.99)" fill="#fff"/>
          <path id="Trazado_126971" data-name="Trazado 126971" d="M918.015,258.665a1.44,1.44,0,0,1-.751.9l-3.69,2.13a4.21,4.21,0,0,1-3.808-.007l-3.712-2.143a1.46,1.46,0,0,1-.764-.915,1.24,1.24,0,0,0,.764,1.3l3.712,2.144a4.21,4.21,0,0,0,3.808.006l3.69-2.13A1.224,1.224,0,0,0,918.015,258.665Z" transform="translate(-831.407 -210.909)" fill="#fff"/>
          <path id="Trazado_126972" data-name="Trazado 126972" d="M911.1,271.28l3.219,1.858a4.751,4.751,0,0,0,4.3.007l3.2-1.846a1.391,1.391,0,0,0,.852-1.427,1.6,1.6,0,0,1-.852,1.041l-3.2,1.847a4.751,4.751,0,0,1-4.3-.007L911.1,270.9a1.628,1.628,0,0,1-.866-1.057A1.407,1.407,0,0,0,911.1,271.28Z" transform="translate(-830.2 -208.177)" fill="#fff"/>
          <path id="Trazado_126973" data-name="Trazado 126973" d="M933.39,267.542a1.431,1.431,0,0,1-.75.9l-3.691,2.13a4.2,4.2,0,0,1-3.807-.006l-3.714-2.144a1.453,1.453,0,0,1-.762-.914,1.236,1.236,0,0,0,.762,1.3l3.714,2.144a4.207,4.207,0,0,0,3.807.007l3.691-2.13A1.223,1.223,0,0,0,933.39,267.542Z" transform="translate(-827.659 -208.745)" fill="#fff"/>
          <path id="Trazado_126974" data-name="Trazado 126974" d="M934,282.024l3.2-1.847a1.392,1.392,0,0,0,.853-1.427,1.6,1.6,0,0,1-.853,1.042L934,281.64a4.756,4.756,0,0,1-4.3-.009l-3.219-1.858a1.622,1.622,0,0,1-.866-1.057,1.408,1.408,0,0,0,.866,1.443l3.219,1.858A4.756,4.756,0,0,0,934,282.024Z" transform="translate(-826.453 -206.014)" fill="#fff"/>
          <path id="Trazado_126975" data-name="Trazado 126975" d="M948.768,276.42a1.434,1.434,0,0,1-.751.9l-3.69,2.13a4.207,4.207,0,0,1-3.807-.006l-3.714-2.144a1.452,1.452,0,0,1-.762-.914,1.236,1.236,0,0,0,.762,1.3l3.714,2.144a4.207,4.207,0,0,0,3.807.007l3.69-2.13A1.224,1.224,0,0,0,948.768,276.42Z" transform="translate(-823.912 -206.582)" fill="#fff"/>
          <path id="Trazado_126976" data-name="Trazado 126976" d="M880.351,253.524l3.219,1.858a4.752,4.752,0,0,0,4.3.009l3.2-1.847a1.391,1.391,0,0,0,.852-1.427,1.6,1.6,0,0,1-.852,1.042l-3.2,1.847a4.756,4.756,0,0,1-4.3-.009l-3.219-1.858a1.622,1.622,0,0,1-.866-1.057A1.406,1.406,0,0,0,880.351,253.524Z" transform="translate(-837.694 -212.504)" fill="#fff"/>
          <path id="Trazado_126977" data-name="Trazado 126977" d="M882.988,246.611l3.712,2.144a4.21,4.21,0,0,0,3.808.007l3.69-2.132a1.224,1.224,0,0,0,.751-1.283,1.434,1.434,0,0,1-.751.9l-3.69,2.13a4.21,4.21,0,0,1-3.808-.006l-3.712-2.144a1.455,1.455,0,0,1-.764-.914A1.239,1.239,0,0,0,882.988,246.611Z" transform="translate(-837.027 -214.154)" fill="#fff"/>
          <path id="Trazado_126978" data-name="Trazado 126978" d="M918.793,275.719l3.217,1.858a4.754,4.754,0,0,0,4.3.007l3.2-1.847a1.389,1.389,0,0,0,.852-1.425,1.6,1.6,0,0,1-.852,1.041l-3.2,1.847a4.755,4.755,0,0,1-4.3-.009l-3.217-1.858a1.619,1.619,0,0,1-.866-1.056A1.408,1.408,0,0,0,918.793,275.719Z" transform="translate(-828.326 -207.095)" fill="#fff"/>
          <path id="Trazado_126979" data-name="Trazado 126979" d="M941.078,271.981a1.427,1.427,0,0,1-.75.9l-3.69,2.13A4.21,4.21,0,0,1,932.83,275l-3.714-2.144a1.456,1.456,0,0,1-.762-.914,1.239,1.239,0,0,0,.762,1.3l3.714,2.144a4.21,4.21,0,0,0,3.808.007l3.69-2.13A1.223,1.223,0,0,0,941.078,271.981Z" transform="translate(-825.786 -207.663)" fill="#fff"/>
          <path id="Trazado_126980" data-name="Trazado 126980" d="M887.047,240.747l3.306,1.909a4.662,4.662,0,0,0,4.214.007l3.286-1.9a1.362,1.362,0,0,0,.835-1.4,1.571,1.571,0,0,1-.835,1.016l-3.286,1.9a4.662,4.662,0,0,1-4.214-.007l-3.306-1.91a1.594,1.594,0,0,1-.848-1.031A1.377,1.377,0,0,0,887.047,240.747Z" transform="translate(-836.058 -215.612)" fill="#fff"/>
          <path id="Trazado_126981" data-name="Trazado 126981" d="M924.626,247.616l-3.287,1.9a4.659,4.659,0,0,1-4.212-.007L913.82,247.6a1.593,1.593,0,0,1-.847-1.032,1.378,1.378,0,0,0,.847,1.417l3.307,1.909a4.655,4.655,0,0,0,4.212.007l3.287-1.9a1.359,1.359,0,0,0,.833-1.4A1.567,1.567,0,0,1,924.626,247.616Z" transform="translate(-829.534 -213.849)" fill="#fff"/>
          <path id="Trazado_126982" data-name="Trazado 126982" d="M960.334,274.876a1.427,1.427,0,0,1-.75.9l-3.69,2.13a4.21,4.21,0,0,1-3.808-.006l-3.713-2.144a1.457,1.457,0,0,1-.764-.915,1.24,1.24,0,0,0,.764,1.3l3.713,2.144a4.21,4.21,0,0,0,3.808.007l3.69-2.132A1.221,1.221,0,0,0,960.334,274.876Z" transform="translate(-821.094 -206.958)" fill="#fff"/>
          <path id="Trazado_126983" data-name="Trazado 126983" d="M944.207,266.9l-3.69,2.13a4.2,4.2,0,0,1-3.807-.006L933,266.877a1.449,1.449,0,0,1-.762-.914,1.235,1.235,0,0,0,.762,1.3l3.714,2.144a4.208,4.208,0,0,0,3.807.007l3.69-2.13a1.224,1.224,0,0,0,.751-1.285A1.434,1.434,0,0,1,944.207,266.9Z" transform="translate(-824.841 -209.121)" fill="#fff"/>
          <path id="Trazado_126984" data-name="Trazado 126984" d="M916.937,243.177l-3.286,1.9a4.659,4.659,0,0,1-4.212-.007l-3.307-1.909a1.59,1.59,0,0,1-.847-1.032,1.378,1.378,0,0,0,.847,1.417l3.307,1.909a4.651,4.651,0,0,0,4.212.007l3.286-1.9a1.36,1.36,0,0,0,.834-1.4A1.567,1.567,0,0,1,916.937,243.177Z" transform="translate(-831.407 -214.93)" fill="#fff"/>
          <path id="Trazado_126985" data-name="Trazado 126985" d="M940,256.494l-3.286,1.9a4.652,4.652,0,0,1-4.212-.007l-3.307-1.909a1.588,1.588,0,0,1-.847-1.031,1.374,1.374,0,0,0,.847,1.415l3.307,1.91a4.659,4.659,0,0,0,4.212.007l3.286-1.9a1.36,1.36,0,0,0,.835-1.4A1.573,1.573,0,0,1,940,256.494Z" transform="translate(-825.787 -211.685)" fill="#fff"/>
          <path id="Trazado_126986" data-name="Trazado 126986" d="M947.691,260.933l-3.287,1.9a4.652,4.652,0,0,1-4.212-.007l-3.307-1.909a1.591,1.591,0,0,1-.847-1.031,1.375,1.375,0,0,0,.847,1.415l3.307,1.909a4.656,4.656,0,0,0,4.212.009l3.287-1.9a1.359,1.359,0,0,0,.833-1.4A1.573,1.573,0,0,1,947.691,260.933Z" transform="translate(-823.913 -210.603)" fill="#fff"/>
          <path id="Trazado_126987" data-name="Trazado 126987" d="M883.067,230.225l3.307,1.909a4.655,4.655,0,0,0,4.212.009l3.286-1.9a1.358,1.358,0,0,0,.834-1.4,1.569,1.569,0,0,1-.834,1.016l-3.286,1.9a4.651,4.651,0,0,1-4.212-.007l-3.307-1.909a1.588,1.588,0,0,1-.847-1.031A1.375,1.375,0,0,0,883.067,230.225Z" transform="translate(-837.028 -218.175)" fill="#fff"/>
          <path id="Trazado_126988" data-name="Trazado 126988" d="M901.561,234.3l-3.286,1.9a4.654,4.654,0,0,1-4.214-.007l-3.307-1.909a1.6,1.6,0,0,1-.847-1.032,1.378,1.378,0,0,0,.847,1.417l3.307,1.909a4.654,4.654,0,0,0,4.214.007l3.286-1.9a1.359,1.359,0,0,0,.833-1.4A1.574,1.574,0,0,1,901.561,234.3Z" transform="translate(-835.154 -217.094)" fill="#fff"/>
          <path id="Trazado_126989" data-name="Trazado 126989" d="M909.249,238.739l-3.286,1.9a4.658,4.658,0,0,1-4.214-.007l-3.306-1.909a1.6,1.6,0,0,1-.848-1.032,1.379,1.379,0,0,0,.848,1.417l3.306,1.909a4.654,4.654,0,0,0,4.214.007l3.286-1.9a1.362,1.362,0,0,0,.835-1.4A1.576,1.576,0,0,1,909.249,238.739Z" transform="translate(-833.281 -216.012)" fill="#fff"/>
          <path id="Trazado_126990" data-name="Trazado 126990" d="M932.314,252.055l-3.286,1.9a4.654,4.654,0,0,1-4.214-.007l-3.306-1.909a1.594,1.594,0,0,1-.848-1.031,1.377,1.377,0,0,0,.848,1.417l3.306,1.909a4.662,4.662,0,0,0,4.214.007l3.286-1.9a1.362,1.362,0,0,0,.835-1.4A1.574,1.574,0,0,1,932.314,252.055Z" transform="translate(-827.66 -212.767)" fill="#fff"/>
          <path id="Trazado_126991" data-name="Trazado 126991" d="M928.831,258.02l-3.691,2.13a4.207,4.207,0,0,1-3.807-.007L917.62,258a1.452,1.452,0,0,1-.762-.914,1.238,1.238,0,0,0,.762,1.3l3.714,2.144a4.208,4.208,0,0,0,3.807.006l3.691-2.13a1.221,1.221,0,0,0,.75-1.283A1.433,1.433,0,0,1,928.831,258.02Z" transform="translate(-828.588 -211.285)" fill="#fff"/>
          <path id="Trazado_126992" data-name="Trazado 126992" d="M913.229,249.259l-3.287,1.9a4.651,4.651,0,0,1-4.212-.007l-3.307-1.909a1.588,1.588,0,0,1-.847-1.031,1.375,1.375,0,0,0,.847,1.415l3.307,1.909a4.651,4.651,0,0,0,4.212.007l3.287-1.9a1.359,1.359,0,0,0,.833-1.4A1.571,1.571,0,0,1,913.229,249.259Z" transform="translate(-832.311 -213.448)" fill="#fff"/>
          <path id="Trazado_126993" data-name="Trazado 126993" d="M921.142,253.581l-3.69,2.13a4.208,4.208,0,0,1-3.807-.007l-3.714-2.143a1.451,1.451,0,0,1-.762-.915,1.237,1.237,0,0,0,.762,1.3l3.714,2.144a4.208,4.208,0,0,0,3.807.006l3.69-2.13a1.222,1.222,0,0,0,.751-1.284A1.439,1.439,0,0,1,921.142,253.581Z" transform="translate(-830.461 -212.367)" fill="#fff"/>
          <path id="Trazado_126994" data-name="Trazado 126994" d="M936.519,262.459l-3.69,2.13a4.21,4.21,0,0,1-3.808-.007l-3.712-2.144a1.455,1.455,0,0,1-.764-.914,1.24,1.24,0,0,0,.764,1.3l3.712,2.143a4.21,4.21,0,0,0,3.808.007l3.69-2.13a1.225,1.225,0,0,0,.751-1.283A1.439,1.439,0,0,1,936.519,262.459Z" transform="translate(-826.714 -210.203)" fill="#fff"/>
          <path id="Trazado_126995" data-name="Trazado 126995" d="M945.739,283.19a1.6,1.6,0,0,1-.852,1.042l-3.2,1.846a4.751,4.751,0,0,1-4.3-.007l-3.219-1.858a1.625,1.625,0,0,1-.866-1.057,1.408,1.408,0,0,0,.866,1.443l3.219,1.857a4.752,4.752,0,0,0,4.3.009l3.2-1.847A1.391,1.391,0,0,0,945.739,283.19Z" transform="translate(-824.579 -204.932)" fill="#fff"/>
          <path id="Trazado_126996" data-name="Trazado 126996" d="M963.067,269.811l-3.286,1.9a4.659,4.659,0,0,1-4.212-.007l-3.307-1.909a1.59,1.59,0,0,1-.847-1.032,1.376,1.376,0,0,0,.847,1.417l3.307,1.909a4.652,4.652,0,0,0,4.212.007l3.286-1.9a1.36,1.36,0,0,0,.834-1.4A1.575,1.575,0,0,1,963.067,269.811Z" transform="translate(-820.166 -208.44)" fill="#fff"/>
          <path id="Trazado_126997" data-name="Trazado 126997" d="M894.735,245.186l3.307,1.909a4.659,4.659,0,0,0,4.212.007l3.286-1.9a1.36,1.36,0,0,0,.834-1.4,1.573,1.573,0,0,1-.834,1.016l-3.286,1.9a4.652,4.652,0,0,1-4.212-.007l-3.307-1.909a1.588,1.588,0,0,1-.847-1.031A1.376,1.376,0,0,0,894.735,245.186Z" transform="translate(-834.185 -214.53)" fill="#fff"/>
          <path id="Trazado_126998" data-name="Trazado 126998" d="M955.379,265.372l-3.286,1.9a4.658,4.658,0,0,1-4.214-.007l-3.307-1.909a1.6,1.6,0,0,1-.847-1.032,1.378,1.378,0,0,0,.847,1.417l3.307,1.909a4.654,4.654,0,0,0,4.214.007l3.286-1.9a1.359,1.359,0,0,0,.833-1.4A1.571,1.571,0,0,1,955.379,265.372Z" transform="translate(-822.04 -209.522)" fill="#fff"/>
          <path id="Trazado_126999" data-name="Trazado 126999" d="M952.647,270.437a1.428,1.428,0,0,1-.75.9l-3.691,2.13a4.207,4.207,0,0,1-3.807-.006l-3.714-2.144a1.455,1.455,0,0,1-.762-.914,1.235,1.235,0,0,0,.762,1.3l3.714,2.144a4.207,4.207,0,0,0,3.807.007l3.691-2.132A1.221,1.221,0,0,0,952.647,270.437Z" transform="translate(-822.967 -208.04)" fill="#fff"/>
          <path id="Trazado_127000" data-name="Trazado 127000" d="M869.435,247.358a1.608,1.608,0,0,1-.852,1.042l-3.2,1.846a4.752,4.752,0,0,1-4.3-.007l-3.219-1.858a1.622,1.622,0,0,1-.866-1.057,1.406,1.406,0,0,0,.866,1.441l3.219,1.858a4.751,4.751,0,0,0,4.3.007l3.2-1.846A1.393,1.393,0,0,0,869.435,247.358Z" transform="translate(-843.174 -213.664)" fill="#fff"/>
          <path id="Trazado_127001" data-name="Trazado 127001" d="M853.884,238.244l17.011,9.821a4.752,4.752,0,0,0,4.3.007l3.2-1.847a1.389,1.389,0,0,0,.852-1.425,1.6,1.6,0,0,1-.852,1.041l-3.2,1.847a4.756,4.756,0,0,1-4.3-.007l-17.011-9.821a1.625,1.625,0,0,1-.866-1.057A1.41,1.41,0,0,0,853.884,238.244Z" transform="translate(-844.144 -216.227)" fill="#fff"/>
          <path id="Trazado_127002" data-name="Trazado 127002" d="M879.358,236.308l3.307,1.909a4.656,4.656,0,0,0,4.212.007l3.287-1.9a1.36,1.36,0,0,0,.833-1.4,1.568,1.568,0,0,1-.833,1.016l-3.287,1.9a4.659,4.659,0,0,1-4.212-.007l-3.307-1.909a1.589,1.589,0,0,1-.847-1.032A1.377,1.377,0,0,0,879.358,236.308Z" transform="translate(-837.932 -216.693)" fill="#fff"/>
          <path id="Trazado_127003" data-name="Trazado 127003" d="M877.122,251.8a1.6,1.6,0,0,1-.852,1.041l-3.2,1.847a4.751,4.751,0,0,1-4.3-.007l-3.219-1.858a1.625,1.625,0,0,1-.866-1.057,1.407,1.407,0,0,0,.866,1.441l3.219,1.858a4.752,4.752,0,0,0,4.3.008l3.2-1.846A1.389,1.389,0,0,0,877.122,251.8Z" transform="translate(-841.3 -212.582)" fill="#fff"/>
          <path id="Trazado_127004" data-name="Trazado 127004" d="M875.379,225.788l3.306,1.909a4.662,4.662,0,0,0,4.214.007l3.286-1.9a1.361,1.361,0,0,0,.835-1.4,1.573,1.573,0,0,1-.835,1.016l-3.286,1.9a4.654,4.654,0,0,1-4.214-.007l-3.306-1.909a1.6,1.6,0,0,1-.848-1.031A1.379,1.379,0,0,0,875.379,225.788Z" transform="translate(-838.902 -219.257)" fill="#fff"/>
          <path id="Trazado_127005" data-name="Trazado 127005" d="M942.181,289.359a1.6,1.6,0,0,1-.852,1.041l-3.2,1.847a4.752,4.752,0,0,1-4.3-.007l-60.589-34.981a1.618,1.618,0,0,1-.866-1.057,1.407,1.407,0,0,0,.866,1.441l60.589,34.981a4.752,4.752,0,0,0,4.3.007l3.2-1.846A1.389,1.389,0,0,0,942.181,289.359Z" transform="translate(-839.427 -211.5)" fill="#fff"/>
          <path id="Trazado_127006" data-name="Trazado 127006" d="M868.258,229.9l7.55,4.359a4.655,4.655,0,0,0,4.212.007l3.286-1.9a1.359,1.359,0,0,0,.835-1.4,1.568,1.568,0,0,1-.835,1.015l-3.286,1.9a4.655,4.655,0,0,1-4.212-.007l-7.55-4.359a1.6,1.6,0,0,1-.848-1.032A1.379,1.379,0,0,0,868.258,229.9Z" transform="translate(-840.637 -218.255)" fill="#fff"/>
          <path id="Trazado_127007" data-name="Trazado 127007" d="M860.957,233.893l11.989,6.921a4.207,4.207,0,0,0,3.807.007l3.69-2.13a1.221,1.221,0,0,0,.751-1.284,1.435,1.435,0,0,1-.751.9l-3.69,2.13a4.207,4.207,0,0,1-3.807-.007l-11.989-6.921a1.45,1.45,0,0,1-.762-.915A1.237,1.237,0,0,0,860.957,233.893Z" transform="translate(-842.396 -217.253)" fill="#fff"/>
          <path id="Trazado_127008" data-name="Trazado 127008" d="M960.434,293.208l-3.2,1.847a4.756,4.756,0,0,1-4.3-.009l-3.219-1.858a1.625,1.625,0,0,1-.866-1.057,1.412,1.412,0,0,0,.866,1.443l3.219,1.858a4.752,4.752,0,0,0,4.3.007l3.2-1.847a1.389,1.389,0,0,0,.852-1.425A1.6,1.6,0,0,1,960.434,293.208Z" transform="translate(-820.791 -202.745)" fill="#fff"/>
          <path id="Trazado_127009" data-name="Trazado 127009" d="M969.122,289.5l-3.69,2.132a4.208,4.208,0,0,1-3.807-.007l-9.443-5.451a1.459,1.459,0,0,1-.762-.915,1.239,1.239,0,0,0,.762,1.3l9.443,5.451a4.208,4.208,0,0,0,3.807.008l3.69-2.13a1.221,1.221,0,0,0,.751-1.284A1.434,1.434,0,0,1,969.122,289.5Z" transform="translate(-820.165 -204.419)" fill="#fff"/>
          <path id="Trazado_127010" data-name="Trazado 127010" d="M938.628,287.308a1.6,1.6,0,0,1-.852,1.041l-3.2,1.847a4.754,4.754,0,0,1-4.3-.007l-3.217-1.858a1.624,1.624,0,0,1-.866-1.057,1.407,1.407,0,0,0,.866,1.441l3.217,1.858a4.754,4.754,0,0,0,4.3.007l3.2-1.846A1.389,1.389,0,0,0,938.628,287.308Z" transform="translate(-826.312 -203.928)" fill="#fff"/>
          <path id="Trazado_127011" data-name="Trazado 127011" d="M982.848,281.231l-3.286,1.9a4.658,4.658,0,0,1-4.214-.008l-7.55-4.359a1.6,1.6,0,0,1-.847-1.032,1.377,1.377,0,0,0,.847,1.417l7.55,4.359a4.654,4.654,0,0,0,4.214.007l3.286-1.9a1.362,1.362,0,0,0,.835-1.4A1.576,1.576,0,0,1,982.848,281.231Z" transform="translate(-816.38 -206.254)" fill="#fff"/>
          <path id="Trazado_127012" data-name="Trazado 127012" d="M985.626,278.684a4.09,4.09,0,0,1-3.7-.006l-3.819-2.205a1.42,1.42,0,0,1-.741-.884,1.2,1.2,0,0,0,.741,1.269l3.819,2.205a4.09,4.09,0,0,0,3.7.006,1.184,1.184,0,0,0,.729-1.254A1.4,1.4,0,0,1,985.626,278.684Z" transform="translate(-813.843 -206.776)" fill="#fff"/>
          <path id="Trazado_127013" data-name="Trazado 127013" d="M975.12,284.745l-3.69,2.13a4.208,4.208,0,0,1-3.807-.006l-3.714-2.144a1.451,1.451,0,0,1-.762-.915,1.237,1.237,0,0,0,.762,1.3l3.714,2.144a4.207,4.207,0,0,0,3.807.007l3.69-2.132a1.22,1.22,0,0,0,.751-1.284A1.429,1.429,0,0,1,975.12,284.745Z" transform="translate(-817.307 -204.772)" fill="#fff"/>
          <path id="Trazado_127014" data-name="Trazado 127014" d="M946.317,291.747a1.6,1.6,0,0,1-.852,1.041l-3.2,1.847a4.751,4.751,0,0,1-4.3-.009l-3.219-1.858a1.626,1.626,0,0,1-.866-1.056,1.407,1.407,0,0,0,.866,1.441l3.219,1.858a4.752,4.752,0,0,0,4.3.008l3.2-1.847A1.39,1.39,0,0,0,946.317,291.747Z" transform="translate(-824.438 -202.847)" fill="#fff"/>
          <path id="Trazado_127015" data-name="Trazado 127015" d="M953.313,297.319l-3.2,1.847a4.751,4.751,0,0,1-4.3-.007L942.6,297.3a1.625,1.625,0,0,1-.865-1.057,1.407,1.407,0,0,0,.865,1.441l3.219,1.858a4.751,4.751,0,0,0,4.3.007l3.2-1.846a1.389,1.389,0,0,0,.852-1.427A1.6,1.6,0,0,1,953.313,297.319Z" transform="translate(-822.526 -201.743)" fill="#fff"/>
          <path id="Trazado_127016" data-name="Trazado 127016" d="M882.274,221.528l8.063,4.655a4.09,4.09,0,0,0,3.7.007,1.189,1.189,0,0,0,.73-1.254,1.4,1.4,0,0,1-.73.868,4.087,4.087,0,0,1-3.7-.006l-8.063-4.655a1.417,1.417,0,0,1-.741-.884A1.2,1.2,0,0,0,882.274,221.528Z" transform="translate(-837.196 -220.259)" fill="#fff"/>
          <path id="Trazado_127017" data-name="Trazado 127017" d="M862.577,243.4a1.6,1.6,0,0,1-.852,1.042l-3.2,1.846a4.754,4.754,0,0,1-4.3-.007l-7.462-4.308a1.625,1.625,0,0,1-.866-1.057,1.409,1.409,0,0,0,.866,1.441l7.462,4.308a4.754,4.754,0,0,0,4.3.009l3.2-1.847A1.389,1.389,0,0,0,862.577,243.4Z" transform="translate(-845.879 -215.226)" fill="#fff"/>
          <path id="Trazado_127018" data-name="Trazado 127018" d="M968.024,279.315a1.44,1.44,0,0,1-.751.9l-3.69,2.13a4.2,4.2,0,0,1-3.807-.007l-3.714-2.143a1.45,1.45,0,0,1-.762-.915,1.237,1.237,0,0,0,.762,1.3l3.714,2.144a4.207,4.207,0,0,0,3.807.006l3.69-2.13A1.222,1.222,0,0,0,968.024,279.315Z" transform="translate(-819.22 -205.877)" fill="#fff"/>
          <path id="Trazado_127019" data-name="Trazado 127019" d="M971.589,273.233a1.567,1.567,0,0,1-.834,1.016l-3.286,1.9a4.659,4.659,0,0,1-4.212-.008l-3.307-1.909a1.59,1.59,0,0,1-.847-1.032,1.378,1.378,0,0,0,.847,1.417l3.307,1.909a4.655,4.655,0,0,0,4.212.007l3.286-1.9A1.36,1.36,0,0,0,971.589,273.233Z" transform="translate(-818.292 -207.358)" fill="#fff"/>
          <path id="Trazado_127020" data-name="Trazado 127020" d="M956.456,280.859a1.433,1.433,0,0,1-.751.9l-3.69,2.13a4.208,4.208,0,0,1-3.807-.006l-3.714-2.144a1.45,1.45,0,0,1-.762-.915,1.237,1.237,0,0,0,.762,1.3l3.714,2.144a4.208,4.208,0,0,0,3.807.006l3.69-2.13A1.221,1.221,0,0,0,956.456,280.859Z" transform="translate(-822.039 -205.5)" fill="#fff"/>
          <path id="Trazado_127021" data-name="Trazado 127021" d="M970.256,272.326l3.819,2.205a4.093,4.093,0,0,0,3.7.006,1.188,1.188,0,0,0,.729-1.254,1.4,1.4,0,0,1-.729.869,4.093,4.093,0,0,1-3.7-.007l-3.819-2.205a1.412,1.412,0,0,1-.74-.883A1.2,1.2,0,0,0,970.256,272.326Z" transform="translate(-815.755 -207.88)" fill="#fff"/>
          <path id="Trazado_127022" data-name="Trazado 127022" d="M875.3,242.172l3.714,2.144a4.21,4.21,0,0,0,3.808.007l3.69-2.13a1.223,1.223,0,0,0,.75-1.285,1.427,1.427,0,0,1-.75.9l-3.69,2.13a4.206,4.206,0,0,1-3.808-.006l-3.714-2.144a1.452,1.452,0,0,1-.762-.914A1.236,1.236,0,0,0,875.3,242.172Z" transform="translate(-838.901 -215.235)" fill="#fff"/>
          <path id="Trazado_127023" data-name="Trazado 127023" d="M953.427,287.629a1.6,1.6,0,0,1-.852,1.042l-3.2,1.846a4.754,4.754,0,0,1-4.3-.007l-3.219-1.858a1.625,1.625,0,0,1-.866-1.057,1.41,1.41,0,0,0,.866,1.441l3.219,1.858a4.759,4.759,0,0,0,4.3.009l3.2-1.847A1.389,1.389,0,0,0,953.427,287.629Z" transform="translate(-822.706 -203.85)" fill="#fff"/>
          <path id="Trazado_127024" data-name="Trazado 127024" d="M962.568,267.887l3.819,2.205a4.09,4.09,0,0,0,3.7.006,1.187,1.187,0,0,0,.73-1.254,1.4,1.4,0,0,1-.73.869,4.09,4.09,0,0,1-3.7-.006l-3.819-2.206a1.413,1.413,0,0,1-.74-.883A1.2,1.2,0,0,0,962.568,267.887Z" transform="translate(-817.629 -208.962)" fill="#fff"/>
          <path id="Trazado_127025" data-name="Trazado 127025" d="M872.663,249.087l3.217,1.858a4.758,4.758,0,0,0,4.3.007l3.2-1.847a1.389,1.389,0,0,0,.852-1.425,1.6,1.6,0,0,1-.852,1.041l-3.2,1.847a4.758,4.758,0,0,1-4.3-.009l-3.217-1.858a1.618,1.618,0,0,1-.866-1.057A1.408,1.408,0,0,0,872.663,249.087Z" transform="translate(-839.568 -213.586)" fill="#fff"/>
          <path id="Trazado_127026" data-name="Trazado 127026" d="M939.5,254.57l3.819,2.205a4.093,4.093,0,0,0,3.7.007,1.19,1.19,0,0,0,.729-1.254,1.4,1.4,0,0,1-.729.868,4.093,4.093,0,0,1-3.7-.006l-3.819-2.205a1.414,1.414,0,0,1-.74-.884A1.2,1.2,0,0,0,939.5,254.57Z" transform="translate(-823.25 -212.207)" fill="#fff"/>
          <path id="Trazado_127027" data-name="Trazado 127027" d="M916.438,241.254l3.819,2.205a4.093,4.093,0,0,0,3.7.006,1.188,1.188,0,0,0,.729-1.254,1.4,1.4,0,0,1-.729.869,4.093,4.093,0,0,1-3.7-.007l-3.819-2.205a1.413,1.413,0,0,1-.74-.883A1.2,1.2,0,0,0,916.438,241.254Z" transform="translate(-828.87 -215.452)" fill="#fff"/>
          <path id="Trazado_127028" data-name="Trazado 127028" d="M908.751,236.815l3.819,2.205a4.09,4.09,0,0,0,3.7.006,1.185,1.185,0,0,0,.729-1.254,1.4,1.4,0,0,1-.729.869,4.09,4.09,0,0,1-3.7-.006l-3.819-2.205a1.42,1.42,0,0,1-.741-.884A1.2,1.2,0,0,0,908.751,236.815Z" transform="translate(-830.744 -216.534)" fill="#fff"/>
          <path id="Trazado_127029" data-name="Trazado 127029" d="M954.881,263.448l3.819,2.205a4.09,4.09,0,0,0,3.7.006,1.184,1.184,0,0,0,.729-1.252,1.4,1.4,0,0,1-.729.868,4.09,4.09,0,0,1-3.7-.006l-3.819-2.205a1.42,1.42,0,0,1-.741-.884A1.2,1.2,0,0,0,954.881,263.448Z" transform="translate(-819.503 -210.044)" fill="#fff"/>
          <path id="Trazado_127030" data-name="Trazado 127030" d="M901.063,232.376l3.819,2.205a4.09,4.09,0,0,0,3.7.006,1.184,1.184,0,0,0,.729-1.252,1.4,1.4,0,0,1-.729.868,4.09,4.09,0,0,1-3.7-.006l-3.819-2.205a1.42,1.42,0,0,1-.741-.884A1.2,1.2,0,0,0,901.063,232.376Z" transform="translate(-832.617 -217.616)" fill="#fff"/>
          <path id="Trazado_127031" data-name="Trazado 127031" d="M924.126,245.693l3.821,2.205a4.09,4.09,0,0,0,3.7.006,1.186,1.186,0,0,0,.729-1.254,1.4,1.4,0,0,1-.729.869,4.09,4.09,0,0,1-3.7-.007l-3.821-2.205a1.416,1.416,0,0,1-.74-.884A1.2,1.2,0,0,0,924.126,245.693Z" transform="translate(-826.997 -214.371)" fill="#fff"/>
          <path id="Trazado_127032" data-name="Trazado 127032" d="M947.191,259.009l3.819,2.205a4.089,4.089,0,0,0,3.7.006,1.184,1.184,0,0,0,.729-1.252,1.4,1.4,0,0,1-.729.868,4.093,4.093,0,0,1-3.7-.006l-3.819-2.205a1.421,1.421,0,0,1-.74-.884A1.2,1.2,0,0,0,947.191,259.009Z" transform="translate(-821.376 -211.125)" fill="#fff"/>
          <path id="Trazado_127033" data-name="Trazado 127033" d="M893.373,227.937l3.819,2.205a4.093,4.093,0,0,0,3.7.007,1.188,1.188,0,0,0,.729-1.254,1.4,1.4,0,0,1-.729.868,4.093,4.093,0,0,1-3.7-.006l-3.819-2.205a1.417,1.417,0,0,1-.74-.884A1.2,1.2,0,0,0,893.373,227.937Z" transform="translate(-834.491 -218.697)" fill="#fff"/>
          <path id="Trazado_127034" data-name="Trazado 127034" d="M931.816,250.131l3.819,2.205a4.09,4.09,0,0,0,3.7.007,1.186,1.186,0,0,0,.729-1.254,1.394,1.394,0,0,1-.729.868,4.087,4.087,0,0,1-3.7-.006l-3.819-2.205a1.417,1.417,0,0,1-.741-.884A1.2,1.2,0,0,0,931.816,250.131Z" transform="translate(-825.123 -213.289)" fill="#fff"/>
        </g>
        <path id="Trazado_127035" data-name="Trazado 127035" d="M890.135,307.055l-38.682-22.333c-1.527-.882-1.336-2.423.428-3.441l21.954-12.674a6.624,6.624,0,0,1,5.96-.247l38.683,22.334c1.527.882,1.336,2.423-.428,3.441L896.1,306.809A6.62,6.62,0,0,1,890.135,307.055Z" transform="translate(-778.355 -48.047)" fill="#fff"/>
        <path id="Trazado_127036" data-name="Trazado 127036" d="M851.881,282.723l21.954-12.674a6.624,6.624,0,0,1,5.96-.247l38.682,22.334a2.218,2.218,0,0,1,.832.781,1.6,1.6,0,0,0-.832-2.224l-38.682-22.334a6.624,6.624,0,0,0-5.96.247l-21.954,12.674c-1.316.76-1.754,1.81-1.26,2.66A3.123,3.123,0,0,1,851.881,282.723Z" transform="translate(-778.355 -48.047)" fill="#7cbac4"/>
        <g id="Grupo_85783" data-name="Grupo 85783" transform="translate(74.889 135.428)" style="mix-blend-mode: multiply;isolation: isolate">
          <path id="Trazado_127037" data-name="Trazado 127037" d="M955.571,282.2a14.76,14.76,0,0,1-7.366-1.775l-45.643-26.119-45.645-26.119a7.794,7.794,0,0,1-4.226-6.732c0-2.99,1.854-5.776,5.089-7.642l18.531-11.549a18.144,18.144,0,0,1,8.946-2.275,14.759,14.759,0,0,1,7.365,1.776l45.645,26.119L983.911,254a7.8,7.8,0,0,1,4.225,6.732c0,2.989-1.854,5.774-5.088,7.643l-18.532,11.549A18.135,18.135,0,0,1,955.571,282.2Z" transform="translate(-852.691 -199.99)" fill="#daebf2" opacity="0"/>
          <path id="Trazado_127038" data-name="Trazado 127038" d="M858.086,213.848l14.9-9.242c.088-.051,3.332-2.048,3.438-2.074a17.851,17.851,0,0,1,8.849-2.045c.466.014.925.053,1.374.095a15.484,15.484,0,0,1,5.842,1.806l45.094,25.787,45.03,25.749a8.731,8.731,0,0,1,4.253,5.422,8.447,8.447,0,0,1,.143,1.02c.188,2.887-1.536,5.671-4.776,7.542l-14.894,9.242c-.088.051-3.333,2.048-3.438,2.076a17.865,17.865,0,0,1-8.849,2.043c-.468-.014-.925-.052-1.374-.095a15.485,15.485,0,0,1-5.843-1.806l-45.094-25.785-45.03-25.751a8.732,8.732,0,0,1-4.253-5.422,8.413,8.413,0,0,1-.143-1.02C853.122,218.5,854.846,215.717,858.086,213.848Z" transform="translate(-852.544 -199.87)" fill="#daebf2" opacity="0.091"/>
          <path id="Trazado_127039" data-name="Trazado 127039" d="M858.4,213.887l14.717-9.09c.177-.1,3.207-1.943,3.418-1.995a17.411,17.411,0,0,1,8.753-1.815c.459.026.905.088,1.344.137a17.336,17.336,0,0,1,5.721,1.887l44.544,25.455,44.416,25.381c1.906,1.1,3.947,3.332,4.363,5.184.072.322.159.641.2.969.379,2.787-1.218,5.568-4.461,7.441L966.7,276.53c-.177.1-3.208,1.943-3.418,1.995a17.531,17.531,0,0,1-8.753,1.813c-.459-.026-.907-.087-1.345-.136a17.307,17.307,0,0,1-5.721-1.888L902.916,252.86,858.5,227.48c-1.905-1.1-3.946-3.333-4.363-5.184-.072-.323-.158-.642-.2-.97C853.554,218.539,855.151,215.758,858.4,213.887Z" transform="translate(-852.401 -199.753)" fill="#daebf2" opacity="0.182"/>
          <path id="Trazado_127040" data-name="Trazado 127040" d="M858.712,213.926l14.539-8.938c.265-.153,3.081-1.836,3.4-1.915a17.058,17.058,0,0,1,8.657-1.583c.45.039.887.123,1.316.178a19.69,19.69,0,0,1,5.6,1.97l44,25.122,43.8,25.012c1.694.979,4.038,3.314,4.471,4.944.082.311.2.608.265.92.575,2.688-.9,5.462-4.146,7.339l-14.539,8.937c-.265.153-3.082,1.837-3.4,1.915a17.2,17.2,0,0,1-8.656,1.584c-.451-.041-.887-.123-1.317-.178a19.7,19.7,0,0,1-5.6-1.97L903.1,252.141l-43.8-25.012c-1.694-.979-4.039-3.314-4.472-4.945-.082-.31-.2-.607-.265-.919C853.989,218.576,855.462,215.8,858.712,213.926Z" transform="translate(-852.264 -199.638)" fill="#daebf2" opacity="0.273"/>
          <path id="Trazado_127041" data-name="Trazado 127041" d="M859.032,213.969l14.36-8.787c.353-.2,2.956-1.73,3.377-1.836a16.666,16.666,0,0,1,8.561-1.353c.443.051.867.158,1.287.22a22.782,22.782,0,0,1,5.479,2.052l43.444,24.789L978.727,253.7c1.482.856,4.143,3.295,4.579,4.7.093.3.24.575.328.869.772,2.591-.58,5.359-3.834,7.238l-14.36,8.785c-.353.2-2.956,1.731-3.377,1.836a16.848,16.848,0,0,1-8.562,1.353c-.443-.053-.867-.157-1.287-.22a22.76,22.76,0,0,1-5.478-2.052l-43.445-24.789L860.105,226.78c-1.483-.856-4.144-3.295-4.581-4.7-.092-.3-.239-.575-.327-.869C854.425,218.615,855.777,215.847,859.032,213.969Z" transform="translate(-852.132 -199.526)" fill="#daebf2" opacity="0.364"/>
          <path id="Trazado_127042" data-name="Trazado 127042" d="M859.355,214.013l14.183-8.634a32.288,32.288,0,0,1,3.355-1.756,16.278,16.278,0,0,1,8.466-1.123c.434.065.847.192,1.259.262a27.024,27.024,0,0,1,5.357,2.134l42.895,24.457,42.573,24.274c1.271.734,4.5,3.215,4.689,4.466a5.572,5.572,0,0,1,.389.818c.975,2.494-.261,5.256-3.52,7.138l-14.182,8.634a32.038,32.038,0,0,1-3.357,1.755A16.466,16.466,0,0,1,953,277.563c-.435-.067-.847-.193-1.259-.262a27.109,27.109,0,0,1-5.358-2.134l-42.895-24.457-42.573-24.274c-1.27-.734-4.5-3.215-4.689-4.466a5.649,5.649,0,0,1-.389-.82C854.862,218.655,856.1,215.894,859.355,214.013Z" transform="translate(-852.004 -199.415)" fill="#daebf2" opacity="0.455"/>
          <path id="Trazado_127043" data-name="Trazado 127043" d="M859.684,214.06l14-8.482a26.144,26.144,0,0,1,3.337-1.676,15.858,15.858,0,0,1,8.368-.893c.428.077.827.226,1.23.3a33.46,33.46,0,0,1,5.237,2.216L934.2,229.653l41.958,23.906c1.058.612,4.638,3.184,4.8,4.226a5.382,5.382,0,0,1,.45.77c1.183,2.4.058,5.151-3.2,7.036l-14,8.482a26.134,26.134,0,0,1-3.337,1.675,16.062,16.062,0,0,1-8.369.893c-.425-.081-.826-.226-1.229-.3a33.362,33.362,0,0,1-5.237-2.216L903.684,250,861.727,226.09c-1.06-.611-4.64-3.184-4.8-4.226a5.388,5.388,0,0,1-.45-.77C855.3,218.7,856.42,215.943,859.684,214.06Z" transform="translate(-851.88 -199.307)" fill="#daebf2" opacity="0.545"/>
          <path id="Trazado_127044" data-name="Trazado 127044" d="M860.016,214.108l13.826-8.33a21.781,21.781,0,0,1,3.316-1.6,15.452,15.452,0,0,1,8.272-.663c.419.091.806.261,1.2.346a42.908,42.908,0,0,1,5.115,2.3l41.8,23.793,41.344,23.537c.847.489,4.778,3.153,4.905,3.987a5.388,5.388,0,0,1,.514.719c1.394,2.295.375,5.047-2.892,6.934l-13.826,8.33a21.713,21.713,0,0,1-3.316,1.6,15.614,15.614,0,0,1-8.273.663c-.418-.093-.8-.26-1.2-.344a43.122,43.122,0,0,1-5.117-2.3l-41.794-23.793-41.344-23.537c-.847-.49-4.78-3.154-4.906-3.987a5.38,5.38,0,0,1-.512-.72C855.73,218.747,856.747,215.995,860.016,214.108Z" transform="translate(-851.759 -199.201)" fill="#daebf2" opacity="0.636"/>
          <path id="Trazado_127045" data-name="Trazado 127045" d="M860.351,214.16,874,205.981a18.6,18.6,0,0,1,3.294-1.516,15.027,15.027,0,0,1,8.176-.433c.412.1.784.3,1.173.387.6.142,4.538,2.118,4.993,2.382l41.246,23.46,40.729,23.169c.636.367,4.92,3.123,5.015,3.747a5.451,5.451,0,0,1,.574.669c1.611,2.191.7,4.944-2.578,6.833l-13.647,8.178a18.61,18.61,0,0,1-3.3,1.516,15.181,15.181,0,0,1-8.176.433c-.41-.107-.783-.3-1.173-.387-.6-.142-4.538-2.118-4.993-2.382l-41.246-23.46-40.73-23.169c-.635-.367-4.92-3.123-5.015-3.747a5.449,5.449,0,0,1-.575-.669C856.162,218.8,857.078,216.049,860.351,214.16Z" transform="translate(-851.642 -199.097)" fill="#daebf2" opacity="0.727"/>
          <path id="Trazado_127046" data-name="Trazado 127046" d="M860.689,214.212l13.469-8.026a16.14,16.14,0,0,1,3.275-1.436,14.609,14.609,0,0,1,8.08-.2,8.47,8.47,0,0,1,1.143.429c.41.031,4.57,2.287,4.874,2.463l40.695,23.129,40.116,22.8c.423.245,5.059,3.092,5.123,3.508a5.374,5.374,0,0,1,.635.619c1.829,2.081,1.015,4.839-2.264,6.731l-13.469,8.027a16.124,16.124,0,0,1-3.276,1.435,14.712,14.712,0,0,1-8.08.2,8.955,8.955,0,0,1-1.143-.428c-.409-.032-4.569-2.288-4.873-2.464L904.3,247.87l-40.115-22.8c-.423-.244-5.059-3.091-5.123-3.508a5.362,5.362,0,0,1-.636-.618C856.595,218.862,857.411,216.1,860.689,214.212Z" transform="translate(-851.527 -198.996)" fill="#daebf2" opacity="0.818"/>
          <path id="Trazado_127047" data-name="Trazado 127047" d="M861.029,214.268l13.291-7.875a14.591,14.591,0,0,1,11.238-1.328,8.038,8.038,0,0,1,1.114.47c.205.016,4.6,2.458,4.752,2.546l40.146,22.8,39.5,22.43c.211.123,5.2,3.061,5.231,3.27a5.428,5.428,0,0,1,.7.568c2.052,1.966,1.333,4.735-1.949,6.63l-13.293,7.875a14.591,14.591,0,0,1-11.238,1.328,8.1,8.1,0,0,1-1.114-.471c-.2-.015-4.6-2.458-4.752-2.545l-40.145-22.8-39.5-22.43c-.213-.123-5.2-3.061-5.232-3.27a5.428,5.428,0,0,1-.7-.568C857.029,218.931,857.746,216.163,861.029,214.268Z" transform="translate(-851.414 -198.896)" fill="#daebf2" opacity="0.909"/>
          <path id="Trazado_127048" data-name="Trazado 127048" d="M948.949,271.556l-44.227-25.091-44.227-25.091c-3.129-1.807-2.737-4.962.877-7.048l13.112-7.722c3.613-2.086,9.079-2.312,12.208-.506l44.227,25.091,44.227,25.091c3.129,1.807,2.736,4.962-.877,7.048l-13.113,7.722C957.542,273.137,952.078,273.363,948.949,271.556Z" transform="translate(-851.304 -198.799)" fill="#daebf2"/>
        </g>
      </g>
      <g id="Grupo_85785" data-name="Grupo 85785" transform="translate(913.34 100.626)">
        <path id="Trazado_127049" data-name="Trazado 127049" d="M947.426,165.177l-3.977-2.292-3.291,2.8.684,5.094,3.977,2.292,3.292-2.8Zm11.382-34.48-3.977-2.292-3.291,2.8.684,5.093,3.977,2.292,3.292-2.8ZM960,127.1l3.292-2.8L962.6,119.2l-3.977-2.292-3.292,2.8.685,5.094Zm-8.775,26.584-3.977-2.292-3.292,2.8.685,5.094,3.977,2.292,3.292-2.8Zm3.793-11.494-3.976-2.291-3.292,2.8.685,5.094,3.976,2.291,3.292-2.8Zm5.671-3.411-3.292,2.8.685,5.094,3.976,2.292,3.292-2.8-.685-5.094Zm3.793-11.494-3.291,2.8.684,5.093,3.977,2.292,3.292-2.8-.685-5.094Zm-7.588,22.987-3.292,2.8.685,5.094,3.977,2.292,3.292-2.8-.685-5.094ZM953.1,161.764l-3.291,2.8.685,5.093,3.976,2.292,3.292-2.8-.685-5.094ZM949.3,173.258l-3.292,2.8.685,5.094,3.976,2.291,3.292-2.8-.685-5.094Zm22.805-25.5,3.292-2.8-.685-5.094-3.977-2.291-3.291,2.8.684,5.094Zm-3.795,11.493,3.292-2.8-.685-5.094-3.976-2.292-3.292,2.8.685,5.094Zm7.589-22.987,3.291-2.8-.684-5.094-3.977-2.292-3.292,2.8.685,5.094Zm-11.382,34.48,3.291-2.8-.684-5.094-3.977-2.292-3.292,2.8.685,5.093Zm-3.794,11.493,3.292-2.8-.685-5.094-3.977-2.291-3.291,2.8.684,5.094Zm1.877,8.081,3.976,2.292,3.292-2.8-.685-5.094-3.976-2.292-3.292,2.8Zm7.588-22.986,3.977,2.291,3.292-2.8-.685-5.094-3.977-2.292-3.292,2.8ZM966.4,178.828l3.977,2.292,3.292-2.8-.685-5.094L969,170.931l-3.291,2.8Zm10.2-30.883-3.292,2.8.685,5.094,3.976,2.292,3.292-2.8-.685-5.094Zm1.187-3.6,3.977,2.292,3.292-2.8-.685-5.094-3.977-2.291-3.291,2.8Zm8.588,2.23-3.291,2.8.685,5.094,3.976,2.292,3.292-2.8-.685-5.094Zm-3.793,11.493-3.292,2.8.685,5.094,3.976,2.291,3.292-2.8-.685-5.094Zm-10.194,30.883,3.976,2.292,3.292-2.8-.685-5.094-3.977-2.292-3.291,2.8Zm19.153-43.681,3.292-2.8-.685-5.093-3.977-2.292-3.292,2.8.685,5.094Zm-15.359,32.188,3.977,2.292,3.292-2.8-.685-5.094-3.977-2.291-3.292,2.8Zm13.122,9.862-.685-5.094-3.977-2.292-3.291,2.8.685,5.094L986,190.125Zm-11.063,12,3.977,2.291,3.291-2.8-.685-5.094-3.976-2.291-3.292,2.8Zm15.177-45.974,3.976,2.292,3.292-2.8-.685-5.094-3.977-2.292-3.291,2.8Zm-1.188,3.6-3.292,2.8.685,5.094,3.977,2.291,3.291-2.8-.685-5.094Zm-3.795,11.493-3.292,2.8.685,5.094,3.977,2.292,3.292-2.8-.685-5.093Zm6.283,23.981-3.977-2.292-3.291,2.8.685,5.094,3.976,2.292,3.292-2.8Zm12.57-38.078,3.292-2.8-.685-5.094-3.977-2.291-3.292,2.8.685,5.094ZM998.5,180.931l-3.977-2.292-3.292,2.8.685,5.094,3.977,2.291,3.292-2.8Zm3.61-25.278-3.291,2.8.685,5.094,3.976,2.292,3.292-2.8-.685-5.093Zm.183,13.785-3.976-2.292-3.292,2.8.685,5.094,3.977,2.292,3.291-2.8Zm6.859-7.009,3.976,2.292,3.292-2.8-.685-5.094-3.976-2.292-3.292,2.8Zm2.79,5.889-3.977-2.292-3.292,2.8.685,5.094,3.977,2.292,3.291-2.8Zm-3.795,11.493-3.977-2.291-3.292,2.8.685,5.094,3.977,2.291,3.292-2.8Zm-7.588,22.987-3.977-2.292-3.292,2.8.685,5.094,3.977,2.292,3.291-2.8Zm3.793-11.493-3.976-2.292-3.292,2.8.685,5.094,3.976,2.292,3.292-2.8Zm5.591,9.9-3.977-2.292-3.291,2.8.685,5.094,3.976,2.292,3.292-2.8Zm3.794-11.493-3.977-2.292-3.292,2.8.685,5.094,3.977,2.292,3.292-2.8Zm8.775-26.584,3.292-2.8-.685-5.094-3.977-2.292-3.292,2.8.685,5.094Zm-4.982,15.09-3.976-2.291-3.292,2.8.685,5.094,3.977,2.291,3.291-2.8Zm3.794-11.493-3.977-2.292-3.291,2.8.685,5.093,3.976,2.292,3.292-2.8Zm-1.918,19.574-3.292,2.8.685,5.094,3.977,2.292,3.292-2.8-.685-5.094ZM1027,163.313l-3.292,2.8.685,5.093,3.976,2.292,3.292-2.8-.685-5.094Zm-3.794,11.494-3.292,2.8.685,5.094,3.977,2.292,3.291-2.8-.684-5.094Zm-11.382,34.48-3.292,2.8.685,5.094,3.977,2.291,3.291-2.8-.684-5.094Zm3.794-11.494-3.292,2.8.685,5.093,3.976,2.292,3.292-2.8-.685-5.094Zm22.805-25.5,3.292-2.8-.686-5.094-3.977-2.292-3.292,2.8.685,5.094Zm-11.382,34.48,3.292-2.8-.685-5.094-3.977-2.292-3.292,2.8.685,5.093Zm3.794-11.493,3.291-2.8-.685-5.094-3.976-2.292-3.292,2.8.685,5.094Zm3.793-11.493,3.292-2.8-.685-5.094-3.977-2.291-3.291,2.8.685,5.094Zm-11.382,34.479,3.292-2.8-.685-5.094-3.977-2.291-3.291,2.8.685,5.094Zm15.866-34.295-3.292,2.8.685,5.094,3.977,2.292,3.291-2.8-.685-5.094Zm-6.4,19.39,3.977,2.291,3.292-2.8-.685-5.094-3.977-2.292-3.292,2.8Zm-3.793,11.493,3.976,2.292,3.292-2.8-.685-5.094-3.976-2.291-3.292,2.8Zm11.382-34.48,3.976,2.292,3.292-2.8-.685-5.094-3.977-2.291-3.291,2.8Zm-15.177,45.973,3.977,2.292,3.291-2.8-.686-5.094-3.976-2.292-3.292,2.8Zm23.764-43.743-3.292,2.8.685,5.094,3.976,2.292,3.292-2.8-.685-5.094Zm5.164-1.3,3.292-2.8-.685-5.093-3.978-2.292-3.292,2.8.685,5.094Zm-4.3,20.184-.684-5.094-3.977-2.292-3.292,2.8.685,5.094,3.977,2.291Zm-14.856,23.5,3.976,2.292,3.292-2.8-.686-5.094-3.976-2.292-3.292,2.8Zm3.793-11.493,3.977,2.292,3.292-2.8-.685-5.094-3.977-2.291-3.292,2.8Zm20.026-18.219-3.978-2.291-3.292,2.8.685,5.094,3.977,2.291,3.291-2.8Zm-11.382,34.48-3.977-2.291-3.292,2.8.685,5.094,3.977,2.291,3.291-2.8Zm7.588-22.986-3.977-2.292-3.291,2.8.684,5.094,3.977,2.292,3.292-2.8Zm-3.794,11.493-3.976-2.292-3.292,2.8.685,5.094,3.976,2.292,3.292-2.8Zm4.8-28.876,3.976,2.292,3.292-2.8-.685-5.094-3.976-2.292-3.292,2.8Zm1.3,39.072-3.976-2.292-3.292,2.8.685,5.094,3.976,2.292,3.292-2.8Zm7.589-22.987-3.977-2.292-3.292,2.8.685,5.094,3.977,2.292,3.291-2.8Zm-3.794,11.493-3.977-2.292-3.291,2.8.684,5.094,3.977,2.291,3.292-2.8Zm8.775-26.584,3.292-2.8-.685-5.094-3.977-2.291-3.292,2.8.685,5.094Zm-1.187,3.6-3.976-2.292-3.292,2.8.685,5.094,3.976,2.292,3.292-2.8Zm-1.918,19.574-3.291,2.8.684,5.094,3.977,2.291,3.292-2.8-.686-5.094Zm4.982-15.091,3.976,2.292,3.292-2.8-.685-5.094-3.976-2.292-3.292,2.8Zm-1.188,3.6-3.292,2.8.685,5.094,3.977,2.292,3.292-2.8-.685-5.094Zm-11.382,34.48-3.292,2.8.685,5.094,3.977,2.292,3.292-2.8-.685-5.094Zm3.794-11.493-3.292,2.8.685,5.094,3.976,2.292,3.292-2.8-.685-5.093Zm-133.286-5.908,3.292-2.8-.685-5.094-3.976-2.292-3.292,2.8.685,5.094Zm-1.186,3.6-3.977-2.291-3.292,2.8.685,5.094,3.977,2.292,3.291-2.8ZM943.6,176.757l-3.976-2.292-3.292,2.8.685,5.094L941,184.653l3.292-2.8Zm-7.588,22.987-3.977-2.292-3.291,2.8.684,5.094,3.977,2.292,3.292-2.8Zm3.794-11.494-3.977-2.291-3.292,2.8.685,5.094,3.977,2.292,3.291-2.8Zm-1.918,19.574-3.292,2.8.685,5.094,3.976,2.291,3.292-2.8-.685-5.094Zm3.793-11.493-3.291,2.8.684,5.094,3.977,2.292,3.292-2.8-.685-5.094ZM930.3,230.811l-3.291,2.8.684,5.094L931.674,241l3.292-2.8-.685-5.094Zm15.177-45.973-3.292,2.8.685,5.094,3.977,2.292,3.292-2.8-.685-5.093ZM934.1,219.318l-3.292,2.8.685,5.094,3.977,2.292,3.292-2.8-.685-5.093Zm22.805-25.5,3.292-2.8-.685-5.093-3.976-2.292-3.292,2.8.685,5.094Zm-3.793,11.493,3.291-2.8-.684-5.094-3.977-2.292-3.292,2.8.685,5.094Zm-3.795,11.493,3.292-2.8-.685-5.094-3.977-2.291-3.292,2.8.685,5.094ZM945.521,228.3l3.292-2.8-.685-5.093-3.976-2.292-3.292,2.8.685,5.094Zm-1.187,3.6-3.977-2.292-3.292,2.8.685,5.094,3.977,2.292,3.291-2.8Zm10.651-18.5,3.977,2.291,3.292-2.8-.685-5.094-3.977-2.291-3.291,2.8ZM958.78,201.9l3.977,2.292,3.291-2.8-.684-5.094L961.387,194l-3.292,2.8ZM947.4,236.381l3.977,2.292,3.291-2.8-.684-5.094L950,228.484l-3.292,2.8Zm3.795-11.493,3.976,2.292,3.292-2.8-.685-5.094-3.976-2.292-3.292,2.8Zm-4.982,15.091-3.291,2.8.684,5.094,3.977,2.291,3.292-2.8-.685-5.094ZM913.319,154.92l3.292-2.8-.685-5.094-3.977-2.291-3.291,2.8.685,5.094Zm3.795-11.493,3.292-2.8-.685-5.094-3.977-2.292-3.292,2.8.685,5.093Zm11.382-34.48,3.292-2.8-.685-5.094-3.977-2.292-3.292,2.8.685,5.093Zm-7.588,22.987,3.291-2.8-.685-5.094-3.976-2.292-3.292,2.8.685,5.094Zm3.793-11.493,3.292-2.8-.685-5.094-3.977-2.291-3.291,2.8.685,5.094Zm-3.1,23.171-3.292,2.8.685,5.094,3.976,2.292,3.292-2.8-.685-5.094Zm3.793-11.494-3.292,2.8.685,5.094,3.977,2.291,3.292-2.8-.685-5.094Zm7.589-22.986-3.292,2.8.685,5.094,3.976,2.292,3.292-2.8-.685-5.094Zm-3.795,11.493-3.292,2.8.685,5.094,3.977,2.292,3.291-2.8-.685-5.094ZM917.8,155.106l-3.292,2.8L915.2,163l3.977,2.292,3.291-2.8-.685-5.094Zm22.805-25.5,3.292-2.8-.685-5.094-3.977-2.292-3.291,2.8.684,5.094Zm-11.382,34.48,3.292-2.8-.685-5.094-3.977-2.292-3.291,2.8.685,5.094Zm7.588-22.987,3.292-2.8-.685-5.094-3.976-2.292-3.292,2.8.685,5.094Zm7.589-22.986,3.292-2.8-.685-5.094-3.977-2.291-3.292,2.8.685,5.094Zm-11.382,34.48,3.292-2.8-.685-5.094-3.977-2.291-3.292,2.8.685,5.094Zm1.877,8.08,3.976,2.292,3.292-2.8-.685-5.094-3.977-2.292-3.291,2.8Zm14.856-23.5-.685-5.094-3.976-2.291-3.292,2.8.685,5.094,3.977,2.291ZM931.1,172.169l3.977,2.291,3.291-2.8-.685-5.094-3.976-2.292-3.292,2.8Zm15.177-45.974,3.976,2.292,3.292-2.8-.685-5.094-3.977-2.292-3.291,2.8Zm-7.589,22.987,3.977,2.292,3.292-2.8-.685-5.093-3.977-2.292-3.292,2.8Zm-40.577,51.8,3.292-2.8-.685-5.093-3.976-2.292-3.292,2.8.685,5.094ZM909.5,166.5l3.292-2.8-.685-5.093-3.976-2.292-3.292,2.8.685,5.094Zm-7.588,22.986,3.292-2.8-.685-5.094-3.977-2.292-3.291,2.8.684,5.094Zm-4.981,15.091-3.977-2.292-3.292,2.8.685,5.094,3.977,2.292,3.292-2.8Zm8.776-26.584,3.292-2.8-.685-5.094-3.977-2.292-3.292,2.8.685,5.094ZM902.6,201.166l-3.292,2.8.685,5.094,3.977,2.292,3.292-2.8-.685-5.094ZM898.8,212.66l-3.291,2.8.685,5.094,3.976,2.291,3.292-2.8-.685-5.094Zm11.382-34.48-3.291,2.8.685,5.094,3.976,2.291,3.292-2.8-.685-5.094Zm3.794-11.494-3.292,2.8.685,5.094,3.977,2.292,3.292-2.8-.685-5.094Zm-7.588,22.987-3.292,2.8.685,5.094,3.977,2.292,3.291-2.8-.685-5.093Zm6.442,24.072-3.977-2.291-3.292,2.8.685,5.094,3.977,2.291,3.292-2.8Zm1.186-3.6,3.292-2.8-.685-5.094-3.976-2.292-3.292,2.8.685,5.094Zm11.382-34.48,3.292-2.8-.685-5.094-3.976-2.292-3.292,2.8.685,5.094ZM921.61,187.16l3.292-2.8-.685-5.094-3.977-2.291-3.292,2.8.685,5.094Zm-3.795,11.494,3.292-2.8-.685-5.094-3.977-2.292-3.291,2.8.684,5.094Zm9.465-14.906,3.977,2.291,3.292-2.8-.685-5.094-3.977-2.291-3.292,2.8ZM915.9,218.229l3.977,2.291,3.292-2.8-.685-5.094-3.977-2.291-3.292,2.8Zm7.588-22.987,3.977,2.292,3.292-2.8-.685-5.094-3.977-2.292-3.291,2.8Zm-3.793,11.493,3.976,2.292,3.292-2.8-.685-5.094-3.976-2.292-3.292,2.8Zm-4.982,15.091-3.291,2.8.685,5.094,3.976,2.292,3.292-2.8-.685-5.094Zm46.439,15.48,3.292-2.8-.685-5.094-3.976-2.292-3.292,2.8.685,5.094Zm-1.186,3.6-3.977-2.291-3.292,2.8.685,5.094,3.977,2.291,3.292-2.8Zm1-17.382,3.977,2.292,3.292-2.8-.685-5.094-3.977-2.292-3.291,2.8Zm3.794-11.493,3.977,2.291,3.292-2.8-.685-5.094-3.977-2.291-3.292,2.8Zm3.794-11.494,3.976,2.292,3.292-2.8-.685-5.094-3.976-2.292-3.292,2.8Zm2.06,21.867,3.976,2.292,3.292-2.8L977.2,216.8,973.22,214.5l-3.291,2.8Zm-8.777,26.584-3.291,2.8.685,5.094,3.976,2.292,3.292-2.8-.685-5.094Zm12.57-38.077,3.977,2.292,3.292-2.8-.685-5.094-3.977-2.291-3.292,2.8ZM967,247.678l3.292-2.8-.685-5.094-3.977-2.291-3.292,2.8.685,5.094Zm3.794-11.493,3.291-2.8-.685-5.094L969.427,226l-3.292,2.8.685,5.093Zm9.894-1.3,3.292-2.8-.685-5.094-3.977-2.291-3.291,2.8.685,5.094Zm-4.981,15.091-3.977-2.292-3.292,2.8.685,5.093,3.977,2.292,3.292-2.8Zm8.776-26.584,3.292-2.8-.685-5.094-3.977-2.292-3.292,2.8.685,5.093ZM976.9,246.381l3.292-2.8-.685-5.094-3.976-2.292-3.292,2.8.685,5.094ZM990.886,204l-3.976-2.292-3.292,2.8.685,5.094,3.976,2.292,3.292-2.8Zm-13.3,54.054-3.291,2.8.685,5.094,3.976,2.292,3.292-2.8-.685-5.094Zm8.96-12.8,3.291-2.8-.685-5.094-3.976-2.292-3.292,2.8.685,5.094Zm10.195-30.883-3.977-2.292-3.292,2.8.685,5.094,3.977,2.291,3.292-2.8Zm-13.989,42.376,3.292-2.8-.685-5.094-3.977-2.292-3.292,2.8.685,5.094Zm10.194-30.883-3.977-2.291-3.291,2.8.685,5.094,3.976,2.292,3.292-2.8Zm-2,32.888-3.977-2.291-3.292,2.8.685,5.094,3.977,2.292,3.292-2.8Zm1.188-3.6,3.291-2.8-.685-5.094-3.976-2.292-3.292,2.8.685,5.094Zm6.4-19.389-3.977-2.292-3.291,2.8.685,5.094,3.976,2.292,3.292-2.8Zm3.794-11.494-3.977-2.291-3.292,2.8.685,5.094,3.977,2.292,3.292-2.8Zm3.793-11.493-3.976-2.292-3.292,2.8.685,5.094,3.976,2.291,3.292-2.8Zm-13.3,54.054-3.292,2.8.685,5.094,3.976,2.292,3.292-2.8-.685-5.094Zm3.793-11.493-3.292,2.8.685,5.094,3.977,2.292,3.292-2.8-.685-5.093Zm3.795-11.494-3.292,2.8.685,5.094,3.977,2.291,3.291-2.8-.685-5.094Zm3.793-11.493-3.291,2.8.685,5.094,3.976,2.292,3.292-2.8-.685-5.094ZM1008,220.867l-3.292,2.8.685,5.094,3.977,2.292,3.292-2.8-.685-5.093Zm11.423,8.982,3.292-2.8-.685-5.093-3.976-2.292-3.292,2.8.685,5.094Zm-3.793,11.493,3.292-2.8-.685-5.094-3.977-2.292-3.292,2.8.685,5.094Zm-3.795,11.493,3.292-2.8-.685-5.094-3.977-2.291-3.291,2.8.684,5.094Zm-3.795,11.494,3.292-2.8-.685-5.093-3.976-2.292-3.292,2.8.685,5.094Zm-1.187,3.6-3.977-2.292-3.292,2.8.685,5.094,3.977,2.292,3.292-2.8Zm6.858-7.009,3.977,2.292,3.291-2.8-.685-5.094-3.976-2.292-3.292,2.8Zm7.588-22.987,3.977,2.292,3.292-2.8-.685-5.094-3.977-2.292-3.292,2.8Zm-3.793,11.494,3.976,2.291,3.292-2.8-.685-5.094-3.977-2.291-3.291,2.8Zm-7.589,22.986,3.977,2.292,3.292-2.8-.685-5.094-3.977-2.292-3.292,2.8Zm-1.188,3.6-3.291,2.8.685,5.094,3.976,2.291,3.292-2.8-.685-5.094Zm14.94-2.673,3.291-2.8-.685-5.094-3.976-2.292-3.292,2.8.685,5.094Zm7.405-36.772,3.977,2.292,3.291-2.8-.685-5.094-3.976-2.292-3.292,2.8Zm-8.593,40.369-3.977-2.291-3.292,2.8.685,5.094,3.977,2.291,3.292-2.8Zm4.8-28.875,3.977,2.291,3.292-2.8-.685-5.094-3.977-2.291-3.292,2.8Zm-3.793,11.493,3.976,2.292,3.292-2.8-.685-5.094-3.976-2.292-3.292,2.8Zm9.83,12.664,3.291-2.8-.684-5.094-3.977-2.292-3.292,2.8.686,5.093Zm10.195-30.883-3.978-2.291-3.292,2.8.685,5.094,3.977,2.292,3.292-2.8Zm-3.795,11.494-3.976-2.292-3.292,2.8.685,5.094,3.976,2.292,3.292-2.8Zm-10.195,30.882,3.292-2.8-.686-5.094-3.977-2.291-3.292,2.8.685,5.094Zm-5.164,1.306-3.292,2.8.685,5.094,3.976,2.292,3.292-2.8-.685-5.094Zm21.458-21.993-3.976-2.291-3.292,2.8.685,5.094,3.976,2.291,3.292-2.8Zm3.795-11.493-3.978-2.292-3.292,2.8.685,5.093,3.977,2.292,3.292-2.8Zm3.794-11.493-3.977-2.292-3.292,2.8.685,5.094,3.978,2.292,3.291-2.8Zm-13.989,42.376,3.291-2.8-.684-5.094-3.977-2.292-3.292,2.8.685,5.094Zm-1.188,3.6-3.978-2.292-3.292,2.8.685,5.093,3.977,2.292,3.292-2.8Zm13.259-26.4-3.292,2.8.685,5.094,3.976,2.292,3.292-2.8-.686-5.094Zm-3.795,11.493-3.292,2.8.685,5.094,3.977,2.292,3.291-2.8-.684-5.094Zm7.588-22.987-3.292,2.8.685,5.094,3.977,2.291,3.292-2.8-.686-5.094Zm-11.382,34.48-3.291,2.8.684,5.094,3.977,2.291,3.292-2.8-.685-5.094Zm-3.793,11.494-3.292,2.8.685,5.094,3.976,2.292,3.292-2.8-.685-5.094Z" transform="translate(-889.658 -98.759)" opacity="0.3" fill="url(#linear-gradient-5)"/>
        <path id="Trazado_127050" data-name="Trazado 127050" d="M948.573,160.45l-3.291,2.8.685,5.094,3.976,2.291,3.292-2.8-.685-5.094Zm14.812-2.425,3.292-2.8-.685-5.094-3.977-2.292-3.292,2.8.685,5.094Zm-1.188,3.6-3.976-2.292-3.292,2.8.685,5.094,3.976,2.291,3.292-2.8Zm10.963-4.964,3.291-2.8-.684-5.094-3.977-2.292-3.292,2.8.685,5.094ZM970,179.88l-3.292,2.8.685,5.094,3.976,2.291,3.292-2.8-.685-5.094Zm18.912-14.147,3.291-2.8-.684-5.094-3.977-2.292-3.292,2.8.685,5.094Zm1.875,8.08,3.977,2.292,3.292-2.8-.685-5.094-3.977-2.292-3.291,2.8Zm2.789,5.889-3.976-2.291-3.292,2.8.685,5.094,3.976,2.291,3.292-2.8Zm-.992,15.506,3.976,2.292,3.292-2.8-.685-5.094-3.976-2.292-3.292,2.8Zm-47.83-23.177-3.292,2.8.685,5.094,3.976,2.291,3.292-2.8-.685-5.094Zm-3.795,11.493-3.292,2.8.685,5.094,3.977,2.292,3.292-2.8-.685-5.094Zm-3.794,11.493-3.291,2.8.685,5.094,3.976,2.292,3.292-2.8-.685-5.094Zm15.629,9.007-3.292,2.8.685,5.094,3.976,2.291,3.292-2.8-.685-5.094ZM970.209,193.7l-3.977-2.292-3.292,2.8.685,5.094L967.6,201.6l3.292-2.8Zm-1.67,19.4-3.292,2.8.685,5.094,3.976,2.291,3.292-2.8-.685-5.094Zm15.238,8.782-3.292,2.8.685,5.094,3.976,2.292,3.292-2.8-.685-5.093Zm3.793-11.494-3.292,2.8.685,5.094,3.977,2.291,3.292-2.8-.685-5.094Zm3.794-11.493-3.292,2.8.685,5.094,3.977,2.292,3.291-2.8-.684-5.094Z" transform="translate(-878.884 -87.132)" fill="url(#linear-gradient-6)"/>
      </g>
      <g id="Grupo_85788" data-name="Grupo 85788" transform="translate(834.628 122.021)">
        <path id="Trazado_127051" data-name="Trazado 127051" d="M958.762,286.07,837.586,216.053c-6.195-3.577-11.217-13.173-11.217-21.432V127.146c0-8.261,5.022-12.058,11.217-8.481l121.176,70.017c6.195,3.577,11.217,13.173,11.217,21.434v67.474C969.979,285.85,964.957,289.647,958.762,286.07Z" transform="translate(-826.369 -115.631)" fill="url(#linear-gradient-7)"/>
        <path id="Trazado_127052" data-name="Trazado 127052" d="M961.112,187.325,839.936,117.308c-2.451-1.414-4.719-1.675-6.564-.963-.235.091-3.362,1.752-3.583,1.874l-.016.01c1.917-.932,4.342-.759,6.983.767l121.176,70.018c6.195,3.576,11.217,13.172,11.217,21.432v67.474c0,5.154-1.956,8.57-4.933,9.542a1.878,1.878,0,0,0,.983-.335c.142-.082,3.536-2,3.671-2.092,2.132-1.492,3.457-4.559,3.457-8.8V208.759C972.328,200.5,967.306,190.9,961.112,187.325Z" transform="translate(-825.54 -115.962)" fill="#583ae2"/>
        <path id="Trazado_127053" data-name="Trazado 127053" d="M949.2,223.718,855.032,169.24V143.8L949.2,198.277Z" transform="translate(-819.384 -109.179)" fill="url(#linear-gradient-8)"/>
        <path id="Trazado_127054" data-name="Trazado 127054" d="M857.417,168.346v-23.17l-2.384-1.376V169.24L949.2,223.718v-2.271Z" transform="translate(-819.384 -109.179)" fill="#583ae2"/>
        <path id="Trazado_127055" data-name="Trazado 127055" d="M949.2,254.872l-94.172-54.478V174.953L949.2,229.431Z" transform="translate(-819.384 -101.587)" fill="url(#linear-gradient-8)"/>
        <path id="Trazado_127056" data-name="Trazado 127056" d="M857.417,199.5V176.33l-2.384-1.376v25.441L949.2,254.872V252.6Z" transform="translate(-819.384 -101.587)" fill="#583ae2"/>
        <path id="Trazado_127057" data-name="Trazado 127057" d="M958.321,188.465,837.145,118.447c-2.54-1.468-4.875-1.676-6.756-.863a8.275,8.275,0,0,1,5.41,1.267l121.175,70.017c6.2,3.577,11.218,13.172,11.218,21.432v67.474c0,4.873-1.756,8.175-4.461,9.344,3.461-.55,5.807-4.1,5.807-9.748V209.9C969.538,201.638,964.516,192.042,958.321,188.465Z" transform="translate(-825.389 -115.682)" fill="#d5cef8"/>
        <g id="Grupo_85787" data-name="Grupo 85787" transform="translate(10.41 66.349)">
          <g id="Grupo_85786" data-name="Grupo 85786">
            <path id="Trazado_127058" data-name="Trazado 127058" d="M836.861,183.177l4.784-3.04-6.906-5.7L836,170.767l6.455,7.249-.9-8.706,4.063,2.346-.9,7.664,6.456.2,1.264,5.133-6.906-2.278,4.784,8.565-3.25.868-3.476-9-3.476,4.986Z" transform="translate(-834.739 -169.311)" fill="#2ff980"/>
          </g>
        </g>
        <path id="Trazado_127059" data-name="Trazado 127059" d="M848.388,156.293a12.655,12.655,0,0,1-2.6-3.113c-.429-.72-.414-1.5,0-1.745a3.328,3.328,0,0,0,1.328-1.48c.455.126,1.021-.042,1.021-.668a2.473,2.473,0,0,0-.659-1.683,8.271,8.271,0,0,0-4.181-7.344c-3.139-1.812-4.071-.085-4.183,2.516-.376-.085-.658.285-.658.923a3.022,3.022,0,0,0,1.021,1.846,14.887,14.887,0,0,0,1.327,3.013c.419.726.434,1.525,0,1.747a3.429,3.429,0,0,1-2.6.112c-1.317-.4-2.3.4-2.3,2.019v2.813a1.89,1.89,0,0,0,.861,1.484l13.049,7.534c.475.275.861.055.861-.49v-2.813A6.7,6.7,0,0,0,848.388,156.293Z" transform="translate(-824.043 -110.223)" fill="#2ff980"/>
      </g>
      <g id="Grupo_85795" data-name="Grupo 85795" transform="translate(937.835 143.177)">
        <path id="Trazado_127060" data-name="Trazado 127060" d="M972.529,185.6l-63.091-23.529v46.793c-.205,1.519.6,3,2.462,4.076l42.664,24.708c3.7,2.133,10.151,1.866,14.418-.6h0c2.257-1.3,3.45-2.96,3.526-4.547l.021.007Z" transform="translate(-909.34 -125.881)" fill="url(#linear-gradient-10)"/>
        <path id="Trazado_127061" data-name="Trazado 127061" d="M954.565,191.913,911.9,167.2c-3.7-2.134-3.232-5.862,1.035-8.325h0c4.267-2.464,10.723-2.731,14.419-.6l42.664,24.708c3.695,2.133,3.232,5.86-1.036,8.324h0C964.715,193.778,958.259,194.046,954.565,191.913Z" transform="translate(-909.341 -127.156)" fill="url(#linear-gradient-11)"/>
        <path id="Trazado_127062" data-name="Trazado 127062" d="M969.2,189.768h0c-4.268,2.464-10.723,2.731-14.419.6l-42.663-24.708c-1.883-1.087-2.684-2.587-2.455-4.123-.78,1.848-.081,3.756,2.186,5.064l42.664,24.708c3.7,2.134,10.151,1.867,14.418-.6h0c2.094-1.209,3.27-2.722,3.49-4.2A7.293,7.293,0,0,1,969.2,189.768Z" transform="translate(-909.353 -126.012)" fill="#a9ffcc"/>
        <g id="Grupo_85791" data-name="Grupo 85791" transform="translate(9.052 0.067)" opacity="0.3">
          <path id="Trazado_127063" data-name="Trazado 127063" d="M943.426,135.439h0a17.873,17.873,0,0,0-26.794,15.488v23.62h0c0,.015,0,.027,0,.042,0,1.887,2.627,3.416,5.867,3.416s5.866-1.53,5.866-3.416c0-.024,0-.045,0-.067h.062V153.427a7.574,7.574,0,0,1,11.347-6.567h0a18.887,18.887,0,0,1,9.477,16.376V193.32h.063c.063,1.854,2.66,3.348,5.86,3.348,3.221,0,5.833-1.512,5.864-3.383h0V165.908A35.163,35.163,0,0,0,943.426,135.439Z" transform="translate(-916.632 -133.026)" fill="url(#linear-gradient-12)"/>
          <path id="Trazado_127064" data-name="Trazado 127064" d="M920.03,175.8h0v-22.41a16.708,16.708,0,0,1,16.689-16.689,16.428,16.428,0,0,1,8.291,2.251,33.708,33.708,0,0,1,4.728,3.295,33.751,33.751,0,0,0-7.15-5.513,16.408,16.408,0,0,0-8.29-2.251,16.707,16.707,0,0,0-16.689,16.688v22.411h0v1.21c0,.027,0,.053,0,.081.034.71.98,1.469,2.424,1.873Z" transform="translate(-916.395 -132.67)" fill="url(#radial-gradient)" style="mix-blend-mode: color-dodge;isolation: isolate"/>
          <path id="Trazado_127065" data-name="Trazado 127065" d="M947.334,191.9h-.022V163.033a20.157,20.157,0,0,0-7.838-15.923,20.139,20.139,0,0,1,5.416,13.7v28.865h.022l.041,1.177c.024.705.971,1.468,2.409,1.877Z" transform="translate(-911.066 -129.594)" fill="url(#radial-gradient-2)" style="mix-blend-mode: color-dodge;isolation: isolate"/>
          <g id="Grupo_85789" data-name="Grupo 85789" transform="translate(4.87 3.128)">
            <path id="Trazado_127066" data-name="Trazado 127066" d="M930.21,139.662a9.613,9.613,0,0,0-9.6,9.6v24.482l-.06,2.1c-.045.177,3.283-.093,3.362-.4l.061-2.1V148.86a9.617,9.617,0,0,1,6.787-9.18C930.576,139.669,930.393,139.662,930.21,139.662Z" transform="translate(-920.548 -134.537)" fill="url(#linear-gradient-13)"/>
            <path id="Trazado_127067" data-name="Trazado 127067" d="M938.777,137.684a15.634,15.634,0,0,0-7.888-2.143,15.269,15.269,0,0,0-3.452.405h.089a15.618,15.618,0,0,1,7.888,2.143,33.233,33.233,0,0,1,16.6,28.721v28.8l0,.157c0,.162,3.358-.127,3.363-.4l0-.158v-28.8A33.235,33.235,0,0,0,938.777,137.684Z" transform="translate(-918.869 -135.541)" fill="url(#linear-gradient-14)"/>
          </g>
          <path id="Trazado_127068" data-name="Trazado 127068" d="M923.679,151.908v22.609c1.327-.414,2.19-1.131,2.229-1.8l0-.017.06-1.3v-19.89a8.809,8.809,0,0,1,6.133-8.382A8.8,8.8,0,0,0,923.679,151.908Z" transform="translate(-914.915 -130.566)" opacity="0.5" fill="url(#linear-gradient-15)" style="mix-blend-mode: screen;isolation: isolate"/>
          <g id="Grupo_85790" data-name="Grupo 85790" transform="translate(23.144 2.516)" opacity="0.5" style="mix-blend-mode: screen;isolation: isolate">
            <path id="Trazado_127069" data-name="Trazado 127069" d="M939.043,136.665a16.893,16.893,0,0,0-3.8-1.616,37.25,37.25,0,0,1,18.082,31.878v28.345c1.6-.387,2.668-1.2,2.68-1.958l0-.154V166.013A33.96,33.96,0,0,0,939.043,136.665Z" transform="translate(-935.241 -135.049)" fill="url(#linear-gradient-16)"/>
          </g>
        </g>
        <ellipse id="Elipse_5443" data-name="Elipse 5443" cx="6.825" cy="3.974" rx="6.825" ry="3.974" transform="translate(9.052 33.351)" fill="#e6e7e8" style="mix-blend-mode: multiply;isolation: isolate"/>
        <path id="Trazado_127070" data-name="Trazado 127070" d="M956.162,178.747c0,2.132-2.969,3.86-6.63,3.86s-6.63-1.729-6.63-3.86,2.969-3.862,6.63-3.862S956.162,176.614,956.162,178.747Z" transform="translate(-901.178 -122.759)" fill="#e6e7e8" style="mix-blend-mode: multiply;isolation: isolate"/>
        <g id="Grupo_85794" data-name="Grupo 85794" transform="translate(9.052 0)">
          <path id="Trazado_127071" data-name="Trazado 127071" d="M943.426,135.385h0a17.873,17.873,0,0,0-26.794,15.488v19.384h0c0,.014,0,.027,0,.041,0,1.887,2.627,3.416,5.867,3.416s5.866-1.53,5.866-3.416c0-.022,0-.045,0-.067h.062V153.373a7.574,7.574,0,0,1,11.347-6.567h0a18.887,18.887,0,0,1,9.477,16.376v25.846h.063c.063,1.856,2.66,3.348,5.86,3.348,3.221,0,5.833-1.512,5.864-3.383h0v-23.14A35.163,35.163,0,0,0,943.426,135.385Z" transform="translate(-916.632 -132.972)" fill="url(#linear-gradient-17)"/>
          <path id="Trazado_127072" data-name="Trazado 127072" d="M920.03,171.514h0V153.341a16.708,16.708,0,0,1,16.689-16.689,16.428,16.428,0,0,1,8.291,2.251,33.711,33.711,0,0,1,4.728,3.295,33.751,33.751,0,0,0-7.15-5.513,16.408,16.408,0,0,0-8.29-2.251,16.707,16.707,0,0,0-16.689,16.688v18.174h0v1.21c0,.027,0,.055,0,.081.034.71.98,1.469,2.424,1.873Z" transform="translate(-916.395 -132.616)" fill="url(#radial-gradient-3)" style="mix-blend-mode: color-dodge;isolation: isolate"/>
          <path id="Trazado_127073" data-name="Trazado 127073" d="M947.334,187.608h-.022V162.979a20.155,20.155,0,0,0-7.838-15.923,20.139,20.139,0,0,1,5.416,13.7v24.629h.022l.041,1.177c.024.705.971,1.468,2.409,1.878Z" transform="translate(-911.066 -129.54)" fill="url(#radial-gradient-4)" style="mix-blend-mode: color-dodge;isolation: isolate"/>
          <g id="Grupo_85792" data-name="Grupo 85792" transform="translate(4.87 3.128)">
            <path id="Trazado_127074" data-name="Trazado 127074" d="M930.21,139.608a9.613,9.613,0,0,0-9.6,9.6v20.245l-.06,2.1c-.045.177,3.283-.093,3.362-.4l.061-2.1V148.806a9.617,9.617,0,0,1,6.787-9.18C930.576,139.615,930.393,139.608,930.21,139.608Z" transform="translate(-920.548 -134.483)" fill="url(#linear-gradient-18)"/>
            <path id="Trazado_127075" data-name="Trazado 127075" d="M938.777,137.63a15.635,15.635,0,0,0-7.888-2.143,15.27,15.27,0,0,0-3.452.405h.089a15.618,15.618,0,0,1,7.888,2.143,33.233,33.233,0,0,1,16.6,28.72v24.563l0,.157c0,.162,3.358-.127,3.363-.4l0-.158V166.352A33.235,33.235,0,0,0,938.777,137.63Z" transform="translate(-918.869 -135.487)" fill="url(#linear-gradient-19)"/>
          </g>
          <path id="Trazado_127076" data-name="Trazado 127076" d="M923.679,151.854v18.372c1.327-.414,2.19-1.131,2.229-1.8l0-.017.06-1.3V151.451a8.809,8.809,0,0,1,6.133-8.382A8.8,8.8,0,0,0,923.679,151.854Z" transform="translate(-914.915 -130.512)" opacity="0.5" fill="url(#linear-gradient-20)" style="mix-blend-mode: screen;isolation: isolate"/>
          <g id="Grupo_85793" data-name="Grupo 85793" transform="translate(23.144 2.516)" opacity="0.5" style="mix-blend-mode: screen;isolation: isolate">
            <path id="Trazado_127077" data-name="Trazado 127077" d="M939.043,136.609a16.947,16.947,0,0,0-3.8-1.614,37.249,37.249,0,0,1,18.082,31.878v24.108c1.6-.386,2.668-1.2,2.68-1.958l0-.154v-22.91A33.964,33.964,0,0,0,939.043,136.609Z" transform="translate(-935.241 -134.995)" fill="url(#linear-gradient-21)"/>
          </g>
          <path id="Trazado_127078" data-name="Trazado 127078" d="M936.534,136.679a18.559,18.559,0,0,1,8.723,2.189,32.885,32.885,0,0,0-3.234-2.13,15.619,15.619,0,0,0-7.887-2.143,15.918,15.918,0,0,0-15.882,15.882v.044A19.179,19.179,0,0,1,936.534,136.679Z" transform="translate(-916.237 -132.577)" fill="url(#linear-gradient-22)" style="mix-blend-mode: screen;isolation: isolate"/>
          <path id="Trazado_127079" data-name="Trazado 127079" d="M948.4,161.939a20.6,20.6,0,0,0-5.513-17.012c-5.109-5.393-11.266-6.792-14.505-1.618a9.525,9.525,0,0,1,9.529.017A20.959,20.959,0,0,1,948.4,161.451Z" transform="translate(-913.769 -131.241)" fill="url(#linear-gradient-23)" style="mix-blend-mode: screen;isolation: isolate"/>
        </g>
        <path id="Trazado_127080" data-name="Trazado 127080" d="M932.681,199.147v9.3l-4.179-2.413v-9.3a10.8,10.8,0,0,1-2.821-6.722c0-3.113,2.2-4.365,4.91-2.8a10.818,10.818,0,0,1,4.91,8.47C935.5,197.935,934.346,199.206,932.681,199.147Z" transform="translate(-905.375 -119.919)" fill="#08b24d" style="mix-blend-mode: multiply;isolation: isolate"/>
      </g>
    </g>
  </g>
</svg>
