<svg xmlns="http://www.w3.org/2000/svg" width="206" height="207" viewBox="0 0 206 207">
  <g id="Grupo_86375" data-name="Grupo 86375" transform="translate(-0.385 0.282)">
    <g id="Grupo_86373" data-name="Grupo 86373" transform="translate(13.605 13.625)">
      <path id="Trazado_129590" data-name="Trazado 129590" d="M1035.939-257.925l8.568.043a29.933,29.933,0,0,0-2.646,11.345c0,2.411,1.095,3.533,3.525,3.55,3.547.024,7.094.016,10.641,0,2.609-.01,3.56-.914,3.766-3.523a8.989,8.989,0,0,1,9.215-8.416,8.977,8.977,0,0,1,8.685,8.955c.04,2.363-.105,4.736.047,7.09.1,1.595-.415,1.914-1.939,1.905-12.01-.067-24.021-.041-36.032-.035-2.914,0-3.886.99-3.889,3.937q-.01,9.332,0,18.665v7.195c-.286.029-.423.087-.519.046-.628-.267-1.242-.567-1.869-.836-15.806-6.753-31.385-6.608-46.671,1.594-3.818,2.048-3.723,2.068-1.413,5.662.821,1.276,1.33,1.362,2.672.578,15.447-9.025,31.034-8.746,46.674-.465.518.275,1.155.439,1.137,1.285-.043,2.074-.014,4.15-.014,6.456-.986-.643-1.7-1.116-2.422-1.578-17.464-11.16-40.718-7.269-52.71,8.819-2.494,3.346-2.46,3.3.89,5.718,1.178.851,1.776.915,2.707-.415,8.437-12.063,21.939-17.065,36.165-13.313,8.579,2.262,15.429,7,19.864,14.872-1.33,1.505-2.53,3.149-4.368,4.114-.135-.209-.277-.413-.4-.626-6-10.064-15.034-14.466-26.492-13.434-10.94.986-18.482,6.977-22.558,17.193a15.35,15.35,0,0,1-3.93,5.576,2.192,2.192,0,0,1-1.645.644q-18.845-.05-37.689-.07,0-2.926,0-5.852c2.976-.152,2.976-.152,2.976-3.261q0-35.156,0-70.312c0-6.571,3.552-10.112,10.141-10.112q38.15,0,76.3,0C1035.787-254.928,1035.787-254.928,1035.939-257.925Zm-43.38,20.917H959.352c-4.141,0-4.056,0-4.174,4.106-.046,1.588.418,1.905,1.941,1.9q34.233-.08,68.466-.037c4.347,0,4.276,0,4.358-4.293.027-1.431-.388-1.718-1.752-1.712C1016.315-236.984,1004.437-237.008,992.56-237.008Zm41.551,19.042c-.273-.723-.887-.949-1.4-1.25-11.786-6.946-23.81-7.4-36.014-1.18-3.83,1.953-3.744,2.008-1.3,5.614.764,1.125,1.24,1.349,2.553.578,10.366-6.093,20.846-6.114,31.238-.085,1.462.848,2.072.7,2.826-.649A36.713,36.713,0,0,1,1034.111-217.966Zm-49.017-27.879c0-3.11,0-3.11-3.049-3.11-2.924,0-2.924,0-2.924,2.863,0,3.109,0,3.109,3.049,3.109C985.094-242.982,985.094-242.982,985.094-245.844Zm-11.95,0c0-3.11,0-3.11-3.049-3.11-2.924,0-2.924,0-2.924,2.863,0,3.109,0,3.109,3.049,3.109C973.144-242.982,973.144-242.982,973.144-245.844ZM958.1-242.982c3.1,0,3.1,0,3.1-3.061,0-2.911,0-2.911-2.877-2.911-3.1,0-3.1,0-3.1,3.062C955.22-242.982,955.22-242.982,958.1-242.982Z" transform="translate(-922.349 272.863)" fill="#7ccedb"/>
      <path id="Trazado_129591" data-name="Trazado 129591" d="M1052.39-183.816c-4.436-7.875-11.285-12.61-19.864-14.872-14.226-3.752-27.728,1.25-36.166,13.313-.931,1.33-1.528,1.266-2.707.415-3.349-2.419-3.384-2.372-.889-5.718,11.992-16.088,35.246-19.979,52.71-8.819.722.462,1.436.935,2.422,1.578,0-2.306-.029-4.382.014-6.456.018-.846-.619-1.011-1.137-1.285-15.64-8.281-31.227-8.56-46.674.465-1.342.784-1.852.7-2.672-.578-2.31-3.594-2.4-3.613,1.413-5.662,15.285-8.2,30.865-8.347,46.671-1.594.627.269,1.241.569,1.869.836.1.041.233-.016.519-.046v-7.195q0-9.333,0-18.665c0-2.948.976-3.936,3.89-3.937,12.01-.006,24.021-.032,36.031.035,1.524.009,2.043-.31,1.939-1.905-.153-2.354-.008-4.727-.047-7.09a8.977,8.977,0,0,0-8.685-8.955,8.989,8.989,0,0,0-9.215,8.416c-.206,2.609-1.156,3.513-3.766,3.523-3.547.013-7.094.021-10.641,0-2.431-.017-3.523-1.139-3.525-3.55a29.935,29.935,0,0,1,2.646-11.345c3.6-6.487,8.677-11.242,15.824-13.612a26.9,26.9,0,0,1,35.286,25.025c.037,2.673.059,5.349-.013,8.021-.029,1.084.165,1.484,1.39,1.476,3.964-.025,4.609.7,4.609,4.671q0,20.987,0,41.973c0,3.168-.928,4.079-4.109,4.1-1.616.008-3.231.041-4.846.063l-11.966,0q-18.727-.021-37.455-.032c-.082,0-.165.141-.235.205.005.083-.011.152.016.194.128.211.26.42.4.62a37.425,37.425,0,0,1,6.65,29.8c-.514,2.755-.512,2.755-3.173,2.018-.6-.165-1.191-.358-1.8-.471-1.115-.206-1.4-.619-1.116-1.873A30.3,30.3,0,0,0,1052.39-183.816ZM1105.4-197.3c1.666.364,2.319-.054,2.3-2q-.157-17.349,0-34.7c.018-1.943-.631-2.366-2.3-2-.373-.02-.744-.057-1.116-.057q-24.08.025-48.159.056c-1.662-.358-2.319.054-2.3,2q.158,17.348,0,34.7c-.017,1.941.626,2.37,2.3,2,2.986.02,5.971.061,8.957.058Q1085.238-197.261,1105.4-197.3Zm-3.724-50.436h-.017c0-1.306.031-2.613-.005-3.919-.285-10.268-7.8-18.5-18.34-20.095-9.35-1.419-19.1,4.619-22.287,13.806-1.376,3.961-1.376,3.961,2.711,3.961a1.031,1.031,0,0,1,.186,0c1.585.293,2.269-.282,2.8-1.929a14.787,14.787,0,0,1,15.188-9.983,14.951,14.951,0,0,1,13.508,12.191,38.559,38.559,0,0,1,.267,7.07c.04,4.923.01,4.9,4.955,4.619.805-.046,1.082-.238,1.051-1.059C1101.631-244.625,1101.673-246.182,1101.673-247.737Z" transform="translate(-934.369 277.893)" fill="#010202"/>
      <path id="Trazado_129592" data-name="Trazado 129592" d="M1085.6-154.193c2.978.147,2.978.147,2.978,3.233q0,28.828-.037,57.655c0,1.508.282,2,1.884,1.935,3.2-.137,4.121.874,4.127,4.027,0,2.55.021,5.1,0,7.65a11.914,11.914,0,0,1-12.159,12.162c-12.877.037-25.755.01-38.632.01H928.61c-8.457,0-13.295-4.831-13.3-13.273,0-2.3-.011-4.6,0-6.9.016-2.672,1.057-3.835,3.728-3.667,1.883.118,2.424-.413,2.29-2.294-.185-2.6.058-5.226-.085-7.831-.086-1.554.342-2.164,1.9-1.883a5,5,0,0,0,1.113-.046,4.118,4.118,0,0,0,.925.048c1.7-.29,2.2.386,2.113,2.087-.148,2.845.007,5.7-.064,8.555-.028,1.083.334,1.37,1.372,1.335,2.539-.083,5.083-.061,7.625-.08l36.58-.007c1.863.022,3.729.129,5.588.051a14.159,14.159,0,0,1,11,4.1,6.773,6.773,0,0,0,4.917,1.885q10.629-.006,21.258,0a6.309,6.309,0,0,0,4.62-1.671c3.411-3.42,7.529-4.388,12.231-4.35,13.734.113,27.47.006,41.2-.014,2.361.02,4.729-.061,7.081.1,1.575.105,1.931-.394,1.927-1.935q-.085-28.809-.037-57.616C1082.605-154.045,1082.605-154.045,1085.6-154.193Zm-5.988,68.813c-.5-.02-.993-.058-1.489-.058-15.741,0-31.483.017-47.223-.024a8.492,8.492,0,0,0-6.238,2.393,12.948,12.948,0,0,1-9.317,3.6q-10.452-.015-20.9,0a12.774,12.774,0,0,1-9.154-3.537,8.927,8.927,0,0,0-6.591-2.463c-17.607.05-35.215.02-52.822.037-1.475,0-3.4-.632-4.306.263s-.26,2.826-.269,4.3c-.032,5.22,2.125,7.373,7.315,7.373q73.542,0,147.083,0c.683,0,1.366-.042,2.049-.064,1.67.02,3.343.1,5.01.048a5.95,5.95,0,0,0,5.809-5.833c.057-1.608-.031-3.221.031-4.828.034-.9-.132-1.331-1.186-1.292C1084.815-85.371,1082.214-85.4,1079.615-85.38Z" transform="translate(-915.303 246.735)" fill="#000001"/>
      <path id="Trazado_129593" data-name="Trazado 129593" d="M936.234-142.144q18.846.03,37.69.07a2.192,2.192,0,0,0,1.645-.644,15.351,15.351,0,0,0,3.93-5.576c4.077-10.216,11.618-16.206,22.558-17.193,11.458-1.032,20.495,3.37,26.492,13.434.127.213.269.417.4.626a25.8,25.8,0,0,1,1.609,19.74,62.944,62.944,0,0,1-10.84,20.262c-3.783,4.73-8.285,8.769-12.509,13.075-3.265,3.327-3.259,3.275-6.519-.1-.763-.791-.681-1.2.049-1.915,3.2-3.132,6.341-6.331,9.521-9.485a58.853,58.853,0,0,0,13.455-20.389c2.073-5.247,3.008-10.5.888-15.952-5.121-14.489-22.764-16.756-32.478-9.512-4.626,3.451-6.781,8.378-8.789,13.622,1.641,0,3.247-.082,4.84.027a1.932,1.932,0,0,0,2.276-1.512c2.76-7.2,7.862-10.392,15.82-10.073,6.307.252,11.189,4.36,13.29,11.181a14.392,14.392,0,0,1-.446,7.353,49.458,49.458,0,0,1-11.26,19.087c-4.343,4.531-8.835,8.921-13.26,13.375-3.03,3.049-2.973,2.992-6.133-.02-1.072-1.022-.884-1.517.069-2.407,2.374-2.215,4.644-4.54,7.284-7.145a36.377,36.377,0,0,1-5-.039c-2.887-.444-4.863.76-6.392,3.035-1.145,1.49-2.291,1.522-3.441.006-1.5-2.362-3.524-3.132-6.426-3.084-12.774.212-25.553.127-38.331.15l-11.965,0c-1.859-.022-3.718-.028-5.576-.07-2.2-.049-3.362-1.14-3.369-3.306q-.04-11.624,0-23.249c.007-2.173,1.16-3.258,3.366-3.305,1.858-.04,3.718-.043,5.577-.063Zm75.8,8.65a12.319,12.319,0,0,0,1.438-3.589,8.161,8.161,0,0,0-5.367-10.213c-5.118-1.616-10.056.533-11.664,5.208a47.416,47.416,0,0,1,9.958.717c1.59.295,2.02.879,1.413,2.345-.8,1.941-1.557,3.9-2.332,5.857-1.234,3.66-.19,7.373-.392,11.083A35.287,35.287,0,0,0,1012.036-133.493Zm-90.687.374c-.021,4.351.034,8.7-.1,13.052-.049,1.571.392,1.917,1.932,1.914q36.943-.08,73.886-.037a5.637,5.637,0,0,1,.746,0c.884.118,1.175-.23,1.163-1.134-.06-4.6-.059-9.2-.079-13.8.155-2.989.155-2.989-2.763-2.989H924.112C921.193-136.109,921.193-136.108,921.349-133.119Z" transform="translate(-915.301 249.617)" fill="#010102"/>
      <path id="Trazado_129594" data-name="Trazado 129594" d="M1030.906-258.928c-.152,3-.152,3-3.241,3q-38.149,0-76.3,0c-6.589,0-10.141,3.541-10.141,10.112q0,35.157,0,70.312c0,3.109,0,3.109-2.976,3.261-3-.152-3-.152-3-3.262q0-21.164-.008-42.328c0-.474.243-1.115-.184-1.394-.553-.359-1.032.214-1.48.5a8.893,8.893,0,0,0-4.3,7.973V-178.5c0,3.114,0,3.114-3,3.263-2.978-.147-2.978-.147-2.978-3.233q0-15.857,0-31.716c0-7.667,3.679-12.886,10.907-15.275,1.081-.357,1.049-.937,1.047-1.757q-.018-9.608,0-19.216c.028-9.058,6.445-15.465,15.534-15.47q38.442-.021,76.884-.005C1030.756-261.9,1030.756-261.9,1030.906-258.928Z" transform="translate(-917.316 273.866)" fill="#000001"/>
      <path id="Trazado_129595" data-name="Trazado 129595" d="M1138.91-156.162c-3,.148-3,.148-3,3.263q0,28.807.037,57.616c0,1.541-.352,2.04-1.926,1.935-2.352-.157-4.72-.076-7.081-.1q0-2.926,0-5.852c3-.154,3-.154,3-3.265V-152.9c0-3.111,0-3.111-3-3.266q0-2.921,0-5.844l11.966,0Q1138.909-159.087,1138.91-156.162Z" transform="translate(-968.609 248.704)" fill="#4c8ed2"/>
      <path id="Trazado_129596" data-name="Trazado 129596" d="M927.281-160.9c3-.149,3-.149,3-3.263v-32.258a8.893,8.893,0,0,1,4.3-7.973c.449-.286.928-.86,1.48-.5.427.278.183.919.184,1.394q.015,21.164.008,42.328c0,3.11,0,3.11,3,3.262q0,2.926,0,5.852l-11.971,0Z" transform="translate(-918.319 259.535)" fill="#4c8ed2"/>
      <path id="Trazado_129597" data-name="Trazado 129597" d="M927.284-94.143l11.965,0q.013,1.463.026,2.927l-.024,2.917c-3,.154-3,.154-3,2.862,0,3.079,0,3.079,3,3.233q0,2.926,0,5.853c-2.542.019-5.086,0-7.625.08-1.038.034-1.4-.253-1.372-1.335.072-2.851-.084-5.71.064-8.555.089-1.7-.415-2.376-2.113-2.087a4.118,4.118,0,0,1-.925-.048Q927.282-91.219,927.284-94.143Z" transform="translate(-918.319 231.609)" fill="#4c8ed2"/>
      <path id="Trazado_129598" data-name="Trazado 129598" d="M1092.994-99.307q0,2.927,0,5.852c-13.735.02-27.471.127-41.2.014-4.7-.039-8.82.93-12.231,4.35a6.309,6.309,0,0,1-4.62,1.671q-10.629-.007-21.258,0a6.772,6.772,0,0,1-4.917-1.885,14.159,14.159,0,0,0-11-4.1c-1.858.079-3.725-.028-5.588-.051-.121-.958.589-1.444,1.151-2.006q5.725-5.732,11.448-11.468c.358-.36.964-.6.871-1.381h-1.856c1.529-2.275,3.5-3.479,6.392-3.035a36.376,36.376,0,0,0,5,.039c-2.639,2.6-4.91,4.929-7.284,7.145-.953.89-1.141,1.385-.069,2.407,3.16,3.012,3.1,3.07,6.133.02,4.424-4.454,8.917-8.844,13.26-13.375a49.459,49.459,0,0,0,11.26-19.087,14.394,14.394,0,0,0,.446-7.353c.865.123,1.311-.513,1.873-.99,1.065-.9,1.747-2.251,3.167-2.743,2.12,5.453,1.185,10.706-.888,15.952a58.849,58.849,0,0,1-13.455,20.389c-3.18,3.155-6.318,6.354-9.521,9.485-.73.714-.812,1.124-.049,1.915,3.26,3.376,3.254,3.428,6.519.1,4.224-4.305,8.727-8.345,12.509-13.075a62.945,62.945,0,0,0,10.839-20.262,25.8,25.8,0,0,0-1.609-19.74c1.838-.965,3.038-2.609,4.368-4.114a30.3,30.3,0,0,1,3.6,23.084c-.282,1.254,0,1.667,1.116,1.873.608.113,1.2.306,1.8.471,2.661.737,2.659.738,3.173-2.018a37.425,37.425,0,0,0-6.65-29.8c-.144-.2-.275-.409-.4-.62-.026-.043-.01-.111-.016-.195.07-.064.152-.2.235-.2q18.728.006,37.455.032,0,2.922,0,5.844c-2.979.156-2.979.156-2.979,3.264v50.34C1090.015-99.462,1090.015-99.462,1092.994-99.307Zm-48.822,1.355a13,13,0,0,1,.911-1.268,75.063,75.063,0,0,0,12.738-18.945c1.706-3.6,1.706-3.6-2.061-5.1a3.193,3.193,0,0,1-.513-.219c-1.05-.655-1.535-.276-2,.813a67.443,67.443,0,0,1-11.105,17.781c-2.4,2.79-2.384,2.8.286,5.348C1042.917-99.082,1043.42-98.638,1044.171-97.952Z" transform="translate(-934.66 248.714)" fill="#75c2d0"/>
      <path id="Trazado_129599" data-name="Trazado 129599" d="M996.564-229.976c11.877,0,23.755.024,35.632-.033,1.364-.006,1.779.281,1.752,1.712-.082,4.292-.011,4.293-4.359,4.293q-34.233,0-68.466.037c-1.523,0-1.988-.314-1.941-1.9.118-4.1.033-4.106,4.175-4.106Z" transform="translate(-926.353 265.832)"/>
      <path id="Trazado_129600" data-name="Trazado 129600" d="M1051.078-206.8a36.711,36.711,0,0,0-2.091,3.028c-.754,1.345-1.364,1.5-2.826.649-10.392-6.028-20.873-6.007-31.239.085-1.313.771-1.789.548-2.552-.578-2.448-3.606-2.533-3.661,1.3-5.614,12.2-6.224,24.228-5.767,36.014,1.18C1050.191-207.75,1050.8-207.523,1051.078-206.8Z" transform="translate(-939.316 261.698)" fill="#010202"/>
      <path id="Trazado_129601" data-name="Trazado 129601" d="M997.16-242.824c0,2.862,0,2.862-2.925,2.862-3.049,0-3.049,0-3.049-3.109,0-2.863,0-2.863,2.924-2.863C997.16-245.934,997.16-245.934,997.16-242.824Z" transform="translate(-934.415 269.843)"/>
      <path id="Trazado_129602" data-name="Trazado 129602" d="M981.187-242.824c0,2.862,0,2.862-2.924,2.862-3.049,0-3.049,0-3.049-3.109,0-2.863,0-2.863,2.924-2.863C981.187-245.934,981.187-245.934,981.187-242.824Z" transform="translate(-930.392 269.843)"/>
      <path id="Trazado_129603" data-name="Trazado 129603" d="M962.117-239.962c-2.877,0-2.877,0-2.877-2.91,0-3.062,0-3.062,3.1-3.062,2.877,0,2.877,0,2.877,2.911C965.214-239.962,965.214-239.962,962.117-239.962Z" transform="translate(-926.368 269.843)"/>
      <path id="Trazado_129604" data-name="Trazado 129604" d="M1077.271-183.237c-1.671.367-2.315-.061-2.3-2q.157-17.348,0-34.7c-.018-1.948.639-2.36,2.3-2,6.688,3.935,14.009,5.686,21.662,6.3-4.561,2.446-6.609,5.805-5.848,9.928a1.926,1.926,0,0,1-.773,2.174,14.5,14.5,0,0,0-5.32,11.051,2.973,2.973,0,0,0,3.16,3.331c1.053.047,2.11.046,3.165.067a6.3,6.3,0,0,1-.844.306A47.684,47.684,0,0,0,1077.271-183.237Z" transform="translate(-955.52 263.829)" fill="#f4b64f"/>
      <path id="Trazado_129605" data-name="Trazado 129605" d="M1136.62-221.94c1.667-.363,2.316.061,2.3,2q-.157,17.349,0,34.7c.018,1.946-.634,2.363-2.3,2-1.645-.842-3.264-1.739-4.94-2.515-3.652-1.691-7.615-2.344-11.478-3.331l3.165-.063c2.5-.049,3.658-1.222,3.52-3.714a14.912,14.912,0,0,0-5.285-10.71c-.434-.383-1.133-.573-.959-1.417,1.048-5.115-1.245-8.459-5.689-10.649,2.016-.254,4.045-.432,6.046-.777A44.022,44.022,0,0,0,1136.62-221.94Z" transform="translate(-965.59 263.829)" fill="#f4b64f"/>
      <path id="Trazado_129606" data-name="Trazado 129606" d="M1124.97-245.738c0,1.555-.042,3.112.017,4.665.031.821-.246,1.013-1.051,1.059-4.944.281-4.915.3-4.955-4.619a38.548,38.548,0,0,0-.267-7.07,14.951,14.951,0,0,0-13.508-12.191,14.787,14.787,0,0,0-15.187,9.983c-.532,1.647-1.216,2.221-2.8,1.929a1.035,1.035,0,0,0-.186,0c-4.087,0-4.087,0-2.711-3.961,3.191-9.187,12.937-15.225,22.287-13.806,10.539,1.6,18.055,9.827,18.34,20.094.037,1.305.005,2.612.005,3.919Z" transform="translate(-957.666 275.894)" fill="#dcdcda"/>
      <path id="Trazado_129607" data-name="Trazado 129607" d="M1127.325-221.919a44.021,44.021,0,0,1-15.622,5.526c-2,.345-4.029.523-6.046.777a12.131,12.131,0,0,0-5.944,0c-7.653-.616-14.975-2.368-21.662-6.3q24.08-.029,48.159-.056C1126.58-221.976,1126.952-221.939,1127.325-221.919Z" transform="translate(-956.295 263.808)" fill="#f6cb7f"/>
      <path id="Trazado_129608" data-name="Trazado 129608" d="M1110.9-177.983c3.863.988,7.825,1.64,11.477,3.331,1.676.777,3.295,1.674,4.94,2.515q-20.16.03-40.32.058c-2.985,0-5.971-.037-8.956-.058a47.685,47.685,0,0,1,15.205-5.543,6.3,6.3,0,0,0,.844-.306Z" transform="translate(-956.293 252.728)" fill="#f2aa40"/>
      <path id="Trazado_129609" data-name="Trazado 129609" d="M1079.693-50.483c-.683.022-1.366.064-2.049.064q-73.541,0-147.083,0c-5.19,0-7.347-2.152-7.315-7.373.009-1.474-.64-3.4.269-4.3s2.831-.261,4.306-.263c17.608-.017,35.216.013,52.822-.037a8.927,8.927,0,0,1,6.591,2.463,12.775,12.775,0,0,0,9.154,3.537q10.452,0,20.9,0a12.948,12.948,0,0,0,9.317-3.6,8.492,8.492,0,0,1,6.238-2.393c15.74.041,31.482.02,47.224.024.5,0,.992.038,1.489.058C1081.561-58.263,1082.067-54.146,1079.693-50.483Z" transform="translate(-917.248 223.656)" fill="#dfdfdd"/>
      <path id="Trazado_129610" data-name="Trazado 129610" d="M991.476-90.226h1.856c.093.78-.513,1.021-.871,1.381q-5.706,5.751-11.448,11.468c-.562.563-1.272,1.049-1.151,2.006l-36.58.007q0-2.927,0-5.853c2.976-.154,2.976-.154,2.976-2.862,0-3.079,0-3.079-2.976-3.233q.011-1.458.023-2.917l44.731.007C989.185-88.7,990.331-88.737,991.476-90.226Z" transform="translate(-922.349 230.623)" fill="#7ccedb"/>
      <path id="Trazado_129611" data-name="Trazado 129611" d="M1132.439-50.423c2.375-3.663,1.868-7.78,1.868-11.819,2.6-.02,5.2.009,7.8-.086,1.054-.039,1.221.388,1.186,1.292-.062,1.607.026,3.22-.031,4.828a5.95,5.95,0,0,1-5.809,5.833C1135.782-50.319,1134.109-50.4,1132.439-50.423Z" transform="translate(-969.994 223.596)" fill="#d4d4d2"/>
      <path id="Trazado_129612" data-name="Trazado 129612" d="M1000.9-122.172c.02,4.6.019,9.2.079,13.8.012.9-.279,1.252-1.163,1.134a5.636,5.636,0,0,0-.746,0q-36.943,0-73.886.037c-1.54,0-1.982-.343-1.932-1.914.137-4.347.081-8.7.1-13.052Zm-68.661,8.956c3,0,3,0,3-2.972,0-3,0-3-2.972-3-3,0-3,0-3,2.972C929.262-113.216,929.262-113.216,932.234-113.216Zm11.979-5.972c-3,0-3,0-3,2.972,0,3,0,3,2.972,3,3,0,3,0,3-2.972C947.185-119.189,947.185-119.189,944.213-119.189Zm11.8,5.972c3.123,0,3.123,0,3.123-3.036,0-2.936,0-2.936-2.852-2.936-3.123,0-3.123,0-3.123,3.036C953.16-113.216,953.16-113.216,956.011-113.216Zm9.1-3.11c0,3.11,0,3.11,3.049,3.11,2.925,0,2.925,0,2.925-2.862,0-3.11,0-3.11-3.049-3.11C965.11-119.189,965.11-119.189,965.11-116.326Z" transform="translate(-917.302 238.669)" fill="#f4b64f"/>
      <path id="Trazado_129613" data-name="Trazado 129613" d="M1047.515-144.2c-1.42.492-2.1,1.84-3.168,2.743-.562.477-1.008,1.112-1.873.99-2.1-6.821-6.983-10.929-13.29-11.181-7.958-.319-13.06,2.877-15.82,10.073a1.932,1.932,0,0,1-2.276,1.512c-1.593-.108-3.2-.027-4.84-.027,2.008-5.244,4.163-10.171,8.789-13.622C1024.751-160.952,1042.394-158.685,1047.515-144.2Z" transform="translate(-938.209 247.62)" fill="#7bcbd9"/>
      <path id="Trazado_129614" data-name="Trazado 129614" d="M1000.914-123.179H923.367c-.156-2.989-.156-2.989,2.763-2.989h72.021C1001.068-126.168,1001.068-126.167,1000.914-123.179Z" transform="translate(-917.32 239.676)" fill="#f2aa40"/>
      <path id="Trazado_129615" data-name="Trazado 129615" d="M1032.8-127.175c.775-1.953,1.528-3.916,2.332-5.857.607-1.466.177-2.05-1.413-2.345a47.414,47.414,0,0,0-9.958-.717c1.608-4.675,6.546-6.824,11.664-5.208a8.161,8.161,0,0,1,5.367,10.213,12.316,12.316,0,0,1-1.438,3.589c-1.42.272-1.962,1.632-2.98,2.405-.458.349-1.175.857-1.076-.2C1035.506-127.479,1034.054-127.115,1032.8-127.175Z" transform="translate(-942.62 243.622)" fill="#7bcbd9"/>
      <path id="Trazado_129616" data-name="Trazado 129616" d="M988.034-91.257,943.3-91.264q-.012-1.463-.025-2.927c12.778-.022,25.556.062,38.331-.15C984.51-94.389,986.53-93.619,988.034-91.257Z" transform="translate(-922.348 231.66)" fill="#75c2d0"/>
      <path id="Trazado_129617" data-name="Trazado 129617" d="M1035.639-122.348c1.252.059,2.7-.3,2.5,1.886-.1,1.053.618.544,1.076.2,1.018-.773,1.56-2.133,2.98-2.405a35.288,35.288,0,0,1-6.945,11.407C1035.448-114.975,1034.4-118.688,1035.639-122.348Z" transform="translate(-945.457 238.795)" fill="#75c2d0"/>
      <path id="Trazado_129618" data-name="Trazado 129618" d="M1125.94-97.329c-2.979-.155-2.979-.155-2.979-3.263v-50.34c0-3.108,0-3.108,2.979-3.264,3,.154,3,.154,3,3.266v50.337C1128.936-97.483,1128.936-97.483,1125.94-97.329Z" transform="translate(-967.607 246.736)"/>
      <path id="Trazado_129619" data-name="Trazado 129619" d="M942.271-86.328c2.976.154,2.976.154,2.976,3.233,0,2.707,0,2.707-2.976,2.862-3-.154-3-.154-3-3.233C939.274-86.174,939.274-86.174,942.271-86.328Z" transform="translate(-921.339 229.641)"/>
      <path id="Trazado_129620" data-name="Trazado 129620" d="M1060.409-85.077c-.751-.686-1.255-1.13-1.74-1.593-2.669-2.544-2.682-2.558-.286-5.348a67.446,67.446,0,0,0,11.1-17.781c.46-1.089.946-1.469,2-.813a3.194,3.194,0,0,0,.513.219c3.767,1.507,3.767,1.506,2.061,5.1a75.062,75.062,0,0,1-12.738,18.945A13,13,0,0,0,1060.409-85.077Z" transform="translate(-950.898 235.839)" fill="#010202"/>
      <path id="Trazado_129621" data-name="Trazado 129621" d="M1114.177-187.047l-16.81,0c-1.055-.021-2.111-.02-3.165-.067a2.973,2.973,0,0,1-3.16-3.331,14.5,14.5,0,0,1,5.32-11.051,1.926,1.926,0,0,0,.773-2.174c-.761-4.123,1.287-7.483,5.848-9.928a12.132,12.132,0,0,1,5.945,0c4.443,2.19,6.737,5.535,5.689,10.649-.174.844.525,1.034.959,1.417a14.912,14.912,0,0,1,5.285,10.71c.138,2.491-1.023,3.665-3.52,3.714Zm-8.328-6.037c2.239,0,4.477.018,6.714-.014.513-.007,1.222.3,1.5-.316.254-.56-.3-1.029-.586-1.487a9.387,9.387,0,0,0-3.714-3.307c-2.454-1.28-2.872-2.632-1.534-4.945,1.01-1.748.908-3.15-.378-4.16a2.832,2.832,0,0,0-3.771-.019c-1.3,1-1.415,2.425-.416,4.153,1.348,2.332.945,3.689-1.493,4.958a9.817,9.817,0,0,0-4.124,3.925c-.489.862-.322,1.231.711,1.219C1101.124-193.1,1103.487-193.085,1105.849-193.083Z" transform="translate(-959.567 261.792)" fill="#010202"/>
      <path id="Trazado_129622" data-name="Trazado 129622" d="M934.26-112.212c-2.972,0-2.972,0-2.972-3,0-2.972,0-2.972,3-2.972,2.972,0,2.972,0,2.972,3C937.262-112.212,937.262-112.212,934.26-112.212Z" transform="translate(-919.328 237.665)"/>
      <path id="Trazado_129623" data-name="Trazado 129623" d="M950.262-118.184c2.972,0,2.972,0,2.972,3,0,2.972,0,2.972-3,2.972-2.972,0-2.972,0-2.972-3C947.26-118.184,947.26-118.184,950.262-118.184Z" transform="translate(-923.351 237.665)"/>
      <path id="Trazado_129624" data-name="Trazado 129624" d="M966.084-112.212c-2.851,0-2.851,0-2.851-2.936,0-3.036,0-3.036,3.123-3.036,2.852,0,2.852,0,2.852,2.936C969.208-112.212,969.208-112.212,966.084-112.212Z" transform="translate(-927.374 237.665)"/>
      <path id="Trazado_129625" data-name="Trazado 129625" d="M979.206-115.322c0-2.862,0-2.862,2.925-2.862,3.049,0,3.049,0,3.049,3.11,0,2.862,0,2.862-2.925,2.862C979.206-112.212,979.206-112.212,979.206-115.322Z" transform="translate(-931.398 237.665)"/>
      <path id="Trazado_129626" data-name="Trazado 129626" d="M1108.121-191.089c-2.363,0-4.725-.019-7.088.007-1.032.012-1.2-.358-.711-1.219a9.817,9.817,0,0,1,4.124-3.925c2.438-1.269,2.841-2.626,1.493-4.958-1-1.728-.88-3.157.416-4.153a2.832,2.832,0,0,1,3.771.019c1.286,1.01,1.388,2.412.378,4.16-1.338,2.313-.919,3.665,1.535,4.945a9.389,9.389,0,0,1,3.714,3.307c.288.458.84.927.586,1.487-.281.619-.99.309-1.5.316C1112.6-191.069,1110.359-191.087,1108.121-191.089Z" transform="translate(-961.838 259.796)" fill="#8a573f"/>
    </g>
    <rect id="Rectángulo_36790" data-name="Rectángulo 36790" width="206" height="207" transform="translate(0.385 -0.282)" fill="none"/>
  </g>
</svg>
