<svg xmlns="http://www.w3.org/2000/svg" width="92" height="141" viewBox="0 0 92 141">
  <g id="Grupo_87546" data-name="Grupo 87546" transform="translate(-208 -3041)">
    <rect id="Rectángulo_36779" data-name="Rectángulo 36779" width="92" height="141" rx="11" transform="translate(208 3041)" fill="#fff"/>
    <g id="Grupo_86334" data-name="Grupo 86334" transform="translate(222.45 3055)">
      <path id="Trazado_129059" data-name="Trazado 129059" d="M276.829-316.112h26.078a5.108,5.108,0,0,1,5.482,5.47q0,19.97,0,39.94a5.112,5.112,0,0,1-5.483,5.471q-9.413,0-18.827-.008a.883.883,0,0,0-.915.484c-.26.482-.61.915-.894,1.386a2.1,2.1,0,0,0-.1,2.179c.351.649.8,1.248,1.186,1.876.143.23.354.18.559.189a20.015,20.015,0,0,1,3.045.1,5.1,5.1,0,0,1,4.11,4.505c.107,1.067-.275,1.5-1.343,1.5q-12.88,0-25.76,0c-1.081,0-1.457-.413-1.359-1.483a5.112,5.112,0,0,1,4.914-4.616c.7-.019,1.4-.035,2.1,0a.857.857,0,0,0,.905-.5c.266-.48.613-.914.893-1.387a2.072,2.072,0,0,0,.106-2.122c-.359-.669-.8-1.291-1.212-1.934-.177-.279-.457-.166-.694-.167q-9.573-.008-19.145-.008a5.071,5.071,0,0,1-5.129-4.37,5.846,5.846,0,0,1-.051-.95q0-20.129,0-40.258a5.079,5.079,0,0,1,5.332-5.3Q263.726-316.116,276.829-316.112Zm-4.32,19.31q4.061.012,8.122.023c.956,0,1.291-.34,1.3-1.3,0-.212.006-.423,0-.635a1.008,1.008,0,0,0-1.1-1.112c-2.094-.007-4.188.006-6.282.01l-11.13-.015c-1.7,0-1.9.2-1.842,1.907,0,.021,0,.042,0,.063a1,1,0,0,0,1.077,1.076C265.938-296.78,269.223-296.794,272.509-296.8Zm12.343,39.729c-5.763-.005-11.527-.02-17.29-.005a2.857,2.857,0,0,0-2.434,1.393c-.111.167-.323.357-.2.56.1.163.351.066.533.066q7.374.007,14.748,0c1.165,0,2.33-.015,3.495-.023,1.27.008,2.539.032,3.808.016.422-.005,1.118.21,1.209-.128.123-.454-.42-.864-.8-1.2a2.855,2.855,0,0,0-1.115-.581A6.562,6.562,0,0,0,284.852-257.073Zm-9.161-44.818c1.227.008,2.455.007,3.682.031.384.008.413-.127.3-.45a4.928,4.928,0,0,0-3.347-3.359,2.924,2.924,0,0,0-1.234-.255c-2.225-.011-4.452-.042-6.676.006a5.043,5.043,0,0,0-4.594,3.6c-.088.316-.1.456.3.454Q269.905-301.887,275.691-301.891Zm2.168,21.4c2.1,0,4.06-.008,6.023,0a6.046,6.046,0,0,1,5.97,4.59c.108.4.259.509.672.507q5.564-.03,11.129,0c.544,0,.643-.148.642-.661q-.024-16.628,0-33.257c0-.591-.162-.708-.724-.708q-24.738.023-49.477,0c-.58,0-.715.145-.714.717q.028,16.119.018,32.239c0,.542-.242,1.285.114,1.57.34.271,1.052.064,1.6.091.3.015.421-.073.493-.394a5.759,5.759,0,0,1,1.521-2.81,6.014,6.014,0,0,1,4.431-1.886c1.983-.009,3.967,0,6.066,0-.291-.259-.491-.435-.689-.613a9.709,9.709,0,0,1-3.179-5.714c-.113-.685-.328-.828-.978-.814a3.038,3.038,0,0,1-3.277-3.036,3.08,3.08,0,0,1,3.277-3.052c.815,0,.8,0,.8-.8a.556.556,0,0,0-.351-.58,2.963,2.963,0,0,1-1.692-2.829q0-.382,0-.763a2.98,2.98,0,0,1,1.708-2.823.747.747,0,0,0,.461-.6,7.047,7.047,0,0,1,6.8-5.839q3.274-.058,6.55,0a7.077,7.077,0,0,1,6.718,5.712.97.97,0,0,0,.6.783,2.914,2.914,0,0,1,1.507,1.946,6.436,6.436,0,0,1,.083,1.708,2.806,2.806,0,0,1-1.576,2.636c-.64.316-.475.792-.43,1.215.052.489.513.124.771.227a1.015,1.015,0,0,0,.316.008,3.078,3.078,0,0,1,2.949,2.731,3.076,3.076,0,0,1-2.26,3.264,4.131,4.131,0,0,1-1.325.1c-.376-.02-.552.06-.607.491a9.637,9.637,0,0,1-1.9,4.576A12.318,12.318,0,0,1,277.859-280.5Zm-.984,7.123H255.131c-2.437,0-4.874.008-7.311-.008-.381,0-.522.084-.5.489.034.719.009,1.441.01,2.161a3.1,3.1,0,0,0,3.442,3.463H302.9c.148,0,.3,0,.445,0a3.063,3.063,0,0,0,3-3.01c.018-.8-.036-1.613.018-2.415.038-.565-.133-.694-.692-.693Q291.275-273.357,276.875-273.372Zm-.006-40.7c-8.628,0-17.257.046-25.885-.03a3.4,3.4,0,0,0-3.688,3.657c.064,11.234.03,22.469.03,33.7,0,1.341,0,1.305,1.34,1.356.6.022.709-.171.708-.729q-.025-17.2-.012-34.4c0-1.253.267-1.518,1.531-1.518h51.9c1.261,0,1.53.268,1.53,1.521q0,16.852,0,33.7c0,1.413,0,1.384,1.4,1.424.536.015.651-.134.651-.658q-.025-17.329-.013-34.658a3.084,3.084,0,0,0-3.409-3.368Zm-5.128,38.669h15.387c.751,0,.81-.078.491-.719a3.85,3.85,0,0,0-3.59-2.318q-12.272-.045-24.543,0a3.805,3.805,0,0,0-3.6,2.3c-.322.664-.272.74.464.74ZM263.93-286.57c.031.164.047.311.088.45A8.2,8.2,0,0,0,271.7-280.5a8.211,8.211,0,0,0,7.779-5.592c.129-.424.032-.554-.408-.52s-.891-.01-1.335.011a4.949,4.949,0,0,1-3.759-1.393,3.8,3.8,0,0,0-4.537.06,4.7,4.7,0,0,1-2.512,1.268C265.944-286.515,264.946-286.669,263.93-286.57Zm7.826-8.172c-2.543,0-5.087.009-7.63-.009-.41,0-.536.1-.527.52.029,1.25.007,2.5.012,3.751,0,.59-.206,1.379.092,1.718.345.394,1.154.069,1.758.129a3.355,3.355,0,0,0,2.876-1.025c1.4-1.41,5.416-1.418,6.822,0a3.458,3.458,0,0,0,2.938,1.031,6.628,6.628,0,0,1,1.207,0c.456.044.614-.073.6-.573-.037-1.652-.032-3.306,0-4.958.009-.466-.1-.6-.583-.6C276.8-294.727,274.277-294.742,271.756-294.742Zm9.261,29.56h-8.356a4.61,4.61,0,0,1,.014,6.021h8.344A4.6,4.6,0,0,1,281.016-265.182Zm-19.441-25.394c0-1.115,0-1.115-.645-1.115-.916,0-1.39.348-1.388,1.019s.481.954,1.391,1.035C261.873-289.552,261.5-290.2,261.575-290.576Zm20.331-.075c.177.35-.378,1.075.612,1.012.956-.061,1.451-.362,1.443-1.044-.008-.665-.489-.951-1.4-1.022C281.55-291.783,282.05-291.058,281.906-290.651Z" transform="translate(-245.289 316.113)" fill="#010101"/>
      <path id="Trazado_129060" data-name="Trazado 129060" d="M295.494-262.683a12.319,12.319,0,0,0,2.033-2.063,9.638,9.638,0,0,0,1.9-4.576c.055-.431.231-.511.607-.491a4.132,4.132,0,0,0,1.325-.1,3.076,3.076,0,0,0,2.26-3.264,3.078,3.078,0,0,0-2.949-2.731,1.015,1.015,0,0,1-.316-.008c-.258-.1-.718.263-.771-.227-.045-.423-.21-.9.43-1.215A2.806,2.806,0,0,0,301.592-280a6.437,6.437,0,0,0-.083-1.708A2.914,2.914,0,0,0,300-283.65a.971.971,0,0,1-.6-.783,7.077,7.077,0,0,0-6.718-5.712q-3.274-.065-6.55,0a7.047,7.047,0,0,0-6.8,5.839.747.747,0,0,1-.461.6,2.98,2.98,0,0,0-1.708,2.823q0,.382,0,.763a2.963,2.963,0,0,0,1.692,2.829.556.556,0,0,1,.351.58c0,.8.016.8-.8.8a3.08,3.08,0,0,0-3.277,3.052,3.038,3.038,0,0,0,3.277,3.036c.65-.014.865.13.978.814a9.709,9.709,0,0,0,3.179,5.714c.2.179.4.354.689.613-2.1,0-4.083-.007-6.066,0a6.014,6.014,0,0,0-4.431,1.886,5.76,5.76,0,0,0-1.521,2.81c-.072.321-.19.409-.493.394-.547-.027-1.26.18-1.6-.091-.357-.285-.114-1.028-.114-1.57q-.01-16.119-.018-32.239c0-.572.134-.718.714-.717q24.739.026,49.477,0c.561,0,.725.117.724.708q-.03,16.628,0,33.257c0,.513-.1.665-.642.661q-5.564-.042-11.129,0c-.413,0-.565-.107-.672-.507a6.046,6.046,0,0,0-5.97-4.59C299.554-262.691,297.591-262.683,295.494-262.683Zm16.275-3.053c1.272,0,2.544,0,3.815,0a2.064,2.064,0,0,0,2.3-2.266q.007-3.847,0-7.693a2.057,2.057,0,0,0-2.247-2.251c-1.8,0-3.6-.012-5.4.008-.377,0-.516-.07-.5-.48.036-.867-.006-1.738.016-2.606a2.038,2.038,0,0,1,1.85-2,2.04,2.04,0,0,1,2.169,1.651,4.217,4.217,0,0,1,.039,1.013c-.017.311.091.42.394.385a4.444,4.444,0,0,1,.508,0c1.173,0,1.173,0,1.137-1.153a4.072,4.072,0,0,0-4.094-3.935,4.063,4.063,0,0,0-4.04,3.985c-.016.911-.013,1.823,0,2.734,0,.273-.047.375-.355.444a2,2,0,0,0-1.685,2.138q-.007,3.942,0,7.884a2.027,2.027,0,0,0,2.155,2.148C309.141-265.73,310.455-265.736,311.769-265.736Z" transform="translate(-262.924 298.301)" fill="#e5e3dd"/>
      <path id="Trazado_129061" data-name="Trazado 129061" d="M282.8-148.456q14.4,0,28.8-.014c.559,0,.73.128.692.692-.054.8,0,1.61-.018,2.415a3.063,3.063,0,0,1-3,3.011c-.148,0-.3,0-.445,0H256.689a3.1,3.1,0,0,1-3.442-3.463c0-.721.024-1.442-.01-2.161-.019-.405.123-.492.5-.489,2.437.016,4.874.008,7.311.008Zm-.054,1.018a2.051,2.051,0,0,0-2.016,2.035,2.06,2.06,0,0,0,2.018,2.034,2.059,2.059,0,0,0,2.049-2.067A2.061,2.061,0,0,0,282.742-147.438Z" transform="translate(-251.21 191.197)" fill="#89919e"/>
      <path id="Trazado_129062" data-name="Trazado 129062" d="M282.735-308.213h26.076a3.084,3.084,0,0,1,3.409,3.368q0,17.329.013,34.658c0,.524-.115.673-.651.658-1.4-.04-1.4-.011-1.4-1.424q0-16.852,0-33.7c0-1.253-.269-1.521-1.53-1.521h-51.9c-1.264,0-1.531.265-1.531,1.518q0,17.2.012,34.4c0,.558-.108.751-.708.729-1.339-.05-1.34-.015-1.34-1.356,0-11.234.035-22.469-.03-33.7a3.4,3.4,0,0,1,3.688-3.657C265.478-308.167,274.107-308.213,282.735-308.213Z" transform="translate(-251.156 310.249)" fill="#c1c7cf"/>
      <path id="Trazado_129063" data-name="Trazado 129063" d="M302.179-165.35H286.791c-.736,0-.786-.075-.464-.74a3.805,3.805,0,0,1,3.6-2.3q12.272-.044,24.543,0a3.85,3.85,0,0,1,3.59,2.318c.319.642.26.719-.491.719Z" transform="translate(-275.727 206.055)" fill="#5f5f5f"/>
      <path id="Trazado_129064" data-name="Trazado 129064" d="M318.426-206.462c1.016-.1,2.015.055,3-.093a4.7,4.7,0,0,0,2.511-1.268,3.8,3.8,0,0,1,4.537-.06,4.949,4.949,0,0,0,3.759,1.393c.444-.021.893.024,1.335-.011s.538.1.408.52a8.211,8.211,0,0,1-7.779,5.592,8.2,8.2,0,0,1-7.686-5.623C318.473-206.151,318.457-206.3,318.426-206.462Z" transform="translate(-299.786 236.005)" fill="#767575"/>
      <path id="Trazado_129065" data-name="Trazado 129065" d="M325.12-232.3c2.522,0,5.044.015,7.566-.013.486-.005.592.129.583.6-.03,1.652-.035,3.306,0,4.958.011.5-.148.617-.6.573a6.628,6.628,0,0,0-1.207,0,3.459,3.459,0,0,1-2.938-1.031c-1.406-1.415-5.422-1.407-6.822,0a3.355,3.355,0,0,1-2.876,1.025c-.6-.06-1.413.265-1.758-.129-.3-.339-.089-1.128-.092-1.718-.005-1.25.017-2.5-.012-3.751-.01-.422.116-.523.527-.52C320.033-232.292,322.577-232.3,325.12-232.3Zm-3.549,4.069a1.516,1.516,0,0,0,1.508-1.545,1.511,1.511,0,0,0-1.543-1.508,1.51,1.51,0,0,0-1.509,1.542A1.518,1.518,0,0,0,321.571-228.232Zm8.632-1.531a1.51,1.51,0,0,0-1.529-1.522,1.509,1.509,0,0,0-1.523,1.528,1.517,1.517,0,0,0,1.53,1.524A1.515,1.515,0,0,0,330.2-229.763Z" transform="translate(-298.654 253.672)" fill="#edcd90"/>
      <path id="Trazado_129066" data-name="Trazado 129066" d="M329.73-272.16q-5.785.013-11.571.031c-.4,0-.384-.138-.3-.454a5.043,5.043,0,0,1,4.594-3.6c2.225-.048,4.451-.017,6.676-.006a2.924,2.924,0,0,1,1.234.255c-.016.356-.026.71-.067,1.068C330.2-273.945,329.859-273.075,329.73-272.16Z" transform="translate(-299.328 286.382)" fill="#888"/>
      <path id="Trazado_129067" data-name="Trazado 129067" d="M361.038-116.282a4.6,4.6,0,0,0,0,6.021H352.7a4.61,4.61,0,0,0-.014-6.021Z" transform="translate(-325.311 167.213)" fill="#a8afba"/>
      <path id="Trazado_129068" data-name="Trazado 129068" d="M341.016-82.506c-1.165.008-2.33.023-3.495.023q-7.374,0-14.748,0c-.182,0-.432.1-.533-.066-.125-.2.087-.393.2-.56a2.857,2.857,0,0,1,2.434-1.393c5.763-.015,11.526,0,17.29.005C341.966-83.728,341.3-83.225,341.016-82.506Z" transform="translate(-302.599 143.539)" fill="#89919e"/>
      <path id="Trazado_129069" data-name="Trazado 129069" d="M320.1-249.2c-3.286.008-6.572.022-9.857.019a1,1,0,0,1-1.077-1.076c0-.021,0-.042,0-.063-.054-1.706.141-1.909,1.842-1.907l11.13.015c.055.311-.19.5-.317.727C321.355-250.639,320.619-250,320.1-249.2Z" transform="translate(-292.877 268.508)" fill="#767575"/>
      <path id="Trazado_129070" data-name="Trazado 129070" d="M352.088-249.19c.522-.8,1.258-1.441,1.721-2.285.127-.231.371-.416.317-.727,2.094,0,4.188-.018,6.282-.01a1.008,1.008,0,0,1,1.1,1.112c.007.211,0,.423,0,.635-.006.959-.341,1.3-1.3,1.3Q356.149-249.174,352.088-249.19Z" transform="translate(-324.868 268.501)" fill="#5f5f5f"/>
      <path id="Trazado_129071" data-name="Trazado 129071" d="M364.571-271.356c.13-.915.466-1.785.571-2.71.041-.358.051-.712.066-1.068a4.928,4.928,0,0,1,3.347,3.359c.11.323.082.457-.3.45C367.026-271.349,365.8-271.348,364.571-271.356Z" transform="translate(-334.17 285.578)" fill="#767575"/>
      <path id="Trazado_129072" data-name="Trazado 129072" d="M396.02-82.541c.287-.719.95-1.222,1.146-1.993a6.57,6.57,0,0,1,1.954.1,2.855,2.855,0,0,1,1.115.581c.382.336.925.747.8,1.2-.091.338-.787.123-1.209.128C398.559-82.509,397.289-82.533,396.02-82.541Z" transform="translate(-357.603 143.574)" fill="#76808e"/>
      <path id="Trazado_129073" data-name="Trazado 129073" d="M303.243-219.175c-.075.377.3,1.024-.642.94-.91-.081-1.39-.364-1.391-1.035s.472-1.019,1.388-1.019C303.243-220.29,303.243-220.29,303.243-219.175Z" transform="translate(-286.957 244.712)" fill="#e9ca8d"/>
      <path id="Trazado_129074" data-name="Trazado 129074" d="M388.955-219.311c.144-.407-.356-1.133.654-1.054.913.071,1.394.357,1.4,1.022.008.683-.487.983-1.443,1.044C388.577-218.235,389.131-218.96,388.955-219.311Z" transform="translate(-352.338 244.773)" fill="#e9ca8d"/>
      <path id="Trazado_129075" data-name="Trazado 129075" d="M419.1-244.869c-1.314,0-2.628.006-3.943,0A2.027,2.027,0,0,1,413-247.019q-.011-3.942,0-7.884a2,2,0,0,1,1.685-2.138c.308-.069.359-.171.355-.444-.014-.911-.018-1.823,0-2.734a4.063,4.063,0,0,1,4.04-3.985,4.072,4.072,0,0,1,4.094,3.935c.036,1.153.036,1.153-1.137,1.153a4.444,4.444,0,0,0-.508,0c-.3.035-.411-.074-.394-.385a4.215,4.215,0,0,0-.039-1.013,2.039,2.039,0,0,0-2.169-1.651,2.038,2.038,0,0,0-1.85,2c-.021.869.02,1.739-.016,2.606-.017.411.121.484.5.48,1.8-.02,3.6-.012,5.405-.008a2.057,2.057,0,0,1,2.247,2.251q.007,3.846,0,7.693a2.064,2.064,0,0,1-2.3,2.266C421.64-244.866,420.368-244.869,419.1-244.869Zm.005-10.176c-1.207,0-2.414.014-3.62-.008-.364-.007-.46.1-.457.46q.023,3.62,0,7.239c0,.363.1.46.46.457q3.62-.023,7.24,0c.362,0,.46-.1.458-.46q-.023-3.62,0-7.239c0-.363-.1-.464-.46-.458C421.515-255.031,420.308-255.045,419.1-255.045Z" transform="translate(-370.251 277.433)" fill="#010101"/>
      <path id="Trazado_129076" data-name="Trazado 129076" d="M363.112-144.422a2.061,2.061,0,0,1,2.051,2,2.059,2.059,0,0,1-2.049,2.067,2.06,2.06,0,0,1-2.018-2.034A2.051,2.051,0,0,1,363.112-144.422Z" transform="translate(-331.58 188.181)" fill="#030201"/>
      <path id="Trazado_129077" data-name="Trazado 129077" d="M330.694-225.22a1.518,1.518,0,0,1-1.544-1.51,1.511,1.511,0,0,1,1.509-1.542,1.511,1.511,0,0,1,1.543,1.508A1.516,1.516,0,0,1,330.694-225.22Z" transform="translate(-307.776 250.66)" fill="#050504"/>
      <path id="Trazado_129078" data-name="Trazado 129078" d="M360.154-226.75a1.515,1.515,0,0,1-1.522,1.531,1.517,1.517,0,0,1-1.53-1.524,1.509,1.509,0,0,1,1.523-1.528A1.51,1.51,0,0,1,360.154-226.75Z" transform="translate(-328.604 250.66)" fill="#050504"/>
      <path id="Trazado_129079" data-name="Trazado 129079" d="M425.037-228.294c1.207,0,2.414.013,3.62-.008.36-.007.462.095.46.458q-.023,3.62,0,7.239c0,.36-.1.462-.458.46q-3.62-.024-7.24,0c-.359,0-.462-.094-.46-.457q.024-3.62,0-7.239c0-.359.094-.467.457-.46C422.624-228.281,423.831-228.294,425.037-228.294Zm1.019,2.381c0-1.365,0-1.365-1.215-1.365a2.634,2.634,0,0,1-.381,0c-.377-.056-.479.121-.445.465.023.231,0,.466.006.7a1.961,1.961,0,0,1-.557,1.688,1.886,1.886,0,0,0,.219,2.726,2,2,0,0,0,2.715-.006,1.892,1.892,0,0,0,.2-2.73A1.655,1.655,0,0,1,426.057-225.913Z" transform="translate(-376.187 250.683)" fill="#e9c264"/>
      <path id="Trazado_129080" data-name="Trazado 129080" d="M431.955-222.953a1.655,1.655,0,0,0,.546,1.475,1.892,1.892,0,0,1-.2,2.73,2,2,0,0,1-2.715.006,1.886,1.886,0,0,1-.219-2.726,1.961,1.961,0,0,0,.557-1.689c-.011-.233.017-.468-.006-.7-.035-.345.068-.521.444-.465a2.634,2.634,0,0,0,.381,0C431.955-224.318,431.955-224.318,431.955-222.953Z" transform="translate(-382.085 247.723)" fill="#030201"/>
    </g>
  </g>
</svg>
