<svg xmlns="http://www.w3.org/2000/svg" xmlns:xlink="http://www.w3.org/1999/xlink" width="90.997" height="90.997" viewBox="0 0 90.997 90.997">
  <defs>
    <clipPath id="clip-path">
      <rect id="Rectángulo_37146" data-name="Rectángulo 37146" width="72.197" height="70.103" fill="none"/>
    </clipPath>
  </defs>
  <g id="Grupo_86072" data-name="Grupo 86072" transform="translate(-0.278 -0.277)">
    <circle id="Elipse_5411" data-name="Elipse 5411" cx="45.498" cy="45.498" r="45.498" transform="translate(0.278 0.277)" fill="#2ff980"/>
    <g id="Grupo_87203" data-name="Grupo 87203" transform="translate(9.678 10.724)">
      <g id="Grupo_87202" data-name="Grupo 87202" clip-path="url(#clip-path)">
        <path id="Trazado_133313" data-name="Trazado 133313" d="M19.956,1.025A1.1,1.1,0,0,1,21.237.016c.8.014,1.6,0,2.4,0q20.761,0,41.521,0A6.692,6.692,0,0,1,71.83,4.551,6.929,6.929,0,0,1,72.2,6.832q0,29.57,0,59.141a3.92,3.92,0,0,1-3.8,4.086c-1.029.072-2.066.034-3.1.035-4.723,0-9.446-.014-14.169.009a4.248,4.248,0,0,1-3.942-1.851c-.207-.32-.5-.206-.755-.207q-9.023-.01-18.047-.005c-3.572,0-7.143.021-10.715-.012a4.011,4.011,0,0,1-.035-8.021c1.081-.019,2.162-.022,3.242,0a.764.764,0,0,0,.82-.47c.685-1.352,1.412-2.683,2.169-4.109h-.858q-7.93,0-15.861,0a6.728,6.728,0,0,1-6.5-3.872,6.107,6.107,0,0,1-.641-2.787Q0,27.733.011,6.692A6.545,6.545,0,0,1,6.339.062c3.215-.112,6.437-.037,9.656-.04a1.045,1.045,0,0,1,1.14,1c-.184.886-.483,1.127-1.476,1.129-2.934.006-5.868,0-8.8,0a3.326,3.326,0,0,0-1.775.324.269.269,0,0,0-.286.137h0A4.4,4.4,0,0,0,2.122,6.86q0,18.592,0,37.184c0,1.573-.047,3.148.014,4.718a4.2,4.2,0,0,0,2.218,3.816l.159.094a.3.3,0,0,0,.283.155,4.838,4.838,0,0,0,2.657.5q18.433.012,36.866,0c.258,0,.516-.019.773-.03.279.019.558.053.837.053.2,0,.513.092.558-.152a3.66,3.66,0,0,0-.016-1.873c-.155-.426-.756-.122-1.153-.177-.059-.008-.128.048-.192.075l-23.468-.007c-4.3,0-8.6.008-12.9,0-2.817-.007-4.477-1.552-4.479-4.206Q4.267,27.7,4.282,8.4a4,4,0,0,1,4.29-4.18q27.52.012,55.04.005c.118,0,.235,0,.353,0a3.788,3.788,0,0,1,3.876,3.532c.219,2.833.068,5.68.062,8.521a1.084,1.084,0,0,1-1.077,1.167c-.861-.24-1.044-.471-1.046-1.4-.006-2.561.009-5.121-.007-7.682a1.765,1.765,0,0,0-2-1.988c-.094,0-.188,0-.282,0q-27.382,0-54.764,0a5.948,5.948,0,0,0-.843.038,1.651,1.651,0,0,0-1.4,1.377,5.234,5.234,0,0,0-.051.842q0,19.1,0,38.2a5.611,5.611,0,0,0,.033.7,1.661,1.661,0,0,0,1.444,1.5,6.072,6.072,0,0,0,.912.054q17.832,0,35.664,0c.257,0,.514-.025.771-.038a1.478,1.478,0,0,0,1.946-.864A3.287,3.287,0,0,1,50.1,46.358c.624-.035.79-.2.759-.805-.052-1.054.005-2.112-.018-3.168a8.821,8.821,0,0,1,2.913-6.754c.077-.052.156-.1.231-.157a8.473,8.473,0,0,1,11.507.7c.062.059.117.152.281.065v-.731q0-6.9,0-13.809c0-1,.167-1.227,1.047-1.471a1.065,1.065,0,0,1,1.05,1.171c0,.352.044.7.044,1.054q.005,5.458,0,10.916.006,5.845.021,11.69c-.254,1.031-.2,1.144.852,1.284.431.057.941.556,1.227.2.226-.28.047-.888.048-1.35q0-19.244.005-38.488a3.79,3.79,0,0,0-.061-.7,4.514,4.514,0,0,0-4.734-3.846q-21.713,0-43.426,0c-.212,0-.424.009-.634,0-.81-.047-1.1-.3-1.265-1.129m42.756,38.3-.01,0a5.323,5.323,0,0,1,.965,3.517c-.04.866-.008,1.736-.008,2.6,0,.9,0,.9.929.836.233.009.468.006.7.031.359.038.5-.094.493-.469-.032-1.5.043-3-.074-4.492a6.351,6.351,0,0,0-9.3-4.893l-.2.119a.058.058,0,0,0-.073.039l-.166.112.007-.007a5.774,5.774,0,0,0-2.8,3.766,21.81,21.81,0,0,0-.224,4.96c-.024.893,0,.894.924.834.116.009.234.008.349.029.666.12.9-.124.855-.82-.063-1.074-.018-2.154-.015-3.232a4.276,4.276,0,0,1,1.9-3.716c1.7-1.173,3.734-.94,5.589.618l.164.166m-3.064.653a2.072,2.072,0,0,0-2.441,1.987c-.052.979.006,1.963.015,2.944-.016.3-.018.606-.052.906-.047.414.138.512.525.5,1.126-.023,2.253-.008,3.379-.008.232,0,.49.047.483-.322-.03-1.43.1-2.865-.064-4.289a2,2,0,0,0-1.845-1.722M18.765,62.147c-.4-.007-.8-.043-1.191-.015a1.893,1.893,0,0,0,0,3.779c.348.026.7-.01,1.05-.018,2.372.01,4.744.029,7.116.028q9.689,0,19.378-.016c.141.006.281.018.422.017,1.147-.013.985.123.987-.955.006-2.913-.022-5.826.013-8.738.008-.641-.19-.771-.793-.77-5.967.019-11.935.047-17.9-.03a2.077,2.077,0,0,0-2.341,1.407A34.386,34.386,0,0,1,23.851,60h.887q8.81,0,17.62,0c.929,0,1.224.249,1.377,1.134-.169.8-.71.993-1.46.992q-10.383-.021-20.766-.007c-.915,0-1.829.017-2.744.026M50.34,67.9a4.52,4.52,0,0,0,.554.066q8.491.006,16.981,0c1.528,0,2.2-.717,2.2-2.272q0-7.468,0-14.936c0-1.687-.648-2.335-2.338-2.335q-8.349,0-16.7,0c-.234,0-.468.023-.7.035a1.8,1.8,0,0,0-1.688,1.954c-.011,2.556,0,5.112,0,7.668,0,2.626-.007,5.252,0,7.879A1.775,1.775,0,0,0,50.34,67.9" transform="translate(0 0)" fill="#040404"/>
        <path id="Trazado_133314" data-name="Trazado 133314" d="M52.979,55.907c-.258.01-.516.03-.773.03q-18.433,0-36.866,0a4.84,4.84,0,0,1-2.657-.5.264.264,0,0,0-.283-.155l-.159-.094a.721.721,0,0,0-.2-.645,5.711,5.711,0,0,1-1.038-3.579q-.023-20.51,0-41.021A6.133,6.133,0,0,1,12.474,5.65a.6.6,0,0,0,.21-.428h0a.279.279,0,0,0,.286-.137,3.326,3.326,0,0,1,1.775-.324c2.934,0,5.868,0,8.8,0,.992,0,1.292-.242,1.476-1.129a18.332,18.332,0,0,0,2.821,0c.169.825.455,1.083,1.265,1.129.211.012.423,0,.634,0q21.713,0,43.426,0A4.514,4.514,0,0,1,77.9,8.609a3.8,3.8,0,0,1,.061.7q0,19.244-.005,38.488a17.331,17.331,0,0,0-2.127-.134q-.011-5.845-.021-11.69-.005-5.458,0-10.916c0-.351-.04-.7-.044-1.054a1.065,1.065,0,0,0-1.05-1.171q0-1.394,0-2.787a1.083,1.083,0,0,0,1.077-1.166c.007-2.841.157-5.688-.062-8.521a3.787,3.787,0,0,0-3.876-3.532c-.118,0-.235,0-.353,0q-27.52,0-55.04-.005A4,4,0,0,0,12.17,11q-.008,19.309,0,38.617c0,2.653,1.662,4.2,4.479,4.206,4.3.011,8.6,0,12.9,0l23.468.007Q53,54.87,52.979,55.907" transform="translate(-7.888 -2.604)" fill="#557289"/>
        <path id="Trazado_133315" data-name="Trazado 133315" d="M83.136,33.614V36.4c-.88.244-1.046.467-1.047,1.471q0,6.9,0,13.809v.731c-.164.087-.219-.006-.281-.065a8.473,8.473,0,0,0-11.507-.7c-.075.055-.154.1-.231.157a.968.968,0,0,0-.724.215,7.755,7.755,0,0,0-3.115,4.289,12.309,12.309,0,0,0-.253,3.84c.024.695-.187.961-.873,1.087a3.989,3.989,0,0,0-3.543,3.983c-.257.013-.514.038-.771.038q-17.832,0-35.664,0a6.033,6.033,0,0,1-.912-.054,1.661,1.661,0,0,1-1.444-1.5,5.553,5.553,0,0,1-.034-.7q0-19.1,0-38.2a5.233,5.233,0,0,1,.051-.842,1.651,1.651,0,0,1,1.4-1.377,5.951,5.951,0,0,1,.843-.038q27.382,0,54.765,0c.094,0,.188,0,.282,0a1.764,1.764,0,0,1,2,1.988c.016,2.561,0,5.121.007,7.682,0,.931.185,1.161,1.046,1.4M43.593,46.289a1.145,1.145,0,0,0,1.308.992q13.817-.012,27.633-.009a3.75,3.75,0,0,0,3.878-3.662c.085-2.675.085-5.358,0-8.033a3.749,3.749,0,0,0-3.877-3.664q-20.126-.015-40.251,0a3.751,3.751,0,0,0-3.878,3.663q-.124,4.013,0,8.033a3.764,3.764,0,0,0,3.878,3.664c2.4.014,4.794-.007,7.19.009a1.145,1.145,0,0,0,1.308-.992h2.811" transform="translate(-16.311 -16.174)" fill="#f4f4f4"/>
        <path id="Trazado_133316" data-name="Trazado 133316" d="M176.726,171.457c.234-.012.468-.035.7-.035q8.349,0,16.7,0c1.69,0,2.337.649,2.338,2.335q0,7.468,0,14.936c0,1.555-.675,2.269-2.2,2.272q-8.491.014-16.981,0a4.575,4.575,0,0,1-.554-.066,2.98,2.98,0,0,1-.577-1.906q.022-7.71,0-15.419a3.243,3.243,0,0,1,.58-2.116m12.756,8.414a3.735,3.735,0,0,0-7.08-1.78,3.478,3.478,0,0,0,.94,4.441,2.478,2.478,0,0,1,1.367,2.667.952.952,0,0,0,1.062,1.049,1.006,1.006,0,0,0,1.035-1.028,7.082,7.082,0,0,0,.008-1.267.738.738,0,0,1,.522-.838,3.575,3.575,0,0,0,2.145-3.244" transform="translate(-126.385 -122.994)" fill="#f7ed78"/>
        <path id="Trazado_133317" data-name="Trazado 133317" d="M104.309,201.916c-.154-.886-.448-1.134-1.378-1.134q-8.81,0-17.619,0h-.887a34.489,34.489,0,0,0,1.657-3.165,2.076,2.076,0,0,1,2.34-1.407c5.966.077,11.934.049,17.9.03.6,0,.8.129.793.77-.035,2.912-.007,5.825-.013,8.738,0,1.079.16.942-.987.955-.141,0-.281-.011-.422-.017q0-1.682.007-3.365c0-1.421,0-1.421-1.392-1.4" transform="translate(-60.575 -140.78)" fill="#36597b"/>
        <path id="Trazado_133318" data-name="Trazado 133318" d="M89.883,216.407c1.393-.017,1.394-.017,1.392,1.4q0,1.682-.007,3.365-9.689.009-19.378.016c-2.372,0-4.744-.018-7.116-.028a3.609,3.609,0,0,1,.139-3.746c.914-.009,1.829-.025,2.744-.025q10.383,0,20.766.007c.749,0,1.29-.194,1.46-.992" transform="translate(-46.149 -155.27)" fill="#57748a"/>
        <path id="Trazado_133319" data-name="Trazado 133319" d="M10.138,9.268a.6.6,0,0,1-.21.428,6.133,6.133,0,0,0-1.466,4.287q-.03,20.51,0,41.021A5.711,5.711,0,0,0,9.5,58.583a.721.721,0,0,1,.2.645,4.2,4.2,0,0,1-2.218-3.816c-.06-1.57-.014-3.145-.014-4.718q0-18.592,0-37.184a4.4,4.4,0,0,1,2.675-4.242" transform="translate(-5.342 -6.65)" fill="#36597b"/>
        <path id="Trazado_133320" data-name="Trazado 133320" d="M192.934,127.221a.058.058,0,0,1,.073-.04l.2-.118a6.351,6.351,0,0,1,9.3,4.893c.117,1.49.043,2.995.074,4.492.008.375-.134.507-.493.469-.232-.025-.466-.021-.7-.03,0-1.445.006-2.891-.011-4.336a2.7,2.7,0,0,0-1.875-2.622l.01,0a.162.162,0,0,0-.164-.166c-1.855-1.559-3.893-1.792-5.589-.618a4.275,4.275,0,0,0-1.9,3.716c0,1.078-.048,2.158.015,3.232.041.7-.188.941-.855.821a3.493,3.493,0,0,0-.349-.029c0-1.43-.009-2.861-.006-4.291a7.623,7.623,0,0,1,1.518-4.432c.2-.279.586-.421.584-.837l-.007.007.166-.112" transform="translate(-136.808 -90.606)" fill="#f0cf47"/>
        <path id="Trazado_133321" data-name="Trazado 133321" d="M160.173,139.515a3.989,3.989,0,0,1,3.543-3.983c.686-.126.9-.392.873-1.087a12.308,12.308,0,0,1,.253-3.839,7.756,7.756,0,0,1,3.115-4.29.969.969,0,0,1,.724-.215,8.821,8.821,0,0,0-2.913,6.754c.024,1.056-.034,2.114.018,3.168.03.607-.135.771-.759.805a3.288,3.288,0,0,0-2.908,1.822,1.478,1.478,0,0,1-1.946.865" transform="translate(-114.925 -90.471)" fill="#cdcdcd"/>
        <path id="Trazado_133322" data-name="Trazado 133322" d="M173.9,171.551a3.242,3.242,0,0,0-.58,2.116q.029,7.71,0,15.419a2.98,2.98,0,0,0,.577,1.906,1.775,1.775,0,0,1-1.688-1.941c-.01-2.626,0-5.253,0-7.879,0-2.556-.007-5.112,0-7.668a1.8,1.8,0,0,1,1.688-1.954" transform="translate(-123.555 -123.088)" fill="#f0cf47"/>
        <path id="Trazado_133323" data-name="Trazado 133323" d="M202.462,146.411c-.009-.982-.067-1.966-.015-2.944a2.072,2.072,0,0,1,2.441-1.987c.014.3.265.486.375.743.545,1.262.28,2.587.319,3.887.01.344-.287.31-.517.31-.868,0-1.735-.006-2.6-.009" transform="translate(-145.241 -101.5)" fill="#f4f4f4"/>
        <path id="Trazado_133324" data-name="Trazado 133324" d="M202.4,146.455c.868,0,1.735.01,2.6.009.23,0,.527.034.517-.31-.039-1.3.226-2.626-.319-3.887-.111-.257-.362-.44-.375-.743a2,2,0,0,1,1.845,1.722c.162,1.424.034,2.859.064,4.289.008.37-.251.322-.483.322-1.127,0-2.253-.015-3.379.008-.387.008-.572-.09-.525-.5.034-.3.036-.6.052-.906" transform="translate(-145.182 -101.543)" fill="#d8d8d8"/>
        <path id="Trazado_133325" data-name="Trazado 133325" d="M190.371,129.988c0,.416-.389.559-.584.837a7.624,7.624,0,0,0-1.518,4.432c0,1.43,0,2.861.006,4.291-.927.059-.948.059-.924-.835a21.831,21.831,0,0,1,.225-4.96,5.775,5.775,0,0,1,2.8-3.766" transform="translate(-134.404 -93.267)" fill="#e8a43d"/>
        <path id="Trazado_133326" data-name="Trazado 133326" d="M58.895,219.927a3.61,3.61,0,0,0-.139,3.746c-.35.008-.7.044-1.05.018a1.893,1.893,0,0,1,0-3.778c.394-.028.794.008,1.191.014" transform="translate(-40.13 -157.781)" fill="#36597b"/>
        <path id="Trazado_133327" data-name="Trazado 133327" d="M221.954,139.2a2.7,2.7,0,0,1,1.875,2.622c.016,1.445.008,2.89.01,4.336-.928.059-.928.059-.929-.836,0-.868-.032-1.738.008-2.6a5.323,5.323,0,0,0-.965-3.517" transform="translate(-159.253 -99.879)" fill="#e8a43d"/>
        <path id="Trazado_133328" data-name="Trazado 133328" d="M159.616,183.089q.017-1.037.035-2.074c.064-.027.132-.083.192-.075.4.056,1-.249,1.153.177a3.66,3.66,0,0,1,.016,1.873c-.045.243-.36.152-.559.152-.279,0-.558-.034-.837-.053" transform="translate(-114.525 -129.787)" fill="#31465a"/>
        <path id="Trazado_133329" data-name="Trazado 133329" d="M240.187,159.461a17.331,17.331,0,0,1,2.127.134c0,.462.179,1.07-.047,1.351-.287.355-.8-.144-1.227-.2-1.051-.14-1.107-.253-.852-1.284" transform="translate(-172.244 -114.402)" fill="#31465a"/>
        <path id="Trazado_133330" data-name="Trazado 133330" d="M15.967,186.449a.264.264,0,0,1,.283.155.3.3,0,0,1-.283-.155" transform="translate(-11.456 -133.778)" fill="#36597b"/>
        <path id="Trazado_133331" data-name="Trazado 133331" d="M17.259,8.787a.279.279,0,0,1-.286.137.269.269,0,0,1,.286-.137" transform="translate(-12.178 -6.305)" fill="#36597b"/>
        <path id="Trazado_133332" data-name="Trazado 133332" d="M221.407,138.623a.162.162,0,0,1,.164.166l-.164-.166" transform="translate(-158.86 -99.463)" fill="#e8a43d"/>
        <path id="Trazado_133333" data-name="Trazado 133333" d="M198.259,129.614l-.166.112.166-.112" transform="translate(-142.133 -92.999)" fill="#e8a43d"/>
        <path id="Trazado_133334" data-name="Trazado 133334" d="M199.141,129.055l-.2.119.2-.119" transform="translate(-142.738 -92.597)" fill="#e8a43d"/>
        <path id="Trazado_133335" data-name="Trazado 133335" d="M65.925,75.447H63.114c-.171-.895-.447-1.123-1.375-1.129l-7.432-.049a6.712,6.712,0,0,1-.445-2.949c.035-1.478.007-2.957.01-4.435a8.084,8.084,0,0,1,.436-3.652c.257-.018.513-.05.77-.05q19.7,0,39.395,0c1.561,0,2.185.616,2.189,2.168q.008,3.347,0,6.695c0,1.7-.585,2.274-2.293,2.274H67.378c-1.009,0-1.28.215-1.453,1.129m14.762-8.695c-.071-1.451-.282-1.926-.98-1.943-1.34-.032-1.137,1.055-1.222,1.962-.792-.4-1.6-1.179-2.271-.155-.759,1.166.459,1.508,1.139,2.025-1.227.915-1.485,1.34-1.1,1.924.686,1.039,1.468.345,2.256.007.092.855-.275,2.018.979,2.1,1.41.095,1.1-1.177,1.22-2.041,1.27.621,1.822.642,2.162.025.614-1.114-.379-1.47-1.062-1.948,1.384-.949,1.616-1.329,1.249-1.986s-.779-.641-2.371.026m-22.5,0c-.815-.368-1.653-1.2-2.311-.08-.667,1.133.489,1.473,1.242,2-.8.433-1.684.818-1.187,1.82.6,1.2,1.493.363,2.274.1.059,1.621.252,2.1.971,2.1,1.426,0,1.107-1.188,1.225-2.055,1.285.619,1.779.619,2.169.029a1.018,1.018,0,0,0,.17-.737c-.107-.685-.766-.854-1.249-1.226.689-.52,1.827-.778,1.268-1.9-.65-1.3-1.567-.342-2.374-.021-.079-1.519-.367-2.014-1.118-2-.725.013-.971.443-1.08,1.968m9.069,1.925c-.775.441-1.737.839-1.124,1.9.633,1.094,1.461.27,2.205.021.13,1.677.362,2.171,1.086,2.107,1.308-.115,1.036-1.195,1.109-2.042,1.475.583,1.88.564,2.235-.084s.145-1-1.1-1.889c.651-.516,1.874-.8,1.2-1.972s-1.536-.25-2.308.05c-.168-1.546-.4-1.966-1.1-1.986s-.951.4-1.148,1.94c-.79-.314-1.689-1.223-2.33.035-.558,1.1.557,1.386,1.274,1.92m22.33,1.833c-.916,0-1.833-.012-2.748,0a1.055,1.055,0,1,0,.024,2.107q2.678.017,5.356,0a1.038,1.038,0,0,0,1.135-1.065A1.051,1.051,0,0,0,92.2,70.513c-.869-.012-1.738,0-2.607,0" transform="translate(-38.643 -45.332)" fill="#6adaf6"/>
        <path id="Trazado_133336" data-name="Trazado 133336" d="M46.227,68.891l7.432.049c.928.006,1.2.234,1.375,1.129a1.145,1.145,0,0,1-1.308.992c-2.4-.016-4.793.005-7.19-.009a3.764,3.764,0,0,1-3.878-3.664q-.125-4.013,0-8.033a3.751,3.751,0,0,1,3.878-3.663q20.126-.015,40.251,0a3.749,3.749,0,0,1,3.877,3.664c.085,2.676.085,5.358,0,8.033a3.75,3.75,0,0,1-3.878,3.662q-13.817.014-27.633.009a1.145,1.145,0,0,1-1.308-.992c.173-.914.444-1.129,1.453-1.129H86.289c1.708,0,2.291-.577,2.293-2.274q0-3.347,0-6.695c0-1.552-.629-2.168-2.189-2.168q-19.7,0-39.395,0c-.257,0-.513.033-.77.05a1.636,1.636,0,0,0-1.478,1.683q-.052,3.834,0,7.669a1.634,1.634,0,0,0,1.477,1.685" transform="translate(-30.562 -39.954)" fill="#020202"/>
        <path id="Trazado_133337" data-name="Trazado 133337" d="M204.337,191.55a3.573,3.573,0,0,1-2.145,3.244.739.739,0,0,0-.522.838,7.053,7.053,0,0,1-.008,1.267,1.006,1.006,0,0,1-1.035,1.028.952.952,0,0,1-1.062-1.049,2.478,2.478,0,0,0-1.367-2.667,3.478,3.478,0,0,1-.94-4.44,3.735,3.735,0,0,1,7.08,1.779m-3.741,1.484A1.6,1.6,0,1,0,199,191.426a1.573,1.573,0,0,0,1.594,1.608" transform="translate(-141.24 -134.674)" fill="#040404"/>
        <path id="Trazado_133338" data-name="Trazado 133338" d="M136.86,70.889c1.592-.667,2.012-.668,2.371-.026s.135,1.037-1.249,1.986c.683.479,1.677.834,1.062,1.948-.34.617-.893.6-2.162-.025-.125.864.19,2.135-1.22,2.041-1.254-.084-.887-1.247-.979-2.1-.788.337-1.57,1.031-2.256-.008-.386-.584-.128-1.009,1.1-1.924-.68-.517-1.9-.859-1.139-2.025.667-1.025,1.479-.248,2.271.155.084-.907-.118-1.994,1.222-1.962.7.017.909.492.98,1.943" transform="translate(-94.816 -49.469)" fill="#020304"/>
        <path id="Trazado_133339" data-name="Trazado 133339" d="M62.811,70.827c.108-1.525.355-1.955,1.08-1.968.751-.013,1.039.482,1.118,2,.807-.321,1.724-1.279,2.374.021.559,1.119-.579,1.376-1.268,1.9.484.372,1.143.541,1.249,1.226a1.017,1.017,0,0,1-.17.737c-.39.589-.884.589-2.169-.029-.118.867.2,2.056-1.225,2.055-.719,0-.912-.476-.971-2.1-.781.262-1.678,1.1-2.274-.1-.5-1,.391-1.387,1.187-1.82-.753-.53-1.909-.869-1.242-2,.658-1.118,1.5-.288,2.311.08" transform="translate(-43.265 -49.407)" fill="#020304"/>
        <path id="Trazado_133340" data-name="Trazado 133340" d="M97.67,72.749c-.718-.534-1.833-.824-1.274-1.92.642-1.258,1.54-.349,2.33-.035.2-1.544.449-1.96,1.148-1.94s.933.44,1.1,1.986c.773-.3,1.636-1.217,2.309-.05s-.549,1.457-1.2,1.972c1.243.892,1.448,1.249,1.1,1.889s-.76.667-2.235.084c-.073.847.2,1.927-1.109,2.042-.724.064-.956-.43-1.086-2.107-.744.249-1.573,1.073-2.205-.021-.614-1.061.349-1.459,1.124-1.9" transform="translate(-69.056 -49.403)" fill="#020304"/>
        <path id="Trazado_133341" data-name="Trazado 133341" d="M170.567,89.12c.869,0,1.738-.009,2.607,0a1.051,1.051,0,0,1,1.158,1.044,1.038,1.038,0,0,1-1.135,1.065q-2.678.016-5.356,0a1.055,1.055,0,1,1-.024-2.107c.916-.016,1.832,0,2.748,0" transform="translate(-119.622 -63.941)" fill="#020202"/>
        <path id="Trazado_133342" data-name="Trazado 133342" d="M51.632,74.4a1.634,1.634,0,0,1-1.477-1.685q-.053-3.834,0-7.669a1.636,1.636,0,0,1,1.478-1.683,8.085,8.085,0,0,0-.436,3.652c0,1.479.026,2.958-.01,4.435a6.712,6.712,0,0,0,.445,2.949" transform="translate(-35.968 -45.465)" fill="#55b1e2"/>
        <path id="Trazado_133343" data-name="Trazado 133343" d="M206.064,198.46a1.6,1.6,0,1,1,1.609-1.592,1.573,1.573,0,0,1-1.609,1.592" transform="translate(-146.708 -140.1)" fill="#e8a43d"/>
      </g>
    </g>
  </g>
</svg>
