<svg xmlns="http://www.w3.org/2000/svg" xmlns:xlink="http://www.w3.org/1999/xlink" width="90.997" height="90.997" viewBox="0 0 90.997 90.997">
  <defs>
    <clipPath id="clip-path">
      <rect id="Rectángulo_37147" data-name="Rectángulo 37147" width="77.241" height="77.238" fill="none"/>
    </clipPath>
  </defs>
  <g id="Grupo_86073" data-name="Grupo 86073" transform="translate(-0.278 -0.277)">
    <circle id="Elipse_5411" data-name="Elipse 5411" cx="45.498" cy="45.498" r="45.498" transform="translate(0.278 0.277)" fill="#2ff980"/>
    <g id="Grupo_87205" data-name="Grupo 87205" transform="translate(7.156 7.157)">
      <g id="Grupo_87204" data-name="Grupo 87204" clip-path="url(#clip-path)">
        <path id="Trazado_133344" data-name="Trazado 133344" d="M13.037,12.458c.124.153.152.195.187.23.754.749,1.391,1.767,2.3,2.166.851.373,1.989.095,3,.095,5.034,0,10.069-.008,15.1.014a1.568,1.568,0,0,0,1.278-.542c.588-.636,1.228-1.223,1.979-1.962H29.238c-1.488,0-1.83-.341-1.83-1.825q0-4.515,0-9.031c0-1.177.418-1.6,1.583-1.6q9.615,0,19.23,0C49.4,0,49.829.422,49.83,1.578q.006,4.671,0,9.342c0,1.107-.442,1.534-1.572,1.536-2.147,0-4.294,0-6.557.159.754.723,1.513,1.439,2.257,2.172a.8.8,0,0,0,.65.16q8.953,0,17.906,0c.225,0,.456.05.653-.148.739-.744,1.489-1.476,2.366-2.341H57.189c-2.234,0-2.375-.14-2.375-2.369q0-4.243,0-8.486c0-1.177.418-1.6,1.583-1.6q9.615,0,19.23,0c1.177,0,1.607.421,1.609,1.576q.006,4.671,0,9.342c0,1.108-.442,1.534-1.571,1.537-2.024,0-4.049.013-6.073-.009a1.189,1.189,0,0,0-.945.4c-1.327,1.351-2.679,2.679-4.008,4.028a1.805,1.805,0,0,1-1.379.576q-9.693-.018-19.386,0A1.787,1.787,0,0,1,42.5,16.87c-.923-.949-1.882-1.862-2.795-2.82-.338-.355-.539-.411-.907-.016C37.894,15,36.925,15.9,36,16.856a1.866,1.866,0,0,1-1.45.594q-9.654-.02-19.308,0a1.872,1.872,0,0,1-1.438-.617c-1.289-1.316-2.616-2.6-3.9-3.921a1.426,1.426,0,0,0-1.153-.463c-2.387.021-4.775.012-7.162.008C.427,12.455,0,12.034,0,10.868Q0,6.235,0,1.6C0,.426.42,0,1.585,0Q11.2,0,20.815,0c1.177,0,1.608.421,1.609,1.576q.006,4.671,0,9.342c0,1.108-.442,1.535-1.571,1.537-2.563,0-5.125,0-7.816,0m-1.78-9.966c-2.672,0-5.343.014-8.015-.012-.561-.005-.773.124-.763.729.036,2.023.032,4.046,0,6.069-.008.554.178.7.712.7q8.015-.025,16.029,0c.522,0,.73-.122.721-.688q-.046-3.034,0-6.069c.01-.592-.18-.745-.753-.739-2.645.028-5.291.012-7.937.012M38.578,9.966c2.7,0,5.4-.01,8.093.009.493,0,.686-.124.679-.651q-.039-3.073,0-6.147c.008-.557-.183-.7-.715-.695q-8.015.024-16.029,0c-.525,0-.728.127-.719.69.03,2.023.033,4.047,0,6.069-.01.6.185.742.755.736,2.645-.027,5.291-.012,7.937-.012m27.393,0c2.7,0,5.4-.009,8.093.008.478,0,.7-.095.692-.637-.027-2.075-.022-4.15,0-6.225,0-.469-.141-.63-.621-.628q-8.092.02-16.185,0c-.525,0-.657.183-.652.677.022,2.023.029,4.047,0,6.069-.009.577.154.757.741.75,2.645-.03,5.291-.013,7.937-.013" transform="translate(0 0)" fill="#010101"/>
        <path id="Trazado_133345" data-name="Trazado 133345" d="M0,77.485Q0,71.492,0,65.5c0-1.224.409-1.635,1.625-1.636,4.332,0,8.664.006,13-.009a1.89,1.89,0,0,1,1.448.6q2.846,2.877,5.723,5.722a1.972,1.972,0,0,1,.639,1.511c-.015,5.992-.008,11.984-.01,17.977,0,1.176-.422,1.6-1.581,1.6q-9.65,0-19.3,0C.435,91.267.005,90.828,0,89.7Q0,83.593,0,77.485m2.492.08c0,3.528,0,7.056-.006,10.584,0,.408,0,.645.552.643q8.172-.036,16.344,0c.436,0,.562-.113.56-.555q-.023-7.549,0-15.1c0-.437-.113-.569-.556-.56-1.4.028-2.8.017-4.2.008-1.016-.007-1.47-.459-1.477-1.472-.01-1.375-.025-2.75.01-4.125.013-.5-.121-.646-.635-.642q-4.942.037-9.884,0c-.581-.006-.725.136-.72.719.031,3.5.015,7,.015,10.506m15.569-7.654c-.273-.25-.58-.508-.86-.794s-.56-.627-.957-1.075c-.055,2.523-.426,1.99,1.71,2.035.012,0,.026-.039.106-.166" transform="translate(-0.001 -43.931)" fill="#010101"/>
        <path id="Trazado_133346" data-name="Trazado 133346" d="M0,173.336q0-5.992,0-11.984c0-1.275.395-1.669,1.67-1.669,4.306,0,8.612.008,12.919-.01a1.966,1.966,0,0,1,1.513.632q2.842,2.88,5.723,5.723a1.893,1.893,0,0,1,.607,1.446c-.013,6.018-.006,12.036-.01,18.055,0,1.118-.437,1.559-1.548,1.559q-9.65.005-19.3,0c-1.153,0-1.573-.433-1.574-1.611q0-6.07,0-12.14m2.492.008q0,5.331-.006,10.662c0,.379,0,.6.512.6q8.211-.03,16.422,0c.4,0,.522-.1.521-.515q-.021-7.588,0-15.176c0-.4-.1-.528-.515-.521-1.4.025-2.8.015-4.2.008-1.068-.006-1.511-.447-1.517-1.511-.007-1.349-.03-2.7.012-4.047.017-.542-.123-.688-.675-.683q-4.941.043-9.884,0c-.545,0-.684.13-.68.678.027,3.5.014,7,.014,10.506m13.7-9.388c0,.637,0,1.116,0,1.6,0,.189,0,.365.268.361.52-.008,1.04,0,1.7,0L16.2,163.956" transform="translate(-0.002 -109.851)" fill="#010101"/>
        <path id="Trazado_133347" data-name="Trazado 133347" d="M200.336,215.594q3.577,0,7.155,0c1.163,0,1.584.426,1.587,1.6q.006,3.422,0,6.844c0,1.069-.446,1.522-1.5,1.523q-7.233.007-14.466,0c-1.01,0-1.464-.462-1.467-1.479q-.012-3.5,0-7c0-1.047.459-1.481,1.54-1.483,2.385-.005,4.77,0,7.155,0m1.581,7.449c1.371.008,2.743,0,4.113.035.437.011.581-.109.567-.558-.032-1.034-.01-2.07-.01-3.105,0-1.377,0-1.377-1.4-1.3-3.525-.009-7.05-.012-10.575-.033-.365,0-.493.1-.488.476q.031,2.021,0,4.043c-.006.379.121.48.487.477,2.436-.022,4.872-.024,7.308-.033" transform="translate(-131.841 -148.324)" fill="#010101"/>
        <path id="Trazado_133348" data-name="Trazado 133348" d="M200.353,73.845q-3.577,0-7.155,0c-1.117,0-1.553-.437-1.556-1.548q-.007-3.422,0-6.844c0-1.131.426-1.57,1.531-1.571q7.194-.006,14.388,0c1.068,0,1.515.446,1.518,1.507q.01,3.461,0,6.922c0,1.105-.442,1.532-1.571,1.534q-3.578.007-7.155,0m1.567-2.518c1.371.008,2.743,0,4.113.035.437.011.581-.109.567-.558-.032-1.034-.01-2.07-.01-3.105,0-1.377,0-1.377-1.4-1.3-3.525-.009-7.05-.012-10.575-.033-.365,0-.493.1-.488.476q.031,2.021,0,4.043c-.006.379.121.48.487.477,2.436-.022,4.872-.024,7.308-.033" transform="translate(-131.844 -43.946)" fill="#010101"/>
        <path id="Trazado_133349" data-name="Trazado 133349" d="M200.437,159.7q3.538,0,7.077,0c1.122,0,1.56.432,1.563,1.541q.008,3.461,0,6.922c0,1.054-.457,1.5-1.527,1.5q-7.194.006-14.388,0c-1.07,0-1.519-.445-1.522-1.5q-.01-3.5,0-7c0-1.007.463-1.456,1.486-1.459,2.437-.007,4.874,0,7.311,0m1.48,7.449c1.371.008,2.743,0,4.113.035.437.011.581-.109.567-.558-.032-1.034-.01-2.07-.01-3.105,0-1.377,0-1.377-1.4-1.3-3.525-.009-7.05-.012-10.575-.033-.365,0-.493.1-.488.476q.031,2.021,0,4.043c-.006.379.121.48.487.477,2.436-.022,4.872-.024,7.308-.033" transform="translate(-131.841 -109.868)" fill="#010101"/>
        <path id="Trazado_133350" data-name="Trazado 133350" d="M200.341,119.774q3.578,0,7.155,0c1.162,0,1.582.427,1.584,1.6q.006,3.422,0,6.844c0,1.068-.447,1.519-1.506,1.52q-7.194.007-14.388,0c-1.11,0-1.541-.44-1.543-1.561q-.007-3.422,0-6.844c0-1.122.432-1.556,1.544-1.558,2.385-.005,4.77,0,7.155,0m1.579,7.449c1.371.008,2.743,0,4.113.035.436.011.581-.109.567-.558-.032-1.034-.01-2.07-.01-3.105,0-1.377,0-1.377-1.4-1.3-3.525-.009-7.05-.012-10.575-.033-.365,0-.493.1-.488.476q.031,2.021,0,4.043c-.006.379.121.48.487.477,2.436-.022,4.872-.024,7.308-.033" transform="translate(-131.844 -82.401)" fill="#010101"/>
        <path id="Trazado_133351" data-name="Trazado 133351" d="M91.981,95.765c-2.059.542-3.4-.51-4.717-1.927-2.193-2.352-4.528-4.57-6.8-6.846-.924-.925-.93-1.455-.025-2.361,2.714-2.717,5.437-5.424,8.138-8.153a2,2,0,0,1,1.579-.656c1.348.035,2.7.03,4.047,0,.449-.01.547.133.552.563.022,1.942.025,2.072-1.883,1.9a4.807,4.807,0,0,0-4.432,1.825c-1.6,1.837-3.408,3.486-5.151,5.192-.368.36-.438.561-.028.963,2.241,2.2,4.453,4.426,6.664,6.655a1.106,1.106,0,0,0,.884.357c1.141-.022,2.283.008,3.424-.017.4-.009.515.1.523.512.043,1.99.057,1.99-1.917,1.99h-.856" transform="translate(-54.875 -52.163)" fill="#030303"/>
        <path id="Trazado_133352" data-name="Trazado 133352" d="M91.98,191.585c-2.06.543-3.4-.512-4.716-1.928-2.193-2.351-4.529-4.57-6.8-6.846-.924-.925-.93-1.455-.024-2.361,2.714-2.717,5.437-5.424,8.138-8.153a2,2,0,0,1,1.58-.656c1.349.035,2.7.03,4.047,0,.451-.01.547.135.551.564.021,1.941.024,2.072-1.884,1.9a4.807,4.807,0,0,0-4.431,1.826c-1.6,1.837-3.408,3.486-5.151,5.192-.368.361-.436.562-.027.963,2.241,2.2,4.453,4.426,6.663,6.655a1.106,1.106,0,0,0,.884.357c1.141-.022,2.284.009,3.425-.017.4-.009.513.1.522.513.043,1.989.057,1.989-1.917,1.989H91.98" transform="translate(-54.875 -118.085)" fill="#030303"/>
        <path id="Trazado_133353" data-name="Trazado 133353" d="M172.673,130.279a2.492,2.492,0,1,1-2.483-2.519,2.466,2.466,0,0,1,2.483,2.519" transform="translate(-115.367 -87.896)" fill="#040202"/>
        <path id="Trazado_133354" data-name="Trazado 133354" d="M172.674,170.134a2.492,2.492,0,1,1-2.553-2.449,2.467,2.467,0,0,1,2.553,2.449" transform="translate(-115.367 -115.364)" fill="#040202"/>
        <path id="Trazado_133355" data-name="Trazado 133355" d="M167.688,74.291a2.492,2.492,0,1,1,2.447,2.557,2.468,2.468,0,0,1-2.447-2.557" transform="translate(-115.366 -49.441)" fill="#040202"/>
        <path id="Trazado_133356" data-name="Trazado 133356" d="M170.194,228.563a2.492,2.492,0,1,1,2.479-2.524,2.463,2.463,0,0,1-2.479,2.524" transform="translate(-115.367 -153.819)" fill="#040202"/>
        <path id="Trazado_133357" data-name="Trazado 133357" d="M136.951,134.246c-1.2,0-1.2,0-1.2-1.214,0-1.278,0-1.278,1.291-1.278,1.2,0,1.2,0,1.2,1.214,0,1.278,0,1.278-1.291,1.278" transform="translate(-93.394 -90.645)"/>
        <path id="Trazado_133358" data-name="Trazado 133358" d="M153.042,131.755c1.17,0,1.17,0,1.17,1.165,0,1.326,0,1.326-1.321,1.326-1.17,0-1.17,0-1.17-1.165,0-1.326,0-1.326,1.321-1.326" transform="translate(-104.381 -90.645)"/>
        <path id="Trazado_133359" data-name="Trazado 133359" d="M152.905,78.351c-1.184,0-1.184,0-1.184-1.23,0-1.262,0-1.262,1.23-1.262,1.262,0,1.262,0,1.262,1.23,0,1.262,0,1.262-1.307,1.262" transform="translate(-104.381 -52.19)"/>
        <path id="Trazado_133360" data-name="Trazado 133360" d="M138.242,77.181c0,1.17,0,1.17-1.165,1.17-1.326,0-1.326,0-1.326-1.321,0-1.171,0-1.171,1.165-1.171,1.326,0,1.326,0,1.326,1.321" transform="translate(-93.394 -52.19)"/>
        <path id="Trazado_133361" data-name="Trazado 133361" d="M137,171.68c1.243,0,1.243,0,1.243,1.248s0,1.243-1.248,1.243-1.243,0-1.243-1.248,0-1.243,1.248-1.243" transform="translate(-93.394 -118.112)"/>
        <path id="Trazado_133362" data-name="Trazado 133362" d="M154.212,172.854c0,1.317,0,1.317-1.33,1.317-1.161,0-1.161,0-1.161-1.174,0-1.317,0-1.317,1.33-1.317,1.161,0,1.161,0,1.161,1.174" transform="translate(-104.381 -118.112)"/>
        <path id="Trazado_133363" data-name="Trazado 133363" d="M138.242,228.866c0,1.2,0,1.2-1.214,1.2-1.278,0-1.278,0-1.278-1.292,0-1.2,0-1.2,1.214-1.2,1.278,0,1.278,0,1.278,1.291" transform="translate(-93.394 -156.567)"/>
        <path id="Trazado_133364" data-name="Trazado 133364" d="M154.212,228.882c0,1.184,0,1.184-1.23,1.184-1.262,0-1.262,0-1.262-1.23,0-1.262,0-1.262,1.23-1.262,1.262,0,1.262,0,1.262,1.307" transform="translate(-104.381 -156.567)"/>
        <path id="Trazado_133365" data-name="Trazado 133365" d="M16.724,7.961c2.646,0,5.292.016,7.937-.012.573-.006.763.146.753.739q-.051,3.034,0,6.069c.008.566-.2.689-.722.688q-8.015-.023-16.029,0c-.535,0-.72-.143-.712-.7.029-2.023.034-4.047,0-6.069-.011-.6.2-.734.762-.729,2.671.026,5.343.012,8.015.012m-.059,4.983h1.944c1.86,0,1.842,0,1.821-1.832-.006-.5-.146-.677-.661-.669-1.684.027-3.369.01-5.054.01-1.839,0-1.824,0-1.781,1.871.011.466.141.642.622.629,1.036-.029,2.073-.009,3.11-.009" transform="translate(-5.467 -5.468)" fill="#6adaf6"/>
        <path id="Trazado_133366" data-name="Trazado 133366" d="M104.476,15.44c-2.646,0-5.291-.015-7.937.012-.57.006-.765-.141-.755-.736.035-2.023.032-4.046,0-6.069-.008-.563.194-.692.719-.69q8.015.024,16.029,0c.531,0,.723.138.715.7q-.044,3.073,0,6.147c.007.527-.186.654-.679.651-2.7-.019-5.4-.009-8.093-.009m.08-4.983h-1.944c-1.909,0-1.892,0-1.844,1.888.012.486.18.617.639.612,1.684-.02,3.369-.008,5.054-.008,1.9,0,1.885,0,1.8-1.927-.019-.446-.173-.58-.6-.571-1.036.021-2.073.007-3.11.007" transform="translate(-65.897 -5.474)" fill="#6adaf6"/>
        <path id="Trazado_133367" data-name="Trazado 133367" d="M192.3,15.44c-2.646,0-5.291-.017-7.937.013-.588.007-.751-.173-.742-.75.032-2.023.026-4.046,0-6.069-.005-.494.127-.679.652-.677q8.093.024,16.185,0c.48,0,.625.159.62.628-.019,2.075-.024,4.15,0,6.225.007.542-.214.64-.692.637-2.7-.017-5.395-.008-8.093-.008m.016-2.491h1.944c1.909,0,1.892,0,1.843-1.888-.012-.487-.18-.617-.639-.611-1.685.02-3.369.008-5.054.008-1.9,0-1.885,0-1.8,1.927.019.447.174.579.6.571,1.036-.021,2.073-.007,3.11-.007" transform="translate(-126.328 -5.474)" fill="#6adaf6"/>
        <path id="Trazado_133368" data-name="Trazado 133368" d="M7.958,83.044c0-3.5.015-7-.015-10.506-.005-.583.138-.724.72-.719q4.941.047,9.884,0c.514,0,.648.138.635.642-.035,1.374-.019,2.75-.01,4.125.007,1.013.461,1.465,1.477,1.472,1.4.01,2.8.02,4.2-.008.443-.009.558.124.556.56q-.022,7.549,0,15.1c0,.443-.124.556-.56.555q-8.171-.022-16.343,0c-.55,0-.553-.235-.552-.643.01-3.528.006-7.056.006-10.584M16.68,81.8h4.356c1.9,0,1.874,0,1.884-1.87,0-.516-.145-.636-.644-.633-3.319.022-6.638.012-9.957.012-1.925,0-1.909,0-1.883,1.948.006.445.132.558.565.553,1.893-.022,3.786-.01,5.678-.01m-.08,4.983h4.434c1.9,0,1.877,0,1.887-1.867,0-.511-.137-.639-.641-.636-3.319.023-6.638.012-9.957.012-1.927,0-1.911,0-1.885,1.945.006.441.125.561.562.556,1.866-.023,3.734-.01,5.6-.01m.039,4.983h4.434c1.848,0,1.824,0,1.849-1.828.007-.55-.138-.681-.681-.676-3.319.027-6.638.013-9.957.013-1.869,0-1.849,0-1.848,1.907,0,.484.125.6.6.6,1.866-.029,3.734-.012,5.6-.012M14.777,76.817c1.976,0,1.976,0,1.9-1.991a.431.431,0,0,1,0-.078c.056-.351-.11-.437-.439-.43-.906.019-1.814.038-2.718-.006-.495-.024-.593.137-.593.6,0,1.9-.02,1.9,1.849,1.9" transform="translate(-5.464 -49.41)" fill="#dcdcdc"/>
        <path id="Trazado_133369" data-name="Trazado 133369" d="M53.754,79.142c-.081.127-.094.166-.106.166-2.136-.046-1.765.488-1.71-2.035.4.449.663.775.957,1.075s.587.545.86.794" transform="translate(-35.692 -53.162)" fill="#cacaca"/>
        <path id="Trazado_133370" data-name="Trazado 133370" d="M7.96,178.827c0-3.5.013-7-.014-10.507,0-.548.135-.682.68-.678q4.942.041,9.884,0c.553,0,.692.141.675.683-.041,1.348-.019,2.7-.012,4.047.006,1.064.45,1.505,1.517,1.511,1.4.007,2.8.017,4.2-.007.412-.007.517.118.516.521q-.02,7.588,0,15.176c0,.412-.119.516-.521.515q-8.211-.019-16.422,0c-.511,0-.513-.224-.512-.6q.015-5.331.006-10.662m8.747,6.269H12.274c-1.84,0-1.814,0-1.838,1.84-.007.566.169.668.694.664,3.293-.025,6.586-.012,9.879-.012,1.94,0,1.918,0,1.915-1.918,0-.5-.16-.59-.616-.584-1.867.025-3.734.01-5.6.01m-.1-2.491h4.434c1.894,0,1.871,0,1.882-1.873,0-.522-.154-.633-.647-.63-3.319.022-6.638.011-9.957.011-1.924,0-1.907,0-1.88,1.951.006.449.139.555.568.55,1.867-.022,3.734-.009,5.6-.009m-.007-4.983h4.434c1.9,0,1.879,0,1.888-1.866,0-.508-.132-.641-.639-.638-3.319.023-6.638.012-9.957.012-1.927,0-1.912,0-1.886,1.944.006.438.121.563.56.558,1.867-.024,3.734-.01,5.6-.01m-1.84-4.983c1.951,0,1.935,0,1.931-1.894,0-.458-.082-.639-.587-.61a22.223,22.223,0,0,1-2.485,0c-.527-.029-.7.1-.693.663.024,1.84,0,1.841,1.833,1.841" transform="translate(-5.467 -115.334)" fill="#dcdcdc"/>
        <path id="Trazado_133371" data-name="Trazado 133371" d="M51.907,173.4l1.965,1.954c-.657,0-1.178-.006-1.7,0-.272,0-.269-.171-.268-.361,0-.479,0-.959,0-1.6" transform="translate(-35.711 -119.297)" fill="#cacaca"/>
        <path id="Trazado_133372" data-name="Trazado 133372" d="M207.4,228.525c-2.436.008-4.872.011-7.308.033-.366,0-.493-.1-.487-.477q.031-2.021,0-4.043c-.006-.38.122-.478.488-.476,3.525.02,7.05.024,10.575.033a12.711,12.711,0,0,1-3.267,4.931" transform="translate(-137.325 -153.806)" fill="#ecb958"/>
        <path id="Trazado_133373" data-name="Trazado 133373" d="M224.59,228.541a12.711,12.711,0,0,0,3.267-4.931c1.4-.074,1.4-.074,1.4,1.3,0,1.035-.022,2.071.01,3.105.014.449-.13.569-.567.558-1.37-.034-2.742-.027-4.113-.035" transform="translate(-154.514 -153.822)" fill="#e7a85a"/>
        <path id="Trazado_133374" data-name="Trazado 133374" d="M207.4,76.81c-2.436.008-4.872.011-7.308.033-.366,0-.493-.1-.487-.477q.031-2.021,0-4.043c-.006-.38.122-.478.488-.476,3.525.02,7.05.024,10.575.033A12.71,12.71,0,0,1,207.4,76.81" transform="translate(-137.325 -49.429)" fill="#ecb958"/>
        <path id="Trazado_133375" data-name="Trazado 133375" d="M224.59,76.826a12.71,12.71,0,0,0,3.267-4.931c1.4-.074,1.4-.074,1.4,1.3,0,1.035-.022,2.071.01,3.105.014.449-.13.569-.567.558-1.37-.034-2.742-.027-4.113-.035" transform="translate(-154.514 -49.445)" fill="#e7a85a"/>
        <path id="Trazado_133376" data-name="Trazado 133376" d="M207.4,172.63c-2.436.008-4.872.011-7.308.033-.366,0-.493-.1-.487-.477q.031-2.021,0-4.043c-.006-.38.122-.478.488-.476,3.525.02,7.05.024,10.575.033a12.71,12.71,0,0,1-3.267,4.931" transform="translate(-137.325 -115.351)" fill="#ecb958"/>
        <path id="Trazado_133377" data-name="Trazado 133377" d="M224.59,172.646a12.71,12.71,0,0,0,3.267-4.931c1.4-.074,1.4-.074,1.4,1.3,0,1.035-.022,2.071.01,3.105.014.449-.13.569-.567.558-1.37-.034-2.742-.027-4.113-.035" transform="translate(-154.514 -115.368)" fill="#e7a85a"/>
        <path id="Trazado_133378" data-name="Trazado 133378" d="M207.4,132.7c-2.436.008-4.872.011-7.308.033-.366,0-.493-.1-.487-.477q.031-2.021,0-4.043c-.006-.38.122-.478.488-.476,3.525.02,7.05.024,10.575.033A12.71,12.71,0,0,1,207.4,132.7" transform="translate(-137.325 -87.883)" fill="#ecb958"/>
        <path id="Trazado_133379" data-name="Trazado 133379" d="M224.59,132.721a12.71,12.71,0,0,0,3.267-4.931c1.4-.074,1.4-.074,1.4,1.3,0,1.035-.022,2.071.01,3.105.014.449-.13.569-.567.558-1.37-.034-2.742-.027-4.113-.035" transform="translate(-154.514 -87.9)" fill="#e7a85a"/>
        <path id="Trazado_133380" data-name="Trazado 133380" d="M27.634,18.441c-1.037,0-2.074-.02-3.11.009-.481.013-.611-.163-.622-.629-.043-1.872-.058-1.871,1.781-1.871,1.685,0,3.369.017,5.054-.01.515-.008.656.167.661.669.021,1.833.039,1.832-1.821,1.832H27.634" transform="translate(-16.436 -10.966)"/>
        <path id="Trazado_133381" data-name="Trazado 133381" d="M115.517,15.958c1.037,0,2.074.014,3.11-.007.426-.009.58.124.6.571.081,1.927.1,1.927-1.8,1.927-1.685,0-3.369-.012-5.054.008-.46.005-.627-.125-.639-.612-.048-1.888-.065-1.887,1.844-1.887h1.944" transform="translate(-76.858 -10.974)"/>
        <path id="Trazado_133382" data-name="Trazado 133382" d="M203.248,18.447c-1.037,0-2.074-.014-3.11.007-.425.009-.581-.124-.6-.571-.082-1.928-.1-1.927,1.8-1.927,1.685,0,3.369.012,5.054-.007.459-.006.627.124.639.611.048,1.888.066,1.888-1.843,1.888h-1.944" transform="translate(-137.26 -10.972)"/>
        <path id="Trazado_133383" data-name="Trazado 133383" d="M22.166,98.288c-1.893,0-3.786-.013-5.678.01-.433.005-.559-.108-.565-.553C15.9,95.8,15.881,95.8,17.806,95.8c3.319,0,6.638.011,9.957-.012.5,0,.647.117.644.633-.01,1.87.011,1.87-1.884,1.87H22.166" transform="translate(-10.951 -65.898)"/>
        <path id="Trazado_133384" data-name="Trazado 133384" d="M22.087,114.257c-1.867,0-3.734-.013-5.6.01-.437.005-.556-.115-.562-.556-.026-1.946-.041-1.945,1.885-1.945,3.319,0,6.638.011,9.957-.012.5,0,.644.125.641.636-.01,1.867.011,1.867-1.887,1.867H22.087" transform="translate(-10.952 -76.884)"/>
        <path id="Trazado_133385" data-name="Trazado 133385" d="M22.134,130.224c-1.867,0-3.734-.017-5.6.012-.478.007-.6-.113-.6-.6,0-1.907-.021-1.907,1.848-1.907,3.319,0,6.638.014,9.957-.013.543,0,.689.127.681.676-.025,1.828,0,1.828-1.849,1.828H22.134" transform="translate(-10.96 -87.868)"/>
        <path id="Trazado_133386" data-name="Trazado 133386" d="M25.769,82.311c-1.869,0-1.852,0-1.849-1.9,0-.468.1-.629.593-.6.9.044,1.812.025,2.718.006.329-.007.495.079.439.43a.431.431,0,0,0,0,.078c.076,1.991.076,1.991-1.9,1.991" transform="translate(-16.456 -54.904)"/>
        <path id="Trazado_133387" data-name="Trazado 133387" d="M22.2,223.559c1.867,0,3.734.014,5.6-.01.456-.006.615.079.616.584,0,1.918.025,1.918-1.915,1.918-3.293,0-6.586-.012-9.879.012-.525,0-.7-.1-.694-.664.025-1.84,0-1.84,1.838-1.84Z" transform="translate(-10.955 -153.797)"/>
        <path id="Trazado_133388" data-name="Trazado 133388" d="M22.09,210.079c-1.867,0-3.734-.012-5.6.009-.429.005-.562-.1-.568-.55-.027-1.951-.044-1.951,1.88-1.951,3.319,0,6.638.01,9.957-.011.494,0,.651.108.647.63-.01,1.873.012,1.873-1.882,1.873H22.09" transform="translate(-10.95 -142.808)"/>
        <path id="Trazado_133389" data-name="Trazado 133389" d="M22.086,194.107c-1.867,0-3.734-.014-5.6.01-.44.006-.554-.119-.56-.558-.026-1.944-.041-1.944,1.886-1.944,3.319,0,6.638.011,9.957-.012.507,0,.642.129.639.637-.009,1.866.011,1.866-1.888,1.866H22.086" transform="translate(-10.953 -131.82)"/>
        <path id="Trazado_133390" data-name="Trazado 133390" d="M25.743,178.128c-1.835,0-1.809,0-1.833-1.841-.007-.564.166-.692.693-.663a22.22,22.22,0,0,0,2.485,0c.5-.029.586.153.587.61,0,1.894.019,1.894-1.931,1.894" transform="translate(-16.449 -120.824)"/>
      </g>
    </g>
  </g>
</svg>
