<svg xmlns="http://www.w3.org/2000/svg" xmlns:xlink="http://www.w3.org/1999/xlink" width="96" height="96" viewBox="0 0 96 96">
  <defs>
    <clipPath id="clip-path">
      <rect id="Rect치ngulo_36706" data-name="Rect치ngulo 36706" width="96" height="96" fill="#fff" stroke="#707070" stroke-width="1"/>
    </clipPath>
    <clipPath id="clip-path-2">
      <rect id="Rect치ngulo_37141" data-name="Rect치ngulo 37141" width="82.45" height="90.313" fill="none"/>
    </clipPath>
  </defs>
  <g id="Grupo_86068" data-name="Grupo 86068" clip-path="url(#clip-path)">
    <g id="Grupo_87183" data-name="Grupo 87183" transform="translate(6.775 2.844)">
      <g id="Grupo_87183-2" data-name="Grupo 87183" clip-path="url(#clip-path-2)">
        <path id="Trazado_133186" data-name="Trazado 133186" d="M65.162,88.278c.25,1.093.25,1.093-.879,1.361A23.779,23.779,0,0,1,35.869,73.545a.947.947,0,0,0-1.1-.788q-15.078.028-30.156.013c-3.069,0-4.589-1.523-4.59-4.6q0-17.06-.021-34.119c0-.829.234-1.028,1.024-1,1.642.059,1.631.017,1.646-1.638.031-3.526-.141-7.056.088-10.577A21.925,21.925,0,0,1,7.867,8.15c.3-.364.519-.512.877-.1a3.673,3.673,0,0,0,.544.435c.92.942.92.942.118,1.995A19.261,19.261,0,0,0,5.9,17.8c-.988,4.2-.465,8.468-.53,12.71A9.8,9.8,0,0,0,5.284,32.5c-.036.457.17.618.615.607,2.6-.063,2.026.4,2.094-2a3.49,3.49,0,0,0-.083-.594c.014-2.292.015-4.583.049-6.875a26.028,26.028,0,0,1,.163-3.431A17.188,17.188,0,0,1,42.3,21.227c.085,1.554.07,3.114.078,4.671,0,.394.095.658.533.559.69-.156,1.486.38,2.086-.319.03-.035.01-.115.009-.173a48.642,48.642,0,0,0-.211-6.337A19.822,19.822,0,0,0,13.145,6.746c-1.035.791-1.035.791-1.939-.063-.856-1.14-.856-1.14.307-2.032A22.5,22.5,0,0,1,47.362,18.8c.549,3.265.244,6.572.312,9.861.007.341-.108.46-.455.459-2.352-.011-4.7-.017-7.057,0-.545,0-.436-.343-.439-.648-.025-2.41.045-4.825-.087-7.23a14.537,14.537,0,0,0-28.86-.917,19.753,19.753,0,0,0-.161,3.432c0,2.793.037,5.587-.022,8.379-.017.815.24.947.985.945,12.555-.023,25.111-.005,37.666-.04.911,0,1.111.238,1.095,1.113-.057,3.086-.011,6.174-.032,9.261,0,.6.079.744.723.534A23.824,23.824,0,0,1,68.872,88.039c-1.184.566-.87-.612-1.295-.918a1.1,1.1,0,0,0-.1-.336c-.5-.7-.193-1.014.5-1.318a16.765,16.765,0,0,0,3.372-2.06.972.972,0,0,0,.488-.68c.367-2.766-.566-4.331-3.217-5.316-1.323-.491-2.724-.7-4.07-1.108a.873.873,0,0,0-1.264.538,5.269,5.269,0,0,1-8.992.711c-.335-.455-.33-1.268-.946-1.352a4.849,4.849,0,0,0-1.7.37A15.139,15.139,0,0,0,47.326,78a3.291,3.291,0,0,0-1.9,2.951c.029.806-.474,1.729.351,2.374a18.425,18.425,0,0,0,6.113,3.225l.045.012.384.109-.015-.008a.359.359,0,0,0,.389.129,19.991,19.991,0,0,0,10.439.392c1.528-.328,1.528-.328,2.026,1.1m-7.39-34.862.01-.012a6.5,6.5,0,0,0-5.629,5.048c-.1.6.013.747.6.487a5.556,5.556,0,0,1,2.061-.392c3.418.236,6.876-.413,10.266.475a6.438,6.438,0,0,0-7.085-5.682l-.223.075m-5.984-6.859.012-.006a4.628,4.628,0,0,0-.592.135,21.189,21.189,0,0,0-8.978,33.223c.141.17.238.418.516.424.081-.345.144-.689.244-1.022.11-.362.255-.714.385-1.071a8.506,8.506,0,0,1,5.3-3.642c1.221-.317,2.45-.6,3.662-.95.346-.1.974.049.944-.553-.034-.679.32-1.416-.448-2.016a8.725,8.725,0,0,1-3.367-5.79,34.568,34.568,0,0,1-.106-5.723A9.246,9.246,0,0,1,67.539,57.5c.553,2.086.3,4.209.317,6.317a8.684,8.684,0,0,1-3.1,6.922,2.195,2.195,0,0,0-.872,2.021c.034.49.14.727.655.832,1.062.216,2.109.509,3.162.772,3.308.828,6.1,2.242,6.805,6.093.231-.259.393-.426.54-.607a21.121,21.121,0,0,0-4.136-30.522,20.34,20.34,0,0,0-18.58-2.973c-.2.021-.409.009-.542.2m6.2,23.835a6.541,6.541,0,0,0,7.229-6.618,2.619,2.619,0,0,0-2.553-2.537c-2.674-.03-5.35.006-8.025.014A2.632,2.632,0,0,0,52,63.591a6.538,6.538,0,0,0,5.987,6.8m-25.605-.309c.673.023,1.348.018,2.018.075.6.052.649-.193.585-.721A22.993,22.993,0,0,1,35.51,60.7a23.709,23.709,0,0,1,11.528-15c.3-.17.668-.258.638-.732a19.164,19.164,0,0,0-.075-2.455c.018-1.938,0-3.877.073-5.813.03-.779-.186-.973-.967-.971q-21.516.038-43.033,0c-.807,0-1.015.207-1.013,1.013q.042,15.694.019,31.389c0,.205,0,.411.007.617A1.281,1.281,0,0,0,4,70.113c.41.031.822.027,1.233.027q13.139,0,26.278,0c.292,0,.583-.036.875-.056m28.859,3.8c-.272-.233.519-1.173-.541-.987a10.643,10.643,0,0,1-4.2-.015c-.2-.045-.437-.168-.544.208A3.483,3.483,0,0,0,57.232,76.7a2.5,2.5,0,0,0,2.675.035,2.794,2.794,0,0,0,1.334-2.85" transform="translate(0 0)" fill="#060505"/>
        <path id="Trazado_133187" data-name="Trazado 133187" d="M148.236,227.6c-.5-1.425-.5-1.425-2.026-1.1a19.992,19.992,0,0,1-10.439-.392.322.322,0,0,0-.389-.129l.015.008c-.083-.2-.217-.21-.384-.109l-.045-.012c.043-.335-.266-.337-.442-.454-2.214-1.473-4.479-2.886-6.022-5.144a3.291,3.291,0,0,1,1.9-2.951,15.139,15.139,0,0,1,4.322-1.429,4.851,4.851,0,0,1,1.7-.37c.616.084.611.9.946,1.352a5.269,5.269,0,0,0,8.992-.711.873.873,0,0,1,1.264-.538c1.346.407,2.747.617,4.07,1.108,2.651.985,3.584,2.551,3.217,5.316a.972.972,0,0,1-.488.68,16.781,16.781,0,0,1-3.372,2.06c-.7.3-1,.617-.5,1.318a1.1,1.1,0,0,1,.1.336c-.554.221-1.105.449-1.664.659-.293.11-.613.164-.752.5" transform="translate(-83.074 -139.32)" fill="#bfeabe"/>
        <path id="Trazado_133188" data-name="Trazado 133188" d="M15.052,35.359c.065-4.241-.458-8.509.53-12.71a19.262,19.262,0,0,1,3.5-7.319c.8-1.052.8-1.053-.118-1.995l1.919-1.806c.9.853.9.853,1.939.063A19.822,19.822,0,0,1,54.472,24.475a48.639,48.639,0,0,1,.211,6.337c0,.059.021.138-.009.173-.6.7-1.4.163-2.085.319-.438.1-.531-.165-.533-.56-.008-1.557.007-3.117-.078-4.671A17.188,17.188,0,0,0,17.8,25.053a25.976,25.976,0,0,0-.164,3.432c-.034,2.292-.035,4.583-.049,6.875H15.052" transform="translate(-9.678 -4.847)" fill="#7290e4"/>
        <path id="Trazado_133189" data-name="Trazado 133189" d="M37.25,135.415c-.292.019-.583.056-.875.056q-13.139,0-26.278,0c-.411,0-.824,0-1.233-.027a1.281,1.281,0,0,1-1.308-1.367c-.009-.205-.007-.411-.007-.617q0-15.694-.019-31.389c0-.806.206-1.014,1.013-1.013q21.516.038,43.033,0c.781,0,1,.192.967.971-.075,1.936-.054,3.875-.072,5.813a21.626,21.626,0,0,0-6.8,4.431,26.274,26.274,0,0,0-7.658,12.3,27.714,27.714,0,0,0-.761,10.843m-8.157-8.778c.183-.163.364-.308.527-.47,3.412-3.408,6.812-6.828,10.243-10.216.445-.439.344-.653-.037-1.025-1.536-1.5-3.069-3-4.546-4.559-.492-.518-.734-.4-1.159.042-1.451,1.5-2.959,2.946-4.407,4.449-.45.467-.721.567-1.207.026-.863-.961-1.826-1.833-2.724-2.764-.293-.3-.472-.384-.815-.032q-2.4,2.462-4.865,4.865c-.325.318-.265.48.019.763q4.318,4.291,8.614,8.6c.1.1.217.195.357.32m15.559-21.583c0-1.405,0-1.405-1.248-1.406-1.515,0-1.515,0-1.516,1.226,0,1.537,0,1.537,1.292,1.537,1.472,0,1.472,0,1.472-1.357m3.843,1.357c1.449,0,1.449,0,1.451-1.2,0-1.558,0-1.558-1.183-1.559-1.581,0-1.581,0-1.582,1.248,0,1.515,0,1.515,1.314,1.516" transform="translate(-4.868 -65.333)" fill="#f5c472"/>
        <path id="Trazado_133190" data-name="Trazado 133190" d="M125.6,129.224a20.339,20.339,0,0,1,18.58,2.973,21.121,21.121,0,0,1,4.136,30.521c-.147.181-.309.349-.54.607-.7-3.852-3.5-5.265-6.805-6.093-1.052-.263-2.1-.556-3.162-.772-.516-.1-.621-.342-.655-.832a2.2,2.2,0,0,1,.872-2.021,8.682,8.682,0,0,0,3.1-6.923c-.02-2.107.237-4.23-.317-6.317a9.246,9.246,0,0,0-18.177,2.069,34.568,34.568,0,0,0,.106,5.723,8.725,8.725,0,0,0,3.367,5.79c.768.6.414,1.337.448,2.016.03.6-.6.454-.944.553-1.212.347-2.441.633-3.662.95a8.506,8.506,0,0,0-5.3,3.642,22.527,22.527,0,0,1,5.964-29.923c.812-.6,1.857-.881,2.461-1.766l-.012.007c.223.046.432.053.542-.2" transform="translate(-73.276 -82.87)" fill="#fdfdfd"/>
        <path id="Trazado_133191" data-name="Trazado 133191" d="M91.219,147.821a27.714,27.714,0,0,1,.761-10.843,26.276,26.276,0,0,1,7.658-12.3,21.626,21.626,0,0,1,6.8-4.431,19.162,19.162,0,0,1,.075,2.455c.03.473-.343.561-.638.732a23.708,23.708,0,0,0-11.528,15,22.993,22.993,0,0,0-.526,8.736c.065.529.017.773-.585.721-.67-.058-1.345-.053-2.018-.075" transform="translate(-58.837 -77.739)" fill="#e68e57"/>
        <path id="Trazado_133192" data-name="Trazado 133192" d="M154.539,173.21c2.675-.008,5.35-.045,8.024-.014a2.619,2.619,0,0,1,2.553,2.537,6.541,6.541,0,0,1-7.228,6.618,8.213,8.213,0,0,1-3.243-5.209,32.671,32.671,0,0,1-.106-3.931" transform="translate(-99.9 -111.959)" fill="#f7f0e1"/>
        <path id="Trazado_133193" data-name="Trazado 133193" d="M120.277,131.674c-.6.886-1.648,1.165-2.461,1.766a22.526,22.526,0,0,0-5.964,29.923c-.13.356-.275.708-.385,1.071-.1.333-.163.677-.244,1.022-.278-.006-.375-.254-.516-.424a21.189,21.189,0,0,1,8.978-33.223,4.632,4.632,0,0,1,.592-.135" transform="translate(-68.477 -85.124)" fill="#bde2f4"/>
        <path id="Trazado_133194" data-name="Trazado 133194" d="M158.228,150.826a6.438,6.438,0,0,1,7.085,5.682c-3.39-.888-6.848-.239-10.266-.475a6.515,6.515,0,0,1,1.6-3.606c.44-.525.91-1.026,1.366-1.537l-.01.012.223-.076" transform="translate(-100.234 -97.486)" fill="#7290e4"/>
        <path id="Trazado_133195" data-name="Trazado 133195" d="M149.673,173.258a32.668,32.668,0,0,0,.106,3.931,8.213,8.213,0,0,0,3.243,5.209,6.538,6.538,0,0,1-5.987-6.8,2.632,2.632,0,0,1,2.638-2.34" transform="translate(-95.034 -112.007)" fill="#efdcbb"/>
        <path id="Trazado_133196" data-name="Trazado 133196" d="M163.377,207.061a2.794,2.794,0,0,1-1.334,2.85,2.5,2.5,0,0,1-2.675-.035,3.483,3.483,0,0,1-1.274-3.611c.107-.375.34-.253.544-.208a10.643,10.643,0,0,0,4.2.015c1.06-.185.269.754.541.987" transform="translate(-102.136 -133.175)" fill="#efdcbb"/>
        <path id="Trazado_133197" data-name="Trazado 133197" d="M153.089,151.062c-.456.512-.925,1.013-1.366,1.537a6.517,6.517,0,0,0-1.6,3.606,5.558,5.558,0,0,0-2.061.392c-.586.26-.7.117-.6-.487a6.5,6.5,0,0,1,5.63-5.048" transform="translate(-95.307 -97.658)" fill="#456edd"/>
        <path id="Trazado_133198" data-name="Trazado 133198" d="M15.022,86.309h2.536a3.516,3.516,0,0,1,.084.594c-.068,2.4.5,1.942-2.094,2-.445.011-.651-.151-.615-.608a9.8,9.8,0,0,1,.089-1.991" transform="translate(-9.648 -55.797)" fill="#4364be"/>
        <path id="Trazado_133199" data-name="Trazado 133199" d="M128.277,228.976c1.543,2.259,3.807,3.671,6.022,5.145.177.117.485.118.442.454a18.425,18.425,0,0,1-6.113-3.224c-.824-.644-.321-1.567-.351-2.374" transform="translate(-82.847 -148.027)" fill="#85d2b4"/>
        <path id="Trazado_133200" data-name="Trazado 133200" d="M147.031,131.117c-.11.257-.318.25-.542.2.133-.195.343-.183.542-.2" transform="translate(-94.702 -84.764)" fill="#bde2f4"/>
        <path id="Trazado_133201" data-name="Trazado 133201" d="M146.918,244.733c.167-.1.3-.086.384.109l-.384-.109" transform="translate(-94.979 -158.174)" fill="#85d2b4"/>
        <path id="Trazado_133202" data-name="Trazado 133202" d="M147.963,245.094a.322.322,0,0,1,.389.129.359.359,0,0,1-.389-.129" transform="translate(-95.654 -158.434)" fill="#85d2b4"/>
        <path id="Trazado_133203" data-name="Trazado 133203" d="M163.639,150.882l-.223.076.223-.076" transform="translate(-105.644 -97.541)" fill="#456edd"/>
        <path id="Trazado_133204" data-name="Trazado 133204" d="M51.681,143.033c-.14-.125-.254-.217-.357-.32q-4.305-4.3-8.614-8.6c-.284-.282-.345-.444-.019-.763q2.46-2.4,4.864-4.866c.343-.352.522-.271.815.032.9.931,1.86,1.8,2.724,2.764.486.541.757.441,1.208-.026,1.448-1.5,2.957-2.948,4.407-4.449.425-.44.667-.56,1.159-.042,1.477,1.557,3.011,3.06,4.546,4.559.381.372.483.585.038,1.025-3.431,3.388-6.832,6.808-10.243,10.215-.163.163-.343.308-.527.471m7.459-11.176c-.107-.128-.175-.221-.256-.3-.372-.376-.78-.72-1.111-1.129-.365-.451-.6-.347-.958.022-1.558,1.6-3.155,3.154-4.717,4.746-.319.325-.507.34-.821,0-.615-.669-1.278-1.294-1.922-1.938-1.446-1.446-1.44-1.44-2.866.033-.282.291-.4.473-.042.82q2.456,2.4,4.858,4.853c.292.3.465.319.769.013,2.25-2.274,4.517-4.531,6.778-6.794.1-.1.184-.206.287-.323" transform="translate(-27.456 -81.728)" fill="#040402"/>
        <path id="Trazado_133205" data-name="Trazado 133205" d="M107.48,109.787c0,1.358,0,1.358-1.472,1.357-1.293,0-1.293,0-1.292-1.537,0-1.227,0-1.227,1.516-1.226,1.248,0,1.248,0,1.248,1.406" transform="translate(-67.696 -70.066)" fill="#fdf8ee"/>
        <path id="Trazado_133206" data-name="Trazado 133206" d="M121,111.144c-1.314,0-1.314,0-1.314-1.516,0-1.249,0-1.249,1.582-1.248,1.184,0,1.184,0,1.183,1.559,0,1.2,0,1.2-1.451,1.2" transform="translate(-77.376 -70.065)" fill="#fdf8ee"/>
        <path id="Trazado_133207" data-name="Trazado 133207" d="M66.008,138.635c-.1.117-.19.225-.287.323-2.26,2.264-4.528,4.521-6.778,6.794-.3.307-.477.284-.769-.013q-2.408-2.448-4.858-4.853c-.355-.347-.239-.529.042-.82,1.426-1.473,1.419-1.479,2.866-.033.643.643,1.306,1.269,1.922,1.938.314.341.5.326.821,0,1.562-1.593,3.158-3.151,4.717-4.746.36-.368.593-.473.958-.022.331.408.739.753,1.111,1.129.08.081.148.174.256.3" transform="translate(-34.324 -88.506)" fill="#bbe5ba"/>
      </g>
    </g>
  </g>
</svg>
