<svg xmlns="http://www.w3.org/2000/svg" width="75.43" height="62.778" viewBox="0 0 75.43 62.778">
  <g id="Grupo_86275" data-name="Grupo 86275" transform="translate(-2713.485 -385.803)">
    <path id="Trazado_128760" data-name="Trazado 128760" d="M2748.654,392.046a1.467,1.467,0,0,1,1.263-1.294q9.124-2.4,18.234-4.858a2.264,2.264,0,0,1,1.227-.011q9.112,2.441,18.23,4.861c1.048.28,1.281.6,1.282,1.655,0,4.213.062,8.427-.012,12.638a23.534,23.534,0,0,1-10.709,19.944c-2.708,1.871-5.47,3.664-8.209,5.488-1.07.713-1.274.71-2.325.009l-8.862-5.911a4.4,4.4,0,0,1-.673,2.222,3.651,3.651,0,0,1-3.112,1.682q-18.886.013-37.772,0a3.713,3.713,0,0,1-3.716-3.77q-.029-4.985,0-9.969a3.744,3.744,0,0,1,3.892-3.836q11.622-.011,23.244,0c2.67,0,5.34-.024,8.01.016.693.01.817-.2.584-.786a.946.946,0,0,1-.043-.151c-.341-1.591-.341-1.591-1.937-1.591h-29.526c-2.723,0-4.227-1.5-4.228-4.215q0-4.671,0-9.341a3.767,3.767,0,0,1,4.017-4.029q13.507-.005,27.013,0c1.085,0,1.392.237,1.664,1.254-.262.989-.585,1.256-1.579,1.257-3.341,0-6.682,0-10.024,0q-6.147.008-12.293.025c-1.544-.009-3.088-.023-4.632-.024-1.238,0-1.651.41-1.653,1.64q0,4.553,0,9.107c0,1.449.36,1.812,1.8,1.812h30a3.39,3.39,0,0,1,.392,0c.366.043.5-.09.492-.478-.025-2.878-.029-5.756-.039-8.634Q2748.653,394.4,2748.654,392.046Zm12.538-1.61a1.854,1.854,0,0,0-.312.03c-3.076.809-6.15,1.628-9.229,2.427-.441.114-.466.386-.465.754.01,2.666-.007,5.332.009,8a40.6,40.6,0,0,0,.3,6.953,20.865,20.865,0,0,0,7.735,13.118c2.888,2.287,6.1,4.13,9.122,6.228.387.268.653.142.979-.078,1.928-1.3,3.865-2.585,5.8-3.878a29.839,29.839,0,0,0,3.74-2.7,20.594,20.594,0,0,0,7.465-15.329c.172-4.1.032-8.216.058-12.324a.683.683,0,0,0-.611-.795c-5.1-1.346-10.208-2.684-15.294-4.089a5.532,5.532,0,0,0-3.35,0C2765.177,389.391,2763.132,389.729,2761.192,390.436Zm-38.9,22.993c-1.542-.009-3.085-.023-4.628-.025-1.24,0-1.655.409-1.656,1.634q0,4.549,0,9.1c0,1.483.35,1.826,1.86,1.826h35.78c2.5,0,2.55-.069,2.584-2.608a1.858,1.858,0,0,0-.6-1.5,23.4,23.4,0,0,1-4.613-6.482c-.325-.656-.321-1.64-1.03-1.9a6.669,6.669,0,0,0-2.253-.036c-3.664-.009-7.328-.026-10.992-.025Q2729.516,413.405,2722.292,413.428Z" transform="translate(0 0)" fill="#583ae2"/>
    <path id="Trazado_128761" data-name="Trazado 128761" d="M2746.191,545.717c-.264.99-.585,1.253-1.585,1.253q-13.618,0-27.236,0a3.74,3.74,0,0,1-3.869-3.856q-.021-4.943,0-9.886a3.732,3.732,0,0,1,3.81-3.835q18.8-.015,37.6,0a3.729,3.729,0,0,1,3.822,3.822q.025,4.982,0,9.965a3.742,3.742,0,0,1-3.776,3.791c-1.57.02-3.14.008-4.709,0-1,0-1.323-.265-1.585-1.253.258-.988.581-1.253,1.572-1.256,1.536-.006,3.071.01,4.607-.007a1.247,1.247,0,0,0,1.377-1.347c.018-.806-.011-1.612-.019-2.418q.013-3.493.025-6.986c0-1.444-.36-1.8-1.8-1.8q-15.668,0-31.337,0c-.261,0-.522.016-.783.025-1.542-.008-3.084-.022-4.626-.024-1.24,0-1.657.409-1.658,1.631q0,4.548,0,9.1c0,1.488.349,1.833,1.853,1.833q13.334,0,26.668,0C2745.612,544.46,2745.923,544.7,2746.191,545.717Z" transform="translate(-0.003 -98.398)" fill="#583ae2"/>
    <path id="Trazado_128762" data-name="Trazado 128762" d="M2734.7,555.851a1.256,1.256,0,1,0-1.219-1.272A1.266,1.266,0,0,0,2734.7,555.851Z" transform="translate(-13.703 -114.815)" fill="#583ae2"/>
    <path id="Trazado_128763" data-name="Trazado 128763" d="M2734.7,555.851a1.256,1.256,0,1,1,1.292-1.2A1.26,1.26,0,0,1,2734.7,555.851Z" transform="translate(-13.703 -114.815)" fill="#583ae2"/>
    <path id="Trazado_128764" data-name="Trazado 128764" d="M2749.58,555.049c-.1-.958.224-1.538.948-1.7a1.272,1.272,0,0,1,1.463.877c.273.885-.369,1.571-1.519,1.622A1.95,1.95,0,0,1,2749.58,555.049Z" transform="translate(-24.724 -114.807)" fill="#583ae2"/>
    <path id="Trazado_128765" data-name="Trazado 128765" d="M2774.533,425.594c1.175,0,2.35-.01,3.525,0a1.27,1.27,0,0,1,1.416,1.236,1.257,1.257,0,0,1-1.383,1.269q-3.642.019-7.284,0a1.255,1.255,0,0,1-1.376-1.275,1.27,1.27,0,0,1,1.422-1.23C2772.079,425.585,2773.306,425.594,2774.533,425.594Z" transform="translate(-38.34 -27.267)" fill="#583ae2"/>
    <path id="Trazado_128766" data-name="Trazado 128766" d="M2750.472,428.115a1.949,1.949,0,0,1-.891-.8c-.1-.958.223-1.538.947-1.7a1.272,1.272,0,0,1,1.463.877C2752.263,427.378,2751.622,428.064,2750.472,428.115Z" transform="translate(-24.725 -27.266)" fill="#583ae2"/>
    <path id="Trazado_128767" data-name="Trazado 128767" d="M2735.99,490.747a1.255,1.255,0,1,1-1.218-1.272A1.264,1.264,0,0,1,2735.99,490.747Z" transform="translate(-13.703 -71.047)" fill="#583ae2"/>
    <path id="Trazado_128768" data-name="Trazado 128768" d="M2749.588,491.181c-.107-.953.218-1.537.942-1.694a1.273,1.273,0,0,1,1.462.877c.276.886-.365,1.57-1.517,1.621A1.936,1.936,0,0,1,2749.588,491.181Z" transform="translate(-24.728 -71.037)" fill="#583ae2"/>
    <path id="Trazado_128769" data-name="Trazado 128769" d="M2774.53,489.466c1.148,0,2.3-.006,3.446,0,.927.006,1.486.475,1.5,1.234s-.549,1.271-1.459,1.274q-3.563.013-7.127,0c-.909,0-1.47-.51-1.458-1.274s.57-1.228,1.5-1.234C2772.128,489.46,2773.329,489.466,2774.53,489.466Z" transform="translate(-38.34 -71.04)" fill="#583ae2"/>
    <path id="Trazado_128770" data-name="Trazado 128770" d="M2734.734,425.605a1.256,1.256,0,1,1-1.253,1.239A1.258,1.258,0,0,1,2734.734,425.605Z" transform="translate(-13.703 -27.277)" fill="#583ae2"/>
    <path id="Trazado_128771" data-name="Trazado 128771" d="M2848.82,404.246c2.223-.577,4.449-1.138,6.665-1.742a3.229,3.229,0,0,1,1.763-.006q6.388,1.728,12.783,3.423c1.2.321,1.415.606,1.415,1.876,0,2.563-.04,5.125.008,7.687a19.024,19.024,0,0,1-7.1,15.7q-3.569,2.42-7.142,4.836a1.276,1.276,0,0,1-1.538.068c-2.477-1.7-5.1-3.194-7.445-5.084a18.436,18.436,0,0,1-6.64-11.225,31.789,31.789,0,0,1-.3-5.938c-.009-2.067,0-4.135,0-6.2,0-1.06.3-1.425,1.344-1.7C2844.7,405.374,2846.758,404.808,2848.82,404.246Zm-.033,2.682c-1.463.385-2.92.8-4.394,1.138-.494.114-.606.325-.6.793.021,2.588-.025,5.178.02,7.765a15.96,15.96,0,0,0,4.555,11.106c2.25,2.351,5.176,3.787,7.778,5.664a.377.377,0,0,0,.494-.03c1.734-1.206,3.557-2.28,5.236-3.566a2.286,2.286,0,0,0,.342-.18,16.024,16.024,0,0,0,6.688-12.638c.11-2.637,0-5.282.046-7.923.011-.637-.165-.9-.787-1.065-3.739-.967-7.466-1.977-11.2-2.969a1.873,1.873,0,0,0-1-.042Q2852.377,405.964,2848.787,406.928Z" transform="translate(-87.582 -11.359)" fill="#583ae2"/>
    <path id="Trazado_128772" data-name="Trazado 128772" d="M2774.452,555.846c-1.175,0-2.35.006-3.524,0-.926-.007-1.484-.477-1.5-1.236s.547-1.269,1.458-1.272q3.564-.013,7.127,0c.91,0,1.471.509,1.458,1.273s-.573,1.229-1.5,1.235C2776.8,555.852,2775.626,555.846,2774.452,555.846Z" transform="translate(-38.34 -114.808)" fill="#583ae2"/>
    <path id="Trazado_128773" data-name="Trazado 128773" d="M2875.762,441.1a7.577,7.577,0,0,1-9.509-3.173,7.426,7.426,0,0,1-1.012-3.649c-.014-1.2.017-2.4-.013-3.6a1.41,1.41,0,0,1,1.111-1.568c1.41.056,1.4.055,1.413-1.325a10.3,10.3,0,0,1,.124-2.266,5.02,5.02,0,0,1,9.918.931c.021.68.038,1.363,0,2.04-.031.5.109.7.638.651a1.975,1.975,0,0,1,1.228.15,1.1,1.1,0,0,1,.634.934,25.671,25.671,0,0,1-.183,5.633A7.527,7.527,0,0,1,2875.762,441.1Zm-2.981-1.954a4.968,4.968,0,0,0,4.866-3.771,19.581,19.581,0,0,0,.168-3.041c.055-.629-.192-.709-.741-.7-2.822.027-5.644.049-8.465-.01-.823-.018-.985.27-.833.963-.007.626-.045,1.254-.014,1.878A4.968,4.968,0,0,0,2872.782,439.148Zm-.044-10.016c.7,0,1.41-.016,2.114.007.34.011.457-.093.445-.44-.025-.756.025-1.515-.022-2.269a2.505,2.505,0,0,0-5,0c-.045.754,0,1.513-.021,2.269-.011.349.109.45.446.439C2871.38,429.116,2872.059,429.132,2872.737,429.132Z" transform="translate(-103.991 -24.523)" fill="#583ae2"/>
  </g>
</svg>
