<svg xmlns="http://www.w3.org/2000/svg" width="69.593" height="69.177" viewBox="0 0 69.593 69.177">
  <g id="Grupo_86276" data-name="Grupo 86276" transform="translate(-2665.379 -677.369)">
    <path id="Trazado_128774" data-name="Trazado 128774" d="M2717.344,734.932a1.245,1.245,0,0,0,.212.07c1.955.111,2,.168,2.227,2.088.309,2.6.638,5.192.971,7.786.149,1.156-.277,1.668-1.452,1.668q-14.661,0-29.322,0c-1.1,0-1.562-.509-1.428-1.561q.538-4.249,1.083-8.5c.16-1.232.436-1.465,1.66-1.472.191,0,.382,0,.676,0-.1-1.493.343-2.981-.722-4.343a33.416,33.416,0,0,1-2-3.2c-8.08,3.353-15.138,2.146-20.656-4.873a15.484,15.484,0,0,1-.655-17.977c4.691-7.062,11.35-8.954,19.425-6.686,0-1.275.069-2.569-.013-3.853a4.645,4.645,0,0,1,6.736-4.654c.034.019.091,0,.194-.008,0-.519,0-1.041,0-1.562a4.584,4.584,0,0,1,6.552-4.269c.085.036.171.07.366.15,0-.626-.007-1.187,0-1.747a4.611,4.611,0,0,1,9.221-.029c.011.566,0,1.133,0,1.534a13.929,13.929,0,0,1,3-.272,4.478,4.478,0,0,1,3.917,4.605c.013,5.187,0,10.374,0,15.561q0,4.539,0,9.077v.907c.971-1.16,1.81-2.159,2.646-3.161q1.96-2.351,3.916-4.706a5.793,5.793,0,0,1,8.254-1.2c.4.267.8.527,1.2.8a3.422,3.422,0,0,1,.789,5.145q-7.976,10.311-15.976,20.6a3.258,3.258,0,0,0-.833,2.475A15.718,15.718,0,0,1,2717.344,734.932ZM2701.2,710.787V698.269q0-5.188,0-10.376a2.345,2.345,0,0,0-1.443-2.286,2.313,2.313,0,0,0-3.161,2.323q-.01,9.367.006,18.734a3.478,3.478,0,0,0,.207,1.044,15.835,15.835,0,0,1-2.952,15.864,36.429,36.429,0,0,1-2.662,2.645c.831,1.347,1.674,2.766,2.572,4.148a3.071,3.071,0,0,1,.53,1.891c-.041.9-.01,1.807-.01,2.7H2715.2c-.869-2.863.565-4.854,2.206-6.92,5.019-6.315,9.908-12.734,14.846-19.114a1.194,1.194,0,0,0-.322-2c-.375-.259-.759-.5-1.141-.755a3.467,3.467,0,0,0-5.034.724q-4.206,5.029-8.392,10.074a1.849,1.849,0,0,1-1.608.762c-1.031-.04-2.065-.022-3.1-.006a4.5,4.5,0,0,0-3.172,1.334,4.8,4.8,0,0,0-1.4,3.232h-2.28c.018-.3.013-.563.052-.818a6.918,6.918,0,0,1,7.011-6.061c.71,0,1.419,0,2.159,0v-.75q0-13.294,0-26.588a4.176,4.176,0,0,0-.01-.5,2.254,2.254,0,0,0-1.539-1.99,2.3,2.3,0,0,0-3.058,2.383q-.007,10.988,0,21.977v.828h-2.309v-.88q0-13.654,0-27.309c0-.264.011-.53-.011-.792a2.334,2.334,0,0,0-2.042-2.1,2.259,2.259,0,0,0-2.43,1.611,4.133,4.133,0,0,0-.12,1.136q-.009,13.762,0,27.525v.828Zm-5.766,2.322a13.832,13.832,0,1,0-13.708,13.831A13.848,13.848,0,0,0,2695.434,713.11Zm22.048,24.251h-25.644l-.855,6.84h27.355C2718.051,741.9,2717.768,739.649,2717.482,737.361Zm-23.211-34.578c0-3.077.035-6.288-.018-9.5a2.243,2.243,0,0,0-2.346-2.077,2.31,2.31,0,0,0-2.225,2.3c-.025,1.728-.016,3.458,0,5.186a.871.871,0,0,0,.256.6C2691.377,700.473,2692.835,701.631,2694.271,702.783Z" transform="translate(0 0)" fill="#583ae2"/>
    <path id="Trazado_128775" data-name="Trazado 128775" d="M2696.6,782.707c-1.036,1.043-1.994,2.014-2.959,2.977-.867.865-1.388.863-2.253,0q-2.192-2.187-4.378-4.381c-.744-.749-.748-1.3-.014-2.036.994-1,2-2,3.067-3.061-1-1-1.968-1.956-2.929-2.919-.914-.914-.916-1.385-.01-2.293q2.111-2.115,4.227-4.227c.923-.922,1.412-.919,2.355.027s1.854,1.878,2.859,2.9l1.387-1.383c.594-.594,1.177-1.2,1.786-1.779a1.168,1.168,0,0,1,1.838,0q2.361,2.324,4.686,4.684a1.168,1.168,0,0,1-.039,1.883c-1.009,1.023-2.037,2.026-3.122,3.1,1.013,1.009,1.979,1.966,2.94,2.929.906.908.906,1.391,0,2.3q-2.136,2.142-4.278,4.277c-.847.843-1.364.849-2.195.016C2698.607,784.752,2697.653,783.773,2696.6,782.707Zm-7.428-2.385c.607.565,1.16,1.056,1.685,1.575s1.052,1.1,1.631,1.7c1.051-1.065,2.006-2.041,2.97-3.007.883-.886,1.366-.89,2.239-.014.979.982,1.946,1.975,2.89,2.934l3.307-3.3c-.815-.8-1.657-1.614-2.489-2.441-1.49-1.484-1.487-1.635-.021-3.1.839-.841,1.675-1.683,2.447-2.458l-3.276-3.268c-.9.916-1.84,1.876-2.786,2.827-.931.935-1.434.939-2.353.015-.96-.964-1.908-1.939-2.824-2.871l-3.3,3.295c.959.949,1.951,1.921,2.933,2.9.848.848.851,1.35.01,2.19C2691.257,778.278,2690.263,779.248,2689.175,780.321Z" transform="translate(-14.986 -63.097)" fill="#583ae2"/>
  </g>
</svg>
