<svg xmlns="http://www.w3.org/2000/svg" width="68.786" height="68.79" viewBox="0 0 68.786 68.79">
  <g id="Grupo_86278" data-name="Grupo 86278" transform="translate(-2195.262 -457.866)">
    <path id="Trazado_128778" data-name="Trazado 128778" d="M2255.326,492.726c-.224,2.353-.28,4.6-.675,6.786a26.765,26.765,0,0,1-10.868,17.294,27.526,27.526,0,0,1-32.932-.128,2.16,2.16,0,0,1-.27-3.632c.538-.535,1.108-1.037,1.633-1.526-.449-.8-.83-1.48-1.212-2.159-.009-.016-.038-.022-.129-.069-.656.663-1.324,1.348-2,2.024a2.169,2.169,0,0,1-3.638-.249,27.649,27.649,0,0,1,1.28-34.717c.528-.614,1.16-.707,1.621-.266.44.421.407.993-.118,1.6a23.809,23.809,0,0,0-4.077,6.439q-5.592,13.58,2.843,25.633c.088.125.192.239.341.422,1-1,1.99-1.96,2.947-2.95.1-.105.07-.372.049-.559-.116-1.065-.344-2.127-.356-3.192-.044-4.075-.037-8.15-.013-12.224a4.282,4.282,0,0,1,4.125-4.43,12.768,12.768,0,0,1,2.523.416v-1.685c0-1.7.046-3.4-.01-5.1a4.4,4.4,0,0,1,6.481-4.247.611.611,0,0,0,.178.017c-.011-2.546,1.017-4.4,3.653-4.919,2.138-.422,3.693.565,4.915,2.9a4.538,4.538,0,0,1,3.454-.659.489.489,0,0,0,.408-.209c.467-.885.906-1.785,1.436-2.846-1.545-.42-2.979-.919-4.456-1.194a25.241,25.241,0,0,0-20.6,4.783c-.089.067-.178.135-.269.2a1.019,1.019,0,1,1-1.227-1.6,26.787,26.787,0,0,1,7.152-4.056,27.485,27.485,0,0,1,19.937.011l.32.118,1.115-2.193c-1.028-.352-2-.733-2.992-1.018a30.11,30.11,0,0,0-37.994,22.983c-1.852,9.187.307,17.527,6.1,24.911.166.211.347.411.506.626a1,1,0,0,1-.116,1.488.972.972,0,0,1-1.424-.211c-.894-1.146-1.814-2.281-2.6-3.5a32.156,32.156,0,0,1,38.822-47.292c.165.064.335.115.586.2.27-.535.538-1.063.8-1.593.372-.739.734-1.483,1.116-2.217a5.469,5.469,0,0,1,9.847.038q3.171,6.288,6.306,12.595,2.745,5.488,5.49,10.978a5.408,5.408,0,0,1-3.36,7.97c-.425.136-.407.376-.4.7a30.589,30.589,0,0,1-2.406,13.494c-4.661,10.609-12.648,17.266-24.088,19.372-9.7,1.787-18.447-.671-26.151-6.825-.122-.1-.245-.2-.36-.3a1.027,1.027,0,0,1-.238-1.478,1,1,0,0,1,1.539-.057,31.374,31.374,0,0,0,7.551,4.7,30.181,30.181,0,0,0,42.153-28.421c-.013-.977-.021-.977-1-.978Zm-23.542-.818c0,.591.028,1.039-.007,1.482a1.019,1.019,0,0,1-1,.983,1,1,0,0,1-.994-1.046c-.021-.783.035-1.57-.02-2.349a10.032,10.032,0,0,0-.325-2.019,5.73,5.73,0,0,1,.139-3.748,2.067,2.067,0,0,0,.19-.7c.012-3,.027-6-.005-9a2.267,2.267,0,0,0-1.881-2.224,2.323,2.323,0,0,0-2.776,2.469q-.009,8.528,0,17.057a4.683,4.683,0,0,1-.015.671,1,1,0,0,1-1.967.084,2.781,2.781,0,0,1-.035-.667c0-4.186,0-8.372-.009-12.558a3.54,3.54,0,0,0-.192-1.245,2.29,2.29,0,0,0-2.638-1.355,2.345,2.345,0,0,0-1.819,2.422c-.011,5.373,0,10.745-.015,16.117,0,.465.171.6.605.666a9.845,9.845,0,0,1,8.064,7.559,12.162,12.162,0,0,1,.245,2.129.968.968,0,0,1-.963,1.07.978.978,0,0,1-1.035-1c-.02-.178-.029-.357-.044-.536a7.8,7.8,0,0,0-6.68-7.248,2.244,2.244,0,0,1-2.2-2.591c0-1.7.012-3.4-.007-5.1a2.313,2.313,0,1,0-4.622-.015c-.013,4.275-.074,8.553.026,12.826A12.151,12.151,0,0,0,2222.76,515.6c2.851.2,5.726.09,8.59.1a7.963,7.963,0,0,0,1.465-.165,12.294,12.294,0,0,0,10.291-12.346c.01-3.246,0-6.492,0-9.737,0-.218-.018-.436-.03-.676h-4.62c0,.542.012,1.031,0,1.52-.023.754-.39,1.173-1,1.173s-.985-.42-1.007-1.172c-.015-.5,0-1.01,0-1.564C2234.823,492.714,2233.279,492.851,2231.784,491.907Zm14.813-1.2c3.919,0,7.838.021,11.756-.007a3.421,3.421,0,0,0,3.244-5.11q-5.9-11.863-11.849-23.7a3.452,3.452,0,0,0-6.259-.024q-5.944,11.876-11.863,23.765a3.922,3.922,0,0,0-.388,1.933c.142,1.948,1.6,3.136,3.737,3.142C2238.849,490.713,2242.723,490.705,2246.6,490.7Zm-1.469,2.061v.758c0,3.178.009,6.356-.007,9.534a20.724,20.724,0,0,1-.141,2.341,14.256,14.256,0,0,1-12.74,12.224c-2.919.2-5.862.167-8.79.083a13.806,13.806,0,0,1-8.9-3.605c-.378-.333-.734-.691-1.024-.966l-1.715,1.656c6.882,5.717,18.745,7.762,28.791,1.726a25.312,25.312,0,0,0,10.861-12.976,24.878,24.878,0,0,0,1.6-10.776ZM2231.8,480.4l.135.032,2.449-4.9a2.215,2.215,0,0,0-2.573,2C2231.76,478.483,2231.8,479.445,2231.8,480.4Z" transform="translate(0 0)" fill="#583ae2"/>
    <path id="Trazado_128779" data-name="Trazado 128779" d="M2374.959,488.813c.424.02.853.006,1.271.066a3.238,3.238,0,0,1,2.815,3.682q-.332,3.034-.612,6.073a3.479,3.479,0,0,1-3.31,3.339,3.377,3.377,0,0,1-3.6-3.075q-.417-3.326-.653-6.674a3.159,3.159,0,0,1,3.078-3.38c.334-.024.671,0,1.006,0Zm.03,2.046v.007a8.734,8.734,0,0,0-1,.007,1.114,1.114,0,0,0-1.093,1.207c.186,2.224.4,4.445.654,6.662a1.342,1.342,0,0,0,1.444,1.213,1.432,1.432,0,0,0,1.409-1.349q.336-3.163.641-6.328a1.222,1.222,0,0,0-1.182-1.414C2375.572,490.835,2375.28,490.859,2374.989,490.859Z" transform="translate(-128.344 -22.618)" fill="#583ae2"/>
    <path id="Trazado_128780" data-name="Trazado 128780" d="M2380.489,549.988a3.194,3.194,0,0,1-3.214,3.245A3.232,3.232,0,0,1,2374.03,550a3.23,3.23,0,0,1,6.459-.014Zm-3.228,1.22a1.171,1.171,0,0,0,1.207-1.173,1.215,1.215,0,0,0-1.16-1.239,1.25,1.25,0,0,0-1.256,1.225A1.211,1.211,0,0,0,2377.261,551.208Z" transform="translate(-130.657 -64.979)" fill="#583ae2"/>
  </g>
</svg>
