<svg xmlns="http://www.w3.org/2000/svg" width="66.698" height="65.806" viewBox="0 0 66.698 65.806">
  <g id="Grupo_86279" data-name="Grupo 86279" transform="translate(-2649.712 -260.185)">
    <path id="Trazado_128781" data-name="Trazado 128781" d="M2808.645,337.718c.167-.888.428-1.1,1.309-1.075a11.475,11.475,0,0,1,11.183,11.612c.023,2.822.011,5.643,0,8.465,0,.435.02.665.586.706a3.122,3.122,0,0,1,2.8,2.87c.022.237.019.477.019.716q0,8.92,0,17.841c0,2.345-1.275,3.639-3.6,3.64q-10.645.006-21.291,0a3.281,3.281,0,0,1-3.609-3.644q-.005-7.032-.005-14.064c0-1.387-.012-2.775,0-4.162a2.59,2.59,0,0,1,1.094-2.384c1.057-.584,1.081-1.407,1-2.371a4.16,4.16,0,0,1,0-.65,3.531,3.531,0,0,1,.572-1.9,3.185,3.185,0,0,1,3.029-1.258,2.327,2.327,0,0,0,.278.149,2.986,2.986,0,0,1,2.057,2.931c.021.606.024,1.215,0,1.821-.017.355.115.428.445.427q5.139-.017,10.278,0c.322,0,.462-.064.456-.424-.049-3.121.107-6.246-.078-9.363a5.542,5.542,0,0,0-11.05.069,3.317,3.317,0,0,1-2.35,3.35c-.173,0-.346,0-.519,0a2.937,2.937,0,0,1-3.1-3.078,11.825,11.825,0,0,1,1.061-4.641,15.407,15.407,0,0,1,2.548-3.639,14.4,14.4,0,0,1,3.7-2.241c.327-.113.647-.245.979-.343.869-.26,1.189-.1,1.576.749-.036.7-.494.986-1.1,1.179a9.456,9.456,0,0,0-6.4,6.472,7.644,7.644,0,0,0-.352,2.632.955.955,0,0,0,1.9.154,4.084,4.084,0,0,0,.073-.579,7.52,7.52,0,0,1,10.734-6.4,7.4,7.4,0,0,1,4.353,7.062c.031,2.5.02,4.991.028,7.487-.011.41-.021.82-.033,1.23-.006.2.062.295.287.332,1.518.252,1.762.049,1.7-1.456a.8.8,0,0,0-.027-.127c.006-2.322.008-4.644.022-6.967a13.447,13.447,0,0,0-.144-2.272,9.478,9.478,0,0,0-8.986-7.956C2809.385,338.59,2808.852,338.425,2808.645,337.718Zm-8.542,18.1c.009.365.017.729.027,1.093,0,.17-.009.316.238.374,1.436.339,1.824.008,1.686-1.471a2.383,2.383,0,0,0-.007-.966.957.957,0,0,0-1.866-.106A1.688,1.688,0,0,0,2800.1,355.82Zm-2.056,22.4c-.188,1.862.2,2.3,2.064,2.3h20.646c1.46,0,1.825-.361,1.825-1.8q0-8.565,0-17.13c0-2.062-.291-2.339-2.34-2.228-.239-.007-.477-.02-.715-.02h-19.661c-1.525,0-1.857.338-1.857,1.891q0,8.138,0,16.276C2798.01,377.749,2798.034,377.987,2798.047,378.224Z" transform="translate(-108.133 -56.504)" fill="#583ae2"/>
    <path id="Trazado_128782" data-name="Trazado 128782" d="M2667.3,320.357c1.54.878,3.082,1.752,4.615,2.64a.533.533,0,0,0,.6-.044c3.58-2.068,7.243-3.99,10.784-6.127a7.574,7.574,0,0,0,1.122-.772,1.64,1.64,0,0,1,2.083-.374c.29.886-.1,1.421-.825,1.927-2.746,1.91-5.751,3.37-8.629,5.048-1.364.8-2.758,1.542-4.129,2.327a1.367,1.367,0,0,1-1.469.017c-3.728-2.113-7.521-4.12-11.177-6.352a21.248,21.248,0,0,1-10.087-13.693,18.964,18.964,0,0,1-.476-4.322q0-14.127,0-28.255c0-1.212.538-1.591,1.7-1.206,2.32.766,4.641,1.529,6.958,2.307a4.463,4.463,0,0,0,4.25-.574c1.719-1.208,3.5-2.324,5.24-3.5a1.143,1.143,0,0,1,1.629.053c.273.786.2,1.09-.483,1.546-2,1.343-3.968,2.734-6.023,3.985a6.077,6.077,0,0,1-5.277.356q-2.682-.892-5.368-1.776c-.2-.067-.407-.123-.669-.2v.765c0,8.638.015,17.275,0,25.913-.017,7.4,3.382,12.885,9.46,16.835C2663.108,318.164,2665.2,319.269,2667.3,320.357Z" transform="translate(0 -6.58)" fill="#583ae2"/>
    <path id="Trazado_128783" data-name="Trazado 128783" d="M2754.531,281.161c-.818-.207-.982-.406-.982-1.263q-.005-6.168,0-12.336c0-.785-.006-.794-.749-.533-1.18.414-2.355.841-3.531,1.263-.765.228-1.522.486-2.3.677a6.044,6.044,0,0,1-4.953-.85c-3.26-2.123-6.54-4.216-9.812-6.32-.039-.145-.089-.287-.116-.434a.96.96,0,0,1,1.277-1.119,2.967,2.967,0,0,1,.62.346c3,1.932,6.021,3.843,9,5.812a4.4,4.4,0,0,0,4.075.508c2.25-.766,4.5-1.546,6.744-2.317,1.14-.391,1.7.006,1.7,1.214q0,6.993,0,13.986C2755.5,280.675,2755.312,280.936,2754.531,281.161Z" transform="translate(-60.865)" fill="#583ae2"/>
    <path id="Trazado_128784" data-name="Trazado 128784" d="M2703.686,294.581c.86.057,1.176.364,1.177,1.205,0,7.142.1,14.286-.046,21.425-.086,4.272-2.113,7.75-5.263,10.591a32.99,32.99,0,0,1-6.2,3.921c-1.512.851-3.046,1.662-4.56,2.51a1.5,1.5,0,0,1-1.65-.012c-.5-.3-1.031-.548-1.549-.819l-5.389-3a18.4,18.4,0,0,1-6.509-5.672,14.086,14.086,0,0,1-2.579-7.982c-.022-6.964-.011-13.928-.008-20.892,0-1.1.54-1.474,1.6-1.133,1.67.535,3.341,1.069,5,1.625a3.332,3.332,0,0,0,3.142-.407c2.06-1.4,4.178-2.722,6.251-4.106a1.39,1.39,0,0,1,1.726-.017c2.165,1.4,4.369,2.745,6.525,4.161a3.3,3.3,0,0,0,3.087.363C2700.19,295.736,2701.94,295.164,2703.686,294.581Zm-1.56,7.973a4.471,4.471,0,0,0-.447.059q-8.916,2.057-17.832,4.118-5.123,1.184-10.242,2.38c-.2.048-.543-.033-.54.395.014,2.012.006,4.025.006,6.047a1.937,1.937,0,0,0,.246-.019q9.834-2.273,19.667-4.55c2.632-.612,5.257-1.249,7.885-1.874.527-.106,1.051-.229,1.581-.312.378-.059.469-.245.465-.612-.02-1.7-.008-3.41-.009-5.115C2702.9,302.278,2702.9,302.278,2702.126,302.553Zm-15.249,29.21a1.427,1.427,0,0,0,2.06.142,16.183,16.183,0,0,1,1.7-.948c2.481-1.449,5.156-2.581,7.371-4.466a13.577,13.577,0,0,0,4.413-6.736c.81-2.851.375-5.767.488-8.654.011-.3-.124-.368-.4-.3-.773.2-1.55.384-2.325.574-.15.019-.3.025-.451.059q-4.427,1.024-8.852,2.053-8.474,1.959-16.95,3.911c-.467.108-.824.194-.716.857a13.234,13.234,0,0,0,4.785,8.255C2680.664,328.734,2683.867,330.095,2686.876,331.764Zm-13.8-29.782c0,1.5.019,2.995-.01,4.491-.011.55.109.717.7.58q8.877-2.081,17.763-4.119,5.406-1.248,10.814-2.484c.382-.087.6-.219.575-.681a20.568,20.568,0,0,1,0-2.212c.025-.5-.076-.651-.6-.457q-1.707.629-3.447,1.163a5.067,5.067,0,0,1-4.53-.6c-1.932-1.282-3.915-2.487-5.86-3.75a.773.773,0,0,0-.99.02c-1.911,1.275-3.843,2.52-5.758,3.789a4.689,4.689,0,0,1-3.915.665c-1.4-.367-2.777-.835-4.15-1.3-.525-.178-.61-.03-.6.467C2673.093,299.03,2673.075,300.506,2673.075,301.982Z" transform="translate(-15.811 -23.158)" fill="#583ae2"/>
    <path id="Trazado_128785" data-name="Trazado 128785" d="M2835.078,432.626c.188-.888.446-1.111,1.331-1.04a4.946,4.946,0,0,1,4.462,3.258,5,5,0,0,1-1.248,5.607,1.059,1.059,0,0,0-.379.892c.022,1.236.016,2.473.006,3.71a2.761,2.761,0,0,1-2.925,2.944c-.152,0-.3,0-.456,0a2.783,2.783,0,0,1-2.973-2.973q-.023-1.822,0-3.645a1.155,1.155,0,0,0-.39-.957,5.1,5.1,0,0,1-.513-6.85c.516-.676.918-.747,1.663-.3a1.133,1.133,0,0,1-.054,1.433,3.1,3.1,0,0,0,.629,4.578,1.57,1.57,0,0,1,.637,1.339c-.024,1.408-.014,2.818-.006,4.226,0,.965.254,1.189,1.27,1.183.906-.005,1.15-.248,1.153-1.161,0-1.344.031-2.688-.011-4.031a1.835,1.835,0,0,1,.779-1.666,3.061,3.061,0,0,0,1.072-3.369,3.122,3.122,0,0,0-2.794-2.26A1.231,1.231,0,0,1,2835.078,432.626Z" transform="translate(-133.916 -126.663)" fill="#583ae2"/>
  </g>
</svg>
