<svg xmlns="http://www.w3.org/2000/svg" width="97.708" height="97.708" viewBox="0 0 97.708 97.708">
  <g id="Grupo_86791" data-name="Grupo 86791" transform="translate(-0.278 -0.277)">
    <circle id="Elipse_5411" data-name="Elipse 5411" cx="48.854" cy="48.854" r="48.854" transform="translate(0.278 0.277)" fill="#2ff980"/>
    <g id="Grupo_86812" data-name="Grupo 86812" transform="translate(-265.577 948.932)">
      <path id="Trazado_131556" data-name="Trazado 131556" d="M332.72,11.018a1.364,1.364,0,0,1,1.55-1.172q14.471.023,28.942.012a2.932,2.932,0,0,1,3.12,3.114,13.9,13.9,0,0,1-.011,1.687c-.083.745.114,1.016.93.98,1.685-.074,3.376-.031,5.064-.02a5.274,5.274,0,0,1,5.6,5.649q0,23.514,0,47.029a5.262,5.262,0,0,1-5.57,5.6q-12.863.01-25.726-.017c-.745,0-.872.2-.824.894.195,2.778.327,5.56.764,8.317.108.681.308,1.007,1.089.942,1.038-.088,2.089-.033,3.134-.018a1.248,1.248,0,0,1,1.38,1.24,1.221,1.221,0,0,1-1.36,1.165q-14.069.008-28.138,0a1.214,1.214,0,0,1-1.329-1.2,1.234,1.234,0,0,1,1.333-1.206c1.152-.02,2.3-.025,3.457,0,.442.011.64-.081.731-.569a75.968,75.968,0,0,0,.859-9.112c.025-.377-.136-.469-.465-.443-.186.015-.375,0-.563,0-8.442,0-16.884-.07-25.324.034a5.621,5.621,0,0,1-5.814-5.827q.11-23.354,0-46.707a5.521,5.521,0,0,1,5.829-5.8c1.711.086,3.43-.008,5.144.028.544.011.689-.16.657-.678-.043-.694-.021-1.393-.008-2.089a2.906,2.906,0,0,1,2.985-3c5.976-.011,11.952,0,17.928-.011a1.287,1.287,0,0,1,1.457,1.167c-.226,1-.547,1.251-1.625,1.252-5.788,0-11.575.011-17.362-.011-.739,0-1,.254-.98.983.038,1.366.056,2.735-.007,4.1-.034.739.186.914.915.913q25.4-.032,50.8-.017c.67,0,1.341-.033,2.009.006.491.029.644-.118.631-.623-.036-1.392-.011-2.786-.012-4.179,0-1.146-.019-1.163-1.178-1.164l-28.293-.006c-1.157,0-1.44-.21-1.722-1.251m35.7,12.562-1.928-.005c-.1-.03-.151.006-.131.116-.011.294-.031.587-.031.881q0,17.316,0,34.631c0,2.036,0,2.036,2.094,1.909a8.82,8.82,0,0,1,1.121.042c.79.126.959-.19.957-.956q-.04-17.362-.018-34.725c0-2.025,0-2.025-2.062-1.892m4.983,37.536c.347.011.694.033,1.042.031,1.2-.008,1.054.123,1.054-1.088q0-19.274,0-38.549c0-.268.014-.537-.009-.8a2.785,2.785,0,0,0-2.889-2.615c-1.928-.014-3.857-.021-5.785-.047-.4-.005-.5.176-.491.535.017.67.025,1.341,0,2.009-.018.426.143.563.558.55.8-.024,1.607-.007,2.411-.006,2.476,0,3.612,1.148,3.613,3.651q0,17.643,0,35.287c0,.241,0,.482,0,.723,0,.36.23.367.494.321M330.071,75.964a68.337,68.337,0,0,1-.856,8.009h15.079a66.169,66.169,0,0,1-.862-8.009,10.13,10.13,0,0,1-.033-1.277c.066-.694-.239-.815-.875-.809-3.5.032-7,.016-10.5.016-1.988,0-1.988,0-1.951,2.07m42.54-4.525a2.772,2.772,0,0,0,2.887-2.763c.031-1.066.008-2.134.008-3.2,0-2.016,0-2.016-2.091-1.889-.321-.01-.641-.029-.962-.029q-29.417,0-58.833,0c-4.93,0-9.859.02-14.789-.022-.745-.006-.878.218-.847.888a28.263,28.263,0,0,1,0,3.534c-.166,2.1,1.159,3.56,3.5,3.555q35.043-.071,70.085-.031c.347,0,.694-.027,1.041-.042M361.836,20.675c-.187-.009-.373-.025-.56-.025q-25.49,0-50.979,0c-.186,0-.373.02-.559.031-.107-.025-.15.012-.119.122-.01.267-.029.534-.029.8q0,19.325-.019,38.649c0,.744.2.907.919.906q25.272-.032,50.544-.018c.267,0,.534-.019.8-.029.347.011.693.031,1.04.032,1.045,0,1.045,0,1.045-1.066V22.591c0-2.034,0-2.034-2.084-1.916M307.174,42.342v-4.98c0-4.364-.014-8.729.016-13.093,0-.619-.171-.778-.759-.733-.692.053-1.391.012-2.087.013-1.27,0-1.323.051-1.323,1.3q0,13.414,0,26.828c0,2.918.013,5.837-.012,8.755,0,.541.107.763.7.728a20.621,20.621,0,0,1,2.649,0c.669.048.838-.15.835-.824-.029-6-.017-12-.017-17.993M298,40.64v18.8c0,1.713,0,1.676,1.719,1.724.708.02.9-.175.893-.888-.027-7.846-.017-15.693-.016-23.539,0-4.124-.009-8.248,0-12.372a3.041,3.041,0,0,1,3.221-3.23c.911-.006,1.822-.028,2.731.009.508.02.657-.164.627-.647a11.612,11.612,0,0,1,0-1.686c.049-.587-.129-.792-.749-.776-1.713.042-3.428.013-5.142.015-2.205,0-3.289,1.091-3.29,3.31Q298,31,298,40.64" transform="translate(-22.027 -947.935)" fill="#020202"/>
      <path id="Trazado_131557" data-name="Trazado 131557" d="M353.012,12.712c.282,1.042.565,1.251,1.721,1.251l28.293.006c1.159,0,1.177.018,1.178,1.164,0,1.393-.023,2.787.013,4.179.013.5-.14.652-.631.623-.667-.039-1.339-.006-2.009-.006q-25.4,0-50.8.017c-.729,0-.95-.174-.915-.913.063-1.364.045-2.732.007-4.1-.02-.729.241-.986.98-.983,5.787.022,11.574.013,17.362.011,1.079,0,1.4-.254,1.626-1.252h3.174" transform="translate(-42.32 -949.629)" fill="#f2b558"/>
      <path id="Trazado_131558" data-name="Trazado 131558" d="M330.034,36.322c.186-.011.373-.031.559-.031q25.49,0,50.979,0c.187,0,.373.017.56.025q0,20.219,0,40.437c-.267.01-.534.029-.8.029q-25.272,0-50.544.018c-.721,0-.921-.162-.919-.906q.037-19.325.019-38.65c0-.267.019-.534.029-.8l.119-.122m39.848,27.512a9.511,9.511,0,0,0,1.329-2.922c1.078-.04,1.393-.318,1.585-1.4a16.053,16.053,0,1,0-2.784,6.432,1.347,1.347,0,0,0-.129-2.108" transform="translate(-42.324 -963.577)" fill="#f4f7f8"/>
      <path id="Trazado_131559" data-name="Trazado 131559" d="M376.109,149.181c-.347.014-.694.042-1.041.042q-35.043,0-70.086.031c-2.342,0-3.667-1.451-3.5-3.555a28.27,28.27,0,0,0,0-3.534c-.031-.67.1-.894.847-.888,4.929.041,9.859.021,14.788.021h58.833c.321,0,.641.019.962.029,0,.563.025,1.126,0,1.688-.092,2.051.42,4.183-.8,6.086-.012.019,0,.053,0,.08m-35.881-5.126c-.884,0-1.767-.016-2.65,0a1.21,1.21,0,0,0-1.281,1.165,1.2,1.2,0,0,0,1.286,1.237q2.649.028,5.3,0a1.214,1.214,0,0,0,1.325-1.2,1.227,1.227,0,0,0-1.329-1.2c-.883-.016-1.767,0-2.65,0" transform="translate(-25.526 -1025.676)" fill="#dae5ea"/>
      <path id="Trazado_131560" data-name="Trazado 131560" d="M317.97,62.155c0,6-.012,12,.017,17.993,0,.674-.166.872-.835.824a20.619,20.619,0,0,0-2.649,0c-.59.035-.7-.187-.7-.728.025-2.918.012-5.837.012-8.755q0-13.414,0-26.828c0-1.245.053-1.3,1.323-1.3.7,0,1.4.04,2.087-.013.587-.045.763.114.758.733-.03,4.364-.016,8.729-.016,13.093v4.98" transform="translate(-32.823 -967.748)" fill="#cbeaf8"/>
      <path id="Trazado_131561" data-name="Trazado 131561" d="M301.543,52.5q0-9.641,0-19.281c0-2.219,1.084-3.308,3.29-3.31,1.714,0,3.429.027,5.142-.015.62-.016.8.189.749.776a11.612,11.612,0,0,0,0,1.686c.03.483-.119.667-.627.647-.909-.037-1.821-.016-2.731-.009a3.041,3.041,0,0,0-3.221,3.23c-.013,4.124,0,8.248,0,12.372,0,7.846-.01,15.693.016,23.539,0,.713-.185.908-.893.888-1.718-.047-1.719-.011-1.719-1.724Z" transform="translate(-25.57 -959.79)" fill="#5c6b74"/>
      <path id="Trazado_131562" data-name="Trazado 131562" d="M392.175,171.7a66.169,66.169,0,0,0,.862,8.009H377.958a68.35,68.35,0,0,0,.856-8.009h13.361" transform="translate(-70.77 -1043.674)" fill="#c6d2db"/>
      <path id="Trazado_131563" data-name="Trazado 131563" d="M484.177,30.029a2.784,2.784,0,0,1,2.889,2.615c.022.266.009.535.009.8q0,19.274,0,38.549c0,1.21.142,1.08-1.054,1.088-.347,0-.694-.02-1.042-.031q.005-19.356.011-38.711c0-1.41.171-2.852-.79-4.077-.041-.052-.016-.156-.021-.237" transform="translate(-133.598 -959.872)" fill="#4a5a60"/>
      <path id="Trazado_131564" data-name="Trazado 131564" d="M457.81,76.731q0-20.219,0-40.437c2.084-.118,2.084-.118,2.084,1.916V75.7c0,1.067,0,1.07-1.045,1.066-.347,0-.694-.021-1.04-.032" transform="translate(-118.003 -963.554)" fill="#e2e6e9"/>
      <path id="Trazado_131565" data-name="Trazado 131565" d="M470.915,80.99c-2.094.127-2.094.127-2.094-1.909q0-17.316,0-34.631c0-.293.02-.587.031-.881l.131-.116,1.928,0q0,18.766,0,37.531" transform="translate(-124.516 -967.814)" fill="#ceedfb"/>
      <path id="Trazado_131566" data-name="Trazado 131566" d="M473.944,80.927q0-18.766,0-37.531C476,43.263,476,43.263,476,45.288q0,17.363.018,34.725c0,.767-.166,1.083-.957.957a8.888,8.888,0,0,0-1.121-.042" transform="translate(-127.545 -967.751)" fill="#a4ddf1"/>
      <path id="Trazado_131567" data-name="Trazado 131567" d="M475.087,29.963c.006.08-.02.184.021.237.962,1.225.791,2.667.79,4.077q-.006,19.355-.011,38.711c-.264.045-.493.039-.494-.322,0-.241,0-.482,0-.723q0-17.644,0-35.287c0-2.5-1.137-3.651-3.613-3.652-.8,0-1.608-.017-2.411.007-.415.012-.576-.125-.558-.551.028-.668.02-1.339,0-2.009-.009-.359.089-.54.491-.535,1.929.026,3.857.033,5.785.047" transform="translate(-124.508 -959.806)" fill="#5c6b74"/>
      <path id="Trazado_131568" data-name="Trazado 131568" d="M393.4,168.683H380.041c-.036-2.07-.036-2.07,1.951-2.07,3.5,0,7,.017,10.5-.016.636-.006.941.114.875.809a10.05,10.05,0,0,0,.032,1.277" transform="translate(-71.998 -1040.654)" fill="#b3bfc9"/>
      <path id="Trazado_131569" data-name="Trazado 131569" d="M484.185,149.19c0-.027-.01-.06,0-.079,1.222-1.9.71-4.035.8-6.086.025-.561,0-1.125,0-1.687,2.091-.127,2.091-.127,2.091,1.889,0,1.067.023,2.134-.008,3.2a2.772,2.772,0,0,1-2.887,2.763" transform="translate(-133.602 -1025.685)" fill="#c6d2db"/>
      <path id="Trazado_131570" data-name="Trazado 131570" d="M330.09,36.357l-.119.122c-.031-.109.012-.147.119-.122" transform="translate(-42.38 -963.612)" fill="#e2e6e9"/>
      <path id="Trazado_131571" data-name="Trazado 131571" d="M469.026,43.439l-.131.116c-.02-.11.026-.147.131-.116" transform="translate(-124.557 -967.799)" fill="#a4ddf1"/>
      <path id="Trazado_131572" data-name="Trazado 131572" d="M386.05,69.967a1.346,1.346,0,0,1,.129,2.107,15.99,15.99,0,1,1,2.785-6.432c-.192,1.083-.506,1.361-1.585,1.4-.919-.54-.961-.775-.755-2.16A13.183,13.183,0,0,0,383.43,53.75h-.006l-.241-.253c-.1-.124-.192-.255-.3-.37A13.581,13.581,0,0,0,360.948,68.5a13.072,13.072,0,0,0,9.322,7.4.831.831,0,0,0,.212.1c5.618.907,10.225-.81,13.715-5.341a1.542,1.542,0,0,1,1.853-.694" transform="translate(-58.492 -969.709)" fill="#030404"/>
      <path id="Trazado_131573" data-name="Trazado 131573" d="M402.355,64.02a13.184,13.184,0,0,1,3.193,11.134c-.205,1.385-.163,1.62.755,2.16a9.512,9.512,0,0,1-1.329,2.923,1.544,1.544,0,0,0-1.853.695c-3.489,4.531-8.1,6.249-13.714,5.341a.84.84,0,0,1-.212-.1c.82-.1,1.643-.047,2.472-.168a14.837,14.837,0,0,0,12-10.972,4.378,4.378,0,0,0,.26-2.58q0-.309-.005-.618c.187-.233.117-.509.125-.771a13.341,13.341,0,0,0-1.409-6.084c-.14-.3-.429-.569-.288-.959" transform="translate(-77.417 -979.979)" fill="#6de8aa"/>
      <path id="Trazado_131574" data-name="Trazado 131574" d="M390.661,148.071c.884,0,1.767-.013,2.65,0a1.227,1.227,0,0,1,1.329,1.2,1.214,1.214,0,0,1-1.325,1.2q-2.65.023-5.3,0a1.2,1.2,0,0,1-1.286-1.237,1.21,1.21,0,0,1,1.281-1.165c.883-.02,1.767,0,2.65,0" transform="translate(-75.958 -1029.692)" fill="#030404"/>
      <path id="Trazado_131575" data-name="Trazado 131575" d="M386.9,57.259c-.142.39.148.659.288.959A13.342,13.342,0,0,1,388.6,64.3c-.008.262.062.538-.125.771-.57-1.032-1.136-1.133-2.269-.4-.038-.159-.076-.315-.11-.471a9.774,9.774,0,0,0-10.91-7.986,9.32,9.32,0,0,0-5.552,2.63,1.169,1.169,0,0,0-.158,1.715,1.186,1.186,0,0,0,1.781.059c.167-.134.32-.285.487-.42A7.436,7.436,0,0,1,383.516,63.8a1.241,1.241,0,0,1-.015,1.014c-.579-.663-1.243-.8-1.8-.362a1.218,1.218,0,0,0-.094,1.844c.734.988,1.473,1.972,2.238,2.937a1.158,1.158,0,0,0,1.864.192,28.41,28.41,0,0,0,2.766-3.73,4.382,4.382,0,0,1-.26,2.58,14.838,14.838,0,0,1-12,10.972c-.829.121-1.652.07-2.472.168a13.071,13.071,0,0,1-9.322-7.4,13.581,13.581,0,0,1,21.934-15.374c.109.115.2.246.3.369.013.149.025.3.241.253ZM367.162,67.639c.054.228.1.408.139.591a9.761,9.761,0,0,0,9.373,7.974,9.521,9.521,0,0,0,7.017-2.638,1.213,1.213,0,0,0,.442-1.357,1.186,1.186,0,0,0-.984-.837,1.423,1.423,0,0,0-1.206.515,7.4,7.4,0,0,1-12.263-4.263,1.142,1.142,0,0,1,.3.091c.826.547,1.393.574,1.844.048.543-.633.33-1.224-.123-1.806-.69-.887-1.354-1.794-2.044-2.681a1.273,1.273,0,0,0-2.289-.008q-1.031,1.333-2.041,2.683c-.566.752-.591,1.381-.089,1.87s1.116.432,1.928-.181" transform="translate(-61.963 -973.217)" fill="#aff2d1"/>
      <path id="Trazado_131576" data-name="Trazado 131576" d="M421.047,63.651c-.216.045-.228-.1-.241-.253l.241.253" transform="translate(-96.115 -979.611)" fill="#6de8aa"/>
      <path id="Trazado_131577" data-name="Trazado 131577" d="M397.31,70.857a28.406,28.406,0,0,1-2.765,3.73,1.158,1.158,0,0,1-1.865-.193c-.765-.964-1.5-1.949-2.238-2.937a1.217,1.217,0,0,1,.094-1.843c.554-.434,1.218-.3,1.8.362a1.243,1.243,0,0,0,.014-1.015,7.436,7.436,0,0,0-11.777-3.591c-.166.135-.319.286-.486.419a1.186,1.186,0,0,1-1.781-.058,1.169,1.169,0,0,1,.159-1.715,9.315,9.315,0,0,1,5.551-2.63,9.775,9.775,0,0,1,10.911,7.986c.034.156.073.312.11.471,1.133-.737,1.7-.636,2.269.4q0,.309.006.618" transform="translate(-70.795 -978.384)" fill="#030404"/>
      <path id="Trazado_131578" data-name="Trazado 131578" d="M369.78,82.072c-.812.614-1.439.658-1.928.181s-.477-1.118.089-1.87q1.013-1.346,2.041-2.683a1.273,1.273,0,0,1,2.289.008c.69.887,1.355,1.793,2.044,2.681.453.583.666,1.173.122,1.806-.452.526-1.018.5-1.844-.048a1.143,1.143,0,0,0-.3-.091A7.4,7.4,0,0,0,384.56,86.32a1.423,1.423,0,0,1,1.206-.515,1.186,1.186,0,0,1,.984.837A1.213,1.213,0,0,1,386.309,88a9.521,9.521,0,0,1-7.017,2.638,9.761,9.761,0,0,1-9.373-7.974c-.039-.183-.085-.364-.139-.591" transform="translate(-64.581 -987.651)" fill="#030404"/>
    </g>
  </g>
</svg>
