<svg xmlns="http://www.w3.org/2000/svg" width="97.708" height="97.708" viewBox="0 0 97.708 97.708">
  <g id="Grupo_86784" data-name="Grupo 86784" transform="translate(-0.278 -0.277)">
    <circle id="Elipse_5411" data-name="Elipse 5411" cx="48.854" cy="48.854" r="48.854" transform="translate(0.278 0.277)" fill="#2ff980"/>
    <g id="Grupo_86810" data-name="Grupo 86810" transform="translate(-148.885 741.228)">
      <path id="Trazado_131621" data-name="Trazado 131621" d="M48.869,552.221a1.239,1.239,0,0,1,.019-1.891,15.522,15.522,0,0,1,10.479-6.187c7.973-1.016,14.69,2.92,17.471,10.137,2.344,6.081,1.2,11.716-3.056,16.677a1.728,1.728,0,0,0-.455,1.223q.017,18.112-.005,36.223c0,.624.134.846.784.8a23.349,23.349,0,0,1,2.363-.01c.81.019,1.272.4,1.271,1.2a70.856,70.856,0,0,1-.1,7.618A4.771,4.771,0,0,1,73.4,621.97a9.674,9.674,0,0,1-1.142.043q-33.369,0-66.738,0c-3.558,0-5.514-1.953-5.514-5.506q0-2.821,0-5.643c0-1.371.319-1.681,1.719-1.683.712,0,1.426-.035,2.135.012.493.032.584-.147.58-.6-.02-2.719-.01-5.44-.01-8.159q0-15.824,0-31.647c0-3.339,1.843-5.179,5.188-5.179q17.733,0,35.466.011c.65,0,.924-.04.752-.837a13.448,13.448,0,0,1-.11-4.7c.141-1.013.386-1.237,1.409-1.339A1.425,1.425,0,0,1,48,558.406a13.007,13.007,0,0,0,.066,4.019,13.514,13.514,0,0,0,5.63,8.958l.172.125.006,0a13.274,13.274,0,0,0,13.576,1.279,13.655,13.655,0,0,0,8.026-15.072,12.65,12.65,0,0,0-4.226-7.707l.006.007-.164-.164a2.81,2.81,0,0,0-.3-.334,13.654,13.654,0,0,0-14.15-2.3,13.483,13.483,0,0,0-5.891,4.432c-.692.88-.965.937-1.874.564m-.812,59.268L29.6,611.467c-1.652,0-1.62-.014-.992,1.545a1,1,0,0,0,1.126.728c2.44-.034,4.881-.01,7.321-.015q5.032-.011,10.064-.032c.424.018.849.035,1.273.055.239.011.448-.021.556-.279.268-.64.542-1.277.832-1.958a7.076,7.076,0,0,0-1.726-.022m19.978-2.334c.736.01,1.477-.03,2.207.044.7.071.829-.184.828-.84q-.032-17.032-.015-34.064v-.91a23.448,23.448,0,0,1-3.208,1.776c-.527.041-.539.394-.538.81q.01,16.27-.008,32.541c0,.6.183.779.735.644m5.187,2.347q-10.255-.016-20.511-.039c-.4,0-.518.23-.643.518-.382.886-.78,1.764-1.15,2.654a2.082,2.082,0,0,1-2.076,1.382q-9.951.009-19.9,0a2.117,2.117,0,0,1-2.123-1.429c-.343-.846-.756-1.665-1.082-2.517a.859.859,0,0,0-.968-.614c-3.3.024-6.609.012-9.913.012-3.965,0-7.931.01-11.9-.012-.535,0-.7.145-.679.68.038,1.219.012,2.44.012,3.659,0,.3,0,.61,0,.915.007,2.019.983,3.014,2.982,3.014q33.134,0,66.268,0c.253,0,.507-.024.76-.036a2.677,2.677,0,0,0,3.192-2.846c.031-1.085.006-2.173.006-3.26,0-2.207,0-2.207-2.274-2.083M62.234,576.327A16.156,16.156,0,0,1,50.4,571.612a1.3,1.3,0,0,0-1.042-.315q-17.885,0-35.771-.016c-.746,0-.911.214-.909.934q.034,18.034,0,36.068c0,.724.153.92.9.918q23.948-.037,47.9-.02c.253,0,.507-.019.76-.029.66.011,1.324-.024,1.978.045.68.073.834-.159.832-.828q-.035-15.779-.016-31.558c0-.127-.011-.255,0-.381.036-.364-.137-.406-.456-.363-.778.107-1.561.176-2.342.26m-14.031-7.3a21.3,21.3,0,0,1-1.247-2.45.918.918,0,0,0-1.049-.7q-18.185.033-36.371.017c-2,0-2.823.822-2.823,2.814q0,14.332,0,28.665c0,3.685.019,7.369-.017,11.054-.007.657.186.821.8.77a11.764,11.764,0,0,1,2.056,0c.7.065.872-.166.871-.863q-.034-18.182-.016-36.364c0-2.05.878-2.939,2.907-2.941q4.727-.006,9.455,0Z" transform="translate(159 -1275.096)" fill="#030303"/>
      <path id="Trazado_131622" data-name="Trazado 131622" d="M123.364,555.719c.909.373,1.183.317,1.875-.563a13.478,13.478,0,0,1,5.891-4.432,13.653,13.653,0,0,1,14.149,2.3,2.815,2.815,0,0,1,.3.334l.164.164-.006-.006a1.3,1.3,0,0,0,.195.723,15.127,15.127,0,0,1,1.156,8.237,14.792,14.792,0,0,1-4.942,9.174,9.558,9.558,0,0,1-3.5,2.224l-.84-.854a2.333,2.333,0,0,1,.269-.1,10.051,10.051,0,0,0,7.845-9.615,9.639,9.639,0,0,0-1.088-4.69,1.121,1.121,0,0,0-2.068.859c.069.217.161.427.251.636a7.712,7.712,0,0,1-3.082,9.627,3.035,3.035,0,0,1-1.956.689c.807-.685.975-1.354.516-1.911-.44-.533-1.107-.515-1.893.063q-1.381,1.014-2.752,2.041c-1.013.76-1.032,1.5-.065,2.272.829.665,1.662,1.324,2.494,1.986a3.052,3.052,0,0,0-.374.056,14.769,14.769,0,0,1-4.391.448c-1.07-.031-2.089-.343-3.149-.36l-.007,0-.172-.125a13.511,13.511,0,0,1-5.63-8.959,13,13,0,0,1-.066-4.019,1.425,1.425,0,0,0-.865-1.664,14.315,14.315,0,0,1,1.433-3.831c.113-.225.2-.46.3-.691m11.272,1.1a5.55,5.55,0,0,0-.5.415,1.028,1.028,0,0,0-.1,1.449.989.989,0,0,0,1.416.308c1.245-.875,2.473-1.777,3.658-2.732a.937.937,0,0,0,.068-1.485,28.781,28.781,0,0,0-3.78-2.939.959.959,0,0,0-1.351.3,1.076,1.076,0,0,0,.06,1.46c.189.227.524.315.614.651a10.72,10.72,0,0,0-5.482,3.113,10.1,10.1,0,0,0-1.577,11.2,1.135,1.135,0,1,0,2.068-.932c-.042-.119-.1-.233-.148-.35a7.591,7.591,0,0,1,.907-7.843,6.338,6.338,0,0,1,4.146-2.622" transform="translate(84.504 -1278.595)" fill="#f6d67d"/>
      <path id="Trazado_131623" data-name="Trazado 131623" d="M82.273,652.3c-.253.01-.507.029-.76.029q-23.948,0-47.9.02c-.749,0-.9-.194-.9-.918q.037-18.035,0-36.069c0-.72.163-.935.91-.934q17.885.036,35.77.016a1.3,1.3,0,0,1,1.042.315,16.157,16.157,0,0,0,11.836,4.715q0,.819,0,1.638a2.761,2.761,0,0,0-1.391-.3q-21.962.008-43.924.009a3.411,3.411,0,0,0-.976.11,1,1,0,0,0-.727,1.114,1.023,1.023,0,0,0,.871,1.011,3.344,3.344,0,0,0,.684.04l44.228,0a2.348,2.348,0,0,0,1.11-.187,6.162,6.162,0,0,1-.034,3.059,2.885,2.885,0,0,0-2.165-.927q-21.041.011-42.081.009a2.387,2.387,0,0,0-2.627,2.454q-.08,5.22,0,10.441a2.385,2.385,0,0,0,2.551,2.459c1.6.033,3.2.01,4.8.007a1.264,1.264,0,0,0,1.428-1.166l4.638,0c.251.963.546,1.164,1.728,1.165q14.627,0,29.254.009a3.057,3.057,0,0,0,2.612-1.12q.013,6.5.028,12.994m-22.81-2.823h6.7c.634,0,1.27.014,1.9-.014a1.117,1.117,0,0,0,.16-2.219,3.345,3.345,0,0,0-.68-.052q-8.072,0-16.144,0a2.912,2.912,0,0,0-.9.112,1.014,1.014,0,0,0-.727,1.185,1.03,1.03,0,0,0,.928.954,4.548,4.548,0,0,0,.759.03q4,0,8,0m-14.132-4.689q3.585,0,7.169,0a6.128,6.128,0,0,0,.835-.045,1.1,1.1,0,0,0-.031-2.181,4.879,4.879,0,0,0-.607-.038q-7.321,0-14.643,0a2.691,2.691,0,0,0-.755.072,1.025,1.025,0,0,0-.789,1.075,1.01,1.01,0,0,0,.82,1.048,3.893,3.893,0,0,0,.909.068q3.546.007,7.093,0m28.787-2.268c-.839,0-1.677,0-2.516,0-1.194,0-2.389-.016-3.582.031a1.054,1.054,0,0,0-1.082,1.133,1.076,1.076,0,0,0,1.068,1.079c.2.017.405.023.608.023q5.527,0,11.055,0a5.223,5.223,0,0,0,.758-.053,1.022,1.022,0,0,0,.844-.775,1.049,1.049,0,0,0-.3-1.112,1.427,1.427,0,0,0-1.135-.324q-2.859,0-5.718,0m1.775,6.956c1.346,0,2.692.007,4.037,0,.885-.006,1.423-.455,1.409-1.145-.014-.666-.53-1.128-1.366-1.133q-4.075-.023-8.149,0c-.847.005-1.344.451-1.357,1.128-.014.717.486,1.143,1.39,1.15,1.345.01,2.691,0,4.037,0m-34.391,0c1.218,0,2.436.007,3.654,0,.885-.007,1.422-.455,1.408-1.145-.014-.667-.526-1.127-1.364-1.133q-3.692-.026-7.385,0c-.846.007-1.319.467-1.312,1.165s.49,1.1,1.344,1.111c1.218.012,2.436,0,3.654,0m19.076-4.689c.99,0,1.98.013,2.969,0,.923-.016,1.392-.427,1.375-1.159-.016-.7-.472-1.092-1.357-1.1q-2.969-.024-5.938,0c-.879.007-1.42.479-1.4,1.158.021.658.534,1.085,1.381,1.1.989.018,1.979,0,2.969,0M38.2,618.137a1.129,1.129,0,1,0-1.116,1.1,1.144,1.144,0,0,0,1.116-1.1m2.827,1.1a1.125,1.125,0,0,0,1.134-1.078,1.1,1.1,0,0,0-1.106-1.171,1.124,1.124,0,1,0-.028,2.248m5.1-1.149A1.145,1.145,0,0,0,45,616.974a1.166,1.166,0,0,0-1.126,1.12,1.126,1.126,0,1,0,2.253-.006" transform="translate(138.963 -1318.244)" fill="#cdebf9"/>
      <path id="Trazado_131624" data-name="Trazado 131624" d="M75.89,726.343c-.253.013-.507.036-.76.036q-33.134,0-66.268,0c-2,0-2.975-1-2.982-3.015,0-.3,0-.61,0-.915,0-1.22.026-2.44-.012-3.659-.017-.536.144-.684.679-.68,3.965.022,7.931.012,11.9.012,3.3,0,6.609.012,9.913-.012a.859.859,0,0,1,.968.613c.326.853.739,1.671,1.082,2.518a2.117,2.117,0,0,0,2.123,1.429q9.951.008,19.9,0a2.082,2.082,0,0,0,2.076-1.381c.37-.89.769-1.769,1.15-2.654.124-.289.244-.52.643-.518q10.255.032,20.511.039c0,1.412-.036,2.826.014,4.237a6.229,6.229,0,0,1-.939,3.952" transform="translate(155.406 -1381.749)" fill="#828282"/>
      <path id="Trazado_131625" data-name="Trazado 131625" d="M58.786,603.635H33.354q-4.727,0-9.455,0c-2.029,0-2.907.891-2.907,2.941q0,18.182.016,36.364c0,.7-.171.929-.871.863a11.752,11.752,0,0,0-2.056,0c-.618.051-.81-.112-.8-.77.036-3.684.017-7.369.017-11.054q0-14.332,0-28.665c0-1.991.825-2.814,2.823-2.814q18.185,0,36.371-.017a.918.918,0,0,1,1.049.7,21.3,21.3,0,0,0,1.247,2.45" transform="translate(148.417 -1309.704)" fill="#e3e3e3"/>
      <path id="Trazado_131626" data-name="Trazado 131626" d="M175.085,621.632a23.377,23.377,0,0,0,3.208-1.776v.909q0,17.032.015,34.064c0,.657-.13.912-.828.841-.73-.074-1.471-.034-2.206-.044q0-16.651.007-33.3c0-.245.067-.519-.2-.693" transform="translate(51.76 -1321.568)" fill="#c7c7c7"/>
      <path id="Trazado_131627" data-name="Trazado 131627" d="M149.305,579.9a9.553,9.553,0,0,0,3.5-2.224,14.791,14.791,0,0,0,4.943-9.174,15.127,15.127,0,0,0-1.156-8.237,1.3,1.3,0,0,1-.195-.723,12.65,12.65,0,0,1,4.225,7.707,13.655,13.655,0,0,1-8.026,15.071,13.272,13.272,0,0,1-13.576-1.279c1.06.016,2.079.328,3.149.36a14.786,14.786,0,0,0,4.391-.448,2.982,2.982,0,0,1,.374-.056c.146.095.3.179.437.287a1.212,1.212,0,0,0,1.524.185,1.154,1.154,0,0,0,.411-1.468" transform="translate(73.85 -1284.627)" fill="#f2b541"/>
      <path id="Trazado_131628" data-name="Trazado 131628" d="M160.341,628.657q0-.819,0-1.638c.781-.084,1.564-.153,2.342-.26.319-.043.492,0,.456.363-.012.126,0,.254,0,.381q0,15.779.016,31.558c0,.67-.152.9-.832.828-.653-.07-1.318-.035-1.978-.045q-.014-6.5-.028-12.995a4.088,4.088,0,0,0,.36-1.833q-.023-4.741,0-9.482a3.546,3.546,0,0,0-.5-2.018,6.167,6.167,0,0,0,.035-3.059,1.253,1.253,0,0,0,.126-1.8" transform="translate(60.889 -1325.788)" fill="#a7ddf0"/>
      <path id="Trazado_131629" data-name="Trazado 131629" d="M91.713,720.36q-5.032.016-10.064.032c-2.44.005-4.881-.019-7.321.015a1,1,0,0,1-1.126-.728c-.627-1.558-.66-1.546.992-1.544l18.455.021a15.4,15.4,0,0,1-.935,2.2" transform="translate(114.408 -1381.764)" fill="#ababab"/>
      <path id="Trazado_131630" data-name="Trazado 131630" d="M174.223,624.438c.263.174.2.448.2.693q0,16.651-.007,33.3c-.553.135-.736-.044-.735-.644q.027-16.27.007-32.54c0-.416.012-.77.538-.81" transform="translate(52.622 -1324.375)" fill="#e3e3e3"/>
      <path id="Trazado_131631" data-name="Trazado 131631" d="M186.574,726.344a6.229,6.229,0,0,0,.939-3.952c-.051-1.411-.013-2.824-.014-4.237,2.274-.124,2.274-.124,2.274,2.083,0,1.087.025,2.174-.006,3.26a2.677,2.677,0,0,1-3.192,2.846" transform="translate(44.723 -1381.75)" fill="#585858"/>
      <path id="Trazado_131632" data-name="Trazado 131632" d="M121.6,720.328a15.4,15.4,0,0,0,.935-2.2,7.092,7.092,0,0,1,1.726.022c-.29.681-.564,1.318-.832,1.958-.108.258-.317.29-.556.279-.424-.02-.849-.036-1.273-.055" transform="translate(84.518 -1381.732)" fill="#828282"/>
      <path id="Trazado_131633" data-name="Trazado 131633" d="M138.559,614.694l.172.125-.172-.125" transform="translate(74.132 -1318.406)" fill="#f2b541"/>
      <path id="Trazado_131634" data-name="Trazado 131634" d="M183.618,559.3l-.164-.164.164.164" transform="translate(46.634 -1284.379)" fill="#f2b541"/>
      <path id="Trazado_131635" data-name="Trazado 131635" d="M156.751,586.913a1.154,1.154,0,0,1-.411,1.468,1.212,1.212,0,0,1-1.524-.185c-.136-.108-.291-.192-.437-.287-.832-.662-1.664-1.321-2.494-1.986-.967-.775-.947-1.512.065-2.271q1.37-1.028,2.752-2.041c.787-.578,1.453-.6,1.894-.063.46.557.291,1.226-.516,1.911a3.037,3.037,0,0,0,1.956-.689,7.713,7.713,0,0,0,3.082-9.627c-.09-.209-.181-.419-.251-.636a1.122,1.122,0,0,1,2.068-.859,9.638,9.638,0,0,1,1.088,4.69,10.051,10.051,0,0,1-7.845,9.615,2.312,2.312,0,0,0-.269.1l.84.854" transform="translate(66.404 -1291.639)" fill="#040302"/>
      <path id="Trazado_131636" data-name="Trazado 131636" d="M142.545,559.941a6.338,6.338,0,0,0-4.146,2.622,7.591,7.591,0,0,0-.907,7.843c.048.117.106.231.148.35a1.135,1.135,0,1,1-2.068.932,10.1,10.1,0,0,1,1.577-11.2,10.72,10.72,0,0,1,5.482-3.113c-.09-.336-.425-.424-.614-.651a1.076,1.076,0,0,1-.06-1.46.959.959,0,0,1,1.351-.3,28.783,28.783,0,0,1,3.78,2.939.937.937,0,0,1-.068,1.485c-1.184.955-2.413,1.857-3.658,2.732a.989.989,0,0,1-1.416-.308,1.028,1.028,0,0,1,.1-1.449,5.55,5.55,0,0,1,.5-.415" transform="translate(76.595 -1281.715)" fill="#040302"/>
      <path id="Trazado_131637" data-name="Trazado 131637" d="M56.191,659.635l-4.638,0a1.258,1.258,0,0,0-1.456-1.12c-1.422.026-2.845-.026-4.266.021-.649.021-.811-.2-.805-.821.028-3.047.037-6.094-.005-9.141-.01-.728.227-.868.9-.868q19.237.029,38.475.016c.228,0,.456.015.684.023q0,5.372,0,10.744c-.3.011-.608.031-.913.031q-13.188,0-26.377,0c-1.1,0-1.331.169-1.6,1.115" transform="translate(131.425 -1338.626)" fill="#ec7382"/>
      <path id="Trazado_131638" data-name="Trazado 131638" d="M52.574,656.035c.27-.945.5-1.114,1.6-1.115q13.188,0,26.377,0c.3,0,.608-.02.913-.031.762.011,1.523.014,2.284.038.357.011.495-.127.494-.49q-.012-4.917,0-9.835c0-.358-.126-.5-.489-.487-.761.025-1.523.022-2.285.03-.228-.008-.456-.023-.684-.023q-19.238,0-38.475-.016c-.677,0-.914.14-.9.868.042,3.047.033,6.094.005,9.141-.006.62.156.842.805.821,1.421-.047,2.844.005,4.266-.021a1.174,1.174,0,1,1,.028,2.285c-1.6,0-3.2.026-4.8-.007a2.385,2.385,0,0,1-2.551-2.459q-.077-5.22,0-10.441a2.387,2.387,0,0,1,2.627-2.455q21.041-.009,42.081-.009a2.883,2.883,0,0,1,2.165.927,3.543,3.543,0,0,1,.5,2.018q-.026,4.741,0,9.482a4.1,4.1,0,0,1-.359,1.833,3.056,3.056,0,0,1-2.611,1.121q-14.628-.022-29.254-.009c-1.182,0-1.477-.2-1.728-1.165" transform="translate(135.042 -1335.027)" fill="#030303"/>
      <path id="Trazado_131639" data-name="Trazado 131639" d="M86.269,631.207a1.253,1.253,0,0,1-.126,1.8,2.351,2.351,0,0,1-1.111.187l-44.228,0a3.341,3.341,0,0,1-.683-.039,1.024,1.024,0,0,1-.871-1.011,1,1,0,0,1,.727-1.114,3.4,3.4,0,0,1,.976-.11q21.962-.008,43.923-.009a2.768,2.768,0,0,1,1.392.3" transform="translate(134.961 -1328.338)" fill="#050606"/>
      <path id="Trazado_131640" data-name="Trazado 131640" d="M86.423,701.263q-4,0-8,0a4.546,4.546,0,0,1-.759-.03,1.03,1.03,0,0,1-.928-.954,1.015,1.015,0,0,1,.727-1.185,2.926,2.926,0,0,1,.9-.112q8.072-.009,16.145,0a3.372,3.372,0,0,1,.679.052,1.117,1.117,0,0,1-.16,2.219c-.633.028-1.269.013-1.9.014q-3.35,0-6.7,0" transform="translate(112.004 -1370.03)" fill="#050606"/>
      <path id="Trazado_131641" data-name="Trazado 131641" d="M51.332,689.192q-3.546,0-7.093,0a3.916,3.916,0,0,1-.908-.067,1.011,1.011,0,0,1-.82-1.048A1.026,1.026,0,0,1,43.3,687a2.7,2.7,0,0,1,.755-.072q7.322-.006,14.643,0a4.827,4.827,0,0,1,.608.038,1.1,1.1,0,0,1,.031,2.181,6.135,6.135,0,0,1-.835.045q-3.585.005-7.169,0" transform="translate(132.962 -1362.648)" fill="#010101"/>
      <path id="Trazado_131642" data-name="Trazado 131642" d="M128.212,686.923q2.859,0,5.718,0a1.427,1.427,0,0,1,1.135.324,1.048,1.048,0,0,1,.3,1.112,1.022,1.022,0,0,1-.844.775,5.328,5.328,0,0,1-.758.053q-5.527,0-11.055,0c-.2,0-.406-.006-.608-.023a1.076,1.076,0,0,1-1.068-1.08,1.054,1.054,0,0,1,1.082-1.132c1.193-.047,2.388-.027,3.582-.031.839,0,1.677,0,2.516,0" transform="translate(84.87 -1362.646)" fill="#010101"/>
      <path id="Trazado_131643" data-name="Trazado 131643" d="M135.57,701.255c-1.346,0-2.691.008-4.037,0-.9-.007-1.4-.432-1.39-1.15.013-.677.51-1.123,1.357-1.128q4.075-.023,8.149,0c.835,0,1.351.467,1.365,1.133.015.689-.523,1.138-1.409,1.145-1.345.009-2.691,0-4.037,0" transform="translate(79.287 -1370.021)" fill="#050606"/>
      <path id="Trazado_131644" data-name="Trazado 131644" d="M47.495,701.253c-1.218,0-2.437.009-3.654,0-.854-.008-1.337-.421-1.344-1.111s.467-1.157,1.312-1.164q3.693-.03,7.385,0c.838.005,1.35.466,1.364,1.133.014.689-.524,1.138-1.408,1.145-1.218.01-2.436,0-3.654,0" transform="translate(132.971 -1370.019)" fill="#050606"/>
      <path id="Trazado_131645" data-name="Trazado 131645" d="M97.75,689.182c-.99,0-1.98.014-2.969,0-.847-.016-1.361-.443-1.381-1.1-.021-.679.52-1.151,1.4-1.158q2.969-.022,5.938,0c.885.007,1.341.4,1.357,1.1.017.732-.453,1.143-1.375,1.159-.989.017-1.979,0-2.969,0" transform="translate(101.793 -1362.638)" fill="#010101"/>
      <path id="Trazado_131646" data-name="Trazado 131646" d="M43.306,622.167a1.129,1.129,0,1,1-1.062-1.157,1.146,1.146,0,0,1,1.062,1.157" transform="translate(133.858 -1322.274)" fill="#050606"/>
      <path id="Trazado_131647" data-name="Trazado 131647" d="M52.4,623.283a1.124,1.124,0,1,1,.028-2.249A1.1,1.1,0,0,1,53.53,622.2a1.126,1.126,0,0,1-1.134,1.078" transform="translate(127.595 -1322.29)" fill="#050606"/>
      <path id="Trazado_131648" data-name="Trazado 131648" d="M63.772,622.11a1.126,1.126,0,1,1-2.253.006A1.166,1.166,0,0,1,62.646,621a1.145,1.145,0,0,1,1.127,1.114" transform="translate(121.319 -1322.266)" fill="#050606"/>
      <path id="Trazado_131649" data-name="Trazado 131649" d="M148.407,647.755c.762-.009,1.524-.006,2.286-.031.363-.012.49.129.489.487q-.012,4.917,0,9.835c0,.363-.137.5-.494.49-.761-.023-1.523-.026-2.285-.038l0-10.744" transform="translate(68.102 -1338.637)" fill="#e35462"/>
    </g>
  </g>
</svg>
