<svg xmlns="http://www.w3.org/2000/svg" width="97.708" height="97.708" viewBox="0 0 97.708 97.708">
  <g id="Grupo_86788" data-name="Grupo 86788" transform="translate(-0.278 -0.277)">
    <circle id="Elipse_5411" data-name="Elipse 5411" cx="48.854" cy="48.854" r="48.854" transform="translate(0.278 0.277)" fill="#2ff980"/>
    <g id="Grupo_86808" data-name="Grupo 86808" transform="translate(-154.764 841.667)">
      <path id="Trazado_131579" data-name="Trazado 131579" d="M13.872,314.081q0-13.141,0-26.281c0-2.742,1.541-4.29,4.287-4.29q22.458,0,44.917,0c2.792,0,4.318,1.539,4.32,4.339,0,3.425.014,6.849-.014,10.274,0,.559.134.743.7.689.6-.057,1.321.161,1.8-.094s.3-1.051.455-1.6a11.518,11.518,0,1,1-.206,4.9c-.087-.553-.274-.678-.794-.675-1.935.012-1.936-.006-1.936,1.914,0,6.743.01,13.486-.016,20.229,0,.648.127.9.809.818.547-.069,1.262.171,1.62-.1.389-.293.148-1.044.116-1.584-.034-.593.385-.607.734-.734.967-.351,1.011-.369.542-1.228a.931.931,0,0,1,.232-1.336c1.256-1.182,2.483-2.4,3.658-3.661.478-.514.881-.664,1.459-.251s.978.361,1.1-.429c.115-.723.531-.927,1.268-.9,1.643.068,3.292.065,4.936,0,.751-.03,1.206.164,1.33.924.119.73.483.84,1.053.433.593-.422,1.016-.311,1.521.239,1.149,1.249,2.362,2.443,3.6,3.606.483.453.631.852.238,1.392-.459.63-.34,1.04.452,1.16.73.11.872.524.85,1.212-.055,1.724-.062,3.452,0,5.175.025.67-.207.983-.8,1.09-.736.134-1.023.445-.518,1.134.42.573.266.982-.249,1.461-1.244,1.156-2.45,2.357-3.6,3.6-.492.533-.909.626-1.471.221-.614-.443-.973-.272-1.092.456-.114.7-.5.891-1.2.865-1.67-.063-3.346-.066-5.016,0-.757.03-1.2-.177-1.321-.929-.11-.674-.409-.826-.983-.421a1.059,1.059,0,0,1-1.6-.245c-1.128-1.233-2.32-2.41-3.544-3.55-.507-.472-.685-.874-.262-1.459s.354-.994-.431-1.111c-.754-.112-.917-.557-.88-1.272.064-1.228.018-1.23-1.234-1.23-1.3,0-1.3,0-1.3,1.268q0,6.212,0,12.424a3.787,3.787,0,0,1-4.162,4.129c-.751-.013-1.006.14-.955.933.078,1.216.039,2.441.011,3.662-.009.42.112.534.531.53q3.344-.031,6.689,0c.4,0,.53-.117.6-.521a11.462,11.462,0,1,1,1.539,7.79,10.742,10.742,0,0,1-1.518-4.062c-.079-.555-.274-.679-.8-.674-2.946.023-5.894-.012-8.84.029-.656.009-.768-.2-.757-.793.035-1.99-.016-3.982.029-5.972.015-.693-.127-.92-.884-.918-13.539.027-27.078-.023-40.616.054a4.18,4.18,0,0,1-4.426-4.433c.087-8.733.034-17.467.034-26.2m26.762-17.828c-7.805,0-15.611.01-23.416-.017-.679,0-.812.183-.811.831q.03,21.664.016,43.328c0,1.359.379,1.734,1.752,1.734H63.094c1.371,0,1.752-.376,1.752-1.735q0-21.664.016-43.328c0-.649-.135-.833-.812-.83-7.805.027-15.611.017-23.416.017m-.04-2.551q11.708,0,23.416.013c.613,0,.882-.07.857-.791-.061-1.75-.015-3.5-.021-5.256,0-1.135-.458-1.607-1.591-1.607q-22.619-.007-45.238,0c-1.134,0-1.588.473-1.592,1.606-.006,1.726.032,3.453-.018,5.177-.02.68.128.881.853.878,7.779-.031,15.557-.019,23.336-.019m40.8,66.267a8.915,8.915,0,1,0-8.9-8.9,8.913,8.913,0,0,0,8.9,8.9m-.006-50.975a8.915,8.915,0,1,0-8.889-8.912,8.913,8.913,0,0,0,8.889,8.912m5.056,24.014c.238.012.331-.173.458-.3a13.258,13.258,0,0,1,1.194-1.169,1.2,1.2,0,0,0,.347-1.852,1.434,1.434,0,0,1,.69-1.969c1.16-.248,1.351-.948,1.21-1.937a1.935,1.935,0,0,1,0-.635c.189-.954-.208-1.444-1.141-1.667a1.49,1.49,0,0,1-.831-1.856,1.372,1.372,0,0,0-.442-2.163,2.251,2.251,0,0,1-.506-.5,1.231,1.231,0,0,0-1.922-.387,1.449,1.449,0,0,1-1.922-.653c-.268-1.292-1.089-1.422-2.144-1.279a1.509,1.509,0,0,1-.477,0c-.916-.178-1.4.2-1.615,1.1-.159.657-1.326,1.266-1.818.914-1.069-.765-1.716-.239-2.358.558a2.253,2.253,0,0,1-.451.448,1.145,1.145,0,0,0-.331,1.787c.387.633,0,1.852-.66,1.984-1.164.233-1.374.931-1.234,1.931a2.04,2.04,0,0,1,0,.635,1.232,1.232,0,0,0,1.123,1.658c.583.112,1.223,1.347.9,1.778-.863,1.139-.189,1.787.6,2.466a5.2,5.2,0,0,1,.727.735.66.66,0,0,0,1.01.168,1.7,1.7,0,0,1,1.772-.153,1.74,1.74,0,0,1,.916,1.288.676.676,0,0,0,.793.56,16.7,16.7,0,0,1,2.148,0c.5.034.684-.182.835-.613.5-1.412,1.31-1.742,2.643-1.114.167.079.332.163.486.238" transform="translate(150.525 -1115.553)" fill="#020202"/>
      <path id="Trazado_131580" data-name="Trazado 131580" d="M44.413,314.983c7.805,0,15.611.01,23.416-.017.677,0,.813.181.812.83q-.03,21.664-.016,43.328c0,1.359-.38,1.735-1.752,1.735H21.953c-1.373,0-1.752-.375-1.752-1.734q0-21.664-.016-43.328c0-.648.133-.834.811-.831,7.805.027,15.611.017,23.416.017M48.2,348.121c5.708,0,11.415-.011,17.123.016.634,0,.783-.17.77-.783-.038-1.779-.011-1.812-1.754-1.766-.65.017-.83-.131-.827-.809.028-7.141.009-14.282.032-21.424,0-.6-.15-.751-.744-.738-1.964.04-3.93.054-5.892,0-.794-.023-1.053.14-1.048,1,.042,6.716.023,13.433.023,20.149,0,1.809,0,1.78-1.788,1.82-.624.014-.78-.155-.776-.777.028-4.593,0-9.185.032-13.778,0-.651-.193-.778-.8-.768q-3.065.054-6.132,0c-.58-.011-.757.116-.752.73.03,4.274.016,8.548.016,12.822,0,1.758,0,1.721-1.757,1.773-.683.021-.81-.185-.807-.829.026-6.265.008-12.53.028-18.8,0-.587-.1-.819-.76-.8-2.043.05-4.088.045-6.131,0-.626-.013-.785.155-.782.78.025,5.973.015,11.946.015,17.919,0,1.708,0,1.66-1.726,1.728-.747.03-.838-.227-.837-.881q.032-13.141.014-26.282c0-.186-.006-.372,0-.558.008-.224-.072-.346-.318-.339a5.433,5.433,0,0,0-2.1.121c-.388.194-.159,1.084-.11,1.648.06.707-.214.814-.842.8-1.645-.045-3.292-.015-4.937-.015-1.926,0-1.905,0-1.9,1.954,0,.5.142.615.622.607,1.7-.03,3.4-.012,5.1-.012,1.993,0,1.979,0,1.953,1.98-.006.438-.1.6-.566.579-.874-.036-1.752-.011-2.628-.011-1.977,0-1.958,0-1.928,2.006.007.477.167.567.594.552.875-.03,1.752-.009,2.628-.009,1.928,0,1.907,0,1.9,1.952,0,.5-.139.617-.621.608-1.7-.03-3.4-.012-5.1-.012-1.993,0-1.967,0-1.959,1.978,0,.542.211.585.649.579,1.7-.02,3.4-.008,5.1-.008,1.979,0,1.96,0,1.931,2-.007.475-.163.569-.593.553-.848-.031-1.7-.009-2.548-.009-2.119,0-2.109,0-1.981,2.111.021.346.112.453.456.445.9-.021,1.8-.007,2.708-.007,1.994,0,1.969,0,1.961,1.976,0,.54-.208.586-.647.581-1.7-.021-3.4-.008-5.1-.008-1.947,0-1.922,0-1.934,1.923,0,.548.178.643.672.637,2.123-.025,4.248,0,6.371-.022.475-.005.648.093.632.606-.039,1.247.024,2.5-.028,3.742-.027.627.156.778.777.776,5.681-.025,11.362-.015,17.043-.015m-20.316,2.548c-1.511,0-3.022.011-4.533-.007-.4,0-.619.036-.613.538.027,2.2.023,4.4,0,6.6,0,.426.127.526.537.524q4.573-.025,9.147,0c.417,0,.536-.111.532-.53-.021-2.174-.025-4.348,0-6.522.006-.49-.124-.629-.619-.617-1.484.034-2.969.012-4.454.012m12.626,7.648c1.538,0,3.075-.016,4.613.01.445.008.581-.111.576-.567q-.035-3.261,0-6.522c0-.446-.118-.581-.573-.579q-4.533.029-9.067,0c-.452,0-.579.128-.575.577q.032,3.261,0,6.522c0,.452.126.577.574.569,1.485-.027,2.969-.01,4.454-.01m12.808,0c1.511,0,3.022-.014,4.533.009.425.006.6-.07.592-.551-.027-2.174-.021-4.348,0-6.522,0-.426-.078-.6-.556-.6q-4.533.033-9.067,0c-.433,0-.6.087-.592.56.025,2.174.031,4.348,0,6.522-.008.537.2.59.642.583,1.485-.023,2.969-.009,4.454-.009" transform="translate(146.745 -1134.283)" fill="#e4e7ea"/>
      <path id="Trazado_131581" data-name="Trazado 131581" d="M44.368,297.456c-7.779,0-15.557-.012-23.336.019-.725,0-.873-.2-.853-.878.051-1.724.013-3.451.018-5.176,0-1.134.459-1.606,1.592-1.606q22.619-.007,45.238,0c1.133,0,1.587.472,1.591,1.607.006,1.752-.04,3.506.022,5.256.025.721-.245.793-.857.791q-11.708-.03-23.416-.013m-19.075-3.849c0-1.245,0-1.245-1.171-1.245-1.38,0-1.38,0-1.38,1.354,0,1.2,0,1.2,1.211,1.2,1.34,0,1.34,0,1.34-1.307m5.1,0c0-1.248,0-1.248-1.167-1.248-1.383,0-1.383,0-1.383,1.351,0,1.2,0,1.2,1.207,1.2,1.343,0,1.343,0,1.343-1.3m5.1.065c0-1.312,0-1.312-.944-1.313-1.606,0-1.606,0-1.607.967,0,1.584,0,1.584.984,1.584,1.567,0,1.567,0,1.567-1.239" transform="translate(146.749 -1119.307)" fill="#7cd1b3"/>
      <path id="Trazado_131582" data-name="Trazado 131582" d="M167.7,446.248a8.915,8.915,0,1,1,8.942-8.859,8.917,8.917,0,0,1-8.942,8.859m5.918-11.743c.023-.24-.143-.317-.247-.426a10.868,10.868,0,0,1-.889-.91c-.42-.561-.708-.443-1.153.015-1.868,1.92-3.779,3.8-5.67,5.7-.272.273-.479.551-.877.106-.384-.429-.8-1.176-1.254-1.11-.49.07-.891.759-1.331,1.177a.67.67,0,0,1-.056.056c-.346.257-.384.479-.034.81.923.876,1.822,1.779,2.7,2.7.308.322.48.253.757-.026q3.869-3.9,7.759-7.771c.11-.11.212-.229.294-.318" transform="translate(64.21 -1201.832)" fill="#ec8673"/>
      <path id="Trazado_131583" data-name="Trazado 131583" d="M167.7,320.262a8.915,8.915,0,1,1,8.948-8.852,8.917,8.917,0,0,1-8.948,8.852m5.931-12.032a12.125,12.125,0,0,1-1.187-1.1c-.4-.462-.631-.42-1.043,0-1.907,1.955-3.857,3.87-5.781,5.809-.278.28-.463.427-.824.066-.416-.416-.766-1.21-1.319-1.1-.5.1-.885.783-1.321,1.209a1.181,1.181,0,0,1-.114.111c-.29.22-.225.408.011.639q1.421,1.393,2.812,2.814c.248.255.4.229.643-.01q3.929-3.948,7.872-7.882a.618.618,0,0,0,.251-.558" transform="translate(64.21 -1126.821)" fill="#ec8673"/>
      <path id="Trazado_131584" data-name="Trazado 131584" d="M172.678,381.694c-.154-.076-.319-.16-.486-.238-1.333-.628-2.146-.3-2.642,1.114-.151.43-.337.647-.836.613a16.7,16.7,0,0,0-2.148,0,.676.676,0,0,1-.793-.56,1.739,1.739,0,0,0-.916-1.288,1.7,1.7,0,0,0-1.772.153.659.659,0,0,1-1.009-.168,5.226,5.226,0,0,0-.727-.735c-.793-.679-1.467-1.327-.6-2.466.327-.431-.313-1.665-.9-1.778a1.232,1.232,0,0,1-1.123-1.659,2.039,2.039,0,0,0,0-.635c-.14-1,.069-1.7,1.234-1.931.662-.132,1.048-1.351.66-1.984a1.145,1.145,0,0,1,.331-1.787,2.242,2.242,0,0,0,.451-.448c.642-.8,1.29-1.323,2.358-.558.492.352,1.659-.257,1.818-.914.218-.905.7-1.279,1.615-1.1a1.5,1.5,0,0,0,.476,0c1.055-.143,1.876-.013,2.144,1.279a1.449,1.449,0,0,0,1.922.653,1.231,1.231,0,0,1,1.922.387,2.252,2.252,0,0,0,.506.5,1.372,1.372,0,0,1,.442,2.163,1.49,1.49,0,0,0,.831,1.856c.934.223,1.33.713,1.141,1.667a1.935,1.935,0,0,0,0,.635c.141.99-.05,1.69-1.21,1.937a1.434,1.434,0,0,0-.69,1.969,1.2,1.2,0,0,1-.347,1.852,13.263,13.263,0,0,0-1.194,1.169c-.127.124-.221.309-.458.3m-5.072-1.074a6.367,6.367,0,1,0-6.324-6.422,6.365,6.365,0,0,0,6.324,6.422" transform="translate(64.285 -1164.24)" fill="#f1d37c"/>
      <path id="Trazado_131585" data-name="Trazado 131585" d="M51.945,351.839c-5.681,0-11.362-.01-17.043.015-.621,0-.8-.148-.777-.776.053-1.245-.011-2.5.028-3.742.016-.512-.157-.611-.632-.605-2.123.025-4.248,0-6.371.021-.494.006-.675-.089-.672-.637.012-1.922-.013-1.923,1.934-1.923,1.7,0,3.4-.012,5.1.008.44.006.645-.04.648-.58.008-1.977.033-1.977-1.962-1.977-.9,0-1.805-.014-2.707.007-.344.008-.435-.1-.456-.445-.128-2.111-.139-2.11,1.981-2.11.849,0,1.7-.022,2.548.009.429.016.585-.078.592-.553.03-2,.048-2-1.93-2-1.7,0-3.4-.012-5.1.008-.438.005-.646-.037-.649-.579C26.47,334,26.445,334,28.437,334c1.7,0,3.4-.018,5.1.012.482.008.62-.107.621-.608,0-1.952.025-1.952-1.9-1.952-.876,0-1.753-.021-2.628.009-.428.015-.587-.075-.594-.552-.03-2.006-.049-2.006,1.928-2.006.876,0,1.754-.026,2.628.011.463.019.56-.142.566-.579.026-1.98.04-1.98-1.952-1.98-1.7,0-3.4-.018-5.1.011-.48.009-.621-.1-.623-.606,0-1.954-.025-1.954,1.9-1.954,1.646,0,3.292-.03,4.937.015.628.017.9-.089.842-.8-.049-.564-.277-1.453.11-1.647a5.418,5.418,0,0,1,2.1-.121c.246-.008.326.114.318.339-.006.185,0,.371,0,.557q0,13.141-.014,26.282c0,.655.089.911.837.882,1.724-.068,1.726-.02,1.726-1.728,0-5.973.01-11.946-.015-17.919,0-.626.156-.794.782-.781,2.043.042,4.089.047,6.132,0,.664-.016.761.215.76.8-.019,6.265,0,12.53-.028,18.795,0,.645.124.85.807.829,1.756-.052,1.758-.015,1.758-1.773,0-4.274.014-8.548-.016-12.822,0-.615.172-.741.752-.73q3.065.055,6.132,0c.6-.011.8.117.8.768-.032,4.593,0,9.185-.032,13.778,0,.622.153.791.776.777,1.787-.04,1.788-.01,1.788-1.82,0-6.717.019-13.433-.023-20.149-.005-.864.254-1.028,1.048-1,1.963.058,3.929.044,5.893,0,.594-.012.746.137.744.738-.023,7.141,0,14.282-.032,21.423,0,.678.177.827.827.809,1.743-.047,1.716-.014,1.754,1.765.013.612-.136.786-.77.783-5.707-.028-11.415-.016-17.123-.016m12.78-12.769v-8.437c0-1.737,0-1.69-1.72-1.755-.755-.028-.845.243-.842.9.023,5.89.014,11.78.014,17.67,0,1.862,0,1.83,1.839,1.863.632.011.726-.2.721-.766-.025-3.157-.012-6.314-.012-9.471m-20.39,1.341v-7.242c0-1.725,0-1.692-1.733-1.736-.66-.017-.835.159-.831.824.029,5.067.016,10.134.016,15.2,0,1.852,0,1.829,1.852,1.845.547,0,.716-.125.71-.694-.031-2.732-.014-5.465-.014-8.2m10.195,2.542v-4.615c0-1.807,0-1.778-1.819-1.807-.6-.009-.749.157-.744.75.03,3.368.015,6.737.015,10.105,0,1.949,0,1.93,1.939,1.916.486,0,.629-.126.621-.62-.029-1.909-.012-3.819-.012-5.729" transform="translate(142.999 -1138.002)" fill="#010101"/>
      <path id="Trazado_131586" data-name="Trazado 131586" d="M31.638,403.186c1.485,0,2.97.022,4.454-.013.495-.011.624.128.618.617-.027,2.174-.023,4.348,0,6.522,0,.42-.115.532-.532.53q-4.573-.025-9.146,0c-.409,0-.541-.1-.537-.524.021-2.2.025-4.4,0-6.6-.006-.5.21-.543.613-.538,1.511.018,3.022.007,4.533.007m-.036,5.1h.634c2.042,0,2.031,0,1.924-2.064-.019-.376-.121-.5-.5-.493-1.109.021-2.218.007-3.328.007-1.281,0-1.281,0-1.281,1.28s0,1.27,1.282,1.27Z" transform="translate(142.99 -1186.801)" fill="#020202"/>
      <path id="Trazado_131587" data-name="Trazado 131587" d="M63.019,410.837c-1.485,0-2.969-.017-4.454.01-.448.008-.579-.117-.574-.569q.034-3.26,0-6.522c0-.449.123-.579.575-.577q4.534.029,9.067,0c.455,0,.577.133.573.579q-.032,3.26,0,6.521c0,.456-.131.575-.576.567-1.538-.026-3.075-.01-4.613-.01m.022-2.549h.713c1.934,0,1.909,0,1.91-1.925,0-.555-.2-.653-.684-.634-.844.033-1.69.009-2.535.009-1.929,0-1.913,0-1.906,1.934,0,.466.085.667.6.627.63-.049,1.267-.012,1.9-.012" transform="translate(124.235 -1186.805)" fill="#020202"/>
      <path id="Trazado_131588" data-name="Trazado 131588" d="M94.572,410.835c-1.485,0-2.969-.015-4.454.009-.444.007-.651-.046-.642-.583.035-2.174.028-4.348,0-6.521-.005-.473.159-.563.592-.561q4.534.025,9.067,0c.479,0,.56.17.557.6-.019,2.174-.023,4.348,0,6.522.006.48-.167.557-.592.551-1.511-.023-3.022-.009-4.534-.009m-.005-2.549H95.2c2.04,0,2.023,0,1.949-2.042-.016-.439-.167-.526-.559-.515-.871.024-1.743.007-2.615.007-2.038,0-2.021,0-1.95,2.051.015.445.177.52.56.505.66-.024,1.321-.006,1.981-.006" transform="translate(105.49 -1186.803)" fill="#020202"/>
      <path id="Trazado_131589" data-name="Trazado 131589" d="M29.069,297.36c0,1.307,0,1.307-1.34,1.307-1.211,0-1.211,0-1.211-1.2,0-1.353,0-1.353,1.38-1.353,1.171,0,1.171,0,1.171,1.245" transform="translate(142.974 -1123.06)" fill="#020303"/>
      <path id="Trazado_131590" data-name="Trazado 131590" d="M41.668,297.363c0,1.3,0,1.3-1.343,1.3-1.207,0-1.207,0-1.207-1.2,0-1.35,0-1.35,1.383-1.35,1.167,0,1.167,0,1.167,1.248" transform="translate(135.473 -1123.06)" fill="#020303"/>
      <path id="Trazado_131591" data-name="Trazado 131591" d="M54.266,297.427c0,1.239,0,1.239-1.567,1.239-.984,0-.984,0-.984-1.584,0-.968,0-.968,1.607-.967.944,0,.944,0,.944,1.313" transform="translate(127.972 -1123.06)" fill="#020303"/>
      <path id="Trazado_131592" data-name="Trazado 131592" d="M178.123,440.943c-.082.089-.184.208-.294.318q-3.881,3.883-7.759,7.771c-.278.28-.45.349-.757.026-.879-.921-1.777-1.824-2.7-2.7-.349-.331-.312-.553.034-.81a.673.673,0,0,0,.056-.056c.44-.419.841-1.107,1.331-1.177.456-.066.871.681,1.254,1.11.4.445.6.167.877-.106,1.891-1.9,3.8-3.775,5.67-5.7.445-.458.733-.575,1.153-.015a10.868,10.868,0,0,0,.889.91c.1.108.27.185.247.426" transform="translate(59.709 -1208.27)" fill="#050302"/>
      <path id="Trazado_131593" data-name="Trazado 131593" d="M178.1,314.659a.618.618,0,0,1-.251.558q-3.936,3.941-7.872,7.882c-.238.239-.395.265-.643.01q-1.388-1.424-2.812-2.814c-.236-.231-.3-.42-.011-.639a1.18,1.18,0,0,0,.114-.111c.436-.426.821-1.111,1.321-1.209.553-.107.9.687,1.319,1.1.361.36.546.214.824-.066,1.924-1.939,3.873-3.854,5.781-5.809.413-.423.648-.466,1.044,0a12.13,12.13,0,0,0,1.187,1.1" transform="translate(59.739 -1133.249)" fill="#050302"/>
      <path id="Trazado_131594" data-name="Trazado 131594" d="M171.431,384.456a6.367,6.367,0,1,1,6.417-6.331,6.362,6.362,0,0,1-6.417,6.331m.029-2.549a3.807,3.807,0,0,0,3.839-3.752,3.822,3.822,0,1,0-7.643-.033,3.806,3.806,0,0,0,3.8,3.785" transform="translate(60.46 -1168.075)" fill="#040303"/>
      <path id="Trazado_131595" data-name="Trazado 131595" d="M117.239,350.348c0,3.157-.013,6.315.013,9.471,0,.562-.09.777-.721.766-1.839-.033-1.839,0-1.839-1.863,0-5.89.01-11.78-.014-17.67,0-.653.088-.924.843-.9,1.718.065,1.719.017,1.719,1.755v8.437" transform="translate(90.486 -1149.28)" fill="#ee8773"/>
      <path id="Trazado_131596" data-name="Trazado 131596" d="M66.842,355.448c0,2.733-.017,5.465.014,8.2.006.569-.163.7-.71.694-1.852-.016-1.852.006-1.852-1.845,0-5.067.013-10.134-.016-15.2,0-.664.172-.841.831-.824,1.732.044,1.733.011,1.733,1.736v7.242" transform="translate(120.493 -1153.04)" fill="#ee8773"/>
      <path id="Trazado_131597" data-name="Trazado 131597" d="M92.041,365.493c0,1.91-.017,3.82.012,5.729.008.494-.135.617-.621.62-1.939.014-1.939.032-1.939-1.916,0-3.368.015-6.737-.015-10.105-.005-.593.142-.759.744-.75,1.819.029,1.819,0,1.819,1.807v4.615" transform="translate(105.489 -1160.543)" fill="#ed8773"/>
      <path id="Trazado_131598" data-name="Trazado 131598" d="M35.37,412.042H34.1c-1.282,0-1.282,0-1.282-1.27s0-1.28,1.281-1.28c1.109,0,2.219.014,3.328-.007.379-.007.481.117.5.493.106,2.064.118,2.064-1.924,2.064Z" transform="translate(139.222 -1190.559)" fill="#f2d37d"/>
      <path id="Trazado_131599" data-name="Trazado 131599" d="M66.788,412.037c-.634,0-1.271-.037-1.9.012-.516.04-.6-.161-.6-.627-.007-1.934-.023-1.934,1.906-1.934.845,0,1.691.024,2.535-.009.485-.019.684.078.684.634,0,1.925.024,1.925-1.91,1.925h-.713" transform="translate(120.489 -1190.554)" fill="#f2d37d"/>
      <path id="Trazado_131600" data-name="Trazado 131600" d="M98.287,412.041c-.66,0-1.321-.018-1.981.007-.382.014-.544-.06-.56-.506-.072-2.051-.089-2.051,1.95-2.051.872,0,1.744.017,2.615-.007.392-.011.543.077.559.516.074,2.042.09,2.041-1.949,2.041h-.634" transform="translate(101.77 -1190.558)" fill="#f2d37d"/>
    </g>
  </g>
</svg>
