<svg id="Grupo_86754" data-name="Grupo 86754" xmlns="http://www.w3.org/2000/svg" xmlns:xlink="http://www.w3.org/1999/xlink" width="197.977" height="202.899" viewBox="0 0 197.977 202.899">
  <defs>
    <clipPath id="clip-path">
      <rect id="Rectángulo_36960" data-name="Rectángulo 36960" width="197.977" height="202.899" fill="none"/>
    </clipPath>
    <clipPath id="clip-path-3">
      <rect id="Rectángulo_36946" data-name="Rectángulo 36946" width="6.772" height="3.304" fill="none"/>
    </clipPath>
  </defs>
  <g id="Grupo_86753" data-name="Grupo 86753" clip-path="url(#clip-path)">
    <g id="Grupo_86752" data-name="Grupo 86752">
      <g id="Grupo_86751" data-name="Grupo 86751" clip-path="url(#clip-path)">
        <path id="Trazado_130953" data-name="Trazado 130953" d="M194.835,358.356c0,5.2-42.616,9.411-95.186,9.411s-95.186-4.213-95.186-9.411,42.616-9.411,95.186-9.411,95.186,4.213,95.186,9.411" transform="translate(-2.108 -164.867)" fill="#826be9"/>
        <path id="Trazado_130954" data-name="Trazado 130954" d="M178.774,240.7a37.16,37.16,0,0,1-3.666,3.208c-6.616,5.08-15.761,8.721-27.91,9.936-62.129,6.218-82.657-22.926-87.675-67.768-2.235-19.984,3-33.169,9.487-41.649q1.018-1.328,2.069-2.5.592-.665,1.213-1.3a36.969,36.969,0,0,1,32.359-10.63c9.341,1.537,17.829,6.527,24.715,16.5,11.013,15.947.594,29.657,32.07,30.574,24.094.7,39.36,41.664,17.339,63.632" transform="translate(-27.875 -61.188)" fill="#ab9df1"/>
        <path id="Trazado_130955" data-name="Trazado 130955" d="M103.1,156.187s-7.347,15.719,1.136,44.574,19.718,26.582,26.977,26.582c12.68,0,38.36-11.945,43.379-21.354s-4.451-9.972-22.184-11.363S121.443,149.96,103.1,156.187" transform="translate(-47.317 -73.505)" fill="#826be9"/>
        <path id="Trazado_130956" data-name="Trazado 130956" d="M135.475,300.978a.529.529,0,0,1-.364-.912,65.368,65.368,0,0,1,16.363-11.5,37.457,37.457,0,0,1,7.206-2.76.528.528,0,1,1,.235,1.03c-.127.03-11.166,2.67-23.076,13.994a.525.525,0,0,1-.364.146" transform="translate(-63.759 -135.03)" fill="#826be9"/>
        <path id="Trazado_130957" data-name="Trazado 130957" d="M139.445,295.771a.528.528,0,0,1-.3-.967,36.429,36.429,0,0,1,15.287-5.078.529.529,0,0,1,.114,1.051,35.983,35.983,0,0,0-14.811,4.9.523.523,0,0,1-.294.09" transform="translate(-65.634 -136.886)" fill="#826be9"/>
        <path id="Trazado_130958" data-name="Trazado 130958" d="M94.14,200.69a.528.528,0,0,1-.524-.463A29.59,29.59,0,0,0,88.149,186.6a26.191,26.191,0,0,0-4.372-4.771.528.528,0,0,1,.652-.832,26.675,26.675,0,0,1,4.551,4.949A30.652,30.652,0,0,1,94.665,200.1a.528.528,0,0,1-.458.59.562.562,0,0,1-.066,0" transform="translate(-39.487 -85.462)" fill="#826be9"/>
        <path id="Trazado_130959" data-name="Trazado 130959" d="M181.788,250.654a37.16,37.16,0,0,1-3.666,3.208,68.076,68.076,0,0,1-27.25,8.792,84.264,84.264,0,0,1-9.623.548,85.163,85.163,0,0,1-26.15-4.1c-21.807-7.064-37.542-22.175-44.306-42.552a99.231,99.231,0,0,1-5.412-32.292,73.186,73.186,0,0,1,3.951-23.316,65.406,65.406,0,0,1,2.69-6.562q1.018-1.328,2.069-2.5.592-.665,1.213-1.3a61.516,61.516,0,0,0-4.94,10.794c-3.9,11.222-6.8,29.844,1.489,54.828,6.648,20.031,22.129,34.891,43.591,41.843,22.8,7.384,49.171,4.391,65.622-7.45a.558.558,0,0,1,.723.061" transform="translate(-30.888 -71.144)" fill="#826be9"/>
        <path id="Trazado_130960" data-name="Trazado 130960" d="M110.771,107.139s-8.578-8.766,3.916-14.945,27.214,3.261,29.627,10.143-33.544,4.8-33.544,4.8" transform="translate(-50.979 -42.611)" fill="#2ff980"/>
        <path id="Trazado_130961" data-name="Trazado 130961" d="M132.908,107.878a.329.329,0,0,1-.215-.079c-3.409-2.918-9.122-2.65-9.179-2.648H123.5a.33.33,0,0,1-.017-.66c.245-.014,6.035-.282,9.643,2.8a.33.33,0,0,1-.215.581" transform="translate(-58.193 -49.364)" fill="#29b260"/>
        <path id="Trazado_130962" data-name="Trazado 130962" d="M125.462,109.679a.33.33,0,0,1-.156-.622c.167-.089,4.118-2.169,6.922-1.516a.33.33,0,0,1-.15.644c-2.564-.6-6.423,1.434-6.462,1.455a.33.33,0,0,1-.155.039" transform="translate(-59.121 -50.751)" fill="#29b260"/>
        <path id="Trazado_130963" data-name="Trazado 130963" d="M281.31,330.3l4.4,8.109a87.011,87.011,0,0,0,11.841,1.767c9.776.751,12.671-.791,13.363,1.392.539,1.7-6.9,5.55-10.335,6.158s-10.953,3.69-15.829,4.23-7.028-5.616-8.132-7.808-4.579-9.616-4.579-9.616Z" transform="translate(-128.531 -156.059)" fill="#f69d84"/>
        <path id="Trazado_130964" data-name="Trazado 130964" d="M329.652,351.609a2.731,2.731,0,0,1-.413,1.663,1.833,1.833,0,0,1-.169.213c-1.731,1.912-8.66,2.836-8.66,2.836a3.289,3.289,0,0,0,.9-2.119,14.761,14.761,0,0,0-1.289-6.133c-.124-.3-.2-.471-.2-.471a22,22,0,0,1,3.368-.513,22.684,22.684,0,0,1,2.671-.044,16.35,16.35,0,0,1,2.278.235s.243.39.534.99a8.96,8.96,0,0,1,.986,3.341" transform="translate(-151.104 -163.959)" fill="#2ff980"/>
        <path id="Trazado_130965" data-name="Trazado 130965" d="M329.724,350.269l-2.4.248s-.315-1.174-.677-2.249c-.147-.44-.3-.863-.448-1.183a22.553,22.553,0,0,1,2.671-.043,10.758,10.758,0,0,1,.462,1.262,8.874,8.874,0,0,1,.391,1.964" transform="translate(-154.121 -163.958)" fill="#29b260"/>
        <path id="Trazado_130966" data-name="Trazado 130966" d="M317.222,353.926s-22.391,7.088-25.4,7.614a9.888,9.888,0,0,1-4.646-.063,19.94,19.94,0,0,0,.347,2.385,2.383,2.383,0,0,0,3.037,1.75c5.99-1.854,25.787-8.035,27.137-9.13,1.592-1.292,1.246-2.668-.476-2.556" transform="translate(-135.684 -167.218)" fill="#2ff980"/>
        <path id="Trazado_130967" data-name="Trazado 130967" d="M240.351,326.419l-.289,7.285a87.008,87.008,0,0,0,9.272,7.574c8.018,5.645,11.294,5.8,10.772,8.031-.407,1.738-8.765,1.242-12.03.007s-11.3-2.43-15.766-4.459-3.168-8.42-3-10.869.536-7.964.536-7.964Z" transform="translate(-108.2 -154.038)" fill="#f69d84"/>
        <path id="Trazado_130968" data-name="Trazado 130968" d="M270.369,362.337a2.729,2.729,0,0,1-1.205,1.218,1.959,1.959,0,0,1-.254.1c-2.465.757-8.893-1.991-8.893-1.991a3.289,3.289,0,0,0,1.856-1.362,14.764,14.764,0,0,0,2.028-5.93c.046-.32.065-.509.065-.509a22,22,0,0,1,3.156,1.281,22.656,22.656,0,0,1,2.318,1.329,16.278,16.278,0,0,1,1.837,1.367s.009.46-.047,1.124a8.966,8.966,0,0,1-.861,3.376" transform="translate(-122.851 -167.19)" fill="#2ff980"/>
        <path id="Trazado_130969" data-name="Trazado 130969" d="M274.18,360.827l-2.189-1.013s.329-1.17.569-2.279c.1-.453.18-.9.219-1.245a22.558,22.558,0,0,1,2.318,1.329,10.842,10.842,0,0,1-.249,1.32,8.874,8.874,0,0,1-.668,1.889" transform="translate(-128.508 -168.337)" fill="#29b260"/>
        <path id="Trazado_130970" data-name="Trazado 130970" d="M257.907,363.344s-22.867-5.358-25.72-6.444a9.888,9.888,0,0,1-3.96-2.431,19.96,19.96,0,0,0-.922,2.228,2.384,2.384,0,0,0,1.716,3.057c6.1,1.469,26.269,6.281,27.989,6.03,2.028-.3,2.435-1.655.9-2.44" transform="translate(-107.338 -167.477)" fill="#2ff980"/>
        <path id="Trazado_130971" data-name="Trazado 130971" d="M226.708,214.622c-5.8-4.464-26.647-2.628-42.973-.319-.464,7.4,1.815,1.253.436,8.532,20.385,1.046,26.11,2.653,26.11,2.653s-3.048,16.592-2.9,23.529-2.309,27.01-2.309,27.01l14.7,2.77s15.247-57.784,6.939-64.176" transform="translate(-86.78 -100.113)" fill="#45bbcc"/>
        <path id="Trazado_130972" data-name="Trazado 130972" d="M240.049,329.248a.393.393,0,0,1-.2.012l-14.514-2.965a.4.4,0,1,1,.158-.776l14.515,2.966a.4.4,0,0,1,.044.764" transform="translate(-106.313 -153.795)" fill="#6ac9d6"/>
        <path id="Trazado_130973" data-name="Trazado 130973" d="M230.453,282.528a.4.4,0,0,1-.208.011.4.4,0,0,1-.3-.471A105.725,105.725,0,0,0,231.6,262.81c.089-11.938,3.748-29.719,3.786-29.9a.4.4,0,0,1,.775.161c-.037.178-3.681,17.883-3.769,29.742a106.312,106.312,0,0,1-1.674,19.419.4.4,0,0,1-.263.293" transform="translate(-108.638 -109.896)" fill="#6ac9d6"/>
        <path id="Trazado_130974" data-name="Trazado 130974" d="M250.175,115.83c-.536-.723-.15-2.236-.283-3.416a13.975,13.975,0,0,1,.519-5.26c.715-1.975,3.14-7.673,4.751-8.34s-.1,4.41-.429,5.458a4.162,4.162,0,0,0-.166,1.881s4.827-11.344,6.164-11.73-.762,6.344-1.293,8c0,0,4.112-8.346,5.038-8.323,1.858.045-2.44,9.444-2.44,9.444s3.817-6.845,4.923-6.185c1.172.7-2.935,8.019-2.935,8.019s3.14-4.1,4.354-3.965-4.715,9.248-5.795,10.539-3.7,5.012-5.381,6.438c-1.139.969-5.327-.277-7.027-2.564" transform="translate(-118.039 -44.461)" fill="#f69d84"/>
        <path id="Trazado_130975" data-name="Trazado 130975" d="M269.382,117.281a.345.345,0,0,0,.049-.454,9.858,9.858,0,0,0-6.613-3.809.346.346,0,1,0-.066.688,9.325,9.325,0,0,1,6.114,3.52.346.346,0,0,0,.482.083.352.352,0,0,0,.034-.027" transform="translate(-123.995 -53.397)" fill="#5cff9e"/>
        <path id="Trazado_130976" data-name="Trazado 130976" d="M262.32,125.741a.346.346,0,0,0,.091-.376,5.754,5.754,0,0,1,.9-6.152.346.346,0,0,0-.472-.506l0,0c-.11.1-2.669,2.6-1.07,6.895a.346.346,0,0,0,.557.135" transform="translate(-123.428 -56.043)" fill="#5cff9e"/>
        <path id="Trazado_130977" data-name="Trazado 130977" d="M177.05,120.211l-.007-.027h0s0,0,0,0l.012.025.032.072.075.171.166.382c.116.264.241.537.369.812.257.552.528,1.113.814,1.671.578,1.114,1.183,2.229,1.843,3.312.331.541.663,1.081,1.007,1.613s.7,1.056,1.062,1.572.739,1.023,1.117,1.526.765,1,1.163,1.481a44.026,44.026,0,0,0,10.987,9.747c.258.16.518.318.78.468s.525.3.79.449l.2.111c-.084-.049-.176-.087-.275-.133a4.352,4.352,0,0,0-.639-.222,4.1,4.1,0,0,0-.682-.121,3.807,3.807,0,0,0-.618-.015,3.242,3.242,0,0,0-.806.139.91.91,0,0,0-.236.1,1.906,1.906,0,0,0,.477-.3,11.583,11.583,0,0,0,.967-.841c.358-.344.733-.738,1.112-1.165.766-.851,1.538-1.831,2.307-2.857,1.534-2.065,3.03-4.337,4.481-6.668.729-1.165,1.445-2.351,2.148-3.547q.532-.893,1.049-1.795l1-1.737L219.984,130l-.227.592-.217.55-.438,1.082q-.449,1.071-.915,2.129-.944,2.113-1.98,4.2a81.044,81.044,0,0,1-4.721,8.269,50.534,50.534,0,0,1-3,4.125c-.565.69-1.168,1.383-1.836,2.083a24.7,24.7,0,0,1-2.273,2.114,18.009,18.009,0,0,1-3.183,2.106,13.722,13.722,0,0,1-2.268.919,12.217,12.217,0,0,1-2.96.521,11.666,11.666,0,0,1-1.714-.044,11.454,11.454,0,0,1-1.759-.322,11.242,11.242,0,0,1-1.671-.59c-.269-.116-.519-.245-.768-.374l-.282-.154c-.376-.205-.752-.41-1.122-.627s-.741-.429-1.106-.653c-.733-.442-1.452-.906-2.163-1.382s-1.4-.976-2.083-1.491-1.352-1.04-2.008-1.582-1.3-1.1-1.921-1.676a55.5,55.5,0,0,1-6.8-7.465q-1.517-2-2.844-4.114c-.883-1.409-1.72-2.842-2.478-4.318q-.57-1.106-1.1-2.236t-1-2.291c-.316-.775-.62-1.559-.9-2.366-.141-.4-.278-.814-.413-1.237-.068-.213-.135-.426-.2-.651l-.227-.8Z" transform="translate(-77.202 -56.783)" fill="#2ff980"/>
        <path id="Trazado_130978" data-name="Trazado 130978" d="M226.063,169.219a.4.4,0,0,1-.478-.2,26.966,26.966,0,0,1-2-6.235.4.4,0,1,1,.779-.142,26.666,26.666,0,0,0,1.93,6.024.4.4,0,0,1-.178.531.409.409,0,0,1-.053.022" transform="translate(-105.635 -76.69)" fill="#29b260"/>
        <path id="Trazado_130979" data-name="Trazado 130979" d="M222.04,167.226a.4.4,0,0,1-.507-.473,31.653,31.653,0,0,1,1.141-3.719.4.4,0,1,1,.712.347,32.292,32.292,0,0,0-1.085,3.565.4.4,0,0,1-.26.28" transform="translate(-104.662 -76.924)" fill="#29b260"/>
        <path id="Trazado_130980" data-name="Trazado 130980" d="M253.9,144.939a.4.4,0,0,1-.342-.045,105.166,105.166,0,0,0-12.052-6.115.4.4,0,1,1,.314-.727c.081.035,8.2,3.551,12.175,6.181a.4.4,0,0,1-.094.706" transform="translate(-113.992 -65.21)" fill="#29b260"/>
        <path id="Trazado_130981" data-name="Trazado 130981" d="M145.834,113.751c1.041,3.157-.686,10.822.989,24.315q.184,1.485.425,3.077.229,1.489.514,3.079c.177.985.374,2,.587,3.043q.282,1.371.611,2.808c.225.984.464,1.989.725,3.02.073.292.152.6.238.934.02.083.041.166.063.251s.04.15.059.227c.014.057.028.114.044.17l.033.126c.018.075.038.151.059.226a.456.456,0,0,0,.012.044c.023.092.047.184.072.277,0,.014.006.027.011.041.021.08.041.161.064.243q.15.572.313,1.19c.028.1.055.206.083.31l.112.419c.074.278.151.561.228.849.039.144.078.29.119.435.083.31.169.624.257.943.016.058.033.117.048.176.207.758.425,1.541.649,2.341q.153.542.308,1.093.188.665.381,1.339c.188.657.38,1.319.573,1.98l.246.839c.075.253.151.505.225.758.091.3.181.606.272.907.061.2.121.4.183.6.037.126.075.25.113.373l.228.744q.113.37.228.735c.054.172.107.342.159.513.049.151.1.3.143.451.014.041.025.081.039.122.027.087.054.173.082.257.057.177.111.351.167.525l.2.605c.522,1.605,1.032,3.1,1.512,4.39-3.565,4.1-9.623,7.679-16.745,9.829l-3.952-2.57-3.309,4.192a43.944,43.944,0,0,1-21.28-1.882c-2.268-4.637-6.008-21.648-7.066-26.737q-.317-1.518-.577-3.05a135.13,135.13,0,0,1-1.6-15.1c-.017-.285-.032-.569-.049-.854,0-.033,0-.068-.006-.1-.323-4.4-6.077-17.381-5.5-22.052,1.148-9.254,7.047-6.817,12.364-8.243a23,23,0,0,0,4.414-1.668c.5-.252.954-.507,1.365-.756.172-.1.333-.2.486-.305a16.942,16.942,0,0,0,2.556-1.976l12.062-1.26a9.242,9.242,0,0,0,4.081,2.746c.164.056.328.112.5.165.247.077.5.148.745.211,4.265,1.109,8.775.5,10.137,4.635" transform="translate(-45.871 -50.079)" fill="#2ff980"/>
        <path id="Trazado_130982" data-name="Trazado 130982" d="M122.818,199.752a.331.331,0,0,1-.31-.215c-6.6-17.717-10.018-48.315-10.051-48.621a.33.33,0,0,1,.657-.072c.034.306,3.442,30.823,10.014,48.463a.331.331,0,0,1-.31.446" transform="translate(-53.132 -71.131)" fill="#29b260"/>
        <path id="Trazado_130983" data-name="Trazado 130983" d="M151.948,119.748c.127.384-.334.88-1.029,1.109s-1.36.1-1.487-.28.334-.88,1.028-1.109,1.36-.1,1.487.28" transform="translate(-70.593 -56.391)" fill="#29b260"/>
        <path id="Trazado_130984" data-name="Trazado 130984" d="M162.163,117.143c.127.384-.334.88-1.029,1.11s-1.36.1-1.487-.28.334-.88,1.029-1.109,1.36-.1,1.487.28" transform="translate(-75.42 -55.161)" fill="#29b260"/>
        <path id="Trazado_130985" data-name="Trazado 130985" d="M167.029,118.424a.33.33,0,0,1-.082-.65c4.652-1.191,4.943-3.992,4.953-4.11a.333.333,0,0,1,.356-.3.329.329,0,0,1,.3.353c-.01.137-.309,3.384-5.448,4.7a.317.317,0,0,1-.082.011" transform="translate(-78.761 -53.56)" fill="#29b260"/>
        <path id="Trazado_130986" data-name="Trazado 130986" d="M160.629,171.606a41.284,41.284,0,0,1-15.179-3.037,38.389,38.389,0,0,1-7.294-3.794.33.33,0,0,1,.384-.537,37.821,37.821,0,0,0,7.175,3.725,39.722,39.722,0,0,0,17.7,2.871.33.33,0,1,1,.053.658c-.964.078-1.912.113-2.842.113" transform="translate(-65.21 -77.569)" fill="#29b260"/>
        <path id="Trazado_130987" data-name="Trazado 130987" d="M145.279,196.907s14.825-3.779,24.059-3.889l2.822,12.224s-14.637,2.461-23.9,4.076Z" transform="translate(-68.64 -91.196)" fill="#29b260"/>
        <path id="Trazado_130988" data-name="Trazado 130988" d="M120.423,123.8a13.4,13.4,0,0,1-6.527-1.62,11.21,11.21,0,0,1-3.569-2.985.33.33,0,1,1,.54-.381,10.777,10.777,0,0,0,3.378,2.8,13.834,13.834,0,0,0,10.414.951.33.33,0,0,1,.167.639,17.37,17.37,0,0,1-4.4.593" transform="translate(-52.098 -56.071)" fill="#29b260"/>
        <path id="Trazado_130989" data-name="Trazado 130989" d="M200.883,210.626c-.224-.8-.442-1.582-.649-2.34.209.759.425,1.54.649,2.34" transform="translate(-94.605 -98.41)" fill="#26120c"/>
        <path id="Trazado_130990" data-name="Trazado 130990" d="M199.226,204.578c-.078-.289-.155-.571-.229-.849q.113.416.229.849" transform="translate(-94.021 -96.257)" fill="#26120c"/>
        <path id="Trazado_130991" data-name="Trazado 130991" d="M191.352,162.245a.37.37,0,0,1-.073.016.4.4,0,0,1-.444-.341c-.721-5.52-1.519-12.077-1.6-13.925a.4.4,0,0,1,.791-.033c.076,1.823.871,8.353,1.589,13.856a.4.4,0,0,1-.268.427" transform="translate(-89.411 -69.729)" fill="#29b260"/>
        <path id="Trazado_130992" data-name="Trazado 130992" d="M165.9,58.6a5.922,5.922,0,0,1,1.316,7.59s-1.375-5.354-1.316-7.59" transform="translate(-78.383 -27.687)" fill="#26120c"/>
        <path id="Trazado_130993" data-name="Trazado 130993" d="M131.481,69.482s-2.48,2.409-2.991.631a2.74,2.74,0,0,1,.353-2.664s-2.678,2.573-2.721.635a6.476,6.476,0,0,1,1.354-3.669,4.593,4.593,0,0,1-1.674-4.73,11.658,11.658,0,0,0,.1-7.428c-.812-2.383-.441-4.848.736-5.916a6.056,6.056,0,0,1,4.222-1.317,6.351,6.351,0,0,1,6.311-4.242c4.98.117,7.88-3.769,10.393-2.758s5.392,9.309-1.368,11.767c0,0-13.391,8.979-14.715,19.69" transform="translate(-59.28 -17.886)" fill="#26120c"/>
        <path id="Trazado_130994" data-name="Trazado 130994" d="M148.938,96.513l.329,3.147a9.871,9.871,0,0,1-1.032.9c-5.121,3.853-11.44.407-11.44.407l-1.141-10.911,11.7,5.69Z" transform="translate(-64.092 -42.547)" fill="#f69d84"/>
        <path id="Trazado_130995" data-name="Trazado 130995" d="M152.347,100.377l.358,3.422a9.87,9.87,0,0,1-1.032.9c-4.845-1.356-8.742-5.884-8.742-5.884l7.861,1.069Z" transform="translate(-67.531 -46.686)" fill="#26120c"/>
        <path id="Trazado_130996" data-name="Trazado 130996" d="M165.528,74.086s1.567-2.3,2.8-.292.9,6.361-1.892,5.946Z" transform="translate(-78.208 -34.477)" fill="#5cff9e"/>
        <path id="Trazado_130997" data-name="Trazado 130997" d="M152.4,71.87s.689,6.5-6.08,7.2c-6.727.691-11.862-4.112-12.126-4.332l-.008-.006-.216-1.359-1.124-7.057-.6-3.772s-1.573-6.741,4.788-8.665c4.648-1.406,9.177-1.084,11.68,1.156.081.072.159.147.235.224a5.862,5.862,0,0,1,1.609,3.048l.922,6.792.226,1.664Z" transform="translate(-62.402 -25.055)" fill="#f69d84"/>
        <path id="Trazado_130998" data-name="Trazado 130998" d="M132.286,65.383a3.788,3.788,0,0,1,2.195,2.324,1.736,1.736,0,0,0,1.527-2.04c-.107-.578-.241-1.271-.4-2.051-.483-2.338-1.23-3.078.126-4.543s.081-2.334,1.316-3.371c1.354-1.137,4.7.876,7.164.366,2.923-.606,2.676-2.589,5.221-.318a5.953,5.953,0,0,0-4-4.349c-3.321-.926-12.662-.11-14.092,4.339s.943,9.642.943,9.642" transform="translate(-61.839 -24.125)" fill="#26120c"/>
        <path id="Trazado_130999" data-name="Trazado 130999" d="M143.692,67.042h0a1.634,1.634,0,0,0,2.209.6,9.1,9.1,0,0,1,1.572-.7,1.5,1.5,0,0,0,.935-1.97s-3.377.043-4.716,2.071" transform="translate(-67.891 -30.697)" fill="#26120c"/>
        <path id="Trazado_131000" data-name="Trazado 131000" d="M163.147,65.251h0a1.539,1.539,0,0,1-1.918.986,8.607,8.607,0,0,0-1.585-.343,1.413,1.413,0,0,1-1.245-1.633s3.12-.618,4.749.99" transform="translate(-74.83 -30.306)" fill="#26120c"/>
        <path id="Trazado_131001" data-name="Trazado 131001" d="M148.393,78.646c.05.474-.886.96-2.09,1.085s-2.219-.156-2.269-.63.886-.96,2.09-1.085,2.219.156,2.269.629" transform="translate(-68.051 -36.847)" fill="#5cff9e"/>
        <path id="Trazado_131002" data-name="Trazado 131002" d="M166.792,77.566c-.166.034-.342.061-.523.08-1.2.126-2.218-.157-2.267-.63s.886-.96,2.088-1.086c.162-.017.322-.026.476-.028Z" transform="translate(-77.486 -35.862)" fill="#5cff9e"/>
        <path id="Trazado_131003" data-name="Trazado 131003" d="M151.343,73.221c.068.65-.172,1.209-.536,1.247s-.714-.458-.782-1.109.172-1.209.536-1.247.714.458.782,1.109" transform="translate(-70.877 -34.07)" fill="#26120c"/>
        <path id="Trazado_131004" data-name="Trazado 131004" d="M163.736,71.926c.068.65-.172,1.209-.536,1.247s-.714-.458-.782-1.109.172-1.209.536-1.247.714.458.782,1.109" transform="translate(-76.733 -33.458)" fill="#26120c"/>
        <path id="Trazado_131005" data-name="Trazado 131005" d="M156.72,83.8a6.947,6.947,0,0,1-4.567-1.612.269.269,0,1,1,.352-.407c.141.122,3.489,2.957,6.21.552a.269.269,0,0,1,.357.4A4.138,4.138,0,0,1,156.72,83.8" transform="translate(-71.844 -38.609)" fill="#26120c"/>
        <path id="Trazado_131006" data-name="Trazado 131006" d="M137.738,88.751a5.946,5.946,0,0,1-1.843,2.861l-.007-.006-.216-1.36a4.7,4.7,0,0,0,2.066-1.5" transform="translate(-64.101 -41.932)" fill="#26120c"/>
        <path id="Trazado_131007" data-name="Trazado 131007" d="M132.071,79.062s-2.966-3.222-4.585-.277c-1.334,2.427,2.251,8.013,5.149,5.668Z" transform="translate(-60.098 -36.638)" fill="#f69d84"/>
        <path id="Trazado_131008" data-name="Trazado 131008" d="M133.521,85.069a.269.269,0,0,1-.291-.211,4.5,4.5,0,0,0-2.975-3.332.269.269,0,0,1,.147-.518,5.036,5.036,0,0,1,3.355,3.737.268.268,0,0,1-.206.32l-.029,0" transform="translate(-61.45 -38.269)" fill="#26120c"/>
        <path id="Trazado_131009" data-name="Trazado 131009" d="M131.3,84.969a.269.269,0,0,1-.219-.457,2.593,2.593,0,0,1,1.8-.833.269.269,0,0,1-.079.533c-.475-.07-1.132.467-1.345.68a.269.269,0,0,1-.162.078" transform="translate(-61.894 -39.53)" fill="#26120c"/>
        <path id="Trazado_131010" data-name="Trazado 131010" d="M157.168,74.457a.269.269,0,1,1-.056-.535,1.85,1.85,0,0,0,1.52-.912c-1.3-2.09-2.59-4.2-2.6-4.218a.269.269,0,0,1,.459-.282c.013.022,1.356,2.21,2.678,4.338a.27.27,0,0,1,.026.23,2.3,2.3,0,0,1-2.023,1.379" transform="translate(-73.701 -32.309)" fill="#26120c"/>
        <g id="Grupo_86747" data-name="Grupo 86747" transform="translate(76.826 38.57)" opacity="0.5">
          <g id="Grupo_86746" data-name="Grupo 86746">
            <g id="Grupo_86745" data-name="Grupo 86745" clip-path="url(#clip-path-3)">
              <path id="Trazado_131011" data-name="Trazado 131011" d="M152.4,74.562c.055.905-1.416,1.731-3.285,1.844s-3.429-.529-3.484-1.434,1.416-1.73,3.285-1.844,3.429.528,3.484,1.433" transform="translate(-145.634 -73.115)" fill="#fff"/>
            </g>
          </g>
        </g>
        <g id="Grupo_86750" data-name="Grupo 86750" transform="translate(85.482 38.207)" opacity="0.5">
          <g id="Grupo_86749" data-name="Grupo 86749">
            <g id="Grupo_86748" data-name="Grupo 86748" clip-path="url(#clip-path-3)">
              <path id="Trazado_131012" data-name="Trazado 131012" d="M168.813,73.873c.055.905-1.416,1.731-3.285,1.844s-3.429-.529-3.484-1.433,1.416-1.731,3.285-1.844,3.429.528,3.484,1.433" transform="translate(-162.043 -72.426)" fill="#fff"/>
            </g>
          </g>
        </g>
        <path id="Trazado_131013" data-name="Trazado 131013" d="M160.172,75.289a.2.2,0,0,1-.13-.049,1.472,1.472,0,0,0-1.69.016.2.2,0,0,1-.22-.33,1.832,1.832,0,0,1,2.171.015.2.2,0,0,1,.019.28.2.2,0,0,1-.149.068" transform="translate(-74.671 -35.232)" fill="#26120c"/>
        <path id="Trazado_131014" data-name="Trazado 131014" d="M131.9,76.245a.2.2,0,0,1-.121-.354c2.987-2.318,7.188-.646,7.365-.574a.2.2,0,0,1-.149.367c-.041-.017-4.168-1.656-6.973.52a.2.2,0,0,1-.121.042" transform="translate(-62.224 -35.278)" fill="#26120c"/>
        <path id="Trazado_131015" data-name="Trazado 131015" d="M121.528,237.994s.933,27.227,33.794,16.383c17.553-5.792,25.336-10.239,25.336-10.239s5.536,15.36,8.51,21.629,11.243,21.605,11.243,21.605l14.178-3.491s-16.514-57.469-26.71-59.9-22.429,1.435-44.008,6.33c0,0-18.846,2.887-22.343,7.68" transform="translate(-57.419 -105.473)" fill="#6ac9d6"/>
        <path id="Trazado_131016" data-name="Trazado 131016" d="M202.594,293.994a.4.4,0,0,1-.461-.168c-4.578-7.408-9.124-18.626-12.777-27.641-1.538-3.794-2.866-7.072-3.974-9.52-1.5-3.317-2.111-3.978-2.342-4.076-1.018-.437-4.36,1.074-8.591,2.987-6.129,2.771-15.391,6.959-26.161,9.193-5.525,1.146-10.311.4-14.223-2.23-6.964-4.674-8.683-13.532-8.752-13.907a.4.4,0,0,1,.778-.145c.017.089,1.734,8.914,8.42,13.4,3.728,2.5,8.309,3.209,13.616,2.109,10.685-2.217,19.9-6.383,26-9.139,4.92-2.225,7.89-3.568,9.229-2.994,1.218.522,3.147,5.169,6.737,14.027,3.642,8.986,8.173,20.17,12.717,27.521a.4.4,0,0,1-.129.545.383.383,0,0,1-.084.04" transform="translate(-59.204 -117.251)" fill="#8fd6e0"/>
        <path id="Trazado_131017" data-name="Trazado 131017" d="M281.387,329.163l-.023.007-14.331,3.789a.4.4,0,0,1-.2-.765l14.33-3.789a.4.4,0,0,1,.226.759" transform="translate(-125.931 -155.156)" fill="#8fd6e0"/>
        <path id="Trazado_131018" data-name="Trazado 131018" d="M182.054,230.2l43.47-4.1a.152.152,0,0,0,.137-.166l-.509-5.4a.152.152,0,0,0-.166-.137l-43.47,4.1a.151.151,0,0,0-.137.165l.509,5.4a.152.152,0,0,0,.166.137" transform="translate(-85.697 -104.132)" fill="#26120c"/>
        <path id="Trazado_131019" data-name="Trazado 131019" d="M253.054,196.41a3.653,3.653,0,0,0,3.26-3.03l5.3-31.428a2.964,2.964,0,0,0-3.2-3.443l-19.6,1.848a2.963,2.963,0,0,0-2.638,2.421l-6.515,35.839Z" transform="translate(-108.507 -74.885)" fill="#26120c"/>
        <path id="Trazado_131020" data-name="Trazado 131020" d="M243.81,215.4l-.36,1.432,1.331-.1-.232,1.69-1.54.118-.4,1.558-1.76.135.4-1.557-1.089.083-.4,1.558-1.76.135.4-1.557-1.331.1.232-1.69,1.54-.118.36-1.432-1.331.1.232-1.69,1.54-.118.4-1.558,1.76-.135-.4,1.558,1.089-.083.4-1.558,1.76-.135-.4,1.558,1.331-.1-.232,1.69Zm-1.76.135-1.089.083-.36,1.432,1.089-.083Z" transform="translate(-112.009 -100.229)" fill="#2ff980"/>
        <path id="Trazado_131021" data-name="Trazado 131021" d="M279.587,171.785a5.221,5.221,0,0,1-4.161,4.007c-1.841.161-2.961-1.373-2.5-3.425a5.221,5.221,0,0,1,4.161-4.007c1.841-.16,2.961,1.373,2.5,3.425" transform="translate(-128.9 -79.54)" fill="#ab9df1"/>
        <path id="Trazado_131022" data-name="Trazado 131022" d="M278.03,173.515c-.092.41-.3.754-.456.769s-.215-.308-.123-.718.3-.755.455-.769.216.308.124.718" transform="translate(-131.067 -81.642)" fill="#26120c"/>
        <path id="Trazado_131023" data-name="Trazado 131023" d="M281.324,173.227c-.092.41-.3.754-.456.769s-.215-.308-.124-.718.3-.754.456-.769.216.308.124.718" transform="translate(-132.624 -81.506)" fill="#26120c"/>
        <path id="Trazado_131024" data-name="Trazado 131024" d="M277.362,177.092c-1.433.125-1.4-1.444-1.4-1.46a.235.235,0,0,1,.154-.2.1.1,0,0,1,.145.109c0,.057-.018,1.334,1.178,1.23a2.448,2.448,0,0,0,1.784-1.489.208.208,0,0,1,.2-.138c.074.013.1.094.068.183a2.953,2.953,0,0,1-2.124,1.768" transform="translate(-130.383 -82.749)" fill="#26120c"/>
        <path id="Trazado_131025" data-name="Trazado 131025" d="M234.212,164.444l-6.461,35.543-2.239.212,6.461-35.544a2.968,2.968,0,0,1,2.639-2.422l2.239-.211a2.968,2.968,0,0,0-2.639,2.422" transform="translate(-106.548 -76.551)" fill="#26120c"/>
        <path id="Trazado_131026" data-name="Trazado 131026" d="M229.846,201.194a.323.323,0,0,1-.059-.005.33.33,0,0,1-.266-.384l6.39-35.466a.33.33,0,0,1,.65.117l-6.39,35.466a.33.33,0,0,1-.324.272" transform="translate(-108.44 -77.99)" fill="#564c54"/>
        <path id="Trazado_131027" data-name="Trazado 131027" d="M255.486,194.119a2.694,2.694,0,0,0,3.008,3.233,4.674,4.674,0,0,0,3.964-3.891,2.7,2.7,0,0,0-3.008-3.233,4.674,4.674,0,0,0-3.964,3.891" transform="translate(-120.695 -89.871)" fill="#564c54"/>
        <path id="Trazado_131028" data-name="Trazado 131028" d="M202.43,212.727s10.2-2.277,13.766-.581l-1.248,6.473s-5.751-.4-7.088.264-1.415,3.246-6.572,3.392Z" transform="translate(-95.103 -99.937)" fill="#f69d84"/>
        <path id="Trazado_131029" data-name="Trazado 131029" d="M151.938,173.413l-1.2-.194-2.4-.393q-2.4-.4-4.8-.852c-3.19-.587-6.359-1.228-9.465-1.937-1.55-.357-3.085-.737-4.591-1.135s-2.976-.83-4.376-1.3a37.294,37.294,0,0,1-3.846-1.48,11.876,11.876,0,0,1-1.368-.738l-.012-.008-.045-.075c-.183-.292-.351-.593-.525-.891-.336-.6-.667-1.208-.972-1.83a41.006,41.006,0,0,1-1.666-3.832,48.039,48.039,0,0,1-2.269-8.2c-.264-1.413-.469-2.846-.624-4.289s-.259-2.9-.307-4.355-.055-2.918,0-4.36c.028-.721.071-1.437.128-2.135.027-.35.057-.694.09-1.027l.053-.48.04-.324-16.5-2.564-.043.3-.03.217-.049.4-.085.762c-.05.5-.093.982-.129,1.464-.066.964-.11,1.912-.134,2.858-.051,1.89-.025,3.765.071,5.639a69.665,69.665,0,0,0,1.51,11.187q.305,1.387.672,2.77c.246.918.518,1.836.8,2.748q.867,2.735,2,5.409c.7,1.632,1.481,3.241,2.345,4.812.073.137.15.275.227.411.471.852.976,1.69,1.5,2.517.265.41.525.823.8,1.228l.205.305.1.151.205.3a11.7,11.7,0,0,0,1.1,1.334,12.961,12.961,0,0,0,1.04.981c.337.288.655.531.969.758a19.11,19.11,0,0,0,1.76,1.119c.783.44,1.521.8,2.232,1.11q.445.2.877.372c.982.4,1.924.733,2.851,1.036s1.831.567,2.73.811c1.795.486,3.55.891,5.293,1.252s3.468.674,5.188.959c3.438.57,6.85,1.012,10.258,1.386q2.556.271,5.111.491c.852.074,1.7.145,2.561.207l1.287.088,1.324.082,1.264-12.882Zm-32.377-8.272c-.021-.023-.031-.035-.006-.023a.847.847,0,0,1,.14.116l.054.057a1.724,1.724,0,0,1-.187-.15" transform="translate(-45.73 -61.902)" fill="#2ff980"/>
        <path id="Trazado_131030" data-name="Trazado 131030" d="M121.01,214.277c-.711-.313-1.448-.67-2.232-1.11a19.243,19.243,0,0,1-1.76-1.119c-.314-.227-.632-.47-.969-.758a13.054,13.054,0,0,1-1.04-.981,11.756,11.756,0,0,1-1.1-1.334l-.2-.3-.1-.151-.205-.305c-.277-.4-.538-.818-.8-1.228-.52-.828-1.025-1.666-1.5-2.517-.077-.136-.154-.274-.227-.411.043-.023.085-.044.13-.063,0,0,10.645.144,10.011,10.274" transform="translate(-52.383 -96.386)" fill="#29b260"/>
        <path id="Trazado_131031" data-name="Trazado 131031" d="M143.146,219.886a.4.4,0,0,1-.161.018c-.135-.013-13.512-1.311-21-4.825A25.988,25.988,0,0,1,110.752,204.5a.4.4,0,0,1,.7-.362,25.67,25.67,0,0,0,10.865,10.228c7.365,3.456,20.605,4.741,20.738,4.754a.4.4,0,0,1,.087.77" transform="translate(-52.307 -96.346)" fill="#29b260"/>
        <path id="Trazado_131032" data-name="Trazado 131032" d="M130.922,200.713a.4.4,0,0,1-.413-.647,40.189,40.189,0,0,1,4.625-4.033.4.4,0,0,1,.471.636,40.305,40.305,0,0,0-4.518,3.939.394.394,0,0,1-.165.1" transform="translate(-61.611 -92.584)" fill="#29b260"/>
        <path id="Trazado_131033" data-name="Trazado 131033" d="M135.911,196.994a.365.365,0,0,1-.043.012c-1.575.332-3.652,1.005-3.672,1.012a.4.4,0,0,1-.247-.753h0c.087-.029,2.138-.694,3.754-1.034a.4.4,0,0,1,.206.763" transform="translate(-62.214 -92.71)" fill="#29b260"/>
        <path id="Trazado_131034" data-name="Trazado 131034" d="M129.192,162.1l-.012,0a.4.4,0,0,1-.492-.267c-.151-.51-3.7-12.551-3.7-18.612a.4.4,0,0,1,.792,0c0,5.947,3.628,18.264,3.665,18.387a.4.4,0,0,1-.255.488" transform="translate(-59.055 -67.482)" fill="#29b260"/>
        <path id="Trazado_131035" data-name="Trazado 131035" d="M125.978,148.128a.4.4,0,0,1-.459-.586l1.3-2.071a.4.4,0,0,1,.67.42l-1.3,2.071a.394.394,0,0,1-.211.166" transform="translate(-59.275 -68.644)" fill="#29b260"/>
        <path id="Trazado_131036" data-name="Trazado 131036" d="M188.955,223.244a.391.391,0,0,1-.167.017.4.4,0,0,1-.351-.436l1.36-12.493a.4.4,0,1,1,.787.085l-1.36,12.493a.4.4,0,0,1-.27.333" transform="translate(-89.031 -99.209)" fill="#29b260"/>
        <path id="Trazado_131037" data-name="Trazado 131037" d="M161.022,161a.331.331,0,0,1-.313-.225c-3.831-11.433-9.361-39.91-9.416-40.2a.33.33,0,1,1,.648-.126c.055.286,5.576,28.72,9.395,40.111a.33.33,0,0,1-.208.418.318.318,0,0,1-.1.017" transform="translate(-71.479 -56.787)" fill="#fff"/>
        <path id="Trazado_131038" data-name="Trazado 131038" d="M174.047,158.87a.33.33,0,0,1-.327-.285c-2.333-17.018-12.067-39.924-12.165-40.153a.33.33,0,0,1,.608-.26c.1.23,9.867,23.218,12.212,40.323a.331.331,0,0,1-.328.375" transform="translate(-76.318 -55.738)" fill="#fff"/>
        <path id="Trazado_131039" data-name="Trazado 131039" d="M131.991,261.555a4.242,4.242,0,0,1-2.226-.725c-2.809-1.758-6.205-7.084-7.465-15.021a.33.33,0,0,1,.652-.1c1.227,7.731,4.481,12.886,7.163,14.564a3.079,3.079,0,0,0,2.5.534,2.3,2.3,0,0,0,1.374-1.22c2.337-4.4-1.727-17.672-1.768-17.805a.33.33,0,0,1,.631-.2c.172.555,4.185,13.666,1.72,18.31a2.964,2.964,0,0,1-1.765,1.542,2.808,2.808,0,0,1-.819.119" transform="translate(-57.782 -114.032)" fill="#fff"/>
        <path id="Trazado_131040" data-name="Trazado 131040" d="M55.953,341.516q-.13.556-.3,1.086a7.818,7.818,0,0,1-4.137,5.066c-7.334,2.978-14.227,1.948-28.257,1.621S-1.191,345.247.11,333.7a14.66,14.66,0,0,1,.519-2.558A13,13,0,0,1,1.861,328.3v0A13.358,13.358,0,0,1,3.9,325.633a14.643,14.643,0,0,1,15.175-3.485c5.243,1.8,14.512,2.667,24.162,2.86,10.368.209,14.245,9.9,12.711,16.507" transform="translate(0 -151.826)" fill="#ab9df1"/>
        <path id="Trazado_131041" data-name="Trazado 131041" d="M56.392,347.743q-.13.556-.3,1.086c-2.487,2.168-7.171,3.538-13.956,4.079-2.133.171-4.478.255-7,.255a171.942,171.942,0,0,1-20.076-1.344c-6.287-.755-10.541-2.971-12.644-6.586a12.315,12.315,0,0,1-1.346-7.866A13,13,0,0,1,2.3,334.523c-.545,1.674-1.74,6.419.6,10.433,2.011,3.455,6.125,5.577,12.226,6.31,22.048,2.646,37.057,1.361,41.269-3.523" transform="translate(-0.439 -158.053)" fill="#826be9"/>
        <path id="Trazado_131042" data-name="Trazado 131042" d="M20.43,331.825a7.436,7.436,0,0,0-6.792,8.545c.014.082.029.165.045.248.93,4.648,7.178,4.509,24.535,4.671,13.592.127,20.583-4.737,16.968-10.744-2.875-4.778-25.581-3.461-34.757-2.721" transform="translate(-6.397 -156.427)" fill="#826be9"/>
        <path id="Trazado_131043" data-name="Trazado 131043" d="M55.957,327.71c-6.322,7.874-32.123,8.321-35.507,2.422-1.649-2.872-1.195-6.55-.294-9.568.094-.319.194-.63.3-.931a28.149,28.149,0,0,1,2.1-4.7s-.108,2.806,9.409,1.8a31.222,31.222,0,0,1,3.652-.147c.245,0,.5.007.749.015,10.262.308,25.065,4.308,19.6,11.113" transform="translate(-9.14 -148.796)" fill="#26120c"/>
        <path id="Trazado_131044" data-name="Trazado 131044" d="M35.953,324.5c-1.49,1.662-4.076,2.289-7.479,1.812-.076-.01-.152-.022-.229-.034-4.289-.662-6.379-2.7-7.364-4.232.094-.318.194-.63.3-.931.73,1.409,2.65,3.81,7.4,4.476,3.151.442,5.516-.1,6.836-1.577,1.189-1.329,1.5-3.38.921-5.951.246,0,.5.007.749.015.583,2.73.2,4.941-1.129,6.422" transform="translate(-9.866 -150.274)" fill="#ab9df1"/>
        <path id="Trazado_131045" data-name="Trazado 131045" d="M74.649,310.348s6.058-.447,6.776-3.5-13.175-.376-14.709-6.671,4.61-11.314,6.606-9.473c2.364,2.182-2.813,3.111-3.091,6.349-.231,2.69,1.437,5.169,6.61,5.538s7.486,1.173,7.463,3.578c-.024,2.617-4.214,5.315-6.762,5.484s-2.893-1.3-2.893-1.3" transform="translate(-31.407 -137.166)" fill="#26120c"/>
        <path id="Trazado_131046" data-name="Trazado 131046" d="M26.569,306.991a16.114,16.114,0,0,0-4.723-3.894.6.6,0,0,0-.883.595l.554,5.359s4.2.357,5.052-2.06" transform="translate(-9.902 -143.172)" fill="#26120c"/>
        <path id="Trazado_131047" data-name="Trazado 131047" d="M23.45,309.7c-.237-1.215-.3-2.492-.576-3.924,0,0,3.158,1.882,3.347,2.918,0,0-1.742,1.32-2.771,1.006" transform="translate(-10.807 -144.471)" fill="#564c54"/>
        <path id="Trazado_131048" data-name="Trazado 131048" d="M41.988,309.248a16.123,16.123,0,0,1,5.7-1.895.671.671,0,0,1,.678.969l-2.212,4.411s-4.256-.924-4.169-3.485" transform="translate(-19.837 -145.214)" fill="#26120c"/>
        <path id="Trazado_131049" data-name="Trazado 131049" d="M46.138,313.129c.663-1.046,1.183-2.214,1.965-3.446,0,0-3.626.6-4.179,1.5,0,0,1.143,1.863,2.215,1.945" transform="translate(-20.752 -146.317)" fill="#564c54"/>
        <path id="Trazado_131050" data-name="Trazado 131050" d="M24.033,310.32s-3.74.572-3.46,4.954a5.187,5.187,0,0,0,4.548,4.849s.761,1.41,3.4,1.98c1.687.365,4.2.25,4.836-.991,0,0,3.663-1.343,3.621-4.607-.047-3.617-4.407-8.059-12.942-6.185" transform="translate(-9.713 -146.408)" fill="#26120c"/>
        <path id="Trazado_131051" data-name="Trazado 131051" d="M17.778,330.358s1.526,6.221,2.8,7.505a7.182,7.182,0,0,0,4.448,2.2c2.878.349,2.345,2.267,1.488,2.926-.994.764-2.755.329-5.4.329-2.285,0-4.438-.456-5.21-1.958s-.721-5.947.1-8.446a3.977,3.977,0,0,1,1.769-2.56" transform="translate(-7.257 -156.085)" fill="#26120c"/>
        <path id="Trazado_131052" data-name="Trazado 131052" d="M48.47,331.136s-1.526,6.221-2.8,7.505a7.546,7.546,0,0,1-4.448,2.2,1.885,1.885,0,0,0-1.488,2.926c.838.933,2.755.329,5.4.329,2.285,0,4.987-.915,5.758-2.417s.172-5.488-.649-7.987a3.976,3.976,0,0,0-1.769-2.56" transform="translate(-18.624 -156.453)" fill="#26120c"/>
        <path id="Trazado_131053" data-name="Trazado 131053" d="M73.357,328.657s4.025-.964,5.322,2.069c2.039,4.771.409,7.5-5.028,8.254s-11.619,1.786-6.945-2.082a25.786,25.786,0,0,0,6.651-8.242" transform="translate(-30.737 -155.213)" fill="#26120c"/>
        <path id="Trazado_131054" data-name="Trazado 131054" d="M37.678,324.078a7.148,7.148,0,0,0-2.056.026c-.726.334.441,1.689,1.185,1.8a1.463,1.463,0,0,0,1.456-1.323.51.51,0,0,0-.584-.507" transform="translate(-16.722 -153.085)" fill="#564c54"/>
        <path id="Trazado_131055" data-name="Trazado 131055" d="M41.2,321.526a.081.081,0,0,0-.1.121,1.787,1.787,0,0,0,1.723.723,1.245,1.245,0,0,0,1.009-1.015.081.081,0,0,0-.149-.06,1.328,1.328,0,0,1-1.154.65,2.391,2.391,0,0,1-1.324-.418" transform="translate(-19.406 -151.784)" fill="#564c54"/>
        <path id="Trazado_131056" data-name="Trazado 131056" d="M29.252,321.12a.081.081,0,0,0-.126.1,1.788,1.788,0,0,0,1.561,1.028,1.244,1.244,0,0,0,1.177-.813.081.081,0,0,0-.135-.087,1.327,1.327,0,0,1-1.253.427,2.394,2.394,0,0,1-1.225-.655" transform="translate(-13.756 -151.71)" fill="#564c54"/>
        <path id="Trazado_131057" data-name="Trazado 131057" d="M290.815,1.8V39.7a1.8,1.8,0,0,1-1.8,1.8H224.878a1.8,1.8,0,0,1-1.8-1.8V1.8a1.8,1.8,0,0,1,1.8-1.8h64.136a1.8,1.8,0,0,1,1.8,1.8" transform="translate(-105.397 0)" fill="#fff"/>
        <path id="Trazado_131058" data-name="Trazado 131058" d="M255.34,33.419a11.937,11.937,0,1,1-22.949-4.613L243.4,33.419,242.839,21.5c.185-.011.375-.014.565-.014A11.936,11.936,0,0,1,255.34,33.419" transform="translate(-109.362 -10.151)" fill="#826be9"/>
        <path id="Trazado_131059" data-name="Trazado 131059" d="M241.415,17.777a11.95,11.95,0,0,0-10.446,7.308L241.981,29.7Z" transform="translate(-109.127 -8.399)" fill="#ab9df1"/>
        <rect id="Rectángulo_36948" data-name="Rectángulo 36948" width="1.639" height="1.639" transform="translate(173.074 15.049)" fill="#826be9"/>
        <path id="Trazado_131060" data-name="Trazado 131060" d="M339.145,30.1h-5.874a.018.018,0,0,1-.018-.018V29.71a.018.018,0,0,1,.018-.018h5.874a.018.018,0,0,1,.018.018v.375a.018.018,0,0,1-.018.018" transform="translate(-157.454 -14.029)" fill="#d5cef8"/>
        <rect id="Rectángulo_36949" data-name="Rectángulo 36949" width="1.639" height="1.639" transform="translate(173.074 12.128)" fill="#583ae2"/>
        <path id="Trazado_131061" data-name="Trazado 131061" d="M339.145,24.565h-5.874a.018.018,0,0,1-.018-.018v-.375a.018.018,0,0,1,.018-.018h5.874a.018.018,0,0,1,.018.018v.375a.018.018,0,0,1-.018.018" transform="translate(-157.454 -11.413)" fill="#d5cef8"/>
        <rect id="Rectángulo_36950" data-name="Rectángulo 36950" width="1.639" height="1.639" transform="translate(173.074 17.97)" fill="#826be9"/>
        <path id="Trazado_131062" data-name="Trazado 131062" d="M339.145,35.638h-5.874a.018.018,0,0,1-.018-.018v-.375a.018.018,0,0,1,.018-.018h5.874a.018.018,0,0,1,.018.018v.375a.018.018,0,0,1-.018.018" transform="translate(-157.454 -16.644)" fill="#d5cef8"/>
        <path id="Trazado_131063" data-name="Trazado 131063" d="M336.515,46.541H328.29a.205.205,0,1,1,0-.41h8.225a.205.205,0,0,1,0,.41" transform="translate(-155.011 -21.796)" fill="#d5cef8"/>
        <path id="Trazado_131064" data-name="Trazado 131064" d="M336.515,49.736H328.29a.205.205,0,1,1,0-.41h8.225a.205.205,0,0,1,0,.41" transform="translate(-155.011 -23.305)" fill="#d5cef8"/>
        <path id="Trazado_131065" data-name="Trazado 131065" d="M336.515,52.931H328.29a.205.205,0,1,1,0-.41h8.225a.205.205,0,0,1,0,.41" transform="translate(-155.011 -24.815)" fill="#d5cef8"/>
        <path id="Trazado_131066" data-name="Trazado 131066" d="M336.515,56.126H328.29a.205.205,0,1,1,0-.41h8.225a.205.205,0,0,1,0,.41" transform="translate(-155.011 -26.324)" fill="#d5cef8"/>
        <path id="Trazado_131067" data-name="Trazado 131067" d="M336.515,59.32H328.29a.205.205,0,1,1,0-.41h8.225a.205.205,0,0,1,0,.41" transform="translate(-155.011 -27.833)" fill="#d5cef8"/>
        <path id="Trazado_131068" data-name="Trazado 131068" d="M336.515,62.515H328.29a.205.205,0,1,1,0-.41h8.225a.205.205,0,0,1,0,.41" transform="translate(-155.011 -29.343)" fill="#d5cef8"/>
        <path id="Trazado_131069" data-name="Trazado 131069" d="M336.515,65.71H328.29a.205.205,0,1,1,0-.41h8.225a.205.205,0,0,1,0,.41" transform="translate(-155.011 -30.853)" fill="#d5cef8"/>
        <path id="Trazado_131070" data-name="Trazado 131070" d="M290.815,1.8V4.965H223.076V1.8a1.8,1.8,0,0,1,1.8-1.8h64.136a1.8,1.8,0,0,1,1.8,1.8" transform="translate(-105.397 0)" fill="#26120c"/>
        <path id="Trazado_131071" data-name="Trazado 131071" d="M336.462,3.958a.835.835,0,1,1-.835-.835.834.834,0,0,1,.835.835" transform="translate(-158.181 -1.476)" fill="#d5cef8"/>
        <path id="Trazado_131072" data-name="Trazado 131072" d="M341.589,3.958a.835.835,0,1,1-.835-.835.834.834,0,0,1,.835.835" transform="translate(-160.603 -1.476)" fill="#ab9df1"/>
        <path id="Trazado_131073" data-name="Trazado 131073" d="M346.5,3.958a.835.835,0,1,1-.835-.835.834.834,0,0,1,.835.835" transform="translate(-162.922 -1.476)" fill="#826be9"/>
        <path id="Trazado_131074" data-name="Trazado 131074" d="M265.525,33.419a11.888,11.888,0,0,1-3.074,8l-8.862-8L253.024,21.5c.185-.011.375-.014.565-.014a11.936,11.936,0,0,1,11.936,11.935" transform="translate(-119.547 -10.151)" fill="#583ae2"/>
        <rect id="Rectángulo_36951" data-name="Rectángulo 36951" width="3.8" height="16.284" transform="translate(157.6 20.253)" fill="#826be9"/>
        <path id="Trazado_131075" data-name="Trazado 131075" d="M298.752,59.362a14.815,14.815,0,0,0,3.8-1.963v6.258h-3.8Z" transform="translate(-141.152 -27.119)" fill="#583ae2"/>
        <rect id="Rectángulo_36952" data-name="Rectángulo 36952" width="3.8" height="11.759" transform="translate(151.389 24.778)" fill="#826be9"/>
        <path id="Trazado_131076" data-name="Trazado 131076" d="M290.074,61.535a6.711,6.711,0,0,0,.7.064v3.955h-3.8V61.637a6.862,6.862,0,0,1,3.1-.1" transform="translate(-135.589 -29.018)" fill="#583ae2"/>
        <rect id="Rectángulo_36953" data-name="Rectángulo 36953" width="3.8" height="21.149" transform="translate(163.811 15.388)" fill="#826be9"/>
        <path id="Trazado_131077" data-name="Trazado 131077" d="M314.327,51.143V60.7h-3.8V52.766a7.338,7.338,0,0,1,3.8-1.623" transform="translate(-146.716 -24.164)" fill="#583ae2"/>
        <path id="Trazado_131078" data-name="Trazado 131078" d="M302.838,17.484l-3.429.735.921.9-5.251,5.353-1.843-1.807-6.516,6.643a.643.643,0,1,0,.918.9l5.616-5.725,1.843,1.807,6.151-6.271.921.9Z" transform="translate(-135.381 -8.261)" fill="#826be9"/>
        <rect id="Rectángulo_36954" data-name="Rectángulo 36954" width="26.166" height="18.074" transform="matrix(1, -0.001, 0.001, 1, 22.574, 43.04)" fill="#826be9"/>
        <path id="Trazado_131079" data-name="Trazado 131079" d="M42.794,81.556l0,1.159,13.1,11.576L68.96,82.677l0-1.158L55.893,93.173Z" transform="translate(-20.219 -38.516)" fill="#583ae2"/>
        <path id="Trazado_131080" data-name="Trazado 131080" d="M72.4,98.71l9.817,8.706h.758v-.461L72.959,98.076Z" transform="translate(-34.205 -46.338)" fill="#583ae2"/>
        <path id="Trazado_131081" data-name="Trazado 131081" d="M42.84,107.061v.4h.827l9.791-8.735-.564-.632Z" transform="translate(-20.241 -46.346)" fill="#583ae2"/>
        <path id="Trazado_131082" data-name="Trazado 131082" d="M68.959,81.517,55.894,93.171l-13.1-11.617Z" transform="translate(-20.219 -38.515)" fill="#826be9"/>
        <path id="Trazado_131083" data-name="Trazado 131083" d="M90.649,78.179A5.679,5.679,0,1,1,84.97,72.5a5.679,5.679,0,0,1,5.679,5.679" transform="translate(-37.463 -34.254)" fill="#ab9df1"/>
        <path id="Trazado_131084" data-name="Trazado 131084" d="M86.111,83.547h0a.55.55,0,0,1-.389-.161L84.33,81.994a.551.551,0,0,1,.779-.779l1,1,3.905-3.905a.551.551,0,1,1,.779.779l-4.3,4.295a.55.55,0,0,1-.389.161" transform="translate(-39.768 -36.924)" fill="#fff"/>
        <path id="Trazado_131085" data-name="Trazado 131085" d="M343.012,159.349V95.16a1.778,1.778,0,0,0-1.778-1.778H308.748a1.778,1.778,0,0,0-1.778,1.778v64.189a3.6,3.6,0,0,0,3.6,3.6h28.85a3.6,3.6,0,0,0,3.6-3.6" transform="translate(-145.035 -44.12)" fill="#fff"/>
        <path id="Trazado_131086" data-name="Trazado 131086" d="M342.848,184.377H318.839a.792.792,0,0,1,0-1.584h24.009a.792.792,0,0,1,0,1.584" transform="translate(-150.269 -86.365)" fill="#d5cef8"/>
        <path id="Trazado_131087" data-name="Trazado 131087" d="M342.848,193.9H318.839a.792.792,0,0,1,0-1.584h24.009a.792.792,0,0,1,0,1.584" transform="translate(-150.269 -90.862)" fill="#d5cef8"/>
        <path id="Trazado_131088" data-name="Trazado 131088" d="M342.848,203.416H318.839a.792.792,0,0,1,0-1.584h24.009a.792.792,0,0,1,0,1.584" transform="translate(-150.269 -95.36)" fill="#d5cef8"/>
        <path id="Trazado_131089" data-name="Trazado 131089" d="M342.848,212.936H318.839a.792.792,0,0,1,0-1.584h24.009a.792.792,0,0,1,0,1.584" transform="translate(-150.269 -99.858)" fill="#d5cef8"/>
        <path id="Trazado_131090" data-name="Trazado 131090" d="M343.012,95.161v4.929H306.97V95.161a1.778,1.778,0,0,1,1.778-1.778h32.486a1.778,1.778,0,0,1,1.778,1.778" transform="translate(-145.035 -44.121)" fill="#26120c"/>
        <path id="Trazado_131091" data-name="Trazado 131091" d="M356.648,98.078a1.172,1.172,0,1,1-1.172-1.172,1.171,1.171,0,0,1,1.172,1.172" transform="translate(-167.4 -45.785)" fill="#d5cef8"/>
        <path id="Trazado_131092" data-name="Trazado 131092" d="M363.848,98.078a1.172,1.172,0,1,1-1.172-1.172,1.172,1.172,0,0,1,1.172,1.172" transform="translate(-170.801 -45.785)" fill="#ab9df1"/>
        <path id="Trazado_131093" data-name="Trazado 131093" d="M370.742,98.078a1.172,1.172,0,1,1-1.172-1.172,1.171,1.171,0,0,1,1.172,1.172" transform="translate(-174.059 -45.785)" fill="#826be9"/>
        <rect id="Rectángulo_36955" data-name="Rectángulo 36955" width="4.054" height="9.795" transform="translate(169.071 83.44)" fill="#826be9"/>
        <rect id="Rectángulo_36956" data-name="Rectángulo 36956" width="4.054" height="16.752" transform="translate(175.05 76.484)" fill="#583ae2"/>
        <rect id="Rectángulo_36957" data-name="Rectángulo 36957" width="4.054" height="21.884" transform="translate(181.671 71.351)" fill="#826be9"/>
        <rect id="Rectángulo_36958" data-name="Rectángulo 36958" width="4.054" height="27.909" transform="translate(188.157 65.327)" fill="#ab9df1"/>
        <path id="Trazado_131094" data-name="Trazado 131094" d="M350.2,113.679l2.81,1.031-.323-3.29Z" transform="translate(-165.459 -52.643)" fill="#d5cef8"/>
        <path id="Trazado_131095" data-name="Trazado 131095" d="M318.112,132.995a.3.3,0,0,1-.107-.589c.123-.045,12.321-4.72,18.271-17.283a.3.3,0,1,1,.55.26c-6.059,12.793-18.483,17.546-18.609,17.593a.31.31,0,0,1-.106.019" transform="translate(-150.156 -54.31)" fill="#d5cef8"/>
        <path id="Trazado_131096" data-name="Trazado 131096" d="M56.688,18.48V28.5a2.4,2.4,0,0,0,2.4,2.4H77.276l5.491,1.97a.7.7,0,0,0,.888-.909l-2.077-5.364V18.48a2.4,2.4,0,0,0-2.4-2.4H59.087a2.4,2.4,0,0,0-2.4,2.4" transform="translate(-26.784 -7.598)" fill="#826be9"/>
        <path id="Trazado_131097" data-name="Trazado 131097" d="M86.643,29.109a1.735,1.735,0,1,0,1.735-1.735,1.735,1.735,0,0,0-1.735,1.735" transform="translate(-40.937 -12.933)" fill="#583ae2"/>
        <path id="Trazado_131098" data-name="Trazado 131098" d="M76.231,29.109a1.735,1.735,0,1,0,1.735-1.735,1.735,1.735,0,0,0-1.735,1.735" transform="translate(-36.017 -12.933)" fill="#583ae2"/>
        <path id="Trazado_131099" data-name="Trazado 131099" d="M65.819,29.109a1.735,1.735,0,1,0,1.735-1.735,1.735,1.735,0,0,0-1.735,1.735" transform="translate(-31.098 -12.933)" fill="#583ae2"/>
        <path id="Trazado_131100" data-name="Trazado 131100" d="M129.868,11.04h-8.66a1.009,1.009,0,0,1-1.009-1.009V1.371A1.009,1.009,0,0,1,121.208.362h8.66a1.01,1.01,0,0,1,1.009,1.009v8.659a1.009,1.009,0,0,1-1.009,1.009" transform="translate(-56.791 -0.171)" fill="#ab9df1"/>
        <path id="Trazado_131101" data-name="Trazado 131101" d="M130.6,5.112c-.017-.074-.035-.148-.053-.221a1.646,1.646,0,0,0-.362-.69,1.687,1.687,0,0,0-.434-.362.5.5,0,0,0-.648.127q-.446.539-.888,1.082a.513.513,0,0,0,.073.725c.16.142.329.274.495.409a.578.578,0,0,0,.064.042A4.758,4.758,0,0,1,126.825,8.7l-.36-.3c-.063-.052-.125-.1-.189-.154a.51.51,0,0,0-.618-.032.79.79,0,0,0-.165.162c-.269.324-.534.653-.8.977a.685.685,0,0,0-.159.348l.014.145a1.107,1.107,0,0,0,.143.242,1.841,1.841,0,0,0,.538.39,1.512,1.512,0,0,0,.759.152,2.906,2.906,0,0,0,.518-.1,4.156,4.156,0,0,0,1.2-.58,6.331,6.331,0,0,0,1.014-.859,10.258,10.258,0,0,0,1.123-1.4,5.1,5.1,0,0,0,.641-1.256,2.85,2.85,0,0,0,.14-.7c.006-.1.008-.193.013-.289-.011-.11-.022-.221-.033-.331" transform="translate(-58.838 -1.781)" fill="#fff"/>
        <path id="Trazado_131102" data-name="Trazado 131102" d="M159.435,10.839H150.4a.9.9,0,0,1-.9-.9V.9a.9.9,0,0,1,.9-.9h9.037a.9.9,0,0,1,.9.9V9.939a.9.9,0,0,1-.9.9" transform="translate(-70.633)" fill="#826be9"/>
        <path id="Trazado_131103" data-name="Trazado 131103" d="M160.131,7.141c0,1.353-.757,2.053-1.663,2.053a1.141,1.141,0,0,1-1.118-.616,1.1,1.1,0,0,1-1.076.616,1.616,1.616,0,0,1-1.5-1.762,1.6,1.6,0,0,1,1.5-1.755,1.119,1.119,0,0,1,.871.348V5.74H158.5V7.764c0,.3.12.389.276.389.2,0,.361-.2.361-.99a2.192,2.192,0,0,0-2.413-2.187A2.306,2.306,0,0,0,154.3,7.339a2.275,2.275,0,0,0,2.4,2.378,3.4,3.4,0,0,0,1.43-.311l.3.871a4.321,4.321,0,0,1-1.727.339,3.277,3.277,0,1,1,.028-6.537,3.147,3.147,0,0,1,3.4,3.063m-2.957.291c0-.425-.219-.644-.509-.644s-.5.219-.5.644.212.65.5.65.509-.218.509-.65" transform="translate(-72.385 -1.927)" fill="#fff"/>
        <path id="Trazado_131104" data-name="Trazado 131104" d="M187.13,10.839h-9.038a.9.9,0,0,1-.9-.9V.9a.9.9,0,0,1,.9-.9h9.038a.9.9,0,0,1,.9.9V9.939a.9.9,0,0,1-.9.9" transform="translate(-83.718)" fill="#583ae2"/>
        <path id="Trazado_131105" data-name="Trazado 131105" d="M186.061,9.841l-.006.772-.98-.008.006-.737a4.093,4.093,0,0,1-1.783-.5l.538-1.192a3.345,3.345,0,0,0,1.6.458c.466,0,.634-.092.635-.259,0-.612-2.689-.14-2.675-1.954.006-.786.581-1.442,1.723-1.592l.006-.758.98.008-.006.744a3.625,3.625,0,0,1,1.408.415l-.5,1.184a3.008,3.008,0,0,0-1.353-.372c-.48,0-.634.134-.635.3,0,.584,2.69.119,2.675,1.913-.006.751-.553,1.4-1.633,1.579" transform="translate(-86.603 -1.923)" fill="#fff"/>
      </g>
    </g>
  </g>
</svg>
