<svg id="Grupo_86536" data-name="Grupo 86536" xmlns="http://www.w3.org/2000/svg" xmlns:xlink="http://www.w3.org/1999/xlink" width="89.76" height="89.758" viewBox="0 0 89.76 89.758">
  <defs>
    <clipPath id="clip-path">
      <rect id="Rectángulo_36894" data-name="Rectángulo 36894" width="89.76" height="89.758" fill="none"/>
    </clipPath>
  </defs>
  <g id="Grupo_86535" data-name="Grupo 86535" clip-path="url(#clip-path)">
    <path id="Trazado_130571" data-name="Trazado 130571" d="M60.806,0q10.605,0,21.21,0c4.69,0,7.741,3.038,7.742,7.711q0,16.915,0,33.831a7.286,7.286,0,0,1-7.687,7.7c-2.951.009-5.9.029-8.852-.017-.716-.011-.845.215-.84.872.03,3.915.019,7.829.013,11.744a7.235,7.235,0,0,1-7.549,7.641c-2.045.021-4.091.031-6.135-.012-.664-.014-.832.185-.827.836.03,3.915.02,7.829.013,11.744-.008,4.692-3.038,7.709-7.734,7.709q-21.21,0-42.42,0C3.058,89.756,0,86.709,0,82.041q0-16.915,0-33.83A7.283,7.283,0,0,1,7.69,40.519c2.016-.007,4.032-.027,6.047.014.626.013.766-.181.762-.782q-.04-5.959-.009-11.92a7.2,7.2,0,0,1,5.79-7.406,10.154,10.154,0,0,1,2-.143c2.921-.014,5.843-.026,8.764.009.66.008.834-.18.829-.834-.03-3.914-.02-7.829-.014-11.744C31.873,3.017,34.9,0,39.6,0Q50.2,0,60.806,0M43.484,23.156q-10.645,0-21.29,0c-3.056,0-4.825,1.777-4.825,4.845q0,16.866,0,33.731c0,3.114,1.763,4.869,4.891,4.869q21.159,0,42.318,0c3.164,0,4.9-1.709,4.9-4.847q.005-16.866,0-33.731c0-3.15-1.724-4.866-4.875-4.867q-10.558,0-21.115,0m-14.5,63.691q10.605,0,21.21,0c3.083,0,4.828-1.75,4.83-4.836,0-3.827-.025-7.655.021-11.481.01-.826-.171-1.074-1.039-1.071-10.517.033-21.035.021-31.552.02a10.235,10.235,0,0,1-2.182-.137A7.219,7.219,0,0,1,14.5,61.915q-.022-8.808.012-17.616c0-.7-.19-.885-.877-.869-1.956.046-3.914.014-5.872.016-3.163,0-4.851,1.7-4.852,4.878q0,16.828,0,33.655c0,3.166,1.7,4.864,4.868,4.865q10.605,0,21.21,0M60.839,2.921q-10.736,0-21.472,0a4.326,4.326,0,0,0-4.63,4.585c-.013,3.973.011,7.946-.018,11.919,0,.654.176.843.835.841q10.735-.033,21.471,0c.7,0,.881-.2.876-.884-.029-4.236,0-8.472-.032-12.707-.006-.739.207-.912.923-.909q12.138.037,24.276,0c.711,0,.926.148.922.9-.032,6.748-.018,13.5-.019,20.245,0,2.191.04,4.383-.019,6.572a4.341,4.341,0,1,1-3.6-4.444c.56.1.712,0,.71-.567q-.026-6.616,0-13.233c0-.567-.161-.748-.738-.747q-9.421.027-18.842,0c-.565,0-.683.2-.672.711.029,1.4.051,2.806-.007,4.206-.03.719.231.869.893.861a23.371,23.371,0,0,1,4.9.15,7.231,7.231,0,0,1,5.8,7.331q.017,8.851-.013,17.7c0,.688.174.88.867.871,2.95-.039,5.9-.012,8.851-.018,3.006-.006,4.741-1.721,4.742-4.718q.01-16.958,0-33.916c0-3.054-1.719-4.75-4.792-4.751q-10.6,0-21.209,0M70.911,8.707h-8.15c-1.95,0-1.916,0-1.961,1.962-.016.712.149.93.9.926,5.784-.034,11.567-.019,17.351-.019,2.016,0,1.977,0,2.019-1.99.016-.774-.269-.9-.957-.894-3.067.034-6.134.015-9.2.015M81.038,33.279a1.374,1.374,0,0,0-1.46-1.4,1.422,1.422,0,1,0,1.46,1.4" transform="translate(0 0)" fill="#1f1a17"/>
    <path id="Trazado_130572" data-name="Trazado 130572" d="M75.637,66.024q10.558,0,21.115,0c3.15,0,4.875,1.717,4.875,4.867q0,16.866,0,33.732c0,3.138-1.733,4.847-4.9,4.847H54.412c-3.128,0-4.891-1.755-4.891-4.869q0-16.866,0-33.732c0-3.068,1.77-4.844,4.825-4.845q10.645,0,21.29,0M64.062,101.645l27.794-13.9L64.062,73.852ZM52.436,77.183v4.112c0,2.113,0,2.085,2.131,2.108.633.007.76-.186.754-.781-.029-3.354,0-6.707-.029-10.061-.006-.62.165-.8.777-.767.96.052,1.924.014,2.886.014,2.215,0,2.2,0,2.154-2.25-.01-.509-.169-.628-.648-.621-1.633.027-3.266,0-4.9.012a2.855,2.855,0,0,0-3.124,3.16c-.011,1.691,0,3.383,0,5.074M98.763,90.642c0-1.468,0-1.468-1.44-1.468h-.087c-1.405,0-1.405,0-1.405,1.427,0,1.511,0,1.511,1.494,1.511,1.438,0,1.438,0,1.438-1.469m0,5.79c0-1.468,0-1.468-1.442-1.468h-.087c-1.4,0-1.4,0-1.4,1.429,0,1.507,0,1.507,1.5,1.507,1.436,0,1.436,0,1.436-1.468m-1.382,4.323c-1.551,0-1.551,0-1.551,1.545,0,1.39,0,1.39,1.349,1.39,1.583,0,1.583,0,1.583-1.58,0-1.355,0-1.355-1.382-1.355M55.307,87.832c0-1.518,0-1.518-1.478-1.518h-.088c-1.306,0-1.306,0-1.306,1.347,0,1.517,0,1.517,1.486,1.517,1.386,0,1.386,0,1.386-1.347m-1.346,7.137c1.346,0,1.346,0,1.346-1.387,0-1.478,0-1.478-1.517-1.478-1.354,0-1.354,0-1.354,1.385,0,1.48,0,1.48,1.525,1.48" transform="translate(-32.152 -42.868)" fill="#e4e7ea"/>
    <path id="Trazado_130573" data-name="Trazado 130573" d="M34.363,167.249q-10.605,0-21.21,0c-3.164,0-4.867-1.7-4.868-4.865q0-16.828,0-33.655c0-3.181,1.689-4.874,4.852-4.878,1.957,0,3.916.029,5.872-.016.686-.016.88.173.877.869q-.042,8.808-.012,17.616a7.219,7.219,0,0,0,5.778,7.425,10.234,10.234,0,0,0,2.181.137q15.776,0,31.552-.02c.868,0,1.049.245,1.039,1.071-.046,3.827-.018,7.654-.021,11.481,0,3.086-1.747,4.835-4.83,4.836q-10.605,0-21.21,0m7.952-5.786H55.544c1.94,0,1.894,0,1.959-1.959.027-.8-.225-.941-.969-.939q-13.71.04-27.42.018c-2,0-2,0-2.007-1.961a1.121,1.121,0,0,1,0-.175c.094-.6-.127-.807-.757-.794-1.868.04-3.738,0-5.606.022-.75.009-1.7-.32-2.2.154-.471.445-.152,1.386-.135,2.1.013.574-.2.672-.713.661-1.459-.03-2.92-.011-4.38-.011-2.227,0-2.211,0-2.164,2.25.011.495.145.651.642.64,1.431-.029,2.862-.023,4.293,0,.725.009,1.638-.3,2.125.121.506.439.172,1.375.159,2.087-.011.613.224.714.763.706,1.956-.028,3.913-.011,5.869-.011,2.09,0,2.118,0,2.084-2.046-.011-.672.152-.886.858-.881,4.789.033,9.578.017,14.367.017M12.639,129.636c-1.474,0-1.474,0-1.474,1.341,0,1.528,0,1.528,1.55,1.528,1.365,0,1.365,0,1.365-1.387,0-1.482,0-1.482-1.441-1.482m-.109,8.66c1.55,0,1.55,0,1.55-1.466,0-1.4,0-1.4-1.43-1.4-1.485,0-1.485,0-1.485,1.5,0,1.367,0,1.367,1.365,1.367m.059,5.791c1.492,0,1.492,0,1.492-1.44s0-1.432-1.4-1.432c-1.513,0-1.513,0-1.513,1.476,0,1.4,0,1.4,1.424,1.4" transform="translate(-5.378 -80.402)" fill="#f3d47e"/>
    <path id="Trazado_130574" data-name="Trazado 130574" d="M125.117,8.325q10.6,0,21.209,0c3.073,0,4.791,1.7,4.792,4.751q.008,16.958,0,33.916c0,3-1.737,4.712-4.742,4.718-2.951.006-5.9-.021-8.851.018-.693.009-.87-.183-.867-.871q.042-8.852.013-17.7a7.231,7.231,0,0,0-5.8-7.331,23.371,23.371,0,0,0-4.9-.15c-.662.008-.923-.142-.893-.861.058-1.4.036-2.8.007-4.206-.011-.513.108-.713.672-.711q9.421.028,18.843,0c.577,0,.74.18.738.747q-.029,6.616,0,13.233c0,.57-.15.67-.71.566a4.313,4.313,0,0,0-5.057,3.883,4.341,4.341,0,1,0,8.661.561c.058-2.189.018-4.381.019-6.572,0-6.748-.013-13.5.019-20.245,0-.748-.211-.9-.922-.9q-12.138.039-24.276,0c-.716,0-.929.171-.923.909.037,4.236,0,8.471.032,12.707,0,.683-.18.886-.876.883q-10.735-.037-21.471,0c-.659,0-.84-.187-.835-.841.029-3.973.005-7.946.018-11.919a4.326,4.326,0,0,1,4.63-4.585q10.735-.013,21.472,0m-14.558,5.79h6.66c2.1,0,2.069,0,2.108-2.086.013-.719-.224-.857-.887-.853-4.791.026-9.581.014-14.373.014-2.187,0-2.163,0-2.149,2.2,0,.593.195.74.753.735,2.629-.023,5.258-.01,7.887-.01m-.013,5.792h6.66c2.115,0,2.084,0,2.119-2.073.012-.693-.182-.875-.872-.871-4.791.031-9.581.016-14.372.016-2.2,0-2.168,0-2.164,2.19,0,.666.266.753.829.748,2.6-.023,5.2-.01,7.8-.01" transform="translate(-64.278 -5.404)" fill="#6fcaae"/>
    <path id="Trazado_130575" data-name="Trazado 130575" d="M183.474,24.8c3.067,0,6.134.019,9.2-.014.689-.007.974.12.957.894-.042,1.989,0,1.989-2.019,1.989-5.784,0-11.567-.015-17.35.019-.75,0-.915-.214-.9-.926.045-1.961.011-1.962,1.961-1.962h8.149" transform="translate(-112.562 -16.091)" fill="#70cbae"/>
    <path id="Trazado_130576" data-name="Trazado 130576" d="M225.792,92.3a1.388,1.388,0,0,1-1.422,1.445,1.422,1.422,0,0,1-.038-2.843,1.374,1.374,0,0,1,1.46,1.4" transform="translate(-144.754 -59.02)" fill="#6ec7ab"/>
    <path id="Trazado_130577" data-name="Trazado 130577" d="M90.986,116.137V88.344l27.793,13.894-27.793,13.9m21.254-13.888c-.2-.125-.271-.176-.347-.215q-8.678-4.345-17.35-8.7c-.695-.351-.744-.1-.742.513q.022,8.366-.006,16.73c0,.813.177.85.853.509q8.469-4.273,16.964-8.5c.176-.088.346-.187.628-.341" transform="translate(-59.076 -57.361)" fill="#201a17"/>
    <path id="Trazado_130578" data-name="Trazado 130578" d="M57.829,82.576c0-1.691-.009-3.383,0-5.074a2.854,2.854,0,0,1,3.124-3.16c1.633-.009,3.267.014,4.9-.012.48-.008.638.112.648.621.043,2.25.061,2.25-2.154,2.25-.962,0-1.926.038-2.886-.014-.612-.033-.783.147-.777.768.032,3.353,0,6.707.029,10.06.005.6-.121.788-.754.781-2.131-.023-2.131,0-2.131-2.108V82.576" transform="translate(-37.546 -48.261)" fill="#1d1714"/>
    <path id="Trazado_130579" data-name="Trazado 130579" d="M184.5,133.5c0,1.469,0,1.469-1.439,1.469-1.494,0-1.494,0-1.494-1.51,0-1.427,0-1.427,1.406-1.427h.087c1.44,0,1.44,0,1.44,1.468" transform="translate(-117.889 -85.726)" fill="#28221f"/>
    <path id="Trazado_130580" data-name="Trazado 130580" d="M184.5,150.009c0,1.468,0,1.468-1.436,1.468-1.5,0-1.5,0-1.5-1.506,0-1.43,0-1.43,1.4-1.43h.087c1.441,0,1.441,0,1.441,1.468" transform="translate(-117.889 -96.446)" fill="#28221f"/>
    <path id="Trazado_130581" data-name="Trazado 130581" d="M183.116,165.053c1.382,0,1.382,0,1.382,1.355,0,1.58,0,1.58-1.583,1.58-1.349,0-1.349,0-1.349-1.39,0-1.545,0-1.545,1.55-1.545" transform="translate(-117.889 -107.167)" fill="#28221f"/>
    <path id="Trazado_130582" data-name="Trazado 130582" d="M60.706,125.4c0,1.347,0,1.347-1.386,1.347-1.486,0-1.486,0-1.486-1.517,0-1.347,0-1.347,1.306-1.347h.088c1.478,0,1.478,0,1.478,1.518" transform="translate(-37.551 -80.434)" fill="#1d1714"/>
    <path id="Trazado_130583" data-name="Trazado 130583" d="M59.36,143.254c-1.525,0-1.525,0-1.525-1.48,0-1.385,0-1.385,1.354-1.385,1.518,0,1.518,0,1.517,1.478,0,1.387,0,1.387-1.346,1.387" transform="translate(-37.552 -91.153)" fill="#1d1714"/>
    <path id="Trazado_130584" data-name="Trazado 130584" d="M47.608,220.225c-4.789,0-9.578.016-14.367-.017-.707,0-.869.208-.858.881.034,2.045.006,2.046-2.084,2.046-1.956,0-3.913-.017-5.87.011-.539.007-.774-.093-.763-.706.013-.712.347-1.648-.159-2.087-.487-.423-1.4-.112-2.126-.121-1.431-.019-2.862-.025-4.292,0-.5.01-.632-.146-.642-.64-.047-2.25-.063-2.25,2.164-2.25,1.46,0,2.92-.02,4.38.011.508.011.726-.087.713-.661-.016-.717-.336-1.659.135-2.1.5-.474,1.447-.144,2.2-.154,1.869-.022,3.738.019,5.606-.022.63-.014.851.2.757.794a1.079,1.079,0,0,0,0,.175c0,1.961,0,1.961,2.007,1.961q13.71,0,27.42-.018c.744,0,1,.136.969.939-.065,1.958-.018,1.959-1.959,1.959H47.608m-18.131-1.449c0-1.43,0-1.43-1.374-1.43-1.492,0-1.492,0-1.492,1.481,0,1.4,0,1.4,1.411,1.4,1.455,0,1.455,0,1.455-1.449" transform="translate(-10.671 -139.164)" fill="#1f1915"/>
    <path id="Trazado_130585" data-name="Trazado 130585" d="M17.974,140.383c1.441,0,1.441,0,1.441,1.482,0,1.387,0,1.387-1.365,1.387-1.55,0-1.55,0-1.55-1.528,0-1.341,0-1.341,1.474-1.341" transform="translate(-10.713 -91.149)" fill="#231c17"/>
    <path id="Trazado_130586" data-name="Trazado 130586" d="M17.866,159.762c-1.365,0-1.365,0-1.365-1.367,0-1.5,0-1.5,1.485-1.5,1.431,0,1.431,0,1.43,1.4,0,1.466,0,1.466-1.55,1.466" transform="translate(-10.714 -101.867)" fill="#231c17"/>
    <path id="Trazado_130587" data-name="Trazado 130587" d="M17.925,176.271c-1.424,0-1.424,0-1.424-1.4,0-1.476,0-1.476,1.513-1.476,1.4,0,1.4,0,1.4,1.432s0,1.44-1.492,1.44" transform="translate(-10.714 -112.585)" fill="#231c17"/>
    <path id="Trazado_130588" data-name="Trazado 130588" d="M115.963,19.4c-2.629,0-5.258-.013-7.887.01-.559.005-.75-.141-.754-.735-.014-2.2-.038-2.2,2.149-2.2,4.791,0,9.582.012,14.373-.014.663,0,.9.134.887.853-.039,2.086,0,2.086-2.108,2.086h-6.66" transform="translate(-69.682 -10.685)" fill="#1f1c18"/>
    <path id="Trazado_130589" data-name="Trazado 130589" d="M115.951,35.9c-2.6,0-5.2-.013-7.8.011-.564,0-.828-.082-.829-.748,0-2.19-.032-2.19,2.164-2.19,4.791,0,9.581.014,14.372-.016.691,0,.884.178.872.871-.035,2.072,0,2.073-2.119,2.073h-6.66" transform="translate(-69.683 -21.399)" fill="#1f1c18"/>
    <path id="Trazado_130590" data-name="Trazado 130590" d="M117.438,111.191c-.282.154-.452.253-.628.341q-8.484,4.243-16.964,8.5c-.677.342-.857.3-.853-.509q.042-8.365.006-16.73c0-.614.047-.864.742-.513q8.664,4.373,17.35,8.7c.076.039.147.09.347.215" transform="translate(-64.275 -66.302)" fill="#ec8672"/>
    <path id="Trazado_130591" data-name="Trazado 130591" d="M48.315,224.351c0,1.449,0,1.449-1.455,1.449-1.411,0-1.411,0-1.411-1.4,0-1.481,0-1.481,1.492-1.481,1.374,0,1.374,0,1.374,1.43" transform="translate(-29.509 -144.74)" fill="#e5e8eb"/>
  </g>
</svg>
