<svg xmlns="http://www.w3.org/2000/svg" xmlns:xlink="http://www.w3.org/1999/xlink" width="96" height="96" viewBox="0 0 96 96">
  <defs>
    <clipPath id="clip-path">
      <rect id="Rect치ngulo_36769" data-name="Rect치ngulo 36769" width="96" height="96" fill="#fff" stroke="#707070" stroke-width="1"/>
    </clipPath>
    <clipPath id="clip-path-2">
      <rect id="Rect치ngulo_36905" data-name="Rect치ngulo 36905" width="85.008" height="71.392" fill="none"/>
    </clipPath>
  </defs>
  <g id="Grupo_86121" data-name="Grupo 86121" clip-path="url(#clip-path)">
    <g id="Grupo_86626" data-name="Grupo 86626" transform="translate(5.496 12.304)">
      <g id="Grupo_86625" data-name="Grupo 86625" clip-path="url(#clip-path-2)">
        <path id="Trazado_130733" data-name="Trazado 130733" d="M19.735,66.754c-.977.554-1.443.474-2.127-.4a7.467,7.467,0,0,1-1.594-4.778c0-1.245-.022-2.491.01-3.735.013-.51-.145-.679-.658-.656a22.257,22.257,0,0,1-2.572,0c-.615-.043-.836.2-1.024.756a5.981,5.981,0,0,1-5.75,4.083,6.063,6.063,0,1,1,5.723-8.1.955.955,0,0,0,1.157.791,21.95,21.95,0,0,1,2.489,0c.536.029.637-.178.635-.665q-.03-4.482,0-8.965a1.388,1.388,0,0,0-.487-1.075C13.787,42.28,12.065,40.52,10.3,38.8a5.753,5.753,0,0,1-1.883-4.516c.028-.718-.036-1.441.017-2.157.04-.543-.156-.737-.667-.9a6.054,6.054,0,1,1,7.682-7.518,6.011,6.011,0,0,1-3.792,7.475.924.924,0,0,0-.755,1.1c.05,3.934-.338,3.25,2.543,6.131a22.9,22.9,0,0,0,2.565,2.327c0-.7-.009-1.4,0-2.1a20.411,20.411,0,0,1,.153-4.222A7.169,7.169,0,0,1,22.035,28.6c.841-.18,1.076-.481,1.053-1.334-.068-2.544-.031-5.09-.023-7.636A19.431,19.431,0,0,1,61.08,13.78c.288.994.138,1.346-.8,1.882-.951.09-1.37-.44-1.643-1.278a16.927,16.927,0,0,0-32.763,1.868c-.558,3.044-.243,6.115-.29,9.175-.008.607.007,1.215-.031,1.82-.03.473.177.575.59.5.84-.156,1.68-.312,2.524-.445,2.138-.337,2.139-.332,1.989-2.543.011-1.658.018-3.315.037-4.973a13.993,13.993,0,0,1,.072-1.821A11.815,11.815,0,0,1,54.3,19.619c.007,1.713.023,3.426.035,5.139-.012.607-.021,1.213-.036,1.82-.007.275.047.465.384.514,1.418.206,2.833.433,4.248.659.345.055.518-.036.5-.421-.024-.634-.02-1.269-.028-1.9.008-1.543.046-3.086.013-4.628a1.488,1.488,0,0,1,1.2-1.705c1.093.31,1.3.571,1.3,1.682,0,2.213.068,4.429-.031,6.638-.04.9.381,1.021,1.047,1.167a7.316,7.316,0,0,1,5.911,5.975,36.68,36.68,0,0,1,.123,5.221c.006.317,0,.635,0,1.209,1.645-1.715,3.236-3.111,4.6-4.73a2.261,2.261,0,0,0,.485-1.469,8.814,8.814,0,0,1,.015-1.078,2.422,2.422,0,0,0-1.68-3.021,5.7,5.7,0,0,1-2.869-6.959,6.063,6.063,0,1,1,7.8,7.458c-.618.2-.833.446-.774,1.076s-.013,1.273.018,1.907a5.847,5.847,0,0,1-1.918,4.667c-1.765,1.716-3.481,3.482-5.235,5.21a1.389,1.389,0,0,0-.449,1.09q.026,4.44,0,8.88c0,.532.128.767.685.693a3.168,3.168,0,0,1,.828,0c1.533.206,2.541-.054,3.3-1.774,1.14-2.594,4.29-3.621,7.009-2.756a6.065,6.065,0,0,1-.918,11.775,6.012,6.012,0,0,1-6.624-3.947c-.218-.641-.469-.877-1.142-.824a19.22,19.22,0,0,1-2.488,0c-.529-.027-.66.172-.648.667.029,1.216.022,2.434.007,3.651a7.448,7.448,0,0,1-6.263,7.618,92.136,92.136,0,0,1-22.138,2.249,93.025,93.025,0,0,1-16.217-1.8A1.3,1.3,0,0,1,23.2,68.11c.4-.915.792-1.162,1.728-.975,2.624.522,5.263.944,7.923,1.221a78.807,78.807,0,0,0,13.962.388c.442-.006.885.011,1.325-.02a94.326,94.326,0,0,0,13.93-2c3.024-.673,4.4-2.394,4.4-5.506q0-12.4,0-24.8c0-3.136-1.437-4.841-4.5-5.511a88.778,88.778,0,0,0-13.6-1.931,60.883,60.883,0,0,0-9.692-.054c-.221,0-.442-.023-.662-.013A85.968,85.968,0,0,0,22.52,31.033a4.787,4.787,0,0,0-3.989,4.9c-.021,8.6-.007,17.2-.009,25.8a4.75,4.75,0,0,0,1.1,3.141,1.4,1.4,0,0,1,.115,1.884M33.181,22.13c0,1.535.015,2.807-.008,4.079-.008.429.1.561.551.514a88.849,88.849,0,0,1,16.07-.156c.648.051,1.53.444,1.885.05.337-.374.14-1.258.122-1.916a51.086,51.086,0,0,0-.157-6.872,9.3,9.3,0,0,0-18.143-.8,22.846,22.846,0,0,0-.319,5.1M6.1,25.45a3.571,3.571,0,0,0,3.535,3.612A3.632,3.632,0,0,0,13.247,25.5a3.567,3.567,0,0,0-3.561-3.585A3.521,3.521,0,0,0,6.1,25.45m69.281-3.535a3.572,3.572,0,0,0-3.638,3.508,3.629,3.629,0,0,0,3.535,3.638,3.575,3.575,0,0,0,3.614-3.534,3.526,3.526,0,0,0-3.511-3.612M6.092,59.528a3.556,3.556,0,0,0,3.534-3.6,3.573,3.573,0,1,0-3.534,3.6m72.846,0a3.58,3.58,0,1,0-3.578-3.562,3.581,3.581,0,0,0,3.578,3.562" transform="translate(0 0)" fill="#030404"/>
        <path id="Trazado_130734" data-name="Trazado 130734" d="M83.95,126.707a78.805,78.805,0,0,1-13.962-.388c-2.661-.276-5.3-.7-7.924-1.221-.937-.187-1.326.061-1.728.975a8.739,8.739,0,0,1-3.461-1.356,1.4,1.4,0,0,0-.115-1.884,4.747,4.747,0,0,1-1.1-3.141c0-8.6-.012-17.2.009-25.8A4.787,4.787,0,0,1,59.659,89a85.912,85.912,0,0,1,15.493-2.128c.22-.01.441.008.661.012a48.835,48.835,0,0,0-.5,7.641c.026.8,0,1.6,0,2.4a48.943,48.943,0,0,0,.48,6.152c.188,1.468.352,2.939.527,4.408a2.869,2.869,0,0,0-1.013,2.345c.029.523.005,1.049.005,1.574,0,2.324.668,3.057,2.975,3.266.037.215.064.432.113.644.3,1.281.968,2.44,1.224,3.735a2.25,2.25,0,0,1-1.58-.58,1.286,1.286,0,0,0-1.9.06,1.269,1.269,0,0,0,.326,1.876,4.944,4.944,0,0,0,4.486,1,1.642,1.642,0,0,0,.3.92,41.342,41.342,0,0,0,2.694,4.381M70.808,97.482c.785-.938.567-2.03.394-3.073a1.06,1.06,0,0,0-1.259-.836,1.15,1.15,0,0,0-1.109,1.138c-.037.6-.025,1.213-.034,1.82a5.372,5.372,0,0,0-4.49.861A3.065,3.065,0,0,0,64,102.264a5.271,5.271,0,0,0,7.014-.12,3.355,3.355,0,0,0,.848-1.585,3.555,3.555,0,0,0-1.053-3.076m-2.644,21.6-.114-.207c1.32-1.294,2.679-2.551,3.952-3.89a4.7,4.7,0,1,0-6.939-6.323,4.84,4.84,0,0,0-1.158,2.785,1.281,1.281,0,0,0,1.093,1.5c.744.091,1.229-.33,1.378-1.194a5.778,5.778,0,0,1,.153-.729,2.207,2.207,0,1,1,3.529,2.4c-1.632,1.652-3.268,3.3-4.927,4.924a1.851,1.851,0,0,0-.538,2.106,1.772,1.772,0,0,0,1.857,1.113c1.769-.012,3.538,0,5.308-.006.964,0,1.546-.474,1.558-1.23s-.57-1.25-1.523-1.257c-1.21-.009-2.421,0-3.631,0" transform="translate(-37.14 -57.963)" fill="#79c389"/>
        <path id="Trazado_130735" data-name="Trazado 130735" d="M76.792,30.552c.047-3.06-.267-6.131.29-9.175a16.927,16.927,0,0,1,32.763-1.868c.274.838.693,1.369,1.643,1.278a13.951,13.951,0,0,1,.341,3.431,1.488,1.488,0,0,0-1.2,1.705c.033,1.542,0,3.085-.013,4.628a6.522,6.522,0,0,1-1.051-.092c-1.335-.224-2.68-.39-4.021-.577-.012-1.713-.028-3.426-.035-5.139a11.815,11.815,0,0,0-23.535-1.654A13.993,13.993,0,0,0,81.9,24.91c-.019,1.657-.025,3.315-.037,4.973-.323.033-.646.07-.97.1-1.377.124-2.714.534-4.1.57" transform="translate(-51.211 -5.124)" fill="#6f7ba2"/>
        <path id="Trazado_130736" data-name="Trazado 130736" d="M123.332,126.388a41.4,41.4,0,0,1-2.694-4.381,1.643,1.643,0,0,1-.3-.92c.169-.088.334-.182.506-.262a4.709,4.709,0,0,0-1.792-9.01c-1.938-.075-1.916-.075-1.876-2.017.011-.535.209-.646.688-.639,1.439.023,2.878.008,4.317.008a1.29,1.29,0,0,0,1.008-.277,1.161,1.161,0,0,0,.39-1.266,1.349,1.349,0,0,0-1.407-.944c-1.467-.011-2.933.008-4.4-.01a3.932,3.932,0,0,0-2.067.494c-.175-1.47-.338-2.941-.527-4.409a48.943,48.943,0,0,1-.48-6.152c0-.8.021-1.6-.005-2.4a48.84,48.84,0,0,1,.5-7.641,60.92,60.92,0,0,1,9.692.055,88.778,88.778,0,0,1,13.605,1.931c3.06.67,4.5,2.375,4.5,5.511q0,12.4,0,24.8c0,3.112-1.378,4.833-4.4,5.506a94.287,94.287,0,0,1-13.93,2c-.44.031-.883.014-1.325.02m4.508-29.232c-.113.153-.221.31-.34.458a3.052,3.052,0,0,0,.251,4.321,5.368,5.368,0,0,0,6.523.336A3.13,3.13,0,0,0,134,96.839a5.389,5.389,0,0,0-4.147-.631c-.01-.606,0-1.214-.035-1.818a1.15,1.15,0,0,0-1.109-1.136,1.056,1.056,0,0,0-1.258.834c-.168,1.04-.4,2.133.393,3.068m.887,14.793a1.284,1.284,0,0,1,.467-.8,5.729,5.729,0,0,1,3.962-1.814,1.2,1.2,0,0,0,1.123-1.37,1.269,1.269,0,0,0-1.37-1.069,7.77,7.77,0,0,0-6.367,3.625c-1.225,1.828-1.261,3.892-1.224,5.982a4.714,4.714,0,0,0,9.417.348,4.718,4.718,0,0,0-3.884-4.943,9.425,9.425,0,0,0-2.124.045m-9.7-13.414a4.436,4.436,0,0,0,3.348-1.464,1.241,1.241,0,1,0-1.718-1.791c-1.287,1.049-1.981,1.047-3.283-.006a1.242,1.242,0,1,0-1.708,1.8,4.5,4.5,0,0,0,3.361,1.459" transform="translate(-76.522 -57.644)" fill="#99d088"/>
        <path id="Trazado_130737" data-name="Trazado 130737" d="M18.326,69.4a3.521,3.521,0,0,1,3.588-3.535,3.567,3.567,0,0,1,3.561,3.585,3.632,3.632,0,0,1-3.614,3.561A3.572,3.572,0,0,1,18.326,69.4" transform="translate(-12.228 -43.953)" fill="#6be1f6"/>
        <path id="Trazado_130738" data-name="Trazado 130738" d="M219.253,65.87a3.526,3.526,0,0,1,3.511,3.612,3.575,3.575,0,0,1-3.614,3.534,3.629,3.629,0,0,1-3.535-3.638,3.572,3.572,0,0,1,3.638-3.508" transform="translate(-143.875 -43.953)" fill="#6be1f6"/>
        <path id="Trazado_130739" data-name="Trazado 130739" d="M11.063,164.562a3.574,3.574,0,0,1-3.613-3.534,3.573,3.573,0,1,1,7.147-.071,3.556,3.556,0,0,1-3.534,3.6" transform="translate(-4.972 -105.033)" fill="#6be1f6"/>
        <path id="Trazado_130740" data-name="Trazado 130740" d="M230.075,164.563a3.58,3.58,0,0,1-.019-7.159,3.58,3.58,0,0,1,.019,7.159" transform="translate(-151.136 -105.032)" fill="#6be1f6"/>
        <path id="Trazado_130741" data-name="Trazado 130741" d="M163.224,74.412c1.341.188,2.686.354,4.021.578a6.523,6.523,0,0,0,1.051.092c.008.634,0,1.269.028,1.9.015.385-.158.476-.5.421-1.415-.227-2.83-.453-4.248-.659-.337-.049-.39-.239-.384-.514.015-.607.025-1.213.036-1.82" transform="translate(-108.891 -49.653)" fill="#566696"/>
        <path id="Trazado_130742" data-name="Trazado 130742" d="M76.818,75.082c1.389-.036,2.726-.446,4.1-.57.324-.029.647-.066.97-.1.15,2.211.149,2.206-1.989,2.543-.844.133-1.684.289-2.524.445-.414.077-.62-.026-.59-.5.038-.605.023-1.213.031-1.82" transform="translate(-51.237 -49.654)" fill="#566696"/>
        <path id="Trazado_130743" data-name="Trazado 130743" d="M84.682,159.526c1.21,0,2.421-.007,3.631,0,.954.007,1.535.5,1.523,1.257s-.594,1.226-1.558,1.23c-1.769.007-3.539-.006-5.308.006a1.772,1.772,0,0,1-1.857-1.113,1.851,1.851,0,0,1,.538-2.106c1.66-1.624,3.3-3.272,4.927-4.924a2.211,2.211,0,1,0-3.529-2.4,5.78,5.78,0,0,0-.153.729c-.15.864-.634,1.286-1.378,1.194a1.281,1.281,0,0,1-1.093-1.5,4.84,4.84,0,0,1,1.158-2.785,4.7,4.7,0,1,1,6.939,6.323c-1.273,1.339-2.632,2.6-3.952,3.89l.114.207" transform="translate(-53.658 -98.409)" fill="#fcfdfd"/>
        <path id="Trazado_130744" data-name="Trazado 130744" d="M115.724,147.843a3.929,3.929,0,0,1,2.067-.494c1.466.018,2.933,0,4.4.009a1.35,1.35,0,0,1,1.407.944,1.161,1.161,0,0,1-.39,1.266,1.289,1.289,0,0,1-1.008.277c-1.439,0-2.878.015-4.317-.008-.479-.008-.677.1-.688.639-.04,1.942-.062,1.941,1.876,2.017a4.709,4.709,0,0,1,1.793,9.01c-.172.08-.338.174-.506.262a4.943,4.943,0,0,1-4.486-1,1.269,1.269,0,0,1-.326-1.876,1.286,1.286,0,0,1,1.9-.06,2.226,2.226,0,0,0,3.725-1.707,2.309,2.309,0,0,0-2.328-2.133c-.384-.014-.77.026-1.156.042-2.307-.208-2.975-.941-2.975-3.266,0-.525.024-1.051,0-1.574a2.868,2.868,0,0,1,1.013-2.344" transform="translate(-76.541 -98.323)" fill="#fcfdfc"/>
        <path id="Trazado_130745" data-name="Trazado 130745" d="M85.412,116.563a3.554,3.554,0,0,1,1.053,3.076,3.354,3.354,0,0,1-.848,1.585,5.27,5.27,0,0,1-7.014.12,3.065,3.065,0,0,1,.311-4.871,5.372,5.372,0,0,1,4.49-.861c.4,1.057.806,1.25,2.009.951" transform="translate(-51.743 -77.045)" fill="#fdfdfd"/>
        <path id="Trazado_130746" data-name="Trazado 130746" d="M123.677,170.338c.385-.015.771-.056,1.156-.041a2.309,2.309,0,0,1,2.328,2.133,2.261,2.261,0,0,1-2.145,2.287c-.257-1.295-.927-2.454-1.224-3.735-.049-.212-.076-.429-.113-.644" transform="translate(-82.527 -113.633)" fill="#9bd18a"/>
        <path id="Trazado_130747" data-name="Trazado 130747" d="M97.163,110.915c-1.2.3-1.61.106-2.009-.951.01-.607,0-1.215.034-1.82a1.15,1.15,0,0,1,1.109-1.138,1.06,1.06,0,0,1,1.259.836c.173,1.043.392,2.135-.394,3.073" transform="translate(-63.494 -71.396)" fill="#040604"/>
        <path id="Trazado_130748" data-name="Trazado 130748" d="M150.049,153.071a9.426,9.426,0,0,1,2.124-.045,4.71,4.71,0,0,1-1.035,9.344,4.766,4.766,0,0,1-4.5-4.749c-.037-2.091,0-4.155,1.224-5.982a7.77,7.77,0,0,1,6.367-3.625,1.27,1.27,0,0,1,1.37,1.069,1.2,1.2,0,0,1-1.123,1.37,5.728,5.728,0,0,0-3.962,1.814,1.283,1.283,0,0,0-.467.8m-.908,4.581a2.225,2.225,0,1,0,2.226-2.223,2.3,2.3,0,0,0-2.226,2.223" transform="translate(-97.844 -98.765)" fill="#fcfdfc"/>
        <path id="Trazado_130749" data-name="Trazado 130749" d="M154.006,115.6a5.388,5.388,0,0,1,4.146.631,3.13,3.13,0,0,1,.279,5.433,5.369,5.369,0,0,1-6.523-.336,3.051,3.051,0,0,1-.251-4.321c.119-.148.227-.305.339-.458,1.191.313,1.6.118,2.009-.948" transform="translate(-100.679 -77.032)" fill="#fdfdfd"/>
        <path id="Trazado_130750" data-name="Trazado 130750" d="M120.15,115.608a4.5,4.5,0,0,1-3.361-1.459,1.242,1.242,0,1,1,1.708-1.8c1.3,1.054,2,1.055,3.283.006a1.241,1.241,0,1,1,1.718,1.791,4.436,4.436,0,0,1-3.348,1.464" transform="translate(-77.648 -74.717)" fill="#030403"/>
        <path id="Trazado_130751" data-name="Trazado 130751" d="M155.122,109.964c-.4,1.066-.818,1.261-2.009.948-.8-.935-.561-2.028-.393-3.068a1.056,1.056,0,0,1,1.258-.834,1.15,1.15,0,0,1,1.109,1.136c.039.6.026,1.212.035,1.818" transform="translate(-101.794 -71.399)" fill="#040604"/>
        <path id="Trazado_130752" data-name="Trazado 130752" d="M154.174,172.527a2.225,2.225,0,1,1,2.212,2.227,2.309,2.309,0,0,1-2.212-2.227" transform="translate(-102.877 -113.64)" fill="#9bd18a"/>
      </g>
    </g>
  </g>
</svg>
