<svg xmlns="http://www.w3.org/2000/svg" width="1240.001" height="618.662" viewBox="0 0 1240.001 618.662">
  <g id="Grupo_87554" data-name="Grupo 87554" transform="translate(-181 -4778.027)">
    <path id="Trazado_134885" data-name="Trazado 134885" d="M0,0H1240V618.662H0Z" transform="translate(181 4778.027)" fill="#daf1f5"/>
    <path id="hacker-working-in-the-darkness" d="M0,149.872H89.354A95.882,95.882,0,0,1,192,87.4V.427Q185.792.005,179.477,0A182.418,182.418,0,0,0,0,149.872Z" transform="translate(330.872 5203.674) rotate(90)" fill="#8fd6e0"/>
    <path id="hacker-working-in-the-darkness-2" data-name="hacker-working-in-the-darkness" d="M0,298.2H177.784A190.775,190.775,0,0,1,382.017,173.9V.849Q369.666.011,357.1,0C178.771,0,30.492,128.647,0,298.2Z" transform="translate(1122.804 5160.044) rotate(-90)" fill="#8fd6e0"/>
    <path id="Trazado_134886" data-name="Trazado 134886" d="M8,0H253a8,8,0,0,1,8,8V58a8,8,0,0,1-8,8H8a8,8,0,0,1-8-8V8A8,8,0,0,1,8,0Z" transform="translate(670 5276.158)" fill="#583ae2"/>
    <path id="Trazado_134887" data-name="Trazado 134887" d="M10,0H252a10,10,0,0,1,10,10V56a10,10,0,0,1-10,10H10A10,10,0,0,1,0,56V10A10,10,0,0,1,10,0Z" transform="translate(974 4902.158)" fill="#ab9df1"/>
    <path id="Trazado_134888" data-name="Trazado 134888" d="M10,0H252a10,10,0,0,1,10,10V56a10,10,0,0,1-10,10H10A10,10,0,0,1,0,56V10A10,10,0,0,1,10,0Z" transform="translate(365 4902.158)" fill="#ab9df1"/>
    <path id="Trazado_134889" data-name="Trazado 134889" d="M10,0H252a10,10,0,0,1,10,10V110a10,10,0,0,1-10,10H10A10,10,0,0,1,0,110V10A10,10,0,0,1,10,0Z" transform="translate(365 4987.158)" fill="#d5cef8"/>
    <path id="Trazado_134890" data-name="Trazado 134890" d="M10,0H214a10,10,0,0,1,10,10V84a10,10,0,0,1-10,10H10A10,10,0,0,1,0,84V10A10,10,0,0,1,10,0Z" transform="translate(365 5267.158)" fill="#d5cef8"/>
    <path id="Trazado_134891" data-name="Trazado 134891" d="M10,0H252a10,10,0,0,1,10,10V110a10,10,0,0,1-10,10H10A10,10,0,0,1,0,110V10A10,10,0,0,1,10,0Z" transform="translate(974 4987.158)" fill="#d5cef8"/>
    <path id="Trazado_134892" data-name="Trazado 134892" d="M-22.686-6.816a8.385,8.385,0,0,1-.771,3.682A5.7,5.7,0,0,1-25.649-.669,6.1,6.1,0,0,1-28.887.2,6.191,6.191,0,0,1-32.109-.64,5.692,5.692,0,0,1-34.3-3.027a8.144,8.144,0,0,1-.825-3.564v-.8a8.422,8.422,0,0,1,.767-3.687,5.688,5.688,0,0,1,2.2-2.466,6.147,6.147,0,0,1,3.257-.869,6.087,6.087,0,0,1,3.223.859,5.79,5.79,0,0,1,2.2,2.446,8.18,8.18,0,0,1,.8,3.638Zm-3.486-.6a5.979,5.979,0,0,0-.708-3.218,2.271,2.271,0,0,0-2.026-1.1q-2.578,0-2.725,3.867l-.01,1.045A6.149,6.149,0,0,0-30.947-3.6,2.268,2.268,0,0,0-28.887-2.48a2.24,2.24,0,0,0,2-1.1,5.982,5.982,0,0,0,.713-3.174Zm11.4,6.27A3.393,3.393,0,0,1-17.6.2,3.328,3.328,0,0,1-20.229-.815a4.251,4.251,0,0,1-.894-2.905v-6.846h3.291V-3.7a1.183,1.183,0,0,0,1.318,1.357A1.72,1.72,0,0,0-14.9-3.154v-7.412h3.311V0h-3.086Zm8.818-12.051v2.627h1.738v2.285H-5.957v4.834a1.234,1.234,0,0,0,.215.83,1.152,1.152,0,0,0,.85.234,4.828,4.828,0,0,0,.82-.059V-.088A6.074,6.074,0,0,1-5.928.2a3.448,3.448,0,0,1-2.51-.8,3.282,3.282,0,0,1-.811-2.432V-8.281H-10.6v-2.285h1.348v-2.627ZM6.885-5.205A6.372,6.372,0,0,1,5.776-1.274,3.554,3.554,0,0,1,2.783.2,3.046,3.046,0,0,1,.391-.869V4.063H-2.9V-10.566H.176l.1.977a3.046,3.046,0,0,1,2.49-1.172A3.582,3.582,0,0,1,5.8-9.321a6.45,6.45,0,0,1,1.084,3.96ZM3.594-5.41q0-2.812-1.641-2.812a1.549,1.549,0,0,0-1.562.84v4.16a1.6,1.6,0,0,0,1.582.879q1.572,0,1.621-2.715ZM14.629-1.143A3.393,3.393,0,0,1,11.807.2,3.328,3.328,0,0,1,9.175-.815a4.251,4.251,0,0,1-.894-2.905v-6.846h3.291V-3.7a1.183,1.183,0,0,0,1.318,1.357A1.72,1.72,0,0,0,14.5-3.154v-7.412h3.311V0H14.727Zm8.818-12.051v2.627h1.738v2.285H23.447v4.834a1.234,1.234,0,0,0,.215.83,1.152,1.152,0,0,0,.85.234,4.828,4.828,0,0,0,.82-.059V-.088A6.074,6.074,0,0,1,23.477.2a3.448,3.448,0,0,1-2.51-.8,3.282,3.282,0,0,1-.811-2.432V-8.281H18.809v-2.285h1.348v-2.627ZM32.012-2.969a.76.76,0,0,0-.439-.674A6.685,6.685,0,0,0,29.9-4.17a7.615,7.615,0,0,1-2.031-.718A3.4,3.4,0,0,1,26.65-5.967a2.577,2.577,0,0,1-.42-1.455,2.92,2.92,0,0,1,1.2-2.4,4.948,4.948,0,0,1,3.145-.942,5.482,5.482,0,0,1,3.359.947,2.962,2.962,0,0,1,1.27,2.49H31.9q0-1.27-1.338-1.27a1.326,1.326,0,0,0-.869.288.892.892,0,0,0-.352.718.819.819,0,0,0,.43.713,4.06,4.06,0,0,0,1.372.449,11.857,11.857,0,0,1,1.655.42,3.007,3.007,0,0,1,2.383,2.939A2.767,2.767,0,0,1,33.9-.713,5.632,5.632,0,0,1,30.576.2a5.747,5.747,0,0,1-2.422-.488,4.05,4.05,0,0,1-1.66-1.328,3.007,3.007,0,0,1-.6-1.768h3.076a1.272,1.272,0,0,0,.488,1.069,2.009,2.009,0,0,0,1.2.337,1.58,1.58,0,0,0,1.011-.273A.875.875,0,0,0,32.012-2.969Z" transform="translate(801 5316.158)" fill="#fff"/>
    <path id="Trazado_134893" data-name="Trazado 134893" d="M-63.895,0V-11.375h3.5a5.315,5.315,0,0,1,2.684.676,4.712,4.712,0,0,1,1.848,1.922A5.928,5.928,0,0,1-55.2-5.945v.523a5.945,5.945,0,0,1-.652,2.82,4.672,4.672,0,0,1-1.84,1.914A5.355,5.355,0,0,1-60.371,0Zm2.344-9.477v7.594h1.133a2.545,2.545,0,0,0,2.1-.9,4.06,4.06,0,0,0,.742-2.57v-.6a4.124,4.124,0,0,0-.719-2.629,2.537,2.537,0,0,0-2.1-.895ZM-48.746,0a2.507,2.507,0,0,1-.227-.758,2.732,2.732,0,0,1-2.133.914,3,3,0,0,1-2.059-.719,2.312,2.312,0,0,1-.816-1.812,2.389,2.389,0,0,1,1-2.062,4.915,4.915,0,0,1,2.879-.727h1.039v-.484a1.393,1.393,0,0,0-.3-.937,1.183,1.183,0,0,0-.949-.352,1.345,1.345,0,0,0-.895.273.929.929,0,0,0-.324.75h-2.258a2.268,2.268,0,0,1,.453-1.359,3,3,0,0,1,1.281-.98A4.669,4.669,0,0,1-50.2-8.609a3.689,3.689,0,0,1,2.48.785A2.747,2.747,0,0,1-46.8-5.617v3.664a4.041,4.041,0,0,0,.336,1.82V0Zm-1.867-1.57a1.945,1.945,0,0,0,.922-.223,1.462,1.462,0,0,0,.625-.6V-3.844h-.844q-1.7,0-1.8,1.172l-.008.133a.9.9,0,0,0,.3.7A1.153,1.153,0,0,0-50.613-1.57Zm8.25-8.961v2.078h1.445V-6.8h-1.445v4.219a1.007,1.007,0,0,0,.18.672.9.9,0,0,0,.688.2,3.6,3.6,0,0,0,.664-.055V-.047a4.648,4.648,0,0,1-1.367.2,2.156,2.156,0,0,1-2.422-2.4V-6.8h-1.234V-8.453h1.234v-2.078ZM-40.246-4.3a5.013,5.013,0,0,1,.484-2.242A3.546,3.546,0,0,1-38.367-8.07a4.069,4.069,0,0,1,2.113-.539,3.849,3.849,0,0,1,2.793,1.047,4.2,4.2,0,0,1,1.207,2.844l.016.578A4.418,4.418,0,0,1-33.324-1.02,3.775,3.775,0,0,1-36.238.156a3.793,3.793,0,0,1-2.918-1.172A4.5,4.5,0,0,1-40.246-4.2Zm2.258.16A3.16,3.16,0,0,0-37.535-2.3a1.5,1.5,0,0,0,1.3.638,1.5,1.5,0,0,0,1.281-.63A3.457,3.457,0,0,0-34.5-4.309a3.128,3.128,0,0,0-.461-1.831,1.5,1.5,0,0,0-1.3-.649,1.474,1.474,0,0,0-1.281.646A3.516,3.516,0,0,0-37.988-4.144ZM-26.27-2.336a.727.727,0,0,0-.41-.652A4.659,4.659,0,0,0-28-3.414q-3.016-.633-3.016-2.562a2.323,2.323,0,0,1,.934-1.879,3.766,3.766,0,0,1,2.441-.754,4.053,4.053,0,0,1,2.574.758A2.388,2.388,0,0,1-24.1-5.883h-2.258a1.092,1.092,0,0,0-.312-.8A1.322,1.322,0,0,0-27.645-7a1.351,1.351,0,0,0-.883.258.814.814,0,0,0-.312.656.7.7,0,0,0,.355.605,3.657,3.657,0,0,0,1.2.4,9.8,9.8,0,0,1,1.422.379A2.336,2.336,0,0,1-24.074-2.43a2.2,2.2,0,0,1-.992,1.871,4.28,4.28,0,0,1-2.562.715,4.47,4.47,0,0,1-1.887-.379,3.166,3.166,0,0,1-1.293-1.039,2.414,2.414,0,0,1-.469-1.426h2.141a1.179,1.179,0,0,0,.445.922,1.766,1.766,0,0,0,1.109.32,1.635,1.635,0,0,0,.98-.246A.766.766,0,0,0-26.27-2.336Zm7.281-1.953A5.094,5.094,0,0,1-18.1-7.437a2.877,2.877,0,0,1,2.426-1.172,2.589,2.589,0,0,1,2.039.922V-12h2.266V0H-13.41l-.109-.9A2.657,2.657,0,0,1-15.691.156,2.869,2.869,0,0,1-18.086-1.02,5.258,5.258,0,0,1-18.988-4.289Zm2.258.161A3.355,3.355,0,0,0-16.316-2.3a1.348,1.348,0,0,0,1.2.636,1.51,1.51,0,0,0,1.477-.887V-5.9A1.489,1.489,0,0,0-15.1-6.789Q-16.73-6.789-16.73-4.128Zm11,4.285A4.15,4.15,0,0,1-8.758-.984,4.054,4.054,0,0,1-9.926-4.023v-.219A5.106,5.106,0,0,1-9.434-6.52,3.612,3.612,0,0,1-8.039-8.066,3.914,3.914,0,0,1-5.98-8.609,3.508,3.508,0,0,1-3.25-7.516a4.444,4.444,0,0,1,1,3.1v.922H-7.637a2.1,2.1,0,0,0,.66,1.328,2,2,0,0,0,1.395.5,2.437,2.437,0,0,0,2.039-.945l1.109,1.242A3.389,3.389,0,0,1-3.809-.246,4.511,4.511,0,0,1-5.73.156Zm-.258-6.945a1.411,1.411,0,0,0-1.09.455,2.357,2.357,0,0,0-.535,1.3h3.141v-.181a1.681,1.681,0,0,0-.406-1.165A1.456,1.456,0,0,0-5.988-6.789ZM6.527-1.664a1.481,1.481,0,0,0,1.016-.344,1.2,1.2,0,0,0,.406-.914h2.117A2.9,2.9,0,0,1,9.6-1.348,3.093,3.093,0,0,1,8.336-.238a3.949,3.949,0,0,1-1.77.395A3.67,3.67,0,0,1,3.707-1,4.56,4.56,0,0,1,2.66-4.18v-.148A4.508,4.508,0,0,1,3.7-7.445,3.627,3.627,0,0,1,6.551-8.609a3.555,3.555,0,0,1,2.543.9,3.2,3.2,0,0,1,.973,2.4H7.949a1.551,1.551,0,0,0-.406-1.072,1.354,1.354,0,0,0-1.031-.412,1.36,1.36,0,0,0-1.191.575,3.333,3.333,0,0,0-.4,1.866v.235a3.375,3.375,0,0,0,.4,1.878A1.377,1.377,0,0,0,6.527-1.664ZM11-4.3a5.013,5.013,0,0,1,.484-2.242A3.546,3.546,0,0,1,12.883-8.07,4.069,4.069,0,0,1,15-8.609a3.849,3.849,0,0,1,2.793,1.047A4.2,4.2,0,0,1,19-4.719l.016.578A4.418,4.418,0,0,1,17.926-1.02,3.775,3.775,0,0,1,15.012.156a3.793,3.793,0,0,1-2.918-1.172A4.5,4.5,0,0,1,11-4.2Zm2.258.16A3.16,3.16,0,0,0,13.715-2.3a1.5,1.5,0,0,0,1.3.638,1.5,1.5,0,0,0,1.281-.63,3.457,3.457,0,0,0,.461-2.015,3.128,3.128,0,0,0-.461-1.831A1.5,1.5,0,0,0,15-6.789a1.474,1.474,0,0,0-1.281.646A3.516,3.516,0,0,0,13.262-4.144ZM22.48-8.453l.07.977a2.951,2.951,0,0,1,2.43-1.133,2.453,2.453,0,0,1,2,.789,3.682,3.682,0,0,1,.672,2.359V0H25.395V-5.419a1.47,1.47,0,0,0-.312-1.045,1.4,1.4,0,0,0-1.039-.325,1.553,1.553,0,0,0-1.43.814V0H20.355V-8.453Zm9.586-2.078v2.078h1.445V-6.8H32.066v4.219a1.007,1.007,0,0,0,.18.672.9.9,0,0,0,.688.2,3.6,3.6,0,0,0,.664-.055V-.047a4.648,4.648,0,0,1-1.367.2,2.156,2.156,0,0,1-2.422-2.4V-6.8H28.574V-8.453h1.234v-2.078ZM38.66.156A4.15,4.15,0,0,1,35.633-.984a4.054,4.054,0,0,1-1.168-3.039v-.219a5.106,5.106,0,0,1,.492-2.277,3.612,3.612,0,0,1,1.395-1.547,3.914,3.914,0,0,1,2.059-.543,3.508,3.508,0,0,1,2.73,1.094,4.444,4.444,0,0,1,1,3.1v.922H36.754a2.1,2.1,0,0,0,.66,1.328,2,2,0,0,0,1.395.5,2.437,2.437,0,0,0,2.039-.945l1.109,1.242A3.389,3.389,0,0,1,40.582-.246,4.511,4.511,0,0,1,38.66.156ZM38.4-6.789a1.411,1.411,0,0,0-1.09.455,2.357,2.357,0,0,0-.535,1.3h3.141v-.181a1.681,1.681,0,0,0-.406-1.165A1.456,1.456,0,0,0,38.4-6.789Zm8.234.859,1.422-2.523h2.414L48.066-4.312,50.574,0H48.152L46.645-2.656,45.145,0h-2.43l2.508-4.312-2.4-4.141h2.422Zm7.625-4.6v2.078h1.445V-6.8H54.262v4.219a1.007,1.007,0,0,0,.18.672.9.9,0,0,0,.688.2,3.6,3.6,0,0,0,.664-.055V-.047a4.648,4.648,0,0,1-1.367.2A2.156,2.156,0,0,1,52-2.242V-6.8H50.77V-8.453H52v-2.078ZM56.379-4.3a5.013,5.013,0,0,1,.484-2.242A3.546,3.546,0,0,1,58.258-8.07a4.069,4.069,0,0,1,2.113-.539,3.849,3.849,0,0,1,2.793,1.047,4.2,4.2,0,0,1,1.207,2.844l.016.578A4.418,4.418,0,0,1,63.3-1.02,3.775,3.775,0,0,1,60.387.156a3.793,3.793,0,0,1-2.918-1.172A4.5,4.5,0,0,1,56.379-4.2Zm2.258.16A3.16,3.16,0,0,0,59.09-2.3a1.5,1.5,0,0,0,1.3.638,1.5,1.5,0,0,0,1.281-.63,3.457,3.457,0,0,0,.461-2.015,3.128,3.128,0,0,0-.461-1.831,1.5,1.5,0,0,0-1.3-.649,1.474,1.474,0,0,0-1.281.646A3.516,3.516,0,0,0,58.637-4.144Z" transform="translate(1108 4942.158)" fill="#12263f"/>
    <path id="Trazado_134894" data-name="Trazado 134894" d="M-60.8,0V-11.375h3.5a5.315,5.315,0,0,1,2.684.676,4.712,4.712,0,0,1,1.848,1.922,5.928,5.928,0,0,1,.664,2.832v.523a5.945,5.945,0,0,1-.652,2.82A4.672,4.672,0,0,1-54.6-.687,5.355,5.355,0,0,1-57.281,0Zm2.344-9.477v7.594h1.133a2.545,2.545,0,0,0,2.1-.9,4.06,4.06,0,0,0,.742-2.57v-.6A4.124,4.124,0,0,0-55.2-8.582a2.537,2.537,0,0,0-2.1-.895ZM-45.656,0a2.507,2.507,0,0,1-.227-.758,2.732,2.732,0,0,1-2.133.914,3,3,0,0,1-2.059-.719,2.312,2.312,0,0,1-.816-1.812,2.389,2.389,0,0,1,1-2.062,4.915,4.915,0,0,1,2.879-.727h1.039v-.484a1.393,1.393,0,0,0-.3-.937,1.183,1.183,0,0,0-.949-.352,1.345,1.345,0,0,0-.895.273.929.929,0,0,0-.324.75H-50.7a2.268,2.268,0,0,1,.453-1.359,3,3,0,0,1,1.281-.98,4.669,4.669,0,0,1,1.859-.355,3.689,3.689,0,0,1,2.48.785,2.747,2.747,0,0,1,.918,2.207v3.664a4.041,4.041,0,0,0,.336,1.82V0Zm-1.867-1.57a1.945,1.945,0,0,0,.922-.223,1.462,1.462,0,0,0,.625-.6V-3.844h-.844q-1.7,0-1.8,1.172l-.008.133a.9.9,0,0,0,.3.7A1.153,1.153,0,0,0-47.523-1.57Zm8.25-8.961v2.078h1.445V-6.8h-1.445v4.219a1.007,1.007,0,0,0,.18.672.9.9,0,0,0,.688.2,3.6,3.6,0,0,0,.664-.055V-.047a4.648,4.648,0,0,1-1.367.2,2.156,2.156,0,0,1-2.422-2.4V-6.8h-1.234V-8.453h1.234v-2.078ZM-37.156-4.3a5.013,5.013,0,0,1,.484-2.242A3.546,3.546,0,0,1-35.277-8.07a4.069,4.069,0,0,1,2.113-.539,3.849,3.849,0,0,1,2.793,1.047,4.2,4.2,0,0,1,1.207,2.844l.016.578A4.418,4.418,0,0,1-30.234-1.02,3.775,3.775,0,0,1-33.148.156a3.793,3.793,0,0,1-2.918-1.172A4.5,4.5,0,0,1-37.156-4.2Zm2.258.16A3.16,3.16,0,0,0-34.445-2.3a1.5,1.5,0,0,0,1.3.638,1.5,1.5,0,0,0,1.281-.63,3.457,3.457,0,0,0,.461-2.015,3.128,3.128,0,0,0-.461-1.831,1.5,1.5,0,0,0-1.3-.649,1.474,1.474,0,0,0-1.281.646A3.516,3.516,0,0,0-34.9-4.144ZM-23.18-2.336a.727.727,0,0,0-.41-.652,4.659,4.659,0,0,0-1.316-.426q-3.016-.633-3.016-2.562a2.323,2.323,0,0,1,.934-1.879,3.766,3.766,0,0,1,2.441-.754,4.053,4.053,0,0,1,2.574.758,2.388,2.388,0,0,1,.965,1.969h-2.258a1.092,1.092,0,0,0-.312-.8A1.322,1.322,0,0,0-24.555-7a1.351,1.351,0,0,0-.883.258.814.814,0,0,0-.312.656.7.7,0,0,0,.355.605,3.657,3.657,0,0,0,1.2.4,9.8,9.8,0,0,1,1.422.379A2.336,2.336,0,0,1-20.984-2.43a2.2,2.2,0,0,1-.992,1.871,4.28,4.28,0,0,1-2.562.715,4.47,4.47,0,0,1-1.887-.379,3.166,3.166,0,0,1-1.293-1.039,2.414,2.414,0,0,1-.469-1.426h2.141a1.179,1.179,0,0,0,.445.922,1.766,1.766,0,0,0,1.109.32,1.635,1.635,0,0,0,.98-.246A.766.766,0,0,0-23.18-2.336ZM-15.9-4.289a5.094,5.094,0,0,1,.887-3.148,2.877,2.877,0,0,1,2.426-1.172,2.589,2.589,0,0,1,2.039.922V-12h2.266V0H-10.32l-.109-.9A2.657,2.657,0,0,1-12.6.156,2.869,2.869,0,0,1-15-1.02,5.258,5.258,0,0,1-15.9-4.289Zm2.258.161A3.355,3.355,0,0,0-13.227-2.3a1.348,1.348,0,0,0,1.2.636,1.51,1.51,0,0,0,1.477-.887V-5.9a1.489,1.489,0,0,0-1.461-.887Q-13.641-6.789-13.641-4.128Zm11,4.285A4.15,4.15,0,0,1-5.668-.984,4.054,4.054,0,0,1-6.836-4.023v-.219A5.106,5.106,0,0,1-6.344-6.52,3.612,3.612,0,0,1-4.949-8.066a3.914,3.914,0,0,1,2.059-.543A3.508,3.508,0,0,1-.16-7.516a4.444,4.444,0,0,1,1,3.1v.922H-4.547a2.1,2.1,0,0,0,.66,1.328,2,2,0,0,0,1.395.5A2.437,2.437,0,0,0-.453-2.609L.656-1.367A3.389,3.389,0,0,1-.719-.246,4.511,4.511,0,0,1-2.641.156ZM-2.9-6.789a1.411,1.411,0,0,0-1.09.455,2.357,2.357,0,0,0-.535,1.3h3.141v-.181a1.681,1.681,0,0,0-.406-1.165A1.456,1.456,0,0,0-2.9-6.789ZM9.992.156A4.15,4.15,0,0,1,6.965-.984,4.054,4.054,0,0,1,5.8-4.023v-.219A5.106,5.106,0,0,1,6.289-6.52,3.612,3.612,0,0,1,7.684-8.066a3.914,3.914,0,0,1,2.059-.543,3.508,3.508,0,0,1,2.73,1.094,4.444,4.444,0,0,1,1,3.1v.922H8.086a2.1,2.1,0,0,0,.66,1.328,2,2,0,0,0,1.395.5,2.437,2.437,0,0,0,2.039-.945l1.109,1.242A3.389,3.389,0,0,1,11.914-.246,4.511,4.511,0,0,1,9.992.156ZM9.734-6.789a1.411,1.411,0,0,0-1.09.455,2.357,2.357,0,0,0-.535,1.3H11.25v-.181a1.681,1.681,0,0,0-.406-1.165A1.456,1.456,0,0,0,9.734-6.789Zm8.078,4.031,1.57-5.7h2.359L18.891,0H16.734L13.883-8.453h2.359ZM26.523.156A4.15,4.15,0,0,1,23.5-.984a4.054,4.054,0,0,1-1.168-3.039v-.219A5.106,5.106,0,0,1,22.82-6.52a3.612,3.612,0,0,1,1.395-1.547,3.914,3.914,0,0,1,2.059-.543A3.508,3.508,0,0,1,29-7.516a4.444,4.444,0,0,1,1,3.1v.922H24.617a2.1,2.1,0,0,0,.66,1.328,2,2,0,0,0,1.395.5,2.437,2.437,0,0,0,2.039-.945L29.82-1.367A3.389,3.389,0,0,1,28.445-.246,4.511,4.511,0,0,1,26.523.156Zm-.258-6.945a1.411,1.411,0,0,0-1.09.455,2.357,2.357,0,0,0-.535,1.3h3.141v-.181a1.681,1.681,0,0,0-.406-1.165A1.456,1.456,0,0,0,26.266-6.789Zm7.094-1.664.07.977a2.951,2.951,0,0,1,2.43-1.133,2.453,2.453,0,0,1,2,.789,3.682,3.682,0,0,1,.672,2.359V0H36.273V-5.419a1.47,1.47,0,0,0-.312-1.045,1.4,1.4,0,0,0-1.039-.325,1.553,1.553,0,0,0-1.43.814V0H31.234V-8.453Zm9.586-2.078v2.078h1.445V-6.8H42.945v4.219a1.007,1.007,0,0,0,.18.672.9.9,0,0,0,.688.2,3.6,3.6,0,0,0,.664-.055V-.047a4.648,4.648,0,0,1-1.367.2,2.156,2.156,0,0,1-2.422-2.4V-6.8H39.453V-8.453h1.234v-2.078ZM45.063-4.3a5.013,5.013,0,0,1,.484-2.242A3.546,3.546,0,0,1,46.941-8.07a4.069,4.069,0,0,1,2.113-.539,3.849,3.849,0,0,1,2.793,1.047,4.2,4.2,0,0,1,1.207,2.844l.016.578A4.418,4.418,0,0,1,51.984-1.02,3.775,3.775,0,0,1,49.07.156a3.793,3.793,0,0,1-2.918-1.172A4.5,4.5,0,0,1,45.063-4.2Zm2.258.16A3.16,3.16,0,0,0,47.773-2.3a1.5,1.5,0,0,0,1.3.638,1.5,1.5,0,0,0,1.281-.63,3.457,3.457,0,0,0,.461-2.015,3.128,3.128,0,0,0-.461-1.831,1.5,1.5,0,0,0-1.3-.649,1.474,1.474,0,0,0-1.281.646A3.516,3.516,0,0,0,47.32-4.144ZM59.039-2.336a.727.727,0,0,0-.41-.652,4.659,4.659,0,0,0-1.316-.426Q54.3-4.047,54.3-5.977a2.323,2.323,0,0,1,.934-1.879,3.766,3.766,0,0,1,2.441-.754,4.053,4.053,0,0,1,2.574.758,2.388,2.388,0,0,1,.965,1.969H58.953a1.092,1.092,0,0,0-.312-.8A1.322,1.322,0,0,0,57.664-7a1.351,1.351,0,0,0-.883.258.814.814,0,0,0-.312.656.7.7,0,0,0,.355.605,3.657,3.657,0,0,0,1.2.4,9.8,9.8,0,0,1,1.422.379A2.336,2.336,0,0,1,61.234-2.43a2.2,2.2,0,0,1-.992,1.871A4.28,4.28,0,0,1,57.68.156a4.47,4.47,0,0,1-1.887-.379A3.166,3.166,0,0,1,54.5-1.262a2.414,2.414,0,0,1-.469-1.426h2.141a1.179,1.179,0,0,0,.445.922,1.766,1.766,0,0,0,1.109.32,1.635,1.635,0,0,0,.98-.246A.766.766,0,0,0,59.039-2.336Z" transform="translate(499 4942.158)" fill="#12263f"/>
    <path id="Trazado_115067" data-name="Trazado 115067" d="M-12116.5-9365.492V-9413h612.141v47.508" transform="translate(12612.5 14255.658)" fill="none" stroke="#583ae2" stroke-width="3"/>
    <path id="Trazado_134895" data-name="Trazado 134895" d="M8,0H253a8,8,0,0,1,8,8V58a8,8,0,0,1-8,8H8a8,8,0,0,1-8-8V8A8,8,0,0,1,8,0Z" transform="translate(670 4813.158)" fill="#583ae2"/>
    <path id="Trazado_134896" data-name="Trazado 134896" d="M-23.755,0h-3.418V-14.219h3.418ZM-18.5-10.566l.107,1.24a3.583,3.583,0,0,1,3.018-1.436,3.015,3.015,0,0,1,2.466.986,4.7,4.7,0,0,1,.845,2.969V0h-3.3V-6.67a1.783,1.783,0,0,0-.322-1.177,1.491,1.491,0,0,0-1.172-.376,1.569,1.569,0,0,0-1.436.762V0h-3.291V-10.566ZM-.435-5.205A6.372,6.372,0,0,1-1.543-1.274,3.554,3.554,0,0,1-4.536.2,3.046,3.046,0,0,1-6.929-.869V4.063H-10.22V-10.566h3.076l.1.977a3.046,3.046,0,0,1,2.49-1.172,3.582,3.582,0,0,1,3.037,1.44A6.45,6.45,0,0,1-.435-5.361ZM-3.726-5.41q0-2.812-1.641-2.812a1.549,1.549,0,0,0-1.562.84v4.16a1.6,1.6,0,0,0,1.582.879q1.572,0,1.621-2.715ZM7.31-1.143A3.393,3.393,0,0,1,4.487.2,3.328,3.328,0,0,1,1.855-.815,4.251,4.251,0,0,1,.962-3.721v-6.846H4.253V-3.7A1.183,1.183,0,0,0,5.571-2.344a1.72,1.72,0,0,0,1.611-.811v-7.412h3.311V0H7.407Zm8.818-12.051v2.627h1.738v2.285H16.128v4.834a1.234,1.234,0,0,0,.215.83,1.152,1.152,0,0,0,.85.234,4.828,4.828,0,0,0,.82-.059V-.088A6.074,6.074,0,0,1,16.157.2a3.448,3.448,0,0,1-2.51-.8,3.282,3.282,0,0,1-.811-2.432V-8.281H11.489v-2.285h1.348v-2.627ZM24.692-2.969a.76.76,0,0,0-.439-.674,6.685,6.685,0,0,0-1.67-.527,7.615,7.615,0,0,1-2.031-.718,3.4,3.4,0,0,1-1.221-1.079,2.577,2.577,0,0,1-.42-1.455,2.92,2.92,0,0,1,1.2-2.4,4.948,4.948,0,0,1,3.145-.942,5.482,5.482,0,0,1,3.359.947,2.962,2.962,0,0,1,1.27,2.49h-3.3q0-1.27-1.338-1.27a1.326,1.326,0,0,0-.869.288.892.892,0,0,0-.352.718.819.819,0,0,0,.43.713,4.06,4.06,0,0,0,1.372.449,11.857,11.857,0,0,1,1.655.42,3.007,3.007,0,0,1,2.383,2.939A2.767,2.767,0,0,1,26.582-.713,5.631,5.631,0,0,1,23.257.2a5.747,5.747,0,0,1-2.422-.488,4.05,4.05,0,0,1-1.66-1.328,3.007,3.007,0,0,1-.6-1.768h3.076a1.272,1.272,0,0,0,.488,1.069,2.009,2.009,0,0,0,1.2.337,1.58,1.58,0,0,0,1.011-.273A.875.875,0,0,0,24.692-2.969Z" transform="translate(801 4853.158)" fill="#fff"/>
    <g id="Grupo_87372" data-name="Grupo 87372" transform="translate(793.504 5195.239)">
      <path id="Trazado_126144" data-name="Trazado 126144" d="M0,0V67.632" transform="translate(7.497 0)" fill="none" stroke="#5243d9" stroke-width="3"/>
      <path id="Polígono_8" data-name="Polígono 8" d="M7.5,0l7.5,12.851H0Z" transform="translate(14.993 73.637) rotate(-180)" fill="#5243d9"/>
    </g>
    <g id="Grupo_87373" data-name="Grupo 87373" transform="translate(670 5306.165) rotate(90)">
      <path id="Trazado_126144-2" data-name="Trazado 126144" d="M0,0V67.632" transform="translate(7.497 0)" fill="none" stroke="#5243d9" stroke-width="3"/>
      <path id="Polígono_8-2" data-name="Polígono 8" d="M7.5,0l7.5,12.851H0Z" transform="translate(14.993 73.637) rotate(-180)" fill="#5243d9"/>
    </g>
    <path id="Trazado_134897" data-name="Trazado 134897" d="M33,0H228a33,33,0,0,1,0,66H33A33,33,0,0,1,33,0Z" transform="translate(670 5132.158)" fill="#40327b"/>
    <path id="Trazado_134898" data-name="Trazado 134898" d="M-15.229-3.779a1.408,1.408,0,0,0-.532-1.172,6.615,6.615,0,0,0-1.87-.869,17.941,17.941,0,0,1-2.187-.869q-2.764-1.357-2.764-3.73a3.345,3.345,0,0,1,.688-2.085,4.453,4.453,0,0,1,1.948-1.406,7.582,7.582,0,0,1,2.832-.5,6.632,6.632,0,0,1,2.749.547,4.352,4.352,0,0,1,1.89,1.558A4.068,4.068,0,0,1-11.8-10H-15.22a1.719,1.719,0,0,0-.532-1.348,2.075,2.075,0,0,0-1.44-.479,2.339,2.339,0,0,0-1.45.405,1.243,1.243,0,0,0-.532,1.03,1.252,1.252,0,0,0,.586.991,7.389,7.389,0,0,0,2.061.918,12.623,12.623,0,0,1,2.422,1.021A4.07,4.07,0,0,1-11.8-3.8a3.472,3.472,0,0,1-1.406,2.93A6.255,6.255,0,0,1-17.065.2a7.653,7.653,0,0,1-3.13-.62,4.719,4.719,0,0,1-2.109-1.7,4.427,4.427,0,0,1-.708-2.485h3.438a2.181,2.181,0,0,0,.591,1.685,2.793,2.793,0,0,0,1.919.542,2.206,2.206,0,0,0,1.343-.366A1.209,1.209,0,0,0-15.229-3.779ZM-6.392,0H-9.81V-14.219h3.418ZM4.81-6.035H-.581v3.4H5.786V0H-4.009V-14.219H5.806v2.646H-.581v3H4.81Zm6.875-8.184,3.174,9.893,3.164-9.893h4.512V0H19.1V-3.32l.332-6.8L15.991,0H13.726L10.278-10.127,10.61-3.32V0H7.183V-14.219Z" transform="translate(801 5172.158)" fill="#fff"/>
    <path id="Trazado_134899" data-name="Trazado 134899" d="M7.5,0l7.5,12.851H0Z" transform="translate(503.496 4896.591) rotate(-180)" fill="#5243d9"/>
    <path id="Trazado_134900" data-name="Trazado 134900" d="M7.5,0l7.5,12.851H0Z" transform="translate(1115.637 4896.591) rotate(-180)" fill="#5243d9"/>
    <g id="Grupo_87374" data-name="Grupo 87374" transform="translate(4675 2717.158)">
      <path id="Polígono_30" data-name="Polígono 30" d="M7.5,0l7.5,12.851H0Z" transform="translate(-3734.546 2455.496) rotate(-90)" fill="#5243d9"/>
      <path id="Trazado_133966" data-name="Trazado 133966" d="M-3570,2390v58h-155.121" fill="none" stroke="#583ae2" stroke-width="3"/>
    </g>
    <g id="Grupo_87375" data-name="Grupo 87375" transform="translate(496 5107.158)">
      <path id="Polígono_30-2" data-name="Polígono 30" d="M7.5,0l7.5,12.851H0Z" transform="translate(164.546 50.504) rotate(90)" fill="#5243d9"/>
      <path id="Trazado_133966-2" data-name="Trazado 133966" d="M-3725.121,2390v58H-3570" transform="translate(3725.121 -2390)" fill="none" stroke="#583ae2" stroke-width="3"/>
    </g>
    <g id="Grupo_87380" data-name="Grupo 87380" transform="translate(4675 2717.158)">
      <text id="Sistema_operativo_Aplicaciones_DB_Dispositivos" data-name="Sistema operativo
Aplicaciones
DB
Dispositivos" transform="translate(-4255 2304)" fill="#12263f" font-size="16" font-family="Roboto-Regular, Roboto"><tspan x="0" y="0">Sistema operativo</tspan><tspan x="0" y="22">Aplicaciones</tspan><tspan x="0" y="44">DB</tspan><tspan x="0" y="66">Dispositivos</tspan></text>
      <g id="Grupo_87376" data-name="Grupo 87376" transform="translate(-4624 -4001.803)">
        <path id="Trazado_113557" data-name="Trazado 113557" d="M-21088-7107.893l4.682,4.683-4.682,4.683" transform="translate(21438.998 13402.238)" fill="none" stroke="#583ae2" stroke-width="2"/>
        <path id="Trazado_115047" data-name="Trazado 115047" d="M-21088-7107.893l4.682,4.683-4.682,4.683" transform="translate(21438.998 13424.421)" fill="none" stroke="#583ae2" stroke-width="2"/>
        <path id="Trazado_130714" data-name="Trazado 130714" d="M-21088-7107.893l4.682,4.683-4.682,4.683" transform="translate(21438.998 13468.788)" fill="none" stroke="#583ae2" stroke-width="2"/>
        <path id="Trazado_133967" data-name="Trazado 133967" d="M-21088-7107.893l4.682,4.683-4.682,4.683" transform="translate(21438.998 13446.605)" fill="none" stroke="#583ae2" stroke-width="2"/>
      </g>
    </g>
    <g id="Grupo_87381" data-name="Grupo 87381" transform="translate(4675 2717.158)">
      <text id="Escaner_vulnerabilidades_Información_de_usuarios_Información_activos_Feeds_inteligencia" data-name="Escaner vulnerabilidades
Información de usuarios
Información activos
Feeds inteligencia" transform="translate(-3648 2304)" fill="#12263f" font-size="16" font-family="Roboto-Regular, Roboto"><tspan x="0" y="0">Escaner vulnerabilidades</tspan><tspan x="0" y="22">Información de usuarios</tspan><tspan x="0" y="44">Información activos</tspan><tspan x="0" y="66">Feeds inteligencia</tspan></text>
      <g id="Grupo_87377" data-name="Grupo 87377" transform="translate(-4016.682 -4001.803)">
        <path id="Trazado_113557-2" data-name="Trazado 113557" d="M-21088-7107.893l4.682,4.683-4.682,4.683" transform="translate(21438.998 13402.238)" fill="none" stroke="#583ae2" stroke-width="2"/>
        <path id="Trazado_115047-2" data-name="Trazado 115047" d="M-21088-7107.893l4.682,4.683-4.682,4.683" transform="translate(21438.998 13424.421)" fill="none" stroke="#583ae2" stroke-width="2"/>
        <path id="Trazado_130714-2" data-name="Trazado 130714" d="M-21088-7107.893l4.682,4.683-4.682,4.683" transform="translate(21438.998 13468.788)" fill="none" stroke="#583ae2" stroke-width="2"/>
        <path id="Trazado_133967-2" data-name="Trazado 133967" d="M-21088-7107.893l4.682,4.683-4.682,4.683" transform="translate(21438.998 13446.605)" fill="none" stroke="#583ae2" stroke-width="2"/>
      </g>
    </g>
    <g id="Grupo_87379" data-name="Grupo 87379" transform="translate(4675 2717.158)">
      <text id="Análisis_Informes_Monitorización" data-name="Análisis
Informes
Monitorización" transform="translate(-4255 2582)" fill="#12263f" font-size="16" font-family="Roboto-Regular, Roboto"><tspan x="0" y="0">Análisis</tspan><tspan x="0" y="22">Informes</tspan><tspan x="0" y="44">Monitorización</tspan></text>
      <g id="Grupo_87378" data-name="Grupo 87378" transform="translate(-4624 -3721.303)">
        <path id="Trazado_113557-3" data-name="Trazado 113557" d="M-21088-7107.893l4.682,4.683-4.682,4.683" transform="translate(21438.998 13402.238)" fill="none" stroke="#583ae2" stroke-width="2"/>
        <path id="Trazado_115047-3" data-name="Trazado 115047" d="M-21088-7107.893l4.682,4.683-4.682,4.683" transform="translate(21438.998 13424.421)" fill="none" stroke="#583ae2" stroke-width="2"/>
        <path id="Trazado_133967-3" data-name="Trazado 133967" d="M-21088-7107.893l4.682,4.683-4.682,4.683" transform="translate(21438.998 13446.605)" fill="none" stroke="#583ae2" stroke-width="2"/>
      </g>
    </g>
  </g>
</svg>
