<svg xmlns="http://www.w3.org/2000/svg" width="67" height="90.367" viewBox="0 0 67 90.367">
  <g id="Grupo_87550" data-name="Grupo 87550" transform="translate(-1058 -1538.725)">
    <g id="Grupo_81330" data-name="Grupo 81330" transform="translate(1058 1538.725)">
      <rect id="Rectángulo_34185" data-name="Rectángulo 34185" width="67" height="90.367" rx="5" fill="#fff"/>
    </g>
    <g id="Grupo_86765" data-name="Grupo 86765" transform="translate(1070.994 1546.672)">
      <path id="Trazado_131303" data-name="Trazado 131303" d="M37.781,12.9a.794.794,0,0,1,.907-.671c1.043.022,2.085.006,3.128.007a1.706,1.706,0,0,1,1.949,1.937q0,8.939,0,17.876,0,2.357,0,4.714a1.707,1.707,0,0,1-1.939,1.948q-5.834,0-11.667,0a1.452,1.452,0,0,0-1.021.955c-.009.112.074.166.138.23.856.858,1.72,1.712,2.57,2.577a.385.385,0,0,0,.452.1A1.608,1.608,0,0,1,34.008,43c2.344,2.343,4.7,4.676,7.025,7.034a3.471,3.471,0,0,1-4.888,4.929c-.753-.719-1.472-1.474-2.216-2.2a.755.755,0,0,1-.174-1c.472-.4.753-.4,1.2.046.728.721,1.435,1.464,2.18,2.168a2.024,2.024,0,0,0,3.326-.722,1.833,1.833,0,0,0-.39-2.186c-2.31-2.35-4.651-4.668-6.977-7-.188-.189-.353-.225-.554-.022q-1.2,1.209-2.407,2.407a.33.33,0,0,0,.018.552c.326.308.646.624.968.937q.634.648,1.267,1.3c.438.449.448.727.046,1.2a.758.758,0,0,1-1-.174c-.775-.787-1.558-1.565-2.342-2.345a1.594,1.594,0,0,1-.426-1.709.408.408,0,0,0-.138-.482c-.818-.809-1.635-1.621-2.436-2.446-.184-.189-.3-.16-.493-.024A13.583,13.583,0,0,1,15,45.5a.421.421,0,0,0-.554.3A7.659,7.659,0,0,1,.077,44.606c-.172-.63-.074-.861.48-1.117.541-.024.75.3.881.77a6.17,6.17,0,0,0,5.777,4.583c.077.007.154.021.231.022a6.258,6.258,0,1,0-.231-12.509,3.966,3.966,0,0,0-.556.019,6.174,6.174,0,0,0-5.213,4.521c-.144.463-.367.741-.875.721-.53-.253-.65-.487-.5-1.031a7.5,7.5,0,0,1,3.86-4.793A.443.443,0,0,0,4.22,35.2c-1.2-5.836.5-10.637,5.175-14.354a.449.449,0,0,0,.169-.641A8.745,8.745,0,0,1,18.215,8.155,8.486,8.486,0,0,1,24.837,11.9a.681.681,0,0,0,.638.336c3.176-.012,6.35,0,9.526-.015.509,0,.838.16.956.671-.169.608-.339.738-.994.738H25.783a8.106,8.106,0,0,1,.6,3.091c-.007.384.131.455.481.452,2.21-.015,4.418-.01,6.628-.006.548,0,.862.267.857.7s-.33.689-.87.7c-.11,0-.219,0-.328,0-2.177,0-4.356,0-6.534-.005-.276,0-.4.056-.469.359a8.334,8.334,0,0,1-.45,1.367.34.34,0,0,0,.142.49,15.037,15.037,0,0,1,1.222,1.008.929.929,0,0,0,.7.278c1.9-.013,3.8-.009,5.694-.005.569,0,.906.279.9.722s-.319.677-.875.678c-1.478,0-2.956,0-4.435,0-.112,0-.246-.064-.356.086a13.565,13.565,0,0,1,1.743,3.054.5.5,0,0,0,.565.391c.871-.027,1.743-.016,2.613-.006a.684.684,0,0,1,.744.668.714.714,0,0,1-.7.725c-.17.015-.341.005-.513.005H31.042a13.847,13.847,0,0,1,.443,3.339c0,.285.108.326.353.319.575-.016,1.151-.011,1.726,0a.7.7,0,1,1-.01,1.4c-.607.008-1.215.016-1.821,0-.258-.009-.331.075-.367.325a16.361,16.361,0,0,1-.338,1.689c-.16.61-.374,1.207-.578,1.853,1.135,0,2.237,0,3.34,0q2.681-.009,5.363-.026c.839.009,1.679.021,2.518.025.69,0,.691,0,.691-.7q0-11.134,0-22.268c0-.093,0-.187,0-.28.012-.288-.1-.428-.412-.423-.932.016-1.866.016-2.8.023-.136-.007-.273-.018-.409-.019-.626-.009-.8-.144-.963-.739M17.3,33.789c1.2.075,1.2.075,1.711-.986.027-.056.05-.114.081-.167.1-.18.095-.294-.155-.285-.356.013-.711.022-1.065.033H16.092c.169.353.339.679.481,1.016a.567.567,0,0,0,.73.389m1.02-4.138c-1.135-.007-2.27-.016-3.406-.018-.484,0-.47.345-.471.687s.019.632.476.626c1.135-.014,2.269-.017,3.4-.025.7.008,1.393.019,2.09.024.424,0,.444-.289.438-.609s.049-.7-.441-.7c-.7-.006-1.394.011-2.091.018m.005-1.445c.682.007,1.362.008,2.042.024.443.01.493-.261.487-.611s.032-.714-.488-.708c-.68.009-1.361.013-2.042.018-1.13-.006-2.262-.009-3.392-.019-.478,0-.492.315-.492.665s.006.662.494.655c1.131-.018,2.261-.018,3.391-.024m1.3-5.22c-.008.684-.027,1.368-.016,2.051,0,.16-.15.487.185.456s.8.269,1.018-.246a12.535,12.535,0,0,1,2.251-3.406,7.179,7.179,0,0,0,1.689-6.81,7.282,7.282,0,0,0-6.989-5.477,6.94,6.94,0,0,0-4.22,1.241,7.319,7.319,0,0,0-1.374,10.977,11.182,11.182,0,0,1,2.119,3.1.907.907,0,0,0,1.072.649c.3-.024.348-.118.345-.384-.011-1.369-.005-2.739-.005-4.108V19.894c-.146.035-.249.064-.355.083a2.2,2.2,0,0,1-1.4-4.123A2.106,2.106,0,0,1,16.7,16.6a.912.912,0,0,0,1.028.523,1.6,1.6,0,0,1,.326,0,.34.34,0,0,0,.365-.207,2.186,2.186,0,0,1,3.8-.352,2.193,2.193,0,0,1-2.345,3.387c-.231-.058-.263.02-.26.214.011.941.016,1.883.024,2.824M17.122,44.34a11.738,11.738,0,0,0,4.89-.769,12.414,12.414,0,0,0,7.877-13.852,12.128,12.128,0,0,0-4.707-7.692c-.222-.172-.332-.183-.509.058a10.182,10.182,0,0,1-.961,1.14c-.3.3-.244.448.084.7a10.089,10.089,0,0,1,1.649,14.433A11.39,11.39,0,0,1,22.163,41c-.492.189-.974.405-1.475.563a9.819,9.819,0,0,1-5.148.24c-.278-.061-.435-.089-.4.294a5.537,5.537,0,0,1-.077,1.671c-.059.274.075.35.3.387a11.968,11.968,0,0,0,1.756.185m.367-3.725a5.275,5.275,0,0,0,1.207-.053,8.692,8.692,0,0,0,4.482-15.347c-.651-.534-.5-.547-.887.2-.146.278-.447.6-.3.892a3.751,3.751,0,0,1,.277,1.632,1.707,1.707,0,0,1-.133.538.993.993,0,0,0-.005.93c.3,1,.226,2.2-.719,2.648a2.1,2.1,0,0,0-1.049,1.2c-.139.311-.294.616-.45.92a1.791,1.791,0,0,1-1.687,1.042c-.389,0-.778.007-1.167,0a1.77,1.77,0,0,1-1.65-1.023c-.2-.387-.389-.776-.574-1.17s-.343-.784-.847-.893a1.012,1.012,0,0,1-.566-.469,2.6,2.6,0,0,1-.176-2.452c.049-.135.177-.224.078-.419a2.6,2.6,0,0,1-.01-2.417.318.318,0,0,0,0-.3,8.193,8.193,0,0,0-.619-1.247.415.415,0,0,0-.092.033A8.783,8.783,0,0,0,9.493,34.972a.526.526,0,0,0,.351.325,7.62,7.62,0,0,1,4.821,4.6.448.448,0,0,0,.307.308,7.98,7.98,0,0,0,2.517.407M7.965,34.924c-.021-.117-.029-.208-.053-.3a10.137,10.137,0,0,1,3.737-10.813c.209-.158.245-.259.059-.46a10.515,10.515,0,0,1-.994-1.171c-.226-.328-.373-.336-.674-.1A12.443,12.443,0,0,0,5.554,34.768c.03.131-.021.4.264.333a8.708,8.708,0,0,1,2.147-.177M17.11,21.957v2.8c0,.8,0,.788.8.756.21-.009.3-.05.3-.285q-.011-3.221,0-6.442c0-.2-.072-.284-.273-.27a2.043,2.043,0,0,1-.42,0c-.327-.047-.421.077-.414.407.021,1.011.007,2.023.007,3.034M28.244,40.865c-.079.075-.146.135-.209.2-.292.3-.569.616-.878.9-.194.177-.145.281.016.438.774.762,1.544,1.527,2.3,2.3.177.183.285.161.443-.01.273-.3.555-.586.854-.855.2-.18.185-.294,0-.476-.778-.758-1.539-1.531-2.308-2.3-.063-.064-.133-.121-.218-.2M21.193,17.841a.818.818,0,0,0-.788-.816.791.791,0,0,0-.79.754.766.766,0,0,0,.751.827.794.794,0,0,0,.827-.765m-5.486-.01a.821.821,0,0,0-.8-.806.8.8,0,0,0-.783.767.771.771,0,0,0,.767.816.791.791,0,0,0,.816-.776" transform="translate(0 -8.137)" fill="#040303"/>
      <path id="Trazado_131304" data-name="Trazado 131304" d="M46.824,14.573c.159.6.336.73.962.739.137,0,.273.013.41.019l.02,1.9-1.062,1.416c-.492.657-.492.657-1.107.092a.726.726,0,0,0-1.074-.044.7.7,0,0,0,.082,1.034c.356.369.719.733,1.088,1.09a.7.7,0,0,0,1.187-.075c.273-.338.532-.688.8-1.032.111.135.07.3.071.446.005.665,0,1.329.005,1.993L47.17,23.525c-.515.688-.515.688-1.134.118A.693.693,0,0,0,45,23.569a.7.7,0,0,0,.051,1.069q.533.555,1.088,1.088a.72.72,0,0,0,1.193-.079c.29-.363.572-.731.857-1.1q.014,1.248.03,2.5c-.346.458-.689.917-1.038,1.372-.176.23-.362.452-.544.677-.2-.187-.407-.376-.614-.562a.717.717,0,0,0-1.037-.041.692.692,0,0,0,.049,1.033q.548.571,1.119,1.119a.706.706,0,0,0,1.184-.1c.271-.339.529-.687.794-1.031a.687.687,0,0,1,.064.447c0,.814,0,1.627,0,2.441l-1.957.014c-.8.005-1.16.356-1.17,1.166q-.011.838,0,1.678c.011.81.367,1.162,1.17,1.169.652.005,1.3.007,1.957.01q0,1.258,0,2.515-2.682.013-5.364.026c-1.1,0-2.2,0-3.34,0,.2-.647.418-1.243.577-1.853a16.181,16.181,0,0,0,.338-1.689c.038-.249.11-.333.368-.324.606.021,1.213.013,1.82,0a.7.7,0,1,0,.01-1.4c-.575-.009-1.151-.013-1.726,0-.244.006-.353-.035-.352-.319a13.881,13.881,0,0,0-.444-3.339h2.094c.172,0,.343.01.513-.005a.713.713,0,0,0,.7-.725.684.684,0,0,0-.744-.668c-.871-.01-1.743-.022-2.613.006a.5.5,0,0,1-.565-.391,13.551,13.551,0,0,0-1.744-3.054c.11-.149.245-.086.356-.086,1.478-.005,2.956,0,4.434,0,.557,0,.867-.245.875-.679s-.328-.72-.9-.722c-1.9,0-3.8-.007-5.694.006a.935.935,0,0,1-.7-.278,14.773,14.773,0,0,0-1.223-1.008.341.341,0,0,1-.141-.491,8.374,8.374,0,0,0,.45-1.366c.067-.3.194-.36.47-.359,2.177.01,4.356.005,6.534.005.109,0,.217,0,.327,0,.541-.012.867-.274.871-.7s-.31-.7-.857-.7c-2.209,0-4.418-.009-6.628.006-.35,0-.487-.068-.481-.452a8.094,8.094,0,0,0-.6-3.092h9.181c.655,0,.825-.13.993-.739h1.825" transform="translate(-9.041 -9.814)" fill="#faedb3"/>
      <path id="Trazado_131305" data-name="Trazado 131305" d="M.743,51.562c.506.02.73-.258.875-.72A6.171,6.171,0,0,1,6.829,46.32a3.983,3.983,0,0,1,.557-.019c.014.176.174.2.285.271a6.927,6.927,0,0,1,2.8,3.281c-1.112,1.321-2.23,2.636-3.332,3.965-.185.224-.281.256-.484.019-.578-.672-1.179-1.325-1.777-1.979-.384-.42-.815-.483-1.132-.181s-.274.708.087,1.111q1.169,1.3,2.341,2.6c.591.654.93.639,1.5-.041q1.582-1.87,3.17-3.735a.35.35,0,0,1,.178.35,8.4,8.4,0,0,1-.169,2.071A6.845,6.845,0,0,1,7.7,58.472c-.122.076-.292.13-.314.316a6.169,6.169,0,0,1-5.776-4.583c-.13-.474-.34-.795-.88-.77a5.856,5.856,0,0,1,.013-1.874" transform="translate(-0.172 -18.084)" fill="#66dd9f"/>
      <path id="Trazado_131306" data-name="Trazado 131306" d="M43.4,63.893c.4-.472.392-.75-.046-1.2q-.632-.649-1.267-1.3c.188-.487.631-.752.969-1.105.648-.675,1.155-.662,1.826.007q3.051,3.05,6.1,6.1c.128.128.228.3.444.312a2.025,2.025,0,0,1-3.326.722c-.744-.7-1.451-1.448-2.179-2.169-.445-.441-.727-.448-1.2-.046A3.428,3.428,0,0,0,43.4,63.893" transform="translate(-10.969 -21.6)" fill="#948ec5"/>
      <path id="Trazado_131307" data-name="Trazado 131307" d="M20.64,46.5a8,8,0,0,1-2.518-.407.449.449,0,0,1-.306-.308,7.62,7.62,0,0,0-4.822-4.6.526.526,0,0,1-.351-.325,8.784,8.784,0,0,1,3.108-10.118.436.436,0,0,1,.093-.033,8.193,8.193,0,0,1,.619,1.247.32.32,0,0,1,0,.3,2.6,2.6,0,0,0,.01,2.417c.1.2-.03.284-.078.419a2.6,2.6,0,0,0,.176,2.452,1.013,1.013,0,0,0,.566.469c.5.109.662.5.847.893s.377.783.574,1.17a1.77,1.77,0,0,0,1.65,1.023c.389.007.778,0,1.167,0a1.79,1.79,0,0,0,1.687-1.041c.155-.3.311-.609.45-.92a2.1,2.1,0,0,1,1.049-1.2c.945-.448,1.019-1.65.718-2.648a.993.993,0,0,1,.006-.93,1.727,1.727,0,0,0,.132-.538,1.691,1.691,0,0,1,.143.237,9.462,9.462,0,0,1-1.8,10.221A10.431,10.431,0,0,1,20.64,46.5" transform="translate(-3.151 -14.018)" fill="#d9e9fa"/>
      <path id="Trazado_131308" data-name="Trazado 131308" d="M25.846,17.058a2.186,2.186,0,0,0-3.8.352.341.341,0,0,1-.365.207,1.6,1.6,0,0,0-.326,0,.911.911,0,0,1-1.027-.522,2.108,2.108,0,0,0-2.749-.743,2.2,2.2,0,0,0,1.406,4.124c.1-.02.209-.049.355-.083v1.138c0,1.369-.006,2.739.005,4.108,0,.266-.043.361-.346.384a.906.906,0,0,1-1.071-.649,11.178,11.178,0,0,0-2.119-3.1,7.318,7.318,0,0,1,1.374-10.977A6.944,6.944,0,0,1,21.4,10.051c.14.095.274.2.421.282a7.846,7.846,0,0,1,4.04,5.531c.082.383.288.8-.018,1.193" transform="translate(-3.631 -8.635)" fill="#f6cf6e"/>
      <path id="Trazado_131309" data-name="Trazado 131309" d="M52.931,39.216q0-1.258,0-2.515c.708-.248.872-.475.878-1.229q.006-.791,0-1.581c-.006-.753-.171-.981-.878-1.228,0-.814,0-1.628,0-2.442a.686.686,0,0,0-.064-.446c.331-.45.657-.9.994-1.347a.74.74,0,0,0,.091-.978.7.7,0,0,0-1-.143l-.029-2.5c.307-.425.607-.855.924-1.272a.751.751,0,0,0,.089-1.012.72.72,0,0,0-1-.118c0-.664,0-1.329-.005-1.993,0-.151.04-.312-.071-.446.328-.446.649-.9.986-1.336a.757.757,0,0,0,.1-1.01.712.712,0,0,0-1-.135l-.02-1.9c.932-.007,1.865-.007,2.8-.023.307-.005.424.135.411.423,0,.093,0,.187,0,.28V38.539c0,.7,0,.706-.691.7-.839,0-1.678-.016-2.518-.025" transform="translate(-13.777 -10.074)" fill="#f8df85"/>
      <path id="Trazado_131310" data-name="Trazado 131310" d="M28.2,45.851a11.4,11.4,0,0,0,3.282-2.643,10.09,10.09,0,0,0-1.65-14.433c-.328-.25-.383-.4-.083-.7a10.182,10.182,0,0,0,.961-1.14c.176-.241.287-.231.509-.058a12.133,12.133,0,0,1,4.706,7.692,12.414,12.414,0,0,1-7.877,13.852,11.733,11.733,0,0,1-4.889.769,12.589,12.589,0,0,0,3.894-2.175c.416-.341.952-.6,1.147-1.165" transform="translate(-6.035 -12.989)" fill="#e7555a"/>
      <path id="Trazado_131311" data-name="Trazado 131311" d="M23.654,46.5a10.431,10.431,0,0,0,3.125-2.219,9.462,9.462,0,0,0,1.8-10.221,1.69,1.69,0,0,0-.143-.237,3.75,3.75,0,0,0-.276-1.632c-.147-.293.154-.614.3-.892.387-.747.235-.733.887-.2a8.692,8.692,0,0,1-4.482,15.347,5.319,5.319,0,0,1-1.207.053" transform="translate(-6.165 -14.022)" fill="#c7dff9"/>
      <path id="Trazado_131312" data-name="Trazado 131312" d="M28.479,17.058c.305-.391.1-.81.018-1.193a7.846,7.846,0,0,0-4.04-5.531c-.148-.08-.281-.188-.421-.282a7.283,7.283,0,0,1,6.99,5.477,7.178,7.178,0,0,1-1.689,6.81,12.569,12.569,0,0,0-2.251,3.406c-.22.516-.676.214-1.017.246s-.182-.3-.185-.455c-.012-.684.007-1.368.015-2.051a8.527,8.527,0,0,0,1.448-1.716,3.6,3.6,0,0,0,.785-1.793,2.233,2.233,0,0,0,.348-2.918" transform="translate(-6.264 -8.635)" fill="#f3c25c"/>
      <path id="Trazado_131313" data-name="Trazado 131313" d="M9.805,39.784a8.7,8.7,0,0,0-2.146.176c-.285.072-.235-.2-.265-.333A12.446,12.446,0,0,1,11.88,26.947c.3-.239.448-.232.674.1a10.527,10.527,0,0,0,1,1.17c.186.2.151.3-.06.46A10.136,10.136,0,0,0,9.753,39.488c.024.087.032.178.052.3" transform="translate(-1.84 -12.996)" fill="#e86c71"/>
      <path id="Trazado_131314" data-name="Trazado 131314" d="M12.846,49.845a6.927,6.927,0,0,0-2.8-3.281c-.111-.075-.271-.1-.285-.271A6.258,6.258,0,1,1,9.987,58.8c-.078,0-.155-.015-.231-.023.022-.186.192-.24.314-.316a6.847,6.847,0,0,0,3.162-4.437,8.4,8.4,0,0,0,.169-2.07.351.351,0,0,0-.178-.35c.153-.192.3-.39.462-.575a.744.744,0,0,0,.154-1,.72.72,0,0,0-.993-.183" transform="translate(-2.542 -18.076)" fill="#5fcc93"/>
      <path id="Trazado_131315" data-name="Trazado 131315" d="M51.03,65.856c-.215-.008-.316-.184-.444-.312q-3.053-3.048-6.1-6.1c-.67-.67-1.177-.683-1.826-.007-.338.353-.782.619-.969,1.105-.323-.313-.642-.629-.969-.937a.331.331,0,0,1-.016-.552q1.208-1.2,2.406-2.407c.2-.2.366-.166.554.021,2.326,2.333,4.668,4.651,6.977,7a1.834,1.834,0,0,1,.39,2.186" transform="translate(-10.572 -20.745)" fill="#7f79b9"/>
      <path id="Trazado_131316" data-name="Trazado 131316" d="M27.467,52.584c-.2.57-.731.824-1.147,1.165a12.589,12.589,0,0,1-3.894,2.175,11.979,11.979,0,0,1-1.757-.186c-.229-.037-.364-.112-.3-.387a5.561,5.561,0,0,0,.077-1.671c-.034-.384.123-.354.4-.294a9.821,9.821,0,0,0,5.149-.24c.5-.158.983-.374,1.474-.563" transform="translate(-5.304 -19.721)" fill="#e86c71"/>
      <path id="Trazado_131317" data-name="Trazado 131317" d="M23.139,25.613c0-1.011.014-2.024-.008-3.034-.007-.33.089-.453.416-.407a2.036,2.036,0,0,0,.419,0c.2-.014.274.068.274.27q-.008,3.221,0,6.442c0,.236-.094.277-.3.285-.8.031-.8.039-.8-.756v-2.8" transform="translate(-6.028 -11.792)" fill="#f6cf6e"/>
      <path id="Trazado_131318" data-name="Trazado 131318" d="M37.773,52.4c.086.078.155.136.218.2.769.767,1.53,1.541,2.308,2.3.187.183.2.3,0,.476-.3.269-.582.559-.855.855-.158.172-.264.193-.442.01-.758-.778-1.528-1.543-2.3-2.3-.16-.157-.209-.261-.015-.438.308-.282.586-.6.877-.9.063-.064.13-.124.208-.2" transform="translate(-9.528 -19.674)" fill="#bcb8d7"/>
      <path id="Trazado_131319" data-name="Trazado 131319" d="M23.421,34.823c-1.13.007-2.261.007-3.391.024-.488.007-.493-.308-.494-.655s.014-.668.492-.665c1.13.01,2.262.013,3.392.019q0,.638,0,1.276" transform="translate(-5.091 -14.755)" fill="#dedbdf"/>
      <path id="Trazado_131320" data-name="Trazado 131320" d="M23.421,38.5c-1.135.007-2.27.011-3.4.025-.458.006-.478-.29-.476-.627s-.013-.688.472-.687c1.135,0,2.27.013,3.406.019q0,.634,0,1.269" transform="translate(-5.092 -15.714)" fill="#f6f8f9"/>
      <path id="Trazado_131321" data-name="Trazado 131321" d="M28.778,23.475a3.607,3.607,0,0,1-.785,1.793,8.523,8.523,0,0,1-1.448,1.715c-.007-.941-.013-1.883-.024-2.824,0-.194.03-.272.261-.214a2.245,2.245,0,0,0,2-.469" transform="translate(-6.912 -12.135)" fill="#f6cf6e"/>
      <path id="Trazado_131322" data-name="Trazado 131322" d="M24.79,34.824q0-.638,0-1.276c.681-.006,1.361-.01,2.042-.018.52-.007.481.355.488.708s-.044.62-.487.611c-.681-.016-1.361-.016-2.042-.024" transform="translate(-6.46 -14.755)" fill="#bcb8d7"/>
      <path id="Trazado_131323" data-name="Trazado 131323" d="M24.788,38.5q0-.634,0-1.27c.7-.007,1.394-.025,2.09-.018.489,0,.436.375.442.7s-.014.611-.439.609c-.7-.005-1.393-.016-2.089-.024" transform="translate(-6.459 -15.714)" fill="#dedbdf"/>
      <path id="Trazado_131324" data-name="Trazado 131324" d="M28.106,20.974a.8.8,0,0,1-.827.765.765.765,0,0,1-.751-.827.792.792,0,0,1,.79-.755.818.818,0,0,1,.787.816" transform="translate(-6.913 -11.27)" fill="#f6f8f9"/>
      <path id="Trazado_131325" data-name="Trazado 131325" d="M20.685,20.964a.791.791,0,0,1-.816.776.771.771,0,0,1-.767-.816.8.8,0,0,1,.783-.767.821.821,0,0,1,.8.806" transform="translate(-4.978 -11.27)" fill="#f6f8f9"/>
      <path id="Trazado_131326" data-name="Trazado 131326" d="M23.975,40.92c.355-.01.711-.019,1.065-.033.249-.01.258.1.155.284-.031.054-.055.112-.082.167-.513,1.06-.513,1.06-1.711.986.129-.493.526-.878.572-1.4" transform="translate(-6.099 -16.673)" fill="#7f79b9"/>
      <path id="Trazado_131327" data-name="Trazado 131327" d="M23.549,40.932c-.047.527-.443.912-.572,1.4a.567.567,0,0,1-.73-.389c-.143-.337-.312-.662-.481-1.016Z" transform="translate(-5.672 -16.684)" fill="#948ec5"/>
      <path id="Trazado_131328" data-name="Trazado 131328" d="M51.853,38.69c.708.247.873.475.878,1.228q.006.791,0,1.581c-.005.753-.17.98-.878,1.229-.652,0-1.3-.006-1.957-.011-.8-.007-1.159-.359-1.17-1.169q-.011-.838,0-1.678c.01-.81.367-1.16,1.17-1.166l1.957-.013m-.523,1.951c.033-.279.076-.6-.5-.551-.7.058-.7.013-.705.579-.006.373-.087.727.532.662.67-.07.676-.016.676-.691" transform="translate(-12.697 -16.1)" fill="#040303"/>
      <path id="Trazado_131329" data-name="Trazado 131329" d="M51.775,31.395a.7.7,0,0,1,1,.143.742.742,0,0,1-.09.979c-.338.444-.664.9-1,1.346-.264.344-.523.692-.794,1.031a.707.707,0,0,1-1.184.1c-.381-.365-.753-.739-1.118-1.12a.692.692,0,0,1-.05-1.032.717.717,0,0,1,1.038.041c.206.185.409.374.613.562.182-.226.368-.448.545-.677.348-.455.692-.914,1.037-1.372" transform="translate(-12.597 -14.161)" fill="#040303"/>
      <path id="Trazado_131330" data-name="Trazado 131330" d="M51.758,24.765a.72.72,0,0,1,1,.118.752.752,0,0,1-.089,1.013c-.317.417-.617.847-.925,1.272-.285.366-.566.735-.856,1.1a.72.72,0,0,1-1.193.08q-.555-.533-1.088-1.089a.7.7,0,0,1-.052-1.069.7.7,0,0,1,1.034.074c.619.571.619.571,1.133-.118l1.032-1.378" transform="translate(-12.597 -12.433)" fill="#040303"/>
      <path id="Trazado_131331" data-name="Trazado 131331" d="M51.77,18.115a.713.713,0,0,1,1,.135.757.757,0,0,1-.1,1.01c-.336.439-.658.89-.986,1.335-.265.345-.524.694-.8,1.032A.7.7,0,0,1,49.7,21.7c-.369-.356-.731-.721-1.088-1.09a.7.7,0,0,1-.082-1.034.726.726,0,0,1,1.074.044c.615.565.615.565,1.107-.092l1.062-1.416" transform="translate(-12.597 -10.701)" fill="#040303"/>
      <path id="Trazado_131332" data-name="Trazado 131332" d="M11.491,51.064a.72.72,0,0,1,.993.183.744.744,0,0,1-.154,1c-.162.185-.309.383-.462.575q-1.585,1.867-3.17,3.735c-.574.679-.914.694-1.5.041Q6.02,55.3,4.853,54c-.361-.4-.392-.821-.087-1.111s.748-.239,1.132.18c.6.655,1.2,1.308,1.777,1.98.2.237.3.2.484-.019,1.1-1.329,2.22-2.645,3.332-3.965" transform="translate(-1.187 -19.295)" fill="#040303"/>
      <path id="Trazado_131333" data-name="Trazado 131333" d="M51.822,41.133c0,.675-.006.621-.676.691-.618.064-.538-.289-.532-.662.008-.566.006-.521.705-.579.578-.048.535.271.5.551" transform="translate(-13.19 -16.592)" fill="#f6f8f9"/>
    </g>
  </g>
</svg>
