<svg xmlns="http://www.w3.org/2000/svg" width="67" height="90.367" viewBox="0 0 67 90.367">
  <g id="Grupo_87552" data-name="Grupo 87552" transform="translate(-638 -1676.725)">
    <g id="Grupo_81330" data-name="Grupo 81330" transform="translate(638 1676.725)">
      <rect id="Rectángulo_34185" data-name="Rectángulo 34185" width="67" height="90.367" rx="5" fill="#fff"/>
    </g>
    <g id="Grupo_86772" data-name="Grupo 86772" transform="translate(649.047 1687.05)">
      <path id="Trazado_131334" data-name="Trazado 131334" d="M273.388,208.629c.718.081.883.23.994.951.324,2.111.649,4.222.959,6.335a1.682,1.682,0,0,1-1.609,1.989,11.34,11.34,0,0,1-1.393,0,1.715,1.715,0,0,1-1.558-1.08c-.658-1.431-1.341-2.851-1.988-4.288a2,2,0,0,0-2.059-1.3c-.929.026-1.861.039-2.788-.007-.54-.027-.716.092-.7.675a2.258,2.258,0,0,1-1.783,2.484c-.553.114-.669.344-.608.823a4.329,4.329,0,0,1,0,.613,1.963,1.963,0,0,1-2,2.078q-5.019.032-10.039,0a1.959,1.959,0,0,1-2-2.08c0-.038,0-.075,0-.112a3.242,3.242,0,0,0-.027-1.051c-.131-.356-.6-.2-.9-.344a2.37,2.37,0,0,1-1.457-2.412c.035-.59-.165-.7-.7-.673-.964.044-1.933.022-2.9.009a1.909,1.909,0,0,0-1.9,1.2c-.641,1.378-1.312,2.743-1.911,4.139a1.955,1.955,0,0,1-2.075,1.338c-.333-.018-.67.015-1-.011a1.684,1.684,0,0,1-1.607-1.991q.744-5.015,1.509-10.028c.149-.992.269-1.989.455-2.974a4.474,4.474,0,0,1,2.888-3.482q3.3-1.33,6.628-2.583a.785.785,0,0,0,.612-.87c0-3.087-.126-6.177.053-9.26a19.945,19.945,0,0,1,3.528-10.917,7.548,7.548,0,0,1,4.959-3.315,5.961,5.961,0,0,1,4.476,1.109,11.874,11.874,0,0,1,3.978,5.264,24.26,24.26,0,0,1,1.845,9.781c0,2.418.016,4.836-.013,7.254a.844.844,0,0,0,.639.961c1.961.728,3.88,1.58,5.858,2.256a5.224,5.224,0,0,1,3.831,4.983c.026.37.1.737.154,1.1.108.684-.01.908-.659,1.219a.95.95,0,0,1-1-.97c-.073-.644-.193-1.283-.283-1.926a2.834,2.834,0,0,0-1.668-2.4c-2.133-.9-4.3-1.717-6.452-2.57-.271-.107-.406-.064-.4.269.017,2.172.023,4.343.032,6.514-.009,1.3-.009,2.6-.032,3.9-.005.329.167.347.417.346,1.076-.007,2.152-.011,3.228,0a3.46,3.46,0,0,1,3.317,2.106c.6,1.254,1.176,2.518,1.764,3.778.408.871.419.868,1.375.79.25-.02.307-.089.268-.339-.26-1.628-.5-3.259-.751-4.89-.055-.4-.106-.795-.166-1.191-.1-.663.035-.914.664-1.2m-21.325,7.584,6.626.024c.238,0,.493-.035.482-.328-.016-.466.145-.951-.1-1.4-.02-.034-.141-.015-.215-.015l-6.793.019c-.8-.008-1.592-.02-2.388-.023-1.274,0-1.266,0-1.191,1.281.019.331.155.472.474.469l3.108-.03M249.6,191.25c.685.007,1.37.032,2.054.014a.943.943,0,0,1,1.085.8c-.163.705-.375.876-1.1.882l-2.041.019c-.983-.007-1.968.013-2.95-.031-.463-.02-.581.106-.579.574q.026,9.083.011,18.166c0,.13,0,.26.005.39a.716.716,0,0,0,.782.755c.983,0,1.966-.013,2.95-.02q5.379.012,10.757.021c.812,0,1.007-.2,1.007-1.036,0-6.116-.005-12.232.014-18.348,0-.452-.153-.5-.535-.5-1.691.018-3.382.01-5.073.007-.685,0-.9-.187-1.059-.881a.949.949,0,0,1,1.088-.8c1.336.019,2.673.009,4.01,0,.5,0,1.166.165,1.45-.09.328-.293.056-.976.11-1.486.038-.369-.1-.466-.463-.463-2.6.014-5.2,0-7.8.009-1.243,0-2.486.018-3.729.027-.648-.009-1.3-.026-1.944-.027-1.665,0-1.659,0-1.572,1.688.014.26.074.355.348.35,1.057-.02,2.114-.018,3.171-.025m-14.818,19.768q-.375,2.446-.75,4.891c-.016.1-.074.213.045.3a1.421,1.421,0,0,0,1.408-.347c.652-1.393,1.291-2.792,1.952-4.181a3.457,3.457,0,0,1,3.316-2.109c1.075-.01,2.152-.006,3.228,0,.249,0,.424-.014.418-.345-.021-1.3-.022-2.6-.031-3.9.009-2.171.015-4.343.032-6.515,0-.427-.219-.329-.462-.234-2.069.812-4.144,1.609-6.206,2.44a2.793,2.793,0,0,0-1.806,2.238c-.408,2.581-.767,5.171-1.145,7.758m20.183-36.729a3.057,3.057,0,0,0-1.687-.159,5.375,5.375,0,0,0-3.375,1.991c-2.693,3.206-3.547,7.055-3.782,11.108-.017.288.126.34.368.337,1.074-.015,2.15-.021,3.225-.03q5.734.012,11.47.032c.366,0,.372-.181.361-.452a22.046,22.046,0,0,0-.579-4.24,15.081,15.081,0,0,0-3.21-6.764,5.2,5.2,0,0,0-2.791-1.822" transform="translate(-232.312 -172.412)" fill="#050404"/>
      <path id="Trazado_131335" data-name="Trazado 131335" d="M278.734,213.134c-.629.283-.766.533-.664,1.2.061.4.111.794.166,1.191-.518,0-1.048.06-1.358-.518-.674-1.258-1.375-2.5-2.041-3.763a2.492,2.492,0,0,0-2.343-1.4c-1.281-.014-2.563,0-3.843,0-.009-2.172-.015-4.343-.033-6.514,0-.334.132-.378.4-.27,2.152.853,4.319,1.671,6.452,2.569a2.836,2.836,0,0,1,1.668,2.4c.09.642.211,1.281.283,1.926a.95.95,0,0,0,1,.97q.156,1.107.313,2.213" transform="translate(-237.658 -176.916)" fill="#da5e6b"/>
      <path id="Trazado_131336" data-name="Trazado 131336" d="M249.665,233.024c0-1.245,0-2.49,0-3.734,0-.67.3-1.017.84-1.011s.831.358.833,1.03q.01,3.707,0,7.414c0,.658-.312,1.034-.825,1.047-.532.014-.846-.374-.849-1.068,0-1.226,0-2.453,0-3.679" transform="translate(-234.867 -180.638)" fill="#070707"/>
      <path id="Trazado_131337" data-name="Trazado 131337" d="M265.155,233.086c0,1.208,0,2.415,0,3.623,0,.673-.286,1.041-.8,1.061-.536.02-.874-.372-.876-1.053q-.008-3.706,0-7.413c0-.664.308-1.022.838-1.025s.831.345.835,1.016c.006,1.264,0,2.527,0,3.79" transform="translate(-236.901 -180.638)" fill="#070707"/>
      <path id="Trazado_131338" data-name="Trazado 131338" d="M254.275,232.984c0-1.245,0-2.489,0-3.734,0-.614.314-.969.825-.97s.843.358.844.961q.009,3.79,0,7.58a.849.849,0,0,1-.862.949.84.84,0,0,1-.806-.94c-.008-1.282,0-2.564,0-3.846" transform="translate(-235.546 -180.638)" fill="#030303"/>
      <path id="Trazado_131339" data-name="Trazado 131339" d="M260.546,233.04c0,1.245,0,2.489,0,3.734,0,.611-.312.982-.808,1-.518.014-.86-.371-.862-1.005q-.008-3.735,0-7.469c0-.646.321-1.018.845-1.016s.824.361.826,1.027c0,1.245,0,2.489,0,3.734" transform="translate(-236.223 -180.638)" fill="#030303"/>
      <path id="Trazado_131340" data-name="Trazado 131340" d="M257.917,195.457c.159.694.373.879,1.059.881,1.691,0,3.382.012,5.072-.007.383,0,.536.045.536.5-.019,6.116-.012,12.232-.014,18.348,0,.837-.2,1.038-1.007,1.037q-5.379-.008-10.757-.021a3.589,3.589,0,0,1-.223-1.239c0-2.293,0-4.585,0-6.877,0-.2-.07-.411.1-.578.124.136.246.273.372.408a5.127,5.127,0,0,0,8.881-3.771,5.152,5.152,0,0,0-9.327-2.691q-.015-2.543-.03-5.085l2.04-.019c.724-.006.937-.176,1.1-.882h2.191" transform="translate(-235.295 -175.805)" fill="#dcebfb"/>
      <path id="Trazado_131341" data-name="Trazado 131341" d="M257.973,174.613a5.2,5.2,0,0,1,2.791,1.822,15.081,15.081,0,0,1,3.21,6.764,22.053,22.053,0,0,1,.579,4.24c.011.271.005.454-.361.452q-5.734-.028-11.47-.032a19.121,19.121,0,0,1,.689-5.308,16.124,16.124,0,0,1,3.044-6.413c.46-.566,1.079-.953,1.518-1.526" transform="translate(-235.316 -172.736)" fill="#5f90d2"/>
      <path id="Trazado_131342" data-name="Trazado 131342" d="M251.98,196.507q.015,2.542.031,5.084a5.222,5.222,0,0,0,.074,6.055c-.174.167-.1.383-.1.578q-.008,3.438,0,6.877a3.6,3.6,0,0,0,.222,1.24c-.983.007-1.966.018-2.95.019a.715.715,0,0,1-.782-.754c-.009-.13-.005-.26-.005-.391q0-9.082-.012-18.165c0-.468.117-.594.58-.574.982.043,1.966.024,2.95.031" transform="translate(-234.688 -175.955)" fill="#b8d6f6"/>
      <path id="Trazado_131343" data-name="Trazado 131343" d="M235.213,215.523c.379-2.586.738-5.176,1.145-7.758a2.793,2.793,0,0,1,1.806-2.237c2.062-.831,4.137-1.628,6.206-2.44.243-.1.466-.194.462.234-.017,2.172-.023,4.343-.032,6.515-1.334,0-2.667-.026-4,.008a2.354,2.354,0,0,0-2.1,1.234c-.653,1.159-1.3,2.32-1.913,3.5a1.427,1.427,0,0,1-1.576.94" transform="translate(-232.739 -176.916)" fill="#da5e6b"/>
      <path id="Trazado_131344" data-name="Trazado 131344" d="M257.354,174.577c-.439.573-1.057.959-1.518,1.526a16.124,16.124,0,0,0-3.044,6.413,19.12,19.12,0,0,0-.689,5.308c-1.075.008-2.151.014-3.225.03-.242,0-.385-.049-.368-.337.235-4.053,1.089-7.9,3.782-11.108a5.375,5.375,0,0,1,3.375-1.991,3.057,3.057,0,0,1,1.687.159" transform="translate(-234.697 -172.7)" fill="#2f71c5"/>
      <path id="Trazado_131345" data-name="Trazado 131345" d="M235.079,216.7a1.427,1.427,0,0,0,1.576-.94c.608-1.184,1.259-2.345,1.913-3.5a2.354,2.354,0,0,1,2.1-1.234c1.333-.035,2.667-.009,4-.009.009,1.3.009,2.6.031,3.9.006.33-.169.346-.418.345-1.076-.006-2.152-.01-3.228,0a3.458,3.458,0,0,0-3.316,2.109c-.661,1.39-1.3,2.789-1.952,4.182a1.423,1.423,0,0,1-1.408.347c-.119-.087-.061-.2-.045-.3q.374-2.446.75-4.891" transform="translate(-232.605 -178.094)" fill="#d24753"/>
      <path id="Trazado_131346" data-name="Trazado 131346" d="M268.651,211.015c1.281,0,2.563-.011,3.843,0a2.489,2.489,0,0,1,2.343,1.4c.667,1.261,1.368,2.5,2.041,3.762.31.578.84.518,1.358.518.248,1.63.491,3.261.751,4.89.039.25-.018.318-.268.339-.956.078-.967.082-1.375-.791-.589-1.259-1.167-2.522-1.764-3.777a3.459,3.459,0,0,0-3.317-2.107c-1.076-.009-2.152-.006-3.228,0-.251,0-.422-.016-.417-.346.022-1.3.023-2.6.032-3.895" transform="translate(-237.658 -178.095)" fill="#d24753"/>
      <path id="Trazado_131347" data-name="Trazado 131347" d="M257.919,194.968h-2.191a.943.943,0,0,0-1.085-.8c-.684.019-1.369-.007-2.053-.014q0-.993,0-1.985c1.242-.009,2.486-.025,3.728-.027,2.6,0,5.2.006,7.8-.009.361,0,.5.094.462.463-.053.51.218,1.193-.11,1.486-.283.254-.952.087-1.45.09-1.336.005-2.673.014-4.01,0a.948.948,0,0,0-1.087.8" transform="translate(-235.298 -175.316)" fill="#97c8f9"/>
      <path id="Trazado_131348" data-name="Trazado 131348" d="M255.47,221.782l6.793-.019c.074,0,.2-.02.215.015.249.445.087.93.1,1.4.01.293-.245.329-.483.328l-6.625-.024q0-.849,0-1.7" transform="translate(-235.722 -179.678)" fill="#bbdafa"/>
      <path id="Trazado_131349" data-name="Trazado 131349" d="M251.976,192.17q0,.993,0,1.986c-1.057.006-2.114,0-3.171.024-.274.006-.335-.09-.348-.349-.087-1.69-.094-1.692,1.572-1.688.648,0,1.3.018,1.945.027" transform="translate(-234.685 -175.317)" fill="#75b7f7"/>
      <path id="Trazado_131350" data-name="Trazado 131350" d="M254.847,221.782q0,.848,0,1.7-1.555.014-3.109.03c-.318,0-.455-.138-.474-.469-.074-1.283-.083-1.284,1.191-1.281.8,0,1.592.015,2.388.023" transform="translate(-235.099 -179.678)" fill="#91bbe5"/>
      <path id="Trazado_131351" data-name="Trazado 131351" d="M252.538,208.158a5.224,5.224,0,0,1-.074-6.055,5.152,5.152,0,0,1,9.327,2.691,5.127,5.127,0,0,1-8.881,3.771c-.125-.134-.248-.271-.372-.408m5.6.015a3.2,3.2,0,0,0,1.971-3.029,3.238,3.238,0,0,0-1.953-3.159,3.439,3.439,0,1,0-.019,6.188" transform="translate(-235.142 -176.466)" fill="#020304"/>
      <path id="Trazado_131352" data-name="Trazado 131352" d="M258.426,208.466a3.436,3.436,0,1,1,.019-6.188,4.21,4.21,0,0,0-.019,6.188" transform="translate(-235.432 -176.758)" fill="#2f72c6"/>
      <path id="Trazado_131353" data-name="Trazado 131353" d="M259.044,208.526a4.21,4.21,0,0,1,.019-6.188,3.239,3.239,0,0,1,1.953,3.159,3.2,3.2,0,0,1-1.972,3.029" transform="translate(-236.05 -176.818)" fill="#5f90d2"/>
    </g>
  </g>
</svg>
