<svg xmlns="http://www.w3.org/2000/svg" width="67" height="90.367" viewBox="0 0 67 90.367">
  <g id="Grupo_87553" data-name="Grupo 87553" transform="translate(-1058 -1676.725)">
    <g id="Grupo_81330" data-name="Grupo 81330" transform="translate(1058 1676.725)">
      <rect id="Rectángulo_34185" data-name="Rectángulo 34185" width="67" height="90.367" rx="5" fill="#fff"/>
    </g>
    <g id="Grupo_86770" data-name="Grupo 86770" transform="translate(1070.994 1687.05)">
      <path id="Trazado_131182" data-name="Trazado 131182" d="M460.788,32.026c.128-.514.29-.646.839-.647,1.738,0,3.475-.007,5.212,0a.441.441,0,0,0,.5-.323,2.431,2.431,0,0,1,2.625-1.467,2.4,2.4,0,0,1,2.071,2.311c.04,1.309.017,2.62.018,3.93q0,4.294,0,8.588c0,.976-.12,1.093-1.116,1.093-.314,0-.628.01-.94,0-.2-.008-.3.024-.3.27.011,1.581.016,3.162,0,4.743,0,.3.18.3.359.364a3.132,3.132,0,1,1-4.091,3.484,3.1,3.1,0,0,1,2.035-3.448.516.516,0,0,0,.43-.623,10.659,10.659,0,0,1,0-1.238c.012-.254-.082-.333-.316-.3a1.609,1.609,0,0,1-.214,0q-17.326,0-34.653-.011c-.438,0-.6.111-.519.536a.853.853,0,0,1,0,.256,1.291,1.291,0,0,0,.89,1.624,2.963,2.963,0,0,1,1.466,3.632,3.137,3.137,0,0,1-6.108-.6,3.1,3.1,0,0,1,2.057-3.279.5.5,0,0,0,.422-.586c-.022-1.452-.028-2.906,0-4.358.009-.412-.128-.49-.5-.471-.583.029-1.168.014-1.751.005-.546-.008-.772-.24-.772-.792q0-3.845,0-7.691c0-.471.237-.749.623-.759.4-.011.657.277.657.767,0,2.279.005,4.558,0,6.837,0,.266.049.363.344.362q7.819-.014,15.639-.008a1.608,1.608,0,0,0,.169-.017c.809.007,1.618.01,2.427.026.2,0,.235-.082.234-.254-.007-.625-.012-1.25,0-1.875.005-.22-.085-.254-.275-.251-.8.014-1.59.014-2.385.02q-3.69-.006-7.378-.013c-1.863,0-3.726-.007-5.588,0a.722.722,0,0,1-.835-.6c.005-.07.016-.141.016-.212q0-6.449,0-12.9a2.338,2.338,0,0,0-.045-.466,1.177,1.177,0,0,0-2.316.362q-.006,2.862,0,5.724a.78.78,0,0,1-.172.6.6.6,0,0,1-.658.181.632.632,0,0,1-.454-.648c0-.74,0-1.481,0-2.221,0-1.21,0-2.421,0-3.631A2.464,2.464,0,1,1,433.355,28q.029,1.43,0,2.861a.424.424,0,0,0,.364.5c1.738.527,3.47,1.077,5.2,1.617a2.537,2.537,0,0,1,1.908,2.216c.028.2.1.254.3.254q3.566-.008,7.133,0c.206,0,.252-.062.266-.262a3.88,3.88,0,0,1,4.085-3.812q2.841-.009,5.682,0c.545,0,.707.134.838.649-.139.522-.279.634-.846.635-1.893,0-3.786,0-5.68,0a2.618,2.618,0,0,0-2.8,2.8c0,2.761.007,5.523-.009,8.284,0,.381.082.494.482.493,4.683-.016,9.366-.01,14.049-.011.142,0,.284-.013.425-.019.669.007,1.338,0,2,.029.34.018.394-.111.391-.414-.015-1.552-.007-3.1-.007-4.655v-6.15c0-.184.043-.377-.26-.367-.71.022-1.421.023-2.131.032-1.052-.009-2.1-.016-3.156-.028-.526-.006-.669-.125-.8-.635M469.1,55.685a1.824,1.824,0,0,0,1.8-1.871,1.8,1.8,0,0,0-1.794-1.774,1.775,1.775,0,0,0-1.891,1.841,1.8,1.8,0,0,0,1.889,1.8m-36.92,0a1.79,1.79,0,0,0,1.73-1.931,1.768,1.768,0,0,0-1.727-1.71,1.811,1.811,0,0,0-1.955,1.836,1.843,1.843,0,0,0,1.952,1.805m1.2-20.316c-.012.075.032.078.087.068h4.017c.495.005.989.018,1.483.011.19,0,.468.1.551-.059.113-.217-.064-.455-.2-.657a1.069,1.069,0,0,0-.555-.442c-.508-.166-1.024-.3-1.537-.455-1.211-.388-2.423-.773-3.632-1.168-.208-.068-.245.01-.242.193.012.836.018,1.673.026,2.509m35.7-4.373a1.153,1.153,0,0,0-.665,1.212q.006,5.5,0,11c0,1.093,0,1.093,1.118,1a7.6,7.6,0,0,1,.766.027c.374.049.475-.078.473-.462-.016-3.817-.009-7.634-.01-11.451,0-.128,0-.256-.012-.383a1.136,1.136,0,0,0-1.672-.947m-23.218,9.572c.794,0,1.588.005,2.381.018.187,0,.278-.027.276-.249q-.017-1.681,0-3.361c0-.222-.087-.253-.275-.25-.794.014-1.588.015-2.381.02q-6.123-.008-12.245-.023c-.266,0-.26.127-.259.312,0,1.053.014,2.106-.007,3.158-.006.315.068.4.394.4,2.887-.015,5.774-.007,8.662-.009,1.151,0,2.3-.009,3.455-.014m4.751,4.948q-8.735,0-17.469-.006c-.317,0-.466.053-.431.412a5.054,5.054,0,0,1,0,1.066c-.05.431.119.5.517.5q11.959-.018,23.918-.009c3.616,0,7.233,0,10.849.007.325,0,.459-.065.427-.416a5.523,5.523,0,0,1,0-1.109c.045-.4-.114-.456-.471-.456q-8.671.017-17.341.008" transform="translate(-428.427 -13.233)" fill="#040404"/>
      <path id="Trazado_131183" data-name="Trazado 131183" d="M474.977,47.347c-.143.007-.284.019-.426.019-4.683,0-9.366,0-14.049.011-.4,0-.485-.112-.482-.493.016-2.761.007-5.523.009-8.284a2.619,2.619,0,0,1,2.8-2.8c1.893-.005,3.786,0,5.679,0,.567,0,.707-.113.846-.634l1.662,0c.13.51.273.629.8.635,1.052.012,2.1.019,3.156.028q0,5.762,0,11.524" transform="translate(-438.658 -16.367)" fill="#bce1a5"/>
      <path id="Trazado_131184" data-name="Trazado 131184" d="M462.7,15.7a8.323,8.323,0,1,1-8.286-8.33A8.323,8.323,0,0,1,462.7,15.7m-6.857,6.872c.139-.026.279-.043.415-.08a7.038,7.038,0,0,0-.331-13.649,4.889,4.889,0,0,0-1.134-.179,7.04,7.04,0,0,0-6.75,3.974,6.953,6.953,0,0,0,1.089,7.748,6.77,6.77,0,0,0,6.711,2.186" transform="translate(-434.136 -7.366)" fill="#040404"/>
      <path id="Trazado_131185" data-name="Trazado 131185" d="M431.716,27.454a1.117,1.117,0,0,1,1.379.865,2.237,2.237,0,0,1,.045.466q0,6.449,0,12.9c0,.071-.01.141-.016.212l-.256,0c-.993-.008-.9.117-.9-.882q0-5.948,0-11.9a3.572,3.572,0,0,0-.262-1.659" transform="translate(-429.492 -13.862)" fill="#e9e9e9"/>
      <path id="Trazado_131186" data-name="Trazado 131186" d="M454.21,49.722c.8-.005,1.59-.006,2.385-.02.19,0,.28.03.275.251-.014.625-.009,1.25,0,1.875,0,.172-.036.258-.234.254-.809-.016-1.617-.018-2.427-.026q0-1.167,0-2.335" transform="translate(-436.776 -21.077)" fill="#e0e0e0"/>
      <path id="Trazado_131187" data-name="Trazado 131187" d="M452.66,55.106q8.671,0,17.341-.008c.358,0,.516.057.471.456a5.525,5.525,0,0,0,0,1.109c.032.351-.1.417-.427.416-3.616-.011-7.233-.007-10.849-.007q-11.959,0-23.918.009c-.4,0-.567-.072-.517-.5a5.054,5.054,0,0,0,0-1.066c-.035-.358.114-.412.431-.412q8.735.012,17.469.006" transform="translate(-430.475 -22.824)" fill="#f3f5f6"/>
      <path id="Trazado_131188" data-name="Trazado 131188" d="M448.22,45.951c-1.151.005-2.3.014-3.455.015-2.887,0-5.775-.005-8.662.009-.325,0-.4-.084-.393-.4.022-1.052.01-2.1.007-3.157,0-.185-.007-.313.259-.312q6.123.022,12.245.023v3.822" transform="translate(-430.785 -18.616)" fill="#c6dcfb"/>
      <path id="Trazado_131189" data-name="Trazado 131189" d="M482.14,47.649q0-5.762,0-11.524c.71-.009,1.421-.011,2.131-.032.3-.009.26.184.26.367v6.15c0,1.552-.008,3.1.007,4.655,0,.3-.051.432-.392.415-.667-.034-1.336-.022-2-.03" transform="translate(-445.821 -16.669)" fill="#9fcda2"/>
      <path id="Trazado_131190" data-name="Trazado 131190" d="M488.552,33.576a1.135,1.135,0,0,1,1.671.947,3.838,3.838,0,0,1,.013.384c0,3.817-.005,7.634.009,11.451,0,.383-.1.51-.472.461a7.417,7.417,0,0,0-.767-.026c0-3.969.006-7.938-.006-11.906a1.476,1.476,0,0,0-.448-1.31" transform="translate(-447.898 -15.814)" fill="#eee"/>
      <path id="Trazado_131191" data-name="Trazado 131191" d="M488.233,33.635a1.476,1.476,0,0,1,.448,1.31c.012,3.968.006,7.937.006,11.906-1.118.09-1.118.09-1.118-1q0-5.5,0-11a1.153,1.153,0,0,1,.667-1.213" transform="translate(-447.579 -15.873)" fill="#f3f5f6"/>
      <path id="Trazado_131192" data-name="Trazado 131192" d="M454.212,45.952V42.13c.794-.005,1.588-.007,2.381-.02.188,0,.278.028.276.249q-.016,1.681,0,3.361c0,.222-.089.252-.276.249-.794-.012-1.588-.013-2.381-.018" transform="translate(-436.777 -18.618)" fill="#aacbf9"/>
      <path id="Trazado_131193" data-name="Trazado 131193" d="M439.848,38.862h-4.017l-.087-.068c-.007-.836-.013-1.673-.026-2.509,0-.184.033-.262.242-.193,1.209.394,2.421.78,3.632,1.168a8.382,8.382,0,0,1,.256,1.6" transform="translate(-430.788 -16.661)" fill="#f3f5f6"/>
      <path id="Trazado_131194" data-name="Trazado 131194" d="M433.049,68.4a1.842,1.842,0,0,1-1.952-1.8,1.811,1.811,0,0,1,1.955-1.836.869.869,0,0,0,.08.191,2.45,2.45,0,0,1-.014,3.213.679.679,0,0,0-.068.237" transform="translate(-429.291 -25.952)" fill="#7a707a"/>
      <path id="Trazado_131195" data-name="Trazado 131195" d="M487.682,68.4a1.8,1.8,0,0,1-1.889-1.8,1.775,1.775,0,0,1,1.891-1.841.415.415,0,0,0,.137.256,2.428,2.428,0,0,1,.251,2.74c-.129.217-.26.433-.39.65" transform="translate(-447.005 -25.952)" fill="#7a707a"/>
      <path id="Trazado_131196" data-name="Trazado 131196" d="M488.587,68.405c.13-.216.262-.433.39-.65a2.428,2.428,0,0,0-.251-2.74.414.414,0,0,1-.137-.256,1.8,1.8,0,0,1,1.8,1.774,1.825,1.825,0,0,1-1.8,1.871" transform="translate(-447.909 -25.953)" fill="#665c67"/>
      <path id="Trazado_131197" data-name="Trazado 131197" d="M433.984,68.4a.681.681,0,0,1,.068-.237,2.45,2.45,0,0,0,.014-3.213.873.873,0,0,1-.08-.191,1.768,1.768,0,0,1,1.727,1.71,1.789,1.789,0,0,1-1.73,1.931" transform="translate(-430.226 -25.954)" fill="#665c67"/>
      <path id="Trazado_131198" data-name="Trazado 131198" d="M441.7,39.433a8.377,8.377,0,0,0-.256-1.6c.513.15,1.029.289,1.537.455a1.069,1.069,0,0,1,.555.442c.134.2.311.44.2.657-.084.16-.362.056-.551.059-.494.007-.989-.007-1.483-.011" transform="translate(-432.644 -17.232)" fill="#e9e9e9"/>
      <path id="Trazado_131199" data-name="Trazado 131199" d="M435.756,40.1l.087.068c-.055.011-.1.007-.087-.068" transform="translate(-430.8 -17.967)" fill="#e9e9e9"/>
      <path id="Trazado_131200" data-name="Trazado 131200" d="M456.455,23.182A6.77,6.77,0,0,1,449.745,21a6.951,6.951,0,0,1-1.089-7.749,7.039,7.039,0,0,1,6.749-3.974,4.86,4.86,0,0,1,1.135.18c.009.176.157.218.277.29a7.151,7.151,0,0,1,2.074,1.857,7.567,7.567,0,0,1,1.5,5.885,7.681,7.681,0,0,1-2.928,4.957c-.327.262-.771.358-1.007.739m-1.489-2.025v0c.2,0,.4,0,.6,0a1.444,1.444,0,0,0,1.5-1.5c.006-.313.021-.627,0-.939-.023-.278.088-.339.339-.324.312.02.625.012.939,0a1.492,1.492,0,0,0,1.518-1.513c.011-.383.012-.768,0-1.152a1.488,1.488,0,0,0-1.523-1.506c-.327-.008-.655-.014-.982,0-.22.011-.3-.057-.29-.286.017-.369.015-.74,0-1.11a1.413,1.413,0,0,0-1.331-1.361,13.2,13.2,0,0,0-1.407-.005,1.415,1.415,0,0,0-1.395,1.388c-.021.369-.018.74,0,1.109.007.21-.068.272-.271.264-.327-.014-.654-.009-.981,0a1.484,1.484,0,0,0-1.538,1.531c-.005.37-.005.74,0,1.11a1.483,1.483,0,0,0,1.5,1.531c.341.011.684.012,1.024,0,.2-.008.275.056.27.265a11.542,11.542,0,0,0,.014,1.194,1.412,1.412,0,0,0,1.346,1.3c.227.014.455,0,.683,0" transform="translate(-434.747 -7.98)" fill="#f6f2db"/>
      <path id="Trazado_131201" data-name="Trazado 131201" d="M460.533,23.274c.236-.38.681-.476,1.007-.738a7.688,7.688,0,0,0,2.928-4.957,7.572,7.572,0,0,0-1.5-5.886A7.169,7.169,0,0,0,460.9,9.835c-.121-.072-.268-.113-.278-.29a7.038,7.038,0,0,1,.331,13.649c-.136.037-.277.053-.415.08" transform="translate(-438.824 -8.072)" fill="#f0e8cd"/>
      <path id="Trazado_131202" data-name="Trazado 131202" d="M456.014,22.205c-.227,0-.456.011-.682,0a1.412,1.412,0,0,1-1.346-1.3,11.17,11.17,0,0,1-.014-1.194c.005-.208-.068-.273-.27-.265-.341.013-.684.012-1.024,0a1.482,1.482,0,0,1-1.5-1.531c-.006-.369-.006-.74,0-1.11a1.483,1.483,0,0,1,1.538-1.531c.327-.006.655-.011.982,0,.2.008.277-.055.27-.264-.013-.369-.016-.74,0-1.109a1.415,1.415,0,0,1,1.395-1.388,13.211,13.211,0,0,1,1.408.005,1.412,1.412,0,0,1,1.331,1.361c.018.369.019.74,0,1.11-.01.229.07.3.291.286.326-.016.654-.01.981,0a1.489,1.489,0,0,1,1.523,1.506c.012.384.012.769,0,1.152a1.492,1.492,0,0,1-1.518,1.513c-.312.009-.627.017-.939,0-.251-.016-.362.046-.339.324a9.237,9.237,0,0,1,0,.938,1.443,1.443,0,0,1-1.5,1.5c-.2,0-.4,0-.6,0v0m-2.329-4.039c.285,0,.569-.005.854,0a.637.637,0,0,1,.709.677c.019.312.005.626.005.939,0,1.191,0,1.183,1.216,1.149.277-.008.378-.1.369-.375-.016-.5-.005-1,0-1.494,0-.7.195-.9.878-.9.256,0,.513,0,.768,0,1.352-.028,1.122.253,1.149-1.23,0-.271-.1-.387-.378-.382-.569.011-1.139.009-1.708,0a.638.638,0,0,1-.705-.681c-.016-.312,0-.626,0-.939,0-1.2,0-1.193-1.216-1.15-.28.009-.374.11-.368.381.013.555.015,1.11,0,1.665-.014.5-.247.719-.749.725-.555.006-1.11.009-1.665,0-.276-.005-.381.1-.375.379.037,1.494-.234,1.2,1.182,1.234h.043" transform="translate(-435.794 -9.028)" fill="#040303"/>
      <path id="Trazado_131203" data-name="Trazado 131203" d="M454.3,18.774h-.043c-1.416-.034-1.145.259-1.182-1.235-.007-.277.1-.384.375-.379.555.011,1.11.008,1.665,0,.5-.006.734-.223.748-.726.016-.554.014-1.11,0-1.665-.006-.271.088-.371.368-.381,1.216-.043,1.216-.05,1.216,1.15,0,.313-.012.627,0,.94a.639.639,0,0,0,.705.681q.854.014,1.708,0c.277-.005.383.112.378.382-.027,1.483.2,1.2-1.149,1.231-.256.005-.512,0-.768,0-.683,0-.876.2-.878.9,0,.5-.012,1,0,1.494.009.277-.093.367-.369.375-1.216.034-1.215.041-1.216-1.149,0-.313.013-.627-.005-.939a.637.637,0,0,0-.709-.677c-.285-.007-.569,0-.854,0" transform="translate(-436.409 -9.637)" fill="#e1807d"/>
    </g>
  </g>
</svg>
