<svg xmlns="http://www.w3.org/2000/svg" xmlns:xlink="http://www.w3.org/1999/xlink" width="67" height="90.367" viewBox="0 0 67 90.367">
  <defs>
    <clipPath id="clip-path">
      <rect id="Rect치ngulo_36977" data-name="Rect치ngulo 36977" width="45.299" height="45.296" fill="none"/>
    </clipPath>
  </defs>
  <g id="Grupo_87554" data-name="Grupo 87554" transform="translate(-218 -1808.725)">
    <g id="Grupo_81330" data-name="Grupo 81330" transform="translate(218 1808.725)">
      <rect id="Rect치ngulo_34185" data-name="Rect치ngulo 34185" width="67" height="90.367" rx="5" fill="#fff"/>
    </g>
    <g id="Grupo_86777" data-name="Grupo 86777" transform="translate(226.582 1816.21)">
      <g id="Grupo_86776" data-name="Grupo 86776" clip-path="url(#clip-path)">
        <path id="Trazado_131428" data-name="Trazado 131428" d="M29.64,14.546a3.1,3.1,0,0,0,1.631-1.055,6.369,6.369,0,0,1,9.9.4,1.043,1.043,0,0,0,.584.418,3.536,3.536,0,0,1,2.59,3.472,1,1,0,0,0,.217.637,3.462,3.462,0,0,1,.378,3.688.9.9,0,0,0-.044.709,4.513,4.513,0,0,1-4.174,5.862.538.538,0,0,0-.58.4,4.708,4.708,0,0,0-.314,1.125h4.055c1.319,0,1.413.094,1.413,1.415q0,6.3,0,12.6c0,.869-.217,1.087-1.082,1.087H1.092C.218,45.3,0,45.081,0,44.22q0-6.487,0-12.974c0-.828.226-1.048,1.07-1.049H7.055c.083-.175-.046-.283-.1-.4-.758-1.531-1.513-3.064-2.291-4.584a5.062,5.062,0,0,1-.551-3.281c.07-.388-.194-.236-.334-.24a3.77,3.77,0,0,1-3.765-3.93,3.662,3.662,0,0,1,1.283-2.687.905.905,0,0,0,.312-.551,4.523,4.523,0,0,1,7.068-2.8.912.912,0,0,0,.588.233,3.76,3.76,0,0,1,2.621,6.6l-.212.195c1.812,1.142,2.037,3.111,2.614,4.972a3.832,3.832,0,0,1,2.3-1.934,3.054,3.054,0,0,1,2.8.781,6.275,6.275,0,0,1,.621-1.425,4.194,4.194,0,0,1-1.189-.128,3.755,3.755,0,0,1-2.284-1.633,14.813,14.813,0,0,1-.884-1.712.711.711,0,0,1,.586-1.043,12.744,12.744,0,0,1,2.5.038,3.887,3.887,0,0,1,3,2.258c.062.125.08.429.311.3s.607-.078.615-.519a8.615,8.615,0,0,0-.533-3.325C21.076,12.692,20.047,10,19.014,7.306c-.286-.745-.138-1.047.632-1.307.579-.2,1.157-.393,1.737-.587.75-.251,1.025-.123,1.308.6.21.54.418,1.082.629,1.622,0,.007.027.006.082.017v-.45q0-3.137,0-6.275c0-.652.267-.923.907-.927Q25.677,0,27.045,0c.609,0,.883.283.884.9,0,2.247,0,4.493.07,6.761q.327-.837.654-1.674c.27-.687.55-.825,1.23-.6q.894.292,1.785.592c.793.268.935.57.637,1.346q-1.313,3.424-2.628,6.847c-.039.1-.072.207-.107.311,0,.036-.023.093-.007.105.042.033.066,0,.078-.046m6.712-1.709a4.984,4.984,0,0,0-4.333,2.128,1.572,1.572,0,0,1-1.1.766A2,2,0,0,0,29.3,18.145a.959.959,0,0,1-.333.921,2,2,0,0,0-.269,2.7A1.051,1.051,0,0,1,28.79,22.9a3,3,0,0,0,4.437,3.733,1.64,1.64,0,0,1,.643-.276,3.71,3.71,0,0,0,1.639-.675.827.827,0,0,1,1.081.007,3.637,3.637,0,0,0,1.594.662,1.634,1.634,0,0,1,.687.29,2.878,2.878,0,0,0,1.585.533,3.008,3.008,0,0,0,2.86-4.244,1.022,1.022,0,0,1,.027-1.1,2.01,2.01,0,0,0-.266-2.8.915.915,0,0,1-.3-.846,2.016,2.016,0,0,0-1.666-2.468,1.394,1.394,0,0,1-1-.681,4.742,4.742,0,0,0-3.764-2.2M22.6,43.785q10.351,0,20.7.009c.379,0,.519-.068.495-.478a15.257,15.257,0,0,1,0-1.979c.034-.479-.11-.583-.583-.582q-20.16.022-40.321.012c-.33,0-.662.018-.99-.005-.3-.021-.41.056-.4.38.026.706.036,1.416,0,2.121-.024.432.107.534.534.533q10.281-.021,20.561-.01m.074-7.548H6.3c-1.462,0-2.925.012-4.387-.008-.34,0-.421.1-.409.422.025.675.039,1.354,0,2.028-.029.466.092.591.578.591q20.569-.024,41.138-.013a1.605,1.605,0,0,1,.236,0c.277.042.342-.083.337-.344-.016-.723-.03-1.448,0-2.169.019-.405-.079-.519-.506-.519q-10.308.024-20.616.011m-.015-1.51h5.659c5,0,10-.005,15,.01.4,0,.5-.1.482-.491a16.554,16.554,0,0,1,0-1.933c.03-.471-.083-.62-.593-.619q-20.561.024-41.122.013a1.629,1.629,0,0,1-.235,0c-.273-.04-.343.079-.337.34.016.691.036,1.385,0,2.074-.028.471.083.621.593.619q10.28-.03,20.561-.013M14.771,30.2a6.4,6.4,0,0,1-1.246-3.252,2.65,2.65,0,0,1-.571.347c-.209.066-.405.176-.616.232a.725.725,0,0,1-.906-.4.686.686,0,0,1,.283-.939c.49-.23.974-.593,1.635-.243-.4-1.388-.774-2.7-1.164-4a3.076,3.076,0,0,0-3.5-2.4,3.257,3.257,0,0,0-2.854,4.62c.383.872.383.872,1.272.555.044-.016.086-.04.131-.053a.768.768,0,0,1,.946.409.78.78,0,0,1-.392.993c-.262.15-.73.1-.768.42-.031.261.241.559.378.841a.283.283,0,0,1,.023.041c.093.321.254.412.58.244A6.443,6.443,0,0,1,9.059,27.2a.743.743,0,0,1,.934.425.751.751,0,0,1-.411.978c-.212.1-.434.182-.653.267-.634.245-.639.247-.32.867.114.221.154.481.538.476,1.839-.025,3.677-.011,5.624-.011m5.191,0c.6,0,1.194.01,1.791,0,.547-.011,1.195.2,1.612-.079a4.116,4.116,0,0,0,.942-1.383,4.153,4.153,0,0,0-.439-4.909,1.468,1.468,0,0,0-2.414.044,2.036,2.036,0,0,1-.79.653,1.786,1.786,0,0,1-2.17-.646,1.445,1.445,0,0,0-2.217-.261,4.119,4.119,0,0,0-1.227,3.381,6.68,6.68,0,0,0,1.266,2.852.628.628,0,0,0,.63.361c1-.023,2.011-.009,3.016-.009M1.512,17.766a2.284,2.284,0,0,0,3.2,2.2c.108-.054.265-.083.28-.223s-.148-.186-.251-.244a4.21,4.21,0,0,0-1.6-.536c-.593-.071-.865-.38-.805-.885.054-.452.356-.664.934-.619a5.476,5.476,0,0,1,2.5.892c.142.089.281.237.464.091s.033-.323-.021-.467c-.27-.72-.562-1.432-.835-2.152-.211-.555-.062-.945.41-1.124.422-.161.79.049,1.006.588.28.7.549,1.4.831,2.1.06.148.05.378.28.381.251,0,.263-.209.313-.4a5.86,5.86,0,0,1,1.117-2.213c.412-.505.876-.613,1.248-.292s.353.738-.057,1.239a4.034,4.034,0,0,0-.76,1.4c-.04.13-.142.28-.012.391.105.089.239-.01.355-.047a2.235,2.235,0,0,0,1.519-2.423A2.192,2.192,0,0,0,9.31,13.48a1.7,1.7,0,0,1-1.343-.37A2.785,2.785,0,0,0,4.93,12.6a2.9,2.9,0,0,0-1.887,2.5,1.2,1.2,0,0,1-.563.961,2.158,2.158,0,0,0-.967,1.7m23.54,5.079c.539-1.332,1.06-2.606,1.571-3.884a6.791,6.791,0,0,0,.642-1.956,6.954,6.954,0,0,1,.447-1.916c.939-2.462,1.877-4.924,2.843-7.375.16-.405.029-.511-.319-.62-.424-.133-.474.179-.577.428q-1.776,4.332-3.545,8.666c-.6,1.466-1.2,2.934-1.815,4.392a2.313,2.313,0,0,0-.114,1.385c.083.4.593.512.866.879m.616-9.281a6.786,6.786,0,0,0,.765-2.388C26.4,8.3,26.42,5.425,26.42,2.55c0-1.045,0-1.025-1.025-1.047-.4-.009-.494.12-.492.5.015,2.938.045,5.877-.012,8.815a6.572,6.572,0,0,0,.776,2.742M25.183,30.2c1.076,0,2.066-.009,3.055,0,.363.005.319-.14.169-.349-.283-.4-.556-.8-.867-1.174a1.633,1.633,0,0,1-.374-1.125,11.087,11.087,0,0,0-.051-2.3,4.648,4.648,0,0,1,.105-2.506.65.65,0,0,0-.192-.755c-.291.716-.556,1.4-.851,2.076a1.036,1.036,0,0,0-.037.807,5.456,5.456,0,0,1,.067,3.246A7.776,7.776,0,0,1,25.183,30.2M24.1,17.289c.733-1.082.792-1.305.414-2.308-.962-2.551-1.952-5.092-2.921-7.641-.161-.425-.424-.238-.687-.171-.311.08-.23.263-.149.47.646,1.665,1.3,3.328,1.924,5A16.728,16.728,0,0,1,24.1,17.289m4.823,10.652A6.241,6.241,0,0,1,30.1,30.026a.2.2,0,0,0,.23.173c.613,0,1.226,0,1.839,0,.084,0,.218.03.2-.117a3.5,3.5,0,0,0-.441-1.281c-.141-.243-.4-.066-.6-.112a3.681,3.681,0,0,0-.42-.045,5.879,5.879,0,0,1-1.978-.7M17.6,18.146a2.354,2.354,0,0,0,2.716,1.416A2.45,2.45,0,0,0,17.6,18.146M34.3,30.19c.382.084.469-.109.414-.442a5.73,5.73,0,0,0-.444-1.571c-.082-.172-.179-.33-.377-.155-.165.147-.614.083-.419.516a4.916,4.916,0,0,1,.371,1.3c.047.314.168.407.455.349m3.6.006c.143-.031.366.091.407-.175a10.266,10.266,0,0,1,.414-1.482c.126-.4-.3-.347-.475-.492-.2-.167-.252.049-.319.178a5.347,5.347,0,0,0-.428,1.521c-.067.355.019.514.4.45M36.107,28.8c.117-.334.229-.672.355-1a.443.443,0,0,0-.415-.622.354.354,0,0,0-.361.5c.143.373.279.748.421,1.131m-13.5-8.087A2.527,2.527,0,0,0,21.362,22l.532-.188c.243-.087.613.022.722-.192a1.981,1.981,0,0,0,.027-.831c0-.025-.023-.049-.036-.073" transform="translate(0 0)" fill="#010101"/>
        <path id="Trazado_131429" data-name="Trazado 131429" d="M157.708,67.881a4.741,4.741,0,0,1,3.764,2.2,1.394,1.394,0,0,0,1,.681,2.016,2.016,0,0,1,1.666,2.468.915.915,0,0,0,.3.846,2.01,2.01,0,0,1,.266,2.8,1.022,1.022,0,0,0-.027,1.1,3.008,3.008,0,0,1-2.86,4.244,2.878,2.878,0,0,1-1.585-.533,1.636,1.636,0,0,0-.687-.29,3.637,3.637,0,0,1-1.594-.662.827.827,0,0,0-1.081-.007,3.71,3.71,0,0,1-1.639.675,1.643,1.643,0,0,0-.643.276,3,3,0,0,1-4.437-3.733,1.051,1.051,0,0,0-.089-1.139,2,2,0,0,1,.269-2.7.96.96,0,0,0,.333-.921,2,2,0,0,1,1.617-2.415,1.571,1.571,0,0,0,1.1-.766,4.984,4.984,0,0,1,4.333-2.128m2.6,3.756c-.012-.047-.026-.108-.041-.168a3.018,3.018,0,0,0-5.731-.016.709.709,0,0,0,.427.887.658.658,0,0,0,.93-.3,1.653,1.653,0,0,1,1.474-1.132,1.6,1.6,0,0,1,1.525,1.12.674.674,0,0,0,.842.352.794.794,0,0,0,.573-.746m-8.948,3.774a2.281,2.281,0,0,0,2.118,2.282.774.774,0,0,0,.9-.69.756.756,0,0,0-.724-.819c-.488-.085-.766-.35-.777-.737s.275-.68.79-.771a.757.757,0,0,0,.71-.832.767.767,0,0,0-.865-.677,2.263,2.263,0,0,0-2.151,2.246" transform="translate(-121.355 -55.044)" fill="#489f45"/>
        <path id="Trazado_131430" data-name="Trazado 131430" d="M29.015,218.539q-10.281,0-20.561.01c-.427,0-.558-.1-.534-.534.039-.705.029-1.415,0-2.121-.012-.324.1-.4.4-.38.328.023.66.005.99.005q20.16,0,40.321-.012c.472,0,.617.1.583.582a15.259,15.259,0,0,0,0,1.979c.024.41-.116.478-.495.478q-10.351-.018-20.7-.009m18.169-2.264c-.251,0-.5-.01-.754,0a.74.74,0,0,0-.756.738.732.732,0,0,0,.729.764c.518.019,1.037.019,1.554,0a.734.734,0,0,0,.733-.76.742.742,0,0,0-.753-.742c-.251-.013-.5,0-.754,0m-36.214,0c-.267,0-.535-.013-.8,0a.738.738,0,0,0-.729.764.728.728,0,0,0,.709.735c.533.021,1.068.022,1.6,0a.728.728,0,0,0,.706-.738.741.741,0,0,0-.733-.761c-.25-.015-.5,0-.754,0m18.105,1.506c.267,0,.535.017.8,0a.738.738,0,0,0,.7-.748.726.726,0,0,0-.694-.748c-.533-.024-1.068-.021-1.6,0a.726.726,0,0,0-.72.723.738.738,0,0,0,.717.776c.266.018.534,0,.8,0" transform="translate(-6.42 -174.753)" fill="#f0b658"/>
        <path id="Trazado_131431" data-name="Trazado 131431" d="M29.082,191.572q10.308,0,20.616-.011c.427,0,.526.113.506.518-.035.722-.02,1.447,0,2.17.006.261-.06.386-.337.344a1.607,1.607,0,0,0-.236,0q-20.569,0-41.138.013c-.486,0-.607-.125-.578-.591.042-.674.028-1.353,0-2.028-.012-.324.069-.426.409-.422,1.462.02,2.925.009,4.387.009h16.37m-18.147,2.262v0a6.675,6.675,0,0,0,.846-.007.748.748,0,0,0-.01-1.489c-.548-.027-1.1-.026-1.646,0a.725.725,0,0,0-.691.751.739.739,0,0,0,.7.744c.265.021.533,0,.8,0m18.125-1.507c-.251,0-.5-.011-.753,0a.746.746,0,0,0-.757.738.735.735,0,0,0,.729.763c.517.02,1.036.02,1.552,0a.736.736,0,0,0,.734-.759.747.747,0,0,0-.753-.742c-.25-.013-.5,0-.753,0m18.1,1.506c.282,0,.567.021.846,0a.729.729,0,0,0,.672-.769.694.694,0,0,0-.67-.719,14.748,14.748,0,0,0-1.646,0,.727.727,0,0,0-.7.745.739.739,0,0,0,.7.749c.265.022.533,0,.8,0" transform="translate(-6.412 -155.335)" fill="#de9e47"/>
        <path id="Trazado_131432" data-name="Trazado 131432" d="M29.07,170.633q-10.28,0-20.561.013c-.51,0-.621-.148-.593-.619.04-.689.021-1.383,0-2.074-.006-.262.064-.381.337-.341a1.6,1.6,0,0,0,.235,0q20.562,0,41.122-.013c.51,0,.623.148.593.619a16.55,16.55,0,0,0,0,1.932c.021.388-.082.492-.482.491-5-.016-10-.01-15-.01Zm-18.134-.758a6.878,6.878,0,0,0,.847-.007.749.749,0,0,0-.006-1.49c-.548-.027-1.1-.025-1.648,0a.722.722,0,0,0-.692.749.736.736,0,0,0,.7.746c.265.02.534,0,.8,0M29.1,168.369c-.267,0-.534-.011-.8,0a.751.751,0,0,0-.009,1.5c.518.018,1.037.019,1.554,0a.75.75,0,0,0,.008-1.5c-.25-.017-.5,0-.754,0m18.094,1.507c.267,0,.535.018.8,0a.737.737,0,0,0,.691-.754.726.726,0,0,0-.7-.742c-.533-.022-1.068-.021-1.6,0a.726.726,0,0,0-.713.729.738.738,0,0,0,.724.769c.266.017.534,0,.8,0" transform="translate(-6.415 -135.906)" fill="#f0b658"/>
        <path id="Trazado_131433" data-name="Trazado 131433" d="M38.514,113.9c-1.946,0-3.785-.014-5.624.011-.384.005-.425-.255-.538-.476-.32-.62-.314-.622.32-.867.219-.085.442-.165.653-.267a.751.751,0,0,0,.411-.978.742.742,0,0,0-.934-.425,6.455,6.455,0,0,0-1.051.411c-.326.168-.487.077-.58-.244a.293.293,0,0,0-.023-.041c-.138-.282-.41-.58-.378-.841.038-.315.505-.27.768-.42a.779.779,0,0,0,.392-.992.767.767,0,0,0-.946-.409c-.045.012-.087.037-.131.053-.889.317-.889.317-1.272-.555a3.257,3.257,0,0,1,2.854-4.62,3.076,3.076,0,0,1,3.5,2.4c.39,1.3.761,2.613,1.164,4-.662-.349-1.146.014-1.636.243a.686.686,0,0,0-.283.939.724.724,0,0,0,.905.4c.211-.056.407-.166.616-.232a2.651,2.651,0,0,0,.572-.347,6.4,6.4,0,0,0,1.246,3.252m-5.22-5.97a.752.752,0,0,0,.968.758,12.525,12.525,0,0,0,1.527-.6.724.724,0,0,0,.368-.953.732.732,0,0,0-.928-.42c-.5.171-1,.372-1.486.575a.743.743,0,0,0-.449.637" transform="translate(-23.743 -83.706)" fill="#ec9441"/>
        <path id="Trazado_131434" data-name="Trazado 131434" d="M84.421,129.7c-1.005,0-2.011-.014-3.016.008a.627.627,0,0,1-.63-.361,6.679,6.679,0,0,1-1.266-2.852,4.119,4.119,0,0,1,1.227-3.381,1.445,1.445,0,0,1,2.217.261,1.786,1.786,0,0,0,2.17.646,2.036,2.036,0,0,0,.79-.652,1.468,1.468,0,0,1,2.414-.044,4.977,4.977,0,0,1-.5,6.292c-.417.281-1.065.068-1.612.079-.6.012-1.194,0-1.791,0m-3.357-3.279a2.216,2.216,0,0,0,.658,1.533.7.7,0,0,0,1.014.043.66.66,0,0,0,.13-.964,1.007,1.007,0,0,1-.039-1.328,1.155,1.155,0,0,0,.139-.346.7.7,0,0,0-.4-.856.65.65,0,0,0-.88.2,3.008,3.008,0,0,0-.623,1.717" transform="translate(-64.46 -99.498)" fill="#d44144"/>
        <path id="Trazado_131435" data-name="Trazado 131435" d="M8,70.786a2.157,2.157,0,0,1,.967-1.7,1.2,1.2,0,0,0,.563-.961,2.9,2.9,0,0,1,1.887-2.5,2.784,2.784,0,0,1,3.037.506,1.7,1.7,0,0,0,1.343.37,2.192,2.192,0,0,1,2.329,1.945A2.235,2.235,0,0,1,16.6,70.867c-.116.037-.25.137-.355.047-.13-.111-.028-.26.011-.39a4.034,4.034,0,0,1,.76-1.4c.41-.5.426-.922.057-1.239s-.836-.213-1.248.292a5.853,5.853,0,0,0-1.117,2.213c-.05.187-.062.4-.313.4-.231,0-.221-.233-.28-.381-.282-.7-.551-1.4-.831-2.1-.216-.539-.584-.748-1.006-.588-.472.179-.621.569-.41,1.124.273.719.564,1.431.835,2.152.054.144.218.31.021.467s-.321,0-.463-.091a5.476,5.476,0,0,0-2.5-.892c-.578-.045-.88.167-.933.619-.06.5.212.814.8.885a4.214,4.214,0,0,1,1.6.536c.1.058.267.09.251.244s-.171.17-.28.223a2.284,2.284,0,0,1-3.2-2.2" transform="translate(-6.483 -53.019)" fill="#489d45"/>
        <path id="Trazado_131436" data-name="Trazado 131436" d="M128.518,53.13c-.273-.367-.783-.477-.866-.879a2.313,2.313,0,0,1,.114-1.385c.619-1.458,1.214-2.926,1.815-4.392q1.774-4.332,3.545-8.666c.1-.249.153-.561.577-.428.347.109.478.215.319.62-.966,2.451-1.9,4.913-2.843,7.375a6.955,6.955,0,0,0-.447,1.916,6.79,6.79,0,0,1-.642,1.956c-.511,1.278-1.032,2.552-1.571,3.884" transform="translate(-103.466 -30.285)" fill="#357834"/>
        <path id="Trazado_131437" data-name="Trazado 131437" d="M132.4,20.008a6.572,6.572,0,0,1-.776-2.742c.056-2.937.027-5.876.012-8.815,0-.384.091-.513.492-.5,1.025.022,1.025,0,1.025,1.047,0,2.875-.021,5.751.012,8.626a6.789,6.789,0,0,1-.765,2.388" transform="translate(-106.729 -6.444)" fill="#2d672d"/>
        <path id="Trazado_131438" data-name="Trazado 131438" d="M133.165,124.5a7.773,7.773,0,0,0,1.024-2.077,5.458,5.458,0,0,0-.067-3.246,1.034,1.034,0,0,1,.037-.807c.295-.674.56-1.361.851-2.076a.65.65,0,0,1,.192.755,4.647,4.647,0,0,0-.1,2.506,11.1,11.1,0,0,1,.051,2.3,1.632,1.632,0,0,0,.374,1.125c.311.373.583.779.867,1.174.15.209.194.354-.169.349-.99-.014-1.979,0-3.055,0" transform="translate(-107.982 -94.299)" fill="#c7c7c7"/>
        <path id="Trazado_131439" data-name="Trazado 131439" d="M112.782,47.609a16.736,16.736,0,0,0-1.418-4.648c-.623-1.674-1.278-3.336-1.924-5-.08-.207-.162-.389.149-.47.263-.068.525-.254.687.171.968,2.549,1.959,5.09,2.921,7.641.378,1,.319,1.225-.414,2.308" transform="translate(-88.684 -30.319)" fill="#2f6b2e"/>
        <path id="Trazado_131440" data-name="Trazado 131440" d="M93.065,95.894a2.45,2.45,0,0,1,2.716,1.416,2.353,2.353,0,0,1-2.716-1.416" transform="translate(-75.465 -77.749)" fill="#489d45"/>
        <path id="Trazado_131441" data-name="Trazado 131441" d="M177.631,150.017c-.287.058-.408-.035-.455-.349a4.909,4.909,0,0,0-.37-1.3c-.2-.433.254-.37.418-.516.2-.176.294-.017.377.155a5.728,5.728,0,0,1,.444,1.571c.054.333-.032.526-.414.442" transform="translate(-143.33 -119.827)" fill="#357834"/>
        <path id="Trazado_131442" data-name="Trazado 131442" d="M198.6,150.192c-.382.064-.468-.1-.4-.45a5.348,5.348,0,0,1,.428-1.521c.067-.129.116-.345.319-.178.176.145.6.091.475.492a10.24,10.24,0,0,0-.414,1.482c-.041.266-.264.144-.407.175" transform="translate(-160.697 -119.996)" fill="#357834"/>
        <path id="Trazado_131443" data-name="Trazado 131443" d="M114.2,109.533c.013.024.036.049.036.073a1.982,1.982,0,0,1-.028.831c-.109.214-.479.1-.722.192-.173.062-.347.122-.532.188a2.528,2.528,0,0,1,1.246-1.284" transform="translate(-91.596 -88.819)" fill="#edeeee"/>
        <path id="Trazado_131444" data-name="Trazado 131444" d="M156.374,76.667c-.012.042-.036.08-.078.046-.016-.012,0-.069.007-.105a.417.417,0,0,1,.071.059" transform="translate(-126.734 -62.121)" fill="#f7f9fa"/>
        <path id="Trazado_131445" data-name="Trazado 131445" d="M181.1,78.105a.793.793,0,0,1-.573.746.674.674,0,0,1-.842-.353,1.6,1.6,0,0,0-1.525-1.12,1.654,1.654,0,0,0-1.474,1.132.657.657,0,0,1-.93.3.709.709,0,0,1-.427-.887,3.018,3.018,0,0,1,5.731.016c.015.061.029.121.041.168" transform="translate(-142.142 -61.512)" fill="#010301"/>
        <path id="Trazado_131446" data-name="Trazado 131446" d="M158.669,98.065a2.263,2.263,0,0,1,2.151-2.246.767.767,0,0,1,.865.677.757.757,0,0,1-.71.832c-.515.091-.8.37-.79.771s.289.652.777.737a.756.756,0,0,1,.724.819.774.774,0,0,1-.9.69,2.281,2.281,0,0,1-2.118-2.282" transform="translate(-128.663 -77.699)" fill="#010301"/>
        <path id="Trazado_131447" data-name="Trazado 131447" d="M209.084,219.543c.251,0,.5-.011.754,0a.742.742,0,0,1,.753.742.734.734,0,0,1-.733.76c-.518.019-1.037.019-1.554,0a.732.732,0,0,1-.728-.764.74.74,0,0,1,.756-.738c.251-.012.5,0,.754,0" transform="translate(-168.32 -178.022)" fill="#040301"/>
        <path id="Trazado_131448" data-name="Trazado 131448" d="M17.5,219.545c.251,0,.5-.012.754,0a.741.741,0,0,1,.733.761.728.728,0,0,1-.706.738c-.533.022-1.068.022-1.6,0a.728.728,0,0,1-.709-.735.738.738,0,0,1,.729-.764c.266-.016.534,0,.8,0" transform="translate(-12.954 -178.022)" fill="#040301"/>
        <path id="Trazado_131449" data-name="Trazado 131449" d="M113.292,221.03c-.267,0-.535.015-.8,0a.738.738,0,0,1-.717-.776.726.726,0,0,1,.72-.723c.533-.019,1.068-.022,1.6,0a.726.726,0,0,1,.694.748.738.738,0,0,1-.7.748c-.266.02-.534,0-.8,0" transform="translate(-90.636 -178.001)" fill="#040301"/>
        <path id="Trazado_131450" data-name="Trazado 131450" d="M17.478,197.074c-.267,0-.535.017-.8,0a.739.739,0,0,1-.7-.744.725.725,0,0,1,.691-.751c.548-.025,1.1-.026,1.646,0a.748.748,0,0,1,.01,1.489,6.678,6.678,0,0,1-.846.007v0" transform="translate(-12.955 -158.575)" fill="#040301"/>
        <path id="Trazado_131451" data-name="Trazado 131451" d="M113.286,195.592c.251,0,.5-.011.753,0a.747.747,0,0,1,.753.742.736.736,0,0,1-.734.759c-.517.019-1.036.02-1.552,0a.735.735,0,0,1-.729-.763.746.746,0,0,1,.757-.738c.25-.013.5,0,.753,0" transform="translate(-90.638 -158.6)" fill="#040301"/>
        <path id="Trazado_131452" data-name="Trazado 131452" d="M209.072,197.063c-.267,0-.535.018-.8,0a.739.739,0,0,1-.7-.749.727.727,0,0,1,.7-.745,14.708,14.708,0,0,1,1.646,0,.694.694,0,0,1,.67.719.729.729,0,0,1-.672.769c-.28.026-.564.005-.846.005" transform="translate(-168.322 -158.564)" fill="#040301"/>
        <path id="Trazado_131453" data-name="Trazado 131453" d="M17.475,173.124c-.267,0-.535.017-.8,0a.737.737,0,0,1-.7-.746.722.722,0,0,1,.692-.749c.549-.024,1.1-.025,1.648,0a.749.749,0,0,1,.006,1.49,6.993,6.993,0,0,1-.847.007" transform="translate(-12.955 -139.155)" fill="#040301"/>
        <path id="Trazado_131454" data-name="Trazado 131454" d="M113.323,171.644c.251,0,.5-.013.754,0a.75.75,0,0,1-.008,1.5c-.517.02-1.037.019-1.554,0a.751.751,0,0,1,.008-1.5c.266-.014.534,0,.8,0" transform="translate(-90.638 -139.18)" fill="#040301"/>
        <path id="Trazado_131455" data-name="Trazado 131455" d="M209.1,173.13c-.267,0-.535.015-.8,0a.738.738,0,0,1-.724-.769.726.726,0,0,1,.713-.729c.533-.02,1.068-.021,1.6,0a.726.726,0,0,1,.7.742.737.737,0,0,1-.691.754c-.265.022-.533,0-.8,0" transform="translate(-168.32 -139.159)" fill="#040301"/>
        <path id="Trazado_131456" data-name="Trazado 131456" d="M50.5,122.739a.743.743,0,0,1,.449-.637c.491-.2.984-.4,1.486-.575a.732.732,0,0,1,.928.42A.724.724,0,0,1,53,122.9a12.525,12.525,0,0,1-1.527.6.752.752,0,0,1-.968-.758" transform="translate(-40.952 -98.511)" fill="#040301"/>
        <path id="Trazado_131457" data-name="Trazado 131457" d="M87.8,133.738a3.007,3.007,0,0,1,.623-1.717.65.65,0,0,1,.88-.2.7.7,0,0,1,.4.856,1.155,1.155,0,0,1-.139.346,1.008,1.008,0,0,0,.039,1.328.66.66,0,0,1-.13.964.7.7,0,0,1-1.014-.044,2.216,2.216,0,0,1-.658-1.533" transform="translate(-71.199 -106.819)" fill="#040301"/>
      </g>
    </g>
  </g>
</svg>
