<svg xmlns="http://www.w3.org/2000/svg" xmlns:xlink="http://www.w3.org/1999/xlink" width="504.423" height="812.839" viewBox="0 0 504.423 812.839">
  <defs>
    <clipPath id="clip-path">
      <rect id="Rectángulo_36928" data-name="Rectángulo 36928" width="133.676" height="66.625" fill="#826be9"/>
    </clipPath>
    <clipPath id="clip-path-2">
      <rect id="Rectángulo_36928-2" data-name="Rectángulo 36928" width="133.676" height="66.625" fill="#d5cef8"/>
    </clipPath>
    <clipPath id="clip-path-3">
      <rect id="Rectángulo_36928-3" data-name="Rectángulo 36928" width="133.676" height="66.625" fill="#583ae2"/>
    </clipPath>
    <clipPath id="clip-path-4">
      <rect id="Rectángulo_36928-4" data-name="Rectángulo 36928" width="133.676" height="66.625" fill="#ab9df1"/>
    </clipPath>
    <clipPath id="clip-path-5">
      <rect id="Rectángulo_36928-5" data-name="Rectángulo 36928" width="133.676" height="66.625" fill="#f3f1ff"/>
    </clipPath>
    <filter id="Elipse_5466" x="178.212" y="69.92" width="151" height="151" filterUnits="userSpaceOnUse">
      <feOffset dx="6" dy="6" input="SourceAlpha"/>
      <feGaussianBlur stdDeviation="12.5" result="blur"/>
      <feFlood flood-opacity="0.161"/>
      <feComposite operator="in" in2="blur"/>
      <feComposite in="SourceGraphic"/>
    </filter>
    <filter id="Elipse_5467" x="178.212" y="203.92" width="151" height="151" filterUnits="userSpaceOnUse">
      <feOffset dx="6" dy="6" input="SourceAlpha"/>
      <feGaussianBlur stdDeviation="12.5" result="blur-2"/>
      <feFlood flood-opacity="0.161"/>
      <feComposite operator="in" in2="blur-2"/>
      <feComposite in="SourceGraphic"/>
    </filter>
    <filter id="Elipse_5468" x="178.212" y="336.92" width="151" height="151" filterUnits="userSpaceOnUse">
      <feOffset dx="6" dy="6" input="SourceAlpha"/>
      <feGaussianBlur stdDeviation="12.5" result="blur-3"/>
      <feFlood flood-opacity="0.161"/>
      <feComposite operator="in" in2="blur-3"/>
      <feComposite in="SourceGraphic"/>
    </filter>
    <filter id="Elipse_5469" x="178.212" y="469.92" width="151" height="151" filterUnits="userSpaceOnUse">
      <feOffset dx="6" dy="6" input="SourceAlpha"/>
      <feGaussianBlur stdDeviation="12.5" result="blur-4"/>
      <feFlood flood-opacity="0.161"/>
      <feComposite operator="in" in2="blur-4"/>
      <feComposite in="SourceGraphic"/>
    </filter>
    <filter id="Elipse_5470" x="178.212" y="603.92" width="151" height="151" filterUnits="userSpaceOnUse">
      <feOffset dx="6" dy="6" input="SourceAlpha"/>
      <feGaussianBlur stdDeviation="12.5" result="blur-5"/>
      <feFlood flood-opacity="0.161"/>
      <feComposite operator="in" in2="blur-5"/>
      <feComposite in="SourceGraphic"/>
    </filter>
  </defs>
  <g id="Grupo_87396" data-name="Grupo 87396" transform="translate(11549 1579)">
    <g id="Grupo_87546" data-name="Grupo 87546" transform="translate(-4824.5 -1413.304)">
      <path id="Trazado_134801" data-name="Trazado 134801" d="M0,0H504.418V812.839H0Z" transform="translate(-6724.5 -165.696)" fill="#daf1f5"/>
      <path id="hacker-working-in-the-darkness" d="M0,149.872H89.354A95.882,95.882,0,0,1,192,87.4V.427Q185.792,0,179.477,0A182.414,182.414,0,0,0,0,149.858Z" transform="translate(-6574.628 454.129) rotate(90)" fill="#8fd6e0"/>
      <path id="hacker-working-in-the-darkness-2" data-name="hacker-working-in-the-darkness" d="M0,298.2H177.784A190.775,190.775,0,0,1,382.017,173.9V.849Q369.666.011,357.1,0C178.771,0,30.492,128.647,0,298.2Z" transform="translate(-6518.278 216.322) rotate(-90)" fill="#b5e4eb" opacity="0.5"/>
      <g id="Grupo_86699" data-name="Grupo 86699" transform="translate(-2266.078 -559.276) rotate(90)">
        <g id="Grupo_86694" data-name="Grupo 86694" transform="translate(599.485 4210.712)">
          <g id="Grupo_86693" data-name="Grupo 86693" clip-path="url(#clip-path)">
            <path id="Trazado_130844" data-name="Trazado 130844" d="M66.839,66.625A66.84,66.84,0,0,0,133.677,0L0,0A66.841,66.841,0,0,0,66.839,66.625" fill="#826be9"/>
          </g>
        </g>
        <g id="Grupo_86697" data-name="Grupo 86697" transform="translate(866.838 4210.712)">
          <g id="Grupo_86693-2" data-name="Grupo 86693" clip-path="url(#clip-path-2)">
            <path id="Trazado_130844-2" data-name="Trazado 130844" d="M66.839,66.625A66.84,66.84,0,0,0,133.677,0L0,0A66.841,66.841,0,0,0,66.839,66.625" fill="#d5cef8"/>
          </g>
        </g>
        <g id="Grupo_86695" data-name="Grupo 86695" transform="translate(599.485 4210.712) rotate(180)">
          <g id="Grupo_86693-3" data-name="Grupo 86693" clip-path="url(#clip-path-3)">
            <path id="Trazado_130844-3" data-name="Trazado 130844" d="M66.839,66.625A66.84,66.84,0,0,0,133.677,0L0,0A66.841,66.841,0,0,0,66.839,66.625" fill="#583ae2"/>
          </g>
        </g>
        <g id="Grupo_86696" data-name="Grupo 86696" transform="translate(866.838 4210.712) rotate(180)">
          <g id="Grupo_86693-4" data-name="Grupo 86693" clip-path="url(#clip-path-4)">
            <path id="Trazado_130844-4" data-name="Trazado 130844" d="M66.839,66.625A66.84,66.84,0,0,0,133.677,0L0,0A66.841,66.841,0,0,0,66.839,66.625" fill="#ab9df1"/>
          </g>
        </g>
        <g id="Grupo_86698" data-name="Grupo 86698" transform="translate(1134.19 4210.712) rotate(180)">
          <g id="Grupo_86693-5" data-name="Grupo 86693" clip-path="url(#clip-path-5)">
            <path id="Trazado_130844-5" data-name="Trazado 130844" d="M66.839,66.625A66.84,66.84,0,0,0,133.677,0L0,0A66.841,66.841,0,0,0,66.839,66.625" fill="#f3f1ff"/>
          </g>
        </g>
        <g transform="matrix(0, -1, 1, 0, 393.58, 4458.42)" filter="url(#Elipse_5466)">
          <g id="Elipse_5466-2" data-name="Elipse 5466" transform="translate(285.71 101.42) rotate(90)" fill="#fff" stroke="#826be9" stroke-width="4">
            <circle cx="38" cy="38" r="38" stroke="none"/>
            <circle cx="38" cy="38" r="36" fill="none"/>
          </g>
        </g>
        <g transform="matrix(0, -1, 1, 0, 393.58, 4458.42)" filter="url(#Elipse_5467)">
          <g id="Elipse_5467-2" data-name="Elipse 5467" transform="translate(285.71 235.42) rotate(90)" fill="#fff" stroke="#826be9" stroke-width="4">
            <circle cx="38" cy="38" r="38" stroke="none"/>
            <circle cx="38" cy="38" r="36" fill="none"/>
          </g>
        </g>
        <g transform="matrix(0, -1, 1, 0, 393.58, 4458.42)" filter="url(#Elipse_5468)">
          <g id="Elipse_5468-2" data-name="Elipse 5468" transform="translate(285.71 368.42) rotate(90)" fill="#fff" stroke="#826be9" stroke-width="4">
            <circle cx="38" cy="38" r="38" stroke="none"/>
            <circle cx="38" cy="38" r="36" fill="none"/>
          </g>
        </g>
        <g transform="matrix(0, -1, 1, 0, 393.58, 4458.42)" filter="url(#Elipse_5469)">
          <g id="Elipse_5469-2" data-name="Elipse 5469" transform="translate(285.71 501.42) rotate(90)" fill="#fff" stroke="#826be9" stroke-width="4">
            <circle cx="38" cy="38" r="38" stroke="none"/>
            <circle cx="38" cy="38" r="36" fill="none"/>
          </g>
        </g>
        <g transform="matrix(0, -1, 1, 0, 393.58, 4458.42)" filter="url(#Elipse_5470)">
          <g id="Elipse_5470-2" data-name="Elipse 5470" transform="translate(285.71 635.42) rotate(90)" fill="#fff" stroke="#826be9" stroke-width="4">
            <circle cx="38" cy="38" r="38" stroke="none"/>
            <circle cx="38" cy="38" r="36" fill="none"/>
          </g>
        </g>
        <path id="_01" data-name="01" d="M12.645-7.055A8.644,8.644,0,0,1,11.18-1.641,5.113,5.113,0,0,1,6.891.234a5.149,5.149,0,0,1-4.266-1.84A8.391,8.391,0,0,1,1.113-6.879V-10.02A8.53,8.53,0,0,1,2.6-15.445,5.151,5.151,0,0,1,6.867-17.3a5.156,5.156,0,0,1,4.266,1.834A8.365,8.365,0,0,1,12.645-10.2ZM9.258-10.5a6.237,6.237,0,0,0-.58-3.088,1.961,1.961,0,0,0-1.811-.967,1.926,1.926,0,0,0-1.764.92,5.837,5.837,0,0,0-.6,2.877v4.148a6.547,6.547,0,0,0,.568,3.1A1.935,1.935,0,0,0,6.891-2.5a1.9,1.9,0,0,0,1.793-.973,6.39,6.39,0,0,0,.574-2.977ZM23.156,0H19.77V-13.055L15.727-11.8v-2.754l7.066-2.531h.363Z" transform="translate(540.323 4224.712) rotate(-90)" fill="#12263f"/>
        <path id="_02" data-name="02" d="M12.645-7.055A8.644,8.644,0,0,1,11.18-1.641,5.113,5.113,0,0,1,6.891.234a5.149,5.149,0,0,1-4.266-1.84A8.391,8.391,0,0,1,1.113-6.879V-10.02A8.53,8.53,0,0,1,2.6-15.445,5.151,5.151,0,0,1,6.867-17.3a5.156,5.156,0,0,1,4.266,1.834A8.365,8.365,0,0,1,12.645-10.2ZM9.258-10.5a6.237,6.237,0,0,0-.58-3.088,1.961,1.961,0,0,0-1.811-.967,1.926,1.926,0,0,0-1.764.92,5.837,5.837,0,0,0-.6,2.877v4.148a6.547,6.547,0,0,0,.568,3.1A1.935,1.935,0,0,0,6.891-2.5a1.9,1.9,0,0,0,1.793-.973,6.39,6.39,0,0,0,.574-2.977ZM26.625,0H14.93V-2.32L20.449-8.2a13.617,13.617,0,0,0,1.682-2.168,3.483,3.483,0,0,0,.545-1.758,2.606,2.606,0,0,0-.574-1.787,2.073,2.073,0,0,0-1.641-.65,2.236,2.236,0,0,0-1.811.791,3.133,3.133,0,0,0-.662,2.08h-3.4a5.594,5.594,0,0,1,.744-2.848,5.245,5.245,0,0,1,2.1-2.021A6.394,6.394,0,0,1,20.52-17.3a6.054,6.054,0,0,1,4.1,1.266,4.478,4.478,0,0,1,1.459,3.574,5.737,5.737,0,0,1-.656,2.578,14.327,14.327,0,0,1-2.25,3.059L19.289-2.73h7.336Z" transform="translate(675.324 4224.712) rotate(-90)" fill="#12263f"/>
        <path id="_03" data-name="03" d="M12.645-7.055A8.644,8.644,0,0,1,11.18-1.641,5.113,5.113,0,0,1,6.891.234a5.149,5.149,0,0,1-4.266-1.84A8.391,8.391,0,0,1,1.113-6.879V-10.02A8.53,8.53,0,0,1,2.6-15.445,5.151,5.151,0,0,1,6.867-17.3a5.156,5.156,0,0,1,4.266,1.834A8.365,8.365,0,0,1,12.645-10.2ZM9.258-10.5a6.237,6.237,0,0,0-.58-3.088,1.961,1.961,0,0,0-1.811-.967,1.926,1.926,0,0,0-1.764.92,5.837,5.837,0,0,0-.6,2.877v4.148a6.547,6.547,0,0,0,.568,3.1A1.935,1.935,0,0,0,6.891-2.5a1.9,1.9,0,0,0,1.793-.973,6.39,6.39,0,0,0,.574-2.977Zm9.117.469h1.8a2.543,2.543,0,0,0,1.91-.645,2.362,2.362,0,0,0,.621-1.711,2.088,2.088,0,0,0-.615-1.605,2.384,2.384,0,0,0-1.693-.574,2.5,2.5,0,0,0-1.629.533,1.7,1.7,0,0,0-.656,1.389H14.73a4.165,4.165,0,0,1,.721-2.4A4.8,4.8,0,0,1,17.467-16.7a6.727,6.727,0,0,1,2.854-.6A6.38,6.38,0,0,1,24.563-16,4.418,4.418,0,0,1,26.1-12.434a3.59,3.59,0,0,1-.715,2.156,4.644,4.644,0,0,1-1.875,1.512,4.239,4.239,0,0,1,2.15,1.547,4.2,4.2,0,0,1,.709,2.438,4.491,4.491,0,0,1-1.658,3.645A6.667,6.667,0,0,1,20.32.234a6.322,6.322,0,0,1-4.178-1.348A4.4,4.4,0,0,1,14.52-4.676h3.387a1.962,1.962,0,0,0,.721,1.57A2.656,2.656,0,0,0,20.4-2.5a2.668,2.668,0,0,0,1.893-.639,2.2,2.2,0,0,0,.686-1.693q0-2.555-2.812-2.555H18.375Z" transform="translate(808.324 4224.712) rotate(-90)" fill="#12263f"/>
        <path id="_04" data-name="04" d="M12.645-7.055A8.644,8.644,0,0,1,11.18-1.641,5.113,5.113,0,0,1,6.891.234a5.149,5.149,0,0,1-4.266-1.84A8.391,8.391,0,0,1,1.113-6.879V-10.02A8.53,8.53,0,0,1,2.6-15.445,5.151,5.151,0,0,1,6.867-17.3a5.156,5.156,0,0,1,4.266,1.834A8.365,8.365,0,0,1,12.645-10.2ZM9.258-10.5a6.237,6.237,0,0,0-.58-3.088,1.961,1.961,0,0,0-1.811-.967,1.926,1.926,0,0,0-1.764.92,5.837,5.837,0,0,0-.6,2.877v4.148a6.547,6.547,0,0,0,.568,3.1A1.935,1.935,0,0,0,6.891-2.5a1.9,1.9,0,0,0,1.793-.973,6.39,6.39,0,0,0,.574-2.977ZM24.949-6.422h1.934v2.73H24.949V0H21.563V-3.691h-7l-.152-2.133,7.113-11.238h3.422Zm-7.16,0h3.773v-6.023l-.223.387Z" transform="translate(942 4224.712) rotate(-90)" fill="#12263f"/>
        <path id="_05" data-name="05" d="M12.645-7.055A8.644,8.644,0,0,1,11.18-1.641,5.113,5.113,0,0,1,6.891.234a5.149,5.149,0,0,1-4.266-1.84A8.391,8.391,0,0,1,1.113-6.879V-10.02A8.53,8.53,0,0,1,2.6-15.445,5.151,5.151,0,0,1,6.867-17.3a5.156,5.156,0,0,1,4.266,1.834A8.365,8.365,0,0,1,12.645-10.2ZM9.258-10.5a6.237,6.237,0,0,0-.58-3.088,1.961,1.961,0,0,0-1.811-.967,1.926,1.926,0,0,0-1.764.92,5.837,5.837,0,0,0-.6,2.877v4.148a6.547,6.547,0,0,0,.568,3.1A1.935,1.935,0,0,0,6.891-2.5a1.9,1.9,0,0,0,1.793-.973,6.39,6.39,0,0,0,.574-2.977Zm6.176,2.109.984-8.672H25.98v2.824H19.2l-.422,3.668a5.369,5.369,0,0,1,2.566-.645A4.918,4.918,0,0,1,25.16-9.7a6.038,6.038,0,0,1,1.383,4.23,6.186,6.186,0,0,1-.7,2.959,4.921,4.921,0,0,1-2,2.027,6.237,6.237,0,0,1-3.07.721,6.624,6.624,0,0,1-2.871-.627,5.093,5.093,0,0,1-2.092-1.764A4.807,4.807,0,0,1,15-4.746h3.352A2.5,2.5,0,0,0,19.1-3.088a2.359,2.359,0,0,0,1.67.592,2.082,2.082,0,0,0,1.77-.826,3.827,3.827,0,0,0,.621-2.338,3.165,3.165,0,0,0-.715-2.227,2.623,2.623,0,0,0-2.027-.773,2.932,2.932,0,0,0-1.957.633l-.328.3Z" transform="translate(1076 4224.712) rotate(-90)" fill="#12263f"/>
      </g>
      <path id="Trazado_134802" data-name="Trazado 134802" d="M4.719,15h-1.5V3.625h1.5Zm2.164-4.3A4.952,4.952,0,0,1,7.8,7.574,2.915,2.915,0,0,1,10.214,6.39,2.932,2.932,0,0,1,12.57,7.406V3h1.445V15H12.688l-.07-.906A2.943,2.943,0,0,1,10.2,15.156a2.887,2.887,0,0,1-2.4-1.2,5.008,5.008,0,0,1-.926-3.141Zm1.445.164a3.749,3.749,0,0,0,.594,2.25,1.92,1.92,0,0,0,1.641.813A2.108,2.108,0,0,0,12.57,12.7V8.813a2.125,2.125,0,0,0-1.992-1.2,1.929,1.929,0,0,0-1.656.82,4.128,4.128,0,0,0-.594,2.434Zm11.438,4.289a3.693,3.693,0,0,1-2.8-1.129A4.19,4.19,0,0,1,15.888,11v-.266a5.073,5.073,0,0,1,.48-2.246,3.748,3.748,0,0,1,1.344-1.547,3.378,3.378,0,0,1,1.871-.559,3.166,3.166,0,0,1,2.563,1.086,4.7,4.7,0,0,1,.914,3.109v.6H17.336a3,3,0,0,0,.73,2.02,2.3,2.3,0,0,0,1.777.77,2.517,2.517,0,0,0,1.3-.312,3.259,3.259,0,0,0,.93-.828l.883.688a3.55,3.55,0,0,1-3.19,1.637Zm-.18-7.578a1.928,1.928,0,0,0-1.469.637A3.1,3.1,0,0,0,17.383,10h4.234V9.891a2.753,2.753,0,0,0-.594-1.707,1.815,1.815,0,0,0-1.437-.606ZM26.1,6.547l.047,1.063A3.08,3.08,0,0,1,28.68,6.391q2.68,0,2.7,3.023V15H29.938V9.406a1.946,1.946,0,0,0-.418-1.352,1.675,1.675,0,0,0-1.277-.437,2.086,2.086,0,0,0-1.234.375,2.546,2.546,0,0,0-.828.984V15H24.734V6.547ZM35.523,4.5V6.547H37.1V7.664H35.523v5.249a1.173,1.173,0,0,0,.211.763.888.888,0,0,0,.719.254,3.5,3.5,0,0,0,.688-.094V15a4.215,4.215,0,0,1-1.109.155,1.8,1.8,0,0,1-1.461-.586,2.517,2.517,0,0,1-.492-1.664V7.664h-1.54V6.547h1.539V4.5ZM40.359,15H38.914V6.547h1.445ZM38.8,4.3a.863.863,0,0,1,.215-.594.807.807,0,0,1,.637-.242.819.819,0,0,1,.641.242.854.854,0,0,1,.219.594.856.856,0,1,1-1.712,0ZM43.156,15V7.664H41.82V6.547h1.336V5.828a2.937,2.937,0,0,1,.809-2.2,3.136,3.136,0,0,1,2.285-.789,6.881,6.881,0,0,1,2.211.477l-.242,1.219a5.008,5.008,0,0,0-1.859-.391,1.819,1.819,0,0,0-1.34.418,1.723,1.723,0,0,0-.41,1.254V6.55h1.727V7.664H44.609V15Zm6.023,0H47.727V6.547H49.18Zm5.742-1.023a2.082,2.082,0,0,0,1.352-.469,1.649,1.649,0,0,0,.641-1.172h1.367a2.621,2.621,0,0,1-.5,1.383,3.293,3.293,0,0,1-1.23,1.047,3.55,3.55,0,0,1-1.629.391A3.482,3.482,0,0,1,52.176,14a4.59,4.59,0,0,1-1.02-3.152v-.242a5.089,5.089,0,0,1,.453-2.2,3.451,3.451,0,0,1,1.3-1.492,3.7,3.7,0,0,1,2-.531,3.39,3.39,0,0,1,2.363.852,3.043,3.043,0,0,1,1,2.211H56.914A1.992,1.992,0,0,0,56.293,8.1a1.932,1.932,0,0,0-1.379-.527,2.023,2.023,0,0,0-1.707.793,3.724,3.724,0,0,0-.605,2.293v.273a3.65,3.65,0,0,0,.6,2.25,2.033,2.033,0,0,0,1.72.8ZM65.125,15a3.036,3.036,0,0,1-.2-.891,3.225,3.225,0,0,1-2.406,1.047,2.984,2.984,0,0,1-2.051-.707,2.287,2.287,0,0,1-.8-1.793,2.39,2.39,0,0,1,1-2.051,4.733,4.733,0,0,1,2.824-.73H64.9V9.211A1.623,1.623,0,0,0,64.445,8a1.821,1.821,0,0,0-1.336-.449,2.107,2.107,0,0,0-1.3.391,1.151,1.151,0,0,0-.523.945h-1.45a2,2,0,0,1,.449-1.223,3.066,3.066,0,0,1,1.215-.93,4.1,4.1,0,0,1,1.7-.343,3.342,3.342,0,0,1,2.289.73,2.635,2.635,0,0,1,.859,2.012v3.891a4.757,4.757,0,0,0,.3,1.852V15Zm-2.4-1.1a2.54,2.54,0,0,0,1.289-.352,2.127,2.127,0,0,0,.883-.914V10.9H63.766q-2.656,0-2.656,1.555a1.316,1.316,0,0,0,.453,1.063,1.742,1.742,0,0,0,1.164.382ZM72.7,7.844a4.331,4.331,0,0,0-.711-.055A1.9,1.9,0,0,0,70.055,9v6H68.609V6.547h1.406l.023.977a2.251,2.251,0,0,1,2.016-1.133A1.477,1.477,0,0,1,72.7,6.5Zm5.164,2.531a11.99,11.99,0,0,1,.477-3.406,8.989,8.989,0,0,1,1.406-2.863,5.251,5.251,0,0,1,2.016-1.73L82.2,3.594A5.438,5.438,0,0,0,80.414,6.2a12.082,12.082,0,0,0-.641,4.125v.242a12.313,12.313,0,0,0,.633,4.141A5.544,5.544,0,0,0,82.2,17.359l-.437,1.2a5.253,5.253,0,0,1-1.98-1.684,8.838,8.838,0,0,1-1.4-2.785,11.918,11.918,0,0,1-.516-3.3ZM86.016,15H83.672V3.625h2.344Zm2.172,0V3.625h3.5a5.315,5.315,0,0,1,2.684.676A4.712,4.712,0,0,1,96.22,6.223a5.928,5.928,0,0,1,.664,2.832v.523a5.945,5.945,0,0,1-.652,2.82,4.672,4.672,0,0,1-1.84,1.914,5.355,5.355,0,0,1-2.68.688Zm2.344-9.477v7.594h1.133a2.545,2.545,0,0,0,2.1-.9,4.06,4.06,0,0,0,.742-2.57v-.6a4.124,4.124,0,0,0-.719-2.629,2.537,2.537,0,0,0-2.1-.895Zm11.8,5.031a11.377,11.377,0,0,1-.508,3.4,9.225,9.225,0,0,1-1.461,2.883,5.263,5.263,0,0,1-2.039,1.719l-.437-1.2a5.494,5.494,0,0,0,1.75-2.578,11.939,11.939,0,0,0,.664-4.008v-.414a12.209,12.209,0,0,0-.637-4.117A5.727,5.727,0,0,0,97.883,3.57l.438-1.2a5.265,5.265,0,0,1,2,1.672,9.106,9.106,0,0,1,1.461,2.82,11.3,11.3,0,0,1,.543,3.336Z" transform="translate(-6648.415 -34.276)" fill="#12263f"/>
      <path id="Trazado_134803" data-name="Trazado 134803" d="M6.316,15V3.625H9.527a5.169,5.169,0,0,1,2.625.656,4.438,4.438,0,0,1,1.762,1.867,6.078,6.078,0,0,1,.629,2.781v.727a6.1,6.1,0,0,1-.621,2.82,4.369,4.369,0,0,1-1.773,1.859A5.5,5.5,0,0,1,9.465,15Zm1.5-10.148v8.922H9.4a3.434,3.434,0,0,0,2.7-1.079,4.458,4.458,0,0,0,.965-3.073V8.957a4.529,4.529,0,0,0-.91-3.014A3.239,3.239,0,0,0,9.566,4.852Zm12.273,10.3a3.693,3.693,0,0,1-2.8-1.129A4.19,4.19,0,0,1,16.211,11v-.266A5.073,5.073,0,0,1,16.7,8.5a3.748,3.748,0,0,1,1.344-1.547,3.378,3.378,0,0,1,1.871-.559A3.166,3.166,0,0,1,22.478,7.48a4.7,4.7,0,0,1,.914,3.109v.6H17.66a3,3,0,0,0,.73,2.02,2.3,2.3,0,0,0,1.777.77,2.517,2.517,0,0,0,1.3-.312,3.259,3.259,0,0,0,.93-.828l.883.688a3.55,3.55,0,0,1-3.19,1.629Zm-.18-7.578a1.928,1.928,0,0,0-1.469.637A3.1,3.1,0,0,0,17.707,10h4.234V9.891a2.753,2.753,0,0,0-.594-1.707,1.815,1.815,0,0,0-1.437-.606ZM27.02,4.5V6.547H28.6V7.664H27.02v5.249a1.173,1.173,0,0,0,.211.763.888.888,0,0,0,.719.254,3.5,3.5,0,0,0,.688-.094V15a4.215,4.215,0,0,1-1.109.155,1.8,1.8,0,0,1-1.461-.586,2.517,2.517,0,0,1-.492-1.664V7.664H24.035V6.547h1.539V4.5Zm6.773,10.656A3.693,3.693,0,0,1,31,14.027a4.19,4.19,0,0,1-1.078-3.02v-.266A5.073,5.073,0,0,1,30.4,8.5a3.748,3.748,0,0,1,1.344-1.547,3.378,3.378,0,0,1,1.871-.559A3.166,3.166,0,0,1,36.178,7.48a4.7,4.7,0,0,1,.914,3.109v.6H31.363a3,3,0,0,0,.73,2.02,2.3,2.3,0,0,0,1.777.77,2.517,2.517,0,0,0,1.3-.312,3.259,3.259,0,0,0,.93-.828l.883.688a3.55,3.55,0,0,1-3.19,1.629Zm-.18-7.578a1.928,1.928,0,0,0-1.469.637A3.1,3.1,0,0,0,31.41,10h4.234V9.891a2.753,2.753,0,0,0-.594-1.707A1.815,1.815,0,0,0,33.613,7.578Zm8.539,6.4a2.082,2.082,0,0,0,1.352-.469,1.649,1.649,0,0,0,.641-1.172h1.367a2.621,2.621,0,0,1-.5,1.383,3.293,3.293,0,0,1-1.23,1.047,3.55,3.55,0,0,1-1.629.391A3.482,3.482,0,0,1,39.406,14a4.59,4.59,0,0,1-1.02-3.152v-.242a5.089,5.089,0,0,1,.453-2.2,3.451,3.451,0,0,1,1.3-1.492,3.7,3.7,0,0,1,2-.531,3.39,3.39,0,0,1,2.363.852,3.043,3.043,0,0,1,1,2.211H44.145A1.992,1.992,0,0,0,43.524,8.1a1.932,1.932,0,0,0-1.379-.527,2.023,2.023,0,0,0-1.707.793,3.724,3.724,0,0,0-.605,2.293v.273a3.65,3.65,0,0,0,.6,2.25,2.033,2.033,0,0,0,1.719.8ZM49.1,4.5V6.547h1.578V7.664H49.1v5.249a1.173,1.173,0,0,0,.211.763.888.888,0,0,0,.719.254,3.5,3.5,0,0,0,.688-.094V15a4.215,4.215,0,0,1-1.109.155,1.8,1.8,0,0,1-1.461-.586,2.517,2.517,0,0,1-.492-1.664V7.664H46.113V6.547h1.539V4.5ZM57.582,15a3.036,3.036,0,0,1-.2-.891,3.225,3.225,0,0,1-2.406,1.047,2.984,2.984,0,0,1-2.051-.707,2.287,2.287,0,0,1-.8-1.793,2.39,2.39,0,0,1,1-2.051,4.733,4.733,0,0,1,2.824-.73h1.406V9.211A1.623,1.623,0,0,0,56.9,8a1.821,1.821,0,0,0-1.336-.449,2.107,2.107,0,0,0-1.3.391,1.151,1.151,0,0,0-.523.945H52.293a2,2,0,0,1,.449-1.223,3.066,3.066,0,0,1,1.219-.934,4.1,4.1,0,0,1,1.691-.344,3.342,3.342,0,0,1,2.289.73A2.635,2.635,0,0,1,58.8,9.133v3.891a4.757,4.757,0,0,0,.3,1.852V15Zm-2.4-1.1a2.54,2.54,0,0,0,1.289-.352,2.127,2.127,0,0,0,.883-.914V10.9H56.223q-2.656,0-2.656,1.555a1.316,1.316,0,0,0,.453,1.063,1.742,1.742,0,0,0,1.164.382Zm9.969-6.055a4.331,4.331,0,0,0-.711-.055A1.9,1.9,0,0,0,62.512,9v6H61.066V6.547h1.406l.023.977a2.251,2.251,0,0,1,2.016-1.133,1.477,1.477,0,0,1,.641.109Zm5.164,2.531a11.99,11.99,0,0,1,.477-3.406A8.989,8.989,0,0,1,72.2,4.1a5.251,5.251,0,0,1,2.016-1.73l.438,1.219A5.438,5.438,0,0,0,72.871,6.2a12.082,12.082,0,0,0-.641,4.125v.242a12.313,12.313,0,0,0,.633,4.141,5.544,5.544,0,0,0,1.789,2.648l-.437,1.2a5.253,5.253,0,0,1-1.98-1.684,8.838,8.838,0,0,1-1.4-2.785,11.918,11.918,0,0,1-.516-3.3ZM75.98,15V3.625h3.5a5.315,5.315,0,0,1,2.684.676,4.712,4.712,0,0,1,1.848,1.922,5.928,5.928,0,0,1,.664,2.832v.523a5.945,5.945,0,0,1-.652,2.82,4.672,4.672,0,0,1-1.84,1.914A5.355,5.355,0,0,1,79.5,15Zm2.344-9.477v7.594h1.133a2.545,2.545,0,0,0,2.1-.9,4.06,4.06,0,0,0,.742-2.57v-.6a4.124,4.124,0,0,0-.719-2.629,2.537,2.537,0,0,0-2.1-.895Zm14.9,4.531h-4.5v3.063H94V15H86.379V3.625h7.609v1.9H88.723V8.234h4.5Zm5.9.5a11.376,11.376,0,0,1-.508,3.4,9.225,9.225,0,0,1-1.461,2.883,5.263,5.263,0,0,1-2.039,1.719l-.437-1.2a5.494,5.494,0,0,0,1.75-2.578,11.939,11.939,0,0,0,.664-4.008v-.414a12.209,12.209,0,0,0-.637-4.117,5.727,5.727,0,0,0-1.78-2.669l.438-1.2a5.265,5.265,0,0,1,2,1.672,9.106,9.106,0,0,1,1.461,2.82,11.3,11.3,0,0,1,.543,3.336Z" transform="translate(-6648.415 230.224)" fill="#12263f"/>
      <path id="Trazado_134804" data-name="Trazado 134804" d="M6.922,10.547V15h-1.5V3.625h4.2a4.215,4.215,0,0,1,2.926.953A3.231,3.231,0,0,1,13.6,7.1a3.189,3.189,0,0,1-1.035,2.551,4.4,4.4,0,0,1-2.965.9Zm0-1.227h2.7a2.7,2.7,0,0,0,1.844-.567,2.075,2.075,0,0,0,.641-1.64,2.143,2.143,0,0,0-.641-1.628A2.525,2.525,0,0,0,9.7,4.852H6.922ZM19.375,7.844a4.331,4.331,0,0,0-.711-.055A1.9,1.9,0,0,0,16.734,9v6H15.289V6.547H16.7l.023.977a2.251,2.251,0,0,1,2.016-1.133,1.477,1.477,0,0,1,.641.109Zm.789,2.852a4.993,4.993,0,0,1,.488-2.234,3.643,3.643,0,0,1,1.36-1.532A3.7,3.7,0,0,1,24,6.391a3.565,3.565,0,0,1,2.793,1.2,4.6,4.6,0,0,1,1.066,3.18v.1a5.036,5.036,0,0,1-.473,2.215,3.589,3.589,0,0,1-1.352,1.527,3.743,3.743,0,0,1-2.02.547,3.556,3.556,0,0,1-2.785-1.2,4.575,4.575,0,0,1-1.065-3.16Zm1.453.172a3.616,3.616,0,0,0,.652,2.258,2.211,2.211,0,0,0,3.5-.012,3.955,3.955,0,0,0,.648-2.418,3.61,3.61,0,0,0-.66-2.254A2.1,2.1,0,0,0,24,7.578a2.075,2.075,0,0,0-1.727.852,3.925,3.925,0,0,0-.656,2.437ZM31.633,4.5V6.547h1.578V7.664H31.633v5.249a1.173,1.173,0,0,0,.211.763.888.888,0,0,0,.719.254,3.5,3.5,0,0,0,.688-.094V15a4.215,4.215,0,0,1-1.109.155,1.8,1.8,0,0,1-1.461-.586,2.517,2.517,0,0,1-.492-1.664V7.664H28.648V6.547h1.539V4.5Zm6.773,10.656a3.693,3.693,0,0,1-2.8-1.129,4.19,4.19,0,0,1-1.078-3.02v-.266a5.073,5.073,0,0,1,.48-2.246,3.748,3.748,0,0,1,1.344-1.547,3.378,3.378,0,0,1,1.871-.559,3.166,3.166,0,0,1,2.563,1.086,4.7,4.7,0,0,1,.914,3.109v.6H35.977a3,3,0,0,0,.73,2.02,2.3,2.3,0,0,0,1.777.77,2.517,2.517,0,0,0,1.3-.312,3.259,3.259,0,0,0,.93-.828l.883.688A3.55,3.55,0,0,1,38.406,15.156Zm-.18-7.578a1.928,1.928,0,0,0-1.469.637A3.1,3.1,0,0,0,36.023,10h4.234V9.891a2.753,2.753,0,0,0-.594-1.707,1.815,1.815,0,0,0-1.436-.606Zm4.8,3.125a4.968,4.968,0,0,1,.914-3.145,3.151,3.151,0,0,1,4.836-.074l.07-.937h1.32V14.8a3.439,3.439,0,0,1-.973,2.586,3.589,3.589,0,0,1-2.613.945,4.348,4.348,0,0,1-1.789-.391,3.08,3.08,0,0,1-1.336-1.07L44.2,16a2.826,2.826,0,0,0,2.273,1.148,2.214,2.214,0,0,0,1.645-.594,2.269,2.269,0,0,0,.59-1.672v-.727a2.971,2.971,0,0,1-2.367,1,2.887,2.887,0,0,1-2.4-1.2,5.224,5.224,0,0,1-.915-3.258Zm1.453.164a3.79,3.79,0,0,0,.586,2.246,1.9,1.9,0,0,0,1.641.816,2.117,2.117,0,0,0,2.008-1.242V8.828a2.142,2.142,0,0,0-1.992-1.211,1.921,1.921,0,0,0-1.648.82,4.128,4.128,0,0,0-.59,2.43Zm11.375,4.289a3.693,3.693,0,0,1-2.8-1.129,4.19,4.19,0,0,1-1.078-3.02v-.266a5.073,5.073,0,0,1,.48-2.246A3.748,3.748,0,0,1,53.8,6.948a3.378,3.378,0,0,1,1.871-.559,3.166,3.166,0,0,1,2.563,1.086,4.7,4.7,0,0,1,.914,3.109v.6H53.43a3,3,0,0,0,.73,2.02,2.3,2.3,0,0,0,1.777.77,2.517,2.517,0,0,0,1.3-.312,3.259,3.259,0,0,0,.93-.828l.883.688a3.55,3.55,0,0,1-3.191,1.634Zm-.18-7.578a1.928,1.928,0,0,0-1.469.637A3.1,3.1,0,0,0,53.477,10h4.234V9.891a2.753,2.753,0,0,0-.594-1.707,1.815,1.815,0,0,0-1.437-.606Zm9.234.266a4.331,4.331,0,0,0-.711-.055A1.9,1.9,0,0,0,62.273,9v6H60.828V6.547h1.406l.023.977a2.251,2.251,0,0,1,2.016-1.133,1.477,1.477,0,0,1,.641.109Zm5.164,2.531a11.99,11.99,0,0,1,.477-3.406,8.989,8.989,0,0,1,1.406-2.863,5.251,5.251,0,0,1,2.016-1.73l.438,1.219A5.438,5.438,0,0,0,72.633,6.2a12.082,12.082,0,0,0-.641,4.125v.242a12.313,12.313,0,0,0,.633,4.141,5.544,5.544,0,0,0,1.789,2.648l-.437,1.2A5.253,5.253,0,0,1,72,16.871a8.838,8.838,0,0,1-1.4-2.785,11.918,11.918,0,0,1-.516-3.3Zm8.008.617V15H75.742V3.625H80.18a5.134,5.134,0,0,1,2.254.469,3.454,3.454,0,0,1,1.5,1.332,3.714,3.714,0,0,1,.523,1.965,3.266,3.266,0,0,1-1.145,2.637,4.767,4.767,0,0,1-3.168.965Zm0-1.9h2.1a2.059,2.059,0,0,0,1.42-.436,1.591,1.591,0,0,0,.488-1.25A1.876,1.876,0,0,0,81.6,6.054a1.839,1.839,0,0,0-1.359-.531H78.086Zm12.188,1.742H88.406V15H86.063V3.625H90.29a4.778,4.778,0,0,1,3.109.9,3.1,3.1,0,0,1,1.094,2.539A3.5,3.5,0,0,1,93.988,9a3.437,3.437,0,0,1-1.527,1.238l2.461,4.648V15H92.406ZM88.4,8.934h1.9a1.936,1.936,0,0,0,1.367-.449,1.606,1.606,0,0,0,.484-1.238,1.719,1.719,0,0,0-.457-1.266,1.9,1.9,0,0,0-1.4-.461H88.406Zm11.609,1.617a11.377,11.377,0,0,1-.508,3.4,9.225,9.225,0,0,1-1.461,2.883A5.263,5.263,0,0,1,96,18.553l-.437-1.2a5.494,5.494,0,0,0,1.75-2.578,11.939,11.939,0,0,0,.664-4.008v-.414a12.209,12.209,0,0,0-.637-4.117A5.727,5.727,0,0,0,95.57,3.57l.438-1.2a5.265,5.265,0,0,1,2,1.672,9.106,9.106,0,0,1,1.461,2.82,11.3,11.3,0,0,1,.543,3.336Z" transform="translate(-6410.166 98.224)" fill="#12263f"/>
      <path id="Trazado_134805" data-name="Trazado 134805" d="M6.648,10.4H3.977V15H2.469V3.625H6.234A4.457,4.457,0,0,1,9.191,4.5a3.148,3.148,0,0,1,1.035,2.547A3.062,3.062,0,0,1,9.652,8.9a3.428,3.428,0,0,1-1.6,1.18l2.672,4.828V15H9.117ZM3.977,9.172h2.3a2.6,2.6,0,0,0,1.777-.579,1.959,1.959,0,0,0,.66-1.55,2.062,2.062,0,0,0-.629-1.62,2.663,2.663,0,0,0-1.816-.571h-2.3ZM15.61,15.156a3.693,3.693,0,0,1-2.8-1.129,4.19,4.19,0,0,1-1.078-3.02v-.266a5.073,5.073,0,0,1,.48-2.246,3.748,3.748,0,0,1,1.344-1.547,3.378,3.378,0,0,1,1.871-.559A3.166,3.166,0,0,1,17.99,7.475a4.7,4.7,0,0,1,.914,3.109v.6H13.18a3,3,0,0,0,.73,2.02,2.3,2.3,0,0,0,1.777.77,2.517,2.517,0,0,0,1.3-.312,3.259,3.259,0,0,0,.93-.828l.883.688a3.55,3.55,0,0,1-3.191,1.634Zm-.18-7.578a1.928,1.928,0,0,0-1.469.637A3.1,3.1,0,0,0,13.227,10h4.234V9.891a2.753,2.753,0,0,0-.594-1.707A1.815,1.815,0,0,0,15.43,7.578Zm10.07,5.18a1.064,1.064,0,0,0-.441-.91,4.249,4.249,0,0,0-1.539-.559,7.277,7.277,0,0,1-1.742-.562,2.479,2.479,0,0,1-.953-.781,1.869,1.869,0,0,1-.309-1.078A2.193,2.193,0,0,1,21.4,7.11a3.432,3.432,0,0,1,2.246-.719,3.532,3.532,0,0,1,2.332.742,2.357,2.357,0,0,1,.895,1.9H25.414a1.3,1.3,0,0,0-.5-1.023,1.888,1.888,0,0,0-1.27-.43,1.976,1.976,0,0,0-1.234.344,1.082,1.082,0,0,0-.445.9.877.877,0,0,0,.414.789,5.1,5.1,0,0,0,1.5.508,7.8,7.8,0,0,1,1.754.578,2.558,2.558,0,0,1,1,.809,1.988,1.988,0,0,1,.324,1.152,2.163,2.163,0,0,1-.906,1.816,3.8,3.8,0,0,1-2.352.684,4.257,4.257,0,0,1-1.8-.359,2.922,2.922,0,0,1-1.223-1,2.42,2.42,0,0,1-.441-1.395H21.68a1.5,1.5,0,0,0,.582,1.152,2.258,2.258,0,0,0,1.434.426,2.331,2.331,0,0,0,1.3-.339,1.02,1.02,0,0,0,.5-.887Zm10.469-1.891a5.062,5.062,0,0,1-.883,3.109,2.829,2.829,0,0,1-2.391,1.18,3.1,3.1,0,0,1-2.422-.977v4.07H28.828V6.547h1.32l.07.938a2.977,2.977,0,0,1,2.453-1.094,2.882,2.882,0,0,1,2.41,1.148,5.117,5.117,0,0,1,.887,3.2ZM34.523,10.7a3.735,3.735,0,0,0-.609-2.258,1.963,1.963,0,0,0-1.672-.828,2.125,2.125,0,0,0-1.969,1.164V12.82a2.129,2.129,0,0,0,1.984,1.156,1.954,1.954,0,0,0,1.652-.824,4.077,4.077,0,0,0,.614-2.452Zm2.9-.008a4.993,4.993,0,0,1,.488-2.234A3.643,3.643,0,0,1,39.27,6.93a3.7,3.7,0,0,1,1.988-.539,3.565,3.565,0,0,1,2.793,1.2,4.6,4.6,0,0,1,1.066,3.18v.1a5.036,5.036,0,0,1-.473,2.215,3.589,3.589,0,0,1-1.352,1.527,3.743,3.743,0,0,1-2.02.547,3.556,3.556,0,0,1-2.785-1.2,4.575,4.575,0,0,1-1.065-3.16Zm1.453.172a3.616,3.616,0,0,0,.652,2.258,2.211,2.211,0,0,0,3.5-.012,3.955,3.955,0,0,0,.648-2.418,3.61,3.61,0,0,0-.66-2.254,2.1,2.1,0,0,0-1.754-.863,2.075,2.075,0,0,0-1.727.852,3.925,3.925,0,0,0-.66,2.44ZM48.3,6.547l.047,1.063a3.08,3.08,0,0,1,2.531-1.219q2.68,0,2.7,3.023V15H52.133V9.406a1.946,1.946,0,0,0-.418-1.352,1.675,1.675,0,0,0-1.277-.437,2.086,2.086,0,0,0-1.234.375,2.546,2.546,0,0,0-.828.984V15H46.93V6.547ZM55.406,10.7a4.952,4.952,0,0,1,.922-3.129A3.137,3.137,0,0,1,61.094,7.4V3h1.445V15H61.211l-.07-.906a2.943,2.943,0,0,1-2.414,1.063,2.887,2.887,0,0,1-2.4-1.2,5.008,5.008,0,0,1-.926-3.141Zm1.445.164a3.749,3.749,0,0,0,.594,2.25,1.92,1.92,0,0,0,1.641.813A2.108,2.108,0,0,0,61.094,12.7V8.813a2.125,2.125,0,0,0-1.992-1.2,1.929,1.929,0,0,0-1.656.82,4.128,4.128,0,0,0-.594,2.434Zm11.438,4.289a3.693,3.693,0,0,1-2.8-1.129A4.19,4.19,0,0,1,64.411,11v-.266a5.073,5.073,0,0,1,.48-2.246,3.748,3.748,0,0,1,1.344-1.547,3.378,3.378,0,0,1,1.871-.559,3.166,3.166,0,0,1,2.563,1.086,4.7,4.7,0,0,1,.914,3.109v.6H65.859a3,3,0,0,0,.73,2.02,2.3,2.3,0,0,0,1.777.77,2.517,2.517,0,0,0,1.3-.312,3.259,3.259,0,0,0,.93-.828l.883.688a3.55,3.55,0,0,1-3.19,1.637Zm-.18-7.578a1.928,1.928,0,0,0-1.469.637A3.1,3.1,0,0,0,65.906,10H70.14V9.891a2.753,2.753,0,0,0-.594-1.707,1.815,1.815,0,0,0-1.437-.606Zm9.234.266a4.331,4.331,0,0,0-.711-.055A1.9,1.9,0,0,0,74.7,9v6H73.258V6.547h1.406l.023.977A2.251,2.251,0,0,1,76.7,6.391a1.477,1.477,0,0,1,.641.109Zm5.164,2.531a11.99,11.99,0,0,1,.477-3.406A8.989,8.989,0,0,1,84.39,4.1a5.251,5.251,0,0,1,2.016-1.73l.438,1.219A5.438,5.438,0,0,0,85.063,6.2a12.082,12.082,0,0,0-.641,4.125v.242a12.313,12.313,0,0,0,.633,4.141,5.544,5.544,0,0,0,1.789,2.648l-.437,1.2a5.253,5.253,0,0,1-1.98-1.684,8.838,8.838,0,0,1-1.4-2.785,11.918,11.918,0,0,1-.516-3.3Zm9.875.461H90.516V15H88.172V3.625H92.4a4.778,4.778,0,0,1,3.109.9A3.1,3.1,0,0,1,96.6,7.063,3.5,3.5,0,0,1,96.1,9a3.437,3.437,0,0,1-1.527,1.238l2.461,4.648V15H94.516Zm-1.867-1.9h1.891a1.936,1.936,0,0,0,1.367-.449,1.606,1.606,0,0,0,.484-1.238A1.719,1.719,0,0,0,93.8,5.984a1.9,1.9,0,0,0-1.4-.461H90.516Zm13.766,3.078a1.2,1.2,0,0,0-.469-1.02,6.148,6.148,0,0,0-1.687-.75,11.963,11.963,0,0,1-1.93-.777,3.153,3.153,0,0,1-1.937-2.82A2.747,2.747,0,0,1,98.777,5a3.389,3.389,0,0,1,1.492-1.129,5.616,5.616,0,0,1,2.184-.406,5.112,5.112,0,0,1,2.172.441,3.458,3.458,0,0,1,1.48,1.246,3.261,3.261,0,0,1,.527,1.828h-2.344a1.534,1.534,0,0,0-.488-1.21,2.023,2.023,0,0,0-1.383-.434,2.162,2.162,0,0,0-1.336.363,1.146,1.146,0,0,0-.477.957,1.1,1.1,0,0,0,.559.93,6.311,6.311,0,0,0,1.645.7,7.106,7.106,0,0,1,2.914,1.492A2.972,2.972,0,0,1,106.633,12a2.737,2.737,0,0,1-1.117,2.316,4.891,4.891,0,0,1-3.008.84,5.808,5.808,0,0,1-2.391-.48,3.783,3.783,0,0,1-1.645-1.316,3.371,3.371,0,0,1-.566-1.937h2.352q0,1.883,2.25,1.883a2.189,2.189,0,0,0,1.3-.34,1.106,1.106,0,0,0,.473-.95Zm7.68-1.461a11.377,11.377,0,0,1-.508,3.4,9.225,9.225,0,0,1-1.461,2.883,5.263,5.263,0,0,1-2.039,1.719l-.437-1.2a5.494,5.494,0,0,0,1.75-2.578,11.939,11.939,0,0,0,.664-4.008v-.414a12.209,12.209,0,0,0-.637-4.117,5.727,5.727,0,0,0-1.777-2.672l.438-1.2a5.265,5.265,0,0,1,2,1.672,9.106,9.106,0,0,1,1.461,2.82,11.3,11.3,0,0,1,.543,3.336Z" transform="translate(-6410.166 364.724)" fill="#12263f"/>
      <path id="Trazado_134806" data-name="Trazado 134806" d="M5.492,10.4H2.82V15H1.313V3.625H5.078A4.457,4.457,0,0,1,8.035,4.5,3.148,3.148,0,0,1,9.07,7.047,3.062,3.062,0,0,1,8.5,8.9a3.428,3.428,0,0,1-1.6,1.18l2.67,4.826V15H7.961ZM2.82,9.172h2.3A2.6,2.6,0,0,0,6.9,8.593a1.959,1.959,0,0,0,.66-1.55,2.062,2.062,0,0,0-.629-1.62,2.663,2.663,0,0,0-1.816-.571H2.82Zm11.633,5.984a3.693,3.693,0,0,1-2.8-1.129,4.19,4.19,0,0,1-1.078-3.02v-.266a5.073,5.073,0,0,1,.48-2.246A3.748,3.748,0,0,1,12.4,6.949a3.378,3.378,0,0,1,1.871-.559,3.166,3.166,0,0,1,2.563,1.086,4.7,4.7,0,0,1,.914,3.109v.6H12.023a3,3,0,0,0,.73,2.02,2.3,2.3,0,0,0,1.777.77,2.517,2.517,0,0,0,1.3-.312,3.259,3.259,0,0,0,.93-.828l.883.688a3.55,3.55,0,0,1-3.19,1.633Zm-.18-7.578a1.928,1.928,0,0,0-1.469.637A3.1,3.1,0,0,0,12.07,10H16.3V9.891a2.753,2.753,0,0,0-.594-1.707,1.815,1.815,0,0,0-1.433-.606Zm8.539,6.4a2.082,2.082,0,0,0,1.352-.469,1.649,1.649,0,0,0,.641-1.172h1.367a2.621,2.621,0,0,1-.5,1.383,3.293,3.293,0,0,1-1.23,1.047,3.55,3.55,0,0,1-1.629.391A3.482,3.482,0,0,1,20.066,14a4.59,4.59,0,0,1-1.02-3.152v-.242a5.089,5.089,0,0,1,.453-2.2,3.451,3.451,0,0,1,1.3-1.492,3.7,3.7,0,0,1,2-.531,3.39,3.39,0,0,1,2.363.852,3.043,3.043,0,0,1,1,2.211H24.8A1.992,1.992,0,0,0,24.179,8.1a1.932,1.932,0,0,0-1.379-.52,2.023,2.023,0,0,0-1.707.793,3.724,3.724,0,0,0-.6,2.293v.273a3.65,3.65,0,0,0,.6,2.25,2.033,2.033,0,0,0,1.725.79Zm10.2.188a3.07,3.07,0,0,1-2.477.992,2.628,2.628,0,0,1-2.059-.785,3.4,3.4,0,0,1-.715-2.324v-5.5h1.445V12.01q0,1.922,1.563,1.922a2.163,2.163,0,0,0,2.2-1.234V6.547h1.445V15H33.047Zm10.742-3.3a5.062,5.062,0,0,1-.883,3.109,2.829,2.829,0,0,1-2.391,1.18,3.1,3.1,0,0,1-2.422-.977v4.07H36.617V6.547h1.32l.07.938A2.977,2.977,0,0,1,40.46,6.391a2.882,2.882,0,0,1,2.41,1.148,5.117,5.117,0,0,1,.887,3.2ZM42.313,10.7A3.735,3.735,0,0,0,41.7,8.445a1.963,1.963,0,0,0-1.672-.828,2.125,2.125,0,0,0-1.969,1.164V12.82a2.129,2.129,0,0,0,1.984,1.156,1.954,1.954,0,0,0,1.652-.824,4.077,4.077,0,0,0,.618-2.452ZM49.1,15.156a3.693,3.693,0,0,1-2.8-1.129,4.19,4.19,0,0,1-1.078-3.02v-.266a5.073,5.073,0,0,1,.48-2.246,3.748,3.748,0,0,1,1.344-1.547,3.378,3.378,0,0,1,1.871-.559A3.166,3.166,0,0,1,51.48,7.475a4.7,4.7,0,0,1,.914,3.109v.6H46.672a3,3,0,0,0,.73,2.02,2.3,2.3,0,0,0,1.777.77,2.517,2.517,0,0,0,1.3-.312,3.259,3.259,0,0,0,.93-.828l.883.688A3.55,3.55,0,0,1,49.1,15.156Zm-.18-7.578a1.928,1.928,0,0,0-1.469.637A3.1,3.1,0,0,0,46.719,10h4.234V9.891a2.753,2.753,0,0,0-.594-1.707,1.815,1.815,0,0,0-1.437-.606Zm9.234.266a4.331,4.331,0,0,0-.711-.055A1.9,1.9,0,0,0,55.516,9v6H54.07V6.547h1.406l.023.977a2.251,2.251,0,0,1,2.016-1.133,1.477,1.477,0,0,1,.641.109ZM64.391,15a3.036,3.036,0,0,1-.2-.891,3.225,3.225,0,0,1-2.406,1.047,2.984,2.984,0,0,1-2.051-.707,2.287,2.287,0,0,1-.8-1.793,2.39,2.39,0,0,1,1-2.051,4.733,4.733,0,0,1,2.824-.73h1.406V9.211A1.623,1.623,0,0,0,63.711,8a1.821,1.821,0,0,0-1.336-.449,2.107,2.107,0,0,0-1.3.391,1.151,1.151,0,0,0-.523.945H59.1a2,2,0,0,1,.449-1.223,3.066,3.066,0,0,1,1.219-.934,4.1,4.1,0,0,1,1.691-.344,3.342,3.342,0,0,1,2.289.73,2.635,2.635,0,0,1,.859,2.012v3.891a4.757,4.757,0,0,0,.3,1.852V15Zm-2.4-1.1a2.54,2.54,0,0,0,1.289-.352,2.127,2.127,0,0,0,.883-.914V10.9H63.031q-2.656,0-2.656,1.555a1.316,1.316,0,0,0,.453,1.063,1.742,1.742,0,0,0,1.164.382ZM71.96,7.845a4.331,4.331,0,0,0-.711-.055A1.9,1.9,0,0,0,69.32,9v6H67.875V6.547h1.406l.023.977A2.251,2.251,0,0,1,71.32,6.391a1.477,1.477,0,0,1,.641.109Zm5.24,2.538a12.079,12.079,0,0,1,.473-3.391,9.849,9.849,0,0,1,1.41-2.953,6,6,0,0,1,1.945-1.875l.3.953a6.222,6.222,0,0,0-1.871,2.672,11.583,11.583,0,0,0-.8,4.023l-.008.664a11.643,11.643,0,0,0,1.1,5.234,6.252,6.252,0,0,0,1.578,2.078l-.3.883a6.192,6.192,0,0,1-1.984-1.937A10.859,10.859,0,0,1,77.2,10.383Zm9.656.453H84.984V15H82.641V3.625h4.227a4.778,4.778,0,0,1,3.109.9A3.1,3.1,0,0,1,91.07,7.063,3.5,3.5,0,0,1,90.566,9a3.437,3.437,0,0,1-1.527,1.238L91.5,14.891V15H88.984Zm-1.867-1.9H86.88a1.936,1.936,0,0,0,1.367-.449,1.606,1.606,0,0,0,.484-1.238,1.719,1.719,0,0,0-.457-1.266,1.9,1.9,0,0,0-1.4-.461h-1.89Zm16.8,2.273a4.025,4.025,0,0,1-1.355,2.891A4.76,4.76,0,0,1,97.2,15.156a4.28,4.28,0,0,1-3.441-1.473A6.038,6.038,0,0,1,92.505,9.64v-.7a6.819,6.819,0,0,1,.578-2.891,4.332,4.332,0,0,1,1.652-1.918,5.164,5.164,0,0,1,5.668.387,4.326,4.326,0,0,1,1.4,2.966H99.453a2.376,2.376,0,0,0-.613-1.6,2.271,2.271,0,0,0-1.605-.5,1.991,1.991,0,0,0-1.754.84,4.707,4.707,0,0,0-.6,2.605V9.7a5.038,5.038,0,0,0,.559,2.7,1.954,1.954,0,0,0,1.762.852,2.314,2.314,0,0,0,1.621-.5,2.241,2.241,0,0,0,.613-1.535Zm5.078-.656a11.377,11.377,0,0,1-.508,3.4,9.225,9.225,0,0,1-1.461,2.883,5.263,5.263,0,0,1-2.039,1.719l-.437-1.2a5.494,5.494,0,0,0,1.75-2.578,11.939,11.939,0,0,0,.664-4.008v-.414a12.209,12.209,0,0,0-.637-4.117,5.727,5.727,0,0,0-1.777-2.672l.438-1.2a5.265,5.265,0,0,1,2,1.672,9.106,9.106,0,0,1,1.461,2.82,11.3,11.3,0,0,1,.543,3.336Z" transform="translate(-6648.415 498.224)" fill="#12263f"/>
      <path id="Trazado_134807" data-name="Trazado 134807" d="M0,19V0" transform="translate(-6512.816 -23.776) rotate(90)" fill="none" stroke="#816ae8" stroke-width="2" stroke-dasharray="2 2"/>
      <path id="Trazado_134808" data-name="Trazado 134808" d="M0,19V0" transform="translate(-6512.816 240.724) rotate(90)" fill="none" stroke="#816ae8" stroke-width="2" stroke-dasharray="2 2"/>
      <path id="Trazado_134809" data-name="Trazado 134809" d="M0,19V0" transform="translate(-6512.816 509.724) rotate(90)" fill="none" stroke="#816ae8" stroke-width="2" stroke-dasharray="2 2"/>
      <path id="Trazado_134810" data-name="Trazado 134810" d="M0,19V0" transform="translate(-6422.816 107.224) rotate(90)" fill="none" stroke="#816ae8" stroke-width="2" stroke-dasharray="2 2"/>
      <path id="Trazado_134811" data-name="Trazado 134811" d="M0,19V0" transform="translate(-6422.816 373.224) rotate(90)" fill="none" stroke="#816ae8" stroke-width="2" stroke-dasharray="2 2"/>
    </g>
  </g>
</svg>
