<svg xmlns="http://www.w3.org/2000/svg" width="67" height="90.367" viewBox="0 0 67 90.367">
  <g id="Grupo_87545" data-name="Grupo 87545" transform="translate(-218 -1400.725)">
    <g id="Grupo_81330" data-name="Grupo 81330" transform="translate(218 1400.725)">
      <rect id="Rectángulo_34185" data-name="Rectángulo 34185" width="67" height="90.367" rx="5" fill="#fff"/>
    </g>
    <g id="Grupo_86774" data-name="Grupo 86774" transform="translate(226.94 1411.258)">
      <path id="Trazado_131106" data-name="Trazado 131106" d="M137.389,155.922a8.472,8.472,0,0,1,2.154-14.943.519.519,0,0,0,.435-.6c-.017-2.731,0-5.462-.018-8.193a.977.977,0,0,1,.414-.881q3.726-2.936,7.416-5.918a1.346,1.346,0,0,1,.909-.326q11.182.015,22.363.013a1.019,1.019,0,0,0,.868-.357,3.243,3.243,0,0,1,2.217-1.139,19.921,19.921,0,0,1,4.325.04,3.737,3.737,0,0,1,3.138,3.724c.014,6.1,0,12.209.008,18.312a1.937,1.937,0,0,1-.228.875q-1.657,3.309-3.312,6.619a1.637,1.637,0,0,1-.705.829c-.365.168-.39.425-.389.763q.01,7.4,0,14.795a1.583,1.583,0,0,1-1.8,1.806H135.576a1.571,1.571,0,0,1-1.777-1.776q0-5.952,0-11.9a1.574,1.574,0,0,1,1.759-1.745h1.831m35.055-6.588-.083.031c0,3.052-.009,6.1.01,9.157,0,.4-.093.5-.494.495q-10.242-.021-20.484-.01a2.717,2.717,0,0,1-.337,0c-.235-.03-.3.068-.3.3.013.819.017,1.638,0,2.458-.007.284.093.343.354.338.8-.016,1.606,0,2.41-.01.236,0,.337.038.334.309q-.022,2,0,4c0,.3-.116.332-.365.328-.8-.013-1.607,0-2.41-.01-.25,0-.329.065-.324.32.016.755.036,1.511-.006,2.264-.024.435.111.516.524.516q11.833-.021,23.665-.01a1.264,1.264,0,0,1,.192,0c.264.043.315-.081.315-.324q-.009-7.494,0-14.989c0-.171-.017-.3-.2-.386a2.163,2.163,0,0,1-.968-1.094c-.6-1.231-1.225-2.454-1.839-3.679m-12.423-2.715c0,3.47.006,6.94-.009,10.409,0,.358.081.448.443.445q4.964-.024,9.928,0c.36,0,.445-.084.444-.444q-.018-10.361,0-20.722c0-.358-.081-.448-.443-.445q-4.964.024-9.928,0c-.36,0-.446.084-.444.444.015,3.438.009,6.876.009,10.313m-17.768,9.3a6.941,6.941,0,1,0-6.912-6.994,6.958,6.958,0,0,0,6.912,6.994m4.909,0c.747,0,1.371,0,1.995,0a1.517,1.517,0,0,1,1.568,1.226c.057.254.136.322.391.321q3.494-.017,6.99,0c.279,0,.381-.044.381-.359q-.016-10.436,0-20.87c0-.283-.05-.379-.361-.378q-5.808.018-11.617,0c-.351,0-.374.135-.372.416.01,1.59.013,3.181,0,4.771a.575.575,0,0,0,.357.589,7.238,7.238,0,0,1,2.059,1.643.82.82,0,0,0,.7.308c2.426-.012,4.852,0,7.279-.015.337,0,.427.079.42.419q-.032,1.9,0,3.807c.006.342-.087.422-.422.418-1.735-.018-3.471.014-5.206-.023-.5-.011-.646.131-.56.6a1.636,1.636,0,0,1,0,.576c-.063.342.092.386.387.385,1.767-.012,3.535.006,5.3-.015.382,0,.518.06.507.482-.034,1.22-.029,2.442,0,3.663.008.387-.07.507-.486.5-2.41-.024-4.819-.013-7.23-.01-.2,0-.4-.041-.566.166a8.524,8.524,0,0,1-1.5,1.375m23.719-29.305H149.652a.906.906,0,0,1-.144,0c-.241-.037-.293.078-.29.3.011.819.017,1.638,0,2.456-.007.289.1.335.357.335q10.452-.009,20.905,0c.271,0,.346-.074.347-.345a22.5,22.5,0,0,1,.056-2.745M142.232,169.8c2.2,0,4.4-.006,6.6.007.307,0,.412-.069.4-.392-.024-.786-.019-1.573,0-2.36.006-.274-.079-.346-.349-.345q-6.6.011-13.194,0c-.266,0-.358.063-.352.342.019.77.028,1.542,0,2.311-.015.364.09.449.448.445,2.151-.018,4.3-.009,6.452-.009m.024-4.627c2.2,0,4.4,0,6.6.007.289,0,.386-.06.377-.367-.024-.8-.017-1.605,0-2.408,0-.253-.068-.322-.322-.322q-6.623.012-13.246,0c-.3,0-.329.12-.325.367.013.771.023,1.542,0,2.312-.012.339.083.424.421.422,2.167-.017,4.335-.009,6.5-.009m.022-7.712c-2.183,0-4.366.007-6.549-.008-.317,0-.4.085-.4.4.022.786.02,1.573,0,2.359-.007.283.092.34.354.34q6.6-.01,13.194,0c.274,0,.352-.077.346-.349-.017-.77-.029-1.541,0-2.31.017-.375-.107-.443-.454-.44-2.167.017-4.334.008-6.5.008M176.166,129.7c1.187,0,2.375-.008,3.562.006.271,0,.359-.068.351-.346-.02-.673.006-1.348-.01-2.021a2.3,2.3,0,0,0-2.285-2.262q-1.565-.024-3.129,0a2.3,2.3,0,0,0-2.291,2.306c-.011.641.014,1.284-.01,1.925-.011.31.075.406.395.4,1.139-.02,2.279-.008,3.418-.008m-.721,10.079c0-1.684-.007-3.37.007-5.054,0-.3-.06-.416-.389-.406-.785.026-1.572.019-2.358,0-.269-.006-.351.07-.35.345q.014,5.054,0,10.109c0,.324.122.359.391.354.77-.015,1.54-.02,2.31,0,.311.008.4-.076.4-.395-.016-1.652-.008-3.306-.008-4.958m4.628-.056c0-1.668-.008-3.337.007-5,0-.314-.081-.408-.4-.4-.769.022-1.54.016-2.31,0-.267,0-.395.027-.393.354q.02,5.052,0,10.105c0,.273.073.355.347.349.786-.017,1.573-.023,2.358,0,.326.01.394-.1.391-.4-.014-1.668-.006-3.336-.006-5m-14.7-5.4c1.686,0,3.372-.008,5.059.007.31,0,.407-.072.4-.392-.024-.786-.02-1.574,0-2.36.006-.272-.072-.346-.345-.345q-5.059.014-10.118,0c-.269,0-.354.066-.347.342.018.787.022,1.574,0,2.36-.009.315.079.4.394.4,1.655-.017,3.308-.008,4.963-.008m-13.061,0c1.927,0,3.854-.008,5.781.007.311,0,.407-.074.4-.393-.024-.754-.03-1.51,0-2.264.015-.361-.084-.448-.444-.445-2.521.017-5.042,0-7.563.013-.411,0-.941-.18-1.2.086-.195.2-.053.73-.061,1.114a.277.277,0,0,0,0,.048c.036.23-.058.3-.29.3-.546-.016-1.092-.006-1.638-.006-1.173,0-1.16,0-1.166,1.158,0,.319.089.393.4.391,1.927-.014,3.854-.007,5.781-.007m-7.713,2.486q0-1.831,0-3.663c0-.185.059-.38-.266-.372-.851.02-1.7.013-2.554,0-.216,0-.269.07-.269.276q.009,3.59,0,7.18c0,.248.083.292.308.276a7.437,7.437,0,0,1,2.388.219c.325.082.407.04.4-.3-.019-1.2-.007-2.409-.007-3.614m34.977,9.894h-6.715c.482.963.945,1.875,1.394,2.8a.387.387,0,0,0,.4.253c1.042-.01,2.085-.006,3.127,0,.149,0,.277,0,.358-.168.471-.957.949-1.911,1.432-2.877M176.2,132.786h2.745c1.142,0,1.127,0,1.142-1.135,0-.344-.092-.418-.425-.416-2.038.016-4.077.008-6.115.008-1.2,0-1.191,0-1.19,1.183,0,.3.084.371.376.367,1.155-.017,2.312-.007,3.467-.007m-33.249-1.542h4.392c.171,0,.35.048.347-.244-.012-1.147,0-2.294,0-3.534l-4.735,3.777m6.928,21.594h4.364c1.178,0,1.178,0,1.155-1.17a.638.638,0,0,1,0-.1c.026-.2-.049-.281-.266-.28-1.478.008-2.957,0-4.435,0-.127,0-.251-.016-.309.154-.155.45-.327.894-.509,1.388m0-7.712c.183.495.354.939.51,1.389.058.169.184.152.31.153,1.478,0,2.956,0,4.435,0,.218,0,.257-.082.269-.281.077-1.266.083-1.265-1.16-1.265h-4.364Zm2.433,19.3c0-.8,0-.8-.794-.8-.749,0-.749,0-.749.745,0,.8,0,.8.793.8.749,0,.749,0,.749-.745m24.953-13.1h-2.085c.068.14.114.239.162.337.134.272.258.55.407.814.25.445.683.461.929.026.21-.372.383-.764.587-1.177" transform="translate(-133.798 -123.485)" fill="#010100"/>
      <path id="Trazado_131107" data-name="Trazado 131107" d="M179.846,160.622c.615,1.226,1.235,2.448,1.839,3.679a2.166,2.166,0,0,0,.968,1.093c.18.087.2.215.2.386q0,7.494,0,14.988c0,.244-.051.367-.315.324a1.188,1.188,0,0,0-.193,0q-11.833,0-23.665.01c-.413,0-.548-.08-.524-.516.042-.752.022-1.51.006-2.264-.006-.255.074-.324.324-.32.8.015,1.606,0,2.41.01.249,0,.369-.028.365-.328-.017-1.333-.015-2.667,0-4,0-.271-.1-.313-.334-.31-.8.013-1.606,0-2.41.01-.262.006-.361-.054-.354-.338.019-.819.014-1.638,0-2.458,0-.228.06-.326.294-.3a2.729,2.729,0,0,0,.338,0q10.241,0,20.483.01c.4,0,.5-.1.495-.5-.019-3.051-.01-6.1-.01-9.156l.083-.031m-2.4,12.757c-.674,0-1.348.009-2.022,0-.229,0-.3.062-.3.3q.016,2.021,0,4.044c0,.228.061.3.294.3q2.022-.016,4.044,0c.229,0,.3-.061.3-.294q-.016-2.022,0-4.044c0-.229-.061-.3-.3-.3-.674.015-1.348,0-2.022,0m-3.858,2.314c0-.674-.009-1.348.006-2.022,0-.232-.067-.3-.3-.3q-2.022.016-4.044,0c-.232,0-.3.067-.3.3q.015,2.021,0,4.044c0,.231.067.3.3.3q2.021-.015,4.044,0c.231,0,.3-.066.3-.3-.014-.673,0-1.348,0-2.021m-8.532,2.314c.69,0,1.38-.009,2.07,0,.231,0,.3-.064.3-.3q-.015-2.022,0-4.044c0-.23-.065-.3-.3-.3q-2.022.016-4.045,0c-.23,0-.3.065-.3.3q.015,2.021,0,4.043c0,.23.064.3.3.3.658-.014,1.316,0,1.974,0" transform="translate(-141.201 -134.773)" fill="#ead0b6"/>
      <path id="Trazado_131108" data-name="Trazado 131108" d="M171.468,152.023c0-3.438.006-6.876-.009-10.313,0-.361.084-.446.444-.445q4.965.024,9.928,0c.363,0,.444.088.443.446q-.018,10.36,0,20.721c0,.36-.084.446-.444.444q-4.965-.023-9.928,0c-.363,0-.445-.088-.443-.446.015-3.47.009-6.939.009-10.409m5.355,1.591h2.746c1.17,0,1.156,0,1.163-1.161,0-.324-.1-.39-.4-.388-2.055.013-4.111.007-6.166.007-1.188,0-1.178,0-1.162,1.209,0,.279.087.342.351.339,1.156-.013,2.312-.006,3.468-.006m.043,4.627h-2.7c-1.173,0-1.16,0-1.167,1.157,0,.317.086.395.4.393,2.055-.014,4.111-.007,6.166-.007,1.191,0,1.181,0,1.166-1.206,0-.274-.078-.347-.348-.343-1.172.014-2.344.006-3.516.006m-.047-10.8h2.745c1.174,0,1.161,0,1.167-1.156,0-.316-.084-.4-.4-.393-2.055.014-4.111.007-6.166.007-1.191,0-1.181,0-1.167,1.2,0,.273.077.347.347.344,1.156-.015,2.312-.006,3.468-.006m2.378,1.542h-.385c-1.223,0-1.213,0-1.183,1.236.007.265.093.317.331.311.53-.015,1.059,0,1.589,0,1.222,0,1.213,0,1.182-1.236-.007-.265-.093-.32-.331-.31-.4.016-.8,0-1.2,0m-4.668,7.712h.386c1.265,0,1.258,0,1.187-1.278-.012-.21-.064-.274-.274-.269-.546.013-1.091,0-1.637,0-1.265,0-1.258,0-1.187,1.277.012.21.064.276.274.269.417-.015.835,0,1.251,0m4.651-1.542H178.8c-1.221,0-1.221,0-1.158,1.252a.277.277,0,0,1,0,.048c-.026.188.056.247.243.246q1.3-.012,2.6,0c.187,0,.233-.06.248-.245.111-1.3.116-1.3-1.162-1.3Zm.032-10.8h.337c1.222,0,1.213,0,1.182-1.236-.007-.265-.093-.317-.331-.31-.529.015-1.059,0-1.588,0-1.222,0-1.212,0-1.182,1.237.007.265.093.319.331.31.416-.016.834,0,1.252,0m-4.656-1.542h-.386c-1.221,0-1.221,0-1.16,1.249a.279.279,0,0,1,0,.048c-.025.184.048.251.239.248q1.3-.013,2.6,0c.183,0,.236-.053.253-.241.115-1.305.12-1.305-1.16-1.305Zm-.043,7.712h.385c1.268,0,1.264,0,1.2-1.261-.009-.188-.025-.29-.255-.286-.867.013-1.733.007-2.6,0-.148,0-.216.026-.24.2-.171,1.241-.093,1.341,1.124,1.341Z" transform="translate(-145.245 -128.89)" fill="#e5e8eb"/>
      <path id="Trazado_131109" data-name="Trazado 131109" d="M142.926,164.025a6.941,6.941,0,1,1,6.97-6.889,6.955,6.955,0,0,1-6.97,6.889m2.342-4.461c0-.322.007-.642,0-.964a2.326,2.326,0,0,0-1.934-2.257c-.157-.029-.322-.013-.48-.04a.72.72,0,0,1-.647-.622c-.04-.292-.161-.672.053-.876.4-.386,1.394.115,1.465.7.032.265-.13.636.084.768s.559.04.847.045c.144,0,.289,0,.434,0,.113,0,.173-.038.18-.164a2.284,2.284,0,0,0-.839-2.323,1.439,1.439,0,0,1-.705-1.611c.009-.112,0-.225,0-.338s-.021-.192-.152-.189a3.813,3.813,0,0,0-1.322.072c-.212.089-.039.621-.068.952a.846.846,0,0,0,0,.192c.034.243-.045.35-.311.329-.3-.023-.611.011-.915-.01-.254-.018-.331.064-.324.32.017.674,0,1.35.008,2.024a2.322,2.322,0,0,0,1.98,2.265c.142.022.29.008.432.032a.721.721,0,0,1,.647.623c.04.292.161.671-.053.876-.4.385-1.395-.116-1.464-.7-.031-.264.13-.635-.084-.767s-.559-.04-.846-.045c-.145,0-.29,0-.434,0-.113,0-.173.038-.18.164-.052.881,0,1.822.805,2.287.785.452.787,1.041.738,1.744-.006.08,0,.161,0,.241,0,.106.021.192.152.189a3.812,3.812,0,0,0,1.322-.072c.212-.088.039-.621.068-.952a.843.843,0,0,0,0-.192c-.034-.243.046-.348.311-.329.32.024.643-.006.963.01.211.01.282-.06.274-.272-.015-.369,0-.738,0-1.108" transform="translate(-134.471 -131.588)" fill="#f4d57e"/>
      <path id="Trazado_131110" data-name="Trazado 131110" d="M152.547,161.327a8.555,8.555,0,0,0,1.5-1.375c.164-.207.364-.166.565-.166,2.41,0,4.82-.013,7.231.01.416,0,.494-.116.485-.5-.026-1.221-.031-2.442,0-3.663.012-.423-.125-.487-.507-.482-1.767.021-3.535,0-5.3.015-.3,0-.45-.043-.387-.385a1.62,1.62,0,0,0,0-.576c-.086-.471.056-.613.56-.6,1.735.037,3.47,0,5.206.023.335,0,.428-.076.423-.418q-.034-1.9,0-3.807c.006-.34-.084-.421-.42-.419-2.426.016-4.852,0-7.279.015a.82.82,0,0,1-.7-.308,7.238,7.238,0,0,0-2.059-1.643.575.575,0,0,1-.357-.589c.016-1.59.013-3.181,0-4.771,0-.281.022-.417.373-.416q5.808.022,11.616,0c.312,0,.362.095.361.378q-.011,10.436,0,20.87c0,.315-.1.36-.381.359q-3.495-.017-6.989,0c-.256,0-.335-.067-.392-.321a1.516,1.516,0,0,0-1.567-1.226c-.624-.006-1.249,0-2,0m5.146-18.509c-1.413,0-2.827.01-4.24-.008-.315,0-.4.079-.4.395q.028,1.926,0,3.854c0,.316.083.395.4.393q4.24-.019,8.48,0c.314,0,.4-.079.4-.394q-.028-1.927,0-3.854c0-.317-.083-.4-.4-.394-1.413.017-2.827.008-4.24.008" transform="translate(-139.183 -128.89)" fill="#e5e8eb"/>
      <path id="Trazado_131111" data-name="Trazado 131111" d="M177.613,127.981a22.5,22.5,0,0,0-.056,2.745c0,.272-.075.346-.347.346q-10.452-.012-20.9,0c-.258,0-.364-.047-.357-.335.02-.819.014-1.638,0-2.456,0-.222.049-.337.29-.3a1,1,0,0,0,.145,0h21.228Z" transform="translate(-140.53 -124.849)" fill="#ead0b6"/>
      <path id="Trazado_131112" data-name="Trazado 131112" d="M142.9,188.68c-2.151,0-4.3-.009-6.452.009-.358,0-.463-.081-.448-.445.031-.769.022-1.541,0-2.311-.007-.279.086-.343.351-.342q6.6.011,13.2,0c.27,0,.354.072.348.346-.017.787-.022,1.574,0,2.359.01.324-.095.394-.4.393-2.2-.013-4.4-.007-6.6-.007" transform="translate(-134.467 -142.362)" fill="#f6c74f"/>
      <path id="Trazado_131113" data-name="Trazado 131113" d="M142.924,182.032c-2.168,0-4.335-.008-6.5.008-.338,0-.433-.082-.421-.422.027-.769.017-1.54,0-2.311,0-.246.023-.368.326-.367q6.623.015,13.245,0c.254,0,.327.068.322.322-.016.8-.022,1.606,0,2.408.009.307-.088.368-.377.367-2.2-.013-4.4-.007-6.6-.007" transform="translate(-134.467 -140.341)" fill="#f5d67f"/>
      <path id="Trazado_131114" data-name="Trazado 131114" d="M142.948,172.3c2.167,0,4.334.008,6.5-.008.347,0,.471.065.454.44-.033.768-.021,1.54,0,2.31.006.271-.072.349-.346.349q-6.6-.013-13.194,0c-.262,0-.361-.057-.354-.34.019-.787.022-1.574,0-2.36-.009-.313.079-.4.4-.4,2.183.015,4.366.008,6.549.008" transform="translate(-134.468 -138.32)" fill="#f6c74f"/>
      <path id="Trazado_131115" data-name="Trazado 131115" d="M193,130.392c-1.139,0-2.279-.012-3.418.008-.319.006-.406-.09-.394-.4.023-.641,0-1.284.009-1.925a2.3,2.3,0,0,1,2.291-2.305q1.564-.023,3.129,0a2.3,2.3,0,0,1,2.285,2.261c.017.674-.01,1.348.01,2.022.008.278-.08.349-.351.346-1.187-.014-2.375-.006-3.562-.006" transform="translate(-150.634 -124.176)" fill="#aab1bb"/>
      <path id="Trazado_131116" data-name="Trazado 131116" d="M192.281,144.512c0,1.652-.009,3.306.008,4.958,0,.319-.088.4-.4.395-.77-.022-1.54-.017-2.311,0-.269,0-.391-.03-.39-.354q.021-5.054,0-10.109c0-.275.081-.35.349-.345.786.017,1.573.023,2.359,0,.329-.01.391.1.388.406-.013,1.684-.006,3.37-.006,5.054" transform="translate(-150.633 -128.217)" fill="#bbda89"/>
      <path id="Trazado_131117" data-name="Trazado 131117" d="M198.93,144.456c0,1.668-.007,3.336.007,5,0,.3-.065.415-.392.4-.785-.025-1.572-.02-2.358,0-.275.006-.349-.076-.348-.349q.014-5.052,0-10.105c0-.326.126-.358.393-.354.77.014,1.54.021,2.309,0,.317-.01.4.084.4.4-.015,1.668-.007,3.336-.007,5" transform="translate(-152.654 -128.217)" fill="#ee8774"/>
      <path id="Trazado_131118" data-name="Trazado 131118" d="M176.817,137.714c-1.655,0-3.308-.009-4.963.008-.315,0-.4-.081-.394-.4.023-.787.02-1.574,0-2.36-.007-.276.079-.343.347-.342q5.06.014,10.118,0c.273,0,.351.073.345.345-.018.787-.023,1.574,0,2.36.01.32-.088.4-.4.392-1.687-.015-3.372-.007-5.059-.007" transform="translate(-145.245 -126.871)" fill="#e5e8eb"/>
      <path id="Trazado_131119" data-name="Trazado 131119" d="M157.694,137.693c-1.927,0-3.854-.007-5.781.007-.309,0-.4-.072-.4-.391.006-1.158-.007-1.158,1.166-1.158.546,0,1.092-.01,1.637.006.233.007.327-.067.291-.3a.276.276,0,0,1,0-.048c.008-.383-.134-.91.061-1.113.254-.266.785-.085,1.2-.086,2.521-.008,5.042,0,7.563-.013.361,0,.459.084.444.445-.031.753-.026,1.509,0,2.263.01.319-.086.4-.4.393-1.927-.015-3.854-.008-5.781-.008" transform="translate(-139.183 -126.85)" fill="#e5e8eb"/>
      <path id="Trazado_131120" data-name="Trazado 131120" d="M147.96,140.873c0,1.2-.012,2.41.007,3.614.006.344-.076.386-.4.3a7.453,7.453,0,0,0-2.388-.219c-.225.017-.308-.027-.308-.276q.014-3.59,0-7.18c0-.205.052-.278.268-.276.851.011,1.7.018,2.554,0,.326-.008.267.187.267.372v3.662" transform="translate(-137.163 -127.544)" fill="#ead0b6"/>
      <path id="Trazado_131121" data-name="Trazado 131121" d="M196.629,156.85c-.482.967-.961,1.92-1.432,2.877-.081.166-.209.168-.358.168-1.042,0-2.085-.006-3.127,0a.386.386,0,0,1-.4-.253c-.449-.919-.912-1.833-1.394-2.8Z" transform="translate(-150.854 -133.627)" fill="#aab1bb"/>
      <path id="Trazado_131122" data-name="Trazado 131122" d="M193.031,136.171c-1.156,0-2.312-.01-3.467.007-.292,0-.376-.063-.376-.367,0-1.183-.013-1.183,1.19-1.183,2.038,0,4.077.008,6.116-.008.333,0,.429.072.425.416-.015,1.135,0,1.135-1.142,1.135h-2.745" transform="translate(-150.633 -126.87)" fill="#fbe9ae"/>
      <path id="Trazado_131123" data-name="Trazado 131123" d="M146.94,132.982l4.735-3.778c0,1.24-.007,2.387,0,3.535,0,.291-.177.243-.347.244H146.94" transform="translate(-137.792 -125.224)" fill="#bad989"/>
      <path id="Trazado_131124" data-name="Trazado 131124" d="M156.9,164.98c.182-.493.354-.938.51-1.388.058-.17.182-.154.309-.154,1.478,0,2.956,0,4.435,0,.216,0,.292.077.266.28a.631.631,0,0,0,0,.1c.023,1.171.023,1.171-1.155,1.171H156.9" transform="translate(-140.818 -135.627)" fill="#ed8773"/>
      <path id="Trazado_131125" data-name="Trazado 131125" d="M156.9,154.575h4.363c1.243,0,1.238,0,1.161,1.265-.013.2-.051.283-.269.281-1.478-.008-2.956,0-4.435,0-.126,0-.251.016-.31-.153-.157-.449-.327-.894-.51-1.389" transform="translate(-140.818 -132.935)" fill="#ed8773"/>
      <path id="Trazado_131126" data-name="Trazado 131126" d="M159.717,181.963c0,.745,0,.745-.749.745-.794,0-.794,0-.794-.8,0-.745,0-.745.749-.745.793,0,.793,0,.793.8" transform="translate(-141.207 -141.018)" fill="#bbda89"/>
      <path id="Trazado_131127" data-name="Trazado 131127" d="M195.33,163.487c-.2.413-.378.805-.587,1.177-.246.436-.679.42-.929-.026-.148-.265-.272-.542-.406-.814-.048-.1-.095-.2-.162-.337Z" transform="translate(-151.867 -135.644)" fill="#aab1bb"/>
      <path id="Trazado_131128" data-name="Trazado 131128" d="M184.865,178.948c.674,0,1.348.01,2.022,0,.234,0,.3.07.3.3q-.015,2.021,0,4.043c0,.234-.07.3-.3.3q-2.022-.015-4.045,0c-.233,0-.3-.07-.294-.3q.015-2.021,0-4.043c0-.234.07-.3.3-.3.674.014,1.348,0,2.022,0m.77,2.355c0-.812,0-.812-.826-.812-.716,0-.716,0-.716.73,0,.812,0,.812.826.812.716,0,.716,0,.716-.73" transform="translate(-148.614 -140.342)"/>
      <path id="Trazado_131129" data-name="Trazado 131129" d="M178.312,181.262c0,.674-.009,1.348,0,2.022.006.231-.065.3-.3.3q-2.022-.016-4.044,0c-.231,0-.3-.065-.3-.3q.016-2.021,0-4.043c0-.23.065-.3.3-.3q2.022.015,4.044,0c.231,0,.3.064.3.3-.014.673,0,1.348,0,2.021m-1.542.039c0-.809,0-.809-.782-.809-.761,0-.761,0-.761.781,0,.761,0,.761.78.761.762,0,.762,0,.762-.733" transform="translate(-145.92 -140.342)"/>
      <path id="Trazado_131130" data-name="Trazado 131130" d="M167.086,183.576c-.658,0-1.316-.01-1.974,0-.232,0-.3-.067-.3-.3q.015-2.021,0-4.044c0-.231.067-.3.3-.3q2.021.015,4.044,0c.232,0,.3.067.3.3q-.015,2.021,0,4.044c0,.231-.066.3-.3.3-.69-.014-1.38,0-2.07,0m.017-1.542c.8,0,.8,0,.8-.787,0-.755,0-.755-.739-.755-.8,0-.8,0-.8.787,0,.755,0,.755.739.755" transform="translate(-143.226 -140.342)"/>
      <path id="Trazado_131131" data-name="Trazado 131131" d="M177.494,158.33c-1.156,0-2.312-.008-3.468.006-.265,0-.348-.06-.352-.339-.016-1.209-.026-1.209,1.162-1.209,2.055,0,4.11.006,6.166-.007.3,0,.4.065.4.388-.007,1.161.007,1.161-1.163,1.161Z" transform="translate(-145.917 -133.606)"/>
      <path id="Trazado_131132" data-name="Trazado 131132" d="M177.539,165.652c1.172,0,2.344.008,3.516-.006.27,0,.345.07.348.343.015,1.206.025,1.206-1.166,1.206-2.055,0-4.11-.007-6.166.007-.311,0-.4-.075-.4-.393.007-1.157-.006-1.157,1.167-1.157Z" transform="translate(-145.918 -136.3)"/>
      <path id="Trazado_131133" data-name="Trazado 131133" d="M177.491,149.467c-1.156,0-2.312-.008-3.468.006-.271,0-.344-.071-.347-.344-.015-1.2-.025-1.2,1.166-1.2,2.055,0,4.111.007,6.166-.008.313,0,.4.078.4.394-.007,1.156.006,1.156-1.167,1.156h-2.746" transform="translate(-145.917 -130.911)"/>
      <path id="Trazado_131134" data-name="Trazado 131134" d="M181.888,152.358c.4,0,.8.012,1.2,0,.238-.01.324.045.331.31.031,1.236.04,1.236-1.182,1.236-.53,0-1.059-.01-1.588,0-.238.006-.324-.046-.331-.311-.03-1.236-.04-1.236,1.183-1.236h.386" transform="translate(-147.935 -132.26)"/>
      <path id="Trazado_131135" data-name="Trazado 131135" d="M175.193,162.763c-.417,0-.835-.01-1.252,0-.21.008-.262-.059-.274-.269-.072-1.278-.078-1.278,1.187-1.278.546,0,1.091.009,1.636,0,.21-.006.262.059.274.269.071,1.279.077,1.278-1.187,1.278h-.385" transform="translate(-145.908 -134.954)"/>
      <path id="Trazado_131136" data-name="Trazado 131136" d="M181.869,161.223h.385c1.279,0,1.274,0,1.163,1.3-.015.185-.061.246-.249.245q-1.3-.013-2.6,0c-.187,0-.269-.057-.243-.246a.273.273,0,0,0,0-.048c-.063-1.252-.064-1.252,1.158-1.252Z" transform="translate(-147.934 -134.956)"/>
      <path id="Trazado_131137" data-name="Trazado 131137" d="M181.9,145.036c-.417,0-.835-.012-1.252,0-.237.01-.324-.045-.331-.31-.031-1.236-.041-1.236,1.182-1.236.529,0,1.059.01,1.588,0,.237-.006.324.045.331.311.031,1.236.041,1.236-1.182,1.236H181.9" transform="translate(-147.936 -129.565)"/>
      <path id="Trazado_131138" data-name="Trazado 131138" d="M175.224,143.5h.385c1.281,0,1.275,0,1.16,1.3-.017.189-.07.243-.252.242q-1.3-.011-2.6,0c-.191,0-.264-.065-.239-.248a.279.279,0,0,0,0-.048c-.061-1.249-.061-1.249,1.161-1.249Z" transform="translate(-145.913 -129.568)"/>
      <path id="Trazado_131139" data-name="Trazado 131139" d="M175.158,153.9h-.385c-1.217,0-1.3-.1-1.124-1.341.024-.177.093-.2.24-.2.867,0,1.733.009,2.6,0,.23,0,.246.1.255.286.063,1.261.067,1.261-1.2,1.261Z" transform="translate(-145.89 -132.259)"/>
      <path id="Trazado_131140" data-name="Trazado 131140" d="M147.283,160.23c0,.37-.01.739,0,1.108.008.212-.063.282-.274.272-.321-.015-.644.014-.963-.01-.266-.019-.346.086-.311.329a.887.887,0,0,1,0,.192c-.028.331.145.864-.067.952a3.812,3.812,0,0,1-1.322.072c-.132,0-.154-.084-.152-.189,0-.08,0-.161,0-.241a1.544,1.544,0,0,0-.739-1.744c-.807-.464-.857-1.406-.806-2.287.008-.126.068-.166.181-.164.145,0,.289,0,.434,0,.288,0,.635-.086.847.045s.052.5.084.767c.07.581,1.062,1.082,1.464.7.214-.205.093-.585.053-.876a.72.72,0,0,0-.647-.623c-.141-.024-.29-.01-.432-.032a2.322,2.322,0,0,1-1.98-2.265c-.013-.674.008-1.35-.009-2.024-.007-.256.07-.338.324-.32.3.021.612-.013.915.01.266.021.345-.086.31-.329a.887.887,0,0,1,0-.192c.028-.331-.145-.863.068-.952a3.812,3.812,0,0,1,1.322-.072c.132,0,.153.084.152.189s.008.226,0,.338a1.438,1.438,0,0,0,.705,1.611,2.284,2.284,0,0,1,.839,2.323c-.008.126-.068.166-.181.164-.144,0-.289,0-.434,0-.287,0-.635.086-.847-.045s-.052-.5-.084-.768c-.07-.581-1.061-1.082-1.464-.7-.214.2-.093.585-.053.876a.719.719,0,0,0,.647.622c.157.027.322.011.48.04a2.327,2.327,0,0,1,1.934,2.257c.008.322,0,.642,0,.964" transform="translate(-136.486 -132.253)" fill="#010101"/>
      <path id="Trazado_131141" data-name="Trazado 131141" d="M158.366,143.493c1.414,0,2.827.01,4.24-.008.313,0,.4.077.4.394q-.028,1.926,0,3.854c0,.315-.081.4-.395.394q-4.24-.019-8.48,0c-.313,0-.4-.077-.4-.393q.028-1.926,0-3.854c0-.315.081-.4.4-.395,1.413.017,2.827.008,4.24.008m0,3.085h1.923c1.179,0,1.165,0,1.168-1.16,0-.326-.1-.392-.407-.389-1.538.014-3.076.006-4.614.006-1.2,0-1.19,0-1.166,1.208,0,.28.094.345.356.34.913-.014,1.826-.006,2.74-.006" transform="translate(-139.856 -129.564)"/>
      <path id="Trazado_131142" data-name="Trazado 131142" d="M186.31,181.978c0,.73,0,.73-.716.73-.826,0-.826,0-.826-.812,0-.73,0-.73.716-.73.826,0,.826,0,.826.812" transform="translate(-149.29 -141.017)" fill="#bbda89"/>
      <path id="Trazado_131143" data-name="Trazado 131143" d="M177.446,181.977c0,.733,0,.733-.762.733-.78,0-.78,0-.78-.761,0-.781,0-.781.761-.781.782,0,.782,0,.782.81" transform="translate(-146.596 -141.018)" fill="#bbda89"/>
      <path id="Trazado_131144" data-name="Trazado 131144" d="M167.778,182.709c-.739,0-.739,0-.739-.755,0-.787,0-.787.8-.787.739,0,.739,0,.739.755,0,.787,0,.787-.8.787" transform="translate(-143.901 -141.018)" fill="#bbda89"/>
      <path id="Trazado_131145" data-name="Trazado 131145" d="M159.041,147.252c-.913,0-1.826-.008-2.74.006-.262,0-.352-.06-.356-.34-.024-1.208-.033-1.208,1.166-1.208,1.538,0,3.077.008,4.614-.006.3,0,.407.063.406.389,0,1.16.011,1.16-1.168,1.16h-1.923" transform="translate(-140.528 -130.238)" fill="#ee8774"/>
    </g>
  </g>
</svg>
