<svg xmlns="http://www.w3.org/2000/svg" width="67" height="90.367" viewBox="0 0 67 90.367">
  <g id="Grupo_87546" data-name="Grupo 87546" transform="translate(-638 -1400.725)">
    <g id="Grupo_81330" data-name="Grupo 81330" transform="translate(638 1400.725)">
      <rect id="Rectángulo_34185" data-name="Rectángulo 34185" width="67" height="90.367" rx="5" fill="#fff"/>
    </g>
    <g id="Grupo_86766" data-name="Grupo 86766" transform="translate(647.771 1411.258)">
      <path id="Trazado_131282" data-name="Trazado 131282" d="M116.573,14.761l-.75-.581a.8.8,0,0,0-.408-1.046c-.4-.249-.786-.528-1.177-.794q-1.835-1.247-3.668-2.5a.749.749,0,0,1-.364-.948.845.845,0,0,1,.916-.552,2.48,2.48,0,0,1,.561.122q3.289.983,6.577,1.971a2.754,2.754,0,0,0,.516.121.608.608,0,0,0,.695-.489A.614.614,0,0,0,119.1,9.3c-.161-.074-.33-.126-.5-.188a1.365,1.365,0,0,0-.972-.884c-1.437-.446-2.872-.9-4.318-1.312a13.423,13.423,0,0,0-2.13-.576,1.582,1.582,0,0,0-1.659,1.193l0,0-.1.1a2.359,2.359,0,0,0-.587,1.174c-.026.219-.162.25-.322.289L98.9,11.408c.054-.178.212-.237.357-.31q6.059-3.051,12.118-6.1a2.617,2.617,0,0,1,2.2-.066c1.473.579,2.93,1.2,4.393,1.8,2.092.862,4.186,1.719,6.276,2.588a6.342,6.342,0,0,0,2.877.617c.887-.057,1.74-.313,2.619-.405.534-.056,1.1-.376,1.59.124q0,3.483.008,6.965c0,.129.031.272-.109.361a.928.928,0,0,0-.861-.208c-1.173.24-2.359.42-3.524.688a8.371,8.371,0,0,1-7.188-1.436c-.643-.474-1.316-.9-1.979-1.349-.467-.314-.66-.3-1.1.084" transform="translate(-85.737 -1.395)" fill="#f5d1a9"/>
      <path id="Trazado_131283" data-name="Trazado 131283" d="M80.238,49.552q-.005-3.483-.009-6.966c0-.129-.031-.272.109-.36a.935.935,0,0,0,.864.207c1.175-.241,2.363-.421,3.532-.691A8.448,8.448,0,0,1,91.9,43.165c1.382,1,2.813,1.925,4.222,2.884l4.852,3.3a.77.77,0,0,1,.4.938.9.9,0,0,1-.96.57,2.929,2.929,0,0,1-.562-.127q-2.83-.843-5.658-1.692c-.425-.128-.847-.269-1.278-.374a.663.663,0,1,0-.376,1.273c.137.054.277.1.415.152a1.266,1.266,0,0,0,.969.88q2.593.814,5.2,1.586a4.068,4.068,0,0,0,1.553.29,1.526,1.526,0,0,0,1.354-1.178l0,.006.1-.1a2.3,2.3,0,0,0,.589-1.169c.025-.217.158-.252.319-.29.5-.12,1-.244,1.507-.364l8.183-1.963c-.045.194-.229.219-.367.29-2.188,1.123-4.406,2.184-6.583,3.327-1.823.958-3.68,1.85-5.523,2.771a2.724,2.724,0,0,1-2.316.074c-1.454-.581-2.9-1.185-4.348-1.781-2.09-.861-4.182-1.718-6.269-2.588a6.311,6.311,0,0,0-2.92-.612c-.87.064-1.709.311-2.571.4-.534.058-1.1.376-1.589-.124" transform="translate(-80.222 -12.252)" fill="#f5d1a9"/>
      <path id="Trazado_131284" data-name="Trazado 131284" d="M103.283,36.2l-1.03-.824c.328-.469.31-.636-.09-1.132a8.508,8.508,0,0,1-1.842-7.281,8.638,8.638,0,0,1,7.544-7,8.078,8.078,0,0,1,5.673,1.292l.113.075,0,0c-.045.208.118.331.214.466a9.424,9.424,0,0,1-3.616,14.057,10.03,10.03,0,0,1-4.564.913,4.517,4.517,0,0,1-1.313-.627.791.791,0,0,0-1.085.063m7.374-14.6a1.556,1.556,0,0,0-1.091.515c-1.689,1.6-3.385,3.2-5.069,4.8a1.385,1.385,0,0,0,.254,2.344c.684.413,1.372.822,2.077,1.2.295.156.314.3.19.583-.4.92-.791,1.848-1.154,2.787a1.323,1.323,0,0,0,.762,1.79,1.439,1.439,0,0,0,1.612-.424c1.688-1.6,3.385-3.2,5.07-4.8a1.39,1.39,0,0,0-.288-2.368c-.687-.409-1.376-.815-2.078-1.2-.255-.139-.276-.264-.167-.517.4-.937.8-1.878,1.168-2.83a1.348,1.348,0,0,0-1.286-1.881" transform="translate(-86.103 -5.875)" fill="#f7dc57"/>
      <path id="Trazado_131285" data-name="Trazado 131285" d="M112.734,47.225l-8.183,1.963-1.507.364c-.161.038-.294.073-.319.29a2.293,2.293,0,0,1-.588,1.169l-.1.1,0,0a2.8,2.8,0,0,1-2.68.329c-2.117-.681-4.262-1.276-6.395-1.906-.139-.051-.278-.1-.416-.153a.664.664,0,1,1,.376-1.273c.431.1.853.247,1.278.374q2.829.847,5.657,1.693a2.993,2.993,0,0,0,.562.126.9.9,0,0,0,.96-.57.771.771,0,0,0-.4-.938l-4.852-3.3c-1.409-.959-2.84-1.888-4.222-2.884a8.441,8.441,0,0,0-7.167-1.423c-1.168.269-2.357.45-3.533.691a.935.935,0,0,1-.863-.208c-.205-.6-.075-.962.458-1.064,1.8-.347,3.586-.805,5.416-.981a8.572,8.572,0,0,1,5.673,1.394c3.332,2.21,6.623,4.483,9.93,6.73.464.743,1.1.477,1.742.321q4.375-1.07,8.756-2.118a2.257,2.257,0,0,1,1.567,4.206c-1.9.987-3.823,1.942-5.736,2.908-2.456,1.24-4.919,2.463-7.366,3.721a3.725,3.725,0,0,1-3.328.121c-3.587-1.5-7.191-2.953-10.778-4.451a5.423,5.423,0,0,0-3.39-.25c-.693.156-1.4.247-2.1.366s-1-.183-.918-.883a.892.892,0,0,1,.684-.429c.79-.123,1.585-.23,2.362-.412a6.166,6.166,0,0,1,3.865.371c3.607,1.494,7.224,2.963,10.829,4.465a2.339,2.339,0,0,0,2.128-.073c1.007-.532,2.032-1.032,3.049-1.545q4.993-2.52,9.985-5.04a.952.952,0,0,0,.6-1.108.932.932,0,0,0-1.046-.686" transform="translate(-80.231 -11.687)" fill="#040403"/>
      <path id="Trazado_131286" data-name="Trazado 131286" d="M117.565,7.721c.166.062.336.114.5.187a.614.614,0,0,1,.372.765.607.607,0,0,1-.694.489,2.7,2.7,0,0,1-.516-.121q-3.289-.984-6.577-1.97a2.4,2.4,0,0,0-.562-.122.844.844,0,0,0-.915.552.748.748,0,0,0,.364.948q1.83,1.254,3.667,2.5c.392.266.775.544,1.177.793a.8.8,0,0,1,.409,1.046c-.452.4-.653.414-1.137.085q-2.409-1.634-4.813-3.275a.939.939,0,0,1-.282-.214c-.32-.507-.745-.4-1.225-.285q-4.546,1.123-9.1,2.206a2.263,2.263,0,0,1-1.517-4.246q4.63-2.348,9.271-4.673c1.294-.652,2.594-1.3,3.881-1.962a3.51,3.51,0,0,1,3.122-.1c3.55,1.473,7.124,2.891,10.655,4.409a6.576,6.576,0,0,0,4.126.232c.521-.11,1.051-.184,1.576-.273.7-.118,1.008.183.917.88a.877.877,0,0,1-.683.431,14.933,14.933,0,0,0-1.662.3,7.791,7.791,0,0,1-5.314-.55c-3.366-1.461-6.781-2.807-10.171-4.21a2.152,2.152,0,0,0-1.965.08c-.208.113-.42.218-.631.325q-6.207,3.128-12.414,6.255c-.559.281-.79.7-.656,1.161a.93.93,0,0,0,1.1.66L107.486,7.7c.159-.038.3-.069.322-.288a2.35,2.35,0,0,1,.587-1.174l.1-.1,0,0a2.753,2.753,0,0,1,2.638-.341c2.134.68,4.292,1.285,6.44,1.921" transform="translate(-84.699 0)" fill="#040403"/>
      <path id="Trazado_131287" data-name="Trazado 131287" d="M112.969,20.7a8.088,8.088,0,0,0-5.673-1.291,8.638,8.638,0,0,0-7.544,7,8.51,8.51,0,0,0,1.842,7.282c.4.5.418.662.09,1.132-.488.242-.713.215-1.044-.2a9.749,9.749,0,0,1-1.829-9.8,9.568,9.568,0,0,1,7.463-6.593,10.083,10.083,0,1,1-3.155,18.5c-.526-.314-.6-.519-.405-1.094a.792.792,0,0,1,1.085-.063,4.5,4.5,0,0,0,1.313.627,7.722,7.722,0,0,0,4.21.588,8.729,8.729,0,0,0,7.55-10.614,8.289,8.289,0,0,0-3.795-5.41l0,0-.113-.075" transform="translate(-85.535 -5.321)" fill="#040402"/>
      <path id="Trazado_131288" data-name="Trazado 131288" d="M98.423,10.572a.93.93,0,0,1-1.1-.66c-.134-.465.1-.879.656-1.161q6.206-3.129,12.414-6.255c.211-.106.424-.211.631-.325a2.151,2.151,0,0,1,1.964-.08c3.391,1.4,6.806,2.749,10.171,4.21a7.794,7.794,0,0,0,5.315.55,14.9,14.9,0,0,1,1.662-.3.877.877,0,0,0,.683-.431c.082.9.028,1.8.029,2.7-.493-.5-1.056-.18-1.59-.124-.879.092-1.731.349-2.619.405a6.347,6.347,0,0,1-2.876-.616c-2.089-.87-4.184-1.726-6.276-2.588-1.463-.6-2.92-1.221-4.393-1.8a2.617,2.617,0,0,0-2.2.066q-6.062,3.045-12.118,6.1c-.145.073-.3.131-.357.31" transform="translate(-85.261 -0.559)" fill="#f2bd8d"/>
      <path id="Trazado_131289" data-name="Trazado 131289" d="M112.723,50.432a.932.932,0,0,1,1.046.686.952.952,0,0,1-.6,1.108q-4.991,2.523-9.985,5.04c-1.018.513-2.042,1.013-3.049,1.545A2.339,2.339,0,0,1,98,58.883c-3.6-1.5-7.222-2.971-10.829-4.465a6.166,6.166,0,0,0-3.865-.371c-.777.182-1.572.288-2.362.412a.892.892,0,0,0-.684.429c-.076-.9-.027-1.8-.027-2.7.493.5,1.056.182,1.589.125.863-.093,1.7-.34,2.572-.4a6.3,6.3,0,0,1,2.919.612c2.087.87,4.179,1.726,6.27,2.588,1.448.6,2.893,1.2,4.347,1.782a2.728,2.728,0,0,0,2.317-.074c1.842-.92,3.7-1.814,5.523-2.771,2.177-1.143,4.4-2.206,6.583-3.328.138-.07.321-.1.367-.29" transform="translate(-80.221 -14.894)" fill="#f3bd8d"/>
      <path id="Trazado_131290" data-name="Trazado 131290" d="M123.945,18.84c.438-.379.631-.4,1.1-.084.663.445,1.337.876,1.979,1.349a8.371,8.371,0,0,0,7.188,1.436c1.166-.268,2.352-.448,3.524-.688a.928.928,0,0,1,.861.208c.2.6.073.963-.458,1.065-1.8.346-3.584.809-5.414.979a8.9,8.9,0,0,1-5.75-1.433c-.91-.583-1.787-1.216-2.689-1.811a.749.749,0,0,1-.339-1.02" transform="translate(-93.109 -5.475)" fill="#050404"/>
      <path id="Trazado_131291" data-name="Trazado 131291" d="M123.055,9.792c-2.148-.636-4.306-1.241-6.44-1.921a2.753,2.753,0,0,0-2.638.341,1.581,1.581,0,0,1,1.659-1.192,13.5,13.5,0,0,1,2.13.576c1.446.413,2.881.866,4.317,1.312a1.366,1.366,0,0,1,.973.884" transform="translate(-90.19 -2.071)" fill="#f0bb8b"/>
      <path id="Trazado_131292" data-name="Trazado 131292" d="M113.944,8.709l-.1.1.1-.1" transform="translate(-90.152 -2.572)" fill="#f0bb8b"/>
      <path id="Trazado_131293" data-name="Trazado 131293" d="M98.3,53.7c2.133.63,4.278,1.225,6.395,1.906a2.8,2.8,0,0,0,2.68-.329,1.526,1.526,0,0,1-1.353,1.178,4.074,4.074,0,0,1-1.554-.29q-2.606-.775-5.2-1.586A1.263,1.263,0,0,1,98.3,53.7" transform="translate(-85.559 -15.858)" fill="#f0bb8c"/>
      <path id="Trazado_131294" data-name="Trazado 131294" d="M111.167,55.9l.1-.1-.1.1" transform="translate(-89.36 -16.481)" fill="#f0bb8c"/>
      <path id="Trazado_131295" data-name="Trazado 131295" d="M112.26,22.316a1.348,1.348,0,0,1,1.286,1.88c-.367.952-.763,1.893-1.168,2.83-.109.254-.089.378.167.517.7.381,1.391.788,2.077,1.2a1.389,1.389,0,0,1,.288,2.368c-1.684,1.607-3.382,3.2-5.069,4.8a1.438,1.438,0,0,1-1.612.424,1.324,1.324,0,0,1-.762-1.791c.363-.937.751-1.865,1.154-2.787.125-.285.1-.426-.19-.583-.705-.375-1.393-.784-2.078-1.2a1.385,1.385,0,0,1-.253-2.344c1.685-1.607,3.38-3.2,5.069-4.8a1.556,1.556,0,0,1,1.091-.514m-3.32,4.5-.025.013c-.595.556-1.182,1.123-1.789,1.664-.237.211-.179.3.063.435.852.478,1.7.97,2.54,1.464a.8.8,0,0,1,.409,1.185l-.3.741a26.374,26.374,0,0,0-1.048,2.553c-.055.037-.085.1-.045.146.06.063.085-.029.125-.057q2.522-2.374,5.049-4.745c.2-.187.14-.265-.06-.378-.823-.467-1.64-.944-2.459-1.419-.689-.4-.77-.648-.472-1.371q.668-1.617,1.328-3.239c0-.035.006-.068.009-.1l-.075.051c-1.089.921-2.106,1.919-3.116,2.924l-.135.137" transform="translate(-87.706 -6.591)" fill="#040301"/>
      <path id="Trazado_131296" data-name="Trazado 131296" d="M115.97,21.93a8.294,8.294,0,0,1,3.795,5.411,8.73,8.73,0,0,1-7.55,10.615,7.729,7.729,0,0,1-4.21-.589,10.03,10.03,0,0,0,4.564-.913A9.439,9.439,0,0,0,116.184,22.4c-.1-.136-.259-.259-.214-.467" transform="translate(-88.426 -6.477)" fill="#efc443"/>
      <path id="Trazado_131297" data-name="Trazado 131297" d="M119.152,21.83l.113.075-.113-.075" transform="translate(-91.718 -6.447)" fill="#efc443"/>
      <path id="Trazado_131298" data-name="Trazado 131298" d="M113.61,24.41q-.664,1.619-1.328,3.239c-.3.722-.216.97.472,1.371.818.475,1.636.951,2.459,1.419.2.113.259.192.059.378q-2.532,2.366-5.049,4.745l-.08-.089a26.286,26.286,0,0,1,1.049-2.554.484.484,0,0,0,.345-.173c.491-.466.994-.922,1.478-1.4.645-.631.584-1.076-.193-1.52q-.979-.559-1.958-1.114c-.421-.24-.784-.506-.54-1.082.021-.051-.036-.135-.056-.2l.025-.012c.137.044.126-.056.135-.138,1.011-1,2.027-2,3.116-2.924a.28.28,0,0,0,.066.053" transform="translate(-89.058 -7.194)" fill="#eb984d"/>
      <path id="Trazado_131299" data-name="Trazado 131299" d="M109.507,28.72c.02.068.078.152.056.2-.243.576.118.843.54,1.083q.979.557,1.959,1.113c.778.444.839.89.192,1.521-.484.473-.987.928-1.478,1.395a.483.483,0,0,1-.344.173l.3-.741a.8.8,0,0,0-.409-1.185c-.844-.493-1.688-.985-2.541-1.464-.241-.135-.3-.223-.062-.435.608-.542,1.194-1.108,1.79-1.664" transform="translate(-88.296 -8.482)" fill="#efaa69"/>
      <path id="Trazado_131300" data-name="Trazado 131300" d="M110.49,28.507c-.009.081,0,.182-.135.138l.135-.138" transform="translate(-89.12 -8.419)" fill="#efaa69"/>
      <path id="Trazado_131301" data-name="Trazado 131301" d="M110.2,40.22c-.039.028-.065.12-.125.057-.04-.042-.009-.109.046-.146l.079.089" transform="translate(-89.031 -11.852)" fill="#eb984d"/>
      <path id="Trazado_131302" data-name="Trazado 131302" d="M114.969,24.336l.075-.051-.008.1a.321.321,0,0,1-.066-.053" transform="translate(-90.483 -7.172)" fill="#eb984d"/>
    </g>
  </g>
</svg>
