<svg xmlns="http://www.w3.org/2000/svg" xmlns:xlink="http://www.w3.org/1999/xlink" width="96" height="96" viewBox="0 0 96 96">
  <defs>
    <clipPath id="clip-path">
      <rect id="Rectángulo_36737" data-name="Rectángulo 36737" width="96" height="96" fill="#fff" stroke="#707070" stroke-width="1"/>
    </clipPath>
  </defs>
  <g id="Grupo_86088" data-name="Grupo 86088" clip-path="url(#clip-path)">
    <g id="Grupo_86258" data-name="Grupo 86258" transform="translate(-2183.043 -424.368)">
      <path id="Trazado_128674" data-name="Trazado 128674" d="M2231,513.974q-20.359,0-40.718.017c-.7,0-.88-.146-.879-.868q.039-20.6,0-41.2c0-.744.19-.918.919-.911,3.928.038,7.857,0,11.784.033.617,0,.767-.164.763-.767q-.04-5.972,0-11.945c0-.6-.135-.779-.757-.767-2.221.042-4.442,0-6.664.028-.519.007-.723-.113-.67-.66.062-.64-.189-1.487.136-1.877.343-.411,1.219-.138,1.856-.114.58.022.725-.175.722-.735-.008-1.989.013-1.989-1.952-1.989-.7,0-1.408.01-2.113,0a3.979,3.979,0,0,1-4-3.962q-.038-6.785,0-13.57a3.947,3.947,0,0,1,3.954-3.924q10.809-.033,21.618,0a3.948,3.948,0,0,1,3.95,4.016q.071,6.7,0,13.407a3.983,3.983,0,0,1-4.182,4.034c-1.111.009-2.222.018-3.332-.007-.413-.009-.594.092-.555.537.062.695-.277,1.579.133,2.041.389.438,1.28.13,1.948.125.49,0,.642.124.647.635.018,2.035.039,2.035-1.986,2.035-1.842,0-3.684.015-5.526-.011-.467-.007-.588.132-.586.59q.025,6.135,0,12.27c0,.54.2.607.659.606q24.87-.015,49.739,0c.563,0,.657-.189.654-.694q-.028-6.054,0-12.108c0-.532-.138-.679-.671-.672-2.248.03-4.5,0-6.745.025-.525.007-.686-.123-.684-.668,0-1.988-.017-2.021,1.949-1.982.669.014.8-.207.786-.82-.031-1.907-.007-1.907-1.946-1.907-.677,0-1.354.007-2.032,0a3.956,3.956,0,0,1-4.092-3.953q-.088-6.784,0-13.57a3.949,3.949,0,0,1,4.106-3.94q10.648-.017,21.294,0a4,4,0,0,1,4.122,4.093q.024,6.622,0,13.245a4,4,0,0,1-4.087,4.124c-1.138.014-2.276.018-3.413-.005-.411-.008-.549.1-.567.536-.085,2.159-.1,2.184,2.023,2.164.593-.006.742.176.691.727-.057.614.2,1.44-.116,1.8-.37.428-1.217.128-1.855.136-1.815.021-3.63.031-5.445-.007-.554-.011-.673.169-.67.686q.029,6.013,0,12.026c0,.607.151.77.765.765,3.982-.029,7.964,0,11.947-.031.6,0,.752.137.752.748q-.029,20.721,0,41.442c0,.647-.175.782-.8.781Q2251.444,513.961,2231,513.974Zm4.1-14.8c.3.008.6.026.893.02a.394.394,0,0,1,.455.332,13.23,13.23,0,0,0,2.517,3.939l.192.286a10.4,10.4,0,0,1,1.165,2.567,8,8,0,0,1-.481,4.113,15.574,15.574,0,0,0,2.9-.958c2.962-1.351,3.681-3.028,2.534-6.056-1-2.643-2.64-5.01-3.324-7.835a2.833,2.833,0,0,0-1.387,2.446c.007,1.114-.508,1.292-1.4,1.2a.146.146,0,0,0-.154,0,2.351,2.351,0,0,0-.479-.02c-.717.113-.891-.215-.761-.861.116-.574.188-1.157.281-1.736a1.314,1.314,0,0,0,.12-.206,5.344,5.344,0,0,1,5.68-3.9c.5.012.669.159.642.652s.027.974.035,1.461c.006.407.194.562.606.56q4.064-.019,8.128,0c.487,0,.587-.2.581-.631-.018-1.381-.021-2.763,0-4.144.008-.453-.136-.614-.6-.613q-8.21.019-16.419,0c-.543,0-.67.2-.569.674.04.185.065.373.091.561.2,1.454.2,1.454-1.249,1.515a.142.142,0,0,0-.152,0c-1.213-.057-1.213-.057-1.293-1.256a3.762,3.762,0,0,0-.028-.4,5.031,5.031,0,0,0-1.409-3.165,14.454,14.454,0,0,1-2.621,5.525,5,5,0,0,0-1.1,2.314c-.069.93-.483,1.13-1.274,1a.9.9,0,0,0-.239.026,1.935,1.935,0,0,0-.483-.03c-.82.154-.889-.285-.781-.924a8.431,8.431,0,0,1,1.147-3.093c.456-.734.93-1.458,1.407-2.179.248-.374.256-.561-.284-.56q-6.939.015-13.878,0c-.393,0-.52.143-.514.522.017.973,0,1.947,0,2.921,0,1.939,0,1.939,1.92,1.939,2.008,0,2.029,0,2.065-2.052.009-.523.19-.613.663-.621a5.56,5.56,0,0,1,5.959,5.17c.18,1.486.18,1.486-1.294,1.551a1.268,1.268,0,0,0-.323-.018c-.774.159-.983-.166-1.028-.928a3.258,3.258,0,0,0-1.435-2.69,37.137,37.137,0,0,1-2.83,6.641,14.413,14.413,0,0,0-.842,2.275,3.436,3.436,0,0,0,1.154,3.93,11.358,11.358,0,0,0,4.649,1.993c-.1-.289-.166-.481-.229-.673a6.036,6.036,0,0,1,.577-5.437c.177-.269.332-.553.5-.829a13.424,13.424,0,0,0,2.361-3.531c.236-.639.5-.85,1.116-.759a1.989,1.989,0,0,0,.4-.022,2.847,2.847,0,0,0,.565.02c.76-.123.867.247.719.877A7.789,7.789,0,0,1,2227,502.76q-1,1.427-2.018,2.843a3.6,3.6,0,0,0-.219,3.771,3.014,3.014,0,0,0,1.9,1.652c.275.094.586.139.445-.329a3.887,3.887,0,0,1,.045-1.926,9.114,9.114,0,0,1,2.021-4.615,2.249,2.249,0,0,1,3.5-.21,8.824,8.824,0,0,1,2.346,6.523c0,.2-.207.469.025.581.15.072.415-.048.61-.125a3.566,3.566,0,0,0,1.683-4.91c-.534-.934-1.215-1.786-1.841-2.666a10.4,10.4,0,0,1-1.511-2.67c-.456-1.355-.4-1.443.964-1.507l.076.023Zm-30.935-54.982c3.763,0,7.527-.013,11.29.013.607,0,.835-.109.824-.784-.042-2.733-.016-5.467-.018-8.2,0-1.341-.409-1.767-1.724-1.767q-10.356-.006-20.711,0c-1.273,0-1.706.432-1.71,1.7-.009,2.761.015,5.522-.017,8.283-.007.616.176.77.777.766C2196.643,444.176,2200.406,444.189,2204.17,444.189Zm53.663,0q5.686,0,11.371,0c.417,0,.788.066.781-.587-.03-2.9,0-5.793-.022-8.689-.008-1-.5-1.462-1.537-1.464q-10.518-.013-21.036,0c-1.112,0-1.562.475-1.564,1.6-.007,2.815.015,5.63-.017,8.445-.006.586.183.711.734.708C2250.306,444.179,2254.07,444.189,2257.833,444.189Zm-26.759,37.582c-2.923,0-5.847.013-8.77-.012-.534,0-.7.147-.681.68q.054,1.988,0,3.978c-.015.55.115.753.708.739,1.7-.04,3.41,0,5.115-.02.7-.007,1.59.3,2.042-.129s.243-1.334.221-2.035c-.012-.431.149-.543.565-.553a5.208,5.208,0,0,1,4.6,2.254.985.985,0,0,0,.926.478q2.029-.039,4.06,0c.457.009.61-.128.6-.594-.026-1.352-.048-2.708.007-4.059.027-.653-.219-.745-.79-.74C2236.813,481.785,2233.943,481.771,2231.074,481.771Zm-26.824-34.923h-1.87c-3.2,0-6.393,0-9.59.008-.247,0-.594-.186-.689.312-.3,1.576.348,2.386,1.96,2.386H2214.3c1.6,0,1.936-.372,1.99-1.949.023-.688-.233-.773-.823-.77C2211.726,446.86,2207.987,446.848,2204.25,446.848Zm53.619,0h-1.707c-3.224,0-6.447,0-9.671.009-.225,0-.542-.183-.668.23a1.759,1.759,0,0,0,1.858,2.467q10.2,0,20.4,0c1.507,0,1.882-.417,1.916-1.95.013-.587-.116-.779-.75-.773C2265.454,446.865,2261.661,446.848,2257.869,446.848Zm-53.73,51.029c-1.138,0-2.276.013-3.414-.007-.4-.007-.582.07-.573.527q.041,2.153,0,4.306c-.007.437.142.548.559.545q3.495-.025,6.99,0c.444,0,.547-.163.542-.571-.019-1.408-.025-2.818,0-4.225.01-.481-.166-.595-.612-.585C2206.47,497.893,2205.3,497.876,2204.139,497.876Zm53.729,5.364c1.136,0,2.273-.019,3.409.009.468.011.677-.085.663-.617q-.055-2.068,0-4.139c.013-.522-.176-.63-.654-.625q-3.409.032-6.819,0c-.517-.006-.638.18-.629.659.026,1.352.034,2.706,0,4.058-.015.555.191.683.7.667C2255.648,503.216,2256.758,503.24,2257.868,503.24Zm.081-21.469c-1.165,0-2.331.017-3.5-.009-.449-.01-.62.115-.611.591.027,1.408.021,2.817,0,4.226,0,.407.1.576.544.572q3.495-.027,6.99,0c.423,0,.563-.12.557-.55-.024-1.408-.035-2.818,0-4.226.015-.536-.193-.624-.659-.613C2260.171,481.79,2259.059,481.771,2257.949,481.771Zm-10.809,5.371c1.164,0,2.328-.013,3.491.007.41.007.576-.108.57-.546q-.034-2.151,0-4.3c.007-.453-.19-.535-.582-.533-2.3.012-4.6.02-6.9-.006-.533-.006-.625.211-.617.673.023,1.326.032,2.652,0,3.978-.015.551.125.767.715.742C2244.919,487.11,2246.029,487.142,2247.139,487.142Zm-32.262,0c1.164,0,2.328-.015,3.491.008.44.009.631-.1.622-.584q-.04-2.11,0-4.221c.01-.49-.2-.582-.628-.579q-3.409.022-6.82,0c-.475,0-.67.107-.657.627q.05,2.069,0,4.139c-.013.526.192.633.663.621C2212.658,487.124,2213.768,487.142,2214.877,487.142Zm-10.739-5.371c-1.138,0-2.276.013-3.414-.007-.4-.007-.581.077-.573.53.026,1.435.024,2.872,0,4.307-.006.432.136.552.558.549q3.495-.026,6.991,0c.445,0,.547-.168.542-.573-.019-1.408-.025-2.818,0-4.226.01-.478-.165-.6-.612-.589C2206.47,481.787,2205.3,481.771,2204.139,481.771Zm-8.028,29.5c1.165,0,2.33-.014,3.495.007.41.008.571-.107.564-.544q-.035-2.153,0-4.306c.008-.462-.2-.529-.585-.527-2.3.012-4.605.017-6.908,0-.487,0-.589.2-.583.629q.027,2.072,0,4.144c-.007.453.138.62.6.609C2193.835,511.256,2194.974,511.275,2196.111,511.274Zm64.521-37.585c-1.137,0-2.275.017-3.412-.008-.461-.01-.686.076-.672.615q.053,2.07,0,4.142c-.013.522.187.627.66.623q3.37-.03,6.741,0c.5,0,.653-.161.643-.651-.027-1.353-.036-2.708,0-4.06.016-.569-.216-.681-.716-.669C2262.8,473.708,2261.716,473.689,2260.633,473.689Zm-10.767,0c-1.163,0-2.327.015-3.49-.008-.421-.009-.566.123-.56.551.021,1.433.025,2.867,0,4.3-.008.457.186.528.577.526,2.3-.013,4.6-.02,6.9,0,.5,0,.576-.2.569-.625-.02-1.352-.037-2.706.006-4.057.019-.6-.217-.719-.753-.7C2252.031,473.717,2250.948,473.692,2249.866,473.692Zm-10.758,5.359c1.136,0,2.274-.018,3.409.009.466.011.605-.155.6-.608-.023-1.38-.028-2.761,0-4.14.011-.515-.183-.636-.662-.632q-3.368.03-6.739,0c-.51-.005-.645.172-.635.656.026,1.352.034,2.706,0,4.059-.016.555.191.683.7.668C2236.887,479.029,2238,479.051,2239.107,479.051Zm-10.78,0c1.163,0,2.327-.014,3.489.008.411.008.571-.1.564-.542-.024-1.406-.031-2.813,0-4.218.012-.526-.192-.623-.663-.619q-3.367.031-6.734,0c-.49-.005-.659.131-.648.635.03,1.378.036,2.759,0,4.137-.015.539.206.62.666.609C2226.11,479.037,2227.219,479.055,2228.327,479.055Zm-10.7,0c1.136,0,2.274-.017,3.41.009.455.01.613-.132.6-.6-.025-1.407-.021-2.815,0-4.222,0-.423-.139-.562-.562-.559q-3.451.023-6.9,0c-.417,0-.573.135-.568.559.018,1.407.022,2.815,0,4.221-.008.468.16.605.61.6C2215.352,479.035,2216.489,479.051,2217.626,479.051Zm-21.534,16.117c1.164,0,2.329-.01,3.494.006.382.005.594-.052.586-.52-.026-1.461-.017-2.924,0-4.386,0-.339-.1-.482-.462-.48q-3.534.016-7.068,0c-.389,0-.522.147-.519.526.012,1.435.017,2.87,0,4.3-.006.428.146.564.565.557C2193.816,495.154,2194.954,495.167,2196.091,495.168Zm10.786-5.379c-1.11,0-2.221.016-3.331-.008-.459-.009-.7.082-.683.617q.047,2.07,0,4.142c-.011.519.2.633.669.629q3.371-.028,6.742,0c.425,0,.641-.077.63-.573-.029-1.408-.027-2.816,0-4.223.008-.477-.172-.6-.616-.59C2209.152,489.8,2208.015,489.789,2206.878,489.789Zm-.01-10.734c1.163,0,2.328-.017,3.491.009.43.009.554-.134.548-.556-.023-1.434-.019-2.868,0-4.3,0-.378-.107-.524-.5-.521q-3.491.022-6.981,0c-.428,0-.563.148-.558.564.018,1.407.023,2.814,0,4.22-.009.463.143.606.6.6C2204.594,479.036,2205.731,479.055,2206.867,479.055Zm-10.7,0c1.111,0,2.221-.017,3.331.008.458.01.686-.069.672-.611-.037-1.38-.034-2.762,0-4.142.013-.52-.183-.631-.659-.627q-3.371.031-6.743,0c-.5-.005-.653.171-.644.658.025,1.353.034,2.708,0,4.061-.016.569.223.673.718.661C2193.949,479.033,2195.06,479.051,2196.17,479.051Zm64.354,16.116c1.165,0,2.329-.011,3.493.006.392.006.593-.079.587-.532-.022-1.435-.019-2.87,0-4.3.006-.433-.166-.554-.576-.551q-3.452.02-6.9,0c-.408,0-.578.1-.571.54q.035,2.151,0,4.3c-.007.435.148.553.561.545C2258.249,495.153,2259.387,495.168,2260.524,495.168Zm-53.619,16.1c1.109,0,2.219-.027,3.327.012.549.019.686-.185.675-.7q-.045-1.987,0-3.976c.011-.5-.094-.72-.66-.713-2.244.03-4.49.024-6.735,0-.5,0-.656.164-.646.656.027,1.352.033,2.7,0,4.056-.014.559.213.681.715.669C2204.686,511.244,2205.8,511.264,2206.9,511.264Zm53.653-5.354c-1.136,0-2.271.008-3.407,0-.369,0-.609.029-.6.51.027,1.46.022,2.92,0,4.38-.005.419.186.485.54.484,2.3-.009,4.6-.019,6.9.006.53.006.624-.213.616-.673-.022-1.352-.026-2.7,0-4.056.01-.491-.133-.67-.641-.656C2262.83,505.932,2261.694,505.91,2260.558,505.91Zm-15.128,5.35q4,0,8,0c.46,0,.42-.316.42-.613,0-1.378-.02-2.757.011-4.134.012-.528-.212-.633-.676-.623-1.026.024-2.053.007-3.081.007-1.424,0-1.444,0-1.784,1.345A8.2,8.2,0,0,1,2245.429,511.26Zm21.754-8.02c.73,0,1.462-.022,2.191.008.441.018.631-.1.622-.578-.025-1.406-.018-2.814,0-4.22,0-.387-.064-.592-.525-.584-1.461.026-2.923.022-4.384,0-.412-.006-.5.17-.495.533.013,1.434.019,2.868,0,4.3-.007.434.151.562.567.545C2265.829,503.22,2266.506,503.24,2267.183,503.24Zm-72.381,0c.73,0,1.462-.016,2.191.006.394.012.518-.142.515-.52q-.02-2.19,0-4.381c0-.348-.134-.475-.48-.472-1.46.011-2.921.014-4.382,0-.387,0-.521.136-.517.519.014,1.434.018,2.867,0,4.3-.005.424.147.571.566.556C2193.4,503.222,2194.1,503.24,2194.8,503.24Zm69.785-18.994c0,.883.013,1.613-.006,2.342-.01.418.153.567.573.561,1.405-.018,2.811-.016,4.216,0,.392,0,.6-.081.593-.532q-.03-2.148,0-4.3c.005-.43-.158-.566-.571-.553-.729.023-1.459,0-2.189.008-.835.011-1.945-.279-2.432.142C2264.208,482.4,2264.667,483.546,2264.587,484.246Zm-72.454.145c0,.73.015,1.46-.006,2.189-.011.411.126.575.556.57,1.433-.019,2.865-.017,4.3,0,.391,0,.527-.152.525-.524q-.013-2.189,0-4.378c0-.343-.128-.48-.477-.477q-2.189.016-4.378,0c-.38,0-.533.129-.522.516C2192.147,482.986,2192.134,483.689,2192.133,484.391Zm53.536,13.486a18.474,18.474,0,0,1,1.56,3.34c.45,1.867,1.545,2.342,3.247,2.024a.519.519,0,0,1,.162,0c.41.054.57-.094.563-.534-.025-1.432-.017-2.864,0-4.3,0-.35-.05-.546-.475-.541C2249.076,497.889,2247.43,497.877,2245.669,497.877Zm-29.277,0c-1.764,0-3.433.005-5.1,0-.417,0-.393.265-.393.544q0,1.623,0,3.247c0,1.573,0,1.573,1.555,1.573,1.512,0,1.491-.009,2.1-1.4C2215.126,500.538,2215.75,499.259,2216.393,497.88Zm41.58-45.662h-2.11c-2.085,0-2.068,0-2.024,2.089.01.5.17.644.657.637,1.785-.024,3.572-.009,5.357-.009,2.18,0,2.167,0,2.089-2.181-.015-.431-.142-.553-.56-.544C2260.245,452.234,2259.109,452.218,2257.972,452.218Zm-53.751,2.717h2.029c2.031,0,2.014,0,2-2.043,0-.522-.133-.7-.68-.686-1.785.035-3.571.013-5.356.013-2.122,0-2.1,0-2.07,2.114.007.537.206.622.668.611C2201.948,454.917,2203.085,454.934,2204.221,454.934Zm63.076,37.492v.812c0,2.163,0,2.155,2.186,1.929.342-.035.477-.151.475-.491-.008-1.462,0-2.923,0-4.385,0-.265-.032-.507-.375-.5-.726.022-1.571-.26-2.137.123-.42.284-.1,1.112-.142,1.7C2267.28,491.884,2267.3,492.156,2267.3,492.427Zm0-16.019v.649c0,2.159,0,2.148,2.169,2.008.388-.025.513-.148.508-.526-.018-1.027-.006-2.055-.006-3.083,0-1.767,0-1.737-1.781-1.78-.676-.016-1,.1-.905.867A15.3,15.3,0,0,1,2267.3,476.408Zm2.659,32.2v-.73c0-2.066,0-2.052-2.064-1.988-.45.014-.619.132-.6.6.031.945.009,1.891.009,2.837,0,2.007,0,1.993,2,1.947.477-.011.689-.13.663-.64C2269.93,509.96,2269.956,509.283,2269.956,508.608Zm-37.6,1a8.875,8.875,0,0,0-1.01-3.123c-.19-.368-.389-.434-.6-.022a8.142,8.142,0,0,0-1.018,3.294,1.29,1.29,0,0,0,1.3,1.505C2231.854,511.27,2232.377,510.688,2232.36,509.609Zm-15.692,1.666a9.058,9.058,0,0,1-2.991-4.028c-.069,1.186-.054,2.34-.077,3.492-.009.435.164.553.569.543C2215,511.259,2215.835,511.275,2216.668,511.275Z" transform="translate(0)" fill="#020202"/>
      <path id="Trazado_128675" data-name="Trazado 128675" d="M2296.436,480.215a14.7,14.7,0,0,1,9.628,3.867c.379.339.454.561.026.919-.5.414-.877,1.159-1.414,1.275-.49.105-.94-.673-1.43-1.033a12.03,12.03,0,0,0-14.991.592c-.644.561-.983.5-1.421-.1a2.089,2.089,0,0,0-.227-.231c-1-1.005-1-1.005.071-1.9A15.055,15.055,0,0,1,2296.436,480.215Z" transform="translate(-65.043 -33.36)" fill="#040404"/>
      <path id="Trazado_128676" data-name="Trazado 128676" d="M2308.92,521.25a4.036,4.036,0,1,1,4.02-4.056A4.086,4.086,0,0,1,2308.92,521.25Zm0-2.715a1.32,1.32,0,1,0-1.335-1.324A1.3,1.3,0,0,0,2308.92,518.535Z" transform="translate(-77.858 -55.589)" fill="#040404"/>
      <path id="Trazado_128677" data-name="Trazado 128677" d="M2303.95,499.438a6.264,6.264,0,0,0-4.308,1.538c-.427.368-.657.309-.961-.07a6.742,6.742,0,0,0-.512-.519c-.972-.971-.972-.971.176-1.821a9.413,9.413,0,0,1,11.688.425c.4.357.523.6.049.986-.457.377-.782,1.01-1.289,1.2-.59.225-.929-.558-1.431-.824A6.9,6.9,0,0,0,2303.95,499.438Z" transform="translate(-72.865 -44.502)" fill="#040404"/>
      <path id="Trazado_128678" data-name="Trazado 128678" d="M2209.75,449.782c-3.763,0-7.527-.013-11.29.014-.6,0-.785-.15-.778-.766.032-2.761.009-5.522.017-8.283,0-1.273.437-1.7,1.71-1.7q10.355-.006,20.711,0c1.315,0,1.723.426,1.724,1.767,0,2.734-.024,5.468.019,8.2.011.675-.217.789-.824.784C2217.277,449.77,2213.514,449.782,2209.75,449.782Z" transform="translate(-5.58 -5.593)" fill="#83d2ee"/>
      <path id="Trazado_128679" data-name="Trazado 128679" d="M2374.628,449.782c-3.763,0-7.527-.011-11.29.012-.551,0-.74-.122-.733-.708.031-2.815.01-5.63.016-8.445,0-1.122.452-1.6,1.564-1.6q10.518-.012,21.036,0c1.034,0,1.53.462,1.537,1.464.022,2.9-.008,5.793.022,8.689.007.653-.365.587-.781.587Q2380.313,449.778,2374.628,449.782Z" transform="translate(-116.795 -5.592)" fill="#83d2ee"/>
      <path id="Trazado_128680" data-name="Trazado 128680" d="M2299.317,614.522a.9.9,0,0,1,.24-.026c.791.127,1.206-.073,1.274-1a5,5,0,0,1,1.1-2.314,14.447,14.447,0,0,0,2.621-5.525,5.027,5.027,0,0,1,1.409,3.165,4.03,4.03,0,0,1,.029.4c.08,1.2.08,1.2,1.293,1.256q0,3.32,0,6.64c-1.361.064-1.421.152-.965,1.507a10.378,10.378,0,0,0,1.51,2.67c.627.88,1.307,1.732,1.842,2.666a3.567,3.567,0,0,1-1.683,4.91c-.2.077-.461.2-.611.125-.233-.112-.028-.379-.025-.581a8.825,8.825,0,0,0-2.346-6.523,2.249,2.249,0,0,0-3.5.21,9.116,9.116,0,0,0-2.021,4.615,3.884,3.884,0,0,0-.045,1.926c.141.468-.17.423-.445.329a3.016,3.016,0,0,1-1.9-1.652,3.6,3.6,0,0,1,.219-3.771q1.018-1.415,2.017-2.843a7.794,7.794,0,0,0,1.272-2.693c.148-.63.041-1-.719-.877a2.85,2.85,0,0,1-.566-.02Z" transform="translate(-72.33 -117.949)" fill="#ec8672"/>
      <path id="Trazado_128681" data-name="Trazado 128681" d="M2297.782,587.407c2.87,0,5.739.014,8.608-.012.57-.005.817.087.79.74-.056,1.351-.034,2.706-.007,4.059.01.466-.144.6-.6.594q-2.03-.038-4.06,0a.985.985,0,0,1-.926-.478,5.208,5.208,0,0,0-4.6-2.254c-.416.01-.578.122-.565.553.021.7.235,1.605-.221,2.035s-1.344.122-2.042.129c-1.706.018-3.411-.02-5.115.02-.593.014-.723-.189-.708-.739q.055-1.988,0-3.978c-.014-.534.147-.685.681-.68C2291.935,587.42,2294.858,587.407,2297.782,587.407Z" transform="translate(-66.708 -105.636)" fill="#c89f72"/>
      <path id="Trazado_128682" data-name="Trazado 128682" d="M2329.733,614.771c1.449-.061,1.45-.061,1.249-1.515-.026-.188-.051-.376-.091-.561-.1-.475.026-.676.569-.674q8.21.026,16.419,0c.466,0,.61.16.6.613-.021,1.381-.019,2.763,0,4.144.006.431-.094.635-.581.631q-4.064-.027-8.128,0c-.413,0-.6-.153-.606-.56-.008-.487-.063-.976-.035-1.461s-.141-.641-.641-.652a5.344,5.344,0,0,0-5.68,3.9,1.314,1.314,0,0,1-.119.207l-.073-.052a6.185,6.185,0,0,0-2.23-.115c-.5-.014-.66-.173-.648-.663C2329.761,616.934,2329.737,615.852,2329.733,614.771Z" transform="translate(-94.628 -122.242)" fill="#a7794d"/>
      <path id="Trazado_128683" data-name="Trazado 128683" d="M2277.088,618.832v2.6a1.991,1.991,0,0,1-.4.022c-.614-.09-.88.12-1.115.759a13.43,13.43,0,0,1-2.361,3.531c-.011-.621,0-1.243-.04-1.862a7.15,7.15,0,0,0-.15-2.4c1.473-.065,1.473-.065,1.294-1.551a5.56,5.56,0,0,0-5.959-5.17c-.473.008-.654.1-.663.621-.036,2.052-.057,2.052-2.065,2.052-1.92,0-1.92,0-1.92-1.939,0-.974.012-1.948,0-2.921-.007-.379.12-.523.513-.522q6.939.014,13.878,0c.54,0,.532.186.284.56-.477.721-.951,1.444-1.408,2.179a8.434,8.434,0,0,0-1.147,3.093c-.107.639-.038,1.079.781.924A1.937,1.937,0,0,1,2277.088,618.832Z" transform="translate(-50.101 -122.259)" fill="#c79e71"/>
      <path id="Trazado_128684" data-name="Trazado 128684" d="M2209.683,480.141c3.738,0,7.477.012,11.215-.012.59,0,.846.082.823.77-.054,1.578-.386,1.949-1.99,1.949h-20.236c-1.611,0-2.259-.811-1.959-2.386.094-.5.441-.311.688-.312,3.2-.013,6.393-.008,9.59-.008Z" transform="translate(-5.433 -33.293)" fill="#c7cbd1"/>
      <path id="Trazado_128685" data-name="Trazado 128685" d="M2374.437,480.13c3.792,0,7.585.017,11.377-.017.634-.006.763.186.749.773-.034,1.533-.408,1.949-1.916,1.95q-10.2,0-20.4,0a1.759,1.759,0,0,1-1.858-2.466c.126-.414.443-.229.668-.23,3.223-.014,6.447-.009,9.671-.009Z" transform="translate(-116.569 -33.282)" fill="#c7cbd1"/>
      <path id="Trazado_128686" data-name="Trazado 128686" d="M2278.56,633.476a7.175,7.175,0,0,1,.15,2.4c.041.619.029,1.241.04,1.862-.165.277-.32.56-.5.829a6.035,6.035,0,0,0-.577,5.437c.062.193.13.384.229.673a11.359,11.359,0,0,1-4.649-1.993,3.437,3.437,0,0,1-1.154-3.93,14.412,14.412,0,0,1,.842-2.275,37.139,37.139,0,0,0,2.831-6.641,3.259,3.259,0,0,1,1.435,2.69c.046.762.254,1.087,1.028.928A1.27,1.27,0,0,1,2278.56,633.476Z" transform="translate(-55.64 -134.259)" fill="#ec8672"/>
      <path id="Trazado_128687" data-name="Trazado 128687" d="M2342.2,633.474c.888.095,1.4-.083,1.4-1.2a2.833,2.833,0,0,1,1.387-2.446c.685,2.825,2.323,5.192,3.324,7.835,1.147,3.028.429,4.7-2.533,6.055a15.59,15.59,0,0,1-2.9.958,7.99,7.99,0,0,0,.48-4.113,10.379,10.379,0,0,0-1.165-2.567Q2342.195,635.737,2342.2,633.474Z" transform="translate(-103.028 -134.253)" fill="#ec8672"/>
      <path id="Trazado_128688" data-name="Trazado 128688" d="M2226.389,636.869c1.165,0,2.331.017,3.495-.009.446-.01.623.1.612.585-.029,1.408-.022,2.817,0,4.225.005.407-.1.574-.542.571q-3.5-.028-6.99,0c-.417,0-.566-.108-.558-.545q.037-2.153,0-4.306c-.009-.457.178-.534.573-.527C2224.113,636.881,2225.251,636.869,2226.389,636.869Z" transform="translate(-22.25 -138.992)" fill="#c89f72"/>
      <path id="Trazado_128689" data-name="Trazado 128689" d="M2391.279,642.23c-1.11,0-2.22-.024-3.329.01-.513.016-.719-.112-.7-.667.037-1.352.029-2.706,0-4.058-.01-.479.113-.665.629-.659q3.409.038,6.819,0c.479,0,.667.1.654.625q-.054,2.068,0,4.139c.014.532-.194.628-.663.617C2393.552,642.212,2392.415,642.23,2391.279,642.23Z" transform="translate(-133.411 -138.99)" fill="#a8794d"/>
      <path id="Trazado_128690" data-name="Trazado 128690" d="M2391.378,587.411c1.111,0,2.222.019,3.332-.009.466-.012.674.076.659.612-.039,1.408-.028,2.817,0,4.226.007.43-.133.554-.557.55q-3.495-.026-6.99,0c-.443,0-.549-.165-.543-.572.018-1.409.024-2.818,0-4.226-.009-.476.161-.6.611-.591C2389.047,587.428,2390.212,587.411,2391.378,587.411Z" transform="translate(-133.429 -105.64)" fill="#c89e71"/>
      <path id="Trazado_128691" data-name="Trazado 128691" d="M2358.313,592.784c-1.11,0-2.221-.032-3.329.013-.591.024-.729-.191-.715-.742.036-1.325.026-2.652,0-3.977-.008-.463.084-.68.617-.674,2.3.026,4.6.017,6.9.006.393,0,.59.08.582.533q-.035,2.15,0,4.3c.007.438-.159.554-.57.546C2360.641,592.771,2359.477,592.784,2358.313,592.784Z" transform="translate(-111.174 -105.642)" fill="#a7794d"/>
      <path id="Trazado_128692" data-name="Trazado 128692" d="M2259.353,592.789c-1.11,0-2.22-.019-3.328.009-.471.012-.676-.1-.663-.621q.052-2.069,0-4.139c-.012-.519.183-.631.658-.627q3.411.03,6.82,0c.431,0,.637.089.627.579q-.042,2.11,0,4.221c.01.482-.182.593-.622.584C2261.68,592.774,2260.516,592.789,2259.353,592.789Z" transform="translate(-44.475 -105.647)" fill="#a7794d"/>
      <path id="Trazado_128693" data-name="Trazado 128693" d="M2226.389,587.413c1.165,0,2.331.017,3.5-.008.447-.01.622.111.612.589-.028,1.408-.021,2.817,0,4.226,0,.405-.1.577-.542.574q-3.5-.028-6.991,0c-.421,0-.564-.117-.558-.549q.036-2.153,0-4.307c-.008-.454.176-.537.573-.53C2224.113,587.426,2225.251,587.413,2226.389,587.413Z" transform="translate(-22.25 -105.643)" fill="#c89e71"/>
      <path id="Trazado_128694" data-name="Trazado 128694" d="M2201.676,666.9c-1.137,0-2.276-.018-3.413.009-.466.011-.611-.156-.6-.609q.031-2.072,0-4.144c-.006-.433.1-.634.583-.629,2.3.02,4.605.015,6.908,0,.39,0,.593.066.585.527q-.039,2.152,0,4.306c.007.437-.154.552-.564.544C2204.007,666.888,2202.841,666.9,2201.676,666.9Z" transform="translate(-5.565 -155.628)" fill="#c89e71"/>
      <path id="Trazado_128695" data-name="Trazado 128695" d="M2399.666,562.6c1.083,0,2.166.019,3.249-.008.5-.013.732.1.715.669-.039,1.352-.03,2.707,0,4.06.01.49-.142.656-.643.651q-3.371-.034-6.742,0c-.472,0-.673-.1-.66-.623q.051-2.07,0-4.142c-.014-.539.21-.625.672-.615C2397.391,562.613,2398.528,562.6,2399.666,562.6Z" transform="translate(-139.032 -88.907)" fill="#a87a4d"/>
      <path id="Trazado_128696" data-name="Trazado 128696" d="M2366.671,562.6c1.083,0,2.165.025,3.247-.011.537-.017.772.1.753.7-.043,1.351-.027,2.7-.006,4.057.006.427-.074.63-.569.625-2.3-.023-4.6-.017-6.9,0-.392,0-.586-.069-.577-.526.026-1.433.022-2.867,0-4.3-.006-.428.139-.56.56-.551C2364.344,562.614,2365.507,562.6,2366.671,562.6Z" transform="translate(-116.805 -88.906)" fill="#c99f72"/>
      <path id="Trazado_128697" data-name="Trazado 128697" d="M2333.676,567.955c-1.11,0-2.22-.022-3.329.01-.51.015-.717-.113-.7-.668.037-1.352.029-2.706,0-4.059-.009-.484.125-.661.635-.656q3.37.037,6.74,0c.479,0,.674.117.662.632-.03,1.379-.024,2.76,0,4.14.008.453-.131.619-.6.608C2335.95,567.937,2334.812,567.955,2333.676,567.955Z" transform="translate(-94.569 -88.904)" fill="#a87a4d"/>
      <path id="Trazado_128698" data-name="Trazado 128698" d="M2300.655,567.965c-1.109,0-2.218-.018-3.326.009-.46.011-.681-.07-.666-.609.037-1.378.032-2.758,0-4.137-.011-.5.157-.641.648-.635q3.367.035,6.734,0c.471,0,.676.093.663.619-.033,1.406-.027,2.812,0,4.218.008.439-.153.55-.564.542C2302.981,567.951,2301.818,567.965,2300.655,567.965Z" transform="translate(-72.327 -88.911)" fill="#c99f72"/>
      <path id="Trazado_128699" data-name="Trazado 128699" d="M2267.732,567.963c-1.137,0-2.274-.016-3.411.008-.451.01-.619-.128-.611-.6.025-1.407.02-2.815,0-4.222-.005-.424.15-.562.568-.559q3.451.022,6.9,0c.423,0,.567.136.562.559-.019,1.407-.024,2.815,0,4.222.009.465-.15.607-.6.6C2270.006,567.945,2268.868,567.963,2267.732,567.963Z" transform="translate(-50.106 -88.912)" fill="#a87a4d"/>
      <path id="Trazado_128700" data-name="Trazado 128700" d="M2201.7,617.43c-1.137,0-2.275-.014-3.412.007-.418.008-.571-.128-.565-.557.02-1.435.015-2.87,0-4.3,0-.378.13-.528.519-.526q3.535.017,7.068,0c.36,0,.464.141.462.48-.011,1.462-.022,2.925.005,4.386.008.467-.2.525-.586.519C2204.027,617.42,2202.862,617.43,2201.7,617.43Z" transform="translate(-5.606 -122.262)" fill="#c89f72"/>
      <path id="Trazado_128701" data-name="Trazado 128701" d="M2234.742,612.036c1.137,0,2.275.016,3.412-.008.444-.009.625.113.616.59-.026,1.407-.029,2.816,0,4.223.01.5-.2.576-.63.573q-3.371-.022-6.742,0c-.472,0-.681-.109-.67-.629q.045-2.07,0-4.142c-.012-.535.224-.627.683-.617C2232.521,612.051,2233.631,612.036,2234.742,612.036Z" transform="translate(-27.864 -122.247)" fill="#a8794d"/>
      <path id="Trazado_128702" data-name="Trazado 128702" d="M2234.719,567.972c-1.136,0-2.273-.019-3.409.009-.458.011-.609-.132-.6-.6.026-1.406.02-2.813,0-4.22-.005-.416.13-.567.558-.564q3.49.024,6.981,0c.4,0,.509.143.5.521-.016,1.434-.02,2.868,0,4.3.007.422-.117.565-.548.555C2237.046,567.955,2235.882,567.972,2234.719,567.972Z" transform="translate(-27.851 -88.917)" fill="#c99f72"/>
      <path id="Trazado_128703" data-name="Trazado 128703" d="M2201.789,567.958c-1.111,0-2.221-.019-3.331.008-.494.012-.734-.092-.718-.661.037-1.353.028-2.708,0-4.061-.009-.487.14-.663.644-.658q3.372.033,6.743,0c.477,0,.673.107.66.627-.033,1.38-.036,2.762,0,4.142.014.542-.214.621-.672.611C2204.01,567.942,2202.9,567.958,2201.789,567.958Z" transform="translate(-5.619 -88.907)" fill="#a87a4d"/>
      <path id="Trazado_128704" data-name="Trazado 128704" d="M2399.561,617.426c-1.137,0-2.274-.014-3.411.008-.414.008-.569-.111-.561-.545q.035-2.152,0-4.3c-.008-.443.164-.543.571-.54q3.452.023,6.9,0c.41,0,.581.118.576.551-.019,1.434-.021,2.869,0,4.3.007.453-.2.537-.586.532C2401.89,617.415,2400.725,617.426,2399.561,617.426Z" transform="translate(-139.038 -122.258)" fill="#c89f72"/>
      <path id="Trazado_128705" data-name="Trazado 128705" d="M2234.766,666.865c-1.109,0-2.219-.02-3.327.009-.5.013-.729-.109-.715-.669.035-1.352.029-2.7,0-4.056-.01-.492.147-.66.646-.656,2.245.021,4.49.026,6.736,0,.565-.007.671.212.66.713q-.042,1.987,0,3.976c.011.514-.125.718-.675.7C2236.985,666.838,2235.875,666.865,2234.766,666.865Z" transform="translate(-27.861 -155.601)" fill="#a7794d"/>
      <path id="Trazado_128706" data-name="Trazado 128706" d="M2399.592,661.534c1.136,0,2.272.022,3.408-.01.508-.014.651.165.641.656-.028,1.351-.024,2.7,0,4.056.008.46-.086.679-.616.673-2.3-.025-4.6-.016-6.9-.006-.354,0-.545-.064-.54-.484.02-1.46.024-2.92,0-4.38-.009-.481.231-.514.6-.51C2397.321,661.541,2398.456,661.534,2399.592,661.534Z" transform="translate(-139.035 -155.624)" fill="#c89e71"/>
      <path id="Trazado_128707" data-name="Trazado 128707" d="M2361.437,666.869a8.2,8.2,0,0,0,2.886-4.016c.34-1.349.36-1.344,1.784-1.345,1.027,0,2.054.017,3.081-.007.463-.011.688.1.676.623-.031,1.378-.01,2.756-.011,4.134,0,.3.04.614-.42.613Q2365.434,666.864,2361.437,666.869Z" transform="translate(-116.008 -155.609)" fill="#a6784c"/>
      <path id="Trazado_128708" data-name="Trazado 128708" d="M2422.861,642.23c-.677,0-1.354-.02-2.029.007-.415.017-.573-.111-.567-.545.021-1.434.016-2.868,0-4.3,0-.363.083-.538.494-.532,1.461.02,2.923.024,4.384,0,.462-.008.53.2.526.584-.015,1.407-.022,2.814,0,4.22.009.48-.181.6-.622.578C2424.322,642.209,2423.591,642.23,2422.861,642.23Z" transform="translate(-155.677 -138.99)" fill="#c79e71"/>
      <path id="Trazado_128709" data-name="Trazado 128709" d="M2200.433,642.241c-.7,0-1.407-.018-2.109.007-.419.015-.572-.132-.566-.556.018-1.434.015-2.867,0-4.3,0-.383.13-.523.517-.519,1.461.015,2.922.013,4.382,0,.346,0,.482.124.48.472-.01,1.46-.012,2.921,0,4.381,0,.378-.121.533-.515.52C2201.9,642.224,2201.164,642.241,2200.433,642.241Z" transform="translate(-5.631 -139.001)" fill="#a6784c"/>
      <path id="Trazado_128710" data-name="Trazado 128710" d="M2420.056,589.734c.08-.7-.379-1.842.184-2.329.488-.422,1.6-.131,2.432-.142.73-.01,1.46.015,2.189-.008.413-.013.576.123.57.553q-.029,2.148,0,4.3c.006.451-.2.537-.592.532q-2.108-.022-4.216,0c-.42.006-.583-.144-.573-.561C2420.069,591.347,2420.056,590.617,2420.056,589.734Z" transform="translate(-155.469 -105.488)" fill="#a6784c"/>
      <path id="Trazado_128711" data-name="Trazado 128711" d="M2197.765,590.046c0-.7.014-1.405-.005-2.108-.01-.386.143-.519.523-.516q2.189.02,4.378,0c.348,0,.479.135.477.477q-.013,2.189,0,4.378c0,.372-.135.528-.524.524-1.433-.015-2.865-.018-4.3,0-.429.006-.567-.158-.556-.57C2197.779,591.506,2197.765,590.776,2197.765,590.046Z" transform="translate(-5.631 -105.655)" fill="#a6784c"/>
      <path id="Trazado_128712" data-name="Trazado 128712" d="M2362.173,636.873c1.76,0,3.406.012,5.052-.008.425-.005.478.191.475.541-.013,1.432-.021,2.865,0,4.3.008.44-.153.589-.563.534a.522.522,0,0,0-.162,0c-1.7.319-2.8-.157-3.247-2.024A18.443,18.443,0,0,0,2362.173,636.873Z" transform="translate(-116.504 -138.996)" fill="#c89f72"/>
      <path id="Trazado_128713" data-name="Trazado 128713" d="M2260.892,636.89c-.643,1.379-1.267,2.658-1.839,3.961-.61,1.39-.589,1.4-2.1,1.4-1.556,0-1.556,0-1.556-1.573q0-1.624,0-3.247c0-.279-.025-.546.393-.544C2257.458,636.9,2259.127,636.89,2260.892,636.89Z" transform="translate(-44.499 -139.01)" fill="#a8794d"/>
      <path id="Trazado_128714" data-name="Trazado 128714" d="M2391.369,496.664c1.136,0,2.272.016,3.408-.008.419-.009.545.113.56.544.078,2.182.092,2.181-2.089,2.181-1.785,0-3.571-.015-5.357.009-.487.007-.646-.133-.657-.637-.043-2.089-.061-2.089,2.024-2.089Z" transform="translate(-133.397 -44.447)" fill="#a4abb5"/>
      <path id="Trazado_128715" data-name="Trazado 128715" d="M2226.441,499.371c-1.136,0-2.273-.018-3.409.008-.462.011-.66-.074-.668-.611-.03-2.114-.052-2.114,2.07-2.114,1.786,0,3.571.022,5.356-.013.546-.011.677.164.68.686.013,2.043.031,2.043-2,2.043Z" transform="translate(-22.22 -44.436)" fill="#a4abb5"/>
      <path id="Trazado_128716" data-name="Trazado 128716" d="M2428.436,614.54c0-.271-.018-.542,0-.811.045-.584-.277-1.412.142-1.7.566-.383,1.412-.1,2.137-.123.343-.01.376.232.376.5,0,1.462-.006,2.923,0,4.385,0,.34-.133.455-.475.491-2.187.226-2.186.234-2.186-1.929Z" transform="translate(-161.139 -122.114)" fill="#a8794d"/>
      <path id="Trazado_128717" data-name="Trazado 128717" d="M2428.519,565.3a15.352,15.352,0,0,0-.015-1.864c-.094-.767.229-.883.905-.867,1.781.043,1.782.013,1.782,1.78,0,1.028-.012,2.055.005,3.083.006.378-.119.5-.508.526-2.17.14-2.169.151-2.169-2.008Z" transform="translate(-161.223 -88.897)" fill="#c99f72"/>
      <path id="Trazado_128718" data-name="Trazado 128718" d="M2431.224,664.175c0,.675-.026,1.352.008,2.026.026.51-.186.629-.663.64-2,.046-2,.06-2-1.947,0-.946.021-1.892-.01-2.837-.015-.468.154-.586.6-.6,2.066-.063,2.065-.078,2.065,1.988Z" transform="translate(-161.268 -155.567)" fill="#a7794d"/>
      <path id="Trazado_128719" data-name="Trazado 128719" d="M2332.656,632.866c-.093.579-.165,1.162-.281,1.736-.131.646.044.974.761.861a2.351,2.351,0,0,1,.479.02q-.024,2.121-.049,4.243a13.231,13.231,0,0,1-2.517-3.939.394.394,0,0,0-.455-.332c-.3.006-.6-.012-.893-.02a13.9,13.9,0,0,0,0-1.688c-.09-.782.246-.969.954-.916.64.048,1.286-.008,1.929-.017Z" transform="translate(-94.595 -136.265)" fill="#a7794d"/>
      <path id="Trazado_128720" data-name="Trazado 128720" d="M2315.857,665.818c.017,1.079-.506,1.661-1.329,1.654a1.29,1.29,0,0,1-1.3-1.505,8.149,8.149,0,0,1,1.017-3.294c.211-.412.41-.346.6.022A8.856,8.856,0,0,1,2315.857,665.818Z" transform="translate(-83.497 -156.209)" fill="#e47357"/>
      <path id="Trazado_128721" data-name="Trazado 128721" d="M2266.764,669.688c-.833,0-1.666-.015-2.5.007-.405.01-.579-.108-.57-.543.023-1.152.008-2.306.077-3.492A9.056,9.056,0,0,0,2266.764,669.688Z" transform="translate(-50.097 -158.414)" fill="#c79e71"/>
      <path id="Trazado_128722" data-name="Trazado 128722" d="M2332.3,624.443c-.643.01-1.29.065-1.929.017-.708-.053-1.045.135-.955.916a14,14,0,0,1,0,1.688l-.077.022-.075-.023q0-3.32,0-6.64a.141.141,0,0,1,.152,0c0,1.082.027,2.163,0,3.244-.011.49.152.65.649.663A6.185,6.185,0,0,1,2332.3,624.443Z" transform="translate(-94.314 -127.893)" fill="#c99f72"/>
      <path id="Trazado_128723" data-name="Trazado 128723" d="M2341.6,645.21q.025-2.122.049-4.243a.147.147,0,0,1,.154,0q-.007,2.263-.011,4.527Z" transform="translate(-102.631 -141.748)" fill="#c99f72"/>
      <path id="Trazado_128724" data-name="Trazado 128724" d="M2314.551,524.161a1.32,1.32,0,1,1,1.3-1.358A1.291,1.291,0,0,1,2314.551,524.161Z" transform="translate(-83.49 -61.215)" fill="#ec8672"/>
    </g>
  </g>
</svg>
