<svg xmlns="http://www.w3.org/2000/svg" xmlns:xlink="http://www.w3.org/1999/xlink" width="96" height="96" viewBox="0 0 96 96">
  <defs>
    <clipPath id="clip-path">
      <rect id="Rect치ngulo_36769" data-name="Rect치ngulo 36769" width="96" height="96" fill="#fff" stroke="#707070" stroke-width="1"/>
    </clipPath>
    <clipPath id="clip-path-2">
      <rect id="Rect치ngulo_36827" data-name="Rect치ngulo 36827" width="90.002" height="73.068" fill="none"/>
    </clipPath>
  </defs>
  <g id="Grupo_86121" data-name="Grupo 86121" clip-path="url(#clip-path)">
    <g id="Grupo_86446" data-name="Grupo 86446" transform="translate(2.999 11.466)">
      <g id="Grupo_86445" data-name="Grupo 86445" clip-path="url(#clip-path-2)">
        <path id="Trazado_129787" data-name="Trazado 129787" d="M45.1,0H85.158c1.619,0,2.022.4,2.023,2.012q0,29.417-.017,58.834c0,.771.151,1.042.975,1,1.382-.073,1.867.44,1.847,1.807a20.787,20.787,0,0,1-.129,3.677,7.013,7.013,0,0,1-6.722,5.727c-.7.018-1.405.007-2.108.007q-36.806,0-73.612,0a7.063,7.063,0,0,1-7.14-5.222,16.92,16.92,0,0,1-.2-4.806c.021-.794.671-1.2,1.646-1.211,1.13-.019,1.13-.019,1.13-1.155q0-29.285,0-58.571C2.846.366,3.215,0,4.957,0H45.1m-.092,2.81q-19.238,0-38.475-.019c-.738,0-.9.181-.895.9q.033,28.626,0,57.254c0,.74.186.895.905.893,8.4-.028,16.807-.018,25.211-.018,1.611,0,2.043.4,2,2.021-.019.667.167.808.815.805q10.453-.039,20.906,0c.668,0,.821-.17.8-.816-.043-1.618.384-2.011,2-2.011,8.4,0,16.807-.011,25.211.019.734,0,.9-.175.9-.9q-.034-28.627,0-57.254c0-.736-.18-.9-.9-.895q-19.237.037-38.475.018m.008,67.444H82.433c3.093,0,4.732-1.677,4.766-4.785.008-.695-.182-.853-.86-.851q-13.219.036-26.437,0c-.7,0-.868.188-.849.862.045,1.551-.405,1.965-1.968,1.965H32.932c-1.558,0-2.006-.413-1.956-1.973.022-.692-.176-.855-.859-.853-7.641.026-15.282.016-22.923.017-1.259,0-2.518.021-3.776-.011-.469-.012-.57.142-.583.59-.094,3.273,1.594,5.041,4.855,5.041H45.017" transform="translate(0 0)"/>
        <path id="Trazado_129788" data-name="Trazado 129788" d="M55.387,7.949q19.238,0,38.475-.018c.723,0,.9.159.9.895q-.035,28.627,0,57.254c0,.726-.163.9-.9.9-8.4-.029-16.807-.019-25.211-.018-1.62,0-2.048.393-2,2.011.017.647-.135.819-.8.816q-10.453-.042-20.906,0c-.648,0-.834-.138-.815-.8.047-1.624-.384-2.021-2-2.021-8.4,0-16.807-.01-25.211.018-.72,0-.906-.152-.905-.893q.035-28.626,0-57.254c0-.722.157-.9.894-.9q19.237.039,38.475.019m.022,56.2H89.924c1.608,0,2.012-.406,2.012-2.024q0-24.67,0-49.34c0-1.624-.4-2.028-2.006-2.028H20.9c-1.672,0-2.054.385-2.054,2.066q0,24.626,0,49.252c0,1.687.382,2.074,2.048,2.074H55.409" transform="translate(-10.378 -5.138)" fill="#e8ecf3"/>
        <path id="Trazado_129789" data-name="Trazado 129789" d="M50.228,189.185H12.9c-3.261,0-4.949-1.768-4.855-5.041.013-.448.114-.6.583-.59,1.258.032,2.517.011,3.776.011,7.641,0,15.283.01,22.923-.016.682,0,.88.161.859.853-.05,1.56.4,1.973,1.956,1.973H62.3c1.562,0,2.013-.414,1.968-1.965-.02-.675.149-.864.849-.862q13.218.04,26.437,0c.678,0,.868.157.86.851-.034,3.107-1.673,4.785-4.766,4.785H50.228" transform="translate(-5.211 -118.93)" fill="#cdd1de"/>
        <path id="Trazado_129790" data-name="Trazado 129790" d="M60.618,69.358H26.1c-1.666,0-2.048-.388-2.048-2.075V18.032c0-1.682.382-2.066,2.054-2.066h69.03c1.606,0,2.006.4,2.006,2.028q0,24.67,0,49.34c0,1.618-.4,2.024-2.012,2.024H60.618M90.816,18.8c-.292-.01-.584-.028-.876-.028q-31.05,0-62.1-.02c-.794,0-1,.19-.994.99q.04,21.2.02,42.409c0,.292.018.584.028.876-.01.848.036,1.7-.045,2.542-.078.812.2.993,1,.992q32.754-.034,65.508,0c.79,0,1-.183,1-.99q-.04-22.911-.019-45.822a3.5,3.5,0,0,1,0-.438c.052-.416-.111-.563-.537-.548-.994.035-1.989.027-2.984.037" transform="translate(-15.587 -10.345)"/>
        <path id="Trazado_129791" data-name="Trazado 129791" d="M32.034,68.17c-.01-.292-.028-.584-.028-.876q0-21.2-.02-42.41c0-.8.2-.99.994-.99q31.049.035,62.1.02c.292,0,.584.018.876.028q0,21.636.021,43.273c0,.783-.217.975-.985.974q-31.479-.033-62.957-.02M79.194,57.728c1.39.967,2.418,2.138,2.012,4.036a3.848,3.848,0,0,0-.007.788c0,2.181,0,2.162,2.208,2.124.521-.009.622-.182.614-.654q-.04-2.326,0-4.653a2,2,0,0,0-.644-1.561c-1.068-1.042-2.11-2.112-3.177-3.156a1.213,1.213,0,0,1-.423-.989c.038-1.2.051-2.4,0-3.6-.025-.652.108-.915.838-.879,1.373.067,2.751.019,4.127.019,2.121,0,2.1,0,2.093-2.152,0-.554-.157-.681-.689-.671-1.844.032-3.69-.028-5.532.032-.73.024-.886-.23-.834-.881a15.622,15.622,0,0,0,0-1.93c-.036-.813-.513-1.488-1.281-1.372-1.447.218-1.871-.508-2.023-1.694a.42.42,0,0,0-.042-.169c-.308-.479-.054-.707.356-.946,1.441-.836,2.829-1.769,4.3-2.537a2.568,2.568,0,0,0,1.53-2.742c-.1-1.8-.028-1.743-1.838-1.824-.885-.039-1.152.248-1,1.059a1.275,1.275,0,0,1-.834,1.5c-1.237.656-2.426,1.408-3.611,2.158-.419.265-.677.282-1.018-.134a5.553,5.553,0,0,0-2.03-1.648,1.518,1.518,0,0,1-.959-1.78,1.343,1.343,0,0,1,.448-.983c.513-.479.971-1.019,1.5-1.477a2.542,2.542,0,0,0,.9-2.164c-.051-2.19-.016-2.174-2.206-2.141-.491.007-.717.134-.621.631A2.807,2.807,0,0,1,70.134,30.2c-.975.808-1.906,1.69-1.591,3.177.088.416-.158.433-.514.426-1.492-.032-2.986-.057-4.477,0-.514.018-.707-.08-.624-.582a2.652,2.652,0,0,0-1.121-2.592c-.491-.412-.91-.91-1.372-1.357a.99.99,0,0,1-.332-.675c-.056-.617.335-1.462-.193-1.792-.465-.29-1.25-.07-1.894-.074-.146,0-.293,0-.439,0-.173,0-.276.089-.266.263.09,1.491-.481,3.136,1.107,4.266a9.653,9.653,0,0,1,1.433,1.418,1.725,1.725,0,0,1-.371,2.369,9.521,9.521,0,0,0-2.392,1.906c-.237.264-.409.42-.794.181-1.413-.882-2.848-1.73-4.285-2.571a.661.661,0,0,1-.332-.64c-.083-1.577-.09-1.577-1.68-1.577a2.24,2.24,0,0,1-.351,0c-.584-.094-.857.085-.787.736a9.373,9.373,0,0,1,0,1.666,1.818,1.818,0,0,0,1.057,1.844c1.6.917,3.164,1.883,4.739,2.835.194.118.555.2.515.423a8.27,8.27,0,0,1-.592,2.182c-.188.378-.811.127-1.235.144-1.147.043-1.648.525-1.664,1.673-.009.644-.033,1.29.008,1.931.033.5-.145.64-.636.629-1.434-.031-2.869-.011-4.3-.011-2.136,0-2.107,0-2.117,2.131,0,.627.233.7.757.691,1.9-.026,3.806,0,5.708-.02.459-.006.6.118.591.585-.027,1.346-.021,2.693.011,4.038a1.046,1.046,0,0,1-.413.816c-1.016,1.012-2.014,2.044-3.053,3.031a2.252,2.252,0,0,0-.785,1.857c.048.992.012,1.989.012,2.984,0,2.253,0,2.234,2.252,2.168.484-.014.577-.173.569-.609-.025-1.288-.012-2.576-.006-3.863a.956.956,0,0,1,.159-.742c.578-.634,1.135-1.287,1.755-2,2.441,6.117,6.612,9.7,12.966,9.934,6.919.252,11.458-3.406,14.033-9.671" transform="translate(-20.725 -15.483)" fill="#5eccf6"/>
        <path id="Trazado_129792" data-name="Trazado 129792" d="M32.018,68.188q31.478,0,62.957.02c.767,0,.986-.192.985-.974q-.037-21.636-.02-43.273c.995-.01,1.989,0,2.983-.037.426-.015.589.132.537.548a3.505,3.505,0,0,0,0,.439q0,22.911.019,45.822c0,.807-.209.991-1,.99q-32.755-.034-65.509,0c-.791,0-1.073-.18-.995-.992.08-.841.035-1.694.045-2.542" transform="translate(-20.709 -15.5)" fill="#5c97ef"/>
        <path id="Trazado_129793" data-name="Trazado 129793" d="M102.479,62.793c-2.575,6.265-7.114,9.924-14.033,9.671-6.354-.232-10.525-3.817-12.966-9.934-.62.708-1.177,1.361-1.755,2a.956.956,0,0,0-.159.742c-.005,1.288-.019,2.576.006,3.863.008.436-.085.595-.569.609-2.253.067-2.252.084-2.252-2.168,0-.995.036-1.992-.012-2.985a2.253,2.253,0,0,1,.785-1.856c1.039-.988,2.037-2.019,3.053-3.032a1.047,1.047,0,0,0,.413-.816c-.032-1.346-.038-2.692-.011-4.038.01-.467-.132-.591-.591-.586-1.9.025-3.806-.005-5.709.02-.524.007-.76-.064-.757-.691.01-2.131-.02-2.131,2.116-2.131,1.435,0,2.87-.02,4.3.011.491.01.669-.124.636-.629-.042-.641-.017-1.287-.008-1.931.016-1.148.517-1.63,1.664-1.673.425-.016,1.047.234,1.235-.144a8.265,8.265,0,0,0,.592-2.182c.04-.218-.32-.3-.514-.422-1.575-.953-3.143-1.919-4.74-2.835a1.817,1.817,0,0,1-1.057-1.844,9.439,9.439,0,0,0,0-1.666c-.07-.652.2-.83.787-.737a2.244,2.244,0,0,0,.351,0c1.59,0,1.6,0,1.68,1.576a.662.662,0,0,0,.333.64c1.437.841,2.872,1.689,4.285,2.571.385.24.557.083.794-.181a9.534,9.534,0,0,1,2.392-1.906,1.724,1.724,0,0,0,.371-2.369A9.651,9.651,0,0,0,81.7,36.323c-1.588-1.131-1.017-2.776-1.107-4.266-.011-.174.093-.261.266-.263.146,0,.293-.005.439,0,.644,0,1.429-.217,1.894.073.528.33.138,1.175.194,1.793a.987.987,0,0,0,.331.674c.463.448.881.946,1.373,1.358a2.652,2.652,0,0,1,1.121,2.592c-.083.5.109.6.624.582,1.49-.054,2.985-.03,4.476,0,.356.008.6-.01.514-.426-.316-1.487.615-2.369,1.591-3.176a2.808,2.808,0,0,0,1.228-2.854c-.1-.5.131-.624.622-.632,2.19-.033,2.154-.049,2.206,2.141a2.542,2.542,0,0,1-.9,2.164c-.531.458-.989,1-1.5,1.477a1.343,1.343,0,0,0-.448.983,1.519,1.519,0,0,0,.959,1.781,5.543,5.543,0,0,1,2.03,1.648c.341.415.6.4,1.018.134,1.185-.749,2.373-1.5,3.611-2.158a1.274,1.274,0,0,0,.833-1.5c-.153-.811.114-1.1,1-1.059,1.81.081,1.736.028,1.838,1.824a2.569,2.569,0,0,1-1.53,2.742c-1.475.768-2.864,1.7-4.3,2.537-.41.238-.665.466-.356.945a.419.419,0,0,1,.042.17c.152,1.186.575,1.912,2.023,1.694.768-.116,1.245.559,1.281,1.372a15.622,15.622,0,0,1,0,1.93c-.052.651.1.9.834.881,1.843-.06,3.688,0,5.532-.032.531-.01.687.117.688.671,0,2.152.028,2.152-2.093,2.152-1.376,0-2.754.048-4.127-.019-.73-.036-.864.227-.838.879.047,1.2.033,2.4,0,3.6a1.212,1.212,0,0,0,.423.988c1.067,1.044,2.108,2.114,3.176,3.156a2,2,0,0,1,.644,1.561q-.039,2.326,0,4.653c.008.472-.093.645-.614.654-2.209.038-2.208.058-2.208-2.124a3.851,3.851,0,0,1,.007-.789c.406-1.9-.622-3.069-2.012-4.035M90.96,41.67c-1.286-.011-2.575-.087-3.857-.018a6.88,6.88,0,0,0-6.3,5.565H94.468c.758.01,1.517,0,2.273.036.516.027.557-.134.426-.6A6.983,6.983,0,0,0,90.96,41.67M79.812,64.844c.2.284.389.582.61.852,1.03,1.255,1.287,1.324,2.828.8a6.842,6.842,0,0,0,4.362-6.675q.031-3.555,0-7.111c-.009-.865.387-2.049-.17-2.513-.585-.488-1.733-.14-2.635-.111-2.16-.01-4.32,0-6.479-.04-.508-.008-.555.213-.552.625.015,2.772-.043,5.546.031,8.317a10.055,10.055,0,0,0,2.008,5.858m14.833,1.547c1.594.672,1.9.6,2.965-.679a10.781,10.781,0,0,0,2.512-5.585,66.268,66.268,0,0,0,.133-7.433c.014-.861.393-2.079-.17-2.494-.587-.433-1.731-.109-2.632-.116-2.131-.01-4.263,0-6.393-.044-.6-.013-.643.239-.64.719q.025,4.335,0,8.67a8.674,8.674,0,0,0,.188,2c.533,2.308,1.632,4.167,4.034,4.962m-1.457,2.524a9.262,9.262,0,0,1-4.177-3.757A9.2,9.2,0,0,1,84.9,68.922a11.258,11.258,0,0,0,8.292-.008" transform="translate(-44.01 -20.548)" fill="#010101"/>
        <path id="Trazado_129794" data-name="Trazado 129794" d="M136.058,100.123c-2.4-.795-3.5-2.654-4.034-4.962a8.7,8.7,0,0,1-.188-2q.018-4.335,0-8.67c0-.479.039-.732.64-.718,2.131.048,4.262.034,6.393.044,0,2.686-.01,5.373.006,8.059a12.612,12.612,0,0,1-2.814,8.248" transform="translate(-85.422 -54.281)" fill="#ee9c54"/>
        <path id="Trazado_129795" data-name="Trazado 129795" d="M97.931,98.584a10.052,10.052,0,0,1-2.009-5.858c-.074-2.771-.016-5.545-.031-8.317,0-.411.045-.633.552-.625,2.159.036,4.32.03,6.479.04,0,1.923-.022,3.845.012,5.767a12.259,12.259,0,0,1-.385,3.62c-.715,2.487-2.011,4.5-4.618,5.372" transform="translate(-62.128 -54.289)" fill="#ee9c54"/>
        <path id="Trazado_129796" data-name="Trazado 129796" d="M118.172,65.46H104.505a6.88,6.88,0,0,1,6.3-5.565c1.281-.069,2.571.007,3.856.018a8.221,8.221,0,0,1,3.508,5.548" transform="translate(-67.715 -38.79)" fill="#f7d861"/>
        <path id="Trazado_129797" data-name="Trazado 129797" d="M101.7,98.387c2.608-.872,3.9-2.885,4.618-5.372a12.259,12.259,0,0,0,.385-3.62c-.033-1.922-.01-3.845-.012-5.767.9-.03,2.051-.376,2.636.111.557.464.161,1.648.17,2.513q.035,3.555,0,7.111a6.841,6.841,0,0,1-4.362,6.675c-1.541.526-1.8.457-2.828-.8-.221-.269-.408-.567-.61-.852" transform="translate(-65.896 -54.091)" fill="#ec7750"/>
        <path id="Trazado_129798" data-name="Trazado 129798" d="M143.834,100a12.612,12.612,0,0,0,2.814-8.248c-.015-2.686,0-5.373-.006-8.059.9.007,2.045-.316,2.631.116.563.415.184,1.633.17,2.494a66.183,66.183,0,0,1-.133,7.433,10.778,10.778,0,0,1-2.512,5.585c-1.066,1.284-1.372,1.352-2.965.679" transform="translate(-93.198 -54.16)" fill="#ec7750"/>
        <path id="Trazado_129799" data-name="Trazado 129799" d="M124.431,130.473a11.258,11.258,0,0,1-8.292.008,9.2,9.2,0,0,0,4.115-3.765,9.262,9.262,0,0,0,4.177,3.757" transform="translate(-75.253 -82.106)" fill="#f3d45f"/>
        <path id="Trazado_129800" data-name="Trazado 129800" d="M136.872,65.545A8.221,8.221,0,0,0,133.364,60a6.984,6.984,0,0,1,6.207,4.984c.131.465.09.627-.426.6-.757-.04-1.516-.026-2.273-.036" transform="translate(-86.414 -38.875)" fill="#eea445"/>
      </g>
    </g>
  </g>
</svg>
