<svg xmlns="http://www.w3.org/2000/svg" xmlns:xlink="http://www.w3.org/1999/xlink" width="96" height="96" viewBox="0 0 96 96">
  <defs>
    <clipPath id="clip-path">
      <rect id="Rect치ngulo_36927" data-name="Rect치ngulo 36927" width="96" height="96" fill="#fff" stroke="#707070" stroke-width="1"/>
    </clipPath>
    <clipPath id="clip-path-2">
      <rect id="Rect치ngulo_36932" data-name="Rect치ngulo 36932" width="75.469" height="75.352" fill="none"/>
    </clipPath>
  </defs>
  <g id="Grupo_86692" data-name="Grupo 86692" clip-path="url(#clip-path)">
    <g id="Grupo_86710" data-name="Grupo 86710" transform="translate(10.266 10.324)">
      <g id="Grupo_86709" data-name="Grupo 86709" clip-path="url(#clip-path-2)">
        <path id="Trazado_130871" data-name="Trazado 130871" d="M28.943,1.124C29.211.21,29.469,0,30.393,0Q42.846,0,55.3,0a2.932,2.932,0,0,1,3.133,2.839,29.341,29.341,0,0,1-.014,3.092,2.663,2.663,0,0,1-1.4,2.281.774.774,0,0,0-.433.812c.016,1.253.036,2.506-.008,3.757-.019.542.167.632.662.63,4.446-.019,8.891-.013,13.337-.011a4.556,4.556,0,0,1,4.9,4.928q0,27.706,0,55.412c0,1.3-.3,1.607-1.593,1.607H1.591C.3,75.352,0,75.048,0,73.743Q0,46.037,0,18.331a4.555,4.555,0,0,1,4.9-4.926c4.446,0,8.891-.009,13.337.011.495,0,.68-.087.662-.63-.043-1.276-.021-2.554-.009-3.831a.667.667,0,0,0-.369-.7,2.9,2.9,0,0,1-1.5-2.684c-.012-.835-.024-1.671,0-2.505A2.972,2.972,0,0,1,20.17,0C21.84,0,23.51,0,25.18,0c1.117,0,1.29.123,1.656,1.162A1.466,1.466,0,0,1,25.147,2.23c-1.619-.053-3.242-.021-4.863-.013-.8,0-1.014.21-1.029.994-.013.639,0,1.277,0,1.916,0,1.225.126,1.351,1.35,1.351H54.867c.147,0,.295,0,.442,0a.806.806,0,0,0,.908-.908c0-.688,0-1.375,0-2.063,0-1.167-.13-1.291-1.328-1.291H30.5c-1.023,0-1.249-.162-1.556-1.09M59.112,43.675c1.014.054,1.014.054,1.015-.929,0-1.522-.005-3.044,0-4.566a2.438,2.438,0,0,1,2.607-2.63c1.423-.01,2.847-.006,4.271,0a2.473,2.473,0,0,1,2.713,2.687c.006,1.644.016,3.289-.008,4.933-.007.455.139.6.587.581a18.726,18.726,0,0,1,2.208,0c.631.048.765-.185.763-.782-.021-6.48-.013-12.96-.013-19.44,0-1.841.012-3.682,0-5.523a2.281,2.281,0,0,0-2.215-2.379c-3.976-.019-7.951.007-11.927.014-.564-.009-1.134.027-1.691-.037-.695-.08-.843.192-.841.851q.032,13.225.014,26.45c0,.147.008.3,0,.442-.014.283.121.406.4.392a12.634,12.634,0,0,0,2.124-.069M16.359,15.646q-5.67-.014-11.34-.026c-1.971,0-2.807.843-2.807,2.833q0,22.941,0,45.882c0,.295.021.591-.005.883-.035.4.1.564.529.556,1.227-.025,2.456-.033,3.682,0,.508.015.611-.2.638-.644A14.032,14.032,0,0,1,11.3,55.847q2.539-2.56,5.072-5.127a20.412,20.412,0,0,1,1.785-1.639,1.747,1.747,0,0,0,.741-1.613q-.031-15.394-.014-30.788c0-.2-.013-.394,0-.589.027-.342-.1-.489-.46-.476-.686.025-1.374.022-2.061.03M59.022,66.9c.25-.913.532-1.131,1.519-1.131,4,0,8.006-.013,12.008.012.567,0,.724-.129.722-.713q-.035-9.209,0-18.418c0-.567-.131-.723-.714-.722q-20.076.027-40.151.013a20.121,20.121,0,0,0-5.376.738c-.531.146-.772.349-.73.937.056.782.022,1.571.012,2.357a26.186,26.186,0,0,1-.135,4.412,8.893,8.893,0,0,1-8.8,7.4q-3.351.041-6.7-.009a.773.773,0,0,0-.914.68,17.74,17.74,0,0,0-.5,2.669c-.046.514.067.658.6.657q9.356-.028,18.712,0c.539,0,.631-.162.628-.657q-.034-4.936-.007-9.872A4.061,4.061,0,0,1,33.3,51.142c1.2-.014,2.406-.005,3.61,0a4.09,4.09,0,0,1,4.365,4.376c0,3.168.018,6.336-.014,9.5-.006.6.115.771.746.767,4.445-.032,8.89-.018,13.334-.016,1.012,0,1.316.245,1.46,1.139-.158.888-.411,1.071-1.5,1.071H3.211a4.1,4.1,0,0,1-.515,0c-.4-.051-.5.131-.491.5.019,1.252.054,2.507-.011,3.756-.038.729.147.921.9.921q34.624-.035,69.248-.019a.873.873,0,0,1,.147,0c.583.1.813-.08.781-.73-.06-1.225-.053-2.456,0-3.682.025-.617-.157-.767-.768-.763-4,.029-8.005.017-12.008.014-.98,0-1.2-.169-1.474-1.078m-37.9-54.95c-.011.22-.031.44-.031.661q0,16.76,0,33.521c0,.2.017.392.025.587l.017.1.128-.07a1.167,1.167,0,0,0,.206-.073,22.011,22.011,0,0,1,11.386-2.96c6.9.037,13.8,0,20.7.028.7,0,.831-.208.83-.858q-.03-15.1-.015-30.206c0-.245-.02-.489-.03-.734.011-.809-.017-1.621.045-2.426.05-.655-.132-.857-.826-.855-7.043.028-14.085.017-21.128.017-3.534,0-7.067.016-10.6-.015-.625-.006-.8.177-.753.779.06.83.034,1.666.045,2.5M39.06,60.292c0-1.62.009-3.241,0-4.861a1.888,1.888,0,0,0-2.046-2.074q-1.8-.015-3.609,0a1.858,1.858,0,0,0-2,1.97c-.016,3.29,0,6.579-.015,9.869,0,.457.141.582.585.578q3.24-.03,6.481,0c.488.006.623-.147.616-.623-.026-1.62-.01-3.24-.01-4.861m-27.933-.726c2.273,0,4.408.042,6.541-.01a6.589,6.589,0,0,0,6.375-6.139c.1-1.663.027-3.336.062-5,.011-.53-.133-.583-.576-.349A19.192,19.192,0,0,0,19,51.3c-2.082,2.048-4.141,4.119-6.206,6.184a10.993,10.993,0,0,0-1.662,2.085M67.509,40.8c0-.81-.019-1.621.007-2.431.014-.434-.111-.618-.576-.61-1.35.023-2.7.019-4.052,0-.406-.005-.565.121-.56.547q.028,2.468,0,4.936c0,.387.118.506.5.5q2.1-.029,4.2,0c.4.006.5-.144.486-.514-.023-.81-.007-1.621-.007-2.431" transform="translate(0 0)" fill="#020202"/>
        <path id="Trazado_130872" data-name="Trazado 130872" d="M74.865,3.805c.307.929.534,1.09,1.556,1.091h24.39c1.2,0,1.325.124,1.328,1.291,0,.688,0,1.375,0,2.063a.806.806,0,0,1-.908.907c-.147,0-.295,0-.442,0H66.525c-1.224,0-1.349-.125-1.35-1.35,0-.639-.01-1.278,0-1.916.016-.784.227-.991,1.029-.994,1.621-.008,3.244-.04,4.863.013a1.466,1.466,0,0,0,1.689-1.065l2.107-.041" transform="translate(-45.922 -2.681)" fill="#5d6e9a"/>
        <path id="Trazado_130873" data-name="Trazado 130873" d="M71.447,75.237c-.009-.2-.025-.392-.025-.587q0-16.76,0-33.521c0-.22.02-.44.031-.66h33.217c.011.245.03.49.031.734q0,15.1.015,30.206c0,.65-.131.861-.83.858-6.9-.029-13.8.009-20.7-.028A22.012,22.012,0,0,0,71.8,75.2a1.145,1.145,0,0,1-.206.073l-.145-.033m3.608-28.48c0,1.177-.012,2.355,0,3.532A2.409,2.409,0,0,0,77.6,52.831q2.244.024,4.488,0A2.441,2.441,0,0,0,84.65,50.3q.03-3.532,0-7.064a2.409,2.409,0,0,0-2.518-2.49q-2.281-.02-4.562,0a2.372,2.372,0,0,0-2.51,2.481c-.019,1.177,0,2.355,0,3.532m26.012.039q0-1.729,0-3.459c0-.049,0-.1,0-.147a2.379,2.379,0,0,0-2.474-2.445q-2.318-.023-4.636,0A2.4,2.4,0,0,0,91.475,43.2q-.039,3.568,0,7.137A2.431,2.431,0,0,0,94,52.83q2.281.028,4.562,0a2.4,2.4,0,0,0,2.5-2.5c.019-1.177,0-2.355,0-3.532m0,15.586c0-1.178.016-2.355,0-3.532a2.375,2.375,0,0,0-2.511-2.481c-1.5-.013-2.992-.01-4.488,0a2.426,2.426,0,0,0-2.593,2.565q-.022,3.458,0,6.917a2.449,2.449,0,0,0,2.567,2.606q2.244.023,4.489,0a2.408,2.408,0,0,0,2.538-2.542c.016-1.177,0-2.355,0-3.532m-26.012.054V65.82c0,.049,0,.1,0,.147A2.4,2.4,0,0,0,77.5,68.451q2.354.04,4.709,0a2.4,2.4,0,0,0,2.435-2.434q.046-3.6,0-7.211a2.394,2.394,0,0,0-2.5-2.437q-2.281-.022-4.562,0a2.378,2.378,0,0,0-2.53,2.535c-.015,1.177,0,2.355,0,3.532" transform="translate(-50.327 -28.515)" fill="#9ad7d1"/>
        <path id="Trazado_130874" data-name="Trazado 130874" d="M78.858,176.492c-.144-.895-.448-1.139-1.46-1.139-4.445,0-8.89-.016-13.334.016-.63,0-.752-.171-.746-.767.032-3.168.018-6.335.014-9.5a4.09,4.09,0,0,0-4.365-4.376c-1.2,0-2.407-.012-3.61,0a4.061,4.061,0,0,0-4.107,4.112q-.027,4.936.007,9.872c0,.5-.089.659-.628.657q-9.356-.032-18.713,0c-.533,0-.647-.142-.6-.657a17.744,17.744,0,0,1,.5-2.67.773.773,0,0,1,.914-.68q3.351.055,6.7.008a8.893,8.893,0,0,0,8.8-7.4,26.185,26.185,0,0,0,.135-4.412c.01-.786.044-1.574-.012-2.357-.042-.587.2-.79.73-.937a20.122,20.122,0,0,1,5.376-.738q20.075,0,40.151-.013c.583,0,.715.155.714.722q-.032,9.209,0,18.418c0,.584-.155.717-.722.713-4-.025-8.005-.015-12.008-.012-.986,0-1.269.218-1.519,1.131l-2.225.008M66.282,166.148c0,.736-.014,1.473,0,2.208a3.25,3.25,0,0,0,3.078,3.246c1.567.075,3.142.07,4.71,0a3.239,3.239,0,0,0,3.108-3.215c.028-1.5.033-2.994,0-4.49a3.241,3.241,0,0,0-3.219-3.173q-2.208-.034-4.417,0a3.259,3.259,0,0,0-3.257,3.213c-.019.736,0,1.472,0,2.209M86.2,160.722c-.712,0-1.423-.008-2.135,0a3.268,3.268,0,0,0-3.335,3.362q-.019,2.1,0,4.2a3.278,3.278,0,0,0,3.223,3.336c1.5.043,2.995.048,4.49,0a3.265,3.265,0,0,0,3.187-3.294c.02-1.448.023-2.9,0-4.343a3.261,3.261,0,0,0-3.294-3.253c-.712-.011-1.423,0-2.135,0" transform="translate(-22.061 -109.582)" fill="#eceeef"/>
        <path id="Trazado_130875" data-name="Trazado 130875" d="M21.621,87.985q-2.536,2.564-5.072,5.127a14.035,14.035,0,0,0-4.239,9.286c-.027.446-.13.658-.638.644-1.227-.035-2.455-.027-3.682,0-.432.009-.564-.151-.529-.556.026-.292,0-.589,0-.883q0-22.941,0-45.882c0-1.99.836-2.836,2.807-2.833q5.67.01,11.34.027,0,17.537.008,35.074M20.6,78.85c0-1.153.007-2.305,0-3.458a2.431,2.431,0,0,0-2.584-2.575q-2.207-.018-4.414,0a2.445,2.445,0,0,0-2.59,2.582q-.016,3.495,0,6.989A2.371,2.371,0,0,0,13.489,84.9q2.317.022,4.635,0a2.356,2.356,0,0,0,2.468-2.443c.017-1.2,0-2.4,0-3.605m0-16.123c0-1.153.005-2.305,0-3.458a2.423,2.423,0,0,0-2.53-2.632c-1.494-.048-2.992-.043-4.487,0A2.448,2.448,0,0,0,11,59.312Q11,62.7,11,66.08a2.421,2.421,0,0,0,2.432,2.663c1.566.07,3.14.069,4.707,0A2.4,2.4,0,0,0,20.6,66.111c.006-1.128,0-2.256,0-3.384" transform="translate(-5.254 -37.266)" fill="#5d6e9b"/>
        <path id="Trazado_130876" data-name="Trazado 130876" d="M62.02,226.528l2.225-.008c.273.91.494,1.078,1.474,1.078,4,0,8.005.015,12.008-.014.61,0,.793.146.768.762-.05,1.226-.057,2.457,0,3.682.032.65-.2.83-.781.73a.874.874,0,0,0-.147,0q-34.624,0-69.248.02c-.756,0-.942-.191-.9-.921.065-1.249.03-2.5.011-3.756-.006-.373.091-.555.491-.5a4.1,4.1,0,0,0,.515,0H60.518c1.092,0,1.345-.184,1.5-1.071" transform="translate(-5.223 -159.618)" fill="#b9bbbb"/>
        <path id="Trazado_130877" data-name="Trazado 130877" d="M200.135,52.924c3.976-.008,7.952-.033,11.927-.014a2.28,2.28,0,0,1,2.215,2.379c.017,1.841,0,3.682,0,5.522,0,6.481-.008,12.96.013,19.44,0,.6-.133.83-.763.782a18.664,18.664,0,0,0-2.208,0c-.448.019-.594-.125-.587-.581.024-1.644.014-3.289.008-4.933a2.473,2.473,0,0,0-2.713-2.687c-1.424,0-2.847-.009-4.271,0a2.438,2.438,0,0,0-2.607,2.63c-.007,1.522,0,3.044,0,4.565,0,.983,0,.983-1.015.929q0-14.014,0-28.029m1.017,9.788c0,1.128,0,2.256,0,3.384a2.42,2.42,0,0,0,2.5,2.666c1.543.057,3.091.061,4.633,0a2.426,2.426,0,0,0,2.461-2.639q.01-3.457,0-6.915a2.327,2.327,0,0,0-2.183-2.5,30.037,30.037,0,0,0-5.286.008,2.287,2.287,0,0,0-2.117,2.4c-.014,1.2,0,2.4,0,3.6" transform="translate(-141.026 -37.278)" fill="#5d6e9b"/>
        <path id="Trazado_130878" data-name="Trazado 130878" d="M104.624,32.64H71.406c-.011-.833.015-1.669-.045-2.5-.044-.6.127-.785.753-.779,3.533.031,7.067.015,10.6.015,7.043,0,14.085.011,21.128-.017.694,0,.876.2.826.855-.062.8-.034,1.617-.045,2.426" transform="translate(-50.28 -20.689)" fill="#7fb3b0"/>
        <path id="Trazado_130879" data-name="Trazado 130879" d="M113.947,187.572c0,1.62-.016,3.241.01,4.861.008.477-.128.629-.615.623-2.16-.025-4.321-.021-6.481,0-.445,0-.588-.121-.585-.578.018-3.29,0-6.579.015-9.869a1.858,1.858,0,0,1,2-1.97c1.2-.013,2.406-.011,3.609,0a1.888,1.888,0,0,1,2.046,2.074c.011,1.62,0,3.241,0,4.861" transform="translate(-74.887 -127.28)" fill="#5e6e9b"/>
        <path id="Trazado_130880" data-name="Trazado 130880" d="M55.4,87.975q0-17.537-.008-35.074c.687-.008,1.374-.005,2.061-.03.357-.013.487.133.46.475-.015.2,0,.393,0,.589q0,15.394.014,30.788a1.747,1.747,0,0,1-.741,1.613A20.5,20.5,0,0,0,55.4,87.975" transform="translate(-39.031 -37.255)" fill="#55648a"/>
        <path id="Trazado_130881" data-name="Trazado 130881" d="M37.673,173.923a10.991,10.991,0,0,1,1.662-2.085c2.065-2.065,4.124-4.136,6.206-6.185a19.211,19.211,0,0,1,4.535-3.232c.442-.235.587-.182.575.349-.035,1.668.035,3.341-.062,5a6.589,6.589,0,0,1-6.375,6.138c-2.133.052-4.268.01-6.541.01" transform="translate(-26.546 -114.358)" fill="#bdd9f8"/>
        <path id="Trazado_130882" data-name="Trazado 130882" d="M194.091,52.853q0,14.015,0,28.029a12.663,12.663,0,0,1-2.124.069c-.276.014-.411-.109-.4-.392.007-.147,0-.295,0-.442q0-13.225-.014-26.45c0-.66.147-.931.841-.851.558.064,1.127.029,1.692.038" transform="translate(-134.982 -37.207)" fill="#55648a"/>
        <path id="Trazado_130883" data-name="Trazado 130883" d="M216.214,130.876c0,.81-.016,1.621.007,2.431.01.369-.082.52-.486.514q-2.1-.033-4.2,0c-.385.005-.507-.114-.5-.5q.027-2.468,0-4.936c-.005-.426.154-.552.56-.547,1.351.017,2.7.021,4.052,0,.465-.008.59.176.576.61-.026.81-.007,1.621-.007,2.431" transform="translate(-148.705 -90.079)" fill="#f3dc8c"/>
        <path id="Trazado_130884" data-name="Trazado 130884" d="M71.509,158.191l.145.033-.128.07-.017-.1" transform="translate(-50.389 -111.47)" fill="#7fb3b0"/>
        <path id="Trazado_130885" data-name="Trazado 130885" d="M83.713,47.394c0-1.177-.015-2.355,0-3.532a2.372,2.372,0,0,1,2.509-2.481q2.281-.018,4.562,0a2.408,2.408,0,0,1,2.518,2.49q.035,3.532,0,7.064a2.441,2.441,0,0,1-2.566,2.533q-2.244.023-4.488,0a2.409,2.409,0,0,1-2.537-2.542c-.015-1.177,0-2.355,0-3.532m2.212.013c0,1.1.014,2.209-.007,3.313-.008.416.134.555.552.548q2.024-.032,4.049,0c.455.008.594-.152.591-.6q-.026-3.239,0-6.478c0-.422-.085-.622-.566-.613-1.373.028-2.748.022-4.122,0-.393-.006-.507.136-.5.512.018,1.1.006,2.208.006,3.313" transform="translate(-58.985 -29.152)" fill="#030303"/>
        <path id="Trazado_130886" data-name="Trazado 130886" d="M148.868,47.431c0,1.177.015,2.355,0,3.532a2.4,2.4,0,0,1-2.5,2.5q-2.281.029-4.562,0a2.432,2.432,0,0,1-2.525-2.5q-.033-3.569,0-7.138a2.4,2.4,0,0,1,2.481-2.451q2.317-.024,4.635,0a2.38,2.38,0,0,1,2.475,2.445c0,.049,0,.1,0,.147q0,1.729,0,3.459m-2.212.054c0-1.1-.017-2.209.008-3.313.01-.435-.1-.6-.572-.595q-2.024.044-4.049,0c-.473-.01-.575.177-.572.606q.025,3.239,0,6.478c0,.437.12.612.583.6,1.349-.025,2.7-.028,4.048,0,.49.011.566-.206.558-.617-.019-1.055-.006-2.11-.007-3.166" transform="translate(-98.127 -29.15)" fill="#030303"/>
        <path id="Trazado_130887" data-name="Trazado 130887" d="M148.878,100.3c0,1.178.013,2.355,0,3.532a2.408,2.408,0,0,1-2.538,2.543q-2.244.024-4.488,0a2.448,2.448,0,0,1-2.567-2.606q-.018-3.458,0-6.917a2.426,2.426,0,0,1,2.593-2.566c1.5-.009,2.992-.012,4.489,0a2.374,2.374,0,0,1,2.511,2.481c.02,1.177,0,2.355,0,3.532m-7.388-.035c0,1.1.016,2.209-.008,3.313-.01.446.135.6.59.6q2.024-.035,4.049,0c.418.007.555-.132.552-.548q-.022-3.312,0-6.625c0-.376-.11-.517-.5-.512-1.374.019-2.748.025-4.122,0-.481-.01-.574.192-.565.613.022,1.055.007,2.11.007,3.165" transform="translate(-98.138 -66.432)" fill="#030303"/>
        <path id="Trazado_130888" data-name="Trazado 130888" d="M83.715,100.35c0-1.177-.012-2.355,0-3.532a2.378,2.378,0,0,1,2.53-2.535q2.281-.017,4.562,0a2.394,2.394,0,0,1,2.5,2.437q.046,3.6,0,7.211a2.4,2.4,0,0,1-2.434,2.434q-2.354.044-4.709,0a2.4,2.4,0,0,1-2.446-2.484c0-.049,0-.1,0-.147q0-1.693,0-3.385m2.212-.092c0,1.1.015,2.209-.007,3.313-.009.431.1.611.575.6q1.987-.042,3.975,0c.471.009.649-.124.644-.62q-.033-3.239,0-6.478c0-.45-.139-.6-.59-.59-1.349.024-2.7.03-4.049,0-.491-.012-.561.2-.553.611.021,1.055.007,2.11.007,3.166" transform="translate(-58.987 -66.43)" fill="#030303"/>
        <path id="Trazado_130889" data-name="Trazado 130889" d="M149.71,178.553c0-.736-.016-1.473,0-2.208a3.258,3.258,0,0,1,3.257-3.213q2.208-.029,4.417,0a3.241,3.241,0,0,1,3.218,3.173c.035,1.5.031,2.994,0,4.49a3.238,3.238,0,0,1-3.109,3.215c-1.567.066-3.143.072-4.71,0a3.25,3.25,0,0,1-3.078-3.247c-.017-.736,0-1.472,0-2.208m2.21-.04c0,.711-.015,1.422,0,2.132a1.072,1.072,0,0,0,1.138,1.168q2.1.039,4.191,0a1.067,1.067,0,0,0,1.145-1.161q.028-2.1,0-4.192a1.051,1.051,0,0,0-1.173-1.119q-2.059-.021-4.118,0a1.07,1.07,0,0,0-1.183,1.185c-.016.661,0,1.323,0,1.985" transform="translate(-105.489 -121.987)" fill="#020202"/>
        <path id="Trazado_130890" data-name="Trazado 130890" d="M204.082,173.144c.712,0,1.423-.009,2.135,0a3.261,3.261,0,0,1,3.294,3.253c.025,1.447.022,2.9,0,4.343a3.265,3.265,0,0,1-3.187,3.294c-1.5.051-2.994.046-4.49,0a3.278,3.278,0,0,1-3.223-3.336q-.024-2.1,0-4.2a3.267,3.267,0,0,1,3.335-3.362c.712-.009,1.423,0,2.135,0m3.223,5.433c0-.686.015-1.373,0-2.059a1.054,1.054,0,0,0-1.136-1.157q-2.1-.027-4.191,0a1.048,1.048,0,0,0-1.146,1.144c-.019,1.372-.017,2.745,0,4.118a1.082,1.082,0,0,0,1.172,1.21q2.058.035,4.118,0a1.089,1.089,0,0,0,1.187-1.2c.017-.686,0-1.372,0-2.059" transform="translate(-139.945 -122.004)" fill="#020202"/>
        <path id="Trazado_130891" data-name="Trazado 130891" d="M29.044,126.382c0,1.2.013,2.4,0,3.605a2.357,2.357,0,0,1-2.468,2.443q-2.318.022-4.635,0a2.371,2.371,0,0,1-2.482-2.511q-.019-3.495,0-6.989a2.445,2.445,0,0,1,2.59-2.582q2.207-.018,4.414,0a2.43,2.43,0,0,1,2.584,2.575c.009,1.153,0,2.305,0,3.458m-7.38.015c0,1.1.011,2.207-.006,3.31-.006.369.093.53.493.525q2.1-.026,4.192,0c.393.005.5-.139.5-.515q-.021-3.31,0-6.62c0-.429-.163-.546-.564-.542-1.348.016-2.7.021-4.045,0-.462-.008-.587.171-.578.607.024,1.078.008,2.157.008,3.236" transform="translate(-13.702 -84.798)" fill="#020202"/>
        <path id="Trazado_130892" data-name="Trazado 130892" d="M29.051,71.6c0,1.128,0,2.256,0,3.384A2.4,2.4,0,0,1,26.6,77.614c-1.567.067-3.14.069-4.707,0a2.421,2.421,0,0,1-2.432-2.663q-.008-3.384,0-6.768A2.448,2.448,0,0,1,22.033,65.5c1.5-.04,2.993-.045,4.487,0a2.423,2.423,0,0,1,2.53,2.632c.006,1.153,0,2.305,0,3.458m-7.382-.1c0,1.08.023,2.16-.01,3.238-.015.5.123.7.653.685,1.3-.031,2.6-.022,3.9,0,.454.006.649-.1.642-.617-.029-2.159-.023-4.318,0-6.477,0-.44-.116-.614-.574-.607q-2.024.031-4.048,0c-.465-.007-.579.183-.568.616.027,1.054.009,2.11.009,3.165" transform="translate(-13.709 -46.135)" fill="#020202"/>
        <path id="Trazado_130893" data-name="Trazado 130893" d="M203.572,71.505c0-1.2-.011-2.4,0-3.6a2.287,2.287,0,0,1,2.117-2.4,30.065,30.065,0,0,1,5.286-.008,2.327,2.327,0,0,1,2.183,2.5q.016,3.457,0,6.915a2.426,2.426,0,0,1-2.46,2.638c-1.542.064-3.091.061-4.633,0a2.42,2.42,0,0,1-2.5-2.666c0-1.128,0-2.256,0-3.384m2.209-.019c0,1.1.009,2.208-.006,3.312,0,.354.072.553.478.55,1.4-.012,2.8-.009,4.2,0,.371,0,.514-.134.512-.521q-.021-3.312,0-6.624c0-.429-.16-.553-.559-.55-1.349.013-2.7.018-4.048,0-.449-.007-.6.149-.584.6.028,1.079.009,2.159.009,3.238" transform="translate(-143.445 -46.071)" fill="#020202"/>
        <path id="Trazado_130894" data-name="Trazado 130894" d="M91.2,52.676c0-1.1.012-2.209-.006-3.313-.006-.376.108-.517.5-.512,1.374.019,2.749.025,4.122,0,.481-.009.569.191.566.613q-.023,3.239,0,6.478c0,.445-.136.6-.591.6q-2.024-.035-4.049,0c-.418.007-.56-.132-.552-.548.021-1.1.007-2.208.007-3.313" transform="translate(-64.257 -34.421)" fill="#eceeef"/>
        <path id="Trazado_130895" data-name="Trazado 130895" d="M151.941,52.754c0,1.055-.012,2.111.006,3.166.007.411-.069.628-.558.617-1.349-.03-2.7-.026-4.049,0-.463.008-.587-.167-.583-.6q.024-3.239,0-6.478c0-.429.1-.616.572-.606q2.024.041,4.048,0c.469-.01.582.16.572.595-.025,1.1-.008,2.208-.008,3.313" transform="translate(-103.413 -34.42)" fill="#eceeef"/>
        <path id="Trazado_130896" data-name="Trazado 130896" d="M146.763,105.53c0-1.055.014-2.111-.007-3.165-.009-.422.084-.623.565-.613,1.374.028,2.748.022,4.122,0,.393-.006.5.136.5.512q-.019,3.312,0,6.625c0,.416-.134.555-.552.548q-2.024-.032-4.048,0c-.455.008-.6-.151-.59-.6.024-1.1.008-2.208.008-3.313" transform="translate(-103.411 -71.699)" fill="#eceeef"/>
        <path id="Trazado_130897" data-name="Trazado 130897" d="M91.2,105.525c0-1.055.014-2.111-.007-3.166-.008-.413.063-.623.553-.611,1.349.032,2.7.026,4.049,0,.451-.008.594.139.59.59q-.028,3.239,0,6.478c.005.5-.173.629-.644.62q-1.987-.039-3.975,0c-.47.01-.583-.17-.574-.6.022-1.1.007-2.208.007-3.313" transform="translate(-64.257 -71.697)" fill="#eceeef"/>
        <path id="Trazado_130898" data-name="Trazado 130898" d="M157.2,183.8c0-.662-.013-1.324,0-1.985a1.07,1.07,0,0,1,1.183-1.185q2.059-.022,4.118,0a1.051,1.051,0,0,1,1.173,1.119q.033,2.1,0,4.192a1.067,1.067,0,0,1-1.145,1.161q-2.1.037-4.191,0a1.072,1.072,0,0,1-1.138-1.168c-.019-.71,0-1.422,0-2.132" transform="translate(-110.764 -127.272)" fill="#bdd9f8"/>
        <path id="Trazado_130899" data-name="Trazado 130899" d="M212.583,183.844c0,.686.014,1.373,0,2.059a1.089,1.089,0,0,1-1.187,1.2q-2.058.032-4.118,0a1.082,1.082,0,0,1-1.172-1.21c-.015-1.372-.017-2.745,0-4.118a1.048,1.048,0,0,1,1.146-1.144q2.1-.025,4.192,0a1.054,1.054,0,0,1,1.136,1.157c.019.686,0,1.372,0,2.059" transform="translate(-145.223 -127.271)" fill="#bdd9f8"/>
        <path id="Trazado_130900" data-name="Trazado 130900" d="M26.934,131.681c0-1.079.016-2.158-.008-3.236-.009-.436.115-.615.578-.607,1.348.023,2.7.018,4.045,0,.4,0,.567.113.564.542q-.025,3.31,0,6.62c0,.376-.105.52-.5.515q-2.1-.028-4.192,0c-.4.005-.5-.157-.493-.525.017-1.1.006-2.207.006-3.31" transform="translate(-18.973 -90.081)" fill="#f6df8e"/>
        <path id="Trazado_130901" data-name="Trazado 130901" d="M26.924,76.844c0-1.055.018-2.111-.009-3.165-.011-.434.1-.623.568-.616q2.024.03,4.048,0c.458-.007.579.167.574.607-.02,2.159-.026,4.318,0,6.477.007.514-.188.623-.642.617-1.3-.019-2.6-.027-3.9,0-.53.013-.668-.184-.653-.685.033-1.078.01-2.159.01-3.238" transform="translate(-18.964 -51.484)" fill="#f3dc8c"/>
        <path id="Trazado_130902" data-name="Trazado 130902" d="M211.036,76.9c0-1.079.019-2.16-.009-3.238-.012-.449.135-.6.584-.6,1.349.02,2.7.015,4.048,0,.4,0,.562.12.559.55q-.027,3.312,0,6.624c0,.386-.141.523-.512.521-1.4-.009-2.8-.011-4.2,0-.406,0-.483-.2-.478-.55.015-1.1.006-2.208.006-3.312" transform="translate(-148.7 -51.483)" fill="#f3dc8c"/>
      </g>
    </g>
  </g>
</svg>
