<svg xmlns="http://www.w3.org/2000/svg" xmlns:xlink="http://www.w3.org/1999/xlink" width="96" height="96" viewBox="0 0 96 96">
  <defs>
    <clipPath id="clip-path">
      <rect id="Rectángulo_36769" data-name="Rectángulo 36769" width="96" height="96" fill="#fff" stroke="#707070" stroke-width="1"/>
    </clipPath>
  </defs>
  <g id="Grupo_86121" data-name="Grupo 86121" clip-path="url(#clip-path)">
    <g id="Grupo_86122" data-name="Grupo 86122" transform="translate(-3069.838 -44.844)">
      <path id="Trazado_128407" data-name="Trazado 128407" d="M3128.146,119.512c2.54,2.534,4.9,4.884,7.253,7.246a1.124,1.124,0,0,0,.914.381c.7-.029,1.4-.012,2.095-.007,1.578.01,2.278.694,2.287,2.249s.035,3.112-.016,4.666c-.02.616.183.731.747.716,1.554-.039,3.11-.019,4.666-.011,1.363.008,2.237.777,2.217,1.932a1.941,1.941,0,0,1-2.182,1.873q-26.38.006-52.76,0a1.942,1.942,0,0,1-2.192-1.863c-.025-1.162.842-1.934,2.206-1.942,1.492-.009,2.987-.061,4.475.021.84.046.982-.245.951-1-.062-1.489-.027-2.983-.016-4.475.012-1.433.759-2.308,2.173-2.128a5.118,5.118,0,0,0,4.824-2.059c1.689-1.911,3.593-3.632,5.568-5.6h-36.663c-1.972,0-2.572-.592-2.572-2.538q0-27.95,0-55.9c0-1.9.615-2.512,2.5-2.514q3.809,0,7.618,0c1.311,0,1.311,0,1.311-1.359,0-2.6,0-5.206,0-7.809,0-1.563.7-2.259,2.274-2.259q32,0,64,0c1.621,0,2.3.689,2.3,2.331,0,2.794.02,5.587-.014,8.38-.007.59.142.738.732.731,2.761-.034,5.523-.017,8.285-.015,1.772,0,2.427.644,2.427,2.4q0,28.094,0,56.187c0,1.705-.661,2.369-2.359,2.369q-15.9,0-31.808,0Zm-10.31-3.81c9.841,0,19.682-.01,29.522.02.787,0,.979-.177.977-.973q-.039-25.712,0-51.424c0-.788-.178-.978-.973-.977q-29.522.038-59.044,0c-.788,0-.979.177-.978.973q.04,25.712,0,51.424c0,.788.178.98.973.977C3098.155,115.691,3108,115.7,3117.836,115.7Zm-34.286-26.669c0-8.6-.009-17.2.018-25.8,0-.706-.157-.9-.878-.884q-2.949.084-5.9,0c-.727-.021-.877.189-.874.888.029,6.537.017,13.074.017,19.612q0,15.994-.017,31.988c0,.706.158.905.877.884,1.934-.056,3.873-.064,5.806,0,.807.027.975-.2.972-.986C3083.539,106.17,3083.551,97.6,3083.551,89.033Zm76.194.1q0-12.947.017-25.895c0-.7-.146-.91-.874-.889q-2.949.086-5.9,0c-.719-.02-.883.176-.879.884.032,5.649.018,11.3.018,16.946q0,17.327-.017,34.654c0,.7.146.91.874.889,1.934-.058,3.873-.063,5.806,0,.8.027.979-.193.977-.981C3159.733,106.205,3159.744,97.669,3159.744,89.132Zm-30.533-30.574c6.058,0,12.116-.014,18.174.018.767,0,.966-.226.947-.964-.048-1.9-.059-3.807,0-5.708.027-.828-.268-.993-1.028-.981-2.664.043-5.328.017-7.993.017-9.356,0-18.713.012-28.069-.021-.855,0-1.073.234-1.045,1.063.063,1.838.075,3.681,0,5.517-.039.922.3,1.081,1.127,1.077C3117.286,58.543,3123.248,58.558,3129.211,58.558ZM3119.7,134.75h14.277c3.149,0,3.136,0,2.921-3.172-.035-.509-.225-.66-.694-.642-.6.022-1.206,0-1.808,0q-15.372,0-30.744-.018c-.82,0-1.168.182-1.066,1.048a8.118,8.118,0,0,1,0,1.806c-.089.828.267.993,1.028.989C3108.977,134.736,3114.338,134.749,3119.7,134.75Zm-22.815-76.192c2.919,0,5.838-.011,8.756.01.547,0,.791-.108.781-.726q-.053-3.092,0-6.186c.011-.619-.235-.727-.781-.726q-8.756.023-17.512,0c-.655,0-.789.232-.779.826.03,1.966.053,3.935-.009,5.9-.026.8.275.929.979.921C3091.175,58.538,3094.03,58.558,3096.885,58.558Zm12.237,68.525h21.239c-1.884-1.875-3.777-3.525-5.379-5.42a6.234,6.234,0,0,0-5.338-2.235,5.952,5.952,0,0,0-5.005,2.112C3112.976,123.466,3111.052,125.166,3109.122,127.083Z" transform="translate(0)"/>
      <path id="Trazado_128408" data-name="Trazado 128408" d="M3142.488,140.353c-9.841,0-19.681-.011-29.522.02-.795,0-.975-.189-.973-.977q.039-25.712,0-51.424c0-.8.19-.973.978-.973q29.522.037,59.044,0c.795,0,.974.189.973.977q-.039,25.712,0,51.424c0,.8-.189.976-.978.973C3162.169,140.342,3152.328,140.353,3142.488,140.353Zm-.011-5.714a20.953,20.953,0,1,0-20.941-20.942A20.992,20.992,0,0,0,3142.477,134.639Z" transform="translate(-24.651 -24.651)" fill="#dcf0f0"/>
      <path id="Trazado_128409" data-name="Trazado 128409" d="M3089.694,113.682c0,8.568-.011,17.137.02,25.7,0,.781-.165,1.013-.972.986-1.934-.067-3.872-.058-5.806,0-.72.021-.879-.178-.877-.884q.037-15.994.017-31.988c0-6.538.012-13.075-.017-19.612,0-.7.147-.909.874-.888q2.949.086,5.9,0c.721-.02.88.178.878.884C3089.685,96.482,3089.694,105.082,3089.694,113.682Z" transform="translate(-6.144 -24.649)" fill="#b9d9d7"/>
      <path id="Trazado_128410" data-name="Trazado 128410" d="M3289.3,113.782c0,8.537-.012,17.073.02,25.609,0,.788-.176,1.008-.976.981-1.934-.065-3.872-.059-5.806,0-.728.022-.874-.19-.873-.889q.035-17.327.017-34.654c0-5.649.014-11.3-.018-16.946,0-.708.16-.9.878-.884q2.949.083,5.9,0c.728-.021.876.19.874.889C3289.295,96.518,3289.3,105.15,3289.3,113.782Z" transform="translate(-129.56 -24.649)" fill="#b9d9d7"/>
      <path id="Trazado_128411" data-name="Trazado 128411" d="M3190.877,64.7c-5.963,0-11.925-.015-17.888.017-.83,0-1.167-.155-1.127-1.077.079-1.836.066-3.679,0-5.517-.028-.829.19-1.066,1.045-1.063,9.356.033,18.713.021,28.069.021,2.665,0,5.33.026,7.993-.017.761-.012,1.056.152,1.028.981-.062,1.9-.052,3.806,0,5.708.019.738-.18.968-.947.964C3202.993,64.682,3196.936,64.7,3190.877,64.7Z" transform="translate(-61.667 -6.138)" fill="#434a55"/>
      <path id="Trazado_128412" data-name="Trazado 128412" d="M3169.019,270.477c-5.362,0-10.724-.014-16.085.016-.761,0-1.117-.161-1.028-.989a8.147,8.147,0,0,0,0-1.806c-.1-.866.246-1.051,1.066-1.048q15.372.041,30.743.018c.6,0,1.206.018,1.808,0,.469-.018.66.134.694.642.215,3.172.228,3.172-2.921,3.172Z" transform="translate(-49.318 -135.727)" fill="#2d2c2e"/>
      <path id="Trazado_128413" data-name="Trazado 128413" d="M3121.534,64.707c-2.855,0-5.71-.02-8.566.014-.7.008-1-.12-.979-.921.062-1.965.039-3.934.009-5.9-.009-.593.125-.828.779-.826q8.756.036,17.512,0c.546,0,.792.107.781.726q-.053,3.092,0,6.186c.011.618-.233.731-.781.726C3127.372,64.7,3124.453,64.707,3121.534,64.707Zm-1.905-3.807c0-1.907,0-1.907-1.95-1.907-1.859,0-1.859,0-1.859,1.9s0,1.907,1.95,1.907C3119.629,62.8,3119.629,62.8,3119.629,60.9Zm5.658,1.9c1.961,0,1.961,0,1.961-1.991,0-1.819,0-1.819-1.848-1.819-1.962,0-1.962,0-1.962,1.991C3123.438,62.8,3123.438,62.8,3125.287,62.8Z" transform="translate(-24.649 -6.149)" fill="#58606e"/>
      <path id="Trazado_128414" data-name="Trazado 128414" d="M3157.937,143.926a20.953,20.953,0,1,1,20.966-20.919A20.992,20.992,0,0,1,3157.937,143.926Zm17.155-20.87a17.143,17.143,0,1,0-17.227,17.058A17.17,17.17,0,0,0,3175.091,123.056Z" transform="translate(-40.111 -33.938)" fill="#030202"/>
      <path id="Trazado_128415" data-name="Trazado 128415" d="M3125.835,64.007c0,1.9,0,1.9-1.859,1.9-1.95,0-1.95,0-1.95-1.907s0-1.9,1.859-1.9C3125.835,62.1,3125.835,62.1,3125.835,64.007Z" transform="translate(-30.855 -9.256)"/>
      <path id="Trazado_128416" data-name="Trazado 128416" d="M3143.834,65.91c-1.848,0-1.848,0-1.848-1.819,0-1.991,0-1.991,1.961-1.991,1.848,0,1.848,0,1.848,1.819C3145.8,65.91,3145.8,65.91,3143.834,65.91Z" transform="translate(-43.196 -9.256)"/>
      <path id="Trazado_128417" data-name="Trazado 128417" d="M3181.264,129.23A17.142,17.142,0,1,1,3164.206,112,17.174,17.174,0,0,1,3181.264,129.23Zm-17.058-11.552c-4.35.192-7.766,1.994-9.944,5.752a10.956,10.956,0,0,0-.071,11.336c1.04,1.91,2.6,1.949,3.809.135q3.459-5.186,6.911-10.377c.809-1.215,1.647-2.41,2.421-3.647a1.86,1.86,0,0,0-1.366-2.986C3165.373,117.8,3164.772,117.746,3164.206,117.678Zm11.342,10.676a10.844,10.844,0,0,0-1.733-5.244,1.869,1.869,0,0,0-3.294-.1q-4.838,7.182-9.607,14.411a1.856,1.856,0,0,0,1.364,2.987C3169.183,141.57,3175.569,136.156,3175.548,128.355Z" transform="translate(-46.284 -40.112)" fill="#dc5349"/>
      <path id="Trazado_128418" data-name="Trazado 128418" d="M3173.384,126.868c.566.068,1.166.119,1.759.214a1.86,1.86,0,0,1,1.366,2.986c-.774,1.237-1.612,2.433-2.421,3.647q-3.455,5.189-6.91,10.377c-1.209,1.814-2.769,1.775-3.809-.136a10.956,10.956,0,0,1,.071-11.336C3165.618,128.862,3169.034,127.06,3173.384,126.868Zm-7.592,12.436,5.474-8.223A7.461,7.461,0,0,0,3165.792,139.3Z" transform="translate(-55.462 -49.302)" fill="#020101"/>
      <path id="Trazado_128419" data-name="Trazado 128419" d="M3197.5,144.66c.021,7.8-6.366,13.215-13.271,12.05a1.856,1.856,0,0,1-1.364-2.987q4.768-7.23,9.607-14.411a1.87,1.87,0,0,1,3.294.1A10.854,10.854,0,0,1,3197.5,144.66Zm-3.867-.246-5.5,8.25C3191.43,152.146,3193.9,148.518,3193.633,144.413Z" transform="translate(-68.235 -56.417)" fill="#020101"/>
      <path id="Trazado_128420" data-name="Trazado 128420" d="M3172.115,146.127a7.461,7.461,0,0,1,5.474-8.223Z" transform="translate(-61.785 -56.125)" fill="#d4e7e7"/>
      <path id="Trazado_128421" data-name="Trazado 128421" d="M3202.785,154.193c.27,4.1-2.2,7.732-5.5,8.25Z" transform="translate(-77.387 -66.196)" fill="#d4e7e7"/>
    </g>
  </g>
</svg>
