<svg id="Grupo_87182" data-name="Grupo 87182" xmlns="http://www.w3.org/2000/svg" width="178.46" height="178.469" viewBox="0 0 178.46 178.469">
  <rect id="Rectángulo_37140" data-name="Rectángulo 37140" width="158.95" height="158.949" rx="12" transform="translate(9.4 8.252)" fill="#daf1f5"/>
  <path id="Trazado_133126" data-name="Trazado 133126" d="M157.477,208.675c.464-3.285,1.938-4.518,5.412-4.526,2.475,0,2.476,0,2.476-2.421q0-26.569,0-53.138a13.192,13.192,0,0,1,.074-1.911,2.35,2.35,0,0,1,2.472-2.211,2.373,2.373,0,0,1,2.619,2.242,13.3,13.3,0,0,1,.071,1.912q.005,26.83-.031,53.66c0,1.456.239,2.108,1.847,1.9a6.083,6.083,0,0,1,3.26.292,4.138,4.138,0,0,1,2.732,3.889q.1,6.183.006,12.369a4.229,4.229,0,0,1-4.324,4.307q-6.1.1-12.195,0c-2.634-.041-4.3-1.893-4.369-4.632-.075-3.163-.075-3.163-3.3-3.163q-65.68,0-131.36-.036c-1.575,0-2.007.375-1.966,1.963.115,4.5-1.358,5.889-5.882,5.889-3.368,0-6.737.015-10.1,0-3.121-.018-4.861-1.736-4.88-4.83Q0,214.566.038,208.9c.02-2.995,1.769-4.706,4.782-4.753,3.048-.049,3.048-.049,3.048-3.069q0-12.109.006-24.217c0-2.306.473-2.886,2.606-3.436,2.148.563,2.6,1.118,2.606,3.424q.021,11.9.006,23.809c0,3.617,0,3.617,3.675,3.443,2.835.647,3.82,1.713,4.23,4.571-.177,3.348-.177,3.348,3.085,3.348H154.392c3.263,0,3.263,0,3.085-3.348M15.709,214.958c0-1.611-.049-2.948.016-4.28.046-.941-.193-1.345-1.235-1.315q-3.915.116-7.833.031c-1.053-.024-1.416.26-1.382,1.358.08,2.551.091,5.109,0,7.659-.045,1.222.439,1.465,1.51,1.4,1.272-.077,2.553,0,3.829-.022,1.615-.027,3.764.53,4.7-.288,1.088-.949.269-3.161.4-4.543m152.3,4.835c1.335,0,2.672-.05,4,.017.926.047,1.195-.293,1.182-1.194-.038-2.727-.023-5.456.031-8.182.017-.87-.336-1.075-1.128-1.061q-4.091.067-8.182.034c-.8-.008-1.141.2-1.127,1.067.043,2.727.052,5.456,0,8.183-.02.956.352,1.188,1.221,1.151,1.333-.055,2.669-.015,4-.015" transform="translate(-0.006 -46.62)" fill="#050505"/>
  <path id="Trazado_133127" data-name="Trazado 133127" d="M101.75,105.446q28.221,0,56.442,0c3.318,0,3.938.629,3.939,4q0,14.286,0,28.57c0,3.34-.677,4.038-3.941,4.038q-56.529,0-113.058,0c-3.267,0-3.935-.693-3.936-4.04q0-14.285,0-28.57c0-3.374.614-4,3.937-4q28.308,0,56.616,0m-52.691,5.336c-2.648-.308-2.649-.308-2.649,2.193q0,10.705,0,21.41c0,2.754-.322,2.45,2.37,2.451q52.914.008,105.828,0c2.495,0,2.495,0,2.176-2.669.029-7.073.068-14.147.08-21.22,0-2.541.279-2.245-2.2-2.246q-51.851-.01-103.7,0c-.636,0-1.271.052-1.907.08" transform="translate(-12.433 -34.842)" fill="#080707"/>
  <path id="Trazado_133128" data-name="Trazado 133128" d="M145.472,12.209h39.72c2.823,0,2.821,0,2.842-2.753a8.616,8.616,0,0,1,.077-1.563,4.337,4.337,0,0,1,4.357-3.529c4.006-.043,8.014-.051,12.02,0a4.3,4.3,0,0,1,4.445,4.549q.063,5.835,0,11.672c-.025,2.888-1.792,4.612-4.689,4.676-3.138.068-3.138.068-3.138,3.152q0,31.272,0,62.543a11.671,11.671,0,0,1-.108,2.081,2.558,2.558,0,0,1-5.024-.013,12.46,12.46,0,0,1-.1-2.082q-.006-31.969.034-63.937c0-1.465-.357-1.824-1.8-1.781-3.626.108-5.361-.887-5.913-3.276a8.86,8.86,0,0,1-.131-2.94c.154-1.357-.363-1.593-1.627-1.59q-40.5.058-81.007.024a12.964,12.964,0,0,1-2.254-.123,2.37,2.37,0,0,1-2.094-2.588,2.392,2.392,0,0,1,2.239-2.47,12.986,12.986,0,0,1,1.738-.052q20.208,0,40.416,0m52.855,7.784c1.393,0,2.788-.048,4.178.017.919.043,1.2-.28,1.186-1.188-.039-2.727-.022-5.456.031-8.182.017-.864-.325-1.08-1.123-1.066-2.726.045-5.455.074-8.181.026-.98-.017-1.143.4-1.131,1.243.038,2.669.051,5.34-.006,8.008-.02.951.341,1.2,1.217,1.157,1.274-.057,2.553-.015,3.83-.015" transform="translate(-30.506 -4.324)" fill="#050505"/>
  <path id="Trazado_133129" data-name="Trazado 133129" d="M122.892,79.524c-.343,1.951-1.588,2.661-3.473,2.65-4.993-.031-9.987.011-14.98-.02-2.487-.015-3.344-.892-3.348-3.394q-.024-14.893,0-29.787c0-2.62.822-3.414,3.466-3.415q36.058-.007,72.115,0c2.74,0,3.529.781,3.531,3.529q.017,14.721,0,29.44c0,2.828-.8,3.632-3.642,3.633q-21.6.015-43.2,0c-2.436,0-3.08-.5-3.606-2.624.54-2.179,1.1-2.592,3.594-2.593q19.581-.006,39.162,0c2.645,0,2.645,0,2.347-2.664.034-7.128.019-14.256.138-21.383.027-1.614-.295-2.14-2.048-2.134-20.756.07-41.511.044-62.268.048-.577,0-1.153.057-1.73.087-2.641-.276-2.641-.276-2.641,2.355,0,7.362.033,14.723-.031,22.085-.011,1.322.37,1.664,1.662,1.636,3.824-.084,7.652.021,11.476-.052,1.92-.036,3.109.679,3.476,2.606" transform="translate(-30.507 -16.766)" fill="#080707"/>
  <path id="Trazado_133130" data-name="Trazado 133130" d="M10.476,124.258c-2.253-.665-2.608-1.168-2.609-3.811q0-33.171,0-66.341c0-9.113-.023-18.225.029-27.337.007-1.189-.248-1.7-1.5-1.527a11.082,11.082,0,0,1-2.087,0,4.269,4.269,0,0,1-4.25-4.2q-.116-6.266,0-12.536A4.156,4.156,0,0,1,4.19,4.385q6.266-.125,12.535,0a4.289,4.289,0,0,1,4.209,4.426c.138,3.4.138,3.4,3.581,3.4H59.339c.522,0,1.047-.024,1.567.013a2.5,2.5,0,0,1,2.619,2.458,2.527,2.527,0,0,1-2.546,2.72,16.038,16.038,0,0,1-1.739.04c-12.246,0-24.492.026-36.739-.034-1.329-.006-1.788.345-1.573,1.624a6.261,6.261,0,0,1,.008,1.043c-.014,3.154-1.094,4.506-4.176,5.23a11.14,11.14,0,0,1-1.56-.064c-1.747-.309-2.182.357-2.165,2.12.1,10.032.047,20.067.047,30.1q0,31.493,0,62.985c0,2.653-.335,3.126-2.6,3.813M10.522,9.58v.033c-1.33,0-2.663.057-3.989-.018-1-.057-1.283.313-1.262,1.284.057,2.6.05,5.2,0,7.807-.016.91.146,1.361,1.213,1.333,2.658-.071,5.32-.05,7.98-.008.856.013,1.242-.182,1.225-1.142q-.069-4.075.033-8.153c.023-.95-.343-1.186-1.213-1.149-1.328.057-2.66.015-3.99.015" transform="translate(0 -4.322)" fill="#020202"/>
  <path id="Trazado_133131" data-name="Trazado 133131" d="M180.427,165.336c4.935,0,9.87-.011,14.805,0,2.506.008,3.341.832,3.345,3.361q.024,14.893,0,29.786c0,2.592-.857,3.445-3.471,3.45q-14.8.026-29.61,0c-2.7,0-3.516-.842-3.519-3.577q-.016-14.718,0-29.438c0-2.842.767-3.582,3.645-3.587q7.4-.009,14.806,0m-10.6,5.331c-2.641-.3-2.641-.3-2.641,2.187,0,7.42.031,14.841-.03,22.261-.011,1.315.369,1.658,1.663,1.648,7.42-.06,14.84-.029,22.26-.029,2.485,0,2.485,0,2.169-2.661.027-7.469.045-14.939.1-22.408.006-.836-.3-1.093-1.109-1.088-7.469.047-14.939.065-22.408.091" transform="translate(-48.884 -52.918)" fill="#080707"/>
  <path id="Trazado_133132" data-name="Trazado 133132" d="M59.5,45.554q7.316,0,14.631,0c2.891,0,3.669.744,3.672,3.564q.015,14.718,0,29.437c0,2.8-.816,3.6-3.672,3.6q-14.632.017-29.262,0c-2.862,0-3.665-.794-3.668-3.6q-.016-14.718,0-29.437c0-2.824.774-3.559,3.67-3.563q7.315-.008,14.63,0m12.963,28.73q.04-11.193.091-22.387c.006-.829-.3-1.1-1.114-1.1q-11.193.067-22.387.088c-2.659-.362-2.661-.362-2.661,2.178,0,7.42.03,14.84-.028,22.26-.01,1.308.38,1.674,1.675,1.663,7.419-.057,14.839-.027,22.259-.027,2.528,0,2.528,0,2.165-2.678" transform="translate(-12.432 -16.766)" fill="#080707"/>
  <path id="Trazado_133133" data-name="Trazado 133133" d="M119.886,165.337q7.316,0,14.631,0c2.893,0,3.67.743,3.673,3.561q.016,14.719,0,29.438c0,2.8-.815,3.6-3.671,3.6q-14.63.016-29.262,0c-2.863,0-3.668-.795-3.67-3.6q-.016-14.719,0-29.437c0-2.824.774-3.56,3.668-3.564q7.315-.009,14.63,0m-10.092,5.333c-3-.343-3-.343-3,2.534,0,7.3.033,14.606-.029,21.908-.011,1.314.369,1.66,1.664,1.648,7.36-.06,14.721-.029,22.081-.029,2.653,0,2.653,0,2.34-2.67.029-7.466.049-14.931.1-22.4.006-.833-.3-1.1-1.109-1.091-7.35.048-14.7.067-22.049.095" transform="translate(-30.658 -52.919)" fill="#080707"/>
  <path id="Trazado_133134" data-name="Trazado 133134" d="M41.2,183.444c0-4.878-.012-9.755,0-14.632.009-2.658.805-3.469,3.409-3.471q14.892-.015,29.785,0c2.6,0,3.4.82,3.408,3.475q.019,14.805,0,29.611c0,2.682-.848,3.509-3.585,3.513q-14.718.02-29.436,0c-2.791,0-3.576-.831-3.582-3.69-.01-4.935,0-9.871,0-14.806m18.477-12.87v.021c-3.949,0-7.9.033-11.846-.022-1.047-.015-1.4.254-1.394,1.355q.068,11.672,0,23.344c-.008,1.195.406,1.44,1.5,1.433q11.585-.061,23.17,0c1.158.007,1.471-.336,1.465-1.475q-.06-11.585.024-23.171c.01-1.277-.429-1.536-1.6-1.515-3.773.066-7.549.024-11.323.024" transform="translate(-12.432 -52.918)" fill="#080707"/>
  <path id="Trazado_133135" data-name="Trazado 133135" d="M15,133.27c2.268-.686,2.6-1.16,2.6-3.813q.005-31.492,0-62.984c0-10.034.05-20.067-.047-30.1-.017-1.762.418-2.429,2.165-2.12a11.139,11.139,0,0,0,1.56.064q0,68.25,0,136.5c-3.675.174-3.675.174-3.675-3.443q0-11.9-.006-23.809c0-2.305-.458-2.861-2.606-3.424q0-3.437,0-6.873" transform="translate(-4.528 -13.334)" fill="#b5e4eb"/>
  <path id="Trazado_133136" data-name="Trazado 133136" d="M166.519,236.432c.178,3.348.178,3.348-3.085,3.348H33.122c-3.263,0-3.263,0-3.085-3.348H166.519" transform="translate(-9.047 -74.377)" fill="#b5e4eb"/>
  <path id="Trazado_133137" data-name="Trazado 133137" d="M125.139,81.781c-.367-1.926-1.556-2.642-3.476-2.606-3.824.073-7.652-.033-11.476.052-1.292.029-1.673-.313-1.662-1.636.065-7.362.031-14.723.031-22.085,0-2.631,0-2.631,2.641-2.355-.008,6.559-.031,13.119-.014,19.678a3.625,3.625,0,0,0,3.753,3.72q31.084.007,62.169-.017c.3,2.664.3,2.664-2.347,2.664q-19.581,0-39.162,0c-2.5,0-3.054.414-3.594,2.593l-6.864-.011" transform="translate(-32.754 -19.024)" fill="#45bbcc"/>
  <path id="Trazado_133138" data-name="Trazado 133138" d="M17.977,243.011c-.126,1.382.693,3.594-.394,4.543-.939.819-3.088.262-4.7.288-1.276.021-2.557-.054-3.829.022-1.071.065-1.556-.178-1.51-1.4.095-2.55.083-5.108,0-7.659-.035-1.1.329-1.381,1.381-1.357q3.915.088,7.833-.031c1.042-.031,1.282.373,1.236,1.315-.066,1.331-.017,2.668-.017,4.279" transform="translate(-2.275 -74.674)" fill="#583ae2"/>
  <path id="Trazado_133139" data-name="Trazado 133139" d="M238.365,247.851c-1.335,0-2.671-.04-4,.015-.869.036-1.241-.2-1.221-1.152.056-2.726.047-5.455,0-8.182-.014-.865.331-1.075,1.127-1.067q4.091.037,8.182-.034c.792-.013,1.146.191,1.128,1.061-.054,2.726-.069,5.455-.031,8.182.013.9-.256,1.24-1.182,1.193-1.331-.067-2.668-.017-4-.017" transform="translate(-70.364 -74.678)" fill="#583ae2"/>
  <path id="Trazado_133140" data-name="Trazado 133140" d="M52.451,113.05c.636-.027,1.271-.079,1.907-.079q51.851-.006,103.7,0c2.48,0,2.2-.3,2.2,2.246-.012,7.073-.052,14.147-.08,21.22q-51.949.01-103.9.014c-2.466,0-3.838-1.41-3.843-3.909-.01-6.5.006-13,.012-19.493m52.608,15.567h-5.4q-20.638,0-41.275.012c-2.142,0-3.24.887-3.287,2.511-.049,1.7,1.1,2.656,3.29,2.729.232.008.465,0,.7,0q45.89,0,91.779,0c2.74,0,4.07-.916,4.008-2.733-.061-1.754-1.273-2.519-4.012-2.519q-22.9,0-45.8,0m-.165-5.2q22.814,0,45.629-.006a11.972,11.972,0,0,0,2.251-.14,2.365,2.365,0,0,0,2.076-2.593,2.407,2.407,0,0,0-2.257-2.451,10.605,10.605,0,0,0-1.564-.061q-45.89,0-91.779,0a12.089,12.089,0,0,0-2.082.1,2.552,2.552,0,0,0-.15,4.972,10.22,10.22,0,0,0,2.247.171q22.814.014,45.629.007" transform="translate(-15.826 -37.11)" fill="#ab9df1"/>
  <path id="Trazado_133141" data-name="Trazado 133141" d="M51.31,113.028c-.006,6.5-.023,12.995-.012,19.492,0,2.5,1.377,3.91,3.843,3.91q51.949,0,103.9-.014c.319,2.668.319,2.669-2.176,2.669q-52.914,0-105.827,0c-2.692,0-2.365.3-2.37-2.451q-.02-10.7,0-21.41c0-2.5,0-2.5,2.649-2.193" transform="translate(-14.684 -37.089)" fill="#826be9"/>
  <path id="Trazado_133142" data-name="Trazado 133142" d="M238.185,22.259c-1.277,0-2.555-.043-3.83.015-.876.039-1.237-.206-1.217-1.157.057-2.668.043-5.339.006-8.008-.012-.842.151-1.26,1.131-1.243,2.726.048,5.455.02,8.181-.027.8-.013,1.14.2,1.123,1.067-.053,2.726-.07,5.455-.031,8.182.013.908-.267,1.232-1.186,1.188-1.39-.065-2.785-.017-4.178-.017" transform="translate(-70.364 -6.59)" fill="#583ae2"/>
  <path id="Trazado_133143" data-name="Trazado 133143" d="M178.252,76.525q-31.085.013-62.17.017a3.625,3.625,0,0,1-3.752-3.719c-.017-6.56.006-13.12.014-19.679.577-.03,1.153-.086,1.73-.086,20.756,0,41.512.021,62.268-.049,1.753-.006,2.075.519,2.048,2.134-.119,7.126-.1,14.255-.138,21.383" transform="translate(-33.901 -19.017)" fill="#6ac9d6"/>
  <path id="Trazado_133144" data-name="Trazado 133144" d="M12.8,11.845c1.33,0,2.662.042,3.99-.015.87-.037,1.236.2,1.213,1.149q-.1,4.075-.033,8.153c.017.96-.369,1.155-1.225,1.142-2.659-.041-5.322-.063-7.98.008-1.067.028-1.229-.423-1.213-1.333.047-2.6.054-5.206,0-7.807-.022-.971.258-1.341,1.262-1.284,1.326.075,2.659.018,3.989.018v-.033" transform="translate(-2.278 -6.587)" fill="#583ae2"/>
  <path id="Trazado_133145" data-name="Trazado 133145" d="M173.209,172.934c7.469-.027,14.939-.044,22.408-.091.813-.006,1.114.252,1.109,1.088-.05,7.469-.068,14.939-.1,22.408-6.538.008-13.075.029-19.612.017a3.667,3.667,0,0,1-3.825-3.809c-.013-6.538.008-13.075.015-19.613" transform="translate(-52.271 -55.184)" fill="#b5e4eb"/>
  <path id="Trazado_133146" data-name="Trazado 133146" d="M172.063,172.915c-.008,6.538-.029,13.075-.015,19.613a3.667,3.667,0,0,0,3.825,3.809c6.537.012,13.074-.009,19.612-.017.316,2.661.316,2.661-2.169,2.661-7.42,0-14.841-.031-22.26.029-1.294.01-1.674-.333-1.663-1.648.061-7.42.029-14.841.03-22.261,0-2.491,0-2.491,2.641-2.187" transform="translate(-51.125 -55.165)" fill="#8fd6e0"/>
  <path id="Trazado_133147" data-name="Trazado 133147" d="M52.444,53.159q11.193-.039,22.387-.089c.811,0,1.12.268,1.114,1.1q-.069,11.193-.091,22.387c-6.485.006-12.971.024-19.456.015-2.6,0-3.964-1.364-3.968-3.954-.01-6.485.008-12.972.014-19.457m10.534,5.118c-1.738,0-3.48-.052-5.215.015a2.5,2.5,0,0,0-2.671,2.587,2.4,2.4,0,0,0,2.5,2.574q5.3.123,10.6,0a2.4,2.4,0,0,0,2.5-2.574,2.5,2.5,0,0,0-2.67-2.587c-1.678-.068-3.361-.015-5.042-.016m-.105,10.449c-1.623,0-3.247-.034-4.868.009-1.817.047-2.886,1.006-2.923,2.53a2.566,2.566,0,0,0,2.786,2.679q5.041.114,10.084,0A2.557,2.557,0,0,0,70.7,71.228c-.057-1.521-1.121-2.449-2.959-2.495-1.622-.04-3.246-.008-4.868-.008" transform="translate(-15.823 -19.034)" fill="#826be9"/>
  <path id="Trazado_133148" data-name="Trazado 133148" d="M51.289,53.122c-.006,6.485-.024,12.972-.015,19.457,0,2.59,1.371,3.95,3.968,3.954,6.485.008,12.972-.009,19.457-.015.363,2.676.363,2.677-2.166,2.678-7.42,0-14.839-.029-22.259.027-1.294.01-1.685-.355-1.674-1.663.058-7.42.027-14.84.028-22.259,0-2.54,0-2.54,2.661-2.178" transform="translate(-14.668 -18.999)" fill="#583ae2"/>
  <path id="Trazado_133149" data-name="Trazado 133149" d="M113.336,172.934c7.35-.027,14.7-.046,22.049-.095.813,0,1.115.258,1.109,1.091-.05,7.466-.07,14.931-.1,22.4-6.434.008-12.867.035-19.3.016-2.452-.007-3.765-1.314-3.772-3.758-.02-6.55.006-13.1.014-19.65m10.235,5.125c-1.681,0-3.362-.032-5.042.008-1.817.043-2.878,1-2.907,2.536a2.558,2.558,0,0,0,2.8,2.662q5.039.107,10.082-.006a2.6,2.6,0,1,0-.063-5.188c-1.621-.05-3.245-.01-4.868-.013m-.006,10.457c-1.738,0-3.479-.044-5.215.013a2.533,2.533,0,0,0-2.727,2.535,2.5,2.5,0,0,0,2.631,2.637q5.125.133,10.256.013a2.6,2.6,0,1,0-.076-5.187c-1.622-.05-3.246-.011-4.868-.01" transform="translate(-34.2 -55.183)" fill="#d5cef8"/>
  <path id="Trazado_133150" data-name="Trazado 133150" d="M112.036,172.91c-.008,6.55-.034,13.1-.014,19.65.007,2.444,1.32,3.751,3.772,3.758,6.434.018,12.867-.008,19.3-.016.313,2.669.313,2.67-2.34,2.67-7.361,0-14.722-.031-22.082.029-1.3.011-1.676-.334-1.664-1.648.062-7.3.029-14.605.029-21.908,0-2.877,0-2.877,3-2.534" transform="translate(-32.9 -55.158)" fill="#ab9df1"/>
  <path id="Trazado_133151" data-name="Trazado 133151" d="M61.936,172.828c3.774,0,7.55.041,11.323-.024,1.168-.021,1.608.238,1.6,1.515q-.1,11.585-.024,23.171c.006,1.139-.307,1.482-1.465,1.475q-11.584-.073-23.17,0c-1.1.006-1.512-.239-1.5-1.433q.077-11.672,0-23.344c-.006-1.1.346-1.37,1.394-1.355,3.948.055,7.9.022,11.846.022v-.021" transform="translate(-14.696 -55.172)" fill="#2ff980"/>
  <path id="Trazado_133152" data-name="Trazado 133152" d="M106.21,135.384q22.9,0,45.8,0c2.738,0,3.951.766,4.011,2.519.063,1.817-1.268,2.733-4.008,2.733q-45.89,0-91.779,0c-.232,0-.464.006-.7,0-2.189-.073-3.339-1.027-3.29-2.729.047-1.624,1.145-2.509,3.286-2.511q20.638-.023,41.275-.012h5.4" transform="translate(-16.977 -43.878)" fill="#050505"/>
  <path id="Trazado_133153" data-name="Trazado 133153" d="M106.051,125.665q-22.814,0-45.629-.007a10.22,10.22,0,0,1-2.247-.171,2.552,2.552,0,0,1,.15-4.972,12.09,12.09,0,0,1,2.082-.1q45.89-.006,91.779,0a10.607,10.607,0,0,1,1.564.061,2.407,2.407,0,0,1,2.257,2.451,2.365,2.365,0,0,1-2.076,2.593,11.972,11.972,0,0,1-2.251.14q-22.814.012-45.629.006" transform="translate(-16.982 -39.359)" fill="#050505"/>
  <path id="Trazado_133154" data-name="Trazado 133154" d="M64.128,60.52c1.681,0,3.364-.052,5.042.015a2.5,2.5,0,0,1,2.669,2.587,2.4,2.4,0,0,1-2.5,2.574q-5.3.123-10.6,0a2.4,2.4,0,0,1-2.5-2.574,2.5,2.5,0,0,1,2.67-2.587c1.736-.067,3.478-.015,5.216-.015" transform="translate(-16.974 -21.278)" fill="#050505"/>
  <path id="Trazado_133155" data-name="Trazado 133155" d="M64.019,75.488c1.623,0,3.247-.032,4.868.008,1.838.045,2.9.975,2.959,2.495A2.557,2.557,0,0,1,69.1,80.7q-5.039.121-10.084,0a2.566,2.566,0,0,1-2.786-2.679c.037-1.524,1.105-2.483,2.923-2.53,1.622-.043,3.246-.009,4.868-.01" transform="translate(-16.97 -25.797)" fill="#050505"/>
  <path id="Trazado_133156" data-name="Trazado 133156" d="M124.569,180.311c1.623,0,3.247-.038,4.868.012a2.6,2.6,0,1,1,.063,5.188q-5.039.119-10.083,0a2.557,2.557,0,0,1-2.8-2.661c.029-1.534,1.09-2.493,2.907-2.536,1.68-.041,3.362-.009,5.042-.008" transform="translate(-35.197 -57.434)" fill="#050505"/>
  <path id="Trazado_133157" data-name="Trazado 133157" d="M124.562,195.285c1.623,0,3.247-.039,4.868.01a2.6,2.6,0,1,1,.076,5.188q-5.126.115-10.256-.012a2.5,2.5,0,0,1-2.631-2.637,2.533,2.533,0,0,1,2.727-2.535c1.736-.057,3.477-.013,5.215-.013" transform="translate(-35.197 -61.953)" fill="#050505"/>
</svg>
