<svg id="Grupo_87181" data-name="Grupo 87181" xmlns="http://www.w3.org/2000/svg" width="182.42" height="178.469" viewBox="0 0 182.42 178.469">
  <path id="Trazado_133158" data-name="Trazado 133158" d="M424.273,143.672c-1.535-.083-2.925.07-4.219-.536a6.008,6.008,0,0,1-3.265-3.834c-.646-2.047-1.307-4.091-1.886-6.157a1.186,1.186,0,0,0-1.374-1.018c-6.99.029-13.98.013-20.97.027-.355,0-.877-.237-.983.427-.618,3.875-3.129,5.388-6.92,5.371a21.1,21.1,0,0,1,.528,12.086,16.711,16.711,0,0,1-3.828,7.595c-2.771,2.864-5.846,5.432-8.713,8.056-.923-3.659-1.977-7.828-3.058-12.111l-6.512,3.189a58.866,58.866,0,0,1,1.219-18.636c-.075-.07-.146-.2-.226-.2-5.137-.3-6.895-2.151-6.895-7.265,0-1.376-.019-2.752.005-4.127a5.522,5.522,0,0,1,4.488-5.687c1.294-.251,1.252-.849,1.251-1.777q-.022-14.535,0-29.071a6.378,6.378,0,0,1,.191-1.942c1.573-4.817,3.148-9.635,4.818-14.419a6.8,6.8,0,0,1,12.907-.017c1.668,4.784,3.218,9.61,4.842,14.41a5.875,5.875,0,0,1,.174,1.95c.008,5.726,0,11.453,0,17.406,3.841-1.916,7.5-3.74,11.162-5.568,2.132-1.064,4.241-2.179,6.4-3.179a1.492,1.492,0,0,0,.971-1.937,81.919,81.919,0,0,1,8.2-53c3.923-7.616,9.208-14.363,13.956-21.45,4.02-6,8.132-11.943,12.224-17.9,3.981-5.791,10.659-5.825,14.6-.016,7.878,11.608,16.176,22.942,23.583,34.857,8.88,14.286,12.681,30.019,12.056,46.812a68.2,68.2,0,0,1-1.219,10.678c-.123.622-.381,1.269.462,1.687,5.958,2.955,11.9,5.933,18.046,9V91.05a5.939,5.939,0,0,1,.011-1.254c1.379-6.231,3.039-12.464,6.129-18.005,2.517-4.514,9.525-3.634,11.468,1.223,2.011,5.029,3.554,10.246,5.263,15.394a5.268,5.268,0,0,1,.07,1.606c0,9.631.018,19.261-.019,28.892-.005,1.124.106,1.718,1.444,2a5.484,5.484,0,0,1,4.3,5.469c.043,1.733.019,3.469.009,5.2-.022,3.931-2.263,6.207-6.2,6.311-.294.008-.587.032-1.056.06,2.147,6.139,1.388,12.408,1.519,18.9l-6.683-3.266-3.207,12.758c-6.687-6.228-13.614-12.071-13.038-22.359a31.558,31.558,0,0,1,1.136-6.035c-3.7.041-6.19-1.44-6.846-5.211-.134-.77-.616-.581-1.04-.582-6.99-.009-13.98.009-20.97-.027a1.186,1.186,0,0,0-1.349,1.049c-.555,1.949-1.18,3.878-1.793,5.81-1.018,3.2-2.844,4.615-6.18,4.622-1.16,0-1.5.1-1.127,1.444a21.752,21.752,0,0,1-8.277,23.806c-4.233,3.111-8.548,6.109-12.789,9.21a1.436,1.436,0,0,1-2.022-.027c-4.1-2.989-8.253-5.9-12.364-8.877-8.136-5.88-11.228-14.846-8.536-24.657a7.417,7.417,0,0,0,.121-.834M446.115,126.4c8.543,0,17.086-.025,25.628.029,1.2.008,1.738-.271,2.105-1.508,1.8-6.058,3.69-12.089,5.615-18.109a78.529,78.529,0,0,0,2.9-36.636,80.694,80.694,0,0,0-14.679-34.794,2.143,2.143,0,0,0-2.12-.866q-16.847.005-33.693.006c-2.265,0-4.916-.663-6.687.289s-2.723,3.509-3.932,5.427C409.9,58.253,406.229,77.715,410.537,98.591c1.9,9.185,5.372,17.927,7.941,26.926.32,1.122,1.1.878,1.83.879q12.9.01,25.807,0m16.907-97.656c-.306-.5-.468-.8-.658-1.079Q455.5,17.615,448.62,7.571c-1.682-2.446-3.442-2.4-5.166.111q-6.784,9.89-13.53,19.806c-.246.36-.722.659-.511,1.255ZM412.761,126.4l-6.986-22.541c-5.095,2.546-10.021,5.377-15.236,7.492-3.851,1.561-5.528,3.758-4.691,7.815a1.063,1.063,0,0,1,0,.357c-.111.77.1,1.08.984,1.245a5.511,5.511,0,0,1,4.639,4.606c.166.811.365,1.053,1.2,1.048,6.618-.038,13.237-.021,20.088-.021m73.614-22.564c-2.339,7.553-4.642,14.99-6.987,22.563,6.875,0,13.606-.013,20.336.018.76,0,.793-.364.915-.943a5.793,5.793,0,0,1,4.735-4.763c.313-.072.867.106.874-.366q.048-3.213-.07-6.427c-.007-.206-.533-.425-.847-.582-6.272-3.149-12.547-6.291-18.956-9.5m-117.73,2.321c0,4.362.027,8.726-.02,13.088-.011,1,.1,1.486,1.313,1.445,2.981-.1,5.969-.083,8.952-.007,1.074.027,1.246-.37,1.242-1.328q-.05-13.088.006-26.176c.005-1.06-.348-1.272-1.317-1.253-2.924.058-5.851.09-8.773-.012-1.248-.044-1.442.413-1.427,1.514.058,4.243.024,8.486.024,12.73m154.856.33c0-4.423-.029-8.845.022-13.267.011-1-.245-1.321-1.274-1.3q-4.474.1-8.953,0c-1.01-.022-1.29.269-1.286,1.285q.059,13.088,0,26.176c0,1,.244,1.321,1.274,1.3q4.474-.1,8.952,0c1.011.022,1.3-.268,1.287-1.285-.055-4.3-.024-8.605-.024-12.909m-87.79,37.141c-1.326,0-2.52.078-3.7-.022a1.725,1.725,0,0,0-1.986,1.312,16.214,16.214,0,0,0,4.805,18.639c3.383,2.646,6.968,5.034,10.441,7.566a1.135,1.135,0,0,0,1.572.045c3.562-2.613,7.267-5.046,10.7-7.818a16.049,16.049,0,0,0,4.564-18.375c-.23-.554-.287-1.351-1.206-1.344-1.453.011-2.905,0-4.41,0,1.89,7.42.883,12.506-3.384,17.072-2,2.138-4.14,4.142-6.167,6.254-.631.657-1.025.743-1.7.033-2.1-2.208-4.315-4.305-6.4-6.524a15.743,15.743,0,0,1-3.977-8.076,17.839,17.839,0,0,1,.853-8.765M420.6,132.181c.524,1.675,1.045,3.134,1.422,4.629.221.875.653,1.092,1.5,1.091q22.571-.034,45.143-.016c.532,0,1.1.1,1.313-.6.5-1.675,1.007-3.349,1.534-5.1ZM451.8,150.457a13.054,13.054,0,0,0-1.161-5.655,1.7,1.7,0,0,0-1.9-1.2c-1.787.086-3.583.09-5.369,0a1.746,1.746,0,0,0-1.885,1.217,11.38,11.38,0,0,0,4.123,14.385c.368.23.6.273.923-.022,2.816-2.6,5.351-5.346,5.266-8.727M374.373,126.4h-7.155c-4.371,0-4.321,0-4.341,4.308-.005,1.2.348,1.468,1.491,1.457,5.724-.057,11.448-.026,17.172-.026,4.442,0,4.4,0,4.336-4.488-.016-1.03-.316-1.29-1.308-1.273-3.4.057-6.8.022-10.2.022m143.4,5.739h7.155c4.372,0,4.323,0,4.341-4.307.005-1.193-.343-1.471-1.489-1.459-5.724.058-11.449.027-17.173.027-4.443,0-4.405,0-4.337,4.486.016,1.028.312,1.292,1.305,1.275,3.4-.057,6.8-.022,10.2-.022M375.915,155.088a14.632,14.632,0,0,0,2.869-16.283,1.4,1.4,0,0,0-1.491-.934c-1.908.041-3.817.016-5.726.012-.535,0-1.035-.057-1.287.635a23.786,23.786,0,0,0-1.613,9.037c1.262-.624,2.347-1.1,3.368-1.684,1-.577,1.486-.607,1.769.762.577,2.793,1.369,5.54,2.11,8.454m140.334-.065c.744-2.923,1.531-5.678,2.119-8.475.271-1.293.749-1.216,1.663-.714,1.08.595,2.2,1.111,3.449,1.731a24.568,24.568,0,0,0-1.508-8.8,1.157,1.157,0,0,0-1.3-.9c-1.968.05-3.937.027-5.906.011a1.268,1.268,0,0,0-1.3.679c-2.755,4.7-1.48,12.666,2.787,16.466M369.763,86.161h9.226c-1.175-3.515-2.327-6.934-3.457-10.361a1.2,1.2,0,0,0-1.117-.985c-.693-.017-1.015.451-1.224,1.084-1.112,3.379-2.251,6.748-3.429,10.262m152.62,0c-1.184-3.544-2.3-6.862-3.4-10.186-.2-.608-.474-1.124-1.173-1.164a1.047,1.047,0,0,0-1.1.745c-1.179,3.5-2.344,7.006-3.544,10.6Z" transform="translate(-354.868 -0.001)" fill="#020202"/>
  <path id="Trazado_133159" data-name="Trazado 133159" d="M370.565,65.614c-1.433.008-2.876-.078-4.3.052-1.267.116-1.423-.424-1.417-1.512.042-7.476-.018-14.954.057-22.429.014-1.476-.2-2.077-1.881-1.978-2.909.173-5.835.048-9.06.048l19.512-31.26L393,39.8c-1.93,0-3.62-.039-5.308.011-1.831.054-4.342-.8-5.3.327-.925,1.081-.3,3.518-.3,5.36-.014,6.161-.039,12.322.023,18.482.013,1.251-.159,1.858-1.6,1.694a38.748,38.748,0,0,0-4.117-.055q-.023-15.24-.062-30.479c0-.863.247-1.134,1.105-1.1,1.637.062,3.278.018,5.2.018l-9.16-14.67-9.144,14.67c1.969,0,3.581.045,5.19-.018.858-.033,1.109.238,1.105,1.1q-.062,15.24-.062,30.479" transform="translate(-353.966 -2.407)" fill="#020202"/>
  <path id="Trazado_133160" data-name="Trazado 133160" d="M570.255,65.614c-1.433.008-2.876-.078-4.3.052-1.267.116-1.423-.424-1.417-1.512.042-7.476-.019-14.953.056-22.429.015-1.476-.2-2.077-1.881-1.977-2.909.173-5.835.048-9.06.048l19.512-31.26L592.687,39.8c-1.93,0-3.62-.039-5.307.011-1.831.054-4.343-.8-5.3.326-.924,1.081-.3,3.518-.3,5.36-.014,6.16-.039,12.321.024,18.481.012,1.25-.158,1.859-1.6,1.695a38.568,38.568,0,0,0-4.118-.055q-.022-15.24-.062-30.479c0-.863.247-1.134,1.105-1.1,1.637.062,3.278.018,5.2.018l-9.16-14.67-9.145,14.67c1.969,0,3.582.045,5.19-.018.858-.033,1.109.238,1.106,1.1q-.064,15.24-.062,30.479" transform="translate(-410.267 -2.407)" fill="#020202"/>
  <path id="Trazado_133161" data-name="Trazado 133161" d="M374.635,69.872q.023-15.24.062-30.479c0-.863-.247-1.135-1.105-1.1-1.609.062-3.221.018-5.19.018l9.144-14.67,9.16,14.67c-1.926,0-3.567.044-5.2-.018-.858-.032-1.109.238-1.105,1.1q.062,15.24.062,30.479h-5.823" transform="translate(-358.036 -6.666)" fill="#b5e4eb"/>
  <path id="Trazado_133162" data-name="Trazado 133162" d="M574.326,69.872q.023-15.24.062-30.479c0-.863-.248-1.135-1.106-1.1-1.608.062-3.221.018-5.19.018l9.145-14.67,9.16,14.67c-1.926,0-3.567.044-5.2-.018-.858-.032-1.109.238-1.105,1.1q.064,15.24.062,30.479h-5.823" transform="translate(-414.337 -6.666)" fill="#b5e4eb"/>
  <path id="Trazado_133163" data-name="Trazado 133163" d="M466.386,139.866q-12.9,0-25.807-.005c-.732,0-1.511.243-1.83-.878-2.569-9-6.046-17.74-7.941-26.926-4.308-20.876-.639-40.338,10.714-58.352,1.209-1.918,2.161-4.474,3.932-5.427s4.422-.288,6.687-.289q16.847-.014,33.693-.006a2.143,2.143,0,0,1,2.12.866,80.693,80.693,0,0,1,14.679,34.794,78.519,78.519,0,0,1-2.9,36.636c-1.925,6.019-3.819,12.05-5.615,18.109-.367,1.237-.9,1.515-2.105,1.508-8.543-.055-17.086-.029-25.628-.029M434.8,85.271A31.546,31.546,0,1,0,466.38,53.726,31.625,31.625,0,0,0,434.8,85.271M452,131.327c0-2.945,0-2.945-2.973-2.945-2.762,0-2.762,0-2.762,2.8,0,2.945,0,2.945,2.973,2.945,2.762,0,2.762,0,2.762-2.8m11.472-.192c0-2.753,0-2.753-2.808-2.753-2.929,0-2.929,0-2.929,2.99,0,2.753,0,2.753,2.808,2.753,2.929,0,2.929,0,2.929-2.99m11.471.213c0-2.966,0-2.966-2.953-2.966-2.784,0-2.784,0-2.784,2.777,0,2.966,0,2.966,2.953,2.966,2.784,0,2.784,0,2.784-2.777m8.776-2.966c-3.041,0-3.041,0-3.041,3.057,0,2.686,0,2.686,2.695,2.686,3.041,0,3.041,0,3.041-3.056,0-2.687,0-2.687-2.695-2.687" transform="translate(-375.137 -13.468)" fill="#f3f1ff"/>
  <path id="Trazado_133164" data-name="Trazado 133164" d="M491.371,31.006h-33.61c-.211-.6.265-.894.511-1.255q6.751-9.912,13.53-19.806c1.723-2.513,3.483-2.557,5.166-.11q6.894,10.03,13.744,20.093c.19.278.353.575.658,1.079" transform="translate(-383.215 -2.264)" fill="#8fd6e0"/>
  <path id="Trazado_133165" data-name="Trazado 133165" d="M423.941,167.179c-6.851,0-13.469-.017-20.088.021-.836.005-1.035-.236-1.2-1.048a5.51,5.51,0,0,0-4.639-4.6c-.881-.166-1.1-.476-.984-1.245a1.048,1.048,0,0,0,0-.358c-.837-4.057.84-6.253,4.691-7.815,5.216-2.115,10.142-4.946,15.236-7.491l6.986,22.541" transform="translate(-366.047 -40.78)" fill="#f6f8f9"/>
  <path id="Trazado_133166" data-name="Trazado 133166" d="M534.366,144.606c6.409,3.21,12.684,6.351,18.957,9.5.313.157.839.376.847.582q.12,3.211.07,6.427c-.007.472-.561.294-.875.365a5.793,5.793,0,0,0-4.734,4.764c-.121.579-.155.946-.916.943-6.73-.031-13.461-.018-20.335-.018l6.987-22.563" transform="translate(-402.858 -40.771)" fill="#f6f8f9"/>
  <path id="Trazado_133167" data-name="Trazado 133167" d="M373.143,142.243c0-4.243.034-8.487-.024-12.729-.015-1.1.179-1.558,1.427-1.514,2.921.1,5.849.07,8.773.012.969-.019,1.322.194,1.317,1.253q-.066,13.089-.005,26.177c0,.957-.169,1.354-1.243,1.327-2.983-.075-5.971-.094-8.952.007-1.213.041-1.323-.443-1.313-1.445.047-4.362.02-8.725.02-13.088" transform="translate(-359.366 -36.089)" fill="#ab9df1"/>
  <path id="Trazado_133168" data-name="Trazado 133168" d="M584.3,142.578c0,4.3-.032,8.607.023,12.909.014,1.017-.276,1.307-1.287,1.285q-4.474-.1-8.952,0c-1.03.024-1.278-.3-1.274-1.3q.056-13.089,0-26.176c0-1.016.276-1.307,1.286-1.285q4.475.1,8.953,0c1.029-.024,1.285.3,1.274,1.3-.052,4.423-.022,8.845-.022,13.268" transform="translate(-415.668 -36.093)" fill="#ab9df1"/>
  <path id="Trazado_133169" data-name="Trazado 133169" d="M463.863,200.008a17.83,17.83,0,0,0-.853,8.765,15.742,15.742,0,0,0,3.977,8.076c2.089,2.217,4.3,4.315,6.4,6.523.676.711,1.071.624,1.7-.033,2.028-2.112,4.169-4.116,6.167-6.254,4.266-4.565,5.274-9.651,3.384-17.071,1.5,0,2.956.008,4.409,0,.918-.007.977.791,1.206,1.344a16.05,16.05,0,0,1-4.563,18.375c-3.433,2.772-7.137,5.2-10.7,7.817a1.134,1.134,0,0,1-1.572-.045c-3.473-2.533-7.058-4.919-10.441-7.565a16.218,16.218,0,0,1-4.805-18.64,1.727,1.727,0,0,1,1.986-1.312c1.18.1,2.375.023,3.7.023" transform="translate(-383.019 -56.382)" fill="#583ae2"/>
  <path id="Trazado_133170" data-name="Trazado 133170" d="M445.5,184.082h50.915c-.527,1.753-1.031,3.427-1.534,5.1-.21.7-.78.6-1.313.6q-22.57,0-45.143.016c-.851,0-1.283-.215-1.5-1.091-.378-1.495-.9-2.953-1.421-4.629" transform="translate(-379.774 -51.901)" fill="#ab9df1"/>
  <path id="Trazado_133171" data-name="Trazado 133171" d="M484.492,206.84c.086,3.381-2.449,6.129-5.265,8.727-.32.3-.555.253-.923.022a11.381,11.381,0,0,1-4.123-14.386,1.747,1.747,0,0,1,1.885-1.216c1.786.092,3.582.088,5.369,0a1.7,1.7,0,0,1,1.9,1.2,13.043,13.043,0,0,1,1.161,5.655" transform="translate(-387.555 -56.385)" fill="#583ae2"/>
  <path id="Trazado_133172" data-name="Trazado 133172" d="M376.616,176.024c3.4,0,6.8.035,10.2-.022.991-.017,1.291.243,1.307,1.272.068,4.489.106,4.489-4.336,4.489-5.724,0-11.449-.032-17.173.026-1.143.012-1.5-.261-1.49-1.457.019-4.308-.031-4.308,4.34-4.308h7.155" transform="translate(-357.111 -49.623)" fill="#f5d67f"/>
  <path id="Trazado_133173" data-name="Trazado 133173" d="M576.312,181.761c-3.4,0-6.8-.035-10.2.022-.993.016-1.29-.248-1.305-1.275-.068-4.487-.106-4.487,4.337-4.487,5.724,0,11.449.032,17.173-.026,1.145-.012,1.494.265,1.489,1.458-.019,4.307.031,4.307-4.341,4.307h-7.155" transform="translate(-413.407 -49.622)" fill="#f5d67f"/>
  <path id="Trazado_133174" data-name="Trazado 133174" d="M380.428,209.223c-.741-2.915-1.532-5.662-2.11-8.454-.284-1.369-.767-1.338-1.769-.762-1.02.587-2.106,1.06-3.368,1.684a23.773,23.773,0,0,1,1.613-9.037c.251-.691.752-.635,1.287-.635,1.909,0,3.818.029,5.726-.012a1.4,1.4,0,0,1,1.491.934,14.632,14.632,0,0,1-2.869,16.283" transform="translate(-359.381 -54.135)" fill="#2ff980"/>
  <path id="Trazado_133175" data-name="Trazado 133175" d="M577.047,209.156c-4.267-3.8-5.542-11.765-2.786-16.466a1.268,1.268,0,0,1,1.3-.678c1.968.015,3.938.038,5.905-.011a1.156,1.156,0,0,1,1.3.895,24.576,24.576,0,0,1,1.508,8.8c-1.245-.62-2.369-1.136-3.449-1.731-.914-.5-1.392-.579-1.663.714-.588,2.8-1.375,5.551-2.119,8.474" transform="translate(-415.665 -54.134)" fill="#2ff980"/>
  <path id="Trazado_133176" data-name="Trazado 133176" d="M374.71,115.537c1.178-3.514,2.317-6.883,3.429-10.262.208-.633.531-1.1,1.224-1.084a1.2,1.2,0,0,1,1.117.985c1.13,3.427,2.281,6.846,3.457,10.361Z" transform="translate(-359.815 -29.376)" fill="#ab9df1"/>
  <path id="Trazado_133177" data-name="Trazado 133177" d="M583.636,115.535H574.42c1.2-3.6,2.365-7.1,3.544-10.6a1.047,1.047,0,0,1,1.1-.745c.7.04.972.556,1.173,1.164,1.1,3.325,2.214,6.643,3.4,10.186" transform="translate(-416.121 -29.374)" fill="#ab9df1"/>
  <path id="Trazado_133178" data-name="Trazado 133178" d="M437.05,87.611a31.546,31.546,0,1,1,31.507,31.626A31.611,31.611,0,0,1,437.05,87.611m51.926,15.529c7.322-8.625,8.093-24.6-3.262-34.806a25.736,25.736,0,0,0-36.825,2.658c-9.391,11.068-6.589,25.844-.579,32.076a23.364,23.364,0,0,1,10.746-10.44c-.561-.623-1.028-1.086-1.433-1.6-3.707-4.7-4.5-9.857-1.92-15.266a14.261,14.261,0,0,1,25.831.108c2.513,5.369,1.711,10.468-1.934,15.111-1.305,1.662-1.344,1.639.54,2.757a24.546,24.546,0,0,1,3.6,2.645,25.43,25.43,0,0,1,5.23,6.755m-20.3,10.365a26.189,26.189,0,0,0,15-4.907,1.409,1.409,0,0,0,.553-2.052,17.019,17.019,0,0,0-31.215-.088,1.487,1.487,0,0,0,.574,2.187,26.39,26.39,0,0,0,15.094,4.861m8.515-31.564a8.6,8.6,0,1,0-8.542,8.577,8.643,8.643,0,0,0,8.542-8.577" transform="translate(-377.391 -15.808)" fill="#030303"/>
  <path id="Trazado_133179" data-name="Trazado 133179" d="M458.763,162.979c0,2.8,0,2.8-2.763,2.8-2.973,0-2.973,0-2.973-2.945,0-2.8,0-2.8,2.762-2.8,2.973,0,2.973,0,2.973,2.945" transform="translate(-381.896 -45.121)" fill="#020202"/>
  <path id="Trazado_133180" data-name="Trazado 133180" d="M474.738,162.788c0,2.99,0,2.99-2.928,2.99-2.808,0-2.808,0-2.808-2.753,0-2.99,0-2.99,2.928-2.99,2.808,0,2.808,0,2.808,2.753" transform="translate(-386.4 -45.122)" fill="#020202"/>
  <path id="Trazado_133181" data-name="Trazado 133181" d="M490.713,163c0,2.777,0,2.777-2.784,2.777-2.952,0-2.952,0-2.952-2.966,0-2.777,0-2.777,2.784-2.777,2.952,0,2.952,0,2.952,2.966" transform="translate(-390.904 -45.121)" fill="#020202"/>
  <path id="Trazado_133182" data-name="Trazado 133182" d="M503.993,160.035c2.695,0,2.695,0,2.695,2.687,0,3.056,0,3.056-3.041,3.056-2.695,0-2.695,0-2.695-2.686,0-3.057,0-3.057,3.041-3.057" transform="translate(-395.408 -45.122)" fill="#020202"/>
  <path id="Trazado_133183" data-name="Trazado 133183" d="M491.233,105.394A25.434,25.434,0,0,0,486,98.638a24.484,24.484,0,0,0-3.6-2.645c-1.884-1.119-1.846-1.1-.541-2.757,3.646-4.642,4.447-9.742,1.934-15.111a14.26,14.26,0,0,0-25.831-.108c-2.584,5.408-1.787,10.567,1.919,15.266.4.513.872.977,1.433,1.6a23.37,23.37,0,0,0-10.746,10.439c-6.01-6.233-8.812-21.008.579-32.076a25.736,25.736,0,0,1,36.825-2.658c11.355,10.207,10.585,26.18,3.263,34.806" transform="translate(-379.647 -18.062)" fill="#2ff980"/>
  <path id="Trazado_133184" data-name="Trazado 133184" d="M474.847,129.29a26.387,26.387,0,0,1-15.093-4.861,1.487,1.487,0,0,1-.574-2.187,17.019,17.019,0,0,1,31.215.088,1.41,1.41,0,0,1-.554,2.052,26.189,26.189,0,0,1-15,4.907" transform="translate(-383.56 -31.593)" fill="#ab9df1"/>
  <path id="Trazado_133185" data-name="Trazado 133185" d="M486.2,88.707a8.6,8.6,0,1,1-8.474-8.64,8.648,8.648,0,0,1,8.474,8.64" transform="translate(-386.401 -22.575)" fill="#d5cef8"/>
</svg>
