<svg xmlns="http://www.w3.org/2000/svg" xmlns:xlink="http://www.w3.org/1999/xlink" width="97.708" height="97.708" viewBox="0 0 97.708 97.708">
  <defs>
    <clipPath id="clip-path">
      <rect id="Rectángulo_36989" data-name="Rectángulo 36989" width="70.41" height="70.428" fill="none"/>
    </clipPath>
  </defs>
  <g id="Grupo_86792" data-name="Grupo 86792" transform="translate(-0.278 -0.277)">
    <circle id="Elipse_5411" data-name="Elipse 5411" cx="48.854" cy="48.854" r="48.854" transform="translate(0.278 0.277)" fill="#2ff980"/>
    <g id="Grupo_86813" data-name="Grupo 86813" transform="translate(13.928 13.917)">
      <g id="Grupo_86806" data-name="Grupo 86806" clip-path="url(#clip-path)">
        <path id="Trazado_131705" data-name="Trazado 131705" d="M33.727,16.9q0,7.391,0,14.782c0,1.611-.434,2.053-2.018,2.053H2.014c-1.551,0-2.014-.462-2.014-2q0-14.851,0-29.7C0,.466.474,0,2.064,0H31.69c1.588,0,2.036.45,2.036,2.049q0,7.426,0,14.851m-2.923.016c0-4.4-.01-8.8.012-13.2,0-.589-.1-.823-.77-.821q-13.163.038-26.326,0c-.611,0-.825.139-.824.8q.033,13.2,0,26.4c0,.567.144.73.721.729q13.232-.027,26.463,0c.644,0,.736-.214.734-.781-.021-4.377-.012-8.755-.012-13.132" transform="translate(0 0)" fill="#010100"/>
        <path id="Trazado_131706" data-name="Trazado 131706" d="M149.941,33.736q-7.423,0-14.847,0c-1.5,0-1.96-.463-1.96-1.973q0-14.885,0-29.771C133.134.459,133.6,0,135.159,0h29.694c1.525,0,2.007.485,2.007,2.019q0,14.851,0,29.7c0,1.549-.46,2.013-2,2.014q-7.458,0-14.916,0m.039-2.923c4.422,0,8.844-.011,13.266.013.582,0,.721-.172.719-.734q-.025-13.2,0-26.4c0-.58-.129-.8-.758-.8q-13.231.029-26.463,0c-.528,0-.7.123-.7.682q.027,13.269,0,26.539c0,.6.193.709.741.707,4.4-.021,8.8-.012,13.2-.012" transform="translate(-96.45 0)" fill="#010100"/>
        <path id="Trazado_131707" data-name="Trazado 131707" d="M16.862,133.168H31.709c1.564,0,2.017.445,2.017,1.986q0,14.885,0,29.771c0,1.5-.475,1.979-1.969,1.979H1.995C.5,166.9,0,166.409,0,164.941q0-14.92,0-29.84c0-1.447.487-1.932,1.946-1.932q7.458,0,14.916,0m.026,2.923c-4.423,0-8.845.011-13.267-.013-.575,0-.723.157-.722.726q.027,13.2,0,26.4c0,.652.2.8.819.795q13.164-.027,26.329,0c.58,0,.777-.109.775-.743q-.035-13.236,0-26.473c0-.589-.174-.711-.731-.709-4.4.023-8.8.013-13.2.013" transform="translate(0 -96.475)" fill="#010100"/>
        <path id="Trazado_131708" data-name="Trazado 131708" d="M149.962,133.168q7.458,0,14.916,0c1.506,0,1.982.474,1.982,1.965q0,14.885,0,29.771c0,1.517-.489,2-2.027,2H135.138c-1.542,0-2-.463-2-2.012q0-14.851,0-29.7c0-1.587.441-2.021,2.05-2.022h14.778m-.015,30.821c4.4,0,8.8-.012,13.2.013.619,0,.816-.148.815-.8q-.032-13.2,0-26.4c0-.573-.152-.724-.723-.722q-13.233.027-26.466,0c-.56,0-.729.125-.727.71q.029,13.237,0,26.473c0,.638.2.743.778.74,4.377-.023,8.753-.012,13.13-.012" transform="translate(-96.451 -96.476)" fill="#010100"/>
        <path id="Trazado_131709" data-name="Trazado 131709" d="M38.418,24.526c0,4.377-.01,8.755.012,13.132,0,.567-.089.783-.734.781q-13.232-.036-26.463,0c-.577,0-.722-.162-.721-.729q.026-13.2,0-26.4c0-.656.213-.8.824-.8q13.163.026,26.326,0c.675,0,.773.232.77.821-.021,4.4-.012,8.8-.012,13.2" transform="translate(-7.613 -7.61)" fill="#e15041"/>
        <path id="Trazado_131710" data-name="Trazado 131710" d="M157.629,38.422c-4.4,0-8.8-.009-13.2.012-.549,0-.742-.11-.741-.707q.03-13.269,0-26.539c0-.559.173-.683.7-.682q13.231.022,26.463,0c.629,0,.759.216.758.8q-.024,13.2,0,26.4c0,.562-.137.737-.719.734-4.422-.024-8.844-.013-13.266-.013" transform="translate(-104.099 -7.609)" fill="#66ab5a"/>
        <path id="Trazado_131711" data-name="Trazado 131711" d="M24.507,143.744c4.4,0,8.8.01,13.2-.013.557,0,.732.12.731.709q-.03,13.236,0,26.473c0,.634-.2.744-.775.743q-13.164-.027-26.329,0c-.614,0-.82-.142-.819-.795q.033-13.2,0-26.4c0-.57.146-.729.722-.726,4.422.024,8.845.013,13.267.013" transform="translate(-7.618 -104.128)" fill="#4695ea"/>
        <path id="Trazado_131712" data-name="Trazado 131712" d="M157.59,171.643c-4.377,0-8.753-.01-13.13.012-.576,0-.779-.1-.778-.74q.036-13.237,0-26.473c0-.585.168-.711.727-.71q13.233.027,26.466,0c.572,0,.724.149.723.722q-.027,13.2,0,26.4c0,.649-.2.8-.815.8-4.4-.025-8.8-.013-13.2-.013" transform="translate(-104.094 -104.13)" fill="#f4c144"/>
      </g>
    </g>
  </g>
</svg>
