<svg xmlns="http://www.w3.org/2000/svg" width="67" height="90.367" viewBox="0 0 67 90.367">
  <g id="Grupo_87551" data-name="Grupo 87551" transform="translate(-218 -1676.725)">
    <g id="Grupo_81330" data-name="Grupo 81330" transform="translate(218 1676.725)">
      <rect id="Rectángulo_34185" data-name="Rectángulo 34185" width="67" height="90.367" rx="5" fill="#fff"/>
    </g>
    <g id="Grupo_86767" data-name="Grupo 86767" transform="translate(229.54 1687.05)">
      <path id="Trazado_131235" data-name="Trazado 131235" d="M210.341,22.288c.085.025.171.047.255.074a.861.861,0,0,1,.64.982.843.843,0,0,1-.859.74c-1.171.013-2.342.015-3.512,0-.3,0-.37.082-.369.372,0,.911-.3,1.2-1.192,1.2q-1.823,0-3.647,0c-.822,0-1.156-.306-1.138-1.114.008-.384-.119-.47-.477-.453-.636.03-1.274.014-1.912.006-.695-.008-.957-.234-1.084-.91a.932.932,0,0,1,1.085-.868c.637,0,1.276-.031,1.911.01.415.027.49-.125.475-.5-.03-.68-.032-1.363,0-2.044.019-.4-.091-.517-.507-.515-4.5.016-9.008.008-13.512.013-.473,0-.948.025-1.419.07a7.181,7.181,0,0,0-6.133,5.977c-.034.287.025.387.334.381.947-.02,1.9-.028,2.844,0,.355.012.471-.108.553-.433a3.827,3.827,0,0,1,3.359-2.92,39.641,39.641,0,0,1,4.131-.039c.526,0,.771.279.907.861-.12.68-.382.9-1.08.9-1.127,0-2.253,0-3.379,0a2.181,2.181,0,0,0-2.086,1.248c-.113.222-.168.357.193.376a.87.87,0,0,1,.934,1q.016,1.978,0,3.956c-.006.7-.346,1.018-1.053,1.025-.545,0-1.09,0-1.679,0,.242.552.492,1.052.684,1.573A3.15,3.15,0,0,1,182,37.344a3.191,3.191,0,0,1-4.43-3.7,13.34,13.34,0,0,1,.816-1.945c-.53,0-1.008,0-1.487,0-.735-.006-1.063-.329-1.065-1.056q-.005-1.956,0-3.912a.885.885,0,0,1,.961-1.018c.221-.013.338-.037.373-.3a8.887,8.887,0,0,1,8.993-7.908,2.107,2.107,0,0,1,.267,0c.208.025.286-.049.279-.268-.016-.474-.015-.948,0-1.422.006-.221-.08-.27-.286-.27q-4.38.008-8.759,0c-.245,0-.3.091-.293.312a7.2,7.2,0,0,1,0,.8.831.831,0,0,1-.853.841c-.562.019-1.126.008-1.69.008q-3.89,0-7.781,0c-.69,0-1.1-.448-.984-1.057a.944.944,0,0,1,.887-.742c1.08.007,2.16.006,3.24.027.288.006.256-.16.256-.341q0-4.64,0-9.28c0-.224-.042-.336-.3-.384-1.058-.2-2.111-.432-3.166-.652a3.372,3.372,0,0,1-.5-.177.881.881,0,0,1-.394-1.073.9.9,0,0,1,1.088-.547c.884.179,1.767.362,2.645.57a11.5,11.5,0,0,0,3.031.341c1.14-.036,2.282-.011,3.423-.007.778,0,1.074.285,1.091,1.066.006.25.069.331.324.326a4.059,4.059,0,0,0,1.913-.487c1.565-.866,3.1-1.794,4.707-2.571a5.857,5.857,0,0,1,6.447.49c1.872,1.4,3.69,2.877,5.52,4.335a4.624,4.624,0,0,1-2.74,8.2c-.1,0-.208.007-.311.008-.769.009-.772.009-.768.756,0,.383-.131.9.063,1.114.226.255.75.08,1.144.081,2.149.008,4.3,0,6.446.013.336,0,.419-.083.413-.415-.017-1.032.253-1.288,1.274-1.288q1.8,0,3.6,0c.778,0,1.1.331,1.111,1.11,0,.583,0,.583.576.584,1.068,0,2.134-.008,3.2,0a.887.887,0,0,1,.957.8.864.864,0,0,1-.806.977c-.029.006-.057.015-.086.023-1.2-.007-2.393-.011-3.589-.023-.192,0-.259.063-.258.254q.011,1.262,0,2.526c0,.191.057.257.252.255,1.2-.015,2.393-.018,3.589-.026m-16.853-8.543a2.435,2.435,0,0,0,1.324-.389,2.826,2.826,0,0,0,.251-4.7c-1.735-1.409-3.5-2.779-5.267-4.153a4.179,4.179,0,0,0-4.75-.373c-1.544.776-3.04,1.649-4.548,2.494a5.294,5.294,0,0,1-2.757.711c-.329-.008-.384.108-.381.4.013,1.851.02,3.7,0,5.555,0,.4.1.484.489.483,4.163-.015,8.326-.009,12.489-.011a4.077,4.077,0,0,0,.533-.018,1.26,1.26,0,0,0-.006-2.493,4.188,4.188,0,0,0-.532-.021c-1.615,0-3.23.006-4.845,0a1.6,1.6,0,0,1-1.645-1.106,1.587,1.587,0,0,1,.588-1.85c.4-.33.8-.656,1.2-.987a2.051,2.051,0,0,1,2.926-.085q1.783,1.285,3.564,2.572a3.153,3.153,0,0,1,1.369,3.97m-21.277-2.882c0,1.5.006,2.991,0,4.488,0,.284.069.387.372.38.888-.02,1.778-.018,2.666,0,.278,0,.348-.086.348-.354q-.013-4.532,0-9.064c0-.315-.12-.367-.39-.362-.859.012-1.718.02-2.577,0-.339-.008-.426.1-.422.429.016,1.5.007,2.991.007,4.488m32.514,9.895c0-.948-.007-1.9,0-2.845,0-.245-.058-.339-.319-.332-.607.018-1.215.015-1.823,0-.234-.006-.306.073-.305.3q.009,2.845,0,5.69c0,.223.058.315.3.309q.911-.022,1.823,0c.253.006.329-.074.326-.327-.013-.933-.006-1.867-.006-2.8m-24,9.164c.932,0,1.864-.013,2.8.007.3.007.378-.094.369-.376-.017-.591-.014-1.183,0-1.774.006-.241-.089-.3-.312-.3q-2.839.011-5.679,0c-.242,0-.3.086-.293.309.013.607.016,1.213,0,1.819-.008.258.08.323.327.319.932-.013,1.863-.006,2.8,0m1.334,4.559a.739.739,0,0,0,0-.177,16.37,16.37,0,0,0-1.083-2.509c-.081-.183-.592-.141-.682.052a14.337,14.337,0,0,0-1.017,2.3,1.29,1.29,0,0,0,.505,1.412,1.31,1.31,0,0,0,1.453.179,1.368,1.368,0,0,0,.825-1.258M189.577,17.5c.251,0,.5-.016.752,0,.268.023.367-.063.351-.343a11.631,11.631,0,0,1,0-1.282c.015-.283-.089-.36-.355-.343-.323.02-.649,0-.973,0-.875,0-.875,0-.875.872,0,1.087,0,1.087,1.1,1.087m-.961-8.063c-.5-.363-.889-.648-1.281-.93-.083-.06-.186-.142-.281-.069-.395.3-.779.619-1.253,1Z" transform="translate(-166.03 -1.777)" fill="#030303"/>
      <path id="Trazado_131236" data-name="Trazado 131236" d="M188.628,63.206H167.242c-.948,0-1.205-.26-1.205-1.218,0-1.156,0-2.312,0-3.468,0-.681.274-.98.947-1.025a3.271,3.271,0,0,0,2.034-.877,4.69,4.69,0,0,1,6.61-.037,2.944,2.944,0,0,0,4.292-.03,4.7,4.7,0,0,1,5.778-.564,6.37,6.37,0,0,1,.8.632,2.912,2.912,0,0,0,4.16,0,4.812,4.812,0,0,1,5.78-.7,6.533,6.533,0,0,1,.942.737,2.949,2.949,0,0,0,4.1-.006,4.736,4.736,0,0,1,6.72,0,3.129,3.129,0,0,0,2.044.845c.725.03,1,.324,1.006,1.056q.006,1.779,0,3.557c0,.8-.3,1.1-1.1,1.1h-21.52m0-1.779h6.891c4.49,0,8.981-.007,13.47.011.423,0,.521-.125.491-.512a9.6,9.6,0,0,1,0-1.288c.018-.313-.061-.46-.4-.536a4.365,4.365,0,0,1-2.008-1.082A2.984,2.984,0,0,0,202.64,58a4.745,4.745,0,0,1-6.458-.024,2.944,2.944,0,0,0-4.325-.021,4.746,4.746,0,0,1-6.559-.023,2.933,2.933,0,0,0-4.226-.023,4.7,4.7,0,0,1-6.646-.011,2.924,2.924,0,0,0-4.191.015,4.734,4.734,0,0,1-2.141,1.2c-.217.051-.289.141-.283.358a13.594,13.594,0,0,1,0,1.467c-.032.409.1.5.5.5q10.158-.019,20.317-.009" transform="translate(-166.031 -17.617)" fill="#020202"/>
      <path id="Trazado_131237" data-name="Trazado 131237" d="M196.513,30.552c-.137-.581-.381-.857-.908-.861a39.629,39.629,0,0,0-4.13.039,3.827,3.827,0,0,0-3.359,2.92c-.082.325-.2.445-.553.433-.947-.032-1.9-.023-2.844,0-.309.006-.368-.094-.334-.381a7.183,7.183,0,0,1,6.133-5.977c.471-.045.946-.07,1.419-.07,4.5-.006,9.007,0,13.512-.013.416,0,.526.115.507.515-.032.68-.03,1.364,0,2.044.016.373-.06.524-.475.5-.634-.041-1.273-.014-1.911-.01a.932.932,0,0,0-1.085.868l-2.078,0c-.158-.57-.452-.845-.911-.852s-.75.272-.9.853l-2.084,0" transform="translate(-171.466 -9.143)" fill="#c7d4d5"/>
      <path id="Trazado_131238" data-name="Trazado 131238" d="M167.359,6.46c1.055.22,2.108.451,3.167.652.254.049.3.16.3.384q-.008,4.641,0,9.281c0,.181.032.346-.256.34-1.079-.021-2.16-.02-3.239-.027q0-5.073,0-10.147c0-.161.023-.323.035-.484" transform="translate(-166.413 -3.164)" fill="#c8d6d7"/>
      <path id="Trazado_131239" data-name="Trazado 131239" d="M227.382,29.658c-1.2.007-2.393.011-3.589.025-.194,0-.253-.063-.251-.254q.012-1.264,0-2.527c0-.191.065-.255.257-.253,1.2.013,2.393.016,3.589.023l-.006,2.986" transform="translate(-183.07 -9.146)" fill="#c7d4d5"/>
      <path id="Trazado_131240" data-name="Trazado 131240" d="M204.585,31.836c.147-.581.441-.859.9-.852s.752.281.91.852c-.122.623-.426.92-.928.908s-.773-.306-.88-.908" transform="translate(-177.453 -10.431)" fill="#050505"/>
      <path id="Trazado_131241" data-name="Trazado 131241" d="M198.258,14.5a3.153,3.153,0,0,0-1.369-3.97q-1.784-1.284-3.564-2.572a2.05,2.05,0,0,0-2.925.085c-.4.331-.8.657-1.2.987a1.588,1.588,0,0,0-.588,1.85,1.6,1.6,0,0,0,1.645,1.106c1.615.009,3.23,0,4.845,0a4.188,4.188,0,0,1,.532.021,1.26,1.26,0,0,1,.006,2.493,4.073,4.073,0,0,1-.533.018c-4.163,0-8.326,0-12.489.011-.387,0-.494-.085-.488-.483.024-1.851.017-3.7,0-5.555,0-.3.053-.412.381-.4a5.294,5.294,0,0,0,2.757-.711c1.508-.845,3-1.718,4.548-2.494a4.179,4.179,0,0,1,4.75.373C196.33,6.631,198.1,8,199.834,9.41a2.826,2.826,0,0,1-.251,4.7,2.435,2.435,0,0,1-1.324.389" transform="translate(-170.799 -2.53)" fill="#f7d9d4"/>
      <path id="Trazado_131242" data-name="Trazado 131242" d="M174.813,12.619c0-1.5.009-2.991-.007-4.488,0-.328.084-.438.422-.429.859.023,1.718.015,2.577,0,.271,0,.391.048.391.362q-.019,4.532,0,9.064c0,.268-.07.359-.348.354-.889-.017-1.778-.019-2.666,0-.3.007-.374-.1-.372-.38.012-1.5.006-2.991.006-4.488" transform="translate(-168.63 -3.532)" fill="#858ca9"/>
      <path id="Trazado_131243" data-name="Trazado 131243" d="M219.991,27.412c0,.934-.008,1.867.006,2.8,0,.253-.073.333-.327.326-.607-.016-1.215-.015-1.823,0-.241.006-.3-.086-.3-.309q.008-2.846,0-5.691c0-.23.072-.309.305-.3.607.014,1.215.017,1.823,0,.261-.008.323.087.32.332-.012.948,0,1.9,0,2.845" transform="translate(-181.294 -8.431)" fill="#c2d0d1"/>
      <path id="Trazado_131244" data-name="Trazado 131244" d="M185.6,40.743c-.932,0-1.863-.007-2.8.006-.248,0-.335-.063-.327-.32.017-.606.013-1.212,0-1.818,0-.223.052-.31.293-.31q2.839.014,5.679,0c.223,0,.319.058.313.3-.013.591-.016,1.184,0,1.775.008.281-.066.384-.369.376-.932-.021-1.863-.008-2.8-.008" transform="translate(-170.903 -12.599)" fill="#c3d1d1"/>
      <path id="Trazado_131245" data-name="Trazado 131245" d="M187.616,47.071a1.366,1.366,0,0,1-.825,1.257,1.309,1.309,0,0,1-1.453-.178,1.29,1.29,0,0,1-.505-1.412,14.4,14.4,0,0,1,1.017-2.3c.09-.194.6-.235.682-.052a16.375,16.375,0,0,1,1.083,2.509.706.706,0,0,1,0,.177" transform="translate(-171.586 -14.367)" fill="#bfd6f7"/>
      <path id="Trazado_131246" data-name="Trazado 131246" d="M199.029,23.3c-1.1,0-1.1,0-1.1-1.087,0-.872,0-.872.875-.872.324,0,.65.015.973,0,.266-.017.37.06.355.343a11.806,11.806,0,0,0,0,1.282c.015.28-.083.365-.35.343-.249-.02-.5,0-.752,0" transform="translate(-175.481 -7.571)" fill="#c2cfd0"/>
      <path id="Trazado_131247" data-name="Trazado 131247" d="M196.941,12.236h-2.816c.474-.38.859-.7,1.253-1,.1-.073.2.009.281.069.392.282.782.567,1.281.93" transform="translate(-174.354 -4.571)" fill="#e4c8c4"/>
      <path id="Trazado_131248" data-name="Trazado 131248" d="M189.37,62.175q-10.159,0-20.317.009c-.4,0-.535-.091-.5-.5a13.6,13.6,0,0,0,0-1.467c-.006-.217.065-.307.283-.358a4.734,4.734,0,0,0,2.141-1.2,2.924,2.924,0,0,1,4.191-.015,4.7,4.7,0,0,0,6.646.011,2.934,2.934,0,0,1,4.226.023,4.746,4.746,0,0,0,6.559.023,2.944,2.944,0,0,1,4.325.021,4.745,4.745,0,0,0,6.458.024,2.984,2.984,0,0,1,4.431.025,4.365,4.365,0,0,0,2.008,1.082c.337.075.417.222.4.536a9.6,9.6,0,0,0,0,1.288c.03.387-.068.514-.491.512-4.49-.018-8.98-.011-13.47-.011Z" transform="translate(-166.775 -18.365)" fill="#c2d8f9"/>
    </g>
  </g>
</svg>
