<svg xmlns="http://www.w3.org/2000/svg" width="97.708" height="97.708" viewBox="0 0 97.708 97.708">
  <g id="Grupo_86793" data-name="Grupo 86793" transform="translate(-0.278 -0.277)">
    <circle id="Elipse_5411" data-name="Elipse 5411" cx="48.854" cy="48.854" r="48.854" transform="translate(0.278 0.277)" fill="#2ff980"/>
    <g id="Grupo_86814" data-name="Grupo 86814" transform="translate(-256.509 740.118)">
      <path id="Trazado_131650" data-name="Trazado 131650" d="M311.535,612.226c-.262,1.034-.571,1.259-1.773,1.26q-13.941,0-27.881,0c-1.809,0-3.626.072-5.425-.069a7.194,7.194,0,0,1-6.739-7.346q-.024-12.952-.005-25.9,0-8.8,0-17.6c0-4.677,3.089-7.759,7.774-7.768q2.139,0,4.277,0c1.4,0,1.4,0,1.427-1.385a3.647,3.647,0,0,1,2.124-3.433,3.779,3.779,0,0,1,5.458,3.252c.064,1.567.064,1.567,1.651,1.567,1.431,0,1.431,0,1.462-1.435a3.792,3.792,0,1,1,7.584,0c.035,1.434.035,1.434,1.453,1.434,1.6,0,1.6,0,1.661-1.57a3.791,3.791,0,0,1,7.575-.059c.028.515-.158,1.223.109,1.5.364.375,1.084.114,1.65.122,1.339.022,1.339.007,1.355-1.288a3.8,3.8,0,1,1,7.587-.033c.02,1.329.02,1.335,1.311,1.326.57,0,1.28.16,1.669-.115s.1-1.021.13-1.56a3.8,3.8,0,0,1,7.577-.009c.041.54-.237,1.272.118,1.572.416.353,1.151.1,1.746.11,1.727.028,3.471-.117,5.176.081a7.244,7.244,0,0,1,6.439,7.476c.015,6.688,0,13.376,0,20.064,0,.439,0,.877,0,1.316-.009,1.072-.239,1.368-1.3,1.676a1.4,1.4,0,0,1-1.208-1.322c.01-5.04,0-10.081.047-15.121.007-.751-.186-.944-.94-.942-9.125.027-18.25.018-27.375.018H286.249c-1.323,0-1.632-.243-1.787-1.384.369-.96.611-1.1,1.92-1.1h56.993c.219,0,.44-.015.657,0,.381.033.538-.1.527-.507-.027-1.041.032-2.085-.026-3.123a4.819,4.819,0,0,0-4.9-4.648c-1.425-.016-2.851-.007-4.277,0-.571,0-1.279-.174-1.676.1s-.1,1.017-.135,1.553a3.8,3.8,0,0,1-7.581.058c-.037-.561.261-1.331-.162-1.629-.388-.273-1.111-.078-1.686-.08-1.247,0-1.247,0-1.263,1.291a3.8,3.8,0,1,1-7.587.039c-.02-1.33-.02-1.336-1.319-1.328-.57,0-1.283-.166-1.668.11-.368.264-.086,1.02-.125,1.559a3.8,3.8,0,0,1-7.434.825,5.227,5.227,0,0,1-.135-1.874c.029-.519-.142-.7-.642-.626a4.55,4.55,0,0,1-.575,0c-.6.01-1.341-.19-1.761.091s-.1,1.067-.148,1.629a3.807,3.807,0,0,1-7.564.251c-.094-.652.329-1.551-.239-1.895-.5-.3-1.337-.021-2.016-.091-.717-.074-.955.141-.885.878a3.841,3.841,0,0,1-7.189,2.335,5.534,5.534,0,0,1-.376-2.65c.03-.429-.106-.563-.544-.558-1.944.024-3.888-.021-5.831.026a4.756,4.756,0,0,0-4.5,3.758,26.139,26.139,0,0,0-.148,3.845c-.04.563.171.674.689.668,2.381-.025,4.763,0,7.145-.019a1.544,1.544,0,0,1,1.694,1.105c-.233,1.141-.51,1.386-1.648,1.39-2.33.007-4.66.031-6.989-.015-.7-.014-.9.139-.9.881q.041,18.414.02,36.829c0,.219,0,.438.008.657a4.686,4.686,0,0,0,4.127,4.509,86.208,86.208,0,0,0,9.03.035c.38.02.76.059,1.14.059q11.317,0,22.634,0c.519,0,1.037.026,1.556.039a1.431,1.431,0,0,1,.853,1.185M328.442,556c0,.877-.015,1.755,0,2.632a1.321,1.321,0,0,0,1.3,1.4,1.339,1.339,0,0,0,1.319-1.4q.035-2.59,0-5.181a1.341,1.341,0,0,0-1.319-1.4,1.322,1.322,0,0,0-1.3,1.4c-.019.849,0,1.7,0,2.549m-40.14.043c0-.85.015-1.7,0-2.549a1.355,1.355,0,0,0-1.358-1.441,1.329,1.329,0,0,0-1.269,1.436q-.021,2.549,0,5.1a1.33,1.33,0,0,0,1.265,1.44,1.351,1.351,0,0,0,1.362-1.435c.02-.849,0-1.7,0-2.549m29.445-.009c0,.85-.012,1.7,0,2.549a1.319,1.319,0,1,0,2.627.014q.031-2.549,0-5.1a1.352,1.352,0,0,0-1.355-1.445,1.33,1.33,0,0,0-1.272,1.431c-.017.85,0,1.7,0,2.549m-10.693,0c0,.85-.013,1.7,0,2.549a1.319,1.319,0,1,0,2.627,0q.029-2.549,0-5.1a1.35,1.35,0,0,0-1.359-1.44,1.334,1.334,0,0,0-1.269,1.436c-.016.849,0,1.7,0,2.549m-10.694-.069c0,.877-.013,1.755,0,2.631a1.314,1.314,0,1,0,2.623.059q.037-2.631,0-5.263a1.31,1.31,0,1,0-2.619.023c-.023.849-.005,1.7-.007,2.549" transform="translate(-6.197 -1278.516)" fill="#030404"/>
      <path id="Trazado_131651" data-name="Trazado 131651" d="M405.864,637.048a21.343,21.343,0,0,1,6.955,9.374,20.53,20.53,0,0,1-38.278,14.839c-.071-.173-.171-.335-.258-.5-.071-.262-.128-.529-.214-.787a20.194,20.194,0,0,1-.487-11.167c.251-1.067.563-1.3,1.65-1.261.8.391.919,1,.752,1.845-1.486,7.474.685,13.683,6.64,18.457a16.118,16.118,0,0,0,9.418,3.6,13.328,13.328,0,0,0,4.979-.216,18.035,18.035,0,0,0,5.141-33.568,16.714,16.714,0,0,0-10.121-2.074,9.52,9.52,0,0,0-1.06.061,18,18,0,0,0-12.885,8.558,1.437,1.437,0,0,1-1.85.751,1.345,1.345,0,0,1-.382-1.873c3.877-6.96,12.794-11.2,20.692-9.89a22.335,22.335,0,0,1,9.308,3.851" transform="translate(-66.328 -1327.054)" fill="#040404"/>
      <path id="Trazado_131652" data-name="Trazado 131652" d="M371.249,643.558c-1.087-.041-1.4.195-1.649,1.261a20.194,20.194,0,0,0,.487,11.167c.085.257.143.524.213.787l-2.617,0a1.433,1.433,0,0,0-.853-1.185,3.851,3.851,0,0,0-.036-.654,23.977,23.977,0,0,1-.479-7.96,22.95,22.95,0,0,1,7.2-14.422,23.18,23.18,0,0,1,8.239-5.077,35.551,35.551,0,0,1,5.972-1.367,21.69,21.69,0,0,0,5.6.087c.031.238.193.277.4.309a30.029,30.029,0,0,1,3.911,1.045c1.037.308,1.88,1.135,3.034,1.085a1.4,1.4,0,0,0,1.207,1.322l0,3.1a22.339,22.339,0,0,0-9.308-3.851c-7.9-1.307-16.814,2.93-20.691,9.89a1.344,1.344,0,0,0,.382,1.873,12.076,12.076,0,0,0-1.016,2.584" transform="translate(-62.345 -1323.068)" fill="#e7e6e8"/>
      <path id="Trazado_131653" data-name="Trazado 131653" d="M363.548,607.884c-1.154.051-2-.777-3.033-1.085a30.049,30.049,0,0,0-3.911-1.045c-.21-.033-.372-.071-.4-.309a3.02,3.02,0,0,0,2.03-3.212c-.044-1.066.011-2.135-.015-3.2a2.784,2.784,0,0,0-2.835-2.881c-1.23-.043-2.465-.044-3.7,0a2.846,2.846,0,0,0-2.87,2.952c-.019,1.04.025,2.081-.011,3.121a3.116,3.116,0,0,0,1.794,3.138,35.576,35.576,0,0,0-5.972,1.367,23.88,23.88,0,0,0-13.13,11.607,23.509,23.509,0,0,0-2.3,7.892,23.978,23.978,0,0,0,.479,7.96,3.77,3.77,0,0,1,.036.654c-.518-.014-1.037-.039-1.556-.039q-11.317,0-22.634,0c-.38,0-.76-.038-1.14-.058a.75.75,0,0,0-.285-.557,5.89,5.89,0,0,1-1.7-3.573A3.067,3.067,0,0,0,305.711,627c-.064-.759-.01-1.527-.01-2.29v-.245c0-2.216-.941-3.161-3.305-3.336V618.1a3.062,3.062,0,0,0,3.317-3.6c-.063-.731-.01-1.472-.01-2.209v-.327c0-2.217-.953-3.173-3.305-3.332v-3.032a3.068,3.068,0,0,0,3.317-3.607c-.065-.785-.01-1.581-.01-2.372,0-2.4-.931-3.383-3.3-3.492q0-2.833,0-5.665l1.091,0c.155,1.141.464,1.384,1.787,1.384H335.28c9.125,0,18.25.01,27.376-.018.753,0,.946.191.94.942-.045,5.04-.038,10.081-.047,15.121m-23.089-2.328c.576,0,1.151.017,1.727,0a2.844,2.844,0,0,0,2.9-2.763,37.676,37.676,0,0,0,0-3.862,2.784,2.784,0,0,0-2.866-2.779c-1.232-.039-2.468-.043-3.7,0a2.8,2.8,0,0,0-2.833,2.82c-.051,1.231-.048,2.467,0,3.7a2.878,2.878,0,0,0,2.959,2.886c.6.017,1.206,0,1.809,0m-17.872-4.728h-.013c0,.63-.023,1.261,0,1.89a2.833,2.833,0,0,0,2.83,2.827c1.232.044,2.468.042,3.7,0a2.866,2.866,0,0,0,2.871-2.889c.036-1.232.042-2.467,0-3.7a2.8,2.8,0,0,0-2.764-2.8c-1.34-.053-2.688-.056-4.026.014a2.719,2.719,0,0,0-2.589,2.6c-.046.682-.008,1.369-.008,2.054m-8.392-4.664v-.017c-.658,0-1.317-.03-1.973.005a2.789,2.789,0,0,0-2.773,2.861c-.021,1.205-.019,2.412,0,3.617a2.809,2.809,0,0,0,2.741,2.907c1.285.063,2.578.059,3.863,0a2.828,2.828,0,0,0,2.783-2.794c.036-1.287.039-2.577,0-3.863a2.775,2.775,0,0,0-2.583-2.71c-.68-.056-1.369-.01-2.053-.01m13.119,12.493c-.63,0-1.261-.016-1.891,0a2.778,2.778,0,0,0-2.84,2.792c-.043,1.258-.042,2.521,0,3.78a2.817,2.817,0,0,0,2.831,2.82q1.848.055,3.7,0a2.848,2.848,0,0,0,2.86-2.81c.05-1.258.048-2.522,0-3.781a2.826,2.826,0,0,0-2.851-2.8c-.6-.02-1.205,0-1.809,0m-17.864,4.659h-.006c0,.6-.01,1.206,0,1.809a2.834,2.834,0,0,0,2.811,2.926c1.259.043,2.522.044,3.781,0a2.834,2.834,0,0,0,2.8-2.781q.057-1.93,0-3.862a2.765,2.765,0,0,0-2.651-2.728c-1.368-.054-2.741-.054-4.109,0a2.741,2.741,0,0,0-2.617,2.663c-.028.656-.005,1.315-.005,1.972m0,12.52h-.006c0,.6-.01,1.206,0,1.808a2.835,2.835,0,0,0,2.823,2.915c1.259.043,2.523.048,3.781,0a2.835,2.835,0,0,0,2.784-2.794c.036-1.286.039-2.576,0-3.863a2.761,2.761,0,0,0-2.663-2.714c-1.368-.055-2.741-.057-4.109,0a2.739,2.739,0,0,0-2.6,2.675c-.027.656,0,1.315,0,1.972" transform="translate(-25.222 -1302.313)" fill="#f6f4f5"/>
      <path id="Trazado_131654" data-name="Trazado 131654" d="M303.48,577.3l-1.091,0-.006-.017c0-1.687.007-3.374,0-5.061a2.123,2.123,0,0,1,.206-1.106,3.84,3.84,0,0,0,7.189-2.335c-.07-.737.168-.952.885-.878.678.07,1.512-.214,2.015.091.568.343.145,1.243.239,1.895a3.807,3.807,0,0,0,7.564-.251c.047-.563-.269-1.352.147-1.629s1.161-.081,1.761-.091a4.561,4.561,0,0,0,.575,0c.5-.072.671.107.642.627a5.245,5.245,0,0,0,.135,1.874,3.8,3.8,0,0,0,7.434-.825c.039-.538-.243-1.294.125-1.559.385-.276,1.1-.106,1.668-.11,1.3-.008,1.3,0,1.318,1.328a3.8,3.8,0,1,0,7.587-.038c.016-1.292.016-1.294,1.264-1.291.575,0,1.3-.193,1.685.08.423.3.125,1.067.162,1.629a3.8,3.8,0,0,0,7.58-.058c.038-.536-.254-1.288.135-1.553s1.1-.094,1.676-.1c1.425-.006,2.851-.015,4.277,0a4.818,4.818,0,0,1,4.9,4.648c.058,1.038,0,2.083.026,3.123.011.409-.146.54-.527.507-.218-.019-.438,0-.658,0H305.4c-1.308,0-1.551.141-1.92,1.1" transform="translate(-25.215 -1289.158)" fill="#d7eff3"/>
      <path id="Trazado_131655" data-name="Trazado 131655" d="M286.794,618.076q0,1.516,0,3.032c-1.04.011-2.081.011-3.12.035a2.836,2.836,0,0,0-2.971,3.007c-.009,1.1-.006,2.191,0,3.287a2.907,2.907,0,0,0,3.135,3.115l2.955.033a5.89,5.89,0,0,0,1.7,3.574.749.749,0,0,1,.285.557,86.174,86.174,0,0,1-9.03-.035,4.686,4.686,0,0,1-4.127-4.509c-.011-.219-.007-.438-.007-.657q0-18.414-.02-36.829c0-.742.2-.895.9-.881,2.329.046,4.659.022,6.988.015,1.139,0,1.416-.249,1.649-1.39l1.66-.009.006.017q0,2.833,0,5.665c-1.1.008-2.193-.018-3.286.031a2.809,2.809,0,0,0-2.8,2.919c-.014,1.123-.008,2.246,0,3.369a2.906,2.906,0,0,0,3.135,3.115l2.955.036q0,1.517,0,3.032c-1.068.011-2.135.009-3.2.036a2.817,2.817,0,0,0-2.887,2.919c-.015,1.15-.01,2.3,0,3.451a2.883,2.883,0,0,0,3.052,3.028q1.518.021,3.037.037" transform="translate(-9.621 -1302.294)" fill="#ebeaec"/>
      <path id="Trazado_131656" data-name="Trazado 131656" d="M286.8,577.365l-1.66.009a1.543,1.543,0,0,0-1.694-1.105c-2.382.021-4.764-.007-7.145.018-.519.006-.73-.106-.689-.668a26.08,26.08,0,0,1,.148-3.845,4.756,4.756,0,0,1,4.5-3.758c1.942-.046,3.887,0,5.83-.026.438-.005.574.129.545.557A5.531,5.531,0,0,0,287,571.2a2.122,2.122,0,0,0-.206,1.106c.005,1.687,0,3.374,0,5.061" transform="translate(-9.628 -1289.238)" fill="#b2e3ec"/>
      <path id="Trazado_131657" data-name="Trazado 131657" d="M410.223,559.458c0-.85-.015-1.7,0-2.549a1.322,1.322,0,0,1,1.3-1.4,1.34,1.34,0,0,1,1.319,1.4q.034,2.59,0,5.181a1.339,1.339,0,0,1-1.319,1.4,1.32,1.32,0,0,1-1.3-1.4c-.019-.877,0-1.754,0-2.631" transform="translate(-87.979 -1281.976)" fill="#ebeaec"/>
      <path id="Trazado_131658" data-name="Trazado 131658" d="M310.515,559.5c0,.85.016,1.7,0,2.549a1.35,1.35,0,0,1-1.362,1.436,1.331,1.331,0,0,1-1.264-1.44q-.022-2.549,0-5.1a1.328,1.328,0,0,1,1.269-1.436,1.354,1.354,0,0,1,1.358,1.44c.02.849,0,1.7,0,2.549" transform="translate(-28.41 -1281.974)" fill="#ebeaec"/>
      <path id="Trazado_131659" data-name="Trazado 131659" d="M384.636,559.49c0-.85-.013-1.7,0-2.549a1.329,1.329,0,0,1,1.272-1.431,1.351,1.351,0,0,1,1.355,1.445q.029,2.549,0,5.1a1.319,1.319,0,1,1-2.627-.014c-.015-.849,0-1.7,0-2.549" transform="translate(-73.087 -1281.974)" fill="#ebeaec"/>
      <path id="Trazado_131660" data-name="Trazado 131660" d="M359.052,559.495c0-.85-.013-1.7,0-2.549a1.334,1.334,0,0,1,1.269-1.436,1.35,1.35,0,0,1,1.358,1.44q.028,2.549,0,5.1a1.319,1.319,0,1,1-2.627-.005c-.015-.849,0-1.7,0-2.549" transform="translate(-58.196 -1281.974)" fill="#ebeaec"/>
      <path id="Trazado_131661" data-name="Trazado 131661" d="M333.467,559.427c0-.85-.017-1.7.006-2.549a1.31,1.31,0,1,1,2.619-.023q.039,2.631,0,5.263a1.314,1.314,0,1,1-2.623-.059c-.017-.877,0-1.754,0-2.632" transform="translate(-43.304 -1281.975)" fill="#ebeaec"/>
      <path id="Trazado_131662" data-name="Trazado 131662" d="M402.011,639.1a16.713,16.713,0,0,1,10.12,2.074,18.035,18.035,0,0,1-5.141,33.568,13.326,13.326,0,0,1-4.979.216,8.623,8.623,0,0,0-1.819-.909,25.76,25.76,0,0,1-3.976-2.855,9.959,9.959,0,0,1-2.433-2.936,3.419,3.419,0,0,0,1.368-1.138,1.226,1.226,0,0,0,0-1.7,1.258,1.258,0,0,0-1.768,0c-.307.267-.593.558-.889.838a15.748,15.748,0,0,1-2.334-7.9,1.554,1.554,0,0,1,.6-.189,1.026,1.026,0,0,0,.891-1.089,1.078,1.078,0,0,0-.866-1.2c-.208-.052-.418-.1-.627-.145a9.66,9.66,0,0,1,.349-2.9A14.954,14.954,0,0,1,392.5,647.8a10.731,10.731,0,0,0,1.014.941,1.16,1.16,0,0,0,1.633-.115,1.119,1.119,0,0,0,.1-1.564,3.458,3.458,0,0,0-1.467-1.267,13.829,13.829,0,0,1,3.631-3.92,24.141,24.141,0,0,1,4.6-2.777m-2.838,17.666a4.4,4.4,0,0,0,4.384,4.633c2.452-.034,4.706-2.163,4.254-4.5-.31-1.607.421-2.2,1.409-2.927a5.826,5.826,0,0,0,.567-.473,1.259,1.259,0,0,0,.215-1.758,1.222,1.222,0,0,0-1.82-.118c-.584.451-1.163.912-1.713,1.4a.717.717,0,0,1-.987.122,3.942,3.942,0,0,0-3.331-.249.692.692,0,0,1-.9-.231c-.761-.9-1.554-1.768-2.358-2.628a1.215,1.215,0,0,0-1.813-.2,1.241,1.241,0,0,0,.01,1.884c.647.742,1.289,1.493,1.981,2.194.5.506.83.95.346,1.675a2.105,2.105,0,0,0-.245,1.176m17.993-1.012,0,.038c-.191,0-.383-.015-.572,0a1.219,1.219,0,0,0-1.22,1.194,1.232,1.232,0,0,0,1.223,1.27,3.7,3.7,0,0,0,1.462-.069,1.143,1.143,0,0,0,.857-1.162,1.127,1.127,0,0,0-.86-1.156,6.018,6.018,0,0,0-.886-.116m-14.872-12.319c.036.355-.08.807.209,1.193a1.165,1.165,0,0,0,1.356.5,1.291,1.291,0,0,0,.917-1.386c0-.785.13-1.637-.831-2.014a1.164,1.164,0,0,0-1.394.385c-.312.364-.246.818-.257,1.324m2.482,27.21a2.586,2.586,0,0,0-.106-.968,1.213,1.213,0,0,0-1.748-.64,2.273,2.273,0,0,0-.075,3.171,1.222,1.222,0,0,0,1.822-.6,2.585,2.585,0,0,0,.107-.967m9.989-23.663a1.213,1.213,0,0,0-1.294-1.183,2.6,2.6,0,0,0-1.922,2.051,1.21,1.21,0,0,0,1.245,1.144,2.626,2.626,0,0,0,1.972-2.013m0,20.048a2.634,2.634,0,0,0-2.014-1.97,1.2,1.2,0,0,0-1.081,1.73,3.263,3.263,0,0,0,1.3,1.323,1.215,1.215,0,0,0,1.8-1.083" transform="translate(-76.297 -1330.559)" fill="#aff3d2"/>
      <path id="Trazado_131663" data-name="Trazado 131663" d="M383.275,658.512a15.744,15.744,0,0,0,2.334,7.9c-.482,1.277-.06,1.935,1.286,2a9.957,9.957,0,0,0,2.433,2.936A25.706,25.706,0,0,0,393.3,674.2a8.624,8.624,0,0,1,1.819.91,16.12,16.12,0,0,1-9.418-3.6c-5.956-4.774-8.126-10.983-6.641-18.457.168-.843.051-1.454-.751-1.845a12.06,12.06,0,0,1,1.015-2.584,1.436,1.436,0,0,0,1.85-.751,18,18,0,0,1,12.885-8.558,9.491,9.491,0,0,1,1.06-.06,24.123,24.123,0,0,0-4.6,2.776,13.824,13.824,0,0,0-3.631,3.92c-1.351.067-1.771.725-1.282,2.005a14.956,14.956,0,0,0-1.994,5.035,9.672,9.672,0,0,0-.348,2.9c-.189.016-.378.036-.567.046-.935.049-1.427.461-1.445,1.213-.018.786.476,1.219,1.46,1.287.186.013.371.051.556.077" transform="translate(-69.409 -1330.717)" fill="#8feec3"/>
      <path id="Trazado_131664" data-name="Trazado 131664" d="M415.224,613.245a3.117,3.117,0,0,1-1.795-3.138c.036-1.039-.008-2.081.011-3.121a2.846,2.846,0,0,1,2.87-2.952c1.231-.041,2.465-.041,3.7,0a2.783,2.783,0,0,1,2.835,2.881c.026,1.067-.028,2.137.015,3.2a3.019,3.019,0,0,1-2.03,3.211,21.687,21.687,0,0,1-5.6-.087m5.144-4.491c0-.493-.026-.988.007-1.479.038-.557-.153-.815-.742-.775-.518.036-1.041.008-1.561.008-2.16,0-2.16,0-2.16,2.155,0,2.3,0,2.3,2.275,2.3,2.182,0,2.182,0,2.182-2.209" transform="translate(-89.846 -1310.2)" fill="#040505"/>
      <path id="Trazado_131665" data-name="Trazado 131665" d="M386.778,613.443c-.6,0-1.206.015-1.809,0a2.878,2.878,0,0,1-2.959-2.886c-.045-1.231-.048-2.467,0-3.7a2.8,2.8,0,0,1,2.833-2.819c1.231-.045,2.467-.041,3.7,0a2.784,2.784,0,0,1,2.866,2.78,37.658,37.658,0,0,1,0,3.862,2.844,2.844,0,0,1-2.9,2.763c-.575.021-1.151,0-1.727,0m-.023-6.935c-.521,0-1.042.022-1.562-.006-.538-.029-.731.206-.721.726.02.986.022,1.973,0,2.959-.013.553.185.816.765.782.492-.029.986-.006,1.479-.006,2.231,0,2.231,0,2.231-2.258,0-2.2,0-2.2-2.192-2.2" transform="translate(-71.54 -1310.2)" fill="#040505"/>
      <path id="Trazado_131666" data-name="Trazado 131666" d="M350.676,608.715c0-.685-.038-1.372.008-2.054a2.719,2.719,0,0,1,2.588-2.6c1.339-.07,2.686-.067,4.027-.014a2.8,2.8,0,0,1,2.764,2.8c.046,1.231.04,2.466,0,3.7a2.866,2.866,0,0,1-2.871,2.889c-1.232.041-2.468.043-3.7,0a2.833,2.833,0,0,1-2.83-2.827c-.028-.629,0-1.26,0-1.89h.013m2.464-.055c0,.548.012,1.1,0,1.643-.012.436.15.666.614.662q1.6-.014,3.2,0c.447,0,.649-.2.646-.649-.007-1.041-.012-2.081,0-3.122.007-.48-.176-.708-.675-.69-.547.02-1.1,0-1.643,0-2.146,0-2.146,0-2.145,2.152" transform="translate(-53.31 -1310.201)" fill="#040505"/>
      <path id="Trazado_131667" data-name="Trazado 131667" d="M324,604.075c.685,0,1.373-.046,2.053.009a2.775,2.775,0,0,1,2.583,2.71c.042,1.286.038,2.576,0,3.863a2.829,2.829,0,0,1-2.783,2.794c-1.286.056-2.578.06-3.863,0a2.809,2.809,0,0,1-2.741-2.907q-.027-1.808,0-3.617a2.79,2.79,0,0,1,2.773-2.861c.656-.035,1.315-.006,1.973-.006v.017m-2.276,4.622c0,.548.017,1.1-.005,1.645-.018.455.172.652.624.649,1.069-.008,2.139-.007,3.208,0,.45,0,.637-.208.631-.657-.013-1.069-.011-2.138,0-3.207,0-.419-.188-.6-.6-.594-.576.006-1.151,0-1.727,0-2.133,0-2.133,0-2.133,2.165" transform="translate(-35.026 -1310.224)" fill="#030404"/>
      <path id="Trazado_131668" data-name="Trazado 131668" d="M293.9,643.4q-1.519-.019-3.037-.037a2.883,2.883,0,0,1-3.052-3.028c-.009-1.15-.013-2.3,0-3.451a2.817,2.817,0,0,1,2.887-2.92c1.067-.026,2.135-.025,3.2-.035,2.353.159,3.3,1.114,3.305,3.332,0,.109,0,.218,0,.327,0,.736-.053,1.477.01,2.208a3.062,3.062,0,0,1-3.316,3.6m-.012-6.929c-.986-.011-1.972-.013-2.958-.037-.509-.013-.665.234-.656.708.019,1.014.023,2.029,0,3.042-.013.551.251.725.752.714.958-.021,1.917-.025,2.876-.036.6.12.856-.107.836-.737-.031-.983-.033-1.969,0-2.952.023-.654-.267-.833-.851-.7" transform="translate(-16.731 -1327.616)" fill="#030303"/>
      <path id="Trazado_131669" data-name="Trazado 131669" d="M293.906,613.486l-2.955-.036a2.906,2.906,0,0,1-3.136-3.115c-.005-1.123-.012-2.246,0-3.369a2.809,2.809,0,0,1,2.8-2.919c1.094-.049,2.191-.023,3.286-.031,2.372.109,3.3,1.092,3.3,3.492,0,.791-.055,1.586.011,2.372a3.068,3.068,0,0,1-3.317,3.607m-.012-6.929c-.986-.011-1.972-.017-2.957-.036-.436-.009-.661.152-.654.622.015,1.068.012,2.137,0,3.206-.005.473.248.627.67.622l2.957-.036c.6.127.855-.1.835-.73-.032-.982-.034-1.967,0-2.95.023-.657-.269-.829-.851-.7" transform="translate(-16.733 -1310.207)" fill="#030303"/>
      <path id="Trazado_131670" data-name="Trazado 131670" d="M355.386,634c.6,0,1.207-.016,1.809,0a2.826,2.826,0,0,1,2.851,2.8c.048,1.259.049,2.522,0,3.78a2.848,2.848,0,0,1-2.861,2.81q-1.848.053-3.7,0a2.816,2.816,0,0,1-2.831-2.82c-.041-1.259-.042-2.522,0-3.78A2.777,2.777,0,0,1,353.5,634c.629-.019,1.26,0,1.89,0m2.195,4.685c0-.52-.008-1.041,0-1.561.01-.437-.163-.662-.625-.658-1.068.01-2.137.012-3.206,0-.45-.006-.642.176-.635.633.015,1.041.022,2.082,0,3.123-.013.539.215.729.734.719,1.014-.02,2.028-.014,3.042,0,.484.005.705-.2.693-.69-.013-.52,0-1.041,0-1.562" transform="translate(-53.293 -1327.652)" fill="#040505"/>
      <path id="Trazado_131671" data-name="Trazado 131671" d="M319.265,638.637c0-.657-.023-1.316.005-1.972A2.742,2.742,0,0,1,321.886,634c1.368-.056,2.741-.056,4.109,0a2.765,2.765,0,0,1,2.651,2.728q.06,1.93,0,3.863a2.834,2.834,0,0,1-2.8,2.781c-1.259.045-2.522.044-3.781,0a2.834,2.834,0,0,1-2.811-2.926c-.011-.6,0-1.205,0-1.808h.006m6.921.076c0-2.267,0-2.267-2.275-2.267-2.178,0-2.178,0-2.178,2.186,0,2.282,0,2.282,2.26,2.282,2.194,0,2.194,0,2.194-2.2" transform="translate(-35.035 -1327.635)" fill="#030404"/>
      <path id="Trazado_131672" data-name="Trazado 131672" d="M293.907,673.318l-2.956-.033a2.908,2.908,0,0,1-3.135-3.115c-.005-1.1-.008-2.191,0-3.286a2.836,2.836,0,0,1,2.97-3.007c1.04-.024,2.08-.024,3.121-.035,2.364.175,3.3,1.121,3.305,3.336v.245c0,.764-.054,1.532.01,2.29a3.066,3.066,0,0,1-3.316,3.605m0-2.543c.6.122.857-.1.836-.732-.032-.983-.035-1.968,0-2.95.024-.658-.268-.828-.849-.7-.986-.01-1.972-.009-2.958-.037-.512-.014-.667.226-.658.7.019,1.014.023,2.029,0,3.042-.013.551.25.723.753.711.958-.023,1.917-.025,2.876-.036" transform="translate(-16.734 -1345.027)" fill="#030303"/>
      <path id="Trazado_131673" data-name="Trazado 131673" d="M319.265,668.573c0-.657-.023-1.316,0-1.972a2.739,2.739,0,0,1,2.6-2.675c1.367-.06,2.741-.058,4.109,0a2.761,2.761,0,0,1,2.663,2.714c.042,1.286.038,2.576,0,3.863a2.836,2.836,0,0,1-2.784,2.794c-1.259.051-2.522.046-3.781,0a2.836,2.836,0,0,1-2.823-2.915c-.012-.6,0-1.206,0-1.809h.006m4.713-2.2c-.494,0-.988.025-1.48-.007-.552-.035-.818.143-.773.741.039.518.008,1.041.008,1.562,0,2.158,0,2.158,2.153,2.158,2.3,0,2.3,0,2.3-2.273,0-2.181,0-2.181-2.209-2.181" transform="translate(-35.035 -1345.051)" fill="#030404"/>
      <path id="Trazado_131674" data-name="Trazado 131674" d="M408.235,671.428a2.107,2.107,0,0,1,.245-1.177c.484-.725.154-1.169-.346-1.675-.692-.7-1.333-1.451-1.981-2.193a1.241,1.241,0,0,1-.01-1.884,1.215,1.215,0,0,1,1.813.2c.8.86,1.6,1.73,2.358,2.628a.692.692,0,0,0,.9.231,3.94,3.94,0,0,1,3.331.249.716.716,0,0,0,.987-.122c.55-.492,1.129-.953,1.713-1.4a1.222,1.222,0,0,1,1.82.118,1.259,1.259,0,0,1-.215,1.758,5.836,5.836,0,0,1-.567.473c-.988.724-1.719,1.319-1.409,2.927.451,2.338-1.8,4.466-4.254,4.5a4.4,4.4,0,0,1-4.384-4.633m4.381-1.613a1.872,1.872,0,0,0-.059,3.744,1.872,1.872,0,1,0,.059-3.744" transform="translate(-85.359 -1345.225)" fill="#030404"/>
      <path id="Trazado_131675" data-name="Trazado 131675" d="M452.283,679.1a5.937,5.937,0,0,1,.886.116,1.126,1.126,0,0,1,.86,1.156,1.144,1.144,0,0,1-.857,1.162,3.688,3.688,0,0,1-1.462.069,1.232,1.232,0,0,1,0-2.463c.189-.018.381,0,.572,0l0-.038" transform="translate(-111.414 -1353.909)" fill="#040505"/>
      <path id="Trazado_131676" data-name="Trazado 131676" d="M387.377,681.678c-.186-.026-.37-.064-.556-.077-.984-.068-1.478-.5-1.46-1.287.018-.751.51-1.163,1.444-1.212.189-.01.378-.03.567-.046.209.048.419.093.627.145a1.077,1.077,0,0,1,.865,1.2,1.026,1.026,0,0,1-.891,1.09,1.554,1.554,0,0,0-.6.189" transform="translate(-73.511 -1353.883)" fill="#040505"/>
      <path id="Trazado_131677" data-name="Trazado 131677" d="M419.208,647.118c.01-.505-.055-.959.257-1.324a1.164,1.164,0,0,1,1.394-.385c.961.377.828,1.229.831,2.014a1.291,1.291,0,0,1-.917,1.386,1.165,1.165,0,0,1-1.356-.5c-.288-.386-.173-.838-.209-1.193" transform="translate(-93.211 -1334.245)" fill="#040505"/>
      <path id="Trazado_131678" data-name="Trazado 131678" d="M421.615,712.26a2.577,2.577,0,0,1-.107.967,1.221,1.221,0,0,1-1.822.6,2.273,2.273,0,0,1,.075-3.171,1.213,1.213,0,0,1,1.747.64,2.593,2.593,0,0,1,.106.968" transform="translate(-93.136 -1372.177)" fill="#040505"/>
      <path id="Trazado_131679" data-name="Trazado 131679" d="M444.566,656.466a2.627,2.627,0,0,1-1.972,2.013,1.21,1.21,0,0,1-1.245-1.145,2.6,2.6,0,0,1,1.922-2.051,1.212,1.212,0,0,1,1.294,1.182" transform="translate(-106.098 -1340.046)" fill="#040404"/>
      <path id="Trazado_131680" data-name="Trazado 131680" d="M444.558,703.338a1.215,1.215,0,0,1-1.8,1.083,3.262,3.262,0,0,1-1.3-1.323,1.2,1.2,0,0,1,1.081-1.73,2.634,2.634,0,0,1,2.014,1.97" transform="translate(-106.088 -1366.869)" fill="#040404"/>
      <path id="Trazado_131681" data-name="Trazado 131681" d="M396.788,704.557c-1.345-.065-1.768-.723-1.286-2,.3-.28.582-.571.889-.838a1.258,1.258,0,0,1,1.768,0,1.227,1.227,0,0,1,0,1.7,3.42,3.42,0,0,1-1.368,1.138" transform="translate(-79.302 -1366.862)" fill="#030404"/>
      <path id="Trazado_131682" data-name="Trazado 131682" d="M395.5,657.281c-.489-1.28-.069-1.938,1.282-2.005a3.459,3.459,0,0,1,1.467,1.267,1.119,1.119,0,0,1-.1,1.564,1.16,1.16,0,0,1-1.633.115,10.732,10.732,0,0,1-1.014-.941" transform="translate(-79.3 -1340.042)" fill="#040404"/>
      <path id="Trazado_131683" data-name="Trazado 131683" d="M423.829,612.225c0,2.209,0,2.209-2.182,2.209-2.275,0-2.275,0-2.275-2.3,0-2.155,0-2.155,2.16-2.155.52,0,1.043.028,1.561-.008.59-.04.78.218.742.775-.033.491-.007.986-.007,1.479" transform="translate(-93.307 -1313.671)" fill="#d4ebef"/>
      <path id="Trazado_131684" data-name="Trazado 131684" d="M390.232,609.984c2.192,0,2.192,0,2.192,2.2,0,2.258,0,2.258-2.231,2.258-.493,0-.988-.023-1.479.006-.58.034-.778-.229-.765-.782.023-.986.021-1.973,0-2.959-.011-.52.182-.755.721-.726.519.028,1.041.006,1.562.006" transform="translate(-75.017 -1313.676)" fill="#d4ebef"/>
      <path id="Trazado_131685" data-name="Trazado 131685" d="M356.6,612.139c0-2.152,0-2.152,2.145-2.152.548,0,1.1.016,1.643,0,.5-.018.682.211.675.691-.015,1.04-.01,2.081,0,3.122,0,.445-.2.652-.646.649q-1.6-.011-3.2,0c-.464,0-.626-.226-.614-.662.015-.547,0-1.1,0-1.643" transform="translate(-56.766 -1313.68)" fill="#d4ebef"/>
      <path id="Trazado_131686" data-name="Trazado 131686" d="M325.174,612.158c0-2.165,0-2.165,2.133-2.165.576,0,1.151.006,1.727,0,.408,0,.6.174.6.594-.01,1.069-.012,2.138,0,3.207.005.449-.181.659-.631.657-1.069-.005-2.138-.007-3.207,0-.452,0-.642-.194-.624-.649.022-.548.005-1.1.005-1.645" transform="translate(-38.477 -1313.686)" fill="#d4ebef"/>
      <path id="Trazado_131687" data-name="Trazado 131687" d="M297.349,644.348c-.959.011-1.917.015-2.876.036-.5.011-.765-.163-.753-.714.023-1.014.02-2.028,0-3.042-.009-.475.146-.721.655-.708.986.024,1.972.026,2.958.037q.008,2.2.015,4.392" transform="translate(-20.173 -1331.104)" fill="#da6965"/>
      <path id="Trazado_131688" data-name="Trazado 131688" d="M302.382,644.346q-.007-2.2-.015-4.392c.584-.13.874.048.851.7-.033.983-.032,1.969,0,2.952.02.63-.235.857-.836.737" transform="translate(-25.206 -1331.101)" fill="#e99996"/>
      <path id="Trazado_131689" data-name="Trazado 131689" d="M297.354,614.423l-2.957.036c-.421.005-.675-.149-.67-.622.011-1.069.014-2.137,0-3.206-.007-.47.218-.631.655-.622.986.019,1.971.025,2.957.036q.007,2.189.015,4.378" transform="translate(-20.177 -1313.695)" fill="#da6965"/>
      <path id="Trazado_131690" data-name="Trazado 131690" d="M302.383,614.417q-.008-2.189-.015-4.378c.581-.13.874.041.851.7-.035.982-.033,1.967,0,2.95.021.631-.233.856-.835.729" transform="translate(-25.206 -1313.689)" fill="#e99996"/>
      <path id="Trazado_131691" data-name="Trazado 131691" d="M361.049,642.122c0,.52-.01,1.041,0,1.561.012.487-.209.7-.693.69-1.014-.011-2.028-.017-3.041,0-.519.01-.747-.18-.734-.719.024-1.041.018-2.082,0-3.123-.007-.457.185-.639.635-.633,1.069.013,2.137.011,3.206,0,.462,0,.634.221.625.658-.011.52,0,1.041,0,1.562" transform="translate(-56.761 -1331.093)" fill="#d4ebef"/>
      <path id="Trazado_131692" data-name="Trazado 131692" d="M329.636,642.174c0,2.2,0,2.2-2.194,2.2-2.26,0-2.26,0-2.26-2.282,0-2.186,0-2.186,2.178-2.186,2.275,0,2.275,0,2.275,2.267" transform="translate(-38.485 -1331.097)" fill="#d4ebef"/>
      <path id="Trazado_131693" data-name="Trazado 131693" d="M297.349,674.276c-.959.011-1.918.013-2.876.036-.5.012-.765-.16-.753-.711.023-1.013.02-2.028,0-3.042-.009-.476.145-.716.658-.7.986.028,1.972.026,2.958.037q.006,2.191.012,4.383" transform="translate(-20.173 -1348.528)" fill="#da6965"/>
      <path id="Trazado_131694" data-name="Trazado 131694" d="M302.386,674.273q-.006-2.191-.012-4.383c.581-.127.873.043.849.7-.036.982-.033,1.967,0,2.95.02.632-.237.854-.836.732" transform="translate(-25.21 -1348.526)" fill="#e99996"/>
      <path id="Trazado_131695" data-name="Trazado 131695" d="M327.41,669.838c2.209,0,2.209,0,2.209,2.181,0,2.273,0,2.273-2.3,2.273-2.153,0-2.153,0-2.153-2.158,0-.521.031-1.044-.008-1.562-.046-.6.221-.776.773-.741.492.031.987.007,1.48.007" transform="translate(-38.467 -1348.511)" fill="#d4ebef"/>
      <path id="Trazado_131696" data-name="Trazado 131696" d="M419.576,677.661a1.872,1.872,0,1,1-.059,3.744,1.872,1.872,0,0,1,.059-3.744" transform="translate(-92.319 -1353.071)" fill="#6ce8a8"/>
    </g>
  </g>
</svg>
