<svg xmlns="http://www.w3.org/2000/svg" width="90.997" height="90.997" viewBox="0 0 90.997 90.997">
  <g id="Grupo_86069" data-name="Grupo 86069" transform="translate(-0.278 -0.277)">
    <circle id="Elipse_5411" data-name="Elipse 5411" cx="45.498" cy="45.498" r="45.498" transform="translate(0.278 0.277)" fill="#2ff980"/>
    <g id="Grupo_87201" data-name="Grupo 87201" transform="translate(5.668 5.635)">
      <path id="Trazado_133286" data-name="Trazado 133286" d="M340.394,67.231c-.933.475-1.311.414-1.962-.37a36.564,36.564,0,0,1-8.677-21.285,36.551,36.551,0,0,1,11.96-30.433A36.145,36.145,0,0,1,362.8,5.452,36.768,36.768,0,0,1,380.917,7.82c.491.2.7.137.933-.361.612-1.322,1.28-2.62,1.955-3.913A6.109,6.109,0,0,1,389.534,0a6.014,6.014,0,0,1,5.672,3.511q7.023,13.949,13.978,27.932a6.307,6.307,0,0,1-3.948,8.946c-.537.152-.612.371-.592.859A37.3,37.3,0,0,1,379.3,78.163c-13.212,4.346-25.353,1.947-36.247-6.7-.873-.693-.942-1.022-.534-1.934.792-.608,1.137-.614,1.925.041A35.422,35.422,0,0,0,351,73.942a34.954,34.954,0,0,0,19.7,3.742,28.709,28.709,0,0,0,7.972-1.824c.175-.016.359-.006.478-.174l-.009.006c.248-.073.5-.127.742-.221a35.184,35.184,0,0,0,22.417-32.487c.028-2.817.54-2.3-2.471-2.275-.509-.119-.407.227-.391.511a30.492,30.492,0,0,1-.6,7.863,32.346,32.346,0,0,1-29.373,25.831,31.568,31.568,0,0,1-21.865-6.454,2.465,2.465,0,0,1-.293-3.93c.561-.583,1.147-1.143,1.713-1.721.152-.155.373-.28.189-.582-.445-.729-.86-1.477-1.333-2.3-.837.843-1.636,1.659-2.448,2.463a2.516,2.516,0,0,1-4.188-.331,32.3,32.3,0,0,1,1.413-40.42c.7-.818.985-.877,1.967-.471a1.369,1.369,0,0,1-.09,1.9,29.529,29.529,0,0,0-7.229,22.588A29.2,29.2,0,0,0,343.1,60.63c.309.417.481.305.766.012.855-.88,1.708-1.765,2.609-2.6a1.227,1.227,0,0,0,.408-1.428,7.621,7.621,0,0,1-.322-2.083c-.033-5.377-.078-10.755-.015-16.132a4.994,4.994,0,0,1,4.295-4.6,5.652,5.652,0,0,1,3.425.684v-.948c0-2.506-.022-5.013.006-7.519a5.069,5.069,0,0,1,5.771-5.205,9.177,9.177,0,0,1,1.986.643c.2-3.32,1.361-5.047,3.825-5.705a4.931,4.931,0,0,1,3.712.441A5.343,5.343,0,0,1,372,19.084a4.991,4.991,0,0,1,3.946-.794c.353.085.516-.044.659-.345.425-.893.852-1.786,1.321-2.656.21-.389.119-.521-.268-.664a29.93,29.93,0,0,0-13.77-1.714,29.266,29.266,0,0,0-15.14,6.172,1.346,1.346,0,0,1-1.9.021c-.4-.944-.327-1.306.456-1.887,9.117-6.766,19.1-8.535,29.981-5.218.655.2,1.388.856,1.933.516.511-.319.657-1.2,1.007-1.81.262-.454.093-.611-.335-.777a34.5,34.5,0,0,0-17.607-2.044A34.045,34.045,0,0,0,341.313,18.9c-7.729,8.516-10.641,18.554-8.8,29.9a33.786,33.786,0,0,0,7.661,16.469,1.431,1.431,0,0,1,.218,1.965M389.33,2.368a3.97,3.97,0,0,0-3.57,2.5q-3.445,6.922-6.913,13.833-3.4,6.812-6.8,13.627a4,4,0,0,0,.632,4.769,4.284,4.284,0,0,0,3.271,1.219q13.353-.008,26.707-.006c.259,0,.518-.04.777-.062a3.558,3.558,0,0,0,3.239-1.528,3.976,3.976,0,0,0,.29-4.488q-4-7.965-7.98-15.944-2.868-5.735-5.736-11.47a3.917,3.917,0,0,0-3.914-2.446m-6.267,38.344c-.468-.016-.936-.046-1.4-.047-1.64-.006-1.64,0-1.656,1.595a4.661,4.661,0,0,1-.013.469,1.146,1.146,0,0,1-1.155,1.139,1.126,1.126,0,0,1-1.169-1.121,14.378,14.378,0,0,1-.016-1.566c.008-.338-.051-.535-.463-.524a8.259,8.259,0,0,1-4.962-.942c0,.388,0,.622,0,.856,0,.261.014.523,0,.783a1.221,1.221,0,0,1-1.171,1.233,1.187,1.187,0,0,1-1.173-1.287c-.016-.966-.02-1.933,0-2.9a5.247,5.247,0,0,0-.334-2.055,5.98,5.98,0,0,1,.092-4.432,2.219,2.219,0,0,0,.24-.815c-.006-3.5.016-7-.017-10.5a2.656,2.656,0,0,0-2.176-2.61,2.708,2.708,0,0,0-3.263,2.849q-.011,9.989,0,19.979a5.262,5.262,0,0,1-.013.7,1.167,1.167,0,0,1-2.312.078,3.755,3.755,0,0,1-.027-.781q0-7.365,0-14.73a2.726,2.726,0,1,0-5.435-.042c-.012,6.268,0,12.536-.018,18.8,0,.52.189.657.657.729a11.523,11.523,0,0,1,9.457,8.763,10.119,10.119,0,0,1,.291,2.64,1.163,1.163,0,0,1-2.325.062c-.039-.311-.05-.625-.08-.936a9.1,9.1,0,0,0-7.7-8.2c-1.956-.321-2.643-1.127-2.645-3.111s.016-3.97-.008-5.954a2.662,2.662,0,0,0-2.091-2.671,2.721,2.721,0,0,0-3.309,2.874c-.013,4.727,0,9.454,0,14.181a15.417,15.417,0,0,0,.184,2.261,14.413,14.413,0,0,0,12.621,11.888c3.336.276,6.683.109,10.024.087a9.974,9.974,0,0,0,3.374-.595,14.157,14.157,0,0,0,10.3-12.6c.194-4.372.056-8.76.073-13.141,0-.308-.047-.493-.42-.473-.649.036-1.3.037-1.95.053m4.72,7.651c-.1,2.052.144,4.612-.167,7.165a16.848,16.848,0,0,1-14.776,14.2c-3.286.261-6.58.138-9.868.1a16.46,16.46,0,0,1-10.733-4.11c-.5-.424-.9-1.305-1.481-1.191-.555.109-.956.9-1.47,1.345-.457.392-.449.6.062.972A28.873,28.873,0,0,0,371.62,72.3c11.22-1.854,19.048-8.235,23.439-18.724a28.288,28.288,0,0,0,2.04-12.252c-.023-.537-.2-.687-.735-.68q-3.957.045-7.914,0c-.569-.007-.686.181-.679.709.028,2.167.012,4.335.012,7.006M372.227,26.356l.15.027,2.9-5.822a2.672,2.672,0,0,0-3.046,2.612c-.027,1.06-.005,2.121-.005,3.182" transform="translate(-329.651 0.001)" fill="#040303"/>
      <path id="Trazado_133287" data-name="Trazado 133287" d="M383.762,92.3a28.7,28.7,0,0,1-7.972,1.824,34.954,34.954,0,0,1-19.7-3.742,35.422,35.422,0,0,1-6.564-4.374c-.787-.656-1.133-.649-1.925-.041-.641-.827-1.545-1.41-2.121-2.3a1.431,1.431,0,0,0-.218-1.965A33.786,33.786,0,0,1,337.6,65.235c-1.843-11.342,1.069-21.38,8.8-29.9A34.043,34.043,0,0,1,367.37,24.324a34.5,34.5,0,0,1,17.607,2.044c.428.166.6.322.335.777-.351.609-.5,1.491-1.007,1.81-.544.34-1.278-.317-1.933-.516-10.878-3.317-20.864-1.548-29.981,5.218-.783.581-.852.943-.456,1.887l-2.223,2.068c-.982-.406-1.27-.348-1.967.471a32.3,32.3,0,0,0-1.413,40.42,2.516,2.516,0,0,0,4.188.331c.811-.8,1.611-1.62,2.447-2.463.472.818.887,1.566,1.333,2.3.184.3-.036.427-.188.582-.567.578-1.152,1.138-1.714,1.721a2.465,2.465,0,0,0,.293,3.93,31.57,31.57,0,0,0,21.866,6.454A32.346,32.346,0,0,0,403.93,65.521a30.493,30.493,0,0,0,.6-7.863c-.016-.284-.117-.63.391-.511a39.073,39.073,0,0,1-1.04,10.9,35.7,35.7,0,0,1-7.819,14.93,34.726,34.726,0,0,1-11.023,8.581c-.294.142-.662.2-.806.569l.009-.006c-.186-.015-.374-.036-.478.174" transform="translate(-334.735 -16.437)" fill="#e8707f"/>
      <path id="Trazado_133288" data-name="Trazado 133288" d="M416.987,106.033a9.974,9.974,0,0,1-3.374.595c-3.342.022-6.689.19-10.024-.087a14.413,14.413,0,0,1-12.622-11.888,15.451,15.451,0,0,1-.184-2.261c0-4.727-.012-9.454,0-14.181a2.721,2.721,0,0,1,3.309-2.874,2.662,2.662,0,0,1,2.091,2.671c.025,1.984.006,3.969.008,5.954s.688,2.79,2.645,3.111a9.1,9.1,0,0,1,7.7,8.2c.03.312.042.626.08.937a1.164,1.164,0,0,0,2.325-.062,10.122,10.122,0,0,0-.291-2.64,11.523,11.523,0,0,0-9.457-8.763c-.468-.072-.659-.209-.657-.729.02-6.268.005-12.536.018-18.8a2.726,2.726,0,1,1,5.435.042q.006,7.364,0,14.73a3.756,3.756,0,0,0,.027.781,1.167,1.167,0,0,0,2.312-.079,5.256,5.256,0,0,0,.013-.7q0-9.989,0-19.979a2.708,2.708,0,0,1,3.262-2.849,2.657,2.657,0,0,1,2.176,2.61c.033,3.5.011,7,.017,10.5a2.212,2.212,0,0,1-.24.814,5.98,5.98,0,0,0-.091,4.432,5.254,5.254,0,0,1,.334,2.056c-.02.966-.016,1.933,0,2.9a1.187,1.187,0,0,0,1.173,1.288,1.221,1.221,0,0,0,1.171-1.234c.019-.26,0-.522,0-.783,0-.234,0-.468,0-.856a8.262,8.262,0,0,0,4.962.941c.412-.01.471.186.463.524a14.377,14.377,0,0,0,.016,1.566,1.125,1.125,0,0,0,1.168,1.121,1.146,1.146,0,0,0,1.156-1.138c.017-.155.011-.313.013-.47.016-1.6.015-1.6,1.656-1.594.468,0,.936.03,1.4.047,0,2.659.013,5.318-.007,7.977a40.636,40.636,0,0,1-.3,7.157,15.61,15.61,0,0,1-5.5,9.341c-.708.6-1.635.9-2.2,1.683" transform="translate(-371.575 -39.162)" fill="#f8decf"/>
      <path id="Trazado_133289" data-name="Trazado 133289" d="M494.882,43.417c-.259.021-.517.062-.776.062q-13.354,0-26.707.006a4.285,4.285,0,0,1-3.271-1.219A4,4,0,0,1,463.5,37.5q3.387-6.821,6.8-13.627,3.457-6.916,6.913-13.833a3.97,3.97,0,0,1,3.57-2.5,7.21,7.21,0,0,1,1.184,1.542q7,14,13.984,28a5.1,5.1,0,0,1-.184,5.081c-.263.451-.812.685-.884,1.256m-13.93-28.5c-.366,0-.732-.018-1.1,0a3.7,3.7,0,0,0-3.652,3.966c.193,2.6.439,5.2.767,7.787a3.932,3.932,0,0,0,4.21,3.567,4.061,4.061,0,0,0,3.844-3.911q.315-3.508.707-7.008a3.818,3.818,0,0,0-3.684-4.4c-.364-.019-.731,0-1.1,0m3.773,21.962a3.768,3.768,0,1,0-3.793,3.743,3.728,3.728,0,0,0,3.793-3.743" transform="translate(-421.102 -5.171)" fill="#f9de67"/>
      <path id="Trazado_133290" data-name="Trazado 133290" d="M361.051,48.974l2.223-2.068a1.346,1.346,0,0,0,1.9-.02,29.266,29.266,0,0,1,15.14-6.172,29.934,29.934,0,0,1,13.77,1.713c.387.143.477.275.268.664-.47.87-.9,1.764-1.322,2.657-.143.3-.307.43-.659.345a4.993,4.993,0,0,0-3.946.794,5.341,5.341,0,0,0-2.432-2.893,4.93,4.93,0,0,0-3.712-.441c-2.464.659-3.622,2.386-3.825,5.706a9.138,9.138,0,0,0-1.986-.643,5.069,5.069,0,0,0-5.771,5.2c-.028,2.506-.006,5.013-.006,7.519v.948a5.654,5.654,0,0,0-3.425-.684,4.994,4.994,0,0,0-4.295,4.6c-.062,5.376-.018,10.755.015,16.132a7.619,7.619,0,0,0,.322,2.082,1.227,1.227,0,0,1-.408,1.428c-.9.832-1.753,1.717-2.609,2.6-.286.293-.457.406-.766-.012a29.194,29.194,0,0,1-5.793-14.969,29.531,29.531,0,0,1,7.229-22.588,1.369,1.369,0,0,0,.09-1.9" transform="translate(-346.073 -27.8)" fill="#faf3f3"/>
      <path id="Trazado_133291" data-name="Trazado 133291" d="M429.932,137.111c0-2.671.016-4.839-.012-7.006-.007-.528.11-.716.679-.71q3.957.046,7.914,0c.541-.006.713.144.736.681a28.292,28.292,0,0,1-2.04,12.252c-4.391,10.489-12.219,16.87-23.439,18.724a28.873,28.873,0,0,1-22.27-5.463c-.511-.369-.519-.58-.062-.972.514-.441.915-1.236,1.47-1.345.582-.114.984.767,1.481,1.191a16.458,16.458,0,0,0,10.733,4.11c3.288.042,6.582.165,9.868-.1a16.849,16.849,0,0,0,14.776-14.2c.311-2.554.07-5.113.167-7.165" transform="translate(-371.8 -88.747)" fill="#faf2f2"/>
      <path id="Trazado_133292" data-name="Trazado 133292" d="M533.73,43.4c.072-.571.621-.805.884-1.256a5.1,5.1,0,0,0,.184-5.081q-6.956-14.017-13.984-28a7.212,7.212,0,0,0-1.184-1.542,3.917,3.917,0,0,1,3.914,2.446q2.865,5.736,5.736,11.471,3.987,7.973,7.979,15.944a3.976,3.976,0,0,1-.29,4.489A3.558,3.558,0,0,1,533.73,43.4" transform="translate(-459.95 -5.159)" fill="#e8b94c"/>
      <path id="Trazado_133293" data-name="Trazado 133293" d="M487.214,164.464c.144-.365.512-.427.806-.569a34.731,34.731,0,0,0,11.024-8.581,35.706,35.706,0,0,0,7.819-14.93,39.084,39.084,0,0,0,1.04-10.9c3.011-.021,2.5-.542,2.471,2.275a35.184,35.184,0,0,1-22.417,32.487c-.239.094-.494.148-.742.221" transform="translate(-437.718 -88.772)" fill="#e55362"/>
      <path id="Trazado_133294" data-name="Trazado 133294" d="M474.212,155.639c.562-.781,1.489-1.086,2.2-1.682a15.61,15.61,0,0,0,5.5-9.341,40.636,40.636,0,0,0,.3-7.157c.021-2.659.006-5.318.007-7.977.65-.016,1.3-.018,1.95-.053.373-.021.421.164.42.473-.017,4.381.121,8.768-.073,13.141a14.157,14.157,0,0,1-10.3,12.6" transform="translate(-428.8 -88.768)" fill="#eec4bc"/>
      <path id="Trazado_133295" data-name="Trazado 133295" d="M465.167,71.237c0-1.061-.022-2.122.005-3.182a2.672,2.672,0,0,1,3.047-2.612l-2.9,5.822-.15-.027" transform="translate(-422.591 -44.88)" fill="#f4dacc"/>
      <path id="Trazado_133296" data-name="Trazado 133296" d="M485.721,241.09c.1-.211.292-.189.478-.174-.119.168-.3.159-.478.174" transform="translate(-436.694 -165.229)" fill="#e55362"/>
      <path id="Trazado_133297" data-name="Trazado 133297" d="M509.782,30.994c.366,0,.732-.017,1.1,0a3.818,3.818,0,0,1,3.684,4.4q-.4,3.5-.707,7.008a4.061,4.061,0,0,1-3.844,3.912,3.932,3.932,0,0,1-4.21-3.567c-.328-2.587-.575-5.186-.767-7.787A3.7,3.7,0,0,1,508.686,31c.364-.021.731,0,1.1,0m.01,2.35c-.313,0-.627-.016-.939,0a1.393,1.393,0,0,0-1.467,1.63c.214,2.467.448,4.933.717,7.394a1.651,1.651,0,0,0,1.781,1.6,1.7,1.7,0,0,0,1.612-1.693q.364-3.579.731-7.157a1.469,1.469,0,0,0-1.5-1.77c-.312-.019-.626,0-.939,0" transform="translate(-449.933 -21.252)" fill="#040402"/>
      <path id="Trazado_133298" data-name="Trazado 133298" d="M515.727,92.642a3.728,3.728,0,0,1-3.793,3.743,3.768,3.768,0,0,1-3.744-3.732,3.768,3.768,0,1,1,7.536-.011m-3.72-1.44a1.467,1.467,0,0,0-1.463,1.425,1.418,1.418,0,0,0,1.385,1.4,1.368,1.368,0,0,0,1.441-1.323,1.425,1.425,0,0,0-1.363-1.5" transform="translate(-452.105 -60.937)" fill="#040402"/>
      <path id="Trazado_133299" data-name="Trazado 133299" d="M514.932,38.476c.313,0,.627-.015.939,0a1.469,1.469,0,0,1,1.5,1.77q-.366,3.578-.731,7.157a1.7,1.7,0,0,1-1.612,1.693,1.651,1.651,0,0,1-1.781-1.6c-.27-2.462-.5-4.927-.718-7.394a1.393,1.393,0,0,1,1.467-1.63c.312-.019.626,0,.939,0" transform="translate(-455.073 -26.385)" fill="#f8f0f0"/>
      <path id="Trazado_133300" data-name="Trazado 133300" d="M517.147,96.34a1.426,1.426,0,0,1,1.363,1.5,1.368,1.368,0,0,1-1.441,1.323,1.418,1.418,0,0,1-1.385-1.4,1.467,1.467,0,0,1,1.463-1.425" transform="translate(-457.244 -66.075)" fill="#f5eded"/>
    </g>
  </g>
</svg>
