<svg xmlns="http://www.w3.org/2000/svg" width="721.042" height="750.461" viewBox="0 0 721.042 750.461">
  <g id="Grupo_87426" data-name="Grupo 87426" transform="translate(2922 -1843)">
    <g id="Grupo_87555" data-name="Grupo 87555" transform="translate(83.976 573.23)">
      <path id="Trazado_134901" data-name="Trazado 134901" d="M0,0H721.039V750.461H0Z" transform="translate(-3005.976 1269.77)" fill="#daf1f5"/>
      <path id="hacker-working-in-the-darkness" d="M0,149.872H89.354A95.882,95.882,0,0,1,192,87.4V.427Q185.792,0,179.477,0A182.414,182.414,0,0,0,0,149.858Z" transform="translate(-2856.104 1827.216) rotate(90)" fill="#8fd6e0"/>
      <path id="hacker-working-in-the-darkness-2" data-name="hacker-working-in-the-darkness" d="M0,298.2H177.784A190.775,190.775,0,0,1,382.017,173.9V.849Q369.666.011,357.1,0C178.771,0,30.492,128.647,0,298.2Z" transform="translate(-2583.134 1651.787) rotate(-90)" fill="#8fd6e0" opacity="0.5"/>
      <path id="Trazado_134902" data-name="Trazado 134902" d="M8,0H135a8,8,0,0,1,8,8V58a8,8,0,0,1-8,8H8a8,8,0,0,1-8-8V8A8,8,0,0,1,8,0Z" transform="translate(-2710 1834)" fill="#583ae2"/>
      <path id="Trazado_134903" data-name="Trazado 134903" d="M10,0H252a10,10,0,0,1,10,10V56a10,10,0,0,1-10,10H10A10,10,0,0,1,0,56V10A10,10,0,0,1,10,0Z" transform="translate(-2602 1460)" fill="#ab9df1"/>
      <path id="Trazado_134904" data-name="Trazado 134904" d="M10,0H252a10,10,0,0,1,10,10V56a10,10,0,0,1-10,10H10A10,10,0,0,1,0,56V10A10,10,0,0,1,10,0Z" transform="translate(-2943 1460)" fill="#ab9df1"/>
      <path id="Trazado_134905" data-name="Trazado 134905" d="M10,0H252a10,10,0,0,1,10,10V110a10,10,0,0,1-10,10H10A10,10,0,0,1,0,110V10A10,10,0,0,1,10,0Z" transform="translate(-2943 1545)" fill="#d5cef8"/>
      <path id="Trazado_134906" data-name="Trazado 134906" d="M10,0H173a10,10,0,0,1,10,10V84a10,10,0,0,1-10,10H10A10,10,0,0,1,0,84V10A10,10,0,0,1,10,0Z" transform="translate(-2943 1825)" fill="#d5cef8"/>
      <path id="Trazado_134907" data-name="Trazado 134907" d="M10,0H252a10,10,0,0,1,10,10V110a10,10,0,0,1-10,10H10A10,10,0,0,1,0,110V10A10,10,0,0,1,10,0Z" transform="translate(-2602 1545)" fill="#d5cef8"/>
      <path id="Trazado_134909" data-name="Trazado 134909" d="M-63.9,0V-11.375h3.5a5.315,5.315,0,0,1,2.684.676,4.712,4.712,0,0,1,1.848,1.922A5.928,5.928,0,0,1-55.2-5.945v.523a5.945,5.945,0,0,1-.652,2.82,4.672,4.672,0,0,1-1.84,1.914A5.355,5.355,0,0,1-60.371,0Zm2.344-9.477v7.594h1.133a2.545,2.545,0,0,0,2.1-.9,4.06,4.06,0,0,0,.742-2.57v-.6A4.124,4.124,0,0,0-58.3-8.582a2.537,2.537,0,0,0-2.1-.9ZM-48.746,0a2.507,2.507,0,0,1-.227-.758,2.732,2.732,0,0,1-2.133.914,3,3,0,0,1-2.059-.719,2.312,2.312,0,0,1-.816-1.812,2.389,2.389,0,0,1,1-2.062A4.915,4.915,0,0,1-50.1-5.164h1.039v-.484a1.393,1.393,0,0,0-.3-.937,1.183,1.183,0,0,0-.949-.352,1.345,1.345,0,0,0-.9.273.929.929,0,0,0-.324.75h-2.258a2.268,2.268,0,0,1,.453-1.359,3,3,0,0,1,1.281-.98A4.669,4.669,0,0,1-50.2-8.609a3.689,3.689,0,0,1,2.48.785,2.747,2.747,0,0,1,.92,2.207v3.664a4.041,4.041,0,0,0,.336,1.82V0Zm-1.867-1.57a1.945,1.945,0,0,0,.922-.223,1.462,1.462,0,0,0,.625-.6V-3.844h-.844q-1.7,0-1.8,1.172l-.008.133a.9.9,0,0,0,.3.7,1.153,1.153,0,0,0,.805.269Zm8.25-8.961v2.078h1.445V-6.8h-1.445v4.219a1.007,1.007,0,0,0,.18.672.9.9,0,0,0,.688.2,3.6,3.6,0,0,0,.664-.055V-.047a4.648,4.648,0,0,1-1.367.2A2.156,2.156,0,0,1-44-.453a2.156,2.156,0,0,1-.622-1.794V-6.8h-1.234V-8.453h1.234v-2.078ZM-40.246-4.3a5.013,5.013,0,0,1,.484-2.242A3.546,3.546,0,0,1-38.367-8.07a4.069,4.069,0,0,1,2.113-.539,3.849,3.849,0,0,1,2.793,1.047,4.2,4.2,0,0,1,1.207,2.844l.016.578a4.418,4.418,0,0,1-1.086,3.12A3.775,3.775,0,0,1-36.238.156a3.793,3.793,0,0,1-2.918-1.172A4.5,4.5,0,0,1-40.246-4.2Zm2.258.16a3.16,3.16,0,0,0,.453,1.84,1.5,1.5,0,0,0,1.3.638,1.5,1.5,0,0,0,1.281-.63A3.457,3.457,0,0,0-34.5-4.309a3.128,3.128,0,0,0-.461-1.831,1.5,1.5,0,0,0-1.3-.649,1.474,1.474,0,0,0-1.281.646,3.516,3.516,0,0,0-.446,2Zm11.718,1.8a.727.727,0,0,0-.41-.652A4.659,4.659,0,0,0-28-3.414q-3.016-.633-3.016-2.562a2.323,2.323,0,0,1,.934-1.879,3.766,3.766,0,0,1,2.441-.754,4.053,4.053,0,0,1,2.574.758A2.388,2.388,0,0,1-24.1-5.883h-2.258a1.092,1.092,0,0,0-.312-.8A1.322,1.322,0,0,0-27.645-7a1.351,1.351,0,0,0-.883.258.814.814,0,0,0-.312.656.7.7,0,0,0,.355.605,3.657,3.657,0,0,0,1.2.4,9.8,9.8,0,0,1,1.422.379A2.336,2.336,0,0,1-24.074-2.43a2.2,2.2,0,0,1-.992,1.871,4.28,4.28,0,0,1-2.562.715,4.47,4.47,0,0,1-1.887-.379,3.166,3.166,0,0,1-1.293-1.039,2.414,2.414,0,0,1-.469-1.426h2.141a1.179,1.179,0,0,0,.445.922,1.766,1.766,0,0,0,1.109.32,1.635,1.635,0,0,0,.98-.246.766.766,0,0,0,.332-.644Zm7.281-1.953A5.094,5.094,0,0,1-18.1-7.437a2.877,2.877,0,0,1,2.426-1.172,2.589,2.589,0,0,1,2.039.922V-12h2.266V0H-13.41l-.109-.9A2.657,2.657,0,0,1-15.691.156a2.869,2.869,0,0,1-2.4-1.176,5.258,5.258,0,0,1-.9-3.269Zm2.258.161A3.355,3.355,0,0,0-16.316-2.3a1.348,1.348,0,0,0,1.2.636,1.51,1.51,0,0,0,1.477-.887V-5.9A1.489,1.489,0,0,0-15.1-6.789q-1.63,0-1.63,2.661Zm11,4.285A4.15,4.15,0,0,1-8.758-.984,4.054,4.054,0,0,1-9.926-4.023v-.219A5.106,5.106,0,0,1-9.434-6.52,3.612,3.612,0,0,1-8.039-8.066,3.914,3.914,0,0,1-5.98-8.609,3.508,3.508,0,0,1-3.25-7.516a4.444,4.444,0,0,1,1,3.1v.922H-7.637a2.1,2.1,0,0,0,.66,1.328,2,2,0,0,0,1.395.5,2.437,2.437,0,0,0,2.039-.945l1.109,1.242A3.389,3.389,0,0,1-3.809-.246a4.511,4.511,0,0,1-1.921.4Zm-.258-6.945a1.411,1.411,0,0,0-1.09.455,2.357,2.357,0,0,0-.535,1.3h3.141v-.181a1.681,1.681,0,0,0-.406-1.165,1.456,1.456,0,0,0-1.109-.41ZM6.527-1.664a1.481,1.481,0,0,0,1.016-.344,1.2,1.2,0,0,0,.406-.914h2.117A2.9,2.9,0,0,1,9.6-1.348,3.093,3.093,0,0,1,8.336-.238a3.949,3.949,0,0,1-1.77.4A3.67,3.67,0,0,1,3.707-1,4.56,4.56,0,0,1,2.66-4.18v-.148A4.508,4.508,0,0,1,3.7-7.445,3.627,3.627,0,0,1,6.551-8.609a3.555,3.555,0,0,1,2.543.9,3.2,3.2,0,0,1,.973,2.4H7.949a1.551,1.551,0,0,0-.406-1.072,1.354,1.354,0,0,0-1.031-.412,1.36,1.36,0,0,0-1.191.575,3.333,3.333,0,0,0-.4,1.866v.235a3.375,3.375,0,0,0,.4,1.878,1.377,1.377,0,0,0,1.206.575ZM11-4.3a5.013,5.013,0,0,1,.484-2.242,3.546,3.546,0,0,1,1.4-1.528A4.069,4.069,0,0,1,15-8.609a3.849,3.849,0,0,1,2.793,1.047A4.2,4.2,0,0,1,19-4.719l.016.578a4.418,4.418,0,0,1-1.09,3.121A3.775,3.775,0,0,1,15.012.156a3.793,3.793,0,0,1-2.918-1.172A4.5,4.5,0,0,1,11-4.2Zm2.258.16a3.16,3.16,0,0,0,.457,1.84,1.5,1.5,0,0,0,1.3.638,1.5,1.5,0,0,0,1.281-.63,3.457,3.457,0,0,0,.461-2.015A3.128,3.128,0,0,0,16.3-6.138,1.5,1.5,0,0,0,15-6.789a1.474,1.474,0,0,0-1.281.646,3.516,3.516,0,0,0-.457,2ZM22.48-8.453l.07.977a2.951,2.951,0,0,1,2.43-1.133,2.453,2.453,0,0,1,2,.789,3.682,3.682,0,0,1,.672,2.359V0H25.4V-5.419a1.47,1.47,0,0,0-.312-1.045,1.4,1.4,0,0,0-1.039-.325,1.553,1.553,0,0,0-1.43.814V0H20.355V-8.453Zm9.586-2.078v2.078h1.445V-6.8H32.066v4.219a1.007,1.007,0,0,0,.18.672.9.9,0,0,0,.688.2,3.6,3.6,0,0,0,.664-.055V-.047a4.648,4.648,0,0,1-1.367.2,2.156,2.156,0,0,1-1.8-.606,2.156,2.156,0,0,1-.622-1.794V-6.8H28.574V-8.453h1.234v-2.078ZM38.66.156a4.15,4.15,0,0,1-3.027-1.14,4.054,4.054,0,0,1-1.168-3.039v-.219a5.106,5.106,0,0,1,.492-2.277,3.612,3.612,0,0,1,1.4-1.547,3.914,3.914,0,0,1,2.059-.543,3.508,3.508,0,0,1,2.73,1.094,4.444,4.444,0,0,1,1,3.1v.922H36.754a2.1,2.1,0,0,0,.66,1.328,2,2,0,0,0,1.395.5,2.437,2.437,0,0,0,2.039-.945l1.109,1.242A3.389,3.389,0,0,1,40.582-.246a4.511,4.511,0,0,1-1.922.4ZM38.4-6.789a1.411,1.411,0,0,0-1.09.455,2.357,2.357,0,0,0-.535,1.3h3.141v-.181A1.681,1.681,0,0,0,39.51-6.38a1.456,1.456,0,0,0-1.11-.409Zm8.234.859,1.422-2.523H50.47l-2.4,4.141L50.574,0H48.152L46.645-2.656,45.145,0h-2.43l2.508-4.312-2.4-4.141h2.422Zm7.625-4.6v2.078H55.7V-6.8H54.262v4.219a1.007,1.007,0,0,0,.18.672.9.9,0,0,0,.688.2,3.6,3.6,0,0,0,.664-.055V-.047a4.648,4.648,0,0,1-1.367.2,2.156,2.156,0,0,1-1.8-.6A2.156,2.156,0,0,1,52-2.242V-6.8H50.77V-8.453H52v-2.078Zm2.12,6.23a5.013,5.013,0,0,1,.484-2.242A3.546,3.546,0,0,1,58.258-8.07a4.069,4.069,0,0,1,2.113-.539,3.849,3.849,0,0,1,2.793,1.047,4.2,4.2,0,0,1,1.207,2.844l.016.578A4.418,4.418,0,0,1,63.3-1.02,3.775,3.775,0,0,1,60.387.156a3.793,3.793,0,0,1-2.918-1.172A4.5,4.5,0,0,1,56.379-4.2Zm2.258.16A3.16,3.16,0,0,0,59.09-2.3a1.5,1.5,0,0,0,1.3.638,1.5,1.5,0,0,0,1.281-.63,3.457,3.457,0,0,0,.461-2.015,3.128,3.128,0,0,0-.461-1.831,1.5,1.5,0,0,0-1.3-.649,1.474,1.474,0,0,0-1.281.646,3.516,3.516,0,0,0-.453,2Z" transform="translate(-2468 1500)" fill="#12263f"/>
      <path id="Trazado_134910" data-name="Trazado 134910" d="M-60.8,0V-11.375h3.5a5.315,5.315,0,0,1,2.684.676,4.712,4.712,0,0,1,1.848,1.922A5.928,5.928,0,0,1-52.1-5.945v.523a5.945,5.945,0,0,1-.652,2.82A4.672,4.672,0,0,1-54.6-.687,5.355,5.355,0,0,1-57.281,0Zm2.344-9.477v7.594h1.133a2.545,2.545,0,0,0,2.1-.9,4.06,4.06,0,0,0,.742-2.57v-.6A4.124,4.124,0,0,0-55.2-8.582a2.537,2.537,0,0,0-2.1-.895ZM-45.656,0a2.507,2.507,0,0,1-.227-.758,2.732,2.732,0,0,1-2.133.914,3,3,0,0,1-2.059-.719,2.312,2.312,0,0,1-.816-1.812,2.389,2.389,0,0,1,1-2.062,4.915,4.915,0,0,1,2.879-.727h1.039v-.484a1.393,1.393,0,0,0-.3-.937,1.183,1.183,0,0,0-.949-.352,1.345,1.345,0,0,0-.895.273.929.929,0,0,0-.324.75H-50.7a2.268,2.268,0,0,1,.453-1.359,3,3,0,0,1,1.281-.98,4.669,4.669,0,0,1,1.859-.355,3.689,3.689,0,0,1,2.48.785,2.747,2.747,0,0,1,.918,2.207v3.664a4.041,4.041,0,0,0,.336,1.82V0Zm-1.867-1.57a1.945,1.945,0,0,0,.922-.223,1.462,1.462,0,0,0,.625-.6V-3.844h-.844q-1.7,0-1.8,1.172l-.008.133a.9.9,0,0,0,.3.7,1.153,1.153,0,0,0,.8.269Zm8.25-8.961v2.078h1.445V-6.8h-1.445v4.219a1.007,1.007,0,0,0,.18.672.9.9,0,0,0,.688.2,3.6,3.6,0,0,0,.664-.055V-.047a4.648,4.648,0,0,1-1.367.2,2.156,2.156,0,0,1-1.8-.606,2.156,2.156,0,0,1-.622-1.794V-6.8h-1.234V-8.453h1.234v-2.078ZM-37.156-4.3a5.013,5.013,0,0,1,.484-2.242A3.546,3.546,0,0,1-35.277-8.07a4.069,4.069,0,0,1,2.113-.539,3.849,3.849,0,0,1,2.793,1.047,4.2,4.2,0,0,1,1.207,2.844l.016.578a4.418,4.418,0,0,1-1.086,3.12A3.775,3.775,0,0,1-33.148.156a3.793,3.793,0,0,1-2.918-1.172A4.5,4.5,0,0,1-37.156-4.2Zm2.258.16a3.16,3.16,0,0,0,.453,1.84,1.5,1.5,0,0,0,1.3.638,1.5,1.5,0,0,0,1.281-.63A3.457,3.457,0,0,0-31.4-4.307a3.128,3.128,0,0,0-.461-1.831,1.5,1.5,0,0,0-1.3-.649,1.474,1.474,0,0,0-1.281.646,3.516,3.516,0,0,0-.455,2Zm11.718,1.8a.727.727,0,0,0-.41-.652,4.659,4.659,0,0,0-1.316-.426q-3.016-.633-3.016-2.562a2.323,2.323,0,0,1,.934-1.879,3.766,3.766,0,0,1,2.441-.754,4.053,4.053,0,0,1,2.574.758,2.388,2.388,0,0,1,.965,1.969h-2.258a1.092,1.092,0,0,0-.312-.8A1.322,1.322,0,0,0-24.555-7a1.351,1.351,0,0,0-.883.258.814.814,0,0,0-.312.656.7.7,0,0,0,.355.6,3.657,3.657,0,0,0,1.2.4,9.8,9.8,0,0,1,1.422.379A2.336,2.336,0,0,1-20.984-2.43a2.2,2.2,0,0,1-.992,1.871,4.28,4.28,0,0,1-2.562.715,4.47,4.47,0,0,1-1.887-.379,3.166,3.166,0,0,1-1.293-1.039,2.414,2.414,0,0,1-.469-1.426h2.141a1.179,1.179,0,0,0,.445.922,1.766,1.766,0,0,0,1.109.32,1.635,1.635,0,0,0,.98-.246.766.766,0,0,0,.332-.644Zm7.28-1.953a5.094,5.094,0,0,1,.887-3.148,2.877,2.877,0,0,1,2.426-1.172,2.589,2.589,0,0,1,2.039.922V-12h2.266V0H-10.32l-.109-.9A2.657,2.657,0,0,1-12.6.156,2.869,2.869,0,0,1-15-1.02a5.258,5.258,0,0,1-.9-3.269Zm2.258.161A3.355,3.355,0,0,0-13.227-2.3a1.348,1.348,0,0,0,1.2.636,1.51,1.51,0,0,0,1.477-.887V-5.9a1.489,1.489,0,0,0-1.461-.887q-1.63,0-1.63,2.659Zm11,4.285A4.15,4.15,0,0,1-5.668-.984,4.054,4.054,0,0,1-6.836-4.023v-.219A5.106,5.106,0,0,1-6.344-6.52,3.612,3.612,0,0,1-4.949-8.066,3.914,3.914,0,0,1-2.89-8.609,3.508,3.508,0,0,1-.16-7.516a4.444,4.444,0,0,1,1,3.1v.922H-4.547a2.1,2.1,0,0,0,.66,1.328,2,2,0,0,0,1.4.5A2.437,2.437,0,0,0-.453-2.609L.656-1.367A3.389,3.389,0,0,1-.719-.246a4.511,4.511,0,0,1-1.922.4ZM-2.9-6.789a1.411,1.411,0,0,0-1.09.455,2.357,2.357,0,0,0-.535,1.3h3.141v-.181A1.681,1.681,0,0,0-1.79-6.38,1.456,1.456,0,0,0-2.9-6.789ZM9.992.156A4.15,4.15,0,0,1,6.965-.984,4.054,4.054,0,0,1,5.8-4.023v-.219A5.106,5.106,0,0,1,6.289-6.52,3.612,3.612,0,0,1,7.684-8.066a3.914,3.914,0,0,1,2.059-.543,3.508,3.508,0,0,1,2.73,1.094,4.444,4.444,0,0,1,1,3.1v.922H8.086a2.1,2.1,0,0,0,.66,1.328,2,2,0,0,0,1.395.5A2.437,2.437,0,0,0,12.18-2.61l1.109,1.242A3.389,3.389,0,0,1,11.914-.246a4.511,4.511,0,0,1-1.922.4ZM9.734-6.789a1.411,1.411,0,0,0-1.09.455,2.357,2.357,0,0,0-.535,1.3H11.25v-.181a1.681,1.681,0,0,0-.406-1.165A1.456,1.456,0,0,0,9.734-6.789Zm8.078,4.031,1.57-5.7h2.359L18.891,0H16.734L13.883-8.453h2.359ZM26.523.156A4.15,4.15,0,0,1,23.5-.984a4.054,4.054,0,0,1-1.168-3.039v-.219A5.106,5.106,0,0,1,22.82-6.52a3.612,3.612,0,0,1,1.4-1.547,3.914,3.914,0,0,1,2.059-.543A3.508,3.508,0,0,1,29-7.516a4.444,4.444,0,0,1,1,3.1v.922H24.617a2.1,2.1,0,0,0,.66,1.328,2,2,0,0,0,1.395.5,2.437,2.437,0,0,0,2.039-.945L29.82-1.367A3.389,3.389,0,0,1,28.445-.246a4.511,4.511,0,0,1-1.922.4Zm-.258-6.945a1.411,1.411,0,0,0-1.09.455,2.357,2.357,0,0,0-.535,1.3h3.141v-.181a1.681,1.681,0,0,0-.406-1.165,1.456,1.456,0,0,0-1.109-.409Zm7.094-1.664.07.977a2.951,2.951,0,0,1,2.43-1.133,2.453,2.453,0,0,1,2,.789,3.682,3.682,0,0,1,.672,2.359V0H36.273V-5.419a1.47,1.47,0,0,0-.312-1.045,1.4,1.4,0,0,0-1.039-.325,1.553,1.553,0,0,0-1.43.814V0H31.234V-8.453Zm9.586-2.078v2.078H44.39V-6.8H42.945v4.219a1.007,1.007,0,0,0,.18.672.9.9,0,0,0,.688.2,3.6,3.6,0,0,0,.664-.055V-.047a4.648,4.648,0,0,1-1.367.2,2.156,2.156,0,0,1-1.8-.606,2.156,2.156,0,0,1-.622-1.794V-6.8H39.453V-8.453h1.234v-2.078ZM45.063-4.3a5.013,5.013,0,0,1,.484-2.242A3.546,3.546,0,0,1,46.941-8.07a4.069,4.069,0,0,1,2.113-.539,3.849,3.849,0,0,1,2.793,1.047,4.2,4.2,0,0,1,1.207,2.844l.016.578a4.418,4.418,0,0,1-1.086,3.12A3.775,3.775,0,0,1,49.07.156a3.793,3.793,0,0,1-2.918-1.172A4.5,4.5,0,0,1,45.063-4.2Zm2.258.16a3.16,3.16,0,0,0,.452,1.84,1.5,1.5,0,0,0,1.3.638,1.5,1.5,0,0,0,1.281-.63,3.457,3.457,0,0,0,.461-2.015,3.128,3.128,0,0,0-.461-1.831,1.5,1.5,0,0,0-1.3-.649,1.474,1.474,0,0,0-1.281.646,3.516,3.516,0,0,0-.453,2Zm11.718,1.8a.727.727,0,0,0-.41-.652,4.659,4.659,0,0,0-1.316-.426Q54.3-4.047,54.3-5.977a2.323,2.323,0,0,1,.934-1.879,3.766,3.766,0,0,1,2.441-.754,4.053,4.053,0,0,1,2.574.758,2.388,2.388,0,0,1,.965,1.969H58.953a1.092,1.092,0,0,0-.312-.8A1.322,1.322,0,0,0,57.664-7a1.351,1.351,0,0,0-.883.258.814.814,0,0,0-.312.656.7.7,0,0,0,.355.605,3.657,3.657,0,0,0,1.2.4,9.8,9.8,0,0,1,1.422.379A2.336,2.336,0,0,1,61.234-2.43a2.2,2.2,0,0,1-.992,1.871A4.28,4.28,0,0,1,57.68.156a4.47,4.47,0,0,1-1.887-.379A3.166,3.166,0,0,1,54.5-1.262a2.414,2.414,0,0,1-.469-1.426h2.141a1.179,1.179,0,0,0,.445.922,1.766,1.766,0,0,0,1.109.32,1.635,1.635,0,0,0,.98-.246.766.766,0,0,0,.333-.644Z" transform="translate(-2809 1500)" fill="#12263f"/>
      <path id="Trazado_115067" data-name="Trazado 115067" d="M-12116.5-9365.492V-9413h342.659v47.508" transform="translate(9304.5 10813.5)" fill="none" stroke="#583ae2" stroke-width="3"/>
      <path id="Trazado_134911" data-name="Trazado 134911" d="M8,0H253a8,8,0,0,1,8,8V58a8,8,0,0,1-8,8H8a8,8,0,0,1-8-8V8A8,8,0,0,1,8,0Z" transform="translate(-2765 1371)" fill="#583ae2"/>
      <path id="Trazado_126144" data-name="Trazado 126144" d="M0,0V67.632" transform="translate(-2637.003 1756)" fill="none" stroke="#5243d9" stroke-width="3"/>
      <path id="Trazado_134913" data-name="Trazado 134913" d="M7.5,0,15,12.851H0Z" transform="translate(-2629.507 1829.637) rotate(180)" fill="#5243d9"/>
      <path id="Trazado_126144-2" data-name="Trazado 126144" d="M0,0V37.345" transform="translate(-2710 1871.504) rotate(90)" fill="none" stroke="#5243d9" stroke-width="3"/>
      <path id="Trazado_134914" data-name="Trazado 134914" d="M7.5,0,15,12.851H0Z" transform="translate(-2753.35 1879) rotate(-90)" fill="#5243d9"/>
      <path id="Trazado_134915" data-name="Trazado 134915" d="M33,0H228a33,33,0,0,1,0,66H33A33,33,0,0,1,33,0Z" transform="translate(-2771 1690)" fill="#40327b"/>
      <path id="Trazado_134916" data-name="Trazado 134916" d="M-15.229-3.779a1.408,1.408,0,0,0-.532-1.172,6.615,6.615,0,0,0-1.87-.869,17.941,17.941,0,0,1-2.187-.869q-2.764-1.357-2.764-3.73a3.345,3.345,0,0,1,.688-2.085,4.453,4.453,0,0,1,1.948-1.406,7.582,7.582,0,0,1,2.832-.5,6.632,6.632,0,0,1,2.749.547,4.352,4.352,0,0,1,1.89,1.558A4.068,4.068,0,0,1-11.8-10h-3.42a1.719,1.719,0,0,0-.532-1.348,2.075,2.075,0,0,0-1.44-.479,2.339,2.339,0,0,0-1.45.4,1.243,1.243,0,0,0-.532,1.03,1.252,1.252,0,0,0,.586.991,7.389,7.389,0,0,0,2.061.918A12.623,12.623,0,0,1-14.1-7.462,4.07,4.07,0,0,1-11.8-3.8,3.472,3.472,0,0,1-13.206-.87,6.255,6.255,0,0,1-17.065.2a7.653,7.653,0,0,1-3.13-.62A4.719,4.719,0,0,1-22.3-2.12a4.427,4.427,0,0,1-.708-2.485h3.438a2.181,2.181,0,0,0,.591,1.685,2.793,2.793,0,0,0,1.919.542,2.206,2.206,0,0,0,1.343-.366,1.209,1.209,0,0,0,.492-1.035ZM-6.392,0H-9.81V-14.219h3.418ZM4.81-6.035H-.581v3.4H5.786V0H-4.009V-14.219H5.806v2.646H-.581v3H4.81Zm6.875-8.184,3.174,9.893,3.164-9.893h4.512V0H19.1V-3.32l.332-6.8L15.991,0H13.726L10.278-10.127,10.61-3.32V0H7.183V-14.219Z" transform="translate(-2635 1730)" fill="#fff"/>
      <path id="Trazado_134917" data-name="Trazado 134917" d="M7.5,0,15,12.851H0Z" transform="translate(-2804.504 1454.433) rotate(180)" fill="#5243d9"/>
      <path id="Trazado_134918" data-name="Trazado 134918" d="M7.5,0,15,12.851H0Z" transform="translate(-2460.504 1454.433) rotate(180)" fill="#5243d9"/>
      <path id="Trazado_134919" data-name="Trazado 134919" d="M7.5,0,15,12.851H0Z" transform="translate(-2502.546 1730.496) rotate(-90)" fill="#5243d9"/>
      <path id="Trazado_133966" data-name="Trazado 133966" d="M-3700,2390v58h-25.121" transform="translate(1232 -725)" fill="none" stroke="#583ae2" stroke-width="3"/>
      <path id="Trazado_134920" data-name="Trazado 134920" d="M7.5,0,15,12.851H0Z" transform="translate(-2782.454 1715.504) rotate(90)" fill="#5243d9"/>
      <path id="Trazado_133966-2" data-name="Trazado 133966" d="M-3725.121,2390v58H-3684" transform="translate(892.121 -725)" fill="none" stroke="#583ae2" stroke-width="3"/>
      <path id="Trazado_134921" data-name="Trazado 134921" d="M4.672-5.07A7.053,7.053,0,0,1,1.863-6.434a2.6,2.6,0,0,1-.879-2,2.751,2.751,0,0,1,1.074-2.223,4.269,4.269,0,0,1,2.793-.879,4.66,4.66,0,0,1,2.09.453,3.436,3.436,0,0,1,1.422,1.25,3.2,3.2,0,0,1,.5,1.742h-1.5A2.08,2.08,0,0,0,6.7-9.713,2.669,2.669,0,0,0,4.852-10.3a2.732,2.732,0,0,0-1.73.489A1.632,1.632,0,0,0,2.5-8.458,1.468,1.468,0,0,0,3.09-7.28,5.785,5.785,0,0,0,5.1-6.4a9.316,9.316,0,0,1,2.219.88A3.367,3.367,0,0,1,8.5-4.4a2.861,2.861,0,0,1,.387,1.508A2.658,2.658,0,0,1,7.813-.676,4.6,4.6,0,0,1,4.93.156,5.347,5.347,0,0,1,2.742-.293a3.681,3.681,0,0,1-1.566-1.23A3,3,0,0,1,.625-3.3H2.133a1.959,1.959,0,0,0,.762,1.629,3.207,3.207,0,0,0,2.035.6,2.948,2.948,0,0,0,1.82-.484,1.573,1.573,0,0,0,.633-1.32A1.545,1.545,0,0,0,6.8-4.168a6.755,6.755,0,0,0-2.128-.9ZM12.156,0H10.711V-8.453h1.445ZM10.594-10.7a.863.863,0,0,1,.215-.594.807.807,0,0,1,.637-.242.819.819,0,0,1,.641.242.854.854,0,0,1,.219.594.826.826,0,0,1-.219.586.834.834,0,0,1-.641.234.821.821,0,0,1-.637-.234.834.834,0,0,1-.215-.586Zm8.8,8.453a1.064,1.064,0,0,0-.441-.91,4.249,4.249,0,0,0-1.539-.559,7.277,7.277,0,0,1-1.742-.562,2.479,2.479,0,0,1-.953-.781,1.869,1.869,0,0,1-.309-1.078A2.193,2.193,0,0,1,15.289-7.9a3.432,3.432,0,0,1,2.246-.719,3.532,3.532,0,0,1,2.332.742,2.357,2.357,0,0,1,.9,1.9H19.3a1.3,1.3,0,0,0-.5-1.023,1.888,1.888,0,0,0-1.27-.43,1.976,1.976,0,0,0-1.234.344,1.082,1.082,0,0,0-.445.9.877.877,0,0,0,.414.789,5.1,5.1,0,0,0,1.5.508,7.8,7.8,0,0,1,1.754.578,2.558,2.558,0,0,1,1,.809,1.988,1.988,0,0,1,.324,1.152A2.163,2.163,0,0,1,19.93-.527a3.8,3.8,0,0,1-2.352.684,4.257,4.257,0,0,1-1.8-.359,2.922,2.922,0,0,1-1.223-1,2.42,2.42,0,0,1-.438-1.4h1.445a1.5,1.5,0,0,0,.582,1.152,2.258,2.258,0,0,0,1.434.426,2.331,2.331,0,0,0,1.316-.332,1.02,1.02,0,0,0,.5-.888ZM24.68-10.5v2.047h1.578v1.117H24.68v5.249a1.173,1.173,0,0,0,.211.763.888.888,0,0,0,.719.254,3.5,3.5,0,0,0,.688-.094V0a4.215,4.215,0,0,1-1.109.155A1.8,1.8,0,0,1,23.727-.43a2.517,2.517,0,0,1-.492-1.664V-7.336H21.7V-8.453h1.539V-10.5ZM31.453.156a3.693,3.693,0,0,1-2.8-1.129,4.19,4.19,0,0,1-1.078-3.02v-.266a5.073,5.073,0,0,1,.48-2.246A3.748,3.748,0,0,1,29.4-8.051a3.378,3.378,0,0,1,1.871-.559,3.166,3.166,0,0,1,2.563,1.086,4.7,4.7,0,0,1,.914,3.109v.6H29.023a3,3,0,0,0,.73,2.02,2.3,2.3,0,0,0,1.777.77,2.517,2.517,0,0,0,1.3-.312,3.259,3.259,0,0,0,.93-.828l.883.688A3.55,3.55,0,0,1,31.453.156Zm-.18-7.578a1.928,1.928,0,0,0-1.469.637A3.1,3.1,0,0,0,29.07-5H33.3v-.109a2.753,2.753,0,0,0-.594-1.707,1.815,1.815,0,0,0-1.433-.606Zm6.508-1.031.039.938a3.122,3.122,0,0,1,2.508-1.094A2.417,2.417,0,0,1,42.742-7.25a3.2,3.2,0,0,1,1.1-.984,3.242,3.242,0,0,1,1.6-.375q2.781,0,2.828,2.945V0H46.82V-5.578a1.941,1.941,0,0,0-.414-1.355,1.823,1.823,0,0,0-1.391-.449,1.917,1.917,0,0,0-1.336.48,1.949,1.949,0,0,0-.617,1.293V0H41.609V-5.539a1.613,1.613,0,0,0-.44-1.371,1.613,1.613,0,0,0-1.36-.473,1.934,1.934,0,0,0-1.945,1.211V0h-1.45V-8.453ZM55.664,0a3.036,3.036,0,0,1-.2-.891A3.225,3.225,0,0,1,53.055.156,2.984,2.984,0,0,1,51-.551a2.287,2.287,0,0,1-.8-1.793,2.39,2.39,0,0,1,1-2.051,4.733,4.733,0,0,1,2.824-.73H55.43v-.664A1.623,1.623,0,0,0,54.984-7a1.821,1.821,0,0,0-1.336-.449,2.107,2.107,0,0,0-1.3.391,1.151,1.151,0,0,0-.523.945h-1.45a2,2,0,0,1,.449-1.223,3.066,3.066,0,0,1,1.219-.934,4.1,4.1,0,0,1,1.691-.344,3.342,3.342,0,0,1,2.289.73,2.635,2.635,0,0,1,.859,2.012v3.891a4.757,4.757,0,0,0,.3,1.852V0Zm-2.4-1.1a2.54,2.54,0,0,0,1.289-.352,2.127,2.127,0,0,0,.883-.914V-4.1H54.3q-2.656,0-2.656,1.555A1.316,1.316,0,0,0,52.1-1.484a1.742,1.742,0,0,0,1.166.384Zm9.461-3.2a4.993,4.993,0,0,1,.488-2.234A3.643,3.643,0,0,1,64.574-8.07a3.7,3.7,0,0,1,1.988-.539,3.565,3.565,0,0,1,2.793,1.2,4.6,4.6,0,0,1,1.066,3.18v.1a5.036,5.036,0,0,1-.473,2.215A3.589,3.589,0,0,1,68.6-.391a3.743,3.743,0,0,1-2.02.547,3.556,3.556,0,0,1-2.785-1.2A4.575,4.575,0,0,1,62.727-4.2Zm1.453.172A3.616,3.616,0,0,0,64.83-1.87a2.088,2.088,0,0,0,1.746.852,2.075,2.075,0,0,0,1.75-.863A3.955,3.955,0,0,0,68.977-4.3a3.61,3.61,0,0,0-.66-2.254,2.1,2.1,0,0,0-1.754-.863,2.075,2.075,0,0,0-1.727.852,3.925,3.925,0,0,0-.656,2.432Zm15.2,0a5.062,5.062,0,0,1-.883,3.109A2.829,2.829,0,0,1,76.1.156,3.1,3.1,0,0,1,73.68-.82V3.25H72.234V-8.45h1.32l.07.938a2.977,2.977,0,0,1,2.453-1.094,2.882,2.882,0,0,1,2.41,1.148,5.117,5.117,0,0,1,.887,3.2ZM77.93-4.3a3.735,3.735,0,0,0-.609-2.258,1.963,1.963,0,0,0-1.672-.828A2.125,2.125,0,0,0,73.68-6.219V-2.18a2.129,2.129,0,0,0,1.984,1.156,1.954,1.954,0,0,0,1.652-.824A4.077,4.077,0,0,0,77.93-4.3ZM84.719.156a3.693,3.693,0,0,1-2.8-1.129,4.19,4.19,0,0,1-1.078-3.02v-.266a5.073,5.073,0,0,1,.48-2.246,3.748,3.748,0,0,1,1.344-1.547,3.378,3.378,0,0,1,1.871-.559A3.166,3.166,0,0,1,87.1-7.523a4.7,4.7,0,0,1,.914,3.109v.6H82.289a3,3,0,0,0,.73,2.02,2.3,2.3,0,0,0,1.777.77,2.517,2.517,0,0,0,1.3-.312,3.259,3.259,0,0,0,.93-.828l.883.688A3.55,3.55,0,0,1,84.719.156Zm-.18-7.578a1.928,1.928,0,0,0-1.469.637A3.1,3.1,0,0,0,82.336-5H86.57v-.109a2.753,2.753,0,0,0-.594-1.707A1.815,1.815,0,0,0,84.539-7.422Zm9.234.266a4.331,4.331,0,0,0-.711-.055A1.9,1.9,0,0,0,91.133-6V0H89.688V-8.453h1.406l.023.977a2.251,2.251,0,0,1,2.016-1.133,1.477,1.477,0,0,1,.641.109ZM100.008,0a3.036,3.036,0,0,1-.2-.891A3.225,3.225,0,0,1,97.4.156a2.984,2.984,0,0,1-2.051-.707,2.288,2.288,0,0,1-.8-1.793,2.39,2.39,0,0,1,1-2.051,4.733,4.733,0,0,1,2.824-.73h1.406v-.664A1.623,1.623,0,0,0,99.328-7a1.821,1.821,0,0,0-1.336-.449,2.108,2.108,0,0,0-1.3.391,1.151,1.151,0,0,0-.523.945h-1.45a2,2,0,0,1,.449-1.223,3.066,3.066,0,0,1,1.219-.934,4.1,4.1,0,0,1,1.691-.344,3.342,3.342,0,0,1,2.289.73,2.635,2.635,0,0,1,.859,2.012v3.891a4.757,4.757,0,0,0,.3,1.852V0Zm-2.4-1.1A2.54,2.54,0,0,0,98.9-1.453a2.127,2.127,0,0,0,.883-.914V-4.1H98.648q-2.656,0-2.656,1.555a1.316,1.316,0,0,0,.453,1.063,1.742,1.742,0,0,0,1.164.382Zm7.844-9.4v2.047h1.578v1.117h-1.578v5.249a1.173,1.173,0,0,0,.211.763.888.888,0,0,0,.719.254,3.5,3.5,0,0,0,.688-.094V0a4.215,4.215,0,0,1-1.109.155A1.8,1.8,0,0,1,104.5-.43a2.517,2.517,0,0,1-.492-1.664V-7.336h-1.539V-8.453h1.539V-10.5ZM110.289,0h-1.445V-8.453h1.445Zm-1.562-10.7a.863.863,0,0,1,.215-.594.807.807,0,0,1,.637-.242.819.819,0,0,1,.641.242.854.854,0,0,1,.219.594.826.826,0,0,1-.219.586.834.834,0,0,1-.641.234.821.821,0,0,1-.637-.234.834.834,0,0,1-.215-.586Zm6.664,8.734,2.094-6.492h1.477L115.93,0h-1.1l-3.062-8.453h1.477ZM119.852-4.3a4.993,4.993,0,0,1,.488-2.234A3.643,3.643,0,0,1,121.7-8.07a3.7,3.7,0,0,1,1.988-.539,3.565,3.565,0,0,1,2.793,1.2,4.6,4.6,0,0,1,1.066,3.18v.1a5.036,5.036,0,0,1-.473,2.215,3.589,3.589,0,0,1-1.352,1.527A3.743,3.743,0,0,1,123.7.16a3.556,3.556,0,0,1-2.785-1.2,4.575,4.575,0,0,1-1.065-3.16Zm1.453.172a3.616,3.616,0,0,0,.652,2.258,2.088,2.088,0,0,0,1.746.852,2.075,2.075,0,0,0,1.75-.863A3.955,3.955,0,0,0,126.1-4.3a3.61,3.61,0,0,0-.66-2.254,2.1,2.1,0,0,0-1.754-.863,2.075,2.075,0,0,0-1.727.852,3.925,3.925,0,0,0-.659,2.432ZM7.6,19.023H2.836L1.766,22H.219L4.563,10.625H5.875L10.227,22H8.688ZM3.289,17.8H7.156L5.219,12.48Zm15.383.07a5.062,5.062,0,0,1-.883,3.109,2.829,2.829,0,0,1-2.391,1.18,3.1,3.1,0,0,1-2.422-.977v4.07H11.531v-11.7h1.32l.07.938A2.977,2.977,0,0,1,15.374,13.4a2.882,2.882,0,0,1,2.41,1.148,5.117,5.117,0,0,1,.887,3.2Zm-1.445-.17a3.735,3.735,0,0,0-.609-2.258,1.963,1.963,0,0,0-1.672-.828,2.125,2.125,0,0,0-1.969,1.164V19.82a2.129,2.129,0,0,0,1.984,1.156,1.954,1.954,0,0,0,1.652-.824A4.077,4.077,0,0,0,17.227,17.7ZM22.078,22H20.633V10h1.445Zm3.883,0H24.516V13.547h1.445ZM24.4,11.3a.863.863,0,0,1,.215-.594.807.807,0,0,1,.637-.242.819.819,0,0,1,.641.242.854.854,0,0,1,.219.594.856.856,0,1,1-1.712,0Zm7.266,9.672a2.082,2.082,0,0,0,1.352-.469,1.649,1.649,0,0,0,.641-1.172h1.367a2.621,2.621,0,0,1-.5,1.383,3.293,3.293,0,0,1-1.23,1.047,3.55,3.55,0,0,1-1.629.391A3.482,3.482,0,0,1,28.918,21a4.59,4.59,0,0,1-1.02-3.152v-.242a5.089,5.089,0,0,1,.453-2.2,3.451,3.451,0,0,1,1.3-1.492,3.7,3.7,0,0,1,2-.531,3.39,3.39,0,0,1,2.363.852,3.043,3.043,0,0,1,1,2.211H33.656a1.992,1.992,0,0,0-.621-1.348,1.932,1.932,0,0,0-1.379-.527,2.023,2.023,0,0,0-1.707.793,3.724,3.724,0,0,0-.605,2.293v.273a3.65,3.65,0,0,0,.6,2.25,2.033,2.033,0,0,0,1.72.8ZM41.867,22a3.036,3.036,0,0,1-.2-.891,3.225,3.225,0,0,1-2.406,1.047,2.984,2.984,0,0,1-2.051-.707,2.287,2.287,0,0,1-.8-1.793,2.39,2.39,0,0,1,1-2.051,4.733,4.733,0,0,1,2.824-.73H41.64v-.664A1.623,1.623,0,0,0,41.188,15a1.821,1.821,0,0,0-1.336-.449,2.107,2.107,0,0,0-1.3.391,1.151,1.151,0,0,0-.523.945H36.578a2,2,0,0,1,.449-1.223,3.066,3.066,0,0,1,1.219-.934,4.1,4.1,0,0,1,1.691-.344,3.342,3.342,0,0,1,2.289.73,2.635,2.635,0,0,1,.859,2.012v3.891a4.757,4.757,0,0,0,.3,1.852V22Zm-2.4-1.1a2.54,2.54,0,0,0,1.289-.352,2.127,2.127,0,0,0,.883-.914V17.9H40.508q-2.656,0-2.656,1.555a1.316,1.316,0,0,0,.453,1.063,1.742,1.742,0,0,0,1.164.382Zm9.273.078a2.082,2.082,0,0,0,1.352-.469,1.649,1.649,0,0,0,.641-1.172H52.1a2.621,2.621,0,0,1-.5,1.383,3.293,3.293,0,0,1-1.23,1.047,3.55,3.55,0,0,1-1.629.391A3.482,3.482,0,0,1,46,21a4.59,4.59,0,0,1-1.02-3.152v-.242a5.089,5.089,0,0,1,.453-2.2,3.451,3.451,0,0,1,1.3-1.492,3.7,3.7,0,0,1,2-.531,3.39,3.39,0,0,1,2.363.852,3.043,3.043,0,0,1,1,2.211H50.734a1.992,1.992,0,0,0-.621-1.348,1.932,1.932,0,0,0-1.379-.527,2.023,2.023,0,0,0-1.707.793,3.724,3.724,0,0,0-.605,2.293v.273a3.65,3.65,0,0,0,.6,2.25,2.033,2.033,0,0,0,1.72.8ZM55.3,22H53.852V13.547H55.3ZM53.734,11.3a.863.863,0,0,1,.215-.594.807.807,0,0,1,.637-.242.819.819,0,0,1,.641.242.854.854,0,0,1,.219.594.856.856,0,1,1-1.712,0Zm3.493,6.4a4.993,4.993,0,0,1,.488-2.234,3.643,3.643,0,0,1,1.359-1.531,3.7,3.7,0,0,1,1.988-.539,3.565,3.565,0,0,1,2.793,1.2,4.6,4.6,0,0,1,1.066,3.18v.1a5.036,5.036,0,0,1-.473,2.215A3.589,3.589,0,0,1,63.1,21.609a3.743,3.743,0,0,1-2.02.547,3.556,3.556,0,0,1-2.785-1.2A4.575,4.575,0,0,1,57.227,17.8Zm1.453.172a3.616,3.616,0,0,0,.652,2.258,2.211,2.211,0,0,0,3.5-.012A3.955,3.955,0,0,0,63.48,17.7a3.61,3.61,0,0,0-.66-2.254,2.1,2.1,0,0,0-1.754-.863,2.075,2.075,0,0,0-1.727.852,3.925,3.925,0,0,0-.659,2.432Zm9.422-4.32.047,1.063A3.08,3.08,0,0,1,70.68,13.4q2.68,0,2.7,3.023V22H71.938V16.406a1.946,1.946,0,0,0-.418-1.352,1.675,1.675,0,0,0-1.277-.437,2.086,2.086,0,0,0-1.234.375,2.546,2.546,0,0,0-.828.984V22H66.734V13.547Zm10.968,8.6a3.693,3.693,0,0,1-2.8-1.129,4.19,4.19,0,0,1-1.078-3.02v-.266a5.073,5.073,0,0,1,.48-2.246,3.748,3.748,0,0,1,1.344-1.547,3.378,3.378,0,0,1,1.871-.559,3.166,3.166,0,0,1,2.563,1.086,4.7,4.7,0,0,1,.914,3.109v.6H76.641a3,3,0,0,0,.73,2.02,2.3,2.3,0,0,0,1.777.77,2.517,2.517,0,0,0,1.3-.312,3.259,3.259,0,0,0,.93-.828l.883.688A3.55,3.55,0,0,1,79.07,22.156Zm-.18-7.578a1.928,1.928,0,0,0-1.469.637A3.1,3.1,0,0,0,76.688,17h4.234v-.109a2.753,2.753,0,0,0-.594-1.707,1.815,1.815,0,0,0-1.437-.606Zm10.07,5.18a1.064,1.064,0,0,0-.441-.91,4.249,4.249,0,0,0-1.539-.559,7.277,7.277,0,0,1-1.742-.562,2.478,2.478,0,0,1-.953-.781,1.869,1.869,0,0,1-.309-1.078,2.193,2.193,0,0,1,.879-1.758,3.432,3.432,0,0,1,2.246-.719,3.532,3.532,0,0,1,2.332.742,2.357,2.357,0,0,1,.895,1.9H88.875a1.3,1.3,0,0,0-.5-1.023,1.888,1.888,0,0,0-1.27-.43,1.976,1.976,0,0,0-1.234.344,1.082,1.082,0,0,0-.445.9.877.877,0,0,0,.414.789,5.1,5.1,0,0,0,1.5.508,7.8,7.8,0,0,1,1.754.578,2.558,2.558,0,0,1,1,.809,1.988,1.988,0,0,1,.324,1.152,2.163,2.163,0,0,1-.906,1.816,3.8,3.8,0,0,1-2.352.684,4.257,4.257,0,0,1-1.8-.359,2.922,2.922,0,0,1-1.223-1,2.42,2.42,0,0,1-.441-1.4h1.445a1.5,1.5,0,0,0,.582,1.152,2.258,2.258,0,0,0,1.434.426,2.331,2.331,0,0,0,1.316-.332,1.02,1.02,0,0,0,.488-.894ZM1.32,44V32.625H4.531a5.169,5.169,0,0,1,2.625.656,4.438,4.438,0,0,1,1.762,1.867,6.078,6.078,0,0,1,.629,2.781v.727a6.1,6.1,0,0,1-.621,2.82,4.369,4.369,0,0,1-1.773,1.859A5.5,5.5,0,0,1,4.469,44Zm1.5-10.148v8.922H4.4A3.434,3.434,0,0,0,7.1,41.7a4.458,4.458,0,0,0,.965-3.073v-.665a4.529,4.529,0,0,0-.91-3.014A3.239,3.239,0,0,0,4.57,33.852ZM11.813,44V32.625h3.719a4.317,4.317,0,0,1,2.785.766,2.759,2.759,0,0,1,.934,2.266,2.31,2.31,0,0,1-.453,1.41,2.937,2.937,0,0,1-1.234.949A2.638,2.638,0,0,1,19.02,39a2.814,2.814,0,0,1,.535,1.723,3.042,3.042,0,0,1-.992,2.406,4.1,4.1,0,0,1-2.8.875Zm1.5-5.32v4.094H15.79a2.385,2.385,0,0,0,1.652-.543,1.907,1.907,0,0,0,.6-1.5q0-2.055-2.234-2.055Zm0-1.2h2.266a2.375,2.375,0,0,0,1.574-.493,1.654,1.654,0,0,0,.59-1.339,1.626,1.626,0,0,0-.547-1.366,2.686,2.686,0,0,0-1.664-.427H13.313ZM1.32,66V54.625H4.531a5.169,5.169,0,0,1,2.625.656,4.438,4.438,0,0,1,1.762,1.867,6.078,6.078,0,0,1,.629,2.781v.727a6.1,6.1,0,0,1-.621,2.82,4.369,4.369,0,0,1-1.773,1.859A5.5,5.5,0,0,1,4.469,66Zm1.5-10.148v8.922H4.4a3.434,3.434,0,0,0,2.7-1.079,4.458,4.458,0,0,0,.965-3.073v-.665a4.529,4.529,0,0,0-.91-3.014A3.239,3.239,0,0,0,4.57,55.852ZM13.156,66H11.711V57.547h1.445ZM11.594,55.3a.863.863,0,0,1,.215-.594.807.807,0,0,1,.637-.242.819.819,0,0,1,.641.242.854.854,0,0,1,.219.594.856.856,0,1,1-1.712,0Zm8.8,8.453a1.064,1.064,0,0,0-.441-.91,4.249,4.249,0,0,0-1.539-.559,7.277,7.277,0,0,1-1.742-.562,2.479,2.479,0,0,1-.953-.781,1.869,1.869,0,0,1-.309-1.078,2.193,2.193,0,0,1,.879-1.758,3.432,3.432,0,0,1,2.246-.719,3.532,3.532,0,0,1,2.332.742,2.357,2.357,0,0,1,.9,1.9H20.3A1.3,1.3,0,0,0,19.8,59a1.888,1.888,0,0,0-1.27-.43,1.976,1.976,0,0,0-1.234.344,1.082,1.082,0,0,0-.445.9.877.877,0,0,0,.414.789,5.1,5.1,0,0,0,1.5.508,7.8,7.8,0,0,1,1.754.578,2.558,2.558,0,0,1,1,.809,1.988,1.988,0,0,1,.324,1.152,2.163,2.163,0,0,1-.906,1.816,3.8,3.8,0,0,1-2.352.684,4.257,4.257,0,0,1-1.8-.359,2.922,2.922,0,0,1-1.223-1,2.42,2.42,0,0,1-.441-1.4h1.445a1.5,1.5,0,0,0,.582,1.152,2.258,2.258,0,0,0,1.434.426,2.331,2.331,0,0,0,1.316-.332,1.02,1.02,0,0,0,.493-.889Zm10.469-1.891a5.062,5.062,0,0,1-.883,3.109,2.829,2.829,0,0,1-2.391,1.18,3.1,3.1,0,0,1-2.422-.977v4.07H23.719v-11.7h1.32l.07.938a2.977,2.977,0,0,1,2.453-1.094,2.882,2.882,0,0,1,2.41,1.148,5.117,5.117,0,0,1,.887,3.2ZM29.414,61.7a3.735,3.735,0,0,0-.609-2.258,1.963,1.963,0,0,0-1.672-.828,2.125,2.125,0,0,0-1.969,1.164V63.82a2.129,2.129,0,0,0,1.984,1.156,1.954,1.954,0,0,0,1.652-.824A4.077,4.077,0,0,0,29.414,61.7Zm2.9-.008a4.993,4.993,0,0,1,.488-2.234A3.643,3.643,0,0,1,34.16,57.93a3.7,3.7,0,0,1,1.988-.539,3.565,3.565,0,0,1,2.793,1.2,4.6,4.6,0,0,1,1.066,3.18v.1a5.036,5.036,0,0,1-.473,2.215,3.589,3.589,0,0,1-1.352,1.527,3.743,3.743,0,0,1-2.02.547,3.556,3.556,0,0,1-2.785-1.2,4.575,4.575,0,0,1-1.064-3.16Zm1.453.172a3.616,3.616,0,0,0,.652,2.258,2.211,2.211,0,0,0,3.5-.012,3.955,3.955,0,0,0,.648-2.418,3.61,3.61,0,0,0-.66-2.254,2.1,2.1,0,0,0-1.754-.863,2.075,2.075,0,0,0-1.727.852,3.925,3.925,0,0,0-.66,2.44Zm12.977,1.891a1.064,1.064,0,0,0-.441-.91,4.249,4.249,0,0,0-1.539-.559,7.277,7.277,0,0,1-1.742-.562,2.479,2.479,0,0,1-.953-.781,1.869,1.869,0,0,1-.309-1.078,2.193,2.193,0,0,1,.879-1.758,3.432,3.432,0,0,1,2.246-.719,3.532,3.532,0,0,1,2.332.742,2.357,2.357,0,0,1,.895,1.9H46.656a1.3,1.3,0,0,0-.5-1.023,1.888,1.888,0,0,0-1.27-.43,1.976,1.976,0,0,0-1.234.344,1.082,1.082,0,0,0-.445.9.877.877,0,0,0,.414.789,5.1,5.1,0,0,0,1.5.508,7.8,7.8,0,0,1,1.754.578,2.558,2.558,0,0,1,1,.809,1.988,1.988,0,0,1,.324,1.152,2.163,2.163,0,0,1-.906,1.816,3.8,3.8,0,0,1-2.352.684,4.257,4.257,0,0,1-1.8-.359,2.922,2.922,0,0,1-1.223-1,2.42,2.42,0,0,1-.441-1.4h1.445a1.5,1.5,0,0,0,.582,1.152,2.258,2.258,0,0,0,1.434.426,2.331,2.331,0,0,0,1.316-.332,1.02,1.02,0,0,0,.488-.891ZM51.641,66H50.2V57.547h1.445ZM50.078,55.3a.863.863,0,0,1,.215-.594.807.807,0,0,1,.637-.242.819.819,0,0,1,.641.242.854.854,0,0,1,.219.594.856.856,0,1,1-1.712,0Zm5.836.2v2.047h1.578v1.117H55.914v5.249a1.173,1.173,0,0,0,.211.763.888.888,0,0,0,.719.254,3.5,3.5,0,0,0,.688-.094V66a4.215,4.215,0,0,1-1.109.155,1.8,1.8,0,0,1-1.461-.586A2.517,2.517,0,0,1,54.47,63.9V58.664H52.93V57.547h1.539V55.5ZM60.75,66H59.3V57.547h1.45ZM59.188,55.3a.863.863,0,0,1,.215-.594.807.807,0,0,1,.637-.242.819.819,0,0,1,.641.242.854.854,0,0,1,.219.594.856.856,0,1,1-1.712,0Zm6.664,8.734,2.094-6.492h1.477L66.391,66h-1.1l-3.062-8.453H63.7ZM70.313,61.7a4.993,4.993,0,0,1,.488-2.234A3.643,3.643,0,0,1,72.16,57.93a3.7,3.7,0,0,1,1.988-.539,3.565,3.565,0,0,1,2.793,1.2,4.6,4.6,0,0,1,1.066,3.18v.1a5.036,5.036,0,0,1-.473,2.215,3.589,3.589,0,0,1-1.352,1.527,3.743,3.743,0,0,1-2.02.547,3.556,3.556,0,0,1-2.785-1.2,4.575,4.575,0,0,1-1.064-3.16Zm1.453.172a3.616,3.616,0,0,0,.652,2.258,2.211,2.211,0,0,0,3.5-.012,3.955,3.955,0,0,0,.648-2.418,3.61,3.61,0,0,0-.66-2.254,2.1,2.1,0,0,0-1.754-.863,2.075,2.075,0,0,0-1.727.852,3.925,3.925,0,0,0-.659,2.432Zm12.977,1.891a1.064,1.064,0,0,0-.441-.91,4.249,4.249,0,0,0-1.539-.559,7.277,7.277,0,0,1-1.742-.562,2.479,2.479,0,0,1-.953-.781,1.869,1.869,0,0,1-.309-1.078,2.193,2.193,0,0,1,.879-1.758,3.432,3.432,0,0,1,2.246-.719,3.532,3.532,0,0,1,2.332.742,2.357,2.357,0,0,1,.895,1.9H84.656a1.3,1.3,0,0,0-.5-1.023,1.888,1.888,0,0,0-1.27-.43,1.976,1.976,0,0,0-1.234.344,1.082,1.082,0,0,0-.445.9.877.877,0,0,0,.414.789,5.1,5.1,0,0,0,1.5.508,7.8,7.8,0,0,1,1.754.578,2.558,2.558,0,0,1,1,.809,1.988,1.988,0,0,1,.324,1.152,2.163,2.163,0,0,1-.906,1.816,3.8,3.8,0,0,1-2.352.684,4.257,4.257,0,0,1-1.8-.359,2.922,2.922,0,0,1-1.223-1,2.42,2.42,0,0,1-.441-1.4h1.445a1.5,1.5,0,0,0,.582,1.152,2.258,2.258,0,0,0,1.434.426,2.331,2.331,0,0,0,1.316-.332,1.02,1.02,0,0,0,.488-.9Z" transform="translate(-2888 1579)" fill="#12263f"/>
      <g id="Grupo_87376" data-name="Grupo 87376" transform="translate(-3257 -4726.803)">
        <path id="Trazado_113557" data-name="Trazado 113557" d="M-21088-7107.893l4.682,4.683-4.682,4.683" transform="translate(21438.998 13402.238)" fill="none" stroke="#583ae2" stroke-width="2"/>
        <path id="Trazado_115047" data-name="Trazado 115047" d="M-21088-7107.893l4.682,4.683-4.682,4.683" transform="translate(21438.998 13424.421)" fill="none" stroke="#583ae2" stroke-width="2"/>
        <path id="Trazado_130714" data-name="Trazado 130714" d="M-21088-7107.893l4.682,4.683-4.682,4.683" transform="translate(21438.998 13468.788)" fill="none" stroke="#583ae2" stroke-width="2"/>
        <path id="Trazado_133967" data-name="Trazado 133967" d="M-21088-7107.893l4.682,4.683-4.682,4.683" transform="translate(21438.998 13446.605)" fill="none" stroke="#583ae2" stroke-width="2"/>
      </g>
      <path id="Trazado_134922" data-name="Trazado 134922" d="M7.75-5.258H2.82v4.031H8.547V0H1.32V-11.375H8.469v1.227H2.82v3.664H7.75Zm7.359,3.016a1.064,1.064,0,0,0-.441-.91,4.249,4.249,0,0,0-1.539-.559,7.277,7.277,0,0,1-1.742-.562,2.479,2.479,0,0,1-.953-.781,1.869,1.869,0,0,1-.309-1.078A2.193,2.193,0,0,1,11-7.891a3.432,3.432,0,0,1,2.246-.719,3.532,3.532,0,0,1,2.332.742,2.357,2.357,0,0,1,.895,1.9h-1.45a1.3,1.3,0,0,0-.5-1.023,1.888,1.888,0,0,0-1.27-.43,1.976,1.976,0,0,0-1.234.344,1.082,1.082,0,0,0-.445.9.877.877,0,0,0,.414.789,5.1,5.1,0,0,0,1.5.508,7.8,7.8,0,0,1,1.754.578,2.558,2.558,0,0,1,1,.809,1.988,1.988,0,0,1,.324,1.152A2.163,2.163,0,0,1,15.66-.525,3.8,3.8,0,0,1,13.3.156,4.257,4.257,0,0,1,11.5-.2a2.922,2.922,0,0,1-1.223-1,2.42,2.42,0,0,1-.441-1.4h1.445a1.5,1.5,0,0,0,.582,1.152,2.258,2.258,0,0,0,1.434.426,2.331,2.331,0,0,0,1.316-.332,1.02,1.02,0,0,0,.5-.888Zm6.719,1.219a2.082,2.082,0,0,0,1.352-.469,1.649,1.649,0,0,0,.641-1.172h1.367a2.621,2.621,0,0,1-.5,1.383,3.293,3.293,0,0,1-1.23,1.047,3.55,3.55,0,0,1-1.629.391A3.482,3.482,0,0,1,19.082-1a4.59,4.59,0,0,1-1.02-3.152v-.242a5.089,5.089,0,0,1,.453-2.2,3.451,3.451,0,0,1,1.3-1.492,3.7,3.7,0,0,1,2-.531,3.39,3.39,0,0,1,2.363.852,3.043,3.043,0,0,1,1,2.211H23.82a1.992,1.992,0,0,0-.62-1.341,1.932,1.932,0,0,0-1.379-.527,2.023,2.023,0,0,0-1.707.793,3.724,3.724,0,0,0-.6,2.293v.273a3.65,3.65,0,0,0,.6,2.25,2.033,2.033,0,0,0,1.719.79ZM32.031,0a3.036,3.036,0,0,1-.2-.891A3.225,3.225,0,0,1,29.422.156a2.984,2.984,0,0,1-2.051-.707,2.287,2.287,0,0,1-.8-1.793,2.39,2.39,0,0,1,1-2.051,4.733,4.733,0,0,1,2.824-.73h1.4v-.664A1.623,1.623,0,0,0,31.352-7a1.821,1.821,0,0,0-1.336-.449,2.108,2.108,0,0,0-1.3.391,1.151,1.151,0,0,0-.523.945H26.742a2,2,0,0,1,.449-1.223A3.066,3.066,0,0,1,28.41-8.27a4.1,4.1,0,0,1,1.69-.339,3.342,3.342,0,0,1,2.289.73,2.635,2.635,0,0,1,.859,2.012v3.891a4.757,4.757,0,0,0,.3,1.852V0Zm-2.4-1.1a2.54,2.54,0,0,0,1.289-.352,2.127,2.127,0,0,0,.883-.914V-4.1H30.672q-2.656,0-2.656,1.555a1.316,1.316,0,0,0,.453,1.063,1.742,1.742,0,0,0,1.164.382Zm7.25-7.352.047,1.063a3.08,3.08,0,0,1,2.531-1.219q2.68,0,2.7,3.023V0h-1.44V-5.594A1.946,1.946,0,0,0,40.3-6.945a1.675,1.675,0,0,0-1.277-.437,2.086,2.086,0,0,0-1.234.375,2.546,2.546,0,0,0-.828.984V0H35.516V-8.453ZM47.852.156a3.693,3.693,0,0,1-2.8-1.129,4.19,4.19,0,0,1-1.078-3.02v-.266a5.073,5.073,0,0,1,.48-2.246A3.748,3.748,0,0,1,45.8-8.051a3.378,3.378,0,0,1,1.871-.559,3.166,3.166,0,0,1,2.563,1.086,4.7,4.7,0,0,1,.914,3.109v.6H45.422a3,3,0,0,0,.73,2.02,2.3,2.3,0,0,0,1.777.77,2.517,2.517,0,0,0,1.3-.312,3.259,3.259,0,0,0,.93-.828l.883.688A3.55,3.55,0,0,1,47.852.156Zm-.18-7.578a1.928,1.928,0,0,0-1.469.637A3.1,3.1,0,0,0,45.469-5H49.7v-.109a2.753,2.753,0,0,0-.594-1.707,1.815,1.815,0,0,0-1.434-.606Zm9.234.266a4.331,4.331,0,0,0-.711-.055A1.9,1.9,0,0,0,54.266-6V0H52.82V-8.453h1.406l.023.977a2.251,2.251,0,0,1,2.016-1.133,1.477,1.477,0,0,1,.641.109Zm8.078,5.2,2.094-6.492h1.477L65.523,0h-1.1L61.359-8.453h1.477Zm10.18,1.12a3.07,3.07,0,0,1-2.477.992,2.628,2.628,0,0,1-2.059-.785,3.4,3.4,0,0,1-.715-2.324v-5.5h1.445v5.461q0,1.922,1.563,1.922a2.163,2.163,0,0,0,2.2-1.234V-8.453H76.57V0H75.2ZM80.336,0H78.891V-12h1.445Zm3.68-8.453.047,1.063a3.08,3.08,0,0,1,2.531-1.219q2.68,0,2.7,3.023V0H87.852V-5.594a1.946,1.946,0,0,0-.418-1.352,1.675,1.675,0,0,0-1.277-.437,2.086,2.086,0,0,0-1.234.375,2.546,2.546,0,0,0-.828.984V0H82.648V-8.453ZM94.984.156a3.693,3.693,0,0,1-2.8-1.129,4.19,4.19,0,0,1-1.078-3.02v-.266A5.073,5.073,0,0,1,91.59-6.5a3.748,3.748,0,0,1,1.344-1.547A3.378,3.378,0,0,1,94.8-8.609a3.166,3.166,0,0,1,2.563,1.086,4.7,4.7,0,0,1,.914,3.109v.6H92.555a3,3,0,0,0,.73,2.02,2.3,2.3,0,0,0,1.777.77,2.517,2.517,0,0,0,1.3-.312,3.259,3.259,0,0,0,.93-.828l.883.688A3.55,3.55,0,0,1,94.984.156ZM94.8-7.422a1.928,1.928,0,0,0-1.469.637A3.1,3.1,0,0,0,92.6-5h4.234v-.109a2.753,2.753,0,0,0-.594-1.707,1.815,1.815,0,0,0-1.44-.606Zm9.234.266a4.331,4.331,0,0,0-.711-.055A1.9,1.9,0,0,0,101.4-6V0H99.953V-8.453h1.406l.023.977A2.251,2.251,0,0,1,103.4-8.609a1.477,1.477,0,0,1,.641.109ZM110.273,0a3.035,3.035,0,0,1-.2-.891A3.225,3.225,0,0,1,107.664.156a2.984,2.984,0,0,1-2.051-.707,2.288,2.288,0,0,1-.8-1.793,2.39,2.39,0,0,1,1-2.051,4.733,4.733,0,0,1,2.824-.73h1.406v-.664A1.623,1.623,0,0,0,109.594-7a1.821,1.821,0,0,0-1.336-.449,2.108,2.108,0,0,0-1.3.391,1.151,1.151,0,0,0-.523.945h-1.453a2,2,0,0,1,.449-1.223,3.066,3.066,0,0,1,1.219-.934,4.1,4.1,0,0,1,1.691-.344,3.342,3.342,0,0,1,2.289.73,2.635,2.635,0,0,1,.859,2.012v3.891a4.757,4.757,0,0,0,.3,1.852V0Zm-2.4-1.1a2.54,2.54,0,0,0,1.289-.352,2.127,2.127,0,0,0,.883-.914V-4.1h-1.133q-2.656,0-2.656,1.555a1.316,1.316,0,0,0,.453,1.063,1.742,1.742,0,0,0,1.166.382Zm13.039-3.031a5.026,5.026,0,0,1-.891,3.113A2.846,2.846,0,0,1,117.633.156a2.947,2.947,0,0,1-2.477-1.133l-.07.977h-1.328V-12H115.2v4.477a2.93,2.93,0,0,1,2.414-1.086,2.863,2.863,0,0,1,2.418,1.164,5.177,5.177,0,0,1,.879,3.188ZM119.469-4.3a3.906,3.906,0,0,0-.57-2.281,1.888,1.888,0,0,0-1.641-.8A2.122,2.122,0,0,0,115.2-6.055V-2.4a2.181,2.181,0,0,0,2.07,1.328,1.878,1.878,0,0,0,1.617-.8,4.153,4.153,0,0,0,.582-2.428ZM124.3,0h-1.445V-8.453H124.3Zm-1.562-10.7a.863.863,0,0,1,.215-.594.807.807,0,0,1,.637-.242.819.819,0,0,1,.641.242.854.854,0,0,1,.219.594.826.826,0,0,1-.219.586.834.834,0,0,1-.641.234.821.821,0,0,1-.637-.234.834.834,0,0,1-.211-.586ZM128.188,0h-1.445V-12h1.445Zm3.883,0h-1.445V-8.453h1.445Zm-1.562-10.7a.863.863,0,0,1,.215-.594.807.807,0,0,1,.637-.242.819.819,0,0,1,.641.242.854.854,0,0,1,.219.594.826.826,0,0,1-.219.586.834.834,0,0,1-.641.234.821.821,0,0,1-.637-.234.834.834,0,0,1-.216-.586Zm3.523,6.4a4.952,4.952,0,0,1,.922-3.129,2.915,2.915,0,0,1,2.414-1.184A2.932,2.932,0,0,1,139.72-7.6V-12h1.445V0h-1.328l-.07-.906A2.943,2.943,0,0,1,137.352.156a2.887,2.887,0,0,1-2.4-1.2,5.008,5.008,0,0,1-.926-3.141Zm1.445.164a3.749,3.749,0,0,0,.594,2.25,1.919,1.919,0,0,0,1.641.813A2.108,2.108,0,0,0,139.719-2.3V-6.187a2.125,2.125,0,0,0-1.992-1.2,1.929,1.929,0,0,0-1.656.82,4.128,4.128,0,0,0-.594,2.434ZM148.625,0a3.035,3.035,0,0,1-.2-.891A3.225,3.225,0,0,1,146.016.156a2.984,2.984,0,0,1-2.051-.707,2.287,2.287,0,0,1-.8-1.793,2.39,2.39,0,0,1,1-2.051,4.733,4.733,0,0,1,2.824-.73H148.4v-.664A1.623,1.623,0,0,0,147.945-7a1.821,1.821,0,0,0-1.336-.449,2.107,2.107,0,0,0-1.3.391,1.151,1.151,0,0,0-.523.945h-1.453a2,2,0,0,1,.449-1.223A3.066,3.066,0,0,1,145-8.266a4.1,4.1,0,0,1,1.691-.344,3.342,3.342,0,0,1,2.289.73,2.635,2.635,0,0,1,.859,2.012v3.891a4.757,4.757,0,0,0,.3,1.852V0Zm-2.4-1.1a2.54,2.54,0,0,0,1.289-.352,2.127,2.127,0,0,0,.883-.914V-4.1h-1.133q-2.656,0-2.656,1.555a1.316,1.316,0,0,0,.453,1.063,1.742,1.742,0,0,0,1.166.382Zm5.531-3.2a4.952,4.952,0,0,1,.922-3.129,2.915,2.915,0,0,1,2.414-1.184A2.932,2.932,0,0,1,157.444-7.6V-12h1.445V0h-1.328l-.07-.906A2.943,2.943,0,0,1,155.078.156a2.887,2.887,0,0,1-2.4-1.2,5.008,5.008,0,0,1-.926-3.141Zm1.445.164a3.749,3.749,0,0,0,.594,2.25,1.919,1.919,0,0,0,1.641.813A2.108,2.108,0,0,0,157.445-2.3V-6.187a2.125,2.125,0,0,0-1.992-1.2,1.929,1.929,0,0,0-1.656.82,4.128,4.128,0,0,0-.6,2.434ZM164.641.156a3.693,3.693,0,0,1-2.8-1.129,4.19,4.19,0,0,1-1.078-3.02v-.266a5.073,5.073,0,0,1,.48-2.246,3.748,3.748,0,0,1,1.344-1.547,3.378,3.378,0,0,1,1.871-.559,3.166,3.166,0,0,1,2.563,1.086,4.7,4.7,0,0,1,.914,3.109v.6h-5.727a3,3,0,0,0,.73,2.02,2.3,2.3,0,0,0,1.777.77,2.517,2.517,0,0,0,1.3-.312,3.258,3.258,0,0,0,.93-.828l.883.688A3.55,3.55,0,0,1,164.641.156Zm-.18-7.578a1.928,1.928,0,0,0-1.469.637A3.1,3.1,0,0,0,162.258-5h4.234v-.109a2.753,2.753,0,0,0-.594-1.707,1.815,1.815,0,0,0-1.437-.606Zm10.07,5.18a1.064,1.064,0,0,0-.441-.91,4.249,4.249,0,0,0-1.539-.559,7.277,7.277,0,0,1-1.742-.562,2.479,2.479,0,0,1-.953-.781,1.869,1.869,0,0,1-.309-1.078,2.193,2.193,0,0,1,.879-1.758,3.432,3.432,0,0,1,2.246-.719A3.532,3.532,0,0,1,175-7.867a2.357,2.357,0,0,1,.895,1.9h-1.453a1.3,1.3,0,0,0-.5-1.023,1.888,1.888,0,0,0-1.27-.43,1.976,1.976,0,0,0-1.234.344,1.082,1.082,0,0,0-.445.9.877.877,0,0,0,.414.789,5.1,5.1,0,0,0,1.5.508,7.8,7.8,0,0,1,1.754.578,2.558,2.558,0,0,1,1,.809,1.988,1.988,0,0,1,.324,1.152,2.163,2.163,0,0,1-.906,1.816,3.8,3.8,0,0,1-2.352.684,4.257,4.257,0,0,1-1.8-.359,2.922,2.922,0,0,1-1.223-1,2.42,2.42,0,0,1-.441-1.4H170.7a1.5,1.5,0,0,0,.582,1.152,2.258,2.258,0,0,0,1.434.426,2.331,2.331,0,0,0,1.316-.332,1.02,1.02,0,0,0,.5-.894ZM2.93,22H1.43V10.625h1.5Zm3.883-8.453L6.86,14.61a3.08,3.08,0,0,1,2.531-1.219q2.68,0,2.7,3.023V22H10.648V16.406a1.946,1.946,0,0,0-.418-1.352,1.675,1.675,0,0,0-1.277-.437,2.086,2.086,0,0,0-1.234.375,2.546,2.546,0,0,0-.828.984V22H5.445V13.547ZM14.984,22V14.664H13.648V13.547h1.336V12.68a2.878,2.878,0,0,1,.727-2.1,2.745,2.745,0,0,1,2.055-.742,3.816,3.816,0,0,1,.992.132l-.078,1.165a4.151,4.151,0,0,0-.781-.07,1.41,1.41,0,0,0-1.086.411,1.669,1.669,0,0,0-.383,1.18v.893h1.8v1.117h-1.8V22Zm4.461-4.3a4.993,4.993,0,0,1,.488-2.234,3.643,3.643,0,0,1,1.359-1.531A3.7,3.7,0,0,1,23.28,13.4a3.565,3.565,0,0,1,2.793,1.2,4.6,4.6,0,0,1,1.066,3.18v.1a5.036,5.036,0,0,1-.473,2.215,3.589,3.589,0,0,1-1.352,1.527,3.743,3.743,0,0,1-2.02.547,3.556,3.556,0,0,1-2.785-1.2A4.575,4.575,0,0,1,19.445,17.8Zm1.453.172a3.616,3.616,0,0,0,.652,2.258,2.211,2.211,0,0,0,3.5-.012A3.955,3.955,0,0,0,25.7,17.7a3.61,3.61,0,0,0-.66-2.254,2.1,2.1,0,0,0-1.754-.863,2.075,2.075,0,0,0-1.727.852,3.925,3.925,0,0,0-.659,2.432Zm12.141-3.023a4.331,4.331,0,0,0-.711-.055A1.9,1.9,0,0,0,30.4,16v6H28.953V13.547h1.406l.023.977A2.251,2.251,0,0,1,32.4,13.391a1.477,1.477,0,0,1,.641.109Zm2.688-1.3.039.938a3.122,3.122,0,0,1,2.508-1.094,2.417,2.417,0,0,1,2.414,1.359,3.2,3.2,0,0,1,1.1-.984,3.242,3.242,0,0,1,1.6-.375q2.781,0,2.828,2.945V22h-1.45V16.422a1.941,1.941,0,0,0-.414-1.355,1.823,1.823,0,0,0-1.391-.449,1.917,1.917,0,0,0-1.336.48,1.949,1.949,0,0,0-.617,1.293V22H39.555V16.461a1.613,1.613,0,0,0-1.8-1.844A1.934,1.934,0,0,0,35.8,15.828V22H34.359V13.547ZM53.609,22a3.036,3.036,0,0,1-.2-.891A3.225,3.225,0,0,1,51,22.156a2.984,2.984,0,0,1-2.051-.707,2.287,2.287,0,0,1-.8-1.793,2.39,2.39,0,0,1,1-2.051,4.733,4.733,0,0,1,2.824-.73h1.406v-.664A1.623,1.623,0,0,0,52.93,15a1.821,1.821,0,0,0-1.336-.449,2.107,2.107,0,0,0-1.3.391,1.151,1.151,0,0,0-.523.945H48.32a2,2,0,0,1,.449-1.223,3.066,3.066,0,0,1,1.219-.934,4.1,4.1,0,0,1,1.691-.344,3.342,3.342,0,0,1,2.289.73,2.635,2.635,0,0,1,.859,2.012v3.891a4.757,4.757,0,0,0,.3,1.852V22Zm-2.4-1.1a2.54,2.54,0,0,0,1.289-.352,2.127,2.127,0,0,0,.883-.914V17.9H52.25q-2.656,0-2.656,1.555a1.316,1.316,0,0,0,.453,1.063,1.742,1.742,0,0,0,1.164.382Zm9.273.078a2.082,2.082,0,0,0,1.352-.469,1.649,1.649,0,0,0,.641-1.172h1.367a2.621,2.621,0,0,1-.5,1.383,3.293,3.293,0,0,1-1.23,1.047,3.55,3.55,0,0,1-1.629.391A3.482,3.482,0,0,1,57.738,21a4.59,4.59,0,0,1-1.02-3.152v-.242a5.089,5.089,0,0,1,.453-2.2,3.451,3.451,0,0,1,1.3-1.492,3.7,3.7,0,0,1,2-.531,3.39,3.39,0,0,1,2.363.852,3.043,3.043,0,0,1,1,2.211H62.477a1.992,1.992,0,0,0-.621-1.348,1.932,1.932,0,0,0-1.379-.527,2.023,2.023,0,0,0-1.707.793,3.724,3.724,0,0,0-.6,2.293v.273a3.65,3.65,0,0,0,.6,2.25,2.033,2.033,0,0,0,1.719.8ZM67.039,22H65.594V13.547h1.445ZM65.477,11.3a.863.863,0,0,1,.215-.594.807.807,0,0,1,.637-.242.819.819,0,0,1,.641.242.854.854,0,0,1,.219.594.856.856,0,1,1-1.712,0Zm3.492,6.4a4.993,4.993,0,0,1,.488-2.234,3.643,3.643,0,0,1,1.359-1.531A3.7,3.7,0,0,1,72.8,13.4,3.565,3.565,0,0,1,75.6,14.6a4.6,4.6,0,0,1,1.066,3.18v.1a5.036,5.036,0,0,1-.473,2.215,3.589,3.589,0,0,1-1.352,1.527,3.743,3.743,0,0,1-2.02.547,3.556,3.556,0,0,1-2.785-1.2A4.575,4.575,0,0,1,68.969,17.8Zm1.453.172a3.616,3.616,0,0,0,.652,2.258,2.211,2.211,0,0,0,3.5-.012,3.955,3.955,0,0,0,.648-2.418,3.61,3.61,0,0,0-.66-2.254,2.1,2.1,0,0,0-1.754-.863,2.075,2.075,0,0,0-1.727.852,3.925,3.925,0,0,0-.659,2.432Zm3.039-7.852h1.75l-2.094,2.3H71.953Zm6.383,3.531.047,1.063A3.08,3.08,0,0,1,82.422,13.4q2.68,0,2.7,3.023V22H83.68V16.406a1.946,1.946,0,0,0-.418-1.352,1.675,1.675,0,0,0-1.277-.437,2.086,2.086,0,0,0-1.234.375,2.546,2.546,0,0,0-.828.984V22H78.477V13.547ZM90.914,17.7a4.952,4.952,0,0,1,.922-3.129A3.137,3.137,0,0,1,96.6,14.4V10h1.445V22H96.719l-.07-.906a2.943,2.943,0,0,1-2.414,1.063,2.887,2.887,0,0,1-2.395-1.2,5.008,5.008,0,0,1-.926-3.141Zm1.445.164a3.749,3.749,0,0,0,.594,2.25,1.92,1.92,0,0,0,1.641.813A2.109,2.109,0,0,0,96.6,19.7V15.813a2.125,2.125,0,0,0-1.992-1.2,1.929,1.929,0,0,0-1.656.82,4.128,4.128,0,0,0-.593,2.434ZM103.8,22.156a3.693,3.693,0,0,1-2.8-1.129,4.19,4.19,0,0,1-1.078-3.02v-.266a5.073,5.073,0,0,1,.48-2.246,3.748,3.748,0,0,1,1.344-1.547,3.378,3.378,0,0,1,1.871-.559,3.166,3.166,0,0,1,2.563,1.086,4.7,4.7,0,0,1,.914,3.109v.6h-5.727a3,3,0,0,0,.73,2.02,2.3,2.3,0,0,0,1.777.77,2.517,2.517,0,0,0,1.3-.312,3.259,3.259,0,0,0,.93-.828l.883.688a3.55,3.55,0,0,1-3.187,1.634Zm-.18-7.578a1.928,1.928,0,0,0-1.469.637A3.1,3.1,0,0,0,101.414,17h4.234v-.109a2.753,2.753,0,0,0-.594-1.707,1.815,1.815,0,0,0-1.437-.606Zm14.328,6.586a3.07,3.07,0,0,1-2.477.992,2.628,2.628,0,0,1-2.059-.785,3.4,3.4,0,0,1-.715-2.324v-5.5h1.445v5.461q0,1.922,1.563,1.922a2.163,2.163,0,0,0,2.2-1.234V13.547h1.445V22h-1.375Zm8.523-1.406a1.064,1.064,0,0,0-.441-.91,4.249,4.249,0,0,0-1.539-.559,7.277,7.277,0,0,1-1.742-.562,2.478,2.478,0,0,1-.953-.781,1.869,1.869,0,0,1-.309-1.078,2.193,2.193,0,0,1,.879-1.758,3.432,3.432,0,0,1,2.246-.719,3.532,3.532,0,0,1,2.332.742,2.357,2.357,0,0,1,.895,1.9h-1.453a1.3,1.3,0,0,0-.5-1.023,1.888,1.888,0,0,0-1.27-.43,1.976,1.976,0,0,0-1.234.344,1.082,1.082,0,0,0-.445.9.877.877,0,0,0,.414.789,5.1,5.1,0,0,0,1.5.508,7.8,7.8,0,0,1,1.754.578,2.558,2.558,0,0,1,1,.809,1.988,1.988,0,0,1,.324,1.152,2.163,2.163,0,0,1-.906,1.816,3.8,3.8,0,0,1-2.352.684,4.257,4.257,0,0,1-1.8-.359,2.922,2.922,0,0,1-1.223-1,2.42,2.42,0,0,1-.448-1.4h1.445a1.5,1.5,0,0,0,.582,1.152,2.258,2.258,0,0,0,1.434.426,2.331,2.331,0,0,0,1.316-.332,1.02,1.02,0,0,0,.492-.888Zm8.547,1.406a3.07,3.07,0,0,1-2.477.992,2.628,2.628,0,0,1-2.059-.785,3.4,3.4,0,0,1-.715-2.324v-5.5h1.445v5.461q0,1.922,1.563,1.922a2.163,2.163,0,0,0,2.2-1.234V13.547h1.445V22h-1.375Zm8.82.836a3.036,3.036,0,0,1-.2-.891,3.225,3.225,0,0,1-2.406,1.047,2.984,2.984,0,0,1-2.051-.707,2.287,2.287,0,0,1-.8-1.793,2.39,2.39,0,0,1,1-2.051,4.733,4.733,0,0,1,2.824-.73h1.406v-.664A1.623,1.623,0,0,0,143.156,15a1.821,1.821,0,0,0-1.336-.449,2.107,2.107,0,0,0-1.3.391,1.151,1.151,0,0,0-.523.945h-1.453A2,2,0,0,1,139,14.668a3.066,3.066,0,0,1,1.219-.934,4.1,4.1,0,0,1,1.691-.344,3.342,3.342,0,0,1,2.289.73,2.635,2.635,0,0,1,.859,2.012v3.891a4.757,4.757,0,0,0,.3,1.852V22Zm-2.4-1.1a2.54,2.54,0,0,0,1.289-.352,2.127,2.127,0,0,0,.883-.914V17.9h-1.133q-2.656,0-2.656,1.555a1.316,1.316,0,0,0,.453,1.063,1.742,1.742,0,0,0,1.164.382Zm9.969-6.055a4.331,4.331,0,0,0-.711-.055,1.9,1.9,0,0,0-1.93,1.21v6H147.32V13.547h1.406l.023.977a2.251,2.251,0,0,1,2.016-1.133,1.477,1.477,0,0,1,.641.109ZM154.3,22h-1.445V13.547H154.3Zm-1.562-10.7a.863.863,0,0,1,.215-.594.807.807,0,0,1,.637-.242.819.819,0,0,1,.641.242.854.854,0,0,1,.219.594.854.854,0,1,1-1.708,0Zm3.492,6.391a4.993,4.993,0,0,1,.488-2.234,3.642,3.642,0,0,1,1.359-1.531,3.7,3.7,0,0,1,1.988-.539,3.565,3.565,0,0,1,2.793,1.2,4.6,4.6,0,0,1,1.066,3.18v.1a5.036,5.036,0,0,1-.473,2.215,3.589,3.589,0,0,1-1.352,1.527,3.743,3.743,0,0,1-2.02.547,3.556,3.556,0,0,1-2.785-1.2,4.575,4.575,0,0,1-1.066-3.164Zm1.453.172a3.616,3.616,0,0,0,.652,2.258,2.211,2.211,0,0,0,3.5-.012,3.954,3.954,0,0,0,.648-2.418,3.61,3.61,0,0,0-.66-2.254,2.1,2.1,0,0,0-1.754-.863,2.075,2.075,0,0,0-1.727.852,3.925,3.925,0,0,0-.654,2.441Zm12.977,1.891a1.064,1.064,0,0,0-.441-.91,4.249,4.249,0,0,0-1.539-.559,7.277,7.277,0,0,1-1.742-.562,2.479,2.479,0,0,1-.953-.781,1.869,1.869,0,0,1-.309-1.078,2.193,2.193,0,0,1,.879-1.758,3.432,3.432,0,0,1,2.246-.719,3.532,3.532,0,0,1,2.332.742,2.357,2.357,0,0,1,.9,1.9h-1.453a1.3,1.3,0,0,0-.5-1.023,1.888,1.888,0,0,0-1.27-.43,1.976,1.976,0,0,0-1.234.344,1.082,1.082,0,0,0-.445.9.877.877,0,0,0,.414.789,5.1,5.1,0,0,0,1.5.508,7.8,7.8,0,0,1,1.754.578,2.558,2.558,0,0,1,1,.809,1.988,1.988,0,0,1,.324,1.152,2.163,2.163,0,0,1-.906,1.816,3.8,3.8,0,0,1-2.352.684,4.257,4.257,0,0,1-1.8-.359,2.922,2.922,0,0,1-1.223-1A2.42,2.42,0,0,1,165.4,19.4h1.445a1.5,1.5,0,0,0,.582,1.152,2.258,2.258,0,0,0,1.434.426,2.331,2.331,0,0,0,1.316-.332,1.02,1.02,0,0,0,.491-.89ZM2.93,44H1.43V32.625h1.5Zm3.883-8.453L6.86,36.61a3.08,3.08,0,0,1,2.531-1.219q2.68,0,2.7,3.023V44H10.648V38.406a1.946,1.946,0,0,0-.418-1.352,1.675,1.675,0,0,0-1.277-.437,2.086,2.086,0,0,0-1.234.375,2.546,2.546,0,0,0-.828.984V44H5.445V35.547ZM14.984,44V36.664H13.648V35.547h1.336V34.68a2.878,2.878,0,0,1,.727-2.1,2.745,2.745,0,0,1,2.055-.742,3.816,3.816,0,0,1,.992.132l-.078,1.165a4.151,4.151,0,0,0-.781-.07,1.41,1.41,0,0,0-1.086.411,1.669,1.669,0,0,0-.383,1.18v.893h1.8v1.117h-1.8V44Zm4.461-4.3a4.993,4.993,0,0,1,.488-2.234,3.643,3.643,0,0,1,1.359-1.531A3.7,3.7,0,0,1,23.28,35.4a3.565,3.565,0,0,1,2.793,1.2,4.6,4.6,0,0,1,1.066,3.18v.1a5.036,5.036,0,0,1-.473,2.215,3.589,3.589,0,0,1-1.352,1.527,3.743,3.743,0,0,1-2.02.547,3.556,3.556,0,0,1-2.785-1.2A4.575,4.575,0,0,1,19.445,39.8Zm1.453.172a3.616,3.616,0,0,0,.652,2.258,2.211,2.211,0,0,0,3.5-.012A3.955,3.955,0,0,0,25.7,39.7a3.61,3.61,0,0,0-.66-2.254,2.1,2.1,0,0,0-1.754-.863,2.075,2.075,0,0,0-1.727.852,3.925,3.925,0,0,0-.659,2.432Zm12.141-3.023a4.331,4.331,0,0,0-.711-.055A1.9,1.9,0,0,0,30.4,38v6H28.953V35.547h1.406l.023.977A2.251,2.251,0,0,1,32.4,35.391a1.477,1.477,0,0,1,.641.109Zm2.688-1.3.039.938a3.122,3.122,0,0,1,2.508-1.094,2.417,2.417,0,0,1,2.414,1.359,3.2,3.2,0,0,1,1.1-.984,3.242,3.242,0,0,1,1.6-.375q2.781,0,2.828,2.945V44h-1.45V38.422a1.941,1.941,0,0,0-.414-1.355,1.823,1.823,0,0,0-1.391-.449,1.916,1.916,0,0,0-1.336.48,1.949,1.949,0,0,0-.617,1.293V44H39.555V38.461a1.613,1.613,0,0,0-1.8-1.844A1.934,1.934,0,0,0,35.8,37.828V44H34.359V35.547ZM53.609,44a3.036,3.036,0,0,1-.2-.891A3.225,3.225,0,0,1,51,44.156a2.984,2.984,0,0,1-2.051-.707,2.287,2.287,0,0,1-.8-1.793,2.39,2.39,0,0,1,1-2.051,4.733,4.733,0,0,1,2.824-.73h1.406v-.664A1.623,1.623,0,0,0,52.93,37a1.821,1.821,0,0,0-1.336-.449,2.107,2.107,0,0,0-1.3.391,1.151,1.151,0,0,0-.523.945H48.32a2,2,0,0,1,.449-1.223,3.066,3.066,0,0,1,1.219-.934,4.1,4.1,0,0,1,1.691-.344,3.342,3.342,0,0,1,2.289.73,2.635,2.635,0,0,1,.859,2.012v3.891a4.757,4.757,0,0,0,.3,1.852V44Zm-2.4-1.1a2.54,2.54,0,0,0,1.289-.352,2.127,2.127,0,0,0,.883-.914V39.9H52.25q-2.656,0-2.656,1.555a1.316,1.316,0,0,0,.453,1.063,1.742,1.742,0,0,0,1.164.382Zm9.273.078a2.082,2.082,0,0,0,1.352-.469,1.649,1.649,0,0,0,.641-1.172h1.367a2.621,2.621,0,0,1-.5,1.383,3.293,3.293,0,0,1-1.23,1.047,3.55,3.55,0,0,1-1.629.391A3.482,3.482,0,0,1,57.738,43a4.59,4.59,0,0,1-1.02-3.152v-.242a5.089,5.089,0,0,1,.453-2.2,3.451,3.451,0,0,1,1.3-1.492,3.7,3.7,0,0,1,2-.531,3.39,3.39,0,0,1,2.363.852,3.043,3.043,0,0,1,1,2.211H62.477a1.992,1.992,0,0,0-.621-1.348,1.932,1.932,0,0,0-1.379-.527,2.023,2.023,0,0,0-1.707.793,3.724,3.724,0,0,0-.6,2.293v.273a3.65,3.65,0,0,0,.6,2.25,2.033,2.033,0,0,0,1.719.8ZM67.039,44H65.594V35.547h1.445ZM65.477,33.3a.863.863,0,0,1,.215-.594.807.807,0,0,1,.637-.242.819.819,0,0,1,.641.242.854.854,0,0,1,.219.594.856.856,0,1,1-1.712,0Zm3.492,6.4a4.993,4.993,0,0,1,.488-2.234,3.643,3.643,0,0,1,1.359-1.531A3.7,3.7,0,0,1,72.8,35.4,3.565,3.565,0,0,1,75.6,36.6a4.6,4.6,0,0,1,1.066,3.18v.1a5.036,5.036,0,0,1-.473,2.215,3.589,3.589,0,0,1-1.352,1.527,3.743,3.743,0,0,1-2.02.547,3.556,3.556,0,0,1-2.785-1.2A4.575,4.575,0,0,1,68.969,39.8Zm1.453.172a3.616,3.616,0,0,0,.652,2.258,2.211,2.211,0,0,0,3.5-.012,3.955,3.955,0,0,0,.648-2.418,3.61,3.61,0,0,0-.66-2.254,2.1,2.1,0,0,0-1.754-.863,2.075,2.075,0,0,0-1.727.852,3.925,3.925,0,0,0-.659,2.432Zm3.039-7.852h1.75l-2.094,2.3H71.953Zm6.383,3.531.047,1.063a3.08,3.08,0,0,1,2.531-1.219q2.68,0,2.7,3.023V44H83.68V38.406a1.946,1.946,0,0,0-.418-1.352,1.675,1.675,0,0,0-1.277-.437,2.086,2.086,0,0,0-1.234.375,2.546,2.546,0,0,0-.828.984V44H78.477V35.547ZM96.484,44a3.036,3.036,0,0,1-.2-.891,3.225,3.225,0,0,1-2.406,1.047,2.984,2.984,0,0,1-2.051-.707,2.288,2.288,0,0,1-.8-1.793,2.39,2.39,0,0,1,1-2.051,4.733,4.733,0,0,1,2.824-.73h1.406v-.664A1.623,1.623,0,0,0,95.8,37a1.821,1.821,0,0,0-1.336-.449,2.107,2.107,0,0,0-1.3.391,1.151,1.151,0,0,0-.523.945H91.2a2,2,0,0,1,.449-1.223,3.066,3.066,0,0,1,1.219-.934,4.1,4.1,0,0,1,1.691-.344,3.342,3.342,0,0,1,2.289.73,2.635,2.635,0,0,1,.859,2.012v3.891a4.757,4.757,0,0,0,.3,1.852V44Zm-2.4-1.1a2.54,2.54,0,0,0,1.289-.352,2.127,2.127,0,0,0,.883-.914V39.9H95.125q-2.656,0-2.656,1.555a1.316,1.316,0,0,0,.453,1.063,1.742,1.742,0,0,0,1.164.382Zm9.273.078a2.082,2.082,0,0,0,1.352-.469,1.649,1.649,0,0,0,.641-1.172h1.367a2.621,2.621,0,0,1-.5,1.383,3.293,3.293,0,0,1-1.23,1.047,3.55,3.55,0,0,1-1.629.391A3.482,3.482,0,0,1,100.613,43a4.59,4.59,0,0,1-1.02-3.152v-.242a5.089,5.089,0,0,1,.453-2.2,3.451,3.451,0,0,1,1.3-1.492,3.7,3.7,0,0,1,2-.531,3.39,3.39,0,0,1,2.363.852,3.043,3.043,0,0,1,1,2.211h-1.367a1.992,1.992,0,0,0-.621-1.348,1.932,1.932,0,0,0-1.379-.527,2.023,2.023,0,0,0-1.707.793,3.724,3.724,0,0,0-.605,2.293v.273a3.65,3.65,0,0,0,.6,2.25,2.033,2.033,0,0,0,1.729.8ZM110.3,33.5v2.047h1.578v1.117H110.3v5.249a1.173,1.173,0,0,0,.211.763.888.888,0,0,0,.719.254,3.5,3.5,0,0,0,.688-.094V44a4.215,4.215,0,0,1-1.109.155,1.8,1.8,0,0,1-1.461-.586,2.517,2.517,0,0,1-.492-1.664V36.664H107.32V35.547h1.539V33.5ZM115.141,44H113.7V35.547h1.445Zm-1.562-10.7a.863.863,0,0,1,.215-.594.807.807,0,0,1,.637-.242.819.819,0,0,1,.641.242.854.854,0,0,1,.219.594.857.857,0,1,1-1.713,0Zm6.664,8.734,2.094-6.492h1.477L120.781,44h-1.1l-3.062-8.453H118.1ZM124.7,39.7a4.993,4.993,0,0,1,.488-2.234,3.643,3.643,0,0,1,1.359-1.531,3.7,3.7,0,0,1,1.988-.539,3.565,3.565,0,0,1,2.793,1.2,4.6,4.6,0,0,1,1.066,3.18v.1a5.036,5.036,0,0,1-.473,2.215,3.589,3.589,0,0,1-1.352,1.527,3.743,3.743,0,0,1-2.02.547,3.556,3.556,0,0,1-2.785-1.2A4.575,4.575,0,0,1,124.7,39.8Zm1.453.172a3.616,3.616,0,0,0,.652,2.258,2.211,2.211,0,0,0,3.5-.012,3.954,3.954,0,0,0,.648-2.418,3.61,3.61,0,0,0-.66-2.254,2.1,2.1,0,0,0-1.754-.863,2.075,2.075,0,0,0-1.727.852,3.925,3.925,0,0,0-.656,2.432Zm12.977,1.891a1.064,1.064,0,0,0-.441-.91,4.249,4.249,0,0,0-1.539-.559,7.277,7.277,0,0,1-1.742-.562,2.479,2.479,0,0,1-.953-.781,1.869,1.869,0,0,1-.309-1.078,2.193,2.193,0,0,1,.879-1.758,3.432,3.432,0,0,1,2.246-.719,3.532,3.532,0,0,1,2.332.742,2.357,2.357,0,0,1,.895,1.9h-1.453a1.3,1.3,0,0,0-.5-1.023,1.888,1.888,0,0,0-1.27-.43,1.976,1.976,0,0,0-1.234.344,1.082,1.082,0,0,0-.445.9.877.877,0,0,0,.414.789,5.1,5.1,0,0,0,1.5.508,7.8,7.8,0,0,1,1.754.578,2.558,2.558,0,0,1,1,.809,1.988,1.988,0,0,1,.324,1.152,2.163,2.163,0,0,1-.906,1.816,3.8,3.8,0,0,1-2.352.684,4.257,4.257,0,0,1-1.8-.359,2.922,2.922,0,0,1-1.223-1,2.42,2.42,0,0,1-.441-1.4H135.3a1.5,1.5,0,0,0,.582,1.152,2.258,2.258,0,0,0,1.434.426,2.331,2.331,0,0,0,1.316-.332,1.02,1.02,0,0,0,.5-.9ZM7.594,60.977H2.82V66H1.32V54.625H8.367v1.227H2.82v3.9H7.594Zm5.688,5.18a3.693,3.693,0,0,1-2.8-1.129A4.19,4.19,0,0,1,9.4,62.008v-.266a5.073,5.073,0,0,1,.48-2.246,3.748,3.748,0,0,1,1.344-1.547A3.378,3.378,0,0,1,13.1,57.39a3.166,3.166,0,0,1,2.563,1.086,4.7,4.7,0,0,1,.914,3.109v.6H10.852a3,3,0,0,0,.73,2.02,2.3,2.3,0,0,0,1.777.77,2.517,2.517,0,0,0,1.3-.312,3.259,3.259,0,0,0,.93-.828l.883.688a3.55,3.55,0,0,1-3.191,1.633Zm-.18-7.578a1.928,1.928,0,0,0-1.469.637A3.1,3.1,0,0,0,10.9,61h4.234v-.109a2.753,2.753,0,0,0-.594-1.707,1.815,1.815,0,0,0-1.44-.606Zm8.656,7.578a3.693,3.693,0,0,1-2.8-1.129,4.19,4.19,0,0,1-1.078-3.02v-.266a5.073,5.073,0,0,1,.48-2.246A3.748,3.748,0,0,1,19.7,57.949a3.378,3.378,0,0,1,1.871-.559,3.166,3.166,0,0,1,2.563,1.086,4.7,4.7,0,0,1,.914,3.109v.6H19.328a3,3,0,0,0,.73,2.02,2.3,2.3,0,0,0,1.777.77,2.517,2.517,0,0,0,1.3-.312,3.259,3.259,0,0,0,.93-.828l.883.688a3.55,3.55,0,0,1-3.19,1.633Zm-.18-7.578a1.928,1.928,0,0,0-1.469.637A3.1,3.1,0,0,0,19.375,61h4.234v-.109a2.753,2.753,0,0,0-.594-1.707,1.815,1.815,0,0,0-1.437-.606Zm4.8,3.125a4.952,4.952,0,0,1,.922-3.129,3.137,3.137,0,0,1,4.766-.168V54h1.445V66H32.18l-.07-.906a2.943,2.943,0,0,1-2.41,1.062,2.887,2.887,0,0,1-2.4-1.2,5.008,5.008,0,0,1-.926-3.141Zm1.445.164a3.749,3.749,0,0,0,.594,2.25,1.92,1.92,0,0,0,1.641.813,2.109,2.109,0,0,0,2-1.231V59.813a2.125,2.125,0,0,0-1.992-1.2,1.929,1.929,0,0,0-1.656.82,4.128,4.128,0,0,0-.595,2.434Zm12.852,1.891a1.064,1.064,0,0,0-.441-.91,4.249,4.249,0,0,0-1.539-.559,7.277,7.277,0,0,1-1.742-.562A2.479,2.479,0,0,1,36,60.945a1.869,1.869,0,0,1-.309-1.078,2.193,2.193,0,0,1,.879-1.758,3.432,3.432,0,0,1,2.246-.719,3.532,3.532,0,0,1,2.332.742,2.357,2.357,0,0,1,.9,1.9H40.586a1.3,1.3,0,0,0-.5-1.023,1.888,1.888,0,0,0-1.27-.43,1.976,1.976,0,0,0-1.234.344,1.082,1.082,0,0,0-.445.9.877.877,0,0,0,.414.789,5.1,5.1,0,0,0,1.5.508,7.8,7.8,0,0,1,1.749.58,2.558,2.558,0,0,1,1,.809,1.988,1.988,0,0,1,.324,1.152,2.163,2.163,0,0,1-.906,1.816,3.8,3.8,0,0,1-2.352.684,4.257,4.257,0,0,1-1.8-.359,2.922,2.922,0,0,1-1.223-1,2.42,2.42,0,0,1-.443-1.4h1.445a1.5,1.5,0,0,0,.582,1.152,2.258,2.258,0,0,0,1.434.426,2.331,2.331,0,0,0,1.316-.332,1.02,1.02,0,0,0,.5-.888ZM49.531,66H48.086V57.547h1.445ZM47.969,55.3a.863.863,0,0,1,.215-.594.807.807,0,0,1,.637-.242.819.819,0,0,1,.641.242.854.854,0,0,1,.219.594.856.856,0,1,1-1.712,0Zm5.242,2.242.047,1.063a3.08,3.08,0,0,1,2.531-1.219q2.68,0,2.7,3.023V66H57.047V60.406a1.946,1.946,0,0,0-.418-1.352,1.675,1.675,0,0,0-1.277-.437,2.086,2.086,0,0,0-1.234.375,2.546,2.546,0,0,0-.828.984V66H51.844V57.547ZM62.633,55.5v2.047h1.578v1.117H62.633v5.249a1.173,1.173,0,0,0,.211.763.888.888,0,0,0,.719.254,3.5,3.5,0,0,0,.688-.094V66a4.215,4.215,0,0,1-1.109.155,1.8,1.8,0,0,1-1.461-.586,2.517,2.517,0,0,1-.492-1.664V58.664H59.648V57.547h1.539V55.5Zm6.773,10.656a3.693,3.693,0,0,1-2.8-1.129,4.19,4.19,0,0,1-1.078-3.02v-.266a5.073,5.073,0,0,1,.48-2.246,3.748,3.748,0,0,1,1.344-1.547,3.378,3.378,0,0,1,1.871-.559,3.166,3.166,0,0,1,2.563,1.086,4.7,4.7,0,0,1,.914,3.109v.6H66.977a3,3,0,0,0,.73,2.02,2.3,2.3,0,0,0,1.777.77,2.517,2.517,0,0,0,1.3-.312,3.259,3.259,0,0,0,.93-.828l.883.688a3.55,3.55,0,0,1-3.191,1.634Zm-.18-7.578a1.928,1.928,0,0,0-1.469.637A3.1,3.1,0,0,0,67.023,61h4.234v-.109a2.753,2.753,0,0,0-.594-1.707,1.815,1.815,0,0,0-1.436-.606ZM75.945,66H74.5V54h1.445Zm3.883,0H78.383V57.547h1.445ZM78.266,55.3a.863.863,0,0,1,.215-.594.807.807,0,0,1,.637-.242.819.819,0,0,1,.641.242.854.854,0,0,1,.219.594.856.856,0,1,1-1.712,0ZM81.8,61.7a4.968,4.968,0,0,1,.914-3.145,3.151,3.151,0,0,1,4.836-.074l.07-.937h1.32V65.8a3.439,3.439,0,0,1-.973,2.586,3.589,3.589,0,0,1-2.613.945,4.348,4.348,0,0,1-1.789-.391,3.08,3.08,0,0,1-1.336-1.07l.75-.867a2.826,2.826,0,0,0,2.273,1.148,2.214,2.214,0,0,0,1.645-.594,2.269,2.269,0,0,0,.59-1.672v-.727a2.971,2.971,0,0,1-2.367,1,2.887,2.887,0,0,1-2.4-1.2A5.224,5.224,0,0,1,81.8,61.7Zm1.453.164a3.79,3.79,0,0,0,.586,2.246,1.9,1.9,0,0,0,1.641.816,2.117,2.117,0,0,0,2.008-1.242V59.828A2.142,2.142,0,0,0,85.5,58.617a1.921,1.921,0,0,0-1.648.82,4.128,4.128,0,0,0-.6,2.43Zm11.375,4.289a3.693,3.693,0,0,1-2.8-1.129A4.19,4.19,0,0,1,90.75,62v-.266a5.073,5.073,0,0,1,.48-2.246,3.748,3.748,0,0,1,1.344-1.547,3.378,3.378,0,0,1,1.871-.559,3.166,3.166,0,0,1,2.563,1.086,4.7,4.7,0,0,1,.914,3.109v.6H92.2a3,3,0,0,0,.73,2.02,2.3,2.3,0,0,0,1.777.77,2.517,2.517,0,0,0,1.3-.312,3.259,3.259,0,0,0,.93-.828l.883.688a3.55,3.55,0,0,1-3.2,1.637Zm-.18-7.578a1.928,1.928,0,0,0-1.469.637A3.1,3.1,0,0,0,92.242,61h4.234v-.109a2.753,2.753,0,0,0-.594-1.707,1.815,1.815,0,0,0-1.437-.606Zm6.516-1.031.047,1.063a3.08,3.08,0,0,1,2.531-1.219q2.68,0,2.7,3.023V66H104.8V60.406a1.946,1.946,0,0,0-.418-1.352,1.675,1.675,0,0,0-1.277-.437,2.086,2.086,0,0,0-1.234.375,2.546,2.546,0,0,0-.828.984V66H99.594V57.547Zm10.852,7.43a2.082,2.082,0,0,0,1.352-.469,1.649,1.649,0,0,0,.641-1.172h1.367a2.621,2.621,0,0,1-.5,1.383,3.293,3.293,0,0,1-1.23,1.047,3.55,3.55,0,0,1-1.629.391A3.482,3.482,0,0,1,109.066,65a4.59,4.59,0,0,1-1.02-3.152v-.242a5.089,5.089,0,0,1,.453-2.2,3.451,3.451,0,0,1,1.3-1.492,3.7,3.7,0,0,1,2-.531,3.39,3.39,0,0,1,2.363.852,3.043,3.043,0,0,1,1,2.211H113.8a1.992,1.992,0,0,0-.621-1.348,1.932,1.932,0,0,0-1.379-.527,2.023,2.023,0,0,0-1.707.793,3.724,3.724,0,0,0-.605,2.293v.273a3.65,3.65,0,0,0,.6,2.25,2.033,2.033,0,0,0,1.725.8ZM118.367,66h-1.445V57.547h1.445ZM116.8,55.3a.863.863,0,0,1,.215-.594.807.807,0,0,1,.637-.242.819.819,0,0,1,.641.242.854.854,0,0,1,.219.594.856.856,0,1,1-1.712,0ZM125.9,66a3.035,3.035,0,0,1-.2-.891,3.225,3.225,0,0,1-2.406,1.047,2.984,2.984,0,0,1-2.051-.707,2.287,2.287,0,0,1-.8-1.793,2.39,2.39,0,0,1,1-2.051,4.733,4.733,0,0,1,2.824-.73h1.406v-.664A1.623,1.623,0,0,0,125.219,59a1.821,1.821,0,0,0-1.336-.449,2.107,2.107,0,0,0-1.3.391,1.151,1.151,0,0,0-.523.945h-1.453a2,2,0,0,1,.449-1.223,3.066,3.066,0,0,1,1.219-.934,4.1,4.1,0,0,1,1.691-.344,3.342,3.342,0,0,1,2.289.73,2.635,2.635,0,0,1,.859,2.012v3.891a4.757,4.757,0,0,0,.3,1.852V66Zm-2.4-1.1a2.54,2.54,0,0,0,1.289-.352,2.127,2.127,0,0,0,.883-.914V61.9h-1.133q-2.656,0-2.656,1.555a1.316,1.316,0,0,0,.453,1.063,1.742,1.742,0,0,0,1.164.382Z" transform="translate(-2549 1579)" fill="#12263f"/>
      <g id="Grupo_87377" data-name="Grupo 87377" transform="translate(-2917.682 -4726.803)">
        <path id="Trazado_113557-2" data-name="Trazado 113557" d="M-21088-7107.893l4.682,4.683-4.682,4.683" transform="translate(21438.998 13402.238)" fill="none" stroke="#583ae2" stroke-width="2"/>
        <path id="Trazado_115047-2" data-name="Trazado 115047" d="M-21088-7107.893l4.682,4.683-4.682,4.683" transform="translate(21438.998 13424.421)" fill="none" stroke="#583ae2" stroke-width="2"/>
        <path id="Trazado_130714-2" data-name="Trazado 130714" d="M-21088-7107.893l4.682,4.683-4.682,4.683" transform="translate(21438.998 13468.788)" fill="none" stroke="#583ae2" stroke-width="2"/>
        <path id="Trazado_133967-2" data-name="Trazado 133967" d="M-21088-7107.893l4.682,4.683-4.682,4.683" transform="translate(21438.998 13446.605)" fill="none" stroke="#583ae2" stroke-width="2"/>
      </g>
      <path id="Trazado_134923" data-name="Trazado 134923" d="M7.6-2.977H2.836L1.766,0H.219L4.563-11.375H5.875L10.227,0H8.688ZM3.289-4.2H7.156L5.219-9.523ZM12.9-8.453l.047,1.063a3.08,3.08,0,0,1,2.531-1.219q2.68,0,2.7,3.023V0H16.734V-5.594a1.946,1.946,0,0,0-.418-1.352,1.675,1.675,0,0,0-1.277-.437,2.086,2.086,0,0,0-1.234.375,2.546,2.546,0,0,0-.828.984V0H11.531V-8.453ZM25.578,0a3.036,3.036,0,0,1-.2-.891A3.225,3.225,0,0,1,22.969.156a2.984,2.984,0,0,1-2.051-.707,2.287,2.287,0,0,1-.8-1.793,2.39,2.39,0,0,1,1-2.051,4.733,4.733,0,0,1,2.824-.73h1.406v-.664A1.623,1.623,0,0,0,24.9-7a1.821,1.821,0,0,0-1.336-.449,2.108,2.108,0,0,0-1.3.391,1.151,1.151,0,0,0-.523.945H20.289a2,2,0,0,1,.449-1.223,3.066,3.066,0,0,1,1.219-.934,4.1,4.1,0,0,1,1.691-.344,3.342,3.342,0,0,1,2.289.73A2.635,2.635,0,0,1,26.8-5.867v3.891a4.757,4.757,0,0,0,.3,1.852V0Zm-2.4-1.1a2.54,2.54,0,0,0,1.289-.352,2.127,2.127,0,0,0,.883-.914V-4.1H24.219q-2.656,0-2.656,1.555a1.316,1.316,0,0,0,.453,1.063A1.742,1.742,0,0,0,23.18-1.1Zm1.336-10.883h1.75l-2.094,2.3H23.006ZM30.633,0H29.188V-12h1.445Zm3.883,0H33.07V-8.453h1.445ZM32.953-10.7a.863.863,0,0,1,.215-.594.807.807,0,0,1,.637-.242.819.819,0,0,1,.641.242.854.854,0,0,1,.219.594.826.826,0,0,1-.219.586.834.834,0,0,1-.641.234.821.821,0,0,1-.637-.234A.834.834,0,0,1,32.953-10.7Zm8.8,8.453a1.064,1.064,0,0,0-.441-.91,4.249,4.249,0,0,0-1.539-.559,7.277,7.277,0,0,1-1.742-.562,2.479,2.479,0,0,1-.953-.781,1.869,1.869,0,0,1-.309-1.078,2.193,2.193,0,0,1,.879-1.758,3.432,3.432,0,0,1,2.246-.719,3.532,3.532,0,0,1,2.332.742,2.357,2.357,0,0,1,.9,1.9H41.664A1.3,1.3,0,0,0,41.164-7a1.888,1.888,0,0,0-1.27-.43,1.976,1.976,0,0,0-1.234.344,1.082,1.082,0,0,0-.445.9.877.877,0,0,0,.414.789,5.1,5.1,0,0,0,1.5.508,7.8,7.8,0,0,1,1.754.578,2.558,2.558,0,0,1,1,.809A1.988,1.988,0,0,1,43.2-2.344a2.163,2.163,0,0,1-.906,1.816,3.8,3.8,0,0,1-2.352.684,4.257,4.257,0,0,1-1.8-.359,2.922,2.922,0,0,1-1.223-1,2.42,2.42,0,0,1-.442-1.4h1.445A1.5,1.5,0,0,0,38.5-1.449a2.258,2.258,0,0,0,1.434.426,2.331,2.331,0,0,0,1.316-.332,1.02,1.02,0,0,0,.5-.887ZM46.648,0H45.2V-8.453h1.445ZM45.086-10.7a.863.863,0,0,1,.215-.594.807.807,0,0,1,.637-.242.819.819,0,0,1,.641.242.854.854,0,0,1,.219.594.826.826,0,0,1-.219.586.834.834,0,0,1-.641.234.821.821,0,0,1-.637-.234A.834.834,0,0,1,45.086-10.7Zm8.8,8.453a1.064,1.064,0,0,0-.441-.91A4.249,4.249,0,0,0,51.9-3.711a7.277,7.277,0,0,1-1.742-.562,2.479,2.479,0,0,1-.953-.781,1.869,1.869,0,0,1-.3-1.079,2.193,2.193,0,0,1,.879-1.758,3.432,3.432,0,0,1,2.246-.719,3.532,3.532,0,0,1,2.332.742,2.357,2.357,0,0,1,.9,1.9H53.8a1.3,1.3,0,0,0-.5-1.023,1.888,1.888,0,0,0-1.27-.43,1.976,1.976,0,0,0-1.234.344,1.082,1.082,0,0,0-.445.9.877.877,0,0,0,.414.789,5.1,5.1,0,0,0,1.5.508,7.8,7.8,0,0,1,1.754.578A2.558,2.558,0,0,1,55-3.5a1.988,1.988,0,0,1,.324,1.152,2.163,2.163,0,0,1-.906,1.816A3.8,3.8,0,0,1,52.07.156,4.257,4.257,0,0,1,50.27-.2a2.922,2.922,0,0,1-1.223-1,2.42,2.42,0,0,1-.438-1.4h1.445a1.5,1.5,0,0,0,.582,1.152,2.258,2.258,0,0,0,1.434.426,2.331,2.331,0,0,0,1.316-.332,1.02,1.02,0,0,0,.5-.888ZM2.93,22H1.43V10.625h1.5Zm3.883-8.453L6.86,14.61a3.08,3.08,0,0,1,2.531-1.219q2.68,0,2.7,3.023V22H10.648V16.406a1.946,1.946,0,0,0-.418-1.352,1.675,1.675,0,0,0-1.277-.437,2.086,2.086,0,0,0-1.234.375,2.546,2.546,0,0,0-.828.984V22H5.445V13.547ZM14.984,22V14.664H13.648V13.547h1.336V12.68a2.878,2.878,0,0,1,.727-2.1,2.745,2.745,0,0,1,2.055-.742,3.816,3.816,0,0,1,.992.132l-.078,1.165a4.151,4.151,0,0,0-.781-.07,1.41,1.41,0,0,0-1.086.411,1.669,1.669,0,0,0-.383,1.18v.893h1.8v1.117h-1.8V22Zm4.461-4.3a4.993,4.993,0,0,1,.488-2.234,3.643,3.643,0,0,1,1.359-1.531A3.7,3.7,0,0,1,23.28,13.4a3.565,3.565,0,0,1,2.793,1.2,4.6,4.6,0,0,1,1.066,3.18v.1a5.036,5.036,0,0,1-.473,2.215,3.589,3.589,0,0,1-1.352,1.527,3.743,3.743,0,0,1-2.02.547,3.556,3.556,0,0,1-2.785-1.2A4.575,4.575,0,0,1,19.445,17.8Zm1.453.172a3.616,3.616,0,0,0,.652,2.258,2.211,2.211,0,0,0,3.5-.012A3.955,3.955,0,0,0,25.7,17.7a3.61,3.61,0,0,0-.66-2.254,2.1,2.1,0,0,0-1.754-.863,2.075,2.075,0,0,0-1.727.852,3.925,3.925,0,0,0-.659,2.432Zm12.141-3.023a4.331,4.331,0,0,0-.711-.055A1.9,1.9,0,0,0,30.4,16v6H28.953V13.547h1.406l.023.977A2.251,2.251,0,0,1,32.4,13.391a1.477,1.477,0,0,1,.641.109Zm2.688-1.3.039.938a3.122,3.122,0,0,1,2.508-1.094,2.417,2.417,0,0,1,2.414,1.359,3.2,3.2,0,0,1,1.1-.984,3.242,3.242,0,0,1,1.6-.375q2.781,0,2.828,2.945V22h-1.45V16.422a1.941,1.941,0,0,0-.414-1.355,1.823,1.823,0,0,0-1.391-.449,1.917,1.917,0,0,0-1.336.48,1.949,1.949,0,0,0-.617,1.293V22H39.555V16.461a1.613,1.613,0,0,0-1.8-1.844A1.934,1.934,0,0,0,35.8,15.828V22H34.359V13.547ZM51.9,22.156a3.693,3.693,0,0,1-2.8-1.129,4.19,4.19,0,0,1-1.078-3.02v-.266A5.073,5.073,0,0,1,48.5,15.5a3.748,3.748,0,0,1,1.344-1.547,3.378,3.378,0,0,1,1.871-.559,3.166,3.166,0,0,1,2.563,1.086,4.7,4.7,0,0,1,.914,3.109v.6H49.469a3,3,0,0,0,.73,2.02,2.3,2.3,0,0,0,1.777.77,2.517,2.517,0,0,0,1.3-.312,3.259,3.259,0,0,0,.93-.828l.883.688A3.55,3.55,0,0,1,51.9,22.156Zm-.18-7.578a1.928,1.928,0,0,0-1.469.637A3.1,3.1,0,0,0,49.516,17H53.75v-.109a2.753,2.753,0,0,0-.594-1.707,1.815,1.815,0,0,0-1.437-.606Zm10.07,5.18a1.064,1.064,0,0,0-.441-.91,4.249,4.249,0,0,0-1.539-.559,7.277,7.277,0,0,1-1.742-.562,2.479,2.479,0,0,1-.953-.781,1.869,1.869,0,0,1-.309-1.078,2.193,2.193,0,0,1,.879-1.758,3.432,3.432,0,0,1,2.246-.719,3.532,3.532,0,0,1,2.332.742,2.357,2.357,0,0,1,.9,1.9H61.7a1.3,1.3,0,0,0-.5-1.023,1.888,1.888,0,0,0-1.27-.43,1.976,1.976,0,0,0-1.234.344,1.082,1.082,0,0,0-.445.9.877.877,0,0,0,.414.789,5.1,5.1,0,0,0,1.5.508,7.8,7.8,0,0,1,1.754.578,2.558,2.558,0,0,1,1,.809,1.988,1.988,0,0,1,.324,1.152,2.163,2.163,0,0,1-.906,1.816,3.8,3.8,0,0,1-2.352.684,4.257,4.257,0,0,1-1.8-.359,2.922,2.922,0,0,1-1.223-1,2.42,2.42,0,0,1-.441-1.4h1.445a1.5,1.5,0,0,0,.582,1.152,2.258,2.258,0,0,0,1.434.426,2.331,2.331,0,0,0,1.316-.332,1.02,1.02,0,0,0,.491-.894ZM3.258,32.625l3.719,9.281L10.7,32.625h1.945V44h-1.5V39.57l.141-4.781L7.547,44H6.4L2.672,34.813,2.82,39.57V44H1.32V32.625ZM14.68,39.7a4.993,4.993,0,0,1,.488-2.234,3.643,3.643,0,0,1,1.359-1.531,3.7,3.7,0,0,1,1.988-.539,3.565,3.565,0,0,1,2.793,1.2,4.6,4.6,0,0,1,1.066,3.18v.1a5.036,5.036,0,0,1-.473,2.215,3.589,3.589,0,0,1-1.352,1.527,3.743,3.743,0,0,1-2.02.547,3.556,3.556,0,0,1-2.785-1.2A4.575,4.575,0,0,1,14.68,39.8Zm1.453.172a3.616,3.616,0,0,0,.652,2.258,2.211,2.211,0,0,0,3.5-.012A3.955,3.955,0,0,0,20.93,39.7a3.61,3.61,0,0,0-.66-2.254,2.1,2.1,0,0,0-1.754-.863,2.075,2.075,0,0,0-1.727.852,3.925,3.925,0,0,0-.656,2.432Zm9.422-4.32.047,1.063A3.08,3.08,0,0,1,28.133,35.4q2.68,0,2.7,3.023V44H29.391V38.406a1.946,1.946,0,0,0-.418-1.352,1.675,1.675,0,0,0-1.277-.437,2.086,2.086,0,0,0-1.234.375,2.546,2.546,0,0,0-.828.984V44H24.188V35.547ZM34.586,44H33.141V35.547h1.445ZM33.023,33.3a.863.863,0,0,1,.215-.594.807.807,0,0,1,.637-.242.819.819,0,0,1,.641.242.854.854,0,0,1,.219.594.856.856,0,1,1-1.712,0Zm5.836.2v2.047h1.578v1.117H38.859v5.249a1.173,1.173,0,0,0,.211.763.888.888,0,0,0,.719.254,3.5,3.5,0,0,0,.688-.094V44a4.215,4.215,0,0,1-1.109.155,1.8,1.8,0,0,1-1.461-.586,2.517,2.517,0,0,1-.492-1.664V36.664h-1.54V35.547h1.539V33.5Zm2.727,6.2a4.993,4.993,0,0,1,.488-2.234,3.643,3.643,0,0,1,1.359-1.531,3.7,3.7,0,0,1,1.988-.539,3.565,3.565,0,0,1,2.793,1.2,4.6,4.6,0,0,1,1.066,3.18v.1a5.036,5.036,0,0,1-.473,2.215,3.589,3.589,0,0,1-1.352,1.527,3.743,3.743,0,0,1-2.02.547,3.556,3.556,0,0,1-2.785-1.2A4.575,4.575,0,0,1,41.586,39.8Zm1.453.172a3.616,3.616,0,0,0,.652,2.258,2.211,2.211,0,0,0,3.5-.012,3.955,3.955,0,0,0,.648-2.418,3.61,3.61,0,0,0-.66-2.254,2.1,2.1,0,0,0-1.754-.863,2.075,2.075,0,0,0-1.727.852,3.925,3.925,0,0,0-.659,2.432ZM55.18,36.844a4.331,4.331,0,0,0-.711-.055A1.9,1.9,0,0,0,52.539,38v6H51.094V35.547H52.5l.023.977a2.251,2.251,0,0,1,2.016-1.133,1.477,1.477,0,0,1,.641.109ZM58.078,44H56.633V35.547h1.445ZM56.516,33.3a.863.863,0,0,1,.215-.594.807.807,0,0,1,.637-.242.819.819,0,0,1,.641.242.854.854,0,0,1,.219.594.856.856,0,1,1-1.712,0Zm5.234,9.52H66.7V44H59.984V42.938l4.664-6.2H60.055v-1.2h6.406V36.57ZM73.539,44a3.036,3.036,0,0,1-.2-.891,3.225,3.225,0,0,1-2.406,1.047,2.984,2.984,0,0,1-2.051-.707,2.288,2.288,0,0,1-.8-1.793,2.39,2.39,0,0,1,1-2.051,4.733,4.733,0,0,1,2.824-.73h1.406v-.664A1.623,1.623,0,0,0,72.859,37a1.821,1.821,0,0,0-1.336-.449,2.107,2.107,0,0,0-1.3.391,1.151,1.151,0,0,0-.523.945H68.25a2,2,0,0,1,.449-1.223,3.066,3.066,0,0,1,1.219-.934,4.1,4.1,0,0,1,1.691-.344,3.342,3.342,0,0,1,2.289.73,2.635,2.635,0,0,1,.859,2.012v3.891a4.757,4.757,0,0,0,.3,1.852V44Zm-2.4-1.1a2.54,2.54,0,0,0,1.289-.352,2.127,2.127,0,0,0,.883-.914V39.9H72.18q-2.656,0-2.656,1.555a1.316,1.316,0,0,0,.453,1.063,1.742,1.742,0,0,0,1.164.382Zm9.273.078a2.082,2.082,0,0,0,1.352-.469,1.649,1.649,0,0,0,.641-1.172h1.367a2.621,2.621,0,0,1-.5,1.383,3.293,3.293,0,0,1-1.23,1.047,3.55,3.55,0,0,1-1.629.391A3.482,3.482,0,0,1,77.668,43a4.59,4.59,0,0,1-1.02-3.152v-.242a5.089,5.089,0,0,1,.453-2.2,3.451,3.451,0,0,1,1.3-1.492,3.7,3.7,0,0,1,2-.531,3.39,3.39,0,0,1,2.363.852,3.043,3.043,0,0,1,1,2.211H82.406a1.992,1.992,0,0,0-.621-1.348,1.932,1.932,0,0,0-1.379-.527,2.023,2.023,0,0,0-1.707.793,3.724,3.724,0,0,0-.605,2.293v.273a3.65,3.65,0,0,0,.6,2.25,2.033,2.033,0,0,0,1.72.8ZM86.969,44H85.523V35.547h1.445ZM85.406,33.3a.863.863,0,0,1,.215-.594.807.807,0,0,1,.637-.242.819.819,0,0,1,.641.242.854.854,0,0,1,.219.594.856.856,0,1,1-1.712,0ZM88.9,39.7a4.993,4.993,0,0,1,.488-2.234,3.643,3.643,0,0,1,1.359-1.531,3.7,3.7,0,0,1,1.988-.539,3.565,3.565,0,0,1,2.793,1.2,4.6,4.6,0,0,1,1.066,3.18v.1a5.036,5.036,0,0,1-.473,2.215,3.589,3.589,0,0,1-1.352,1.527,3.743,3.743,0,0,1-2.02.547,3.556,3.556,0,0,1-2.785-1.2A4.575,4.575,0,0,1,88.9,39.8Zm1.453.172A3.616,3.616,0,0,0,91,42.125a2.211,2.211,0,0,0,3.5-.012,3.955,3.955,0,0,0,.648-2.418,3.61,3.61,0,0,0-.66-2.254,2.1,2.1,0,0,0-1.754-.863,2.075,2.075,0,0,0-1.727.852,3.925,3.925,0,0,0-.655,2.437Zm3.039-7.852h1.75l-2.094,2.3H91.884Zm6.383,3.531.047,1.063a3.08,3.08,0,0,1,2.531-1.219q2.68,0,2.7,3.023V44h-1.445V38.406a1.946,1.946,0,0,0-.418-1.352,1.675,1.675,0,0,0-1.277-.437,2.086,2.086,0,0,0-1.234.375,2.546,2.546,0,0,0-.828.984V44H98.406V35.547Z" transform="translate(-2895 1857)" fill="#12263f"/>
      <g id="Grupo_87378" data-name="Grupo 87378" transform="translate(-3264 -4446.303)">
        <path id="Trazado_113557-3" data-name="Trazado 113557" d="M-21088-7107.893l4.682,4.683-4.682,4.683" transform="translate(21438.998 13402.238)" fill="none" stroke="#583ae2" stroke-width="2"/>
        <path id="Trazado_115047-3" data-name="Trazado 115047" d="M-21088-7107.893l4.682,4.683-4.682,4.683" transform="translate(21438.998 13424.421)" fill="none" stroke="#583ae2" stroke-width="2"/>
        <path id="Trazado_133967-3" data-name="Trazado 133967" d="M-21088-7107.893l4.682,4.683-4.682,4.683" transform="translate(21438.998 13446.605)" fill="none" stroke="#583ae2" stroke-width="2"/>
      </g>
    </g>
    <path id="Trazado_134135" data-name="Trazado 134135" d="M-24.331,0h-3.34L-25.2-14.219h3.33Zm7-10.576-.225,1.27A3.756,3.756,0,0,1-14.5-10.771a2.523,2.523,0,0,1,2.183,1.089,4.557,4.557,0,0,1,.522,3.032L-12.905,0h-3.223L-15-6.67a3.445,3.445,0,0,0,.02-.625q-.068-.928-1.094-.928a2.009,2.009,0,0,0-1.553.752L-18.95,0h-3.213l1.836-10.566ZM-.62-5.273a8.777,8.777,0,0,1-.869,2.954A4.831,4.831,0,0,1-3.135-.4a3.8,3.8,0,0,1-2.192.6A2.871,2.871,0,0,1-7.573-.889L-8.53,4.063h-3.213L-9.2-10.566l2.969-.01L-6.4-9.57a3.106,3.106,0,0,1,2.51-1.191,2.958,2.958,0,0,1,2.407,1.1A4.876,4.876,0,0,1-.562-6.7,11.416,11.416,0,0,1-.62-5.273ZM-3.745-6.582q-.049-1.611-1.094-1.641a1.894,1.894,0,0,0-1.689.83L-7.28-3.2a1.3,1.3,0,0,0,1.348.869q1.709.029,2.1-2.939Q-3.745-6.211-3.745-6.582ZM6.489-1.152A3.5,3.5,0,0,1,3.638.205,2.769,2.769,0,0,1,1.3-.879,4,4,0,0,1,.688-3.73l1.143-6.836H5.044L3.882-3.691a2.288,2.288,0,0,0,0,.518.85.85,0,0,0,.947.83,2.077,2.077,0,0,0,1.729-.8l1.309-7.422H11.1L9.263,0H6.274ZM17.017-13.193l-.459,2.627h1.689l-.4,2.285H16.157l-.82,4.854a1.294,1.294,0,0,0,.063.752q.132.254.659.273a7.637,7.637,0,0,0,.84-.049L16.665-.068a5.192,5.192,0,0,1-1.729.244A2.847,2.847,0,0,1,12.7-.7a3,3,0,0,1-.605-2.334l.859-5.244H11.646l.391-2.285h1.309l.459-2.627ZM23.706-3.027q.127-.645-1-.967l-.693-.176a5.34,5.34,0,0,1-2.49-1.26,2.494,2.494,0,0,1-.742-1.924,3.065,3.065,0,0,1,1.353-2.476,5.148,5.148,0,0,1,3.179-.933,4.769,4.769,0,0,1,3.022.947,3.09,3.09,0,0,1,1.177,2.5l-3.2-.01q.039-1.25-1.1-1.25a1.574,1.574,0,0,0-.908.288,1.119,1.119,0,0,0-.5.767q-.166.791,1.4,1.084a8.116,8.116,0,0,1,2.1.747,3.135,3.135,0,0,1,1.133,1.05,2.611,2.611,0,0,1,.361,1.5,2.824,2.824,0,0,1-.625,1.709,4.047,4.047,0,0,1-1.724,1.2A6.174,6.174,0,0,1,22,.2a4.965,4.965,0,0,1-2.124-.479A3.787,3.787,0,0,1,18.34-1.558a3.31,3.31,0,0,1-.571-1.851l2.988.02A1.234,1.234,0,0,0,22.163-2a1.846,1.846,0,0,0,1.016-.269A1.161,1.161,0,0,0,23.706-3.027Z" transform="translate(-2552.878 1983.907)" fill="#fff"/>
    <path id="Trazado_134136" data-name="Trazado 134136" d="M-29.18.2A4.816,4.816,0,0,1-32.734-1.27a5.966,5.966,0,0,1-1.514-3.789,10.831,10.831,0,0,1,.186-2.759,9.693,9.693,0,0,1,1.006-2.925,7.361,7.361,0,0,1,1.807-2.227,6.179,6.179,0,0,1,4.18-1.445,5.141,5.141,0,0,1,2.544.669A4.666,4.666,0,0,1-22.783-11.9a6.612,6.612,0,0,1,.762,2.734A11.207,11.207,0,0,1-22.153-6.7a10.162,10.162,0,0,1-.771,2.637,8.059,8.059,0,0,1-1.45,2.212A6.671,6.671,0,0,1-26.47-.337,6.059,6.059,0,0,1-29.18.2ZM-25.371-9.2q-.1-2.441-1.895-2.539a2.615,2.615,0,0,0-2.295,1.1,7.053,7.053,0,0,0-1.2,3.442A12.017,12.017,0,0,0-30.9-5.02q.1,2.48,1.914,2.549a2.536,2.536,0,0,0,2.051-.854,5.527,5.527,0,0,0,1.24-2.656A12.76,12.76,0,0,0-25.371-9.2Zm10.205,8.047A3.5,3.5,0,0,1-18.018.205,2.769,2.769,0,0,1-20.356-.879a4,4,0,0,1-.61-2.852l1.143-6.836h3.213l-1.162,6.875a2.288,2.288,0,0,0,0,.518.85.85,0,0,0,.947.83,2.077,2.077,0,0,0,1.729-.8l1.309-7.422h3.232L-12.393,0h-2.988ZM-4.639-13.193-5.1-10.566h1.689l-.4,2.285H-5.5l-.82,4.854a1.294,1.294,0,0,0,.063.752q.132.254.659.273a7.637,7.637,0,0,0,.84-.049L-4.99-.068A5.192,5.192,0,0,1-6.719.176,2.847,2.847,0,0,1-8.955-.7a3,3,0,0,1-.605-2.334L-8.7-8.281H-10.01l.391-2.285h1.309l.459-2.627ZM6.533-5.273a8.777,8.777,0,0,1-.869,2.954A4.831,4.831,0,0,1,4.019-.4a3.8,3.8,0,0,1-2.192.6A2.871,2.871,0,0,1-.42-.889l-.957,4.951H-4.59l2.539-14.629,2.969-.01L.752-9.57a3.106,3.106,0,0,1,2.51-1.191,2.958,2.958,0,0,1,2.407,1.1A4.876,4.876,0,0,1,6.592-6.7,11.416,11.416,0,0,1,6.533-5.273ZM3.408-6.582Q3.359-8.193,2.314-8.223a1.894,1.894,0,0,0-1.689.83L-.127-3.2a1.3,1.3,0,0,0,1.348.869Q2.93-2.3,3.32-5.273,3.408-6.211,3.408-6.582Zm10.234,5.43A3.5,3.5,0,0,1,10.791.205,2.769,2.769,0,0,1,8.452-.879a4,4,0,0,1-.61-2.852l1.143-6.836H12.2L11.035-3.691a2.288,2.288,0,0,0,0,.518.85.85,0,0,0,.947.83,2.077,2.077,0,0,0,1.729-.8l1.309-7.422h3.232L16.416,0H13.428ZM24.17-13.193l-.459,2.627H25.4L25-8.281H23.311l-.82,4.854a1.294,1.294,0,0,0,.063.752q.132.254.659.273a7.637,7.637,0,0,0,.84-.049L23.818-.068A5.192,5.192,0,0,1,22.09.176,2.847,2.847,0,0,1,19.854-.7a3,3,0,0,1-.605-2.334l.859-5.244H18.8l.391-2.285H20.5l.459-2.627ZM30.859-3.027q.127-.645-1-.967L29.17-4.17a5.34,5.34,0,0,1-2.49-1.26,2.494,2.494,0,0,1-.742-1.924A3.065,3.065,0,0,1,27.29-9.829a5.148,5.148,0,0,1,3.179-.933,4.769,4.769,0,0,1,3.022.947,3.09,3.09,0,0,1,1.177,2.5l-3.2-.01q.039-1.25-1.1-1.25a1.574,1.574,0,0,0-.908.288,1.119,1.119,0,0,0-.5.767q-.166.791,1.4,1.084a8.116,8.116,0,0,1,2.1.747,3.135,3.135,0,0,1,1.133,1.05,2.611,2.611,0,0,1,.361,1.5,2.824,2.824,0,0,1-.625,1.709A4.047,4.047,0,0,1,31.6-.225,6.174,6.174,0,0,1,29.15.2a4.965,4.965,0,0,1-2.124-.479,3.787,3.787,0,0,1-1.533-1.274,3.31,3.31,0,0,1-.571-1.851l2.988.02A1.234,1.234,0,0,0,29.316-2a1.846,1.846,0,0,0,1.016-.269A1.161,1.161,0,0,0,30.859-3.027Z" transform="translate(-2553.153 2448.907)" fill="#fff"/>
  </g>
</svg>
