<svg xmlns="http://www.w3.org/2000/svg" xmlns:xlink="http://www.w3.org/1999/xlink" width="90.997" height="90.997" viewBox="0 0 90.997 90.997">
  <defs>
    <clipPath id="clip-path">
      <rect id="Rectángulo_37145" data-name="Rectángulo 37145" width="70.684" height="77.494" fill="none"/>
    </clipPath>
  </defs>
  <g id="Grupo_86070" data-name="Grupo 86070" transform="translate(-0.278 -0.277)">
    <circle id="Elipse_5411" data-name="Elipse 5411" cx="45.498" cy="45.498" r="45.498" transform="translate(0.278 0.277)" fill="#2ff980"/>
    <g id="Grupo_87198" data-name="Grupo 87198" transform="translate(10.145 7.029)">
      <g id="Grupo_87197" data-name="Grupo 87197" clip-path="url(#clip-path)">
        <path id="Trazado_133264" data-name="Trazado 133264" d="M83.821,11.664a23.744,23.744,0,0,1,1.128-3.74,12.892,12.892,0,0,1,24.444,2.042c.135.51.24,1.027.359,1.541a23.236,23.236,0,0,1,.237,4.521,1.412,1.412,0,0,0,.6,1.266,21.178,21.178,0,0,1,3.064,28.995,22.458,22.458,0,0,1-8.188,6.523,2.456,2.456,0,0,0-.287.082A21.2,21.2,0,0,1,83.273,17.1a.811.811,0,0,0,.38-.681,36.127,36.127,0,0,1,.169-4.751M102.58,4.1a.31.31,0,0,0-.286-.183A9.858,9.858,0,0,0,94.71,2.542c-4.8,1.038-8.154,4.866-8.727,10.4-.042.4.106.419.426.3a6,6,0,0,0,2.14-1.64,3.866,3.866,0,0,1,4.126-1.145c.508.144,1.018.285,1.53.412a7.059,7.059,0,0,0,3.928.336c.671-.21,1.379-.308,2.04-.542a4.336,4.336,0,0,1,5.149,1.149,4.441,4.441,0,0,0,1.566,1.267c.7.356.77.319.7-.442a11.934,11.934,0,0,0-1.053-3.912,9.789,9.789,0,0,0-3.954-4.617ZM101.6,34.092a5.229,5.229,0,0,0,1.415-.85,3.9,3.9,0,0,1-1.8-1.914c-.195-.449-.392-.506-.847-.323a8.974,8.974,0,0,1-6.539.2c-1.137-.4-1.145-.382-1.7.726a4.974,4.974,0,0,1-1.561,1.338c1.964,1.155,3.824,2.25,5.685,3.342a1.061,1.061,0,0,0,1.146-.009q2.1-1.254,4.2-2.513m7.675-11.983a16.911,16.911,0,0,1-5.528,7.02c-.845.63-.873.959-.143,1.746a1.786,1.786,0,0,0,.92.476,25.478,25.478,0,0,1,6.543,2.4,8.157,8.157,0,0,1,3.6,5.728c2.685-5.759-.088-16.928-4.745-19.606l-.648,2.233M95.62,29.327a5.78,5.78,0,0,0,3.266-.208,12.835,12.835,0,0,0,8.862-12.4c0-.687-.052-1.128-.867-1.233a6.1,6.1,0,0,1-1.4-.54,7.828,7.828,0,0,1-1.662-1.406,2.23,2.23,0,0,0-2.867-.738,11.335,11.335,0,0,1-8.25.019c-.14-.052-.3-.067-.436-.119a1.8,1.8,0,0,0-2.164.553,6.9,6.9,0,0,1-3.843,2.378c-.216.042-.358.143-.35.4a23.249,23.249,0,0,0,.093,3.469,13.3,13.3,0,0,0,9.614,9.817m14.99,16.986c1.254-1.163,2.267-2.43,1.925-4.31a4.7,4.7,0,0,1-.008-.68,6.682,6.682,0,0,0-1.538-4.624,9.846,9.846,0,0,0-4.678-2.486.668.668,0,0,0-.569.129c-.4.257-.806.508-1.209.762-1.852,1.069-3.729,2.1-5.55,3.221a3.755,3.755,0,0,1-4.318,0C93,37.292,91.169,36.478,89.616,35.3c-1.715-1.3-3.228-1.01-4.912-.113a6.064,6.064,0,0,0-3.4,4.187,21.864,21.864,0,0,0-.2,3.92,1.818,1.818,0,0,0,.4,1.248c4.781,6.128,11.026,8.691,18.7,7.472a17.57,17.57,0,0,0,10.4-5.7M83.726,19.864c-4.753,2.994-7.551,14.468-4.755,19.588.565-3.707,2.934-5.755,6.24-6.918,1.255-.441,2.534-.827,3.824-1.151a2.134,2.134,0,0,0,1.476-1.268c.156-.319.1-.477-.182-.677a15.739,15.739,0,0,1-6.6-9.573" transform="translate(-52.688 0)" fill="#030303"/>
        <path id="Trazado_133265" data-name="Trazado 133265" d="M8.288,91.051c-.462-.849-.422-1.165.269-1.857q2.884-2.892,5.775-5.775a1.959,1.959,0,0,1,2.832-.311c.262.165.366.1.544-.076,1.51-1.519,3.018-3.042,4.553-4.536.33-.321.139-.5-.034-.752a24.9,24.9,0,0,1-4.153-9.866Q15.479,53.068,26.5,42.79a1.266,1.266,0,0,1,1.763-.18c.531.889.464,1.231-.389,2a24.078,24.078,0,0,0-5.736,28.372c4.086,8.451,11,13.077,20.363,13.927a19.643,19.643,0,0,0,7.551-.717,1.462,1.462,0,0,0,.3-.017A24.169,24.169,0,0,0,68.334,64.742a23.758,23.758,0,0,0-8.41-20.52,1.347,1.347,0,0,1-.453-1.673c.8-.681,1.2-.7,1.968-.027A25.931,25.931,0,0,1,70.5,59.509,26.365,26.365,0,0,1,50.842,88.372a25.833,25.833,0,0,1-21.518-3.646c-.6-.393-.88-.332-1.341.153-1.32,1.389-2.693,2.729-4.059,4.073-.282.278-.41.443-.115.851a1.862,1.862,0,0,1-.279,2.537c-.911.944-1.85,1.859-2.777,2.787-3.229,3.228-6.441,6.472-9.691,9.678A6.378,6.378,0,0,1,.631,103.051,6.122,6.122,0,0,1,1.65,96.144c.972-1.122,2.082-2.125,3.131-3.18a1.193,1.193,0,0,1,1.7-.1c.476.835.438,1.172-.243,1.861-.92.931-1.872,1.831-2.768,2.784a4.039,4.039,0,0,0-.039,5.645,4.048,4.048,0,0,0,6.024.055q3.318-3.258,6.572-6.58c.527-.538,1.545-.991,1.412-1.685-.12-.63-1.016-1.111-1.57-1.657-.823-.841-1.642-1.687-2.472-2.522-.512-.515-1.021-1.395-1.566-1.422-.628-.032-1.071.934-1.633,1.426-.019.016-.035.036-.053.053-.692.672-1.02.713-1.856.233m17.762-8.808c-.6-.64-1.209-1.269-1.788-1.926-.262-.3-.428-.212-.659.021q-2.12,2.139-4.26,4.257c-.265.261-.241.429.012.664.6.564,1.191,1.146,1.785,1.72.719.844.719.844,1.476.087l3.611-3.611c.647-.647.647-.648-.176-1.213m-6.121,6.848c-1.233-1.25-2.475-2.492-3.693-3.757-.278-.288-.431-.2-.657.037q-.915.949-1.863,1.866c-.21.2-.3.341-.04.6,1.3,1.257,2.577,2.532,3.863,3.8.471.488.959.96,1.406,1.468.266.3.429.207.658-.03q.917-.952,1.869-1.87c.219-.211.3-.356.028-.6-.539-.488-1.049-1.008-1.571-1.514" transform="translate(0 -29.282)" fill="#030303"/>
        <path id="Trazado_133266" data-name="Trazado 133266" d="M95.469,83.709a19.642,19.642,0,0,1-7.551.717c-9.361-.85-16.276-5.476-20.363-13.927a24.077,24.077,0,0,1,5.736-28.372c.853-.773.92-1.115.389-2,.874-.227,1.4-1.012,2.194-1.373a2.059,2.059,0,0,1,.677-.291,36.074,36.074,0,0,0-.169,4.751.811.811,0,0,1-.38.681,20.984,20.984,0,0,0-7.633,17.468,21.209,21.209,0,0,0,29.54,18.33,2.452,2.452,0,0,1,.287-.082c-.032.649-.537,1.04-.842,1.54-.553.909-1.494,1.533-1.885,2.562" transform="translate(-45.417 -26.796)" fill="#f3eeec"/>
        <path id="Trazado_133267" data-name="Trazado 133267" d="M165.033,83.348c.391-1.029,1.331-1.653,1.885-2.562.3-.5.81-.891.842-1.54a22.456,22.456,0,0,0,8.188-6.523,21.178,21.178,0,0,0-3.064-28.995,1.412,1.412,0,0,1-.6-1.265,23.237,23.237,0,0,0-.236-4.521,8.411,8.411,0,0,1,2.406,1.761,1.347,1.347,0,0,0,.452,1.673,23.759,23.759,0,0,1,8.41,20.52,24.168,24.168,0,0,1-17.983,21.437,1.462,1.462,0,0,1-.3.017" transform="translate(-114.981 -26.435)" fill="#e9deda"/>
        <path id="Trazado_133268" data-name="Trazado 133268" d="M8.711,211.83a4.039,4.039,0,0,1,.039-5.645c.9-.953,1.849-1.853,2.768-2.784a1.226,1.226,0,0,0,.243-1.861l1.808-1.808c.836.48,1.164.439,1.856-.233.018-.017.034-.037.053-.053.562-.492,1-1.458,1.633-1.426.545.028,1.054.907,1.566,1.423.829.835,1.648,1.68,2.472,2.521-.2.227-.384.465-.6.678-2.422,2.428-4.872,4.828-7.262,7.285a5.856,5.856,0,0,1-4.58,1.9" transform="translate(-5.282 -137.962)" fill="#f1b457"/>
        <path id="Trazado_133269" data-name="Trazado 133269" d="M123.2,125.374a17.57,17.57,0,0,1-10.4,5.7c-7.67,1.219-13.915-1.344-18.7-7.472a1.82,1.82,0,0,1-.4-1.248,21.837,21.837,0,0,1,.2-3.92,6.063,6.063,0,0,1,3.4-4.187c1.684-.9,3.2-1.19,4.912.113,1.554,1.18,3.381,1.994,5.048,3.033a3.755,3.755,0,0,0,4.318,0c1.821-1.121,3.7-2.151,5.55-3.221.508.213,1.021.416,1.524.64a6.962,6.962,0,0,1,4.412,5.31,37.941,37.941,0,0,1,.142,5.258" transform="translate(-65.281 -79.06)" fill="#e8555a"/>
        <path id="Trazado_133270" data-name="Trazado 133270" d="M119.215,58.17a13.3,13.3,0,0,1-9.614-9.817,23.252,23.252,0,0,1-.093-3.469c-.008-.26.135-.361.35-.4A6.9,6.9,0,0,0,113.7,42.1a1.8,1.8,0,0,1,2.164-.553c.14.052.3.067.436.119a11.335,11.335,0,0,0,8.25-.019,2.23,2.23,0,0,1,2.867.738,7.827,7.827,0,0,0,1.662,1.406c-.006.654-.025,1.309-.014,1.963a7.305,7.305,0,0,1-.237,2.461,14.857,14.857,0,0,1-8.946,9.553c-.237.095-.577.046-.666.4" transform="translate(-76.282 -28.843)" fill="#f9e4c4"/>
        <path id="Trazado_133271" data-name="Trazado 133271" d="M129.107,17.094a4.336,4.336,0,0,0-5.15-1.149c-.661.234-1.369.332-2.04.542a7.062,7.062,0,0,1-3.928-.336c-.513-.127-1.022-.267-1.53-.412a3.866,3.866,0,0,0-4.127,1.145,6,6,0,0,1-2.14,1.64c-.321.122-.468.1-.426-.3.574-5.536,3.93-9.364,8.728-10.4a9.857,9.857,0,0,1,7.584,1.379.267.267,0,0,0,.286.183l0,0A.85.85,0,0,0,126.6,10a12.267,12.267,0,0,1,2.271,4.931,4.4,4.4,0,0,1,.233,2.165" transform="translate(-76.471 -5.284)" fill="#6f7fa4"/>
        <path id="Trazado_133272" data-name="Trazado 133272" d="M88.859,65.5a15.739,15.739,0,0,0,6.6,9.573c.279.2.338.358.182.677a2.134,2.134,0,0,1-1.476,1.268c-1.29.325-2.569.71-3.824,1.151-3.307,1.163-5.675,3.211-6.24,6.918-2.8-5.119,0-16.593,4.755-19.588" transform="translate(-57.821 -45.633)" fill="#4ca4f4"/>
        <path id="Trazado_133273" data-name="Trazado 133273" d="M186.571,67.771l.648-2.233c4.656,2.678,7.43,13.847,4.745,19.606a8.157,8.157,0,0,0-3.6-5.728,32.323,32.323,0,0,0-.469-6.354,22.407,22.407,0,0,0-1.323-5.291" transform="translate(-129.987 -45.661)" fill="#3281f1"/>
        <path id="Trazado_133274" data-name="Trazado 133274" d="M172.347,72.9a22.407,22.407,0,0,1,1.323,5.291,32.323,32.323,0,0,1,.469,6.354,25.466,25.466,0,0,0-6.543-2.4,1.789,1.789,0,0,1-.92-.476c-.73-.787-.7-1.115.143-1.746a16.915,16.915,0,0,0,5.528-7.02" transform="translate(-115.763 -50.791)" fill="#4ca4f4"/>
        <path id="Trazado_133275" data-name="Trazado 133275" d="M141.559,63.674c.089-.352.429-.3.666-.4a14.857,14.857,0,0,0,8.946-9.553,7.3,7.3,0,0,0,.237-2.461c-.011-.654.008-1.309.014-1.963a6.081,6.081,0,0,0,1.4.54c.815.1.87.546.867,1.233a12.835,12.835,0,0,1-8.862,12.4,5.783,5.783,0,0,1-3.266.208" transform="translate(-98.626 -34.347)" fill="#f3cfa7"/>
        <path id="Trazado_133276" data-name="Trazado 133276" d="M135.923,107.455q-2.1,1.257-4.2,2.513a1.061,1.061,0,0,1-1.146.009c-1.861-1.092-3.721-2.187-5.685-3.342a4.97,4.97,0,0,0,1.561-1.338,10.809,10.809,0,0,0,7.324.519.4.4,0,0,1,.555.236,2.691,2.691,0,0,0,1.591,1.4" transform="translate(-87.015 -73.363)" fill="#f3cfa7"/>
        <path id="Trazado_133277" data-name="Trazado 133277" d="M177.022,124.862a37.941,37.941,0,0,0-.142-5.258,6.962,6.962,0,0,0-4.412-5.31c-.5-.224-1.016-.427-1.524-.64.4-.254.808-.5,1.209-.762a.668.668,0,0,1,.569-.129,9.845,9.845,0,0,1,4.678,2.486,6.682,6.682,0,0,1,1.539,4.624,4.657,4.657,0,0,0,.007.68c.342,1.879-.671,3.147-1.925,4.31" transform="translate(-119.099 -78.549)" fill="#ce3634"/>
        <path id="Trazado_133278" data-name="Trazado 133278" d="M139.509,105.1a2.691,2.691,0,0,1-1.591-1.4.4.4,0,0,0-.555-.236,10.809,10.809,0,0,1-7.324-.519c.558-1.108.566-1.13,1.7-.726a8.974,8.974,0,0,0,6.539-.2c.456-.183.653-.126.847.323a3.9,3.9,0,0,0,1.8,1.914,5.222,5.222,0,0,1-1.415.85" transform="translate(-90.6 -71.003)" fill="#efba8a"/>
        <path id="Trazado_133279" data-name="Trazado 133279" d="M167.252,21.242a4.4,4.4,0,0,0-.233-2.165,12.267,12.267,0,0,0-2.271-4.931.85.85,0,0,1-.237-.607,9.79,9.79,0,0,1,3.954,4.617,11.934,11.934,0,0,1,1.053,3.912c.07.761,0,.8-.7.442a4.439,4.439,0,0,1-1.566-1.267" transform="translate(-114.616 -9.432)" fill="#4d6593"/>
        <path id="Trazado_133280" data-name="Trazado 133280" d="M163.852,13.112a.267.267,0,0,1-.286-.183.31.31,0,0,1,.286.183" transform="translate(-113.959 -9.008)" fill="#4d6593"/>
        <path id="Trazado_133281" data-name="Trazado 133281" d="M11.308,220.893a5.856,5.856,0,0,0,4.58-1.9c2.39-2.458,4.84-4.858,7.262-7.285.212-.212.4-.451.6-.678.554.547,1.45,1.028,1.57,1.657.133.694-.885,1.146-1.412,1.684q-3.254,3.322-6.572,6.581a4.048,4.048,0,0,1-6.024-.055" transform="translate(-7.878 -147.025)" fill="#ec9a37"/>
        <path id="Trazado_133282" data-name="Trazado 133282" d="M48.583,190.7c-1.286-1.269-2.565-2.545-3.863-3.8-.265-.256-.17-.393.04-.6q.946-.919,1.863-1.867c.226-.234.379-.325.657-.037,1.218,1.265,2.46,2.507,3.693,3.757a12.546,12.546,0,0,1-2.39,2.545" transform="translate(-31.044 -128.349)" fill="#f3eeec"/>
        <path id="Trazado_133283" data-name="Trazado 133283" d="M65.138,174.5c-.594-.575-1.181-1.156-1.784-1.72-.253-.236-.277-.4-.012-.665Q65.488,170,67.6,167.86c.231-.233.4-.318.659-.021.579.657,1.19,1.286,1.788,1.926-.138.053-.314.069-.409.166-1.5,1.523-3.091,2.96-4.5,4.571" transform="translate(-44 -116.804)" fill="#6f7fa4"/>
        <path id="Trazado_133284" data-name="Trazado 133284" d="M57.828,199.749a12.546,12.546,0,0,0,2.39-2.545c.522.506,1.032,1.026,1.571,1.514.268.243.191.388-.028.6q-.951.918-1.869,1.87c-.229.238-.392.333-.658.031-.447-.508-.935-.981-1.406-1.468" transform="translate(-40.29 -137.395)" fill="#e9deda"/>
        <path id="Trazado_133285" data-name="Trazado 133285" d="M69.7,179.364c1.412-1.611,3-3.048,4.5-4.571.095-.1.271-.112.409-.166.823.565.823.566.176,1.213l-3.611,3.611c-.757.757-.757.757-1.476-.087" transform="translate(-48.559 -121.665)" fill="#4d6593"/>
      </g>
    </g>
  </g>
</svg>
