<svg xmlns="http://www.w3.org/2000/svg" xmlns:xlink="http://www.w3.org/1999/xlink" width="96" height="96" viewBox="0 0 96 96">
  <defs>
    <clipPath id="clip-path">
      <rect id="Rect치ngulo_36769" data-name="Rect치ngulo 36769" width="96" height="96" fill="#fff" stroke="#707070" stroke-width="1"/>
    </clipPath>
    <clipPath id="clip-path-2">
      <rect id="Rect치ngulo_36933" data-name="Rect치ngulo 36933" width="77.26" height="72.417" fill="none"/>
    </clipPath>
  </defs>
  <g id="Grupo_86121" data-name="Grupo 86121" clip-path="url(#clip-path)">
    <g id="Grupo_86731" data-name="Grupo 86731" transform="translate(9.37 11.791)">
      <g id="Grupo_86730" data-name="Grupo 86730" clip-path="url(#clip-path-2)">
        <path id="Trazado_130903" data-name="Trazado 130903" d="M45.894,66.382c-.055,1.2-.055,1.2-1.244,1.2H6.552C2.519,67.581,0,65.075,0,61.061Q0,36.171,0,11.282A6.01,6.01,0,0,1,5.635,4.853c.413-.055.407-.239.4-.533-.008-.98-.013-1.961,0-2.941C6.051.474,6.488,0,7.368,0c6.825,0,13.618.321,20.26,2.091A35.887,35.887,0,0,1,38.141,6.668a.708.708,0,0,0,.926.037A39.411,39.411,0,0,1,54.425,1.058,91.608,91.608,0,0,1,69.6,0c1.233,0,1.616.385,1.619,1.622,0,.88.015,1.76-.006,2.64-.009.377.04.547.5.6a6,6,0,0,1,5.54,6.215q.01,16.178,0,32.356c0,1.189,0,1.189-1.2,1.244-1.215-.056-1.215-.056-1.215-1.255q0-16.165,0-32.331a3.617,3.617,0,0,0-2.7-3.716c-.908-.252-.923-.242-.923.7q0,15.864,0,31.728c0,1.2,0,1.2-1.214,1.256-1.2-.057-1.2-.057-1.2-1.249q0-18.287.013-36.575c0-.624-.092-.846-.8-.832A84.59,84.59,0,0,0,53.771,3.632a37.168,37.168,0,0,0-13.3,5.022,1.233,1.233,0,0,0-.651,1.2q.026,24.321.014,48.641v.8c1.043-.557,2-1.086,2.978-1.585,1.255-.642,1.26-.632,1.924.536.012.021.037.034.056.05.015.1,0,.218.05.289.443.612.087.821-.45,1.054a22.867,22.867,0,0,0-3.357,1.8,1.7,1.7,0,0,0-1.21,2.084,3.5,3.5,0,0,1,0,.978c-.058.519.117.7.659.683,1.382-.038,2.765-.013,4.148-.013,1.2,0,1.2,0,1.257,1.215m-8.516-7.106a2.668,2.668,0,0,0,.042-.3q0-24.7.014-49.4a.874.874,0,0,0-.5-.823A33.633,33.633,0,0,0,27.91,4.686C21.7,2.879,15.312,2.49,8.89,2.4c-.481-.006-.441.247-.441.561q0,24.775-.011,49.551c0,.542.207.6.65.595,2.314-.006,4.624.1,6.932.264,7.488.521,14.722,1.96,21.358,5.9M2.415,36.2q0,12.445,0,24.89c0,2.611,1.452,4.071,4.049,4.071H35.888c1.534,0,1.495,0,1.55-1.515.026-.707-.134-.92-.887-.917-8.45.031-16.9.021-25.35.018-1.138,0-1.541-.406-1.544-1.544,0-1.71-.012-3.419.007-5.129,0-.416-.105-.59-.545-.568-.577.029-1.157.013-1.735,0a1.218,1.218,0,0,1-1.347-1.36c-.014-.88,0-1.76,0-2.64q0-21.723,0-43.445c0-.944,0-.944-.921-.694a3.6,3.6,0,0,0-2.7,3.642q-.006,12.6,0,25.192M34.071,60.34l.014-.13c-.54-.256-1.074-.526-1.621-.765-6.348-2.767-13.068-3.6-19.905-3.822-.435-.014-.5.175-.491.534.014,1.18.034,2.362-.008,3.541-.02.552.178.658.685.653,2.362-.025,4.723-.011,7.085-.011H34.071" transform="translate(0 0.001)" fill="#020202"/>
        <path id="Trazado_130904" data-name="Trazado 130904" d="M180.509,159.437a1.944,1.944,0,0,1-.744,1.781c-.915.858-1.779,1.771-2.67,2.655-.933.927-1.432.93-2.348.024a5.21,5.21,0,0,1-.633-.643,1.642,1.642,0,0,0-2.544-.574c-.375.239-.622.357-.591.849.047.725.022,1.455.01,2.183a1.218,1.218,0,0,1-1.329,1.375q-2.3.024-4.595,0a1.2,1.2,0,0,1-1.314-1.312,6.972,6.972,0,0,1,.007-1.279c.176-1.138-.133-1.858-1.372-2.148-.481-.113-.747-.16-1.078.22-.428.491-.909.937-1.376,1.393-.826.806-1.371.806-2.187.009l-3.013-2.942c-.748-1.058-.72-1.37.2-2.3a12.876,12.876,0,0,1,1.168-1.149.842.842,0,0,0,.173-1.366c-.4-1.191-.4-1.191-1.614-1.191-.5,0-1,0-1.5,0-1.041-.011-1.464-.427-1.483-1.448-.007-.375-.018-.751-.026-1.126.009-.753.024-1.507.025-2.261,0-2.314.1-2.5,2.417-2.37,1.321.074,2.091-.256,2.41-1.582a.658.658,0,0,0-.175-.768c-.547-.519-1.079-1.054-1.6-1.6a1.237,1.237,0,0,1,.012-2.024c.772-.792,1.562-1.567,2.344-2.349,1.719-1.719,1.807-1.718,3.527.016,1.144,1.153,1.136,1.132,2.658.568a.654.654,0,0,0,.492-.77c-.027-.728-.016-1.458-.005-2.187.013-.949.444-1.4,1.372-1.409q2.263-.02,4.525,0a1.216,1.216,0,0,1,1.34,1.367c.014.779.024,1.559-.006,2.337-.014.367.171.471.448.649,1.168.749,2.01.422,2.8-.614a2.6,2.6,0,0,1,1.575-1.214,1.451,1.451,0,0,1,1.021.414c1.1,1.1,2.215,2.191,3.3,3.312a1.181,1.181,0,0,1,.036,1.758c-.291.345-.625.654-.945.973-1.11,1.106-1.095,1.1-.526,2.57a.663.663,0,0,0,.758.523c.8-.041,1.607-.024,2.411-.031.948.255,1.2.563,1.2,1.529q.008,2.112,0,4.223c0,.966-.25,1.273-1.2,1.53a8.211,8.211,0,0,1-1.346-.032,1.69,1.69,0,0,0-2.23,1.469c-.09.379-.163.607.154.9.711.662,1.382,1.367,2.069,2.055m-11.932-19.73c0-1.583,0-1.583-1.612-1.58a3.327,3.327,0,0,1-.377,0c-.331-.037-.439.108-.43.432.018.7,0,1.407.007,2.111a1.232,1.232,0,0,1-.983,1.335,11.751,11.751,0,0,0-2.976,1.241,1.156,1.156,0,0,1-1.457-.18c-.223-.2-.43-.423-.643-.636-1.305-1.3-1.305-1.3-2.578.041a.98.98,0,0,1-.106.107c-.268.208-.221.389.009.608.509.486,1,.994,1.5,1.488a1.253,1.253,0,0,1,.214,1.7,10.016,10.016,0,0,0-1.149,2.769,1.275,1.275,0,0,1-1.435,1.054c-.226-.011-.452,0-.679,0-1.843,0-1.821,0-1.8,1.858.005.5.185.584.615.564.627-.03,1.257.008,1.885-.011A1.286,1.286,0,0,1,158,153.68a9.875,9.875,0,0,0,.855,2.244c.773,1.451.763,1.523-.418,2.7-1.353,1.352-1.345,1.343.006,2.637.3.285.485.341.78.013.419-.467.878-.9,1.327-1.338a1.271,1.271,0,0,1,1.873-.259,9.92,9.92,0,0,0,2.057.92c1.642.492,1.686.544,1.686,2.234,0,1.968,0,1.957,1.951,1.854.358-.019.482-.118.47-.476-.023-.678.007-1.357-.01-2.035a1.255,1.255,0,0,1,1.023-1.382,10.441,10.441,0,0,0,2.837-1.184,1.224,1.224,0,0,1,1.64.209c.177.178.357.354.535.531,1.392,1.391,1.383,1.383,2.693-.087.244-.274.236-.431-.017-.671-.511-.483-1-.992-1.5-1.489a1.22,1.22,0,0,1-.208-1.639,10.575,10.575,0,0,0,1.177-2.839,1.249,1.249,0,0,1,1.385-1.018c.276.011.553,0,.829,0,1.683,0,1.661,0,1.688-1.667.009-.558-.093-.823-.725-.76-.6.06-1.205,0-1.808.015a1.261,1.261,0,0,1-1.371-1.04,10.547,10.547,0,0,0-1.185-2.836,1.217,1.217,0,0,1,.231-1.636,14.8,14.8,0,0,1,1.289-1.267c.616-.472.409-.886-.091-1.126s-.615-1.641-1.608-.625c-.4.413-.825.81-1.222,1.23a1.309,1.309,0,0,1-1.822.252,9.419,9.419,0,0,0-2.7-1.119,1.273,1.273,0,0,1-1.072-1.419c.013-.3,0-.6,0-.9" transform="translate(-105.806 -94.682)" fill="#020202"/>
        <path id="Trazado_130905" data-name="Trazado 130905" d="M237.622,69.77c-.8.007-1.609-.011-2.411.031a.663.663,0,0,1-.757-.523c-.569-1.472-.584-1.464.526-2.57.32-.319.654-.628.945-.973a1.181,1.181,0,0,0-.036-1.758c-1.082-1.12-2.2-2.209-3.3-3.312a1.451,1.451,0,0,0-1.021-.413q0-1.253,0-2.506c1.214-.057,1.214-.057,1.214-1.256q0-15.864,0-31.728c0-.939.015-.95.924-.7a3.617,3.617,0,0,1,2.7,3.716q0,16.165,0,32.331c0,1.2,0,1.2,1.215,1.255v8.4" transform="translate(-161.566 -16.691)" fill="#69c3b4"/>
        <path id="Trazado_130906" data-name="Trazado 130906" d="M142.294,203.321a.843.843,0,0,1-.173,1.366,12.919,12.919,0,0,0-1.168,1.149c-.924.928-.952,1.24-.2,2.3l-3.032.038c-.056-1.215-.056-1.215-1.257-1.215-1.383,0-2.766-.025-4.148.013-.543.015-.718-.164-.659-.683a3.509,3.509,0,0,0,0-.978,1.7,1.7,0,0,1,1.21-2.084.686.686,0,0,0,.5.111l8.935-.015" transform="translate(-91.823 -141.789)" fill="#69c2b4"/>
        <path id="Trazado_130907" data-name="Trazado 130907" d="M241.805,203.858c-.687-.687-1.358-1.393-2.069-2.055-.317-.3-.244-.522-.154-.9a1.69,1.69,0,0,1,2.23-1.47,8.209,8.209,0,0,0,1.346.032,6.012,6.012,0,0,1-.759,3.749c-.168.239-.276.541-.595.644" transform="translate(-167.102 -139.104)" fill="#69c1b3"/>
        <path id="Trazado_130908" data-name="Trazado 130908" d="M56.849,64.828c-6.636-3.94-13.87-5.38-21.358-5.9-2.308-.161-4.618-.27-6.932-.263-.443,0-.651-.053-.65-.6q.025-24.775.011-49.551c0-.314-.04-.568.441-.561,6.422.086,12.806.475,19.02,2.281a33.636,33.636,0,0,1,9.024,4.071.874.874,0,0,1,.5.823q-.021,24.7-.014,49.4a2.758,2.758,0,0,1-.042.3M33.479,17.645c-.572-.159-.774.106-.726.7a6.134,6.134,0,0,1-.029,1.129c-.041.395.034.57.5.59,1.356.058,2.71.163,4.061.281a46.358,46.358,0,0,1,13.425,2.875c.716.288,1,.217,1.271-.528.523-1.411.571-1.384-.807-1.905-5.689-2.15-11.644-2.8-17.694-3.14m.127,6.037c-.822-.047-.822-.047-.847.756-.012.4,0,.806-.039,1.206-.029.329.086.426.414.444q2.033.114,4.062.284a49.648,49.648,0,0,1,12.737,2.557c.552.2,1.193.758,1.638.486.424-.258.514-1.043.783-1.58.173-.345.137-.526-.257-.658-1.045-.352-2.067-.777-3.119-1.105a62.894,62.894,0,0,0-15.371-2.389m-.029,6.038c-.638-.2-.9.08-.827.788a5.79,5.79,0,0,1-.029,1.13c-.036.358.084.467.448.487q2.032.108,4.061.284a49.676,49.676,0,0,1,12.735,2.566c.534.192,1.171.737,1.569.495.426-.258.53-1.03.8-1.562.187-.365.145-.57-.272-.711-.9-.3-1.785-.67-2.691-.964a61.845,61.845,0,0,0-15.8-2.512M32.738,37a1.793,1.793,0,0,1,0,.376c-.139.633.13.788.742.805,1.255.034,2.508.155,3.76.262A49.711,49.711,0,0,1,49.971,41.01c.533.192,1.154.719,1.573.49s.5-.989.768-1.494c.23-.428.154-.628-.317-.81a44.46,44.46,0,0,0-5.81-1.826,72.416,72.416,0,0,0-12.088-1.6c-1.316-.083-1.314-.118-1.358,1.223m.761,4.785c-.647-.2-.784.159-.745.749a6.563,6.563,0,0,1-.031,1.13c-.041.382.068.514.478.534,1.355.065,2.71.165,4.061.283a45.921,45.921,0,0,1,13.424,2.874c.781.317,1.039.171,1.318-.574.509-1.362.554-1.336-.809-1.851-5.689-2.148-11.643-2.809-17.7-3.144M34.717,47.9c-.5-.033-1.005-.048-1.5-.1-.411-.045-.5.192-.436.5.13.635-.424,1.353.231,1.916.044.038.147.007.222.012,1.354.1,2.709.177,4.061.3a46.266,46.266,0,0,1,13.424,2.878c.731.295.995.192,1.268-.537.526-1.4.57-1.377-.814-1.9A55.753,55.753,0,0,0,34.717,47.9" transform="translate(-19.471 -5.551)" fill="#f5f8fb"/>
        <path id="Trazado_130909" data-name="Trazado 130909" d="M161.913,46.589l0,2.506a2.6,2.6,0,0,0-1.575,1.214c-.794,1.037-1.636,1.363-2.8.614-.278-.178-.463-.282-.449-.649.03-.778.02-1.558.006-2.337a1.216,1.216,0,0,0-1.34-1.366q-2.263-.023-4.526,0c-.928.008-1.359.46-1.372,1.409-.01.729-.021,1.459.005,2.187a.653.653,0,0,1-.492.77c-1.521.564-1.513.585-2.658-.568-1.72-1.734-1.808-1.734-3.527-.016-.782.782-1.572,1.557-2.344,2.349a1.238,1.238,0,0,0-.012,2.024c.524.543,1.056,1.077,1.6,1.6a.658.658,0,0,1,.175.768c-.319,1.326-1.089,1.656-2.409,1.582-2.318-.13-2.413.056-2.417,2.37,0,.754-.017,1.507-.026,2.261-.361.154-.81.134-1.051.529-.019-.016-.044-.029-.056-.05-.663-1.168-.669-1.179-1.924-.536-.975.5-1.935,1.028-2.978,1.585v-.8q0-24.321-.014-48.641a1.233,1.233,0,0,1,.651-1.2,37.173,37.173,0,0,1,13.3-5.022,84.59,84.59,0,0,1,14.251-1.235c.706-.014.8.207.8.832q-.027,18.288-.013,36.575c0,1.192,0,1.192,1.2,1.249m-6.027-21.709c-.031-1.3-.03-1.286-1.314-1.175-1.626.141-3.258.222-4.882.388a49,49,0,0,0-11.885,2.58c-1.772.648-1.752.647-.991,2.386.19.433.364.48.774.307a35.532,35.532,0,0,1,6.543-1.973,69.389,69.389,0,0,1,10.61-1.268c1.173-.062,1.171-.1,1.144-1.246m-.008,6.074a2.3,2.3,0,0,1,0-.376c.135-.8-.239-.957-.97-.882-1.749.18-3.508.253-5.256.434a49.021,49.021,0,0,0-11.883,2.588c-1.729.633-1.708.634-.976,2.34.2.454.374.527.826.334a34.474,34.474,0,0,1,6.469-1.956,69.7,69.7,0,0,1,10.684-1.279c1.138-.061,1.136-.1,1.1-1.2m.008,6c-.031-1.308-.03-1.294-1.307-1.182-1.626.141-3.258.222-4.881.389a48.987,48.987,0,0,0-11.885,2.578c-1.776.649-1.757.648-1,2.382.185.423.349.494.77.316a35.4,35.4,0,0,1,6.542-1.974,69.187,69.187,0,0,1,10.61-1.268c1.18-.062,1.178-.1,1.151-1.24M155.88,43c0-.1,0-.2,0-.3-.025-.992-.026-.994-.987-.92-1.753.135-3.509.237-5.257.42a48.964,48.964,0,0,0-11.811,2.57c-1.785.653-1.761.649-1.02,2.376.21.488.42.482.837.3a35.1,35.1,0,0,1,6.471-1.95A70.168,70.168,0,0,1,154.8,44.221c1.117-.061,1.115-.1,1.082-1.22m0-24.13a2.171,2.171,0,0,1,0-.376c.15-.839-.286-.932-.984-.863-1.749.171-3.508.249-5.256.431a48.937,48.937,0,0,0-11.811,2.569c-1.825.667-1.805.665-1,2.441.19.418.367.419.732.266a36.481,36.481,0,0,1,6.617-1.988,70.445,70.445,0,0,1,10.61-1.264c1.124-.062,1.122-.1,1.087-1.215" transform="translate(-91.906 -5.534)" fill="#dfe2ea"/>
        <path id="Trazado_130910" data-name="Trazado 130910" d="M7.988,52.892q0-12.6,0-25.192a3.6,3.6,0,0,1,2.7-3.642c.92-.25.921-.25.921.694q0,21.723,0,43.446c0,.88-.011,1.76,0,2.64a1.217,1.217,0,0,0,1.346,1.36c.578.015,1.158.031,1.735,0,.44-.022.55.152.545.568-.02,1.709-.011,3.419-.007,5.129,0,1.138.406,1.544,1.544,1.544,8.45,0,16.9.012,25.349-.018.753,0,.913.21.887.917-.055,1.514-.016,1.515-1.55,1.515H12.037c-2.6,0-4.049-1.46-4.049-4.071q0-12.445,0-24.89" transform="translate(-5.572 -16.686)" fill="#7fdcbf"/>
        <path id="Trazado_130911" data-name="Trazado 130911" d="M61.9,188.713H47.657c-2.362,0-4.723-.014-7.085.011-.507.005-.7-.1-.685-.653.043-1.179.022-2.361.008-3.541,0-.359.056-.548.491-.534,6.838.224,13.557,1.056,19.905,3.822.547.239,1.081.509,1.621.765l-.014.13" transform="translate(-27.828 -128.372)" fill="#afb3c4"/>
        <path id="Trazado_130912" data-name="Trazado 130912" d="M139.505,191.616c.24-.395.69-.375,1.051-.529.009.375.02.751.027,1.126.018,1.021.441,1.437,1.482,1.448.5.005,1,0,1.5,0,1.214,0,1.214,0,1.614,1.191l-8.935.015a.686.686,0,0,1-.5-.112,22.848,22.848,0,0,1,3.356-1.8c.537-.233.893-.441.45-1.054-.051-.071-.035-.192-.05-.289" transform="translate(-94.712 -133.321)" fill="#afb2c4"/>
        <path id="Trazado_130913" data-name="Trazado 130913" d="M174.168,145.276c0,.3.011.6,0,.9a1.273,1.273,0,0,0,1.072,1.419,9.417,9.417,0,0,1,2.7,1.119,1.309,1.309,0,0,0,1.822-.252c.4-.42.818-.817,1.222-1.23.993-1.016,1.1.38,1.608.625s.707.654.091,1.126a14.89,14.89,0,0,0-1.289,1.267,1.217,1.217,0,0,0-.231,1.636,10.545,10.545,0,0,1,1.185,2.836,1.261,1.261,0,0,0,1.371,1.04c.6-.014,1.211.045,1.808-.015.632-.064.734.2.725.76-.027,1.667-.005,1.667-1.688,1.667-.276,0-.553.009-.829,0a1.249,1.249,0,0,0-1.385,1.018,10.56,10.56,0,0,1-1.177,2.839,1.221,1.221,0,0,0,.208,1.639c.5.5.985,1.005,1.5,1.489.253.239.261.4.017.67-1.31,1.47-1.3,1.478-2.693.087-.178-.178-.357-.354-.535-.532a1.224,1.224,0,0,0-1.64-.209,10.452,10.452,0,0,1-2.837,1.184,1.255,1.255,0,0,0-1.023,1.382c.017.678-.013,1.357.01,2.035.012.359-.112.458-.469.477-1.952.1-1.951.114-1.951-1.855,0-1.69-.044-1.742-1.686-2.234a9.941,9.941,0,0,1-2.057-.92,1.271,1.271,0,0,0-1.873.259c-.449.44-.908.871-1.327,1.338-.3.329-.483.272-.78-.012-1.35-1.294-1.359-1.285-.006-2.637,1.181-1.18,1.191-1.252.418-2.7a9.883,9.883,0,0,1-.855-2.244,1.286,1.286,0,0,0-1.421-1.074c-.628.019-1.258-.018-1.885.011-.43.021-.61-.066-.615-.564-.019-1.858-.041-1.858,1.8-1.858.226,0,.453-.009.679,0a1.276,1.276,0,0,0,1.435-1.054,10.017,10.017,0,0,1,1.149-2.769,1.253,1.253,0,0,0-.214-1.7c-.5-.494-.988-1-1.5-1.488-.23-.219-.277-.4-.009-.608a1.014,1.014,0,0,0,.106-.107c1.273-1.345,1.273-1.345,2.578-.041.213.213.42.434.643.636a1.155,1.155,0,0,0,1.457.18,11.752,11.752,0,0,1,2.976-1.241,1.232,1.232,0,0,0,.983-1.336c-.011-.7.011-1.408-.007-2.111-.008-.324.1-.469.43-.432a3.485,3.485,0,0,0,.377,0c1.612,0,1.612,0,1.612,1.58m-8.449,11.66a7.242,7.242,0,1,0,7.275-7.2,7.248,7.248,0,0,0-7.275,7.2" transform="translate(-111.397 -100.251)" fill="#f4c879"/>
        <path id="Trazado_130914" data-name="Trazado 130914" d="M44.574,39.9c6.05.338,12.005.99,17.694,3.14,1.378.521,1.33.494.807,1.9-.276.745-.555.817-1.271.528A46.354,46.354,0,0,0,48.379,42.6c-1.352-.118-2.706-.223-4.061-.281-.464-.02-.54-.2-.5-.59a6.135,6.135,0,0,0,.029-1.129c-.048-.592.154-.856.726-.7" transform="translate(-30.566 -27.807)" fill="#020202"/>
        <path id="Trazado_130915" data-name="Trazado 130915" d="M44.7,59.939a62.923,62.923,0,0,1,15.371,2.389c1.052.329,2.074.753,3.119,1.105.394.133.43.313.257.658-.269.537-.359,1.322-.783,1.58-.445.272-1.086-.288-1.638-.486a49.637,49.637,0,0,0-12.737-2.557q-2.028-.172-4.062-.284c-.328-.018-.443-.115-.414-.444.035-.4.027-.8.039-1.206.024-.8.025-.8.847-.756" transform="translate(-30.569 -41.808)" fill="#020202"/>
        <path id="Trazado_130916" data-name="Trazado 130916" d="M44.674,79.8a61.849,61.849,0,0,1,15.8,2.512c.906.294,1.788.66,2.691.964.418.141.459.346.272.711-.273.532-.377,1.3-.8,1.562-.4.242-1.036-.3-1.569-.495a49.66,49.66,0,0,0-12.735-2.566q-2.028-.173-4.062-.284c-.364-.02-.484-.129-.448-.487a5.786,5.786,0,0,0,.029-1.129c-.069-.708.189-.992.827-.788" transform="translate(-30.567 -55.632)" fill="#020202"/>
        <path id="Trazado_130917" data-name="Trazado 130917" d="M43.793,101.125c.044-1.342.042-1.306,1.358-1.223a72.424,72.424,0,0,1,12.088,1.6,44.457,44.457,0,0,1,5.81,1.826c.472.182.548.381.318.81-.271.505-.362,1.272-.768,1.494s-1.04-.3-1.573-.49a49.711,49.711,0,0,0-12.735-2.568c-1.252-.107-2.505-.228-3.76-.262-.612-.017-.881-.172-.742-.805a1.794,1.794,0,0,0,0-.376" transform="translate(-30.527 -69.677)" fill="#020202"/>
        <path id="Trazado_130918" data-name="Trazado 130918" d="M44.593,119.724c6.055.335,12.008,1,17.7,3.144,1.363.515,1.318.489.809,1.852-.278.745-.536.891-1.318.574a45.921,45.921,0,0,0-13.424-2.874c-1.352-.118-2.706-.217-4.061-.283-.41-.02-.519-.151-.478-.534a6.592,6.592,0,0,0,.031-1.13c-.04-.589.1-.949.745-.749" transform="translate(-30.566 -83.492)" fill="#020202"/>
        <path id="Trazado_130919" data-name="Trazado 130919" d="M45.731,139.831a55.753,55.753,0,0,1,16.451,3.056c1.385.523,1.34.5.814,1.9-.273.729-.537.832-1.268.537A46.266,46.266,0,0,0,48.3,142.447c-1.352-.118-2.707-.2-4.061-.3-.075-.005-.177.026-.222-.012-.655-.563-.1-1.281-.231-1.916-.062-.3.025-.54.436-.5.5.055,1,.07,1.5.1" transform="translate(-30.486 -97.484)" fill="#020202"/>
        <path id="Trazado_130920" data-name="Trazado 130920" d="M166.494,61.173c.027,1.145.029,1.185-1.144,1.246a69.416,69.416,0,0,0-10.61,1.268A35.558,35.558,0,0,0,148.2,65.66c-.41.173-.585.126-.774-.307-.761-1.739-.781-1.738.991-2.386a49.011,49.011,0,0,1,11.885-2.58c1.623-.167,3.255-.247,4.881-.388,1.284-.112,1.283-.127,1.314,1.174" transform="translate(-102.514 -41.828)" fill="#020202"/>
        <path id="Trazado_130921" data-name="Trazado 130921" d="M166.49,81.143c.034,1.1.036,1.141-1.1,1.2A69.7,69.7,0,0,0,154.7,83.625a34.471,34.471,0,0,0-6.469,1.956c-.453.193-.631.121-.826-.334-.732-1.706-.753-1.707.975-2.34a49.01,49.01,0,0,1,11.883-2.588c1.748-.181,3.507-.255,5.256-.434.731-.075,1.105.077.97.882a2.333,2.333,0,0,0,0,.376" transform="translate(-102.518 -55.724)" fill="#020202"/>
        <path id="Trazado_130922" data-name="Trazado 130922" d="M166.5,101.1c.027,1.139.029,1.178-1.151,1.24a69.231,69.231,0,0,0-10.61,1.268,35.381,35.381,0,0,0-6.542,1.974c-.42.177-.585.107-.77-.316-.758-1.733-.777-1.733,1-2.382a48.985,48.985,0,0,1,11.885-2.579c1.623-.167,3.255-.247,4.881-.389,1.278-.111,1.276-.126,1.307,1.182" transform="translate(-102.517 -69.68)" fill="#020202"/>
        <path id="Trazado_130923" data-name="Trazado 130923" d="M166.5,121.054c.033,1.12.035,1.159-1.083,1.22a70.091,70.091,0,0,0-10.684,1.278,35.1,35.1,0,0,0-6.471,1.95c-.417.177-.628.183-.837-.3-.741-1.727-.765-1.723,1.02-2.376a48.951,48.951,0,0,1,11.81-2.57c1.748-.183,3.5-.284,5.257-.42.962-.074.962-.072.988.92,0,.1,0,.2,0,.3" transform="translate(-102.526 -83.587)" fill="#020202"/>
        <path id="Trazado_130924" data-name="Trazado 130924" d="M166.451,41.214c.035,1.114.037,1.153-1.087,1.215a70.444,70.444,0,0,0-10.61,1.264,36.481,36.481,0,0,0-6.617,1.988c-.365.153-.542.152-.732-.266-.807-1.776-.827-1.773,1-2.441a48.937,48.937,0,0,1,11.811-2.569c1.748-.182,3.507-.26,5.256-.431.7-.068,1.134.024.984.863a2.171,2.171,0,0,0,0,.376" transform="translate(-102.479 -27.877)" fill="#020202"/>
        <path id="Trazado_130925" data-name="Trazado 130925" d="M179.693,170.881a7.242,7.242,0,1,1,7.206,7.273,7.254,7.254,0,0,1-7.206-7.273m11.362-2.421a4.781,4.781,0,0,0-8.611.785,4.735,4.735,0,0,0,1.757,5.643,4.805,4.805,0,0,0,6.855-6.428" transform="translate(-125.371 -114.197)" fill="#020202"/>
        <path id="Trazado_130926" data-name="Trazado 130926" d="M196.637,179.5a4.805,4.805,0,0,1-6.855,6.428,4.735,4.735,0,0,1-1.757-5.643,7.26,7.26,0,0,1,.736-.131c2.392-.185,4.775-.5,7.181-.469.245,0,.511.053.695-.185" transform="translate(-130.953 -125.236)" fill="#afb2c4"/>
        <path id="Trazado_130927" data-name="Trazado 130927" d="M197.4,174.049c-.184.238-.45.189-.7.185-2.406-.036-4.789.284-7.181.469a7.259,7.259,0,0,0-.736.131,4.781,4.781,0,0,1,8.611-.785" transform="translate(-131.719 -119.785)" fill="#dde0e8"/>
      </g>
    </g>
  </g>
</svg>
