<svg xmlns="http://www.w3.org/2000/svg" width="90.997" height="90.997" viewBox="0 0 90.997 90.997">
  <g id="Grupo_86478" data-name="Grupo 86478" transform="translate(-0.278 -0.277)">
    <circle id="Elipse_5411" data-name="Elipse 5411" cx="45.498" cy="45.498" r="45.498" transform="translate(0.278 0.277)" fill="#2ff980"/>
    <g id="Grupo_86509" data-name="Grupo 86509" transform="translate(-5479.083 8337.907)">
      <path id="Trazado_130231" data-name="Trazado 130231" d="M683.631,70.61a1.288,1.288,0,0,1-1.852-.25c-.442-.575-.326-1.146.361-1.832q7.052-7.038,14.112-14.068a2.365,2.365,0,0,1,3.668-.019c.54.517,1.081,1.441,1.625,1.444.692,0,1.154-.992,1.746-1.524a6.141,6.141,0,0,0,2.2-6.332c-.2-.863-.319-1.747-.487-2.618a15.21,15.21,0,0,1,.731-7.224,9.287,9.287,0,0,0-.212-6.03c-.816-2.207-1.54-4.451-2.216-6.706a3.3,3.3,0,0,1,3.386-4.473,5.928,5.928,0,0,1,2.193.427,12.94,12.94,0,0,1,7.948,9.1c.507,1.843.9,3.717,1.355,5.576.044.183.116.358.235.719,1.041-1.084,1.987-2.095,2.963-3.078,1.9-1.913,3.827-3.8,5.716-5.721a1.469,1.469,0,0,1,2.062-.347c.564.95.525,1.321-.267,2.114-2.907,2.905-5.782,5.845-8.754,8.683a2.7,2.7,0,0,0-.9,2.8,19.876,19.876,0,0,1-.542,10.194c-.439,1.292-1.225,1.525-2.328.687a1.826,1.826,0,0,1-.056-1.442,17.666,17.666,0,0,0,.611-8.134,98.839,98.839,0,0,0-2.673-11.9,10.182,10.182,0,0,0-5.547-6.613,3.6,3.6,0,0,0-2.226-.509c-.895.2-1.04.472-.7,1.5.713,2.185,1.4,4.381,2.187,6.54a10.408,10.408,0,0,1,.239,6.936,16.331,16.331,0,0,0-.278,9.1,8.031,8.031,0,0,1-2.241,7.878c-.619.638-1.223,1.3-1.885,1.885-.429.382-.35.6.021.961,1.734,1.683,3.429,3.407,5.163,5.09a1.464,1.464,0,0,1,.349,2.061c-.944.564-1.326.534-2.117-.268-3-3.045-5.992-6.1-9.06-9.231-1.557,1.587-2.954,3.053-4.406,4.465-.47.457-.535.69-.025,1.192,3.742,3.682,7.444,7.4,11.165,11.108q3.9,3.877,7.809,7.738c1.009,1.023,2.029,2.036,3.019,3.076.3.311.458.234.719-.031q2.071-2.1,4.176-4.166c.269-.264.334-.441.026-.731-.983-.929-1.943-1.884-2.911-2.828-1.962-1.98-3.912-3.97-5.892-5.932a1.432,1.432,0,0,1-.309-2.047c.95-.553,1.29-.509,2.1.278q1.768,1.729,3.534,3.459c.5.519,1.022,1.018,1.488,1.564.433.508.724.614,1.3.078a19.109,19.109,0,0,1,6.974-4.1,27.873,27.873,0,0,0,4.163-1.667c4.573-2.422,7.586-6.6,11.453-10.053a6.1,6.1,0,0,1-2.995-1.934,5.327,5.327,0,0,1-1.014-2.857c.009-.5-.119-.628-.636-.665a5.261,5.261,0,0,1-4.98-4.922c-.042-.54-.175-.671-.706-.7a5.225,5.225,0,0,1-4.891-5.155A5.72,5.72,0,0,1,729.3,37q7.978-7.94,15.939-15.9a7.144,7.144,0,0,0,.878-1,2.587,2.587,0,0,0-.385-3.407c-1.163-1.111-2.684-1.026-3.989.267-2.9,2.875-5.788,5.769-8.685,8.65-.818.813-1.258.838-2.163.167a1.385,1.385,0,0,1,.255-1.812c3.061-3.032,6.056-6.133,9.188-9.087a5.137,5.137,0,0,1,8.587,2.484,5.065,5.065,0,0,1-1.508,5.1c-1.577,1.606-3.183,3.184-4.775,4.776-.156.155-.3.317-.465.485,3.416,1.3,4.914,4.585,3.082,7.981a5.339,5.339,0,0,1,3.993,4.777,4.611,4.611,0,0,1-.59,2.726c-.2.354-.2.458.222.631,3.987,1.634,4.846,5.819,1.8,8.882-4.191,4.22-8.427,8.4-12.626,12.608a24.577,24.577,0,0,1-10.324,6.163,17.412,17.412,0,0,0-6.149,3.559c-.467.4-.452.639-.009,1.006a13.855,13.855,0,0,1,1.067,1.054,2.4,2.4,0,0,1-.024,3.79q-2.813,2.846-5.649,5.669-4.194,4.178-8.4,8.34c-.779.771-1.622.787-2.131.064a1.368,1.368,0,0,1,.092-1.627q3.72-3.679,7.444-7.352c.273-.268.222-.436-.025-.672-.978-.937-1.943-1.888-2.912-2.834a.232.232,0,0,0-.033-.076q-9.632-9.627-19.259-19.261c-.312-.313-.466-.218-.713.03q-3.7,3.719-7.4,7.427m58.388-16.29a2.4,2.4,0,0,0,3.181.206,30.33,30.33,0,0,0,4.2-4.149,2.448,2.448,0,0,0-.529-3.706,2.473,2.473,0,0,0-3.394.151c-1.271,1.2-2.515,2.432-3.714,3.7a2.487,2.487,0,0,0,.26,3.795m3.7-15.546a2.445,2.445,0,0,0-3.5.118q-3.067,2.975-6.048,6.04a2.654,2.654,0,0,0,3.72,3.776q3.09-2.959,6.082-6.019a2.534,2.534,0,0,0-.257-3.914m-14.888,4.381a2.448,2.448,0,0,0,3.566-.125q4.193-4.1,8.322-8.263a2.57,2.57,0,0,0-.353-4.089,2.5,2.5,0,0,0-3.4.267c-1.084,1.035-2.139,2.1-3.2,3.157-1.691,1.685-3.4,3.354-5.056,5.069a2.522,2.522,0,0,0,.117,3.985" transform="translate(4807.843 -8344.941)" fill="#040403"/>
      <path id="Trazado_130232" data-name="Trazado 130232" d="M760.977,76.569q-1.767-1.73-3.534-3.459c-.805-.788-1.145-.832-2.1-.278l-2.193-2.346a1.464,1.464,0,0,0-.35-2.061c-1.734-1.683-3.429-3.406-5.163-5.09-.371-.361-.451-.579-.021-.961.663-.59,1.266-1.247,1.885-1.885a8.031,8.031,0,0,0,2.241-7.879,16.334,16.334,0,0,1,.278-9.1,10.411,10.411,0,0,0-.239-6.936c-.786-2.159-1.474-4.355-2.187-6.54-.337-1.031-.191-1.307.7-1.5.044.07.072.162.135.2a11.537,11.537,0,0,1,4.6,7.172c.95,3.829,2.144,7.615,2.561,11.554a17.794,17.794,0,0,1,.193,3.888c-.156,1.369-.334,2.736-.45,4.109a1.657,1.657,0,0,0,1.221,1.742c.58.236,1.089-.033,1.629-.067,1.1.838,1.889.6,2.328-.686a19.878,19.878,0,0,0,.542-10.194,2.7,2.7,0,0,1,.9-2.8c2.972-2.838,5.846-5.778,8.754-8.683.792-.792.831-1.164.267-2.114a6.225,6.225,0,0,0,1.729-1.872c.906.671,1.345.646,2.163-.167,2.9-2.881,5.782-5.774,8.685-8.65,1.3-1.292,2.827-1.378,3.989-.267a2.587,2.587,0,0,1,.385,3.407,7.139,7.139,0,0,1-.878,1q-7.965,7.954-15.94,15.9a5.721,5.721,0,0,0-1.981,4.161,5.225,5.225,0,0,0,4.892,5.155c.531.025.664.155.706.7a5.262,5.262,0,0,0,4.98,4.922c.516.036.645.166.635.664a5.331,5.331,0,0,0,1.014,2.858c-.019.379-.314.575-.548.8-1.974,1.91-3.857,3.908-5.888,5.763a21.453,21.453,0,0,1-6.877,4.258c-2.353.9-4.784,1.627-6.819,3.189-.815.625-1.791,1.092-2.253,2.1" transform="translate(4764.026 -8349.94)" fill="#f5d1a9"/>
      <path id="Trazado_130233" data-name="Trazado 130233" d="M687.841,169.293q3.7-3.712,7.4-7.427c.246-.248.4-.344.713-.03q9.617,9.642,19.258,19.261a.232.232,0,0,1,.033.076c-1.752,1.535-3.3,3.276-4.983,4.883a36.311,36.311,0,0,1-2.747,2.649c-.185-.166-.379-.323-.556-.5q-9.248-9.187-18.5-18.375c-.2-.194-.419-.359-.629-.538" transform="translate(4803.632 -8443.623)" fill="#aae2a3"/>
      <path id="Trazado_130234" data-name="Trazado 130234" d="M746.725,227.618a36.285,36.285,0,0,0,2.747-2.649c1.681-1.607,3.231-3.348,4.983-4.883.969.946,1.934,1.9,2.912,2.834.247.236.3.4.025.672q-3.732,3.667-7.444,7.353a28.939,28.939,0,0,1-3.223-3.326" transform="translate(4764.429 -8482.539)" fill="#89d3a6"/>
      <path id="Trazado_130235" data-name="Trazado 130235" d="M803.717,7.294c0,.806.015,1.613,0,2.418a1.248,1.248,0,1,1-2.491-.005q-.034-2.418,0-4.836a1.248,1.248,0,1,1,2.492.005c.019.806,0,1.612,0,2.418" transform="translate(4728.157 -8338.366)" fill="#030303"/>
      <path id="Trazado_130236" data-name="Trazado 130236" d="M778.05,18.58a1.2,1.2,0,0,1-.765,1.206,1.052,1.052,0,0,1-1.353-.307c-.931-1.34-1.829-2.707-2.664-4.11a1.074,1.074,0,0,1,.417-1.461,1.063,1.063,0,0,1,1.515.076,32.227,32.227,0,0,1,2.806,4.3.788.788,0,0,1,.044.293" transform="translate(4746.853 -8345.084)" fill="#050505"/>
      <path id="Trazado_130237" data-name="Trazado 130237" d="M827,15.1a1.483,1.483,0,0,1-.332.78c-.71,1.091-1.407,2.19-2.124,3.275-.538.814-1.236,1.022-1.885.593s-.726-1.147-.2-1.971q1.1-1.715,2.214-3.416a1.2,1.2,0,0,1,1.51-.54A1.227,1.227,0,0,1,827,15.1" transform="translate(4714.235 -8345.151)" fill="#050505"/>
      <path id="Trazado_130238" data-name="Trazado 130238" d="M732.955,150.291l2.193,2.346a1.432,1.432,0,0,0,.309,2.047c1.98,1.962,3.93,3.952,5.892,5.932-1.519,1.27-2.811,2.772-4.244,4.131-.233.22-.4.539-.786.549q-3.9-3.868-7.808-7.738c-3.721-3.7-7.423-7.426-11.165-11.108-.51-.5-.445-.735.025-1.192,1.451-1.411,2.849-2.878,4.406-4.465,3.068,3.129,6.059,6.185,9.06,9.231.79.8,1.173.832,2.117.268" transform="translate(4784.225 -8429.746)" fill="#e2dfe3"/>
      <path id="Trazado_130239" data-name="Trazado 130239" d="M788.163,155.315c.463-1.008,1.439-1.475,2.253-2.1,2.035-1.562,4.466-2.291,6.819-3.189a21.452,21.452,0,0,0,6.877-4.258c2.031-1.856,3.914-3.854,5.888-5.763.234-.227.529-.423.548-.8a6.1,6.1,0,0,0,3,1.934c-3.867,3.453-6.879,7.631-11.453,10.053a27.815,27.815,0,0,1-4.163,1.667,19.115,19.115,0,0,0-6.974,4.1c-.577.536-.869.429-1.3-.078-.467-.547-.99-1.045-1.488-1.564" transform="translate(4736.84 -8428.687)" fill="#f1bc8c"/>
      <path id="Trazado_130240" data-name="Trazado 130240" d="M766.118,72.215c-.541.034-1.049.3-1.629.068a1.656,1.656,0,0,1-1.221-1.742c.116-1.372.294-2.74.449-4.109a17.79,17.79,0,0,0-.193-3.888c-.416-3.939-1.611-7.725-2.56-11.554a11.538,11.538,0,0,0-4.6-7.172c-.063-.042-.091-.135-.135-.2a3.6,3.6,0,0,1,2.226.509A10.181,10.181,0,0,1,764,50.736a98.845,98.845,0,0,1,2.673,11.9,17.666,17.666,0,0,1-.611,8.134,1.827,1.827,0,0,0,.056,1.442" transform="translate(4758.101 -8365.024)" fill="#f2bd8c"/>
      <path id="Trazado_130241" data-name="Trazado 130241" d="M826.991,76.457a2.522,2.522,0,0,1-.117-3.985c1.658-1.716,3.366-3.385,5.056-5.069,1.061-1.057,2.117-2.122,3.2-3.157a2.5,2.5,0,0,1,3.4-.267,3.429,3.429,0,0,1-.561,2.378,9.836,9.836,0,0,1-1.177,1.391c-2.506,2.474-5.042,4.918-7.535,7.405a4.415,4.415,0,0,1-2.261,1.3" transform="translate(4711.678 -8378.244)" fill="#f3be8d"/>
      <path id="Trazado_130242" data-name="Trazado 130242" d="M843.628,97.82a2.446,2.446,0,0,1-.16-3.729q2.977-3.067,6.048-6.04a2.446,2.446,0,0,1,3.5-.118,4.379,4.379,0,0,1-.984,2.591,78.077,78.077,0,0,1-5.646,5.759,3.963,3.963,0,0,1-2.755,1.537" transform="translate(4700.543 -8394.103)" fill="#f3bd8d"/>
      <path id="Trazado_130243" data-name="Trazado 130243" d="M860.507,119.368a2.487,2.487,0,0,1-.26-3.795c1.2-1.272,2.442-2.5,3.714-3.7a2.473,2.473,0,0,1,3.394-.151,3.5,3.5,0,0,1-.682,2.333,30.061,30.061,0,0,1-4.193,4.331,4.06,4.06,0,0,1-1.973.985" transform="translate(4689.354 -8409.989)" fill="#f3bd8d"/>
      <path id="Trazado_130244" data-name="Trazado 130244" d="M774.824,204.785c.382-.01.553-.33.785-.55,1.433-1.358,2.726-2.86,4.244-4.13.969.945,1.928,1.9,2.911,2.828.307.29.243.467-.026.731q-2.1,2.067-4.176,4.166c-.261.265-.424.342-.72.031-.99-1.04-2.011-2.053-3.019-3.076" transform="translate(4745.721 -8469.234)" fill="#d4ced4"/>
      <path id="Trazado_130245" data-name="Trazado 130245" d="M829.052,77.537a4.415,4.415,0,0,0,2.261-1.3c2.493-2.487,5.029-4.931,7.535-7.405a9.825,9.825,0,0,0,1.177-1.391,3.429,3.429,0,0,0,.561-2.378,2.57,2.57,0,0,1,.353,4.089q-4.126,4.167-8.322,8.263a2.448,2.448,0,0,1-3.566.125" transform="translate(4709.617 -8379.323)" fill="#e7a874"/>
      <path id="Trazado_130246" data-name="Trazado 130246" d="M845.516,99.171a3.963,3.963,0,0,0,2.755-1.537,78.042,78.042,0,0,0,5.646-5.759,4.38,4.38,0,0,0,.984-2.591,2.535,2.535,0,0,1,.257,3.915q-2.988,3.061-6.082,6.019a2.426,2.426,0,0,1-3.56-.047" transform="translate(4698.656 -8395.452)" fill="#e7a874"/>
      <path id="Trazado_130247" data-name="Trazado 130247" d="M862.539,120.564a4.062,4.062,0,0,0,1.973-.985,30.065,30.065,0,0,0,4.193-4.331,3.5,3.5,0,0,0,.682-2.333,2.448,2.448,0,0,1,.529,3.706,30.313,30.313,0,0,1-4.2,4.149,2.4,2.4,0,0,1-3.181-.206" transform="translate(4687.323 -8411.185)" fill="#e5a773"/>
    </g>
  </g>
</svg>
