<svg xmlns="http://www.w3.org/2000/svg" width="67" height="90.367" viewBox="0 0 67 90.367">
  <g id="Grupo_87555" data-name="Grupo 87555" transform="translate(-638 -1808.725)">
    <g id="Grupo_81330" data-name="Grupo 81330" transform="translate(638 1808.725)">
      <rect id="Rectángulo_34185" data-name="Rectángulo 34185" width="67" height="90.367" rx="5" fill="#fff"/>
    </g>
    <g id="Grupo_86773" data-name="Grupo 86773" transform="translate(649.463 1819.587)">
      <path id="Trazado_131386" data-name="Trazado 131386" d="M289.782,102.1a3.208,3.208,0,0,1,.07,1.269c.007.158-.178.089-.275.09-.732.006-1.465,0-2.2,0-.651,0-.86.2-.9.834a2.706,2.706,0,0,1-5.4-.009.9.9,0,0,0-1.249-.827c-.148.048-.106.146-.106.231,0,1.2.008,2.394-.008,3.591,0,.329.205.233.364.234q3.107,0,6.213,0c.9,0,1.8,0,2.705,0,.638,0,.869.228.87.86,0,1.887.009,3.774,0,5.661a45.3,45.3,0,0,0,1.638,11.453c.568,2.217,1.113,4.441,1.665,6.663.182.731-.079,1.052-.845,1.053q-2.536,0-5.072,0H252.3a.958.958,0,0,1-.789-.208.768.768,0,0,1-.14-.784q1.091-4.374,2.161-8.754a40.96,40.96,0,0,0,1.164-10.078c-.01-1.662,0-3.323,0-4.985,0-.659.225-.881.889-.882,2.959,0,5.917-.006,8.876.008.318,0,.391-.077.388-.39-.017-1.831-.009-3.661-.008-5.492,0-.663.223-.882.885-.886l1.816-.014h3.472l5.751-.006,2.527.039a.846.846,0,0,1,.435.76c-.005.569.009.569.567.573a2.028,2.028,0,0,1,2.133,2.031,1.353,1.353,0,1,0,2.706-.026,2.027,2.027,0,0,1,2.075-2c.859-.008,1.718-.008,2.577-.011m-1.282,7.619c0-.2,0-.395.016-.59s-.045-.264-.254-.263c-2.112.012-4.224.014-6.336.019-.436,0-.871,0-1.307,0-.9,0-.871,0-.9.892-.013.393.122.45.472.448,2.617-.012,5.233-.013,7.849.012.43,0,.546-.129.46-.515m-32.442,0c-.086.386.029.52.46.515,2.433-.027,4.867-.018,7.3-.021,1.072,0,1.066,0,1.016-1.074-.01-.2-.059-.267-.263-.264-.647.013-1.293.008-1.94.01l-5.787-.015c-.827,0-.827,0-.787.848m15.972-7.6q-2.408-.008-4.815-.015c-1.09,0-1.083,0-1.029,1.1.01.206.072.258.269.257,1.858-.01,3.717-.012,5.575-.016l5.323.012c1.077,0,1.069,0,1.021-1.077-.01-.236-.1-.276-.3-.276q-3.021.012-6.041.013M288.49,112.6c.007-.252.005-.5.025-.755.016-.207-.071-.26-.267-.258-1.46.01-2.92.012-4.379.017l-2.033,0c-.521-.005-1.043.011-1.562-.023-.379-.025-.512.074-.478.48.132,1.558.413,3.092.671,4.631q1.247,7.42,2.468,14.844c.038.229.112.335.372.334q4.014-.014,8.029,0c.311,0,.353-.107.284-.369-.263-1.006-.517-2.013-.775-3.02-.044-.191-.085-.382-.132-.573q-.632-2.586-1.266-5.171c-.2-1.178-.448-2.346-.6-3.531-.222-1.719-.293-3.448-.351-5.178q0-.712-.005-1.426m-10.138-2.542,0-3.209c.005-.59,0-1.179.02-1.769.006-.214-.081-.253-.271-.252q-3.668.016-7.336.02l-1.86,0c-.789-.006-1.577,0-2.365-.024-.278-.008-.355.076-.353.353.013,1.422,0,2.843.006,4.266a31.286,31.286,0,0,1-.223,4.085c-.231,1.785-.578,3.551-.873,5.326q-1.039,6.26-2.093,12.519c-.063.37-.033.5.4.5q8.789-.022,17.577-.01c.638,0,.638,0,.53-.65-.039-.236-.081-.471-.121-.706-.05-.319-.095-.639-.149-.957q-.38-2.225-.763-4.447c-.236-1.469-.484-2.936-.709-4.406-.541-3.536-1.4-7.031-1.415-10.637m-24.638,18.421c-.258,1.007-.512,2.015-.776,3.02-.069.263-.027.37.284.369q4.014-.016,8.029,0c.225,0,.329-.066.366-.292q.463-2.849.941-5.7.825-4.927,1.654-9.852a39.651,39.651,0,0,0,.551-4.093c.015-.242-.028-.362-.309-.351-.576.023-1.154.015-1.731.021h-6.592c-.056-.014-.076.01-.07.065,0,.633-.015,1.267-.014,1.9a39.66,39.66,0,0,1-.86,8.677c-.459,2.086-.979,4.158-1.472,6.237" transform="translate(-251.312 -91.293)" fill="#010101"/>
      <path id="Trazado_131387" data-name="Trazado 131387" d="M276.056,94.242c-.672-.033-.683-.034-.67-.733a11.221,11.221,0,0,1,.063-1.936,3.35,3.35,0,0,1,3.234-2.743.394.394,0,0,0,.42-.289,3.831,3.831,0,0,1,3.305-2.4,3.9,3.9,0,0,1,3.756,1.723.563.563,0,0,0,.539.291c.619-.021,1.239-.016,1.858,0a2.417,2.417,0,0,1,2.381,2.365c.011.331-.154.785.074.96s.647.046.982.051c.085,0,.169,0,.254,0,.7,0,.7,0,.731.675a.674.674,0,0,0-.012.167c.076.414-.074.534-.505.523-1.307-.034-2.617-.056-3.921,0a2.862,2.862,0,0,1-3.04-2.881,2.668,2.668,0,0,0-4.031-2.183,2.415,2.415,0,0,0-1.083,1.128c-.06.116-.15.241.055.339a4.41,4.41,0,0,1,.918.721,3.574,3.574,0,0,1,.772,1.953c.023.754.005,1.508.005,2.262-.366,0-.732-.01-1.1.006-.211.01-.259-.068-.255-.265.012-.561.007-1.124,0-1.686a1.963,1.963,0,0,0-1.345-1.963,1.993,1.993,0,0,0-2.705,1.767c-.023.475-.006.953-.006,1.429,0,.692,0,.692-.681.726m11.853-4.72c-.111-.008-.223-.023-.334-.025-.768-.007-.768-.006-.687.764a1.378,1.378,0,0,0,1.391,1.261,7.494,7.494,0,0,1,.8.008c.43.058.594-.094.5-.519.045-1.048-.306-1.506-1.164-1.513-.168,0-.336.016-.5.024" transform="translate(-259.829 -86.114)" fill="#020202"/>
      <path id="Trazado_131388" data-name="Trazado 131388" d="M284.757,88.558a2.668,2.668,0,0,1,4.031,2.182,2.861,2.861,0,0,0,3.04,2.881c1.305-.053,2.615-.032,3.921,0,.432.012.581-.108.506-.522a.671.671,0,0,1,.012-.167q2.026,0,4.052,0a1.316,1.316,0,0,1,1.345,1.356c0,.365,0,.731,0,1.1l-1.336,0c.027-.314-.058-.442-.43-.433q-1.951.047-3.905,0c-.371-.009-.457.119-.43.433h-1.324c.063-.379-.124-.473-.462-.425a1.591,1.591,0,0,1-.457,0c-.338-.048-.526.046-.462.425h-1.344a.9.9,0,0,0-.893-.428,6.317,6.317,0,0,1-1.433-.017,2.032,2.032,0,0,1-1.657-1.493.681.681,0,1,0-1.293.418c.044.147.115.286.169.43a12.093,12.093,0,0,0,.634,1.082,3.24,3.24,0,0,1-1.616-.415c0-.754.019-1.509-.005-2.262a3.571,3.571,0,0,0-.772-1.954c.163-.109.1-.278.1-.423.007-.588,0-1.176.005-1.765" transform="translate(-263.111 -86.849)" fill="#eceded"/>
      <path id="Trazado_131389" data-name="Trazado 131389" d="M257.4,100.206q-2.6,0-5.2,0c-.691,0-.942-.275-.886-.962a3.381,3.381,0,0,1,3.916-3.04c.27.048.355-.03.453-.264a4.017,4.017,0,0,1,4.572-2.408,4.073,4.073,0,0,1,3.222,3.923c.011.634.005,1.267,0,1.9s-.239.849-.88.85q-2.6,0-5.2,0m4.1-4.406a2.257,2.257,0,0,0-1.48-.913,2.637,2.637,0,0,0-2.958,1.3c-.32.58-.32.586.118,1.058.575.619.575.619-.122,1.027a.41.41,0,0,0-.062.055c-.212-.023-.377.393-.61.085a2.036,2.036,0,0,0-1.549-.86,1.873,1.873,0,0,0-1.987,1.288h6.665c.493.005.986.015,1.479.015.364,0,.851.127,1.06-.057.244-.214.065-.712.078-1.087a2.56,2.56,0,0,0-.63-1.907" transform="translate(-251.306 -88.711)" fill="#020202"/>
      <path id="Trazado_131390" data-name="Trazado 131390" d="M303.857,99.328l1.336,0a14.086,14.086,0,0,1-.081,2.268c-.859,0-1.718,0-2.577.012a2.027,2.027,0,0,0-2.075,2,1.353,1.353,0,1,1-2.706.027,2.028,2.028,0,0,0-2.133-2.031c-.557,0-.572,0-.567-.572a.843.843,0,0,0-.435-.76.912.912,0,0,0,.424-.951h1.344a3.011,3.011,0,0,1,.01.505c-.051.35.072.477.428.432.29-.036.676.09.857-.056.217-.176.024-.581.087-.881h1.323a2.942,2.942,0,0,1,.01.505c-.051.351.074.444.429.436,1.112-.026,2.225-.008,3.338-.011.308,0,.7.1.9-.051.219-.162.024-.579.087-.879" transform="translate(-266.643 -90.793)" fill="#d3d4d6"/>
      <path id="Trazado_131391" data-name="Trazado 131391" d="M276.429,96.474c.681-.034.68-.034.681-.725,0-.477-.017-.955.007-1.43a1.993,1.993,0,0,1,2.705-1.767,3.047,3.047,0,0,1,.078.831c0,1.473,0,2.945,0,4.417h-3.472V96.474" transform="translate(-260.201 -88.346)" fill="#c0c1c3"/>
      <path id="Trazado_131392" data-name="Trazado 131392" d="M257.44,117.547h6.592a16.958,16.958,0,0,1-.188,2.974c-.2,1.761-.462,3.517-.821,5.256a57,57,0,0,1-1.518,6.11,3.765,3.765,0,0,1-3.523,2.539c-.986,0-1.971,0-2.957,0,.493-2.079,1.013-4.151,1.472-6.237a39.658,39.658,0,0,0,.86-8.677c0-.634.009-1.267.014-1.9l.07-.065" transform="translate(-252.622 -97.244)" fill="#87888b"/>
      <path id="Trazado_131393" data-name="Trazado 131393" d="M287.777,132.736c.041.235.083.471.122.706.109.651.108.651-.53.651q-8.789,0-17.577.01c-.433,0-.462-.13-.4-.5q1.061-6.257,2.093-12.519c.295-1.775.641-3.541.872-5.326a31.4,31.4,0,0,0,.223-4.085c0-1.422.006-2.844-.007-4.266,0-.276.075-.36.353-.352.788.023,1.577.017,2.365.023a45.171,45.171,0,0,1-.425,7.836c-.309,1.8-.6,3.609-.893,5.414-.159.978-.307,1.958-.46,2.936-.772.04-.96.243-.926,1.019a6.622,6.622,0,0,0,.494,2.122c-.21.036-.154.2-.16.334a5.559,5.559,0,0,0,.843,3.29,5.337,5.337,0,0,0,4.512,2.69c3.165.081,6.334.019,9.5.018" transform="translate(-257.701 -93.528)" fill="#999a9e"/>
      <path id="Trazado_131394" data-name="Trazado 131394" d="M281.361,107.083q3.668-.008,7.336-.02c.191,0,.278.038.272.252-.017.589-.015,1.179-.021,1.769-.095-.01-.137-.078-.185-.151a3.414,3.414,0,0,0-1.511-1.3c-.933-.406-1.642-.039-1.742.93a3.952,3.952,0,0,0,.076,1.338,3.657,3.657,0,0,0,1.621,2.174,1.679,1.679,0,0,0,1.743.213c.021,3.606.875,7.1,1.416,10.637.225,1.47.472,2.937.709,4.406a1.185,1.185,0,0,1-.5-.3c-.612-.466-1.222-.935-1.833-1.4a7.541,7.541,0,0,0,.222-1.533c0-.569-.239-.818-.81-.824q-.945-.012-1.89-.019a1.876,1.876,0,0,0-.45-.632c-.18-.194-.252-.513-.588-.537q.7-.923,1.4-1.845c.382-.5.338-.837-.163-1.209a6.2,6.2,0,0,0-3.578-1.183c-.055-.158-.1-.318-.167-.474a19.426,19.426,0,0,1-1.442-7.108,22.022,22.022,0,0,1,.089-3.191" transform="translate(-261.911 -93.532)" fill="#e6e6e7"/>
      <path id="Trazado_131395" data-name="Trazado 131395" d="M298.561,117.549l2.033,0a2.838,2.838,0,0,0,.008.379,18.475,18.475,0,0,0,2.486,7.048,15.664,15.664,0,0,0,3.083,3.7q.634,2.586,1.266,5.171c.047.191.088.382.132.573-.986,0-1.972,0-2.958,0a3.765,3.765,0,0,1-3.525-2.537,48.044,48.044,0,0,1-1.26-4.88c-.359-1.653-.659-3.315-.867-5a32.871,32.871,0,0,1-.4-4.467" transform="translate(-268.038 -97.245)" fill="#87888b"/>
      <path id="Trazado_131396" data-name="Trazado 131396" d="M297.441,117.535a32.871,32.871,0,0,0,.4,4.467c.208,1.681.508,3.343.867,5a48.044,48.044,0,0,0,1.26,4.88,3.765,3.765,0,0,0,3.525,2.537c.986,0,1.972,0,2.958,0,.258,1.007.512,2.015.775,3.02.069.262.027.37-.284.369q-4.014-.016-8.029,0c-.26,0-.334-.105-.372-.335q-1.228-7.423-2.468-14.844c-.258-1.539-.538-3.073-.67-4.631-.035-.406.1-.5.477-.48.519.034,1.041.017,1.562.023" transform="translate(-266.918 -97.23)" fill="#76777b"/>
      <path id="Trazado_131397" data-name="Trazado 131397" d="M254.583,134.415c.986,0,1.971,0,2.957,0a3.767,3.767,0,0,0,3.523-2.539,57.012,57.012,0,0,0,1.518-6.111c.358-1.739.619-3.494.821-5.255a16.967,16.967,0,0,0,.188-2.975c.577-.005,1.155,0,1.731-.021.282-.011.324.109.309.351a39.659,39.659,0,0,1-.551,4.093q-.825,4.927-1.654,9.852-.477,2.848-.941,5.7c-.037.226-.141.293-.366.292q-4.014-.011-8.029,0c-.311,0-.353-.106-.284-.369.264-1.006.518-2.013.776-3.02" transform="translate(-252.181 -97.233)" fill="#76777b"/>
      <path id="Trazado_131398" data-name="Trazado 131398" d="M286.476,135.819q.917.7,1.833,1.4a1.185,1.185,0,0,0,.5.3q.382,2.224.763,4.447c.054.318.1.638.149.957-3.167,0-6.336.063-9.5-.018a5.337,5.337,0,0,1-4.512-2.69,5.559,5.559,0,0,1-.843-3.29c.006-.13-.05-.3.16-.334a6.151,6.151,0,0,0,3.05,3.073c.668.308.98.188,1.249-.481.375-.937.745-1.876,1.126-2.811.042-.1.03-.258.209-.294q.617,1.546,1.232,3.086c.279.7.579.815,1.274.49a6.074,6.074,0,0,0,3.31-3.835" transform="translate(-259.646 -103.714)" fill="#c0c1c3"/>
      <path id="Trazado_131399" data-name="Trazado 131399" d="M279.424,107.093a22.035,22.035,0,0,0-.089,3.191,19.427,19.427,0,0,0,1.442,7.108c.062.156.112.316.167.474a6.23,6.23,0,0,0-3.553,1.163c-.539.391-.59.713-.187,1.234.7.9,1.4,1.8,2.1,2.7.07.091.2.163.163.314h-3.679c.153-.979.3-1.958.46-2.936.294-1.805.584-3.611.893-5.414a45.171,45.171,0,0,0,.425-7.836Z" transform="translate(-259.974 -93.541)" fill="#c0c1c3"/>
      <path id="Trazado_131400" data-name="Trazado 131400" d="M307.286,128.675a15.682,15.682,0,0,1-3.084-3.7,18.485,18.485,0,0,1-2.485-7.048,2.838,2.838,0,0,1-.008-.379c1.459,0,2.919-.006,4.379-.017.2,0,.282.051.267.258-.019.251-.017.5-.025.755-.3-.119-.487-.411-.8-.511s-.676-.22-.944.053a.844.844,0,0,0-.079.985,1.575,1.575,0,0,0,1.831.9c.058,1.73.13,3.458.352,5.178.152,1.185.4,2.354.6,3.531" transform="translate(-269.152 -97.237)" fill="#b7b7ba"/>
      <path id="Trazado_131401" data-name="Trazado 131401" d="M291.269,112.518a1.679,1.679,0,0,1-1.743-.213,3.654,3.654,0,0,1-1.621-2.175,3.931,3.931,0,0,1-.076-1.338c.1-.969.809-1.336,1.742-.93a3.414,3.414,0,0,1,1.511,1.3c.048.074.09.141.185.151l0,3.208" transform="translate(-264.229 -93.757)" fill="#f7f9fa"/>
      <path id="Trazado_131402" data-name="Trazado 131402" d="M281.761,97.873c0-1.472,0-2.945,0-4.417a3.045,3.045,0,0,0-.078-.831,1.964,1.964,0,0,1,1.345,1.963c0,.562.008,1.124,0,1.686,0,.2.045.274.254.265.365-.017.731-.006,1.1-.006a3.236,3.236,0,0,0,1.615.415c.379.192.7.477,1.092.653.149.067.371.046.43.267l-5.751.006" transform="translate(-262.061 -88.419)" fill="#d3d4d6"/>
      <path id="Trazado_131403" data-name="Trazado 131403" d="M283.135,102.874q3.021,0,6.041-.013c.2,0,.293.04.3.276.048,1.078.057,1.079-1.021,1.077l-5.323-.012c-.592-.421-.592-.908,0-1.328" transform="translate(-262.419 -92.044)" fill="#e2fcea"/>
      <path id="Trazado_131404" data-name="Trazado 131404" d="M289.412,98.894c-.059-.221-.282-.2-.43-.267-.391-.176-.713-.461-1.092-.653a12.248,12.248,0,0,1-.634-1.082c-.054-.144-.125-.283-.169-.43a.681.681,0,1,1,1.292-.418,2.035,2.035,0,0,0,1.657,1.493,6.354,6.354,0,0,0,1.433.017.9.9,0,0,1,.893.427.913.913,0,0,1-.424.951l-2.527-.039" transform="translate(-263.961 -89.446)" fill="#f7f9fa"/>
      <path id="Trazado_131405" data-name="Trazado 131405" d="M280.166,102.873c-.592.42-.592.907,0,1.328-1.858,0-3.717.006-5.575.016-.2,0-.258-.051-.269-.257-.054-1.1-.061-1.1,1.029-1.1q2.408,0,4.815.014" transform="translate(-259.449 -92.043)" fill="#7de398"/>
      <path id="Trazado_131406" data-name="Trazado 131406" d="M258.645,114.177c-.039-.848-.039-.849.787-.847q2.893.006,5.787.015c.018.673-.191.9-.851.9-1.771,0-3.542,0-5.313,0a.827.827,0,0,1-.41-.072" transform="translate(-253.9 -95.751)" fill="#e2fcea"/>
      <path id="Trazado_131407" data-name="Trazado 131407" d="M298.7,113.342c2.112-.005,4.224-.007,6.336-.019.208,0,.271.063.253.262s-.011.393-.016.59a.78.78,0,0,1-.367.072c-1.8,0-3.6,0-5.4,0-.62,0-.825-.243-.808-.9" transform="translate(-268.087 -95.748)" fill="#e2fcea"/>
      <path id="Trazado_131408" data-name="Trazado 131408" d="M258.637,114.18a.827.827,0,0,0,.41.072c1.771,0,3.542,0,5.313,0,.66,0,.869-.23.851-.9.647,0,1.293,0,1.94-.01.2,0,.253.066.263.264.05,1.074.056,1.072-1.016,1.074-2.434,0-4.868-.006-7.3.021-.431,0-.546-.13-.46-.515" transform="translate(-253.892 -95.753)" fill="#7de398"/>
      <path id="Trazado_131409" data-name="Trazado 131409" d="M297.491,113.35c-.017.659.188.9.808.9,1.8.006,3.6,0,5.4,0a.781.781,0,0,0,.368-.072c.087.386-.029.519-.46.515-2.616-.026-5.233-.024-7.849-.012-.351,0-.485-.055-.473-.448.029-.892,0-.893.9-.893.436,0,.871,0,1.307.005" transform="translate(-266.877 -95.756)" fill="#7de398"/>
      <path id="Trazado_131410" data-name="Trazado 131410" d="M307.8,120.178a1.575,1.575,0,0,1-1.831-.9.842.842,0,0,1,.078-.984c.268-.273.617-.156.944-.054s.5.393.8.512q0,.712.005,1.426" transform="translate(-270.62 -97.449)" fill="#eceded"/>
      <path id="Trazado_131411" data-name="Trazado 131411" d="M258.725,117.545l-.07.065c-.006-.054.014-.078.07-.065" transform="translate(-253.908 -97.242)" fill="#76777b"/>
      <path id="Trazado_131412" data-name="Trazado 131412" d="M295.868,92.866c.1.425-.068.577-.5.519a7.494,7.494,0,0,0-.8-.008,1.377,1.377,0,0,1-1.39-1.261c-.082-.77-.082-.771.686-.763.111,0,.223.016.334.024,0,1.086.717,1.723,1.668,1.489" transform="translate(-266.12 -87.968)" fill="#999a9e"/>
      <path id="Trazado_131413" data-name="Trazado 131413" d="M296.447,92.866c-.951.234-1.664-.4-1.668-1.489.168-.008.336-.026.5-.024.858.008,1.209.466,1.164,1.513" transform="translate(-266.699 -87.969)" fill="#eceded"/>
      <path id="Trazado_131414" data-name="Trazado 131414" d="M284.184,88.76c0,.588,0,1.176-.005,1.765,0,.145.058.314-.1.423a4.428,4.428,0,0,0-.918-.72c-.205-.1-.115-.224-.055-.339a2.416,2.416,0,0,1,1.083-1.128" transform="translate(-262.538 -87.051)" fill="#d3d4d6"/>
      <path id="Trazado_131415" data-name="Trazado 131415" d="M306.307,99.09c-.063.3.132.717-.087.879-.2.15-.593.05-.9.051-1.113,0-2.226-.015-3.338.011-.355.008-.48-.085-.429-.436a2.945,2.945,0,0,0-.01-.505c-.027-.314.058-.442.43-.433q1.952.048,3.905,0c.371-.009.457.119.43.433" transform="translate(-269.092 -90.555)" fill="#010101"/>
      <path id="Trazado_131416" data-name="Trazado 131416" d="M298.732,99.089c-.063.3.13.705-.087.881-.181.147-.567.02-.857.056-.357.045-.48-.082-.429-.432a2.942,2.942,0,0,0-.01-.505c-.063-.379.125-.473.463-.424a1.634,1.634,0,0,0,.456,0c.339-.049.526.045.463.424" transform="translate(-267.605 -90.554)" fill="#010101"/>
      <path id="Trazado_131417" data-name="Trazado 131417" d="M260.016,99.064a.407.407,0,0,1,.061-.055c.7-.408.7-.408.123-1.027-.437-.472-.438-.478-.118-1.058a2.637,2.637,0,0,1,2.958-1.3,1.138,1.138,0,0,0,1.48.913,2.562,2.562,0,0,1,.63,1.907c-.013.375.165.873-.078,1.087-.209.183-.7.057-1.06.057-.493,0-.986-.009-1.479-.015a.167.167,0,0,0-.172-.149,16.737,16.737,0,0,1-2.347-.364" transform="translate(-254.333 -89.451)" fill="#d3d4d6"/>
      <path id="Trazado_131418" data-name="Trazado 131418" d="M257.831,100.567a16.736,16.736,0,0,0,2.347.364.167.167,0,0,1,.172.149h-6.665a1.873,1.873,0,0,1,1.987-1.288,2.041,2.041,0,0,1,1.55.86c.233.308.4-.109.61-.085" transform="translate(-252.148 -90.954)" fill="#c0c1c3"/>
      <path id="Trazado_131419" data-name="Trazado 131419" d="M266.267,96.589a1.138,1.138,0,0,1-1.48-.913,2.257,2.257,0,0,1,1.48.913" transform="translate(-256.079 -89.5)" fill="#eceded"/>
      <path id="Trazado_131420" data-name="Trazado 131420" d="M275.276,129.184h3.679c.035-.15-.094-.223-.163-.313-.7-.9-1.4-1.8-2.1-2.7-.4-.521-.351-.842.188-1.234a6.007,6.007,0,0,1,7.13.021c.5.371.546.7.163,1.209l-1.4,1.845a10.852,10.852,0,0,0-.936,1.168h1.974c.63.006,1.26.011,1.889.019.571.007.813.255.81.824a7.532,7.532,0,0,1-.222,1.533,6.074,6.074,0,0,1-3.31,3.835c-.695.325-.995.207-1.274-.49q-.617-1.541-1.232-3.086c-.18.036-.167.191-.209.294-.38.935-.75,1.874-1.126,2.811-.268.669-.581.789-1.249.481a6.151,6.151,0,0,1-3.05-3.073,6.624,6.624,0,0,1-.494-2.122c-.035-.775.154-.978.926-1.019m6.847,1.378h-.686c.436,1.092.86,2.139,1.272,3.191.074.187.152.2.3.089a3.668,3.668,0,0,0,.824-.706,4.531,4.531,0,0,0,1.236-2.307c.052-.22-.014-.291-.247-.286-.9.017-1.8.014-2.7.018m0-3.993c.169-.205.331-.417.508-.616.135-.15.095-.233-.071-.311a3.982,3.982,0,0,0-1.528-.435,4.239,4.239,0,0,0-2.374.291c-.591.233-.59.233-.212.718l1.582,2.031c.43.552.43.552.834-.061a20.153,20.153,0,0,0,1.26-1.617m-2.692,3.98c-1.186,0-2.323,0-3.459,0-.181,0-.217.078-.185.231a4.682,4.682,0,0,0,2.1,3.084c.124.081.2.07.255-.072.423-1.066.849-2.132,1.29-3.24" transform="translate(-259.464 -99.448)" fill="#020202"/>
      <path id="Trazado_131421" data-name="Trazado 131421" d="M287.925,131.5h-1.974a10.843,10.843,0,0,1,.936-1.168c.337.023.408.343.588.537a1.887,1.887,0,0,1,.45.632" transform="translate(-263.573 -101.771)" fill="#c0c1c3"/>
      <path id="Trazado_131422" data-name="Trazado 131422" d="M280.21,134.263c-.441,1.108-.867,2.174-1.29,3.24-.056.142-.13.153-.255.072a4.682,4.682,0,0,1-2.1-3.084c-.032-.152,0-.232.185-.231,1.136.005,2.273,0,3.459,0" transform="translate(-260.246 -103.162)" fill="#e19134"/>
      <path id="Trazado_131423" data-name="Trazado 131423" d="M281.016,126.251a4.24,4.24,0,0,1,2.375-.291c-.386.2-.446.415-.207.762a1.265,1.265,0,0,0,1.3.6,20.143,20.143,0,0,1-1.26,1.616,4.112,4.112,0,0,1-1.416-1.327,3.111,3.111,0,0,1-.788-1.36" transform="translate(-261.826 -100.201)" fill="#f3bf65"/>
      <path id="Trazado_131424" data-name="Trazado 131424" d="M286.386,134.274c.9,0,1.8,0,2.7-.019.233,0,.3.067.247.287a4.526,4.526,0,0,1-1.236,2.307,1.77,1.77,0,0,0-.417-.576,7.231,7.231,0,0,1-1.3-2" transform="translate(-263.727 -103.16)" fill="#f3bf65"/>
      <path id="Trazado_131425" data-name="Trazado 131425" d="M286.01,134.284a7.231,7.231,0,0,0,1.3,2,1.77,1.77,0,0,1,.417.576,3.668,3.668,0,0,1-.824.706c-.151.111-.23.1-.3-.089-.413-1.052-.836-2.1-1.272-3.191Z" transform="translate(-263.351 -103.17)" fill="#eeaf48"/>
      <path id="Trazado_131426" data-name="Trazado 131426" d="M285.592,127.356a1.264,1.264,0,0,1-1.3-.6c-.238-.347-.179-.559.207-.762a3.976,3.976,0,0,1,1.527.435c.166.078.207.161.072.311-.178.2-.34.41-.508.616" transform="translate(-262.936 -100.235)" fill="#e6e6e7"/>
      <path id="Trazado_131427" data-name="Trazado 131427" d="M280.756,126.445a3.111,3.111,0,0,0,.788,1.36,4.113,4.113,0,0,0,1.416,1.327c-.4.614-.4.614-.835.062l-1.582-2.031c-.379-.484-.379-.484.212-.718" transform="translate(-261.566 -100.395)" fill="#eeaf48"/>
    </g>
  </g>
</svg>
