<svg xmlns="http://www.w3.org/2000/svg" width="67" height="90.367" viewBox="0 0 67 90.367">
  <g id="Grupo_87556" data-name="Grupo 87556" transform="translate(-1058 -1808.725)">
    <g id="Grupo_81330" data-name="Grupo 81330" transform="translate(1058 1808.725)">
      <rect id="Rectángulo_34185" data-name="Rectángulo 34185" width="67" height="90.367" rx="5" fill="#fff"/>
    </g>
    <g id="Grupo_86769" data-name="Grupo 86769" transform="translate(1071.103 1819.587)">
      <path id="Trazado_131204" data-name="Trazado 131204" d="M336.039,59.965c-.167.549-.287.637-.89.638-.64,0-1.279.008-1.918,0a1.5,1.5,0,0,1-1.539-1.545q-.015-2.266,0-4.534a1.524,1.524,0,0,1,1.554-1.585c.552-.017,1.105-.015,1.657,0,.255.008.36-.046.351-.331-.021-.726-.015-1.453,0-2.179,0-.234-.048-.323-.306-.332a.661.661,0,0,1-.711-.662c.008-.366.268-.6.738-.625.2-.01.281-.059.278-.273-.01-.77-.014-1.54,0-2.31,0-.247-.1-.277-.308-.284a.648.648,0,1,1-.019-1.291c.282,0,.357-.1.322-.353a1.381,1.381,0,0,1,1.1-1.618c.886-.313,1.743-.71,2.607-1.082a2.147,2.147,0,0,1,1.772-.01c.945.4,1.886.82,2.846,1.187a1.246,1.246,0,0,1,.9,1.365c-.019.3-.041.553.422.522a.638.638,0,0,1-.039,1.275c-.356-.016-.4.127-.39.427.02.7.015,1.4,0,2.093,0,.249.041.359.329.358a.619.619,0,0,1,.706.644.631.631,0,0,1-.682.638c-.3,0-.361.1-.354.374.017.726.014,1.453,0,2.179,0,.233.069.316.3.288a2.355,2.355,0,0,1,.3,0h29.387c1.333,0,1.886.549,1.886,1.869,0,1.38,0,2.76,0,4.141a1.517,1.517,0,0,1-1.648,1.658q-17.854,0-35.708.006a.738.738,0,0,1-.848-.625c.131-.56.3-.691.918-.691,3.974,0,7.949,0,11.923-.006.471,0,1.118.223,1.368-.1.268-.347.09-.973.057-1.478.008-.217.021-.434.023-.651,0-1,.362-1.356,1.367-1.357h9.891c2.12,0,4.241,0,6.361,0A1.07,1.07,0,0,1,371.2,56.84c.008.29.011.581.016.87-.006.42,0,.841-.02,1.26-.011.243.068.329.319.326q1.565-.017,3.132,0c.275,0,.393-.094.391-.379q-.011-2.154,0-4.307c0-.262-.115-.375-.363-.371-.406.006-.811.014-1.217.021-.174-.007-.348-.019-.522-.019H333.653c-.087,0-.175,0-.262,0-.268-.016-.4.087-.4.377.013,1.032.012,2.063.017,3.094,0,.389,0,.779-.018,1.167-.02.332.128.425.436.417.606-.016,1.212-.01,1.818,0,.5.006.676.165.79.671m20.421-2.936c-.694-.008-1.388-.018-2.082-.022-.678,0-.678,0-.624.708-.007.433,0,.866-.026,1.3-.013.239.081.289.3.286q1.106-.018,2.212,0c.216,0,.313-.047.3-.286-.022-.432-.016-.866-.021-1.3,0-.2,0-.408,0-.612.016-.055,0-.082-.061-.072m10.607.684c-.01.433-.009.867-.032,1.3-.013.241.092.289.306.286q1.129-.014,2.258,0c.217,0,.312-.043.3-.284-.023-.433-.016-.868-.021-1.3,0-.072.006-.145.017-.215.058-.371-.049-.533-.471-.5-.589.042-1.184.01-1.777.01-.644,0-.644,0-.592.665a.182.182,0,0,0,.012.041m-4.587,0c-.007.447-.005.894-.023,1.34-.008.2.069.244.251.243q1.386-.01,2.772,0c.182,0,.261-.048.253-.242-.018-.447-.019-.893-.027-1.34.008-.071.014-.143.024-.213.056-.366-.044-.531-.469-.506-.719.041-1.441.011-2.162.011-.672,0-.672,0-.621.707m-20.5-13.088c.246,0,.493.027.737.008.16-.013.406.13.456-.17a.445.445,0,0,0-.308-.572,23.377,23.377,0,0,1-2.276-.957,1.516,1.516,0,0,0-1.659.133c-.723.29-1.442.587-2.169.867-.272.1-.192.318-.2.509-.011.231.162.2.3.2l5.118-.013m19.156,13.088c.006-.072.007-.145.019-.216.066-.389-.075-.521-.484-.5-.724.036-1.451.01-2.177.01-.676,0-.676,0-.632.707-.006.435,0,.87-.021,1.305-.008.2.041.282.261.28q1.394-.016,2.789,0c.215,0,.274-.078.266-.28-.017-.435-.016-.87-.022-1.305m-19.067-4.8c.273.006.548,0,.821.019.232.014.3-.09.295-.307-.01-.491,0-.981,0-1.472,0-1.093,0-1.093-1.113-1.027-1.739-.006-3.479-.008-5.218-.021-.232,0-.3.084-.3.305q.014,1.109,0,2.218c0,.22.063.306.295.3,1.739-.012,3.48-.014,5.219-.02m-5.407-6.952c-.057-.014-.093,0-.085.066-.007.841-.009,1.681-.026,2.521,0,.226.1.257.292.255,1.741-.01,3.481-.013,5.222-.019.274.008.549,0,.823.025.239.018.3-.09.291-.306-.011-.506,0-1.013,0-1.52,0-1.093,0-1.093-1.11-1.021Z" transform="translate(-331.685 -17.148)" fill="#020303"/>
      <path id="Trazado_131205" data-name="Trazado 131205" d="M360.165,33.935a.761.761,0,0,1-.211.973c-1.051,1-2.091,2.019-3.13,3.034a1.484,1.484,0,0,1-1.095.445c-1.133-.008-2.267-.011-3.4,0a.934.934,0,0,1-.893-1.543q3.081-5.2,6.149-10.409c.094-.159.183-.321.267-.47-.067-.13-.168-.094-.243-.088a23.9,23.9,0,0,1-5.871-.629c-.744-.126-1.488-.251-2.229-.39a.837.837,0,0,0-.717.183c-1.269.969-2.553,1.919-3.823,2.887a1.511,1.511,0,0,1-1,.336c-.6-.017-1.192-.01-1.787,0a.93.93,0,0,1-.826-1.5c.882-1.347,1.75-2.7,2.649-4.039a.6.6,0,0,0-.014-.794c-.875-1.3-1.719-2.619-2.587-3.924a1.016,1.016,0,0,1-.161-1.1c.213-.417.6-.463,1.024-.518a4.642,4.642,0,0,1,3.971,1.28c.773.716,1.692,1.273,2.526,1.928a.917.917,0,0,0,.8.179q2.743-.488,5.487-.962a17.315,17.315,0,0,1,2.348-.066c.14-.006.28,0,.422,0,.024-.183-.084-.273-.147-.38q-3.113-5.282-6.232-10.563a1.215,1.215,0,0,1-.246-.728.885.885,0,0,1,.957-.812c1.162-.006,2.325.01,3.488-.008a1.7,1.7,0,0,1,1.279.534q4.574,4.455,9.162,8.9c.959.931,1.925,1.855,2.875,2.8a.812.812,0,0,0,.649.258c.741-.018,1.483.019,2.223-.017a6.584,6.584,0,0,1,3.127.605c.788.363,1.612.65,2.414.983a2.088,2.088,0,0,1,.02,3.917c-1,.416-2.013.816-3.016,1.231a4.816,4.816,0,0,1-1.909.371c-.915-.008-1.831.014-2.746,0a.934.934,0,0,0-.73.289c-2.172,2.123-4.357,4.231-6.528,6.354a.805.805,0,0,1-1.048.212c-.331-.475-.311-.721.111-1.131q2.778-2.7,5.558-5.395c.081-.079.219-.134.2-.315-.953.025-1.893-.043-2.833.037-1.6,0-3.2,0-4.794-.021-.253,0-.313.168-.405.324q-3.12,5.281-6.236,10.566c-.053.09-.155.166-.121.315l.3-.018c.768.006,1.537,0,2.305.024a.763.763,0,0,0,.605-.255c.961-.948,1.933-1.884,2.9-2.823.447-.433.685-.446,1.159-.066M353.193,7.6c-.109-.014-.221-.054-.329.032.02.041.035.081.057.117q3.172,5.371,6.339,10.745a.47.47,0,0,0,.48.263c1.568-.01,3.137-.007,4.7-.008a.862.862,0,0,1,.466.509c-.032.6-.231.8-.832.8q-4.116.006-8.231.009a3.693,3.693,0,0,0-.6.047c-1.929.331-3.857.658-5.782,1.008a1.506,1.506,0,0,1-1.257-.312c-1.144-.868-2.332-1.681-3.435-2.6a2.331,2.331,0,0,0-1.921-.474c-.019.126.072.191.125.271.769,1.177,1.532,2.358,2.314,3.526a1.291,1.291,0,0,1-.006,1.609c-.208.3-.387.612-.578.918l-1.886,2.845a2.288,2.288,0,0,0,2.085-.543c1.059-.881,2.2-1.666,3.292-2.5a1.483,1.483,0,0,1,1.254-.329c.968.186,1.942.344,2.917.5a22.717,22.717,0,0,0,3.436.531c5.535.016,11.07-.012,16.605-.024a2.8,2.8,0,0,0,1.033-.122q1.778-.7,3.544-1.43a.708.708,0,0,0,.451-.686.729.729,0,0,0-.465-.723c-.3-.133-.618-.243-.927-.363-.627-.26-1.258-.509-1.879-.781a4.631,4.631,0,0,0-1.979-.388c-1.463.026-2.925.012-4.388.011-.569,0-.741-.14-.873-.687.052-.149.064-.33.206-.42.233-.148.174-.251.006-.414q-5.553-5.375-11.1-10.76a.539.539,0,0,0-.41-.2c-.812.016-1.624.017-2.437.023" transform="translate(-334.614 -6.265)" fill="#040404"/>
      <path id="Trazado_131206" data-name="Trazado 131206" d="M336.625,67.283c-.114-.506-.293-.665-.79-.671-.606-.008-1.212-.014-1.817,0-.309.008-.456-.085-.437-.416.023-.389.014-.779.018-1.168h19.393c.032.5.212,1.131-.057,1.477-.25.322-.9.1-1.367.1-3.975.01-7.95,0-11.924.006-.616,0-.786.132-.918.691l-2.1-.019" transform="translate(-332.272 -24.467)" fill="#4a6f8f"/>
      <path id="Trazado_131207" data-name="Trazado 131207" d="M369.854,34.678c.94-.08,1.881-.011,2.833-.037.019.182-.119.236-.2.315q-2.777,2.7-5.559,5.4c-.422.41-.442.656-.11,1.131a3.3,3.3,0,0,0-1.245,1.241c-.474-.38-.712-.367-1.158.066-.969.939-1.942,1.875-2.9,2.823a.76.76,0,0,1-.6.255c-.768-.021-1.537-.018-2.306-.024.072-.379.448-.471.677-.7,1.746-1.738,3.507-3.461,5.264-5.188.041-.041.082-.082.125-.121,1.707-1.588,3.373-3.219,5.03-4.859a.4.4,0,0,0,.155-.3" transform="translate(-340.023 -15.053)" fill="#d7dfed"/>
      <path id="Trazado_131208" data-name="Trazado 131208" d="M352.992,63.47l-19.393,0c0-1.032,0-2.063-.017-3.094,0-.291.128-.393.4-.378.087.006.175,0,.262,0h39.283c.174,0,.348.012.522.019,0,.827.009,1.655.006,2.481a.921.921,0,0,1-.985.973c-.42,0-.841,0-1.262,0-.006-.29-.009-.58-.016-.87a1.07,1.07,0,0,0-1.153-1.135c-2.12-.006-4.241,0-6.362,0h-9.891c-1,0-1.362.357-1.367,1.356,0,.217-.015.434-.022.652" transform="translate(-332.273 -22.909)" fill="#557ea5"/>
      <path id="Trazado_131209" data-name="Trazado 131209" d="M344.246,50.833c-1.741.006-3.481.009-5.222.019-.188,0-.3-.029-.292-.255.017-.841.019-1.681.026-2.521l.084-.066h5.4q0,1.411,0,2.822" transform="translate(-333.868 -19.195)" fill="#9ed6f4"/>
      <path id="Trazado_131210" data-name="Trazado 131210" d="M344.251,56.821c-1.739.006-3.479.007-5.219.02-.232,0-.3-.085-.295-.305q.015-1.109,0-2.218c0-.222.065-.307.3-.305,1.739.012,3.479.014,5.218.021q0,1.394,0,2.787" transform="translate(-333.87 -21.055)" fill="#557ea5"/>
      <path id="Trazado_131211" data-name="Trazado 131211" d="M388.947,63.471c.421,0,.841.007,1.262,0a.92.92,0,0,0,.984-.973c0-.827,0-1.654-.006-2.481.406-.007.811-.016,1.217-.021.249,0,.364.11.363.371q-.009,2.154,0,4.307c0,.285-.115.381-.391.379-1.044-.009-2.089-.01-3.132,0-.251,0-.33-.084-.319-.327.019-.42.014-.84.02-1.26" transform="translate(-349.416 -22.909)" fill="#476b8a"/>
      <path id="Trazado_131212" data-name="Trazado 131212" d="M372.871,65.033c.006.435.005.87.022,1.305.008.2-.052.282-.266.28q-1.395-.013-2.789,0c-.22,0-.268-.081-.261-.28.017-.435.015-.87.021-1.305h3.273" transform="translate(-343.422 -24.469)" fill="#87caf2"/>
      <path id="Trazado_131213" data-name="Trazado 131213" d="M344.164,45.372l-5.119.013c-.139,0-.311.036-.3-.2.009-.191-.071-.4.2-.508.726-.28,1.446-.577,2.168-.868.05.05.09.122.15.148.8.336,1.6.659,2.392,1,.2.086.471.108.508.407" transform="translate(-333.871 -17.896)" fill="#557ea5"/>
      <path id="Trazado_131214" data-name="Trazado 131214" d="M379.517,65.035c.008.447.009.893.026,1.34.008.195-.071.244-.253.242q-1.386-.009-2.772,0c-.183,0-.259-.048-.251-.243.017-.446.016-.893.022-1.34h3.228" transform="translate(-345.495 -24.469)" fill="#88ccf4"/>
      <path id="Trazado_131215" data-name="Trazado 131215" d="M385.74,65.033c.005.434,0,.868.021,1.3.013.24-.082.287-.3.284-.752-.012-1.505-.01-2.258,0-.215,0-.32-.045-.306-.286.024-.432.023-.866.032-1.3h2.811" transform="translate(-347.548 -24.469)" fill="#87caf2"/>
      <path id="Trazado_131216" data-name="Trazado 131216" d="M366.41,65.033c.005.433,0,.867.022,1.3.012.24-.086.289-.3.286q-1.1-.016-2.211,0c-.219,0-.312-.047-.3-.286.023-.432.019-.866.026-1.3h2.764" transform="translate(-341.577 -24.469)" fill="#87caf2"/>
      <path id="Trazado_131217" data-name="Trazado 131217" d="M345.229,45.228c-.037-.3-.311-.321-.508-.407-.793-.344-1.6-.667-2.392-1-.06-.026-.1-.1-.15-.148a1.517,1.517,0,0,1,1.659-.133,23.383,23.383,0,0,0,2.276.958.445.445,0,0,1,.308.572c-.05.3-.3.156-.456.169-.244.019-.491,0-.737-.008" transform="translate(-334.936 -17.752)" fill="#4a6f8f"/>
      <path id="Trazado_131218" data-name="Trazado 131218" d="M346.72,50.821q0-1.411,0-2.822c1.109-.072,1.109-.072,1.109,1.021,0,.507-.008,1.013,0,1.52,0,.217-.052.324-.291.306-.273-.021-.548-.017-.823-.024" transform="translate(-336.343 -19.184)" fill="#82bee1"/>
      <path id="Trazado_131219" data-name="Trazado 131219" d="M346.725,56.82q0-1.394,0-2.787c1.113-.066,1.113-.066,1.113,1.027,0,.49-.007.981,0,1.471,0,.217-.063.322-.295.308-.273-.017-.547-.013-.821-.019" transform="translate(-336.344 -21.054)" fill="#476b8a"/>
      <path id="Trazado_131220" data-name="Trazado 131220" d="M372.873,64.711H369.6c-.044-.707-.044-.707.632-.707.726,0,1.454.026,2.178-.01.408-.021.55.112.483.5-.012.071-.013.144-.019.216" transform="translate(-343.425 -24.146)" fill="#9ed6f4"/>
      <path id="Trazado_131221" data-name="Trazado 131221" d="M379.518,64.711H376.29c-.05-.707-.05-.707.621-.707.721,0,1.444.03,2.163-.011.425-.024.525.14.469.506-.011.07-.017.142-.024.213" transform="translate(-345.496 -24.145)" fill="#9ed6f4"/>
      <path id="Trazado_131222" data-name="Trazado 131222" d="M385.74,64.709h-2.811a.193.193,0,0,1-.012-.041c-.051-.665-.051-.665.592-.665.592,0,1.187.032,1.777-.011.422-.03.529.132.471.5-.011.071-.011.144-.017.215" transform="translate(-347.549 -24.145)" fill="#9ed6f4"/>
      <path id="Trazado_131223" data-name="Trazado 131223" d="M366.413,64.716h-2.764c-.055-.708-.055-.711.624-.708s1.387.014,2.081.022l.061.072c0,.2,0,.408,0,.612" transform="translate(-341.579 -24.151)" fill="#9ed6f4"/>
      <path id="Trazado_131224" data-name="Trazado 131224" d="M338.854,48.007l-.085.066c-.008-.069.028-.08.085-.066" transform="translate(-333.879 -19.193)" fill="#82bee1"/>
      <path id="Trazado_131225" data-name="Trazado 131225" d="M367.638,64.113l-.061-.072c.06-.009.077.018.061.072" transform="translate(-342.803 -24.16)" fill="#87caf2"/>
      <path id="Trazado_131226" data-name="Trazado 131226" d="M345.468,29.2c.192-.306.371-.623.579-.918a1.291,1.291,0,0,0,0-1.609c-.783-1.168-1.545-2.349-2.314-3.526-.052-.08-.144-.146-.124-.271a2.329,2.329,0,0,1,1.92.474c1.1.916,2.291,1.73,3.435,2.6a1.505,1.505,0,0,0,1.258.312c1.924-.35,3.854-.678,5.782-1.008a3.687,3.687,0,0,1,.6-.047q4.116-.007,8.23-.009c.6,0,.8-.2.833-.8a8.779,8.779,0,0,0,2.013.108c.132.547.3.687.873.687,1.463,0,2.925.015,4.387-.01a4.621,4.621,0,0,1,1.98.387c.621.273,1.252.522,1.879.781a.94.94,0,0,1-.6.585c-.869.361-1.742.712-2.615,1.062a4.467,4.467,0,0,1-1.692.513c-3.716-.043-7.43.069-11.146.088-1.975.01-3.951,0-5.927,0a2.087,2.087,0,0,1-.348-.006c-1.435-.246-2.884-.436-4.3-.764a4.078,4.078,0,0,0-3.855.819,1.766,1.766,0,0,1-.859.552m17.347-1.821a.824.824,0,0,0-.849-.808.837.837,0,0,0-.832.83.868.868,0,0,0,.875.842.857.857,0,0,0,.806-.863m3.039.028a.815.815,0,0,0-.815-.837.836.836,0,0,0-.86.8.864.864,0,0,0,.845.87.844.844,0,0,0,.83-.834m2.3-.841a.823.823,0,0,0-.853.8.85.85,0,0,0,.836.873.839.839,0,0,0,.83-.833.819.819,0,0,0-.812-.84m-10.112.853a.83.83,0,0,0,.83.828.852.852,0,0,0,.838-.872.83.83,0,0,0-.86-.8.809.809,0,0,0-.808.841" transform="translate(-335.379 -11.4)" fill="#e6eaf3"/>
      <path id="Trazado_131227" data-name="Trazado 131227" d="M345.454,30.769a1.76,1.76,0,0,0,.859-.552,4.078,4.078,0,0,1,3.855-.819c1.416.329,2.865.518,4.3.764a2.163,2.163,0,0,0,.348.006c1.975,0,3.952.008,5.927,0,3.716-.019,7.43-.13,11.146-.088a4.474,4.474,0,0,0,1.692-.513c.873-.35,1.746-.7,2.615-1.062a.94.94,0,0,0,.6-.585c.31.12.623.231.927.363a.729.729,0,0,1,.465.723.708.708,0,0,1-.451.687q-1.767.726-3.544,1.429a2.786,2.786,0,0,1-1.033.122c-5.535.012-11.07.041-16.605.025a22.832,22.832,0,0,1-3.436-.531c-.975-.153-1.948-.311-2.917-.5a1.486,1.486,0,0,0-1.253.329c-1.095.838-2.234,1.623-3.292,2.5a2.29,2.29,0,0,1-2.086.543l1.886-2.845" transform="translate(-335.366 -12.972)" fill="#d6deec"/>
      <path id="Trazado_131228" data-name="Trazado 131228" d="M372.333,19.953a8.743,8.743,0,0,1-2.013-.108.859.859,0,0,0-.466-.508c0-.185-.147-.277-.26-.385-.682-.65-1.331-1.333-2.031-1.968-1.1-.993-2.109-2.076-3.184-3.094-1.782-1.686-3.508-3.432-5.259-5.151a2,2,0,0,0-.269-.218c-.122-.085-.237-.17-.248-.335.812-.006,1.625-.007,2.437-.023a.539.539,0,0,1,.41.2q5.544,5.382,11.1,10.759c.168.163.228.266-.006.415-.141.09-.154.271-.206.42" transform="translate(-340.023 -6.853)" fill="#d8e0ee"/>
      <path id="Trazado_131229" data-name="Trazado 131229" d="M358.456,8.187a.444.444,0,0,0,.248.335,2,2,0,0,1,.269.219c1.75,1.719,3.477,3.464,5.258,5.15,1.076,1.018,2.089,2.1,3.185,3.094.7.634,1.349,1.318,2.031,1.968.113.107.257.2.26.384-1.568,0-3.136,0-4.7.008a.47.47,0,0,1-.48-.263q-3.16-5.378-6.339-10.745c-.021-.037-.037-.076-.057-.117.108-.086.219-.046.329-.032" transform="translate(-339.876 -6.854)" fill="#e6eaf3"/>
      <path id="Trazado_131230" data-name="Trazado 131230" d="M369.715,34.687a.4.4,0,0,1-.155.3c-1.657,1.641-3.324,3.271-5.03,4.859-.043.039-.084.081-.125.121-1.757,1.727-3.519,3.45-5.264,5.188-.229.228-.605.32-.677.7l-.3.018c-.035-.148.067-.224.12-.315q3.115-5.285,6.236-10.566c.093-.156.153-.326.405-.324,1.6.017,3.2.016,4.794.021" transform="translate(-339.884 -15.062)" fill="#e6eaf3"/>
      <path id="Trazado_131231" data-name="Trazado 131231" d="M370.679,29.048a.858.858,0,0,1-.806.864A.867.867,0,0,1,369,29.07a.835.835,0,0,1,.831-.83.824.824,0,0,1,.849.808" transform="translate(-343.244 -13.072)" fill="#060606"/>
      <path id="Trazado_131232" data-name="Trazado 131232" d="M375.084,29.074a.844.844,0,0,1-.83.834.864.864,0,0,1-.846-.87.837.837,0,0,1,.86-.8.816.816,0,0,1,.815.837" transform="translate(-344.609 -13.071)" fill="#060606"/>
      <path id="Trazado_131233" data-name="Trazado 131233" d="M378.785,28.232a.819.819,0,0,1,.812.84.839.839,0,0,1-.83.833.85.85,0,0,1-.836-.873.823.823,0,0,1,.853-.8" transform="translate(-346.01 -13.069)" fill="#060606"/>
      <path id="Trazado_131234" data-name="Trazado 131234" d="M364.518,29.091a.809.809,0,0,1,.808-.841.83.83,0,0,1,.86.8.852.852,0,0,1-.838.872.829.829,0,0,1-.83-.828" transform="translate(-341.856 -13.075)" fill="#040404"/>
    </g>
  </g>
</svg>
