<svg xmlns="http://www.w3.org/2000/svg" width="67.922" height="53.862" viewBox="0 0 67.922 53.862">
  <g id="Grupo_86277" data-name="Grupo 86277" transform="translate(-2070.633 -88.913)">
    <path id="Trazado_128776" data-name="Trazado 128776" d="M2115.82,97.106a24.515,24.515,0,0,1,2.475-1.721,8.723,8.723,0,0,1,12.821,7.529c.036,1.723.04,3.448,0,5.171a8.6,8.6,0,0,1-3.631,7.028,2.218,2.218,0,0,0-.419,1.973.8.8,0,0,0,.453.217c1.308.32,2.622.613,3.927.944a9.266,9.266,0,0,1,7.1,9.091c.013,2.807,0,5.613,0,8.419,0,1.249-.47,1.71-1.736,1.711q-4.708,0-9.416,0h-.8c0,1.193,0,2.334,0,3.475,0,1.387-.442,1.829-1.827,1.829h-14.124c-.133,0-.266,0-.4,0a1.365,1.365,0,0,1-1.4-1.3,1.34,1.34,0,0,1,1.426-1.342c1.834-.021,3.669-.007,5.5-.007h.851c.011-.245.031-.457.031-.669,0-1.635,0-3.27,0-4.905,0-.966.532-1.578,1.328-1.576s1.318.617,1.323,1.583c.009,1.83,0,3.659,0,5.527h4.611c0-1.157,0-2.319,0-3.48,0-.678.017-1.356.016-2.034a9.708,9.708,0,0,0-7.914-9.955c-2-.466-3.988-.946-6.03-1.431-.522,1.179-1.031,2.323-1.536,3.47-.845,1.918-1.693,3.835-2.527,5.758-.265.611-.632,1.079-1.356,1.075s-1.079-.477-1.346-1.089c-1.253-2.872-2.522-5.736-3.786-8.6-.087-.2-.182-.394-.3-.658-2.543.645-5.111,1.139-7.571,1.957a9.43,9.43,0,0,0-6.339,8.916c-.023,2.008,0,4.016,0,6.068h4.641v-4.83c0-.287-.011-.575,0-.862a1.358,1.358,0,0,1,1.358-1.414,1.335,1.335,0,0,1,1.286,1.414c.022,1.259.007,2.519.007,3.779,0,.618,0,1.235,0,1.957h.721c1.635,0,3.271-.005,4.907,0,.984,0,1.584.5,1.6,1.3.02.82-.6,1.353-1.613,1.354q-6.962.006-13.926,0c-1.165,0-1.642-.488-1.647-1.664s0-2.377,0-3.638h-.764q-4.708,0-9.416,0c-1.3,0-1.753-.458-1.755-1.759,0-2.762-.007-5.524,0-8.287a9.253,9.253,0,0,1,7.215-9.2c1.263-.316,2.528-.627,3.8-.906.406-.089.494-.272.525-.668a1.923,1.923,0,0,0-.868-1.87,7.717,7.717,0,0,1-3.153-5.755,40.48,40.48,0,0,1,.074-7.273,8.053,8.053,0,0,1,5.854-6.946,8.435,8.435,0,0,1,8.782,1.979c.16.145.315.3.475.446,2.025-5.289,5.72-8.393,11.445-8.318C2110.306,88.986,2113.876,92.046,2115.82,97.106Zm-20.218,7.23c0,1.262-.054,2.432.01,3.595a9.085,9.085,0,0,0,8.266,8.47,8.973,8.973,0,0,0,9.6-7.623c.184-1.481.086-3,.143-4.494a.756.756,0,0,0-.449-.781q-2.213-1.262-4.394-2.581a.642.642,0,0,0-.913.084,12.448,12.448,0,0,1-8.683,3.33Zm17.962-3.675a8.762,8.762,0,0,0-4.692-8.052,8.641,8.641,0,0,0-9.671.745,8.975,8.975,0,0,0-3.59,8.325c1.277,0,2.49.011,3.7,0a9.89,9.89,0,0,0,7.413-3.27c.868-.932,1.313-.987,2.43-.332ZM2126.64,119.8c-.895,2.14-1.764,4.189-2.593,6.254a1.11,1.11,0,0,0,.143.759,29.4,29.4,0,0,1,1.791,3.66,31.938,31.938,0,0,1,.8,4.3h3.811c0-1.889-.006-3.739,0-5.589,0-.984.507-1.562,1.325-1.562s1.32.578,1.325,1.561c.009,1.656,0,3.312,0,4.968v.626h2.536c0-2.919.2-5.821-.059-8.682a5.778,5.778,0,0,0-4.294-5.052C2129.885,120.537,2128.278,120.221,2126.64,119.8Zm-44.125,14.98a.931.931,0,0,0,.048-.18,12.579,12.579,0,0,1,2.507-7.931.651.651,0,0,0,.1-.532c-.857-2.1-1.738-4.189-2.627-6.315-1.435.347-2.837.64-4.213,1.029a6.529,6.529,0,0,0-5.036,6.691c0,1.5,0,3.005,0,4.508v2.72h2.65V130.9c0-.575-.007-1.149,0-1.724.015-.979.52-1.557,1.341-1.548s1.3.587,1.311,1.579c.007.508,0,1.017,0,1.525v4.055Zm-1.844-28.609c.052,1.014.045,1.9.152,2.772A6.062,6.062,0,0,0,2085.6,114a6.156,6.156,0,0,0,6.5-2.947c1.215-2.14.7-4.447.84-6.862C2089.02,106.254,2084.918,106.312,2080.671,106.174Zm35.607-1.928c0,1.406-.055,2.666.011,3.921a6.15,6.15,0,0,0,5.005,5.859c4.095.671,7.946-2.632,7.087-7.751-2.052-.079-4.107-.08-6.146-.258A17.536,17.536,0,0,1,2116.278,104.246Zm-23.645-2.9a6.116,6.116,0,0,0-7.328-4.15,5.994,5.994,0,0,0-4.493,6.309C2085.483,103.944,2089.883,103.148,2092.633,101.344Zm35.774,2.158a6.04,6.04,0,0,0-11.822-2.136C2120.227,103.639,2124.276,103.685,2128.407,103.5Zm-27.214,15.066a12.187,12.187,0,0,0,.285,3.128c.837,2.246,1.891,4.411,2.863,6.606a4.88,4.88,0,0,0,.288.479c.955-2.175,1.8-4.286,2.8-6.314.625-1.259.4-2.517.477-3.865A12.3,12.3,0,0,1,2101.193,118.568ZM2094.181,113c-.772.71-1.644,1.5-2.5,2.311a.721.721,0,0,0-.2.444c-.027.46-.01.923-.01,1.4,2.379.731,4.883.92,7.076,2.176.256-1.689.228-1.756-1.032-2.674a3.37,3.37,0,0,1-.557-.467C2096,115.1,2095.055,114.005,2094.181,113Zm23.54,4.149c0-.343.02-.674-.006-1-.021-.271-.005-.633-.167-.792-.851-.839-1.753-1.627-2.657-2.45a12.011,12.011,0,0,1-4.081,4.386.614.614,0,0,0-.239.422c-.029.517-.011,1.037-.011,1.672C2112.836,118.06,2115.344,117.882,2117.721,117.146Zm-28.963-.452H2084.7a18.668,18.668,0,0,0,.459,2.442c.321,1,.8,1.958,1.208,2.933.13.309.262.616.423.992C2088.438,120.05,2088.984,118.231,2088.758,116.694Zm33.6,6.29c.692-2.13,2.323-3.942,1.984-6.289h-3.95C2120.061,119.067,2121.669,120.867,2122.363,122.984Zm-9.2-1.959.009.13,6.143,1.612-1.233-2.953Zm-22.077-1.212-1.219,2.931,6.141-1.6.007-.121Z" fill="#583ae2"/>
    <path id="Trazado_128777" data-name="Trazado 128777" d="M2194.75,284.362a1.317,1.317,0,0,1,.009-2.635,1.317,1.317,0,1,1-.009,2.635Z" transform="translate(-90.196 -141.598)" fill="#583ae2"/>
  </g>
</svg>
