<svg xmlns="http://www.w3.org/2000/svg" width="90.997" height="90.997" viewBox="0 0 90.997 90.997">
  <g id="Grupo_86071" data-name="Grupo 86071" transform="translate(-0.278 -0.277)">
    <circle id="Elipse_5411" data-name="Elipse 5411" cx="45.498" cy="45.498" r="45.498" transform="translate(0.278 0.277)" fill="#2ff980"/>
    <g id="Grupo_87200" data-name="Grupo 87200" transform="translate(5.632 8.746)">
      <path id="Trazado_133301" data-name="Trazado 133301" d="M30.37,193.219l-3.086,0c-.2-.939-.531-1.229-1.481-1.238-2.028-.02-4.056-.028-6.084-.041a6.083,6.083,0,0,1-.8-3.733c.031-4.41.008-8.821.014-13.232,0-1.651-.24-3.346.795-4.83.013-.018,0-.051,0-.077.286-.013.573-.039.859-.039q33.632,0,67.263,0c2.025,0,3.05,1.014,3.051,3.021,0,5.225-.052,10.45.029,15.674a2.962,2.962,0,0,1-3.3,3.285c-18.5-.053-37-.03-55.5-.029-1.188,0-1.455.191-1.757,1.236M59.76,181.683c-1.129.652-2.176,1.237-3.2,1.854a1.143,1.143,0,0,0-.488,1.606,1.165,1.165,0,0,0,1.626.435c.3-.146.591-.33.886-.5l2.362-1.343c0,1.251-.005,2.37,0,3.488.005.9.464,1.448,1.185,1.438s1.161-.556,1.167-1.465c.007-1.113,0-2.226,0-3.461.976.556,1.852,1.052,2.725,1.552,1.053.6,1.7.57,2.12-.11.431-.7.133-1.3-.972-1.943-.87-.505-1.74-1.009-2.683-1.555,1.046-.607,2.017-1.161,2.98-1.731.819-.486,1.051-1.086.7-1.729-.366-.66-1.062-.775-1.894-.3-.964.55-1.923,1.108-2.973,1.715,0-1.216,0-2.307,0-3.4,0-.991-.414-1.52-1.173-1.525s-1.177.517-1.18,1.511c0,1.1,0,2.206,0,3.414-1.116-.641-2.1-1.222-3.1-1.778a1.187,1.187,0,0,0-1.765.339c-.364.63-.156,1.252.595,1.7.986.583,1.981,1.149,3.086,1.788m-16.837,2.051c0,1.243,0,2.339,0,3.436.005.953.468,1.516,1.215,1.492.714-.022,1.134-.563,1.138-1.484.005-1.109,0-2.217,0-3.454,1.084.624,2.046,1.184,3.014,1.733.8.452,1.467.341,1.846-.289s.16-1.258-.651-1.739c-.974-.578-1.958-1.14-3-1.749,1.09-.632,2.113-1.205,3.115-1.812a1.179,1.179,0,0,0,.371-1.9,1.193,1.193,0,0,0-1.576-.121c-1,.583-2.014,1.159-3.114,1.79,0-1.215,0-2.3,0-3.393,0-1-.406-1.523-1.162-1.529s-1.188.52-1.192,1.505c0,1.1,0,2.209,0,3.414-1.112-.64-2.1-1.206-3.092-1.781a1.235,1.235,0,0,0-1.4-.046,1.169,1.169,0,0,0,.165,2.051c1.013.613,2.048,1.191,3.147,1.826-1.116.644-2.13,1.232-3.145,1.816a1.178,1.178,0,1,0,1.165,2.036c1.025-.555,2.026-1.154,3.158-1.8m-18.019-4.109c-1.14-.653-2.144-1.252-3.171-1.808a1.169,1.169,0,0,0-1.836.839,1.249,1.249,0,0,0,.766,1.25c1,.57,2,1.154,3.072,1.777-1.131.652-2.153,1.225-3.157,1.828a1.152,1.152,0,0,0-.519,1.656,1.186,1.186,0,0,0,1.708.365c1.02-.56,2.021-1.153,3.138-1.795,0,1.207,0,2.292,0,3.376,0,.977.428,1.534,1.166,1.55s1.184-.545,1.189-1.509c0-1.1,0-2.206,0-3.432,1.083.621,2.025,1.165,2.971,1.7.847.482,1.534.38,1.9-.275s.118-1.276-.741-1.779c-.95-.556-1.905-1.1-2.927-1.691,1.1-.639,2.124-1.212,3.126-1.818a1.185,1.185,0,1,0-1.218-2.015c-1,.583-2.013,1.157-3.114,1.789,0-1.248.005-2.363,0-3.477-.006-.933-.421-1.443-1.159-1.447s-1.186.512-1.194,1.428c-.01,1.119,0,2.239,0,3.482m56.412,4.109c1.08.622,2.022,1.169,2.97,1.707.836.475,1.531.357,1.9-.309.346-.63.1-1.255-.708-1.729-.963-.566-1.934-1.117-2.977-1.718,1.1-.64,2.15-1.219,3.167-1.846a1.149,1.149,0,0,0,.285-1.906,1.223,1.223,0,0,0-1.584-.061c-.981.574-1.969,1.136-3.05,1.758,0-1.232.007-2.346,0-3.459-.008-.925-.434-1.444-1.17-1.454s-1.176.5-1.183,1.422c-.008,1.13,0,2.26,0,3.509-1.023-.592-1.92-1.113-2.82-1.628-.977-.559-1.649-.5-2.043.169-.409.694-.137,1.293.843,1.861l2.825,1.639-3.177,1.834a1.166,1.166,0,0,0-.645,1.157,1.08,1.08,0,0,0,.684.97,1.355,1.355,0,0,0,1.269-.156c.979-.574,1.967-1.133,3.065-1.764,0,1.2,0,2.255,0,3.314s.391,1.612,1.152,1.622c.783.01,1.2-.568,1.2-1.669,0-1.04,0-2.081,0-3.26" transform="translate(-12.965 -120.297)" fill="#b3efc4"/>
      <path id="Trazado_133302" data-name="Trazado 133302" d="M6.753,83.356c2.028.013,4.056.021,6.084.041.951.009,1.285.3,1.481,1.239a1.255,1.255,0,0,1-1.43,1.126c-2.613-.016-5.226.017-7.839-.014A4.931,4.931,0,0,1,.007,80.607q-.013-8.19,0-16.379a4.97,4.97,0,0,1,5.146-5.134c4.39-.012,8.78-.017,13.17.013.6,0,.72-.16.718-.733-.022-6.112-.015-12.225-.013-18.337,0-2.477,1.074-3.76,3.53-4.143.5-.078.332-.382.333-.618.012-2.037.005-4.075.008-6.112a17.244,17.244,0,0,1,34.356-2.35c.285,2.737.092,5.481.128,8.221.008.566.039.827.738.9A3.573,3.573,0,0,1,61.244,39.4c.06.937.023,1.88.017,2.82a1.308,1.308,0,0,1-1.179,1.34A1.339,1.339,0,0,1,58.9,42c.036-.625.008-1.253.006-1.88-.005-1.515-.384-1.89-1.91-1.89q-14.933,0-29.866,0c-.626,0-1.253.018-1.879.027-.781-.009-1.563-.032-2.344-.025-1,.01-1.521.474-1.524,1.475-.015,6.28-.006,12.559-.014,18.839,0,.387.089.569.519.554,1.015-.033,2.031-.027,3.047-.037,3.133.009,6.266.013,9.4.036.378,0,.475-.133.51-.487.147-1.479.31-2.958.507-4.431a1.767,1.767,0,0,0-.182-1.116,5.226,5.226,0,0,1-.417-3.8,5.293,5.293,0,0,1,4.194-4.085,5.227,5.227,0,0,1,5.518,1.951,5.4,5.4,0,0,1,.681,5.887,1.565,1.565,0,0,0-.263.875c.2,1.526.394,3.053.533,4.585.046.51.222.629.708.626,4.022-.019,8.044-.025,12.065,0,.606,0,.733-.18.728-.75-.026-3.394-.016-6.788-.011-10.182,0-1.034.211-1.293,1.177-1.533.936.25,1.172.546,1.174,1.553.006,3.394.017,6.788-.012,10.182-.005.578.125.734.721.73,4.309-.029,8.618-.017,12.928-.015a5.009,5.009,0,0,1,5.387,5.364q0,7.989,0,15.979a4.96,4.96,0,0,1-5.259,5.319q-28.01.012-56.021.014c-.856,0-1.407-.28-1.6-1.136.3-1.045.569-1.235,1.757-1.235,18.5,0,37-.024,55.5.029a2.963,2.963,0,0,0,3.3-3.285c-.081-5.223-.027-10.449-.029-15.674,0-2.007-1.026-3.022-3.051-3.022q-33.631,0-67.263,0c-.286,0-.573.025-.859.038-.625-.012-1.252-.061-1.875-.028a2.568,2.568,0,0,0-2.511,2.516q-.039,8.455,0,16.911a2.532,2.532,0,0,0,2.582,2.506c.6.013,1.2-.02,1.8-.032m22.11-47.505c.209.008.417.025.626.022,1.263-.014,1.075.143,1.106-1.062a70.016,70.016,0,0,1,.135-7.277A9.538,9.538,0,0,1,49.7,29.223q.009,3.017,0,6.035c0,.39.039.636.537.626,1.437-.027,2.874-.018,4.312,0,.368,0,.512-.12.5-.5-.078-2.739.164-5.485-.14-8.218A14.768,14.768,0,0,0,37.956,14.273a12.631,12.631,0,0,0-5.135,1.739,14.484,14.484,0,0,0-7.429,11.224c-.332,2.7-.063,5.418-.145,8.126-.013.434.186.526.565.517,1.017-.023,2.034-.021,3.052-.03m11.242.023c2.221,0,4.442,0,6.663,0,.341,0,.587.012.581-.472-.029-2.272.061-4.548-.046-6.816a7.151,7.151,0,0,0-14.232-.622,74.5,74.5,0,0,0-.123,7.513c-.013.481.3.39.573.391q3.292,0,6.584,0m.031,23.21c.835,0,1.67,0,2.5,0,.3,0,.492-.045.435-.438-.145-1-.264-2.01-.37-3.018a6.243,6.243,0,0,1,.389-3.943,3.065,3.065,0,0,0-1.674-4.03,3.19,3.19,0,0,0-3.589.77,3.06,3.06,0,0,0-.509,3.614,3.307,3.307,0,0,1,.454,1.943c-.183,1.523-.331,3.05-.545,4.568-.065.462.086.542.478.535.809-.014,1.617,0,2.426,0" transform="translate(0 -11.708)" fill="#020202"/>
      <path id="Trazado_133303" data-name="Trazado 133303" d="M114.516,104.539c-.965.24-1.175.5-1.177,1.533-.005,3.394-.015,6.788.01,10.182,0,.57-.123.754-.728.75-4.022-.029-8.043-.023-12.065,0-.485,0-.662-.116-.708-.626-.139-1.532-.336-3.059-.533-4.585a1.567,1.567,0,0,1,.263-.875,5.4,5.4,0,0,0-.681-5.888,5.228,5.228,0,0,0-5.518-1.951,5.293,5.293,0,0,0-4.194,4.085,5.229,5.229,0,0,0,.417,3.8,1.767,1.767,0,0,1,.182,1.116c-.2,1.473-.36,2.952-.507,4.431-.035.354-.133.489-.51.487-3.133-.023-6.266-.026-9.4-.036q0-9.3-.01-18.592a5.707,5.707,0,0,1,.326-2.215c.627-.009,1.253-.027,1.879-.027q14.933,0,29.866,0c1.526,0,1.9.376,1.91,1.891,0,.626.03,1.255-.007,1.88a1.339,1.339,0,0,0,1.179,1.568q0,1.538.007,3.075" transform="translate(-54.427 -69.607)" fill="#ea6d72"/>
      <path id="Trazado_133304" data-name="Trazado 133304" d="M140.545,191.9c-1.1-.639-2.1-1.205-3.086-1.788-.751-.444-.959-1.065-.595-1.7a1.187,1.187,0,0,1,1.765-.339c1,.556,1.983,1.137,3.1,1.778,0-1.208,0-2.311,0-3.415,0-.993.415-1.516,1.18-1.51s1.17.534,1.174,1.526c0,1.09,0,2.18,0,3.4,1.05-.606,2.009-1.165,2.973-1.714.832-.474,1.529-.359,1.894.3.356.642.123,1.243-.7,1.729-.962.57-1.934,1.125-2.98,1.731l2.682,1.555c1.1.641,1.4,1.24.972,1.943-.417.68-1.068.712-2.12.11-.874-.5-1.749-1-2.725-1.552,0,1.235.005,2.348,0,3.461-.006.909-.448,1.455-1.167,1.465s-1.179-.538-1.185-1.438c-.007-1.118,0-2.237,0-3.488l-2.362,1.342c-.295.167-.581.352-.886.5a1.164,1.164,0,0,1-1.626-.435,1.143,1.143,0,0,1,.488-1.607c1.027-.617,2.073-1.2,3.2-1.854" transform="translate(-93.751 -130.517)" fill="#020303"/>
      <path id="Trazado_133305" data-name="Trazado 133305" d="M84.4,193.957c-1.132.649-2.133,1.248-3.158,1.8a1.179,1.179,0,1,1-1.165-2.036c1.016-.584,2.03-1.172,3.145-1.816-1.1-.635-2.134-1.213-3.147-1.826a1.169,1.169,0,0,1-.164-2.05,1.234,1.234,0,0,1,1.4.045c.987.575,1.979,1.141,3.091,1.781,0-1.206,0-2.31,0-3.414,0-.985.426-1.511,1.192-1.5s1.159.533,1.161,1.529c0,1.089,0,2.178,0,3.393,1.1-.631,2.109-1.207,3.114-1.79a1.193,1.193,0,0,1,1.575.121,1.179,1.179,0,0,1-.371,1.9c-1,.607-2.024,1.18-3.115,1.812,1.047.608,2.031,1.171,3,1.749.811.481,1.034,1.1.651,1.739s-1.048.741-1.845.289c-.968-.549-1.93-1.109-3.014-1.733,0,1.236,0,2.345,0,3.454,0,.922-.423,1.462-1.138,1.485-.747.023-1.21-.539-1.215-1.493-.006-1.1,0-2.193,0-3.436" transform="translate(-54.439 -130.521)" fill="#020303"/>
      <path id="Trazado_133306" data-name="Trazado 133306" d="M27.044,189.848c0-1.243-.008-2.363,0-3.482.008-.917.451-1.433,1.194-1.429s1.153.514,1.158,1.447c.007,1.115,0,2.229,0,3.478,1.1-.632,2.11-1.206,3.114-1.789a1.185,1.185,0,1,1,1.219,2.015c-1,.606-2.024,1.179-3.126,1.818,1.022.59,1.977,1.135,2.927,1.691.859.5,1.112,1.122.741,1.779s-1.057.757-1.9.275c-.946-.539-1.889-1.083-2.971-1.7,0,1.226,0,2.329,0,3.432,0,.964-.45,1.525-1.188,1.509s-1.162-.572-1.166-1.55c0-1.085,0-2.17,0-3.376-1.118.642-2.119,1.235-3.139,1.795a1.185,1.185,0,0,1-1.708-.365,1.152,1.152,0,0,1,.519-1.656c1-.6,2.027-1.176,3.157-1.828-1.076-.623-2.07-1.207-3.072-1.777a1.248,1.248,0,0,1-.765-1.25,1.17,1.17,0,0,1,1.836-.84c1.027.556,2.031,1.155,3.171,1.808" transform="translate(-15.104 -130.519)" fill="#030403"/>
      <path id="Trazado_133307" data-name="Trazado 133307" d="M201.423,193.956c0,1.179,0,2.219,0,3.26,0,1.1-.42,1.679-1.2,1.669-.761-.01-1.15-.555-1.152-1.622s0-2.118,0-3.314c-1.1.63-2.085,1.19-3.065,1.764a1.355,1.355,0,0,1-1.269.156,1.08,1.08,0,0,1-.684-.97,1.166,1.166,0,0,1,.645-1.157l3.177-1.834-2.825-1.639c-.981-.568-1.253-1.166-.843-1.861.394-.669,1.066-.728,2.043-.169.9.515,1.8,1.036,2.82,1.628,0-1.249-.006-2.38,0-3.509.006-.919.441-1.433,1.183-1.422s1.162.529,1.17,1.454c.009,1.113,0,2.227,0,3.459,1.081-.622,2.069-1.184,3.05-1.758a1.223,1.223,0,0,1,1.584.061,1.149,1.149,0,0,1-.285,1.906c-1.017.627-2.063,1.206-3.167,1.846,1.043.6,2.015,1.152,2.977,1.718.807.475,1.055,1.1.708,1.729-.366.667-1.061.784-1.9.309-.947-.538-1.889-1.085-2.97-1.707" transform="translate(-133.071 -130.519)" fill="#030403"/>
      <path id="Trazado_133308" data-name="Trazado 133308" d="M11.891,191.947c-.6.012-1.2.045-1.8.032a2.532,2.532,0,0,1-2.582-2.506q-.041-8.455,0-16.911a2.568,2.568,0,0,1,2.511-2.515c.623-.034,1.25.016,1.875.028,0,.026.01.059,0,.077-1.035,1.483-.793,3.178-.8,4.83-.005,4.411.017,8.822-.013,13.232a6.079,6.079,0,0,0,.8,3.733" transform="translate(-5.138 -120.299)" fill="#8eccb1"/>
      <path id="Trazado_133309" data-name="Trazado 133309" d="M100.9,19.447a14.768,14.768,0,0,1,16.949,12.892c.3,2.734.063,5.479.14,8.218.011.376-.134.5-.5.5-1.437-.014-2.875-.023-4.312,0-.5.009-.539-.237-.537-.626q.016-3.018,0-6.035a9.538,9.538,0,0,0-18.966-1.689,69.929,69.929,0,0,0-.135,7.277c-.031,1.205.157,1.048-1.107,1.062-.208,0-.417-.014-.626-.022q0-3.244-.007-6.487a15.543,15.543,0,0,1,.03-2.186,16.1,16.1,0,0,1,7.97-12.111c.378-.227.923-.273,1.1-.794" transform="translate(-62.949 -16.882)" fill="#655e66"/>
      <path id="Trazado_133310" data-name="Trazado 133310" d="M71.918,96.157a5.712,5.712,0,0,0-.326,2.215q.021,9.3.01,18.592c-1.016.01-2.032,0-3.047.037-.43.014-.52-.168-.519-.555.009-6.28,0-12.559.014-18.839,0-1,.519-1.465,1.524-1.475.781-.008,1.563.016,2.344.025" transform="translate(-46.664 -69.61)" fill="#e55459"/>
      <path id="Trazado_133311" data-name="Trazado 133311" d="M93.019,19.873c-.176.521-.721.567-1.1.794a16.1,16.1,0,0,0-7.97,12.111,15.543,15.543,0,0,0-.03,2.186q0,3.244.007,6.487c-1.017.008-2.035.007-3.052.03-.379.008-.579-.083-.565-.517.082-2.708-.187-5.427.145-8.126a14.484,14.484,0,0,1,7.429-11.224,12.634,12.634,0,0,1,5.135-1.739" transform="translate(-55.064 -17.308)" fill="#534d54"/>
      <path id="Trazado_133312" data-name="Trazado 133312" d="M120.814,137.025c-.809,0-1.617-.01-2.426,0-.392.007-.543-.073-.478-.535.214-1.518.361-3.046.545-4.568a3.307,3.307,0,0,0-.454-1.943,3.06,3.06,0,0,1,.509-3.614,3.19,3.19,0,0,1,3.589-.77,3.065,3.065,0,0,1,1.674,4.029,6.244,6.244,0,0,0-.389,3.943c.106,1.008.225,2.015.37,3.017.057.393-.131.44-.435.438-.835-.005-1.67,0-2.5,0" transform="translate(-80.678 -89.649)" fill="#534d54"/>
    </g>
  </g>
</svg>
