<svg id="Grupo_86852" data-name="Grupo 86852" xmlns="http://www.w3.org/2000/svg" xmlns:xlink="http://www.w3.org/1999/xlink" width="76.405" height="76.48" viewBox="0 0 76.405 76.48">
  <defs>
    <clipPath id="clip-path">
      <rect id="Rectángulo_37010" data-name="Rectángulo 37010" width="76.405" height="76.48" fill="none"/>
    </clipPath>
  </defs>
  <g id="Grupo_86851" data-name="Grupo 86851" clip-path="url(#clip-path)">
    <path id="Trazado_131771" data-name="Trazado 131771" d="M10.209,76.384c-.791-.007-1.8.277-2.309-.106-.479-.362-.13-1.436-.138-2.2-.02-2.027-.012-4.054-.006-6.082a4.927,4.927,0,0,1,5.116-5.149c1.043-.006,1.043-.006,1.043-1.038,0-.052,0-.1,0-.154a6.548,6.548,0,0,0-1-4.324,9.57,9.57,0,0,1-1.467-5.874,22.427,22.427,0,0,1,.131-3.838,5.552,5.552,0,0,1,5.349-4.469,23.826,23.826,0,0,1,4.761.116,5.523,5.523,0,0,1,4.535,5.444c.011,2.274.223,4.574-.6,6.778A10.041,10.041,0,0,1,23.994,58.6c-.081.1-.2.208-.2.314-.016,1.232-.013,2.463-.016,3.695,0,.282.206.246.377.238a5.926,5.926,0,0,1,3.317.678V54.581c0-2.053.015-4.106-.008-6.159-.008-.747.189-1.341.961-1.546.458-.121.269-.438.27-.668.013-3.362.007-6.723.01-10.085a7.529,7.529,0,0,1,6.087-7.782c1.068-.264,2.134-.541,3.205-.792.388-.091.57-.217.589-.692a2.127,2.127,0,0,0-.875-2.021,6.2,6.2,0,0,1-2.089-2.9,1.294,1.294,0,0,0-1.462-1.008,4.237,4.237,0,0,1-4.212-4.518,4.089,4.089,0,0,1,2-3.367.872.872,0,0,0,.467-.848,43.791,43.791,0,0,1,.135-6.147A7.307,7.307,0,0,1,39.391.043C41.648-.024,43.908,0,46.166.033a4.814,4.814,0,0,1,4.39,3.2,1.149,1.149,0,0,0,.78.805,4.854,4.854,0,0,1,3.24,4.594c.015,1.206.017,2.412,0,3.618a.79.79,0,0,0,.439.783,4.279,4.279,0,0,1-2.315,7.92c-.655,0-1.017.1-1.267.823a7.689,7.689,0,0,1-2.645,3.518,2.737,2.737,0,0,0-.325,1.991c.1.145.269.125.416.155.728.148,1.456.293,2.183.447a6.3,6.3,0,0,1,4.727,3.881c.565,1.316,1.088,2.65,1.584,3.993.2.549.364.69.944.359q4.234-2.419,8.523-4.739A4.153,4.153,0,0,1,73,34.281a4.591,4.591,0,0,1-2.461,4.8c-2.281,1.269-4.581,2.5-6.873,3.754L60.3,44.674c-2.678,1.461-4.6,1.213-6.95-.991,0,1.036,0,1.964,0,2.893,0,.4.32.252.51.254,1.386.012,2.772,0,4.158.008,1.048.006,1.488.447,1.489,1.506q.006,7.121,0,14.242v.945a5.76,5.76,0,0,1,3.316-.675c.31.019.389-.1.385-.4-.014-1.1-.01-2.207,0-3.31a.842.842,0,0,0-.214-.551,10.719,10.719,0,0,1-2.24-6.568,21.054,21.054,0,0,1,.118-4.375,5.569,5.569,0,0,1,5.4-4.509c1.283-.022,2.567-.03,3.85,0a5.4,5.4,0,0,1,5.227,4.4,16.9,16.9,0,0,1-.468,8.061,8.472,8.472,0,0,1-1.582,2.962,1.033,1.033,0,0,0-.234.775c.006.95.038,1.9-.011,2.848-.028.545.129.7.671.666a4.943,4.943,0,0,1,4.467,1.914,4.671,4.671,0,0,1,1.03,2.917c.013,2.72,0,5.44.016,8.16,0,.419-.085.592-.539.56-.638-.044-1.282-.023-1.923-.03q-.019-1.84-.037-3.68c.008-1.663.043-3.326.015-4.988a2.407,2.407,0,0,0-2.413-2.39c-4.119-.014-8.239.008-12.358.016a2.419,2.419,0,0,0-2.465,2.546c-.015,2.832-.011,5.664-.015,8.5l-2.448,0q-.015-1.839-.03-3.678.012-11.421.031-22.842c0-.434-.131-.575-.567-.569-1.564.022-3.13.051-4.691-.01-.745-.029-.971.172-.923.924.161,2.494-.016,5-1.439,7.106a6.769,6.769,0,0,0-1.012,4.405,2.4,2.4,0,0,1,0,.461c-.081.543.144.756.681.677a3.021,3.021,0,0,1,.461,0,4.918,4.918,0,0,1,5.021,5.006c.013,1.615.017,3.229.025,4.844q-.015,1.839-.03,3.678l-2.448,0q-.019-1.84-.037-3.68c.008-1.663.043-3.326.015-4.988a2.407,2.407,0,0,0-2.413-2.39c-4.119-.014-8.239.008-12.358.016a2.419,2.419,0,0,0-2.465,2.546c-.015,2.832-.011,5.664-.015,8.5l-2.448,0c0-1.759-.024-3.518,0-5.276a30.054,30.054,0,0,1,.114-4.422,4.928,4.928,0,0,1,3.414-3.634,6.3,6.3,0,0,1,2.055-.2c.233,0,.562.1.564-.313.006-1.179.008-2.358-.008-3.536a.746.746,0,0,0-.2-.4,10.778,10.778,0,0,1-1.978-4.284,17.218,17.218,0,0,1-.262-4.357c0-.473-.089-.694-.626-.669-1.023.047-2.049.027-3.074.035a14.808,14.808,0,0,1-1.611-.035c-.737-.091-.874.219-.873.9q.029,13.1.008,26.195l-2.448,0q-.019-1.84-.037-3.68c.008-1.663.042-3.326.015-4.988a2.407,2.407,0,0,0-2.413-2.39c-4.119-.014-8.239.008-12.358.016a2.419,2.419,0,0,0-2.465,2.546c-.015,2.832-.011,5.664-.015,8.5M33.634,31.442a4.739,4.739,0,0,0-2.456,4.311c-.036,3.1-.01,6.2-.01,9.294,0,1.815,0,1.8,1.838,1.8.5,0,.643-.123.638-.631-.024-2.663-.009-5.326-.007-7.989.615-.006,1.232.023,1.843-.027.515-.042.634.142.628.636-.021,1.792.005,3.585.014,5.378-.008.735-.021,1.469-.02,2.2,0,.134-.081.328.118.388.228.068.294-.111.366-.284a6.873,6.873,0,0,1,1.555-2.131,7.674,7.674,0,0,1,1.752-.932.427.427,0,0,0,.359-.421c.237-2.653.5-5.3.708-7.96.035-.449-.109-.951-.836-.631a1.156,1.156,0,0,1-1.312-.4q-1.25-1.251-2.5-2.5c-.939-.937-1.036-.957-2.23-.393a3.924,3.924,0,0,0-.446.287M52.1,9.868c.005-.281.016-.563.015-.845A2.506,2.506,0,0,0,49.59,6.177c-.747-.092-1.093-.489-1.175-1.354a2.476,2.476,0,0,0-2.488-2.334c-2.1-.016-4.2-.055-6.3.015a4.306,4.306,0,0,0-3.557,1.8,3.43,3.43,0,0,0-1.043,2.008,31.57,31.57,0,0,0-.112,5.456,1.691,1.691,0,0,1,1.646-.663c1.307.019,2.618.055,3.922-.009a6.156,6.156,0,0,0,3.658-1.187,6.014,6.014,0,0,0,1.936-1.822,1.254,1.254,0,0,1,2.133-.168c.683.655,1.356,1.321,2.033,1.983L52.1,11.583ZM63.238,51.45a8.628,8.628,0,0,0,1.394,5.26,2.491,2.491,0,0,0,2.126,1.2,26.682,26.682,0,0,0,2.771-.006,2.408,2.408,0,0,0,2.164-1.359,7.95,7.95,0,0,0,1.216-3.11,22.262,22.262,0,0,0,.112-4.978,3.074,3.074,0,0,0-3.083-2.845q-1.8-.047-3.609,0a3.151,3.151,0,0,0-3.117,3.149c-.021.895.015,1.791.026,2.686M22.4,56.546a7.474,7.474,0,0,0,1.051-2.373,17.421,17.421,0,0,0,.257-5.814,3.009,3.009,0,0,0-3.026-2.743q-1.846-.058-3.695,0a3.068,3.068,0,0,0-2.961,2.459,14.83,14.83,0,0,0-.077,3.373,8.641,8.641,0,0,0,1.415,5.3A2.486,2.486,0,0,0,17.5,57.912a26.305,26.305,0,0,0,2.679,0A2.425,2.425,0,0,0,22.4,56.546m24.5.162a6.141,6.141,0,0,0,1.2-2.544,17.529,17.529,0,0,0,.272-5.733,3.05,3.05,0,0,0-3.117-2.82c-1.179-.027-2.36-.03-3.539,0a3.153,3.153,0,0,0-3.143,3.139c-.024.948.019,1.9.032,2.845a8.366,8.366,0,0,0,1.517,5.265,2.449,2.449,0,0,0,2.035,1.053,25.248,25.248,0,0,0,2.682-.008,2.193,2.193,0,0,0,2.064-1.2m1.937-12.316a6.865,6.865,0,0,1,1.555,2.13c.072.173.137.352.366.285.2-.059.119-.253.12-.387,0-.684-.012-1.368-.021-2.051.009-1.153.03-2.307.02-3.46a1.3,1.3,0,0,1,.781-1.366,1.284,1.284,0,0,1,1.511.436c.776.784,1.551,1.569,2.34,2.338a2.392,2.392,0,0,0,3.021.5c2.4-1.272,4.765-2.6,7.155-3.877.385-.207.359-.392.165-.712-.426-.7-.856-1.4-1.215-2.135-.234-.48-.45-.454-.859-.222-1.936,1.1-3.886,2.175-5.837,3.249-1.076.593-1.7.368-2.162-.774q-1.125-2.772-2.231-5.552a4.306,4.306,0,0,0-1.375-1.813c-.377-.3-.644-.341-1.018.058-.945,1.011-1.95,1.967-2.925,2.949a1.347,1.347,0,0,1-1.374.474c-.588-.156-.894.077-.84.686.229,2.6.476,5.206.708,7.81.023.257.082.422.362.5a7.329,7.329,0,0,1,1.753.931M49.6,16.114c.427-2.113.011-3.911-1.863-5.169a.459.459,0,0,1-.105-.111c-.246-.334-.443-.246-.708.017A9.267,9.267,0,0,1,41.5,13.488a27.747,27.747,0,0,1-3.613.073c-.413,0-.577.078-.568.537.031,1.513-.013,3.028.021,4.541a6.148,6.148,0,0,0,12.194.986,19.9,19.9,0,0,0,.071-3.511M70.6,60.279a24.973,24.973,0,0,1-4.928,0c0,.733.015,1.474-.006,2.214-.01.344.165.36.427.359,1.36-.007,2.72-.013,4.08,0,.335,0,.446-.092.434-.432-.024-.714-.007-1.43-.007-2.148m-24.644,0a25.164,25.164,0,0,1-4.928,0c0,.73.015,1.471-.006,2.211-.01.341.161.363.425.361,1.36-.008,2.72-.013,4.08,0,.332,0,.449-.086.437-.43-.024-.714-.007-1.43-.007-2.149m-29.572.006c0,.724.015,1.465-.006,2.205-.01.335.152.367.42.365,1.36-.009,2.72-.013,4.081,0,.326,0,.453-.077.441-.425-.025-.714-.007-1.431-.007-2.151a25.728,25.728,0,0,1-4.928,0M70.594,35.016a1.688,1.688,0,0,0-2.359-1.581c-.491.21-.942.513-1.421.755-.272.138-.292.278-.137.537.487.811.947,1.639,1.417,2.46.075.131.125.266.332.246a2.91,2.91,0,0,0,2.169-2.417M52.115,16.61c0,.51.008,1.02,0,1.529-.006.248.063.343.336.37a1.939,1.939,0,0,0,2.119-1.664,1.892,1.892,0,0,0-1.651-2.037c-.606-.089-.907.052-.81.732a7.718,7.718,0,0,1,.009,1.069m-17.251.075c0-.484,0-.969,0-1.453,0-.246,0-.411-.344-.44a1.954,1.954,0,0,0-2.1,1.6A1.871,1.871,0,0,0,34,18.479c.55.082,1.029.087.878-.726a5.932,5.932,0,0,1-.011-1.069M43.58,35.824l-.168,0c-.02.143-.047.286-.06.43-.183,2.015-.334,4.033-.564,6.042-.076.66.01.882.739.862.638-.018.8-.2.667-.782a8.025,8.025,0,0,1-.1-.993q-.256-2.778-.513-5.556M43.5,28.283c.779-.259,1.53-.5,2.274-.76.258-.09.19-.34.171-.531-.032-.314-.26-.162-.4-.125a8.2,8.2,0,0,1-4.088,0c-.146-.037-.37-.191-.414.11-.027.188-.1.446.158.536.767.27,1.542.516,2.3.767m2.267,1.947c.409.368.792.7,1.156,1.048.181.174.313.217.508.017.423-.435.865-.853,1.322-1.3a3.018,3.018,0,0,0-2.986.235m-7.53-.12c.492.442.9.793,1.287,1.162.175.166.318.249.505.027.338-.4.823-.68,1.044-1.159a2.738,2.738,0,0,0-2.836-.029m5.2,3.16c.652.177.889-.288,1.1-.766.052-.122-.868-1.058-1.019-1.07-.186-.015-1.145.935-1.065,1.09.2.39.351.891.987.745" transform="translate(-5.287 0.001)" fill="#020101"/>
    <path id="Trazado_131772" data-name="Trazado 131772" d="M11.1.058c2.385,0,4.771,0,7.156,0a3.693,3.693,0,0,1,3.923,3.888q.013,4.731,0,9.462A3.639,3.639,0,0,1,19.253,17.2c-.432.113-.487.261-.394.673.289,1.272.506,2.561.786,3.835a1.28,1.28,0,0,1-2.182,1.28c-2.1-1.764-4.221-3.5-6.313-5.277A1.643,1.643,0,0,0,9.979,17.3c-2.026.021-4.052.015-6.078.007A3.7,3.7,0,0,1,.006,13.39Q0,8.658.006,3.927A3.688,3.688,0,0,1,3.872.061c2.411-.009,4.822,0,7.232,0m8.588,13.549c.009-3.259.026-6.517.02-9.776a1.2,1.2,0,0,0-1.3-1.3Q11.058,2.525,3.7,2.55c-.907.145-1.232.5-1.233,1.425q-.01,4.652,0,9.305c0,1.144.426,1.56,1.588,1.561,2.23,0,4.461.012,6.692-.007a2,2,0,0,1,1.4.507c1.209,1.031,2.436,2.04,3.662,3.051a1.244,1.244,0,0,0,.725.433c-.1-.53-.159-1.014-.288-1.479-.592-2.127.184-2.7,2.019-2.5a.947.947,0,0,0,.154,0c.789-.044,1.135-.38,1.272-1.234" transform="translate(0 -0.039)" fill="#020101"/>
    <path id="Trazado_131773" data-name="Trazado 131773" d="M186.815,20.021c2.385,0,4.77-.005,7.156,0a3.693,3.693,0,0,1,3.907,3.9q.012,4.731,0,9.462a3.7,3.7,0,0,1-3.854,3.88c-2.052.01-4.1.012-6.155-.006a1.556,1.556,0,0,0-1.105.392c-2.094,1.772-4.213,3.513-6.313,5.277a1.335,1.335,0,0,1-1.671.318,1.318,1.318,0,0,1-.531-1.611c.285-1.274.491-2.565.79-3.834.111-.47-.076-.544-.446-.642a3.647,3.647,0,0,1-2.89-3.749q-.011-4.769,0-9.539a3.688,3.688,0,0,1,3.881-3.851c2.411-.008,4.822,0,7.232,0m8.572,13.549c.009-3.259.026-6.517.02-9.776a1.2,1.2,0,0,0-1.3-1.3q-7.353-.005-14.706.02c-.854.136-1.225.484-1.229,1.272q-.022,4.846,0,9.693a1.23,1.23,0,0,0,1.357,1.327c.282.01.564,0,.846,0,1.14.018,1.631.626,1.41,1.738-.147.74-.287,1.482-.463,2.39.325-.241.51-.366.682-.508,1.2-1,2.421-1.981,3.6-3.012a2.412,2.412,0,0,1,1.745-.619c2.205.03,4.411.016,6.616.008.924,0,1.281-.326,1.427-1.233" transform="translate(-121.479 -13.841)" fill="#020101"/>
    <path id="Trazado_131774" data-name="Trazado 131774" d="M175.673,222.795c0-2.832,0-5.664.015-8.5a2.419,2.419,0,0,1,2.465-2.546c0,1.231-.009,2.462,0,3.693a3.755,3.755,0,0,0,3.677,3.671q5.541.008,11.082,0,.019,1.84.037,3.68H175.673" transform="translate(-121.464 -146.409)" fill="#583ae2"/>
    <path id="Trazado_131775" data-name="Trazado 131775" d="M95.811,222.795c0-2.832,0-5.664.015-8.5a2.419,2.419,0,0,1,2.465-2.546c0,1.231-.009,2.462,0,3.693a3.755,3.755,0,0,0,3.677,3.671q5.541.008,11.082,0,.019,1.84.037,3.68H95.811" transform="translate(-66.245 -146.409)" fill="#583ae2"/>
    <path id="Trazado_131776" data-name="Trazado 131776" d="M15.949,222.795c0-2.832,0-5.664.015-8.5a2.419,2.419,0,0,1,2.465-2.546c0,1.231-.009,2.462,0,3.693a3.755,3.755,0,0,0,3.677,3.671q5.541.008,11.082,0l.037,3.68H15.949" transform="translate(-11.027 -146.409)" fill="#583ae2"/>
    <path id="Trazado_131777" data-name="Trazado 131777" d="M79.841,186.787q0-13.1-.008-26.195c0-.677.136-.987.873-.9a14.807,14.807,0,0,0,1.611.035q0,8.349,0,16.7c0,.224-.065.466.117.661a30.053,30.053,0,0,0-.114,4.422c-.024,1.758,0,3.518,0,5.276H79.841" transform="translate(-55.198 -110.406)" fill="#6ac9d6"/>
    <path id="Trazado_131778" data-name="Trazado 131778" d="M159.721,239.282q.015-1.839.03-3.678h2.415q.015,1.839.03,3.678h-2.475" transform="translate(-110.434 -162.901)" fill="#6ac9d6"/>
    <path id="Trazado_131779" data-name="Trazado 131779" d="M116.084,39.9a19.9,19.9,0,0,1-.071,3.511,6.148,6.148,0,0,1-12.194-.986c-.033-1.513.01-3.028-.021-4.541-.01-.459.155-.536.568-.537a27.8,27.8,0,0,0,3.613-.073,9.269,9.269,0,0,0,5.428-2.638c.266-.263.462-.35.708-.017a.465.465,0,0,0,.106.111c1.874,1.258,2.289,3.056,1.863,5.169" transform="translate(-71.768 -23.789)" fill="#f3f1ff"/>
    <path id="Trazado_131780" data-name="Trazado 131780" d="M148.331,183.121h-2.415c-.008-1.615-.012-3.229-.025-4.844a4.918,4.918,0,0,0-5.021-5.006,3.057,3.057,0,0,0-.461,0c-.537.079-.762-.134-.681-.677a2.421,2.421,0,0,0,0-.461,6.767,6.767,0,0,1,1.012-4.4c1.423-2.105,1.6-4.612,1.44-7.106-.049-.752.178-.953.923-.924,1.562.061,3.128.032,4.691.01.436-.006.568.134.567.569q-.028,11.42-.032,22.841" transform="translate(-96.599 -110.418)" fill="#8fd6e0"/>
    <path id="Trazado_131781" data-name="Trazado 131781" d="M134.789,113.295a7.313,7.313,0,0,0-1.754-.931c-.28-.079-.339-.245-.362-.5-.232-2.6-.48-5.206-.708-7.81-.054-.609.252-.842.84-.686a1.347,1.347,0,0,0,1.374-.474c.975-.983,1.979-1.939,2.925-2.949.374-.4.641-.357,1.018-.058A4.309,4.309,0,0,1,139.5,101.7q1.1,2.781,2.231,5.552c.463,1.141,1.086,1.366,2.162.774,1.951-1.074,3.9-2.149,5.837-3.249.409-.232.625-.258.859.222.358.734.789,1.435,1.215,2.135.194.32.221.5-.165.712-2.391,1.281-4.759,2.6-7.155,3.877a2.392,2.392,0,0,1-3.021-.5c-.79-.77-1.564-1.554-2.34-2.338a1.284,1.284,0,0,0-1.51-.436,1.3,1.3,0,0,0-.781,1.366c.009,1.153-.012,2.307-.02,3.46l-2.02.023" transform="translate(-91.239 -68.902)" fill="#d5cef8"/>
    <path id="Trazado_131782" data-name="Trazado 131782" d="M198.454,219.067q-5.541,0-11.082,0A3.755,3.755,0,0,1,183.7,215.4c-.006-1.231,0-2.462,0-3.693,4.12-.008,8.239-.03,12.358-.016a2.406,2.406,0,0,1,2.412,2.39c.028,1.662-.007,3.325-.014,4.988" transform="translate(-127.009 -146.363)" fill="#826be9"/>
    <path id="Trazado_131783" data-name="Trazado 131783" d="M38.73,219.067q-5.541,0-11.082,0a3.755,3.755,0,0,1-3.678-3.671c-.006-1.231,0-2.462,0-3.693,4.12-.008,8.239-.03,12.358-.016a2.406,2.406,0,0,1,2.412,2.39c.028,1.662-.007,3.325-.015,4.988" transform="translate(-16.572 -146.363)" fill="#826be9"/>
    <path id="Trazado_131784" data-name="Trazado 131784" d="M118.592,219.067q-5.541,0-11.082,0a3.755,3.755,0,0,1-3.677-3.671c-.006-1.231,0-2.462,0-3.693,4.12-.008,8.239-.03,12.358-.016a2.406,2.406,0,0,1,2.412,2.39c.028,1.662-.007,3.325-.015,4.988" transform="translate(-71.79 -146.363)" fill="#826be9"/>
    <path id="Trazado_131785" data-name="Trazado 131785" d="M107.873,153.751c-.013-.948-.056-1.9-.032-2.845a3.154,3.154,0,0,1,3.143-3.139c1.179-.03,2.36-.028,3.539,0a3.05,3.05,0,0,1,3.117,2.82,17.529,17.529,0,0,1-.272,5.733,6.14,6.14,0,0,1-1.2,2.544q-1.732-.008-3.463-.015a3.9,3.9,0,0,1-2.028-.606,5.745,5.745,0,0,1-2.093-2.858c-.248-.54-.255-1.187-.714-1.632" transform="translate(-74.559 -102.154)" fill="#826be9"/>
    <path id="Trazado_131786" data-name="Trazado 131786" d="M27.949,153.6a14.845,14.845,0,0,1,.077-3.372,3.068,3.068,0,0,1,2.961-2.459q1.846-.059,3.695,0a3.01,3.01,0,0,1,3.026,2.743,17.413,17.413,0,0,1-.257,5.814,7.476,7.476,0,0,1-1.051,2.373,14.474,14.474,0,0,1-4.11.094,3.524,3.524,0,0,1-2.278-1.134,9.446,9.446,0,0,1-1.345-2.287c-.3-.57-.244-1.278-.718-1.771" transform="translate(-19.283 -102.146)" fill="#6ac9d6"/>
    <path id="Trazado_131787" data-name="Trazado 131787" d="M187.727,153.6c-.01-.9-.047-1.792-.026-2.686a3.151,3.151,0,0,1,3.117-3.149q1.8-.049,3.609,0a3.074,3.074,0,0,1,3.083,2.844,22.263,22.263,0,0,1-.112,4.978,7.95,7.95,0,0,1-1.215,3.11,12.69,12.69,0,0,1-4.133.09c-1.914-.232-2.883-1.665-3.583-3.332a6.36,6.36,0,0,0-.739-1.855" transform="translate(-129.775 -102.152)" fill="#8fd6e0"/>
    <path id="Trazado_131788" data-name="Trazado 131788" d="M99.747,9.823a4.307,4.307,0,0,1,3.557-1.8c2.1-.07,4.2-.031,6.3-.015a2.476,2.476,0,0,1,2.487,2.334c.082.865.427,1.262,1.175,1.354a2.506,2.506,0,0,1,2.523,2.846c0,.282-.01.563-.015.845l-1.857.03c-.677-.661-1.35-1.328-2.033-1.983a1.254,1.254,0,0,0-2.132.169,6.018,6.018,0,0,1-1.936,1.822c-.715-.009-1.43-.023-2.145-.026a5.6,5.6,0,0,1-3.917-1.633,7.012,7.012,0,0,1-2.009-3.946" transform="translate(-68.967 -5.522)" fill="#583ae2"/>
    <path id="Trazado_131789" data-name="Trazado 131789" d="M87.962,177.12c-.182-.194-.117-.437-.117-.661q0-8.348,0-16.7c1.025-.008,2.051.011,3.074-.035.537-.025.628.2.626.669a17.229,17.229,0,0,0,.262,4.357,10.78,10.78,0,0,0,1.978,4.284.745.745,0,0,1,.2.4c.016,1.179.015,2.358.008,3.536,0,.413-.331.315-.564.313a6.3,6.3,0,0,0-2.055.2,4.927,4.927,0,0,0-3.414,3.634" transform="translate(-60.73 -110.437)" fill="#8fd6e0"/>
    <path id="Trazado_131790" data-name="Trazado 131790" d="M94.349,113.177c-.008-1.793-.035-3.585-.014-5.378.006-.494-.114-.677-.628-.636-.611.049-1.228.021-1.843.026q0-3.393,0-6.786a3.926,3.926,0,0,1,.446-.287c1.193-.565,1.291-.545,2.229.393q1.251,1.25,2.5,2.5a1.155,1.155,0,0,0,1.312.4c.726-.319.87.182.836.631-.206,2.656-.471,5.307-.708,7.96a.427.427,0,0,1-.359.421,7.656,7.656,0,0,0-1.752.932,8.142,8.142,0,0,1-2.019-.177" transform="translate(-63.515 -68.961)" fill="#d5cef8"/>
    <path id="Trazado_131791" data-name="Trazado 131791" d="M86.317,101.894q0,3.393,0,6.786c0,2.663-.017,5.326.007,7.989,0,.509-.143.633-.638.631-1.838,0-1.838.014-1.838-1.8,0-3.1-.026-6.2.01-9.295a4.739,4.739,0,0,1,2.456-4.31" transform="translate(-57.969 -70.451)" fill="#ab9df1"/>
    <path id="Trazado_131792" data-name="Trazado 131792" d="M97,13.939a7.012,7.012,0,0,0,2.009,3.946,5.6,5.6,0,0,0,3.917,1.633c.715,0,1.43.017,2.145.026a6.155,6.155,0,0,1-3.658,1.187c-1.3.063-2.615.028-3.922.009a1.69,1.69,0,0,0-1.646.663,31.508,31.508,0,0,1,.112-5.456A3.426,3.426,0,0,1,97,13.939" transform="translate(-66.224 -9.638)" fill="#4020d3"/>
    <path id="Trazado_131793" data-name="Trazado 131793" d="M187.741,166.732a6.36,6.36,0,0,1,.739,1.855c.7,1.668,1.669,3.1,3.583,3.332a12.69,12.69,0,0,0,4.133-.09,2.408,2.408,0,0,1-2.164,1.359,26.69,26.69,0,0,1-2.771.006,2.491,2.491,0,0,1-2.126-1.2,8.628,8.628,0,0,1-1.394-5.26" transform="translate(-129.789 -115.282)" fill="#6ac9d6"/>
    <path id="Trazado_131794" data-name="Trazado 131794" d="M28.019,166.728c.474.493.414,1.2.718,1.771a9.447,9.447,0,0,0,1.345,2.287,3.524,3.524,0,0,0,2.278,1.134,14.474,14.474,0,0,0,4.11-.094,2.425,2.425,0,0,1-2.223,1.362,26.3,26.3,0,0,1-2.679,0,2.486,2.486,0,0,1-2.133-1.165,8.641,8.641,0,0,1-1.415-5.3" transform="translate(-19.353 -115.279)" fill="#45bbcc"/>
    <path id="Trazado_131795" data-name="Trazado 131795" d="M200.589,195.344c0,.717-.017,1.433.007,2.148.011.34-.1.437-.434.432-1.36-.017-2.72-.011-4.08,0-.262,0-.437-.014-.427-.359.022-.74.007-1.481.007-2.214a24.951,24.951,0,0,0,4.928,0" transform="translate(-135.278 -135.064)" fill="#f3f1ff"/>
    <path id="Trazado_131796" data-name="Trazado 131796" d="M120.728,195.346c0,.719-.017,1.435.007,2.149.012.343-.1.434-.437.43-1.36-.016-2.72-.011-4.08,0-.264,0-.435-.02-.425-.361.022-.74.006-1.481.006-2.211a25.189,25.189,0,0,0,4.928,0" transform="translate(-80.061 -135.066)" fill="#f3f1ff"/>
    <path id="Trazado_131797" data-name="Trazado 131797" d="M35.938,195.358a25.728,25.728,0,0,0,4.928,0c0,.72-.018,1.436.007,2.151.012.348-.115.429-.441.425-1.36-.016-2.72-.011-4.08,0-.268,0-.43-.03-.42-.365.021-.74.006-1.482.006-2.205" transform="translate(-24.843 -135.073)" fill="#f3f1ff"/>
    <path id="Trazado_131798" data-name="Trazado 131798" d="M107.927,167.208c.459.445.466,1.091.714,1.632a5.745,5.745,0,0,0,2.093,2.858,3.9,3.9,0,0,0,2.028.606q1.732,0,3.463.015a2.192,2.192,0,0,1-2.064,1.2,25.246,25.246,0,0,1-2.682.008,2.449,2.449,0,0,1-2.035-1.053,8.364,8.364,0,0,1-1.517-5.265" transform="translate(-74.613 -115.611)" fill="#583ae2"/>
    <path id="Trazado_131799" data-name="Trazado 131799" d="M202.639,109.616a2.91,2.91,0,0,1-2.169,2.417c-.206.02-.257-.115-.332-.246-.47-.821-.93-1.648-1.417-2.46-.156-.259-.136-.4.137-.537.479-.242.93-.545,1.421-.755a1.688,1.688,0,0,1,2.359,1.581" transform="translate(-137.332 -74.6)" fill="#f3f1ff"/>
    <path id="Trazado_131800" data-name="Trazado 131800" d="M151.691,49.738a7.721,7.721,0,0,0-.009-1.069c-.1-.681.2-.821.81-.733a1.893,1.893,0,0,1,1.651,2.037,1.939,1.939,0,0,1-2.119,1.664c-.274-.027-.342-.122-.336-.37.012-.509,0-1.02,0-1.529" transform="translate(-104.863 -33.128)" fill="#e6eafe"/>
    <path id="Trazado_131801" data-name="Trazado 131801" d="M90.326,49.815a5.932,5.932,0,0,0,.011,1.069c.151.813-.328.808-.878.726a1.871,1.871,0,0,1-1.579-2.09,1.953,1.953,0,0,1,2.1-1.6c.344.028.347.194.344.44-.006.484,0,.969,0,1.453" transform="translate(-60.748 -33.13)" fill="#e6eafe"/>
    <path id="Trazado_131802" data-name="Trazado 131802" d="M122.268,116.09q.256,2.778.513,5.556a8.012,8.012,0,0,0,.1.992c.129.585-.03.765-.667.783-.729.02-.815-.2-.739-.862.231-2.009.381-4.028.564-6.042.013-.144.04-.287.06-.43l.168,0" transform="translate(-83.975 -80.265)" fill="#2ff980"/>
    <path id="Trazado_131803" data-name="Trazado 131803" d="M118.25,88.331c-.762-.252-1.537-.5-2.3-.767-.254-.089-.185-.348-.158-.535.044-.3.268-.147.413-.11a8.2,8.2,0,0,0,4.088,0c.144-.037.372-.189.4.125.019.191.088.44-.171.531-.744.26-1.5.5-2.274.761" transform="translate(-80.037 -60.046)" fill="#f3f1ff"/>
    <path id="Trazado_131804" data-name="Trazado 131804" d="M131.18,96.8a3.018,3.018,0,0,1,2.986-.235c-.457.447-.9.865-1.322,1.3-.194.2-.327.157-.508-.017-.364-.351-.747-.68-1.156-1.048" transform="translate(-90.7 -66.566)" fill="#ab9df1"/>
    <path id="Trazado_131805" data-name="Trazado 131805" d="M99.841,143.287a8.143,8.143,0,0,0,2.019.177,6.866,6.866,0,0,0-1.555,2.131c-.072.173-.138.352-.366.284-.2-.06-.118-.254-.118-.388,0-.735.012-1.469.02-2.2" transform="translate(-69.006 -99.071)" fill="#ab9df1"/>
    <path id="Trazado_131806" data-name="Trazado 131806" d="M141.13,143.809l2.02-.023c.008.684.022,1.368.021,2.051,0,.134.081.328-.12.387-.229.067-.294-.113-.366-.285a6.865,6.865,0,0,0-1.555-2.13" transform="translate(-97.58 -99.416)" fill="#ab9df1"/>
    <path id="Trazado_131807" data-name="Trazado 131807" d="M106.777,96.731a2.738,2.738,0,0,1,2.836.029c-.221.479-.705.756-1.044,1.159-.187.223-.33.14-.506-.027-.389-.369-.795-.72-1.287-1.161" transform="translate(-73.828 -66.619)" fill="#ab9df1"/>
    <path id="Trazado_131808" data-name="Trazado 131808" d="M121.411,103.709c-.635.146-.785-.355-.987-.745-.081-.155.879-1.105,1.065-1.09.152.012,1.072.948,1.019,1.07-.208.478-.445.942-1.1.766" transform="translate(-83.26 -70.437)" fill="#2ff980"/>
    <path id="Trazado_131809" data-name="Trazado 131809" d="M145.678,32.01l1.857-.03V33.7l-1.857-1.686" transform="translate(-100.724 -22.112)" fill="#4020d3"/>
    <path id="Trazado_131810" data-name="Trazado 131810" d="M11.994,8.094q7.353-.013,14.706-.02a1.2,1.2,0,0,1,1.3,1.3c.006,3.259-.011,6.517-.02,9.776-4.116,0-8.233.025-12.349-.012a2.329,2.329,0,0,1-2.4-1.237c2.563.114,2.563.114,2.453-1.979a.422.422,0,0,1,0-.077c.039-.3-.1-.371-.387-.4-2.084-.183-2.084-.191-2.077,1.849,0,.2.013.408.021.612-.3.029-.464-.174-.606-.391a3.588,3.588,0,0,1-.649-2q.007-3.713.006-7.426m13.551,8.634c0-1.269,0-1.269-1.273-1.269-1.193,0-1.193,0-1.193,1.2,0,1.27,0,1.27,1.273,1.27,1.193,0,1.193,0,1.193-1.2m-6.13-1.269c-1.264,0-1.264,0-1.264,1.278,0,1.187,0,1.187,1.2,1.187,1.264,0,1.264,0,1.264-1.278,0-1.187,0-1.187-1.2-1.187" transform="translate(-8.289 -5.582)" fill="#9edcf4"/>
    <path id="Trazado_131811" data-name="Trazado 131811" d="M10.471,17.946a2.329,2.329,0,0,0,2.4,1.237c4.116.037,8.233.013,12.349.012-.137.854-.483,1.19-1.272,1.234a.947.947,0,0,1-.154,0c-1.834-.194-2.61.378-2.018,2.505.129.464.187.949.288,1.478a1.244,1.244,0,0,1-.725-.432c-1.225-1.011-2.453-2.021-3.662-3.052a2.006,2.006,0,0,0-1.4-.507c-2.23.019-4.461.011-6.692.007C8.423,20.428,8,20.012,8,18.868Q7.99,14.216,8,9.563c0-.922.327-1.28,1.233-1.425q0,3.713-.006,7.426a3.586,3.586,0,0,0,.649,2c.142.217.3.42.606.391Z" transform="translate(-5.527 -5.627)" fill="#7ec0e1"/>
    <path id="Trazado_131812" data-name="Trazado 131812" d="M187.691,28.056q7.353-.013,14.706-.019a1.2,1.2,0,0,1,1.3,1.3c.006,3.259-.011,6.517-.02,9.776-4.117,0-8.234.025-12.35-.012a2.33,2.33,0,0,1-2.4-1.237c2.563.114,2.563.114,2.453-1.979a.451.451,0,0,1,0-.077c.039-.3-.095-.371-.387-.4-2.084-.183-2.084-.191-2.078,1.85,0,.2.014.408.021.612-.3.028-.464-.174-.606-.391a3.584,3.584,0,0,1-.649-2q.007-3.713.006-7.426m13.55,8.638c0-1.273,0-1.273-1.269-1.273-1.2,0-1.2,0-1.2,1.192,0,1.273,0,1.273,1.269,1.273,1.2,0,1.2,0,1.2-1.192m-4.929,0c0-1.27,0-1.27-1.273-1.27-1.193,0-1.193,0-1.193,1.2,0,1.27,0,1.27,1.273,1.27,1.193,0,1.193,0,1.193-1.2" transform="translate(-129.769 -19.385)" fill="#9edcf4"/>
    <path id="Trazado_131813" data-name="Trazado 131813" d="M186.165,37.909a2.329,2.329,0,0,0,2.4,1.237c4.116.037,8.233.013,12.349.012-.146.907-.5,1.23-1.427,1.233-2.206.008-4.411.022-6.617-.008a2.411,2.411,0,0,0-1.744.62c-1.175,1.031-2.393,2.013-3.6,3.012-.171.142-.357.267-.681.508.175-.908.316-1.65.463-2.39.22-1.111-.271-1.72-1.41-1.738-.282,0-.564.007-.846,0a1.23,1.23,0,0,1-1.357-1.327q-.02-4.846,0-9.693c0-.788.375-1.136,1.229-1.272q0,3.713-.006,7.426a3.586,3.586,0,0,0,.649,2c.142.217.3.42.606.391Z" transform="translate(-127.003 -19.43)" fill="#7ec0e1"/>
    <path id="Trazado_131814" data-name="Trazado 131814" d="M50.4,33.273c0,1.2,0,1.2-1.193,1.2-1.273,0-1.273,0-1.273-1.27,0-1.2,0-1.2,1.193-1.2C50.4,32,50.4,32,50.4,33.273" transform="translate(-33.14 -22.128)" fill="#020101"/>
    <path id="Trazado_131815" data-name="Trazado 131815" d="M33.221,32c1.2,0,1.2,0,1.2,1.187,0,1.278,0,1.278-1.264,1.278-1.2,0-1.2,0-1.2-1.187,0-1.278,0-1.278,1.264-1.278" transform="translate(-22.096 -22.128)" fill="#020101"/>
    <path id="Trazado_131816" data-name="Trazado 131816" d="M16.006,34.268c-.007-.2-.02-.408-.021-.612-.006-2.04-.007-2.032,2.078-1.849.292.026.426.1.387.4a.453.453,0,0,0,0,.077c.11,2.093.11,2.093-2.453,1.979l.009.009" transform="translate(-11.052 -21.939)" fill="#020101"/>
    <path id="Trazado_131817" data-name="Trazado 131817" d="M226.091,53.24c0,1.192,0,1.192-1.2,1.192-1.269,0-1.269,0-1.269-1.273,0-1.192,0-1.192,1.2-1.192,1.269,0,1.269,0,1.269,1.273" transform="translate(-154.619 -35.931)" fill="#020101"/>
    <path id="Trazado_131818" data-name="Trazado 131818" d="M210.119,53.236c0,1.2,0,1.2-1.193,1.2-1.273,0-1.273,0-1.273-1.27,0-1.2,0-1.2,1.193-1.2,1.273,0,1.273,0,1.273,1.27" transform="translate(-143.576 -35.93)" fill="#020101"/>
    <path id="Trazado_131819" data-name="Trazado 131819" d="M191.7,54.23c-.007-.2-.02-.408-.021-.612-.006-2.04-.007-2.032,2.078-1.849.292.026.426.1.387.4a.453.453,0,0,0,0,.077c.11,2.093.11,2.093-2.453,1.979l.009.009" transform="translate(-132.532 -35.741)" fill="#020101"/>
  </g>
</svg>
