<svg xmlns="http://www.w3.org/2000/svg" width="90.997" height="90.997" viewBox="0 0 90.997 90.997">
  <g id="Grupo_86482" data-name="Grupo 86482" transform="translate(-0.278 -0.277)">
    <circle id="Elipse_5411" data-name="Elipse 5411" cx="45.498" cy="45.498" r="45.498" transform="translate(0.278 0.277)" fill="#2ff980"/>
    <g id="Grupo_86511" data-name="Grupo 86511" transform="translate(-5593.641 8343.599)">
      <path id="Trazado_130248" data-name="Trazado 130248" d="M1022.637,7.481a1.281,1.281,0,0,1,1.456-1.1q13.6.022,27.2.011a2.755,2.755,0,0,1,2.932,2.926,13.091,13.091,0,0,1-.01,1.585c-.078.7.106.954.874.92,1.583-.07,3.172-.029,4.758-.019a4.955,4.955,0,0,1,5.267,5.306q0,22.091,0,44.181a4.944,4.944,0,0,1-5.234,5.26q-12.086.01-24.174-.016c-.7,0-.82.189-.774.84.183,2.61.307,5.224.718,7.814.1.639.289.946,1.024.884.975-.082,1.963-.031,2.944-.016a1.173,1.173,0,0,1,1.3,1.165,1.147,1.147,0,0,1-1.278,1.095q-13.22.007-26.44,0a1.14,1.14,0,0,1-1.249-1.124,1.16,1.16,0,0,1,1.253-1.133c1.082-.018,2.166-.023,3.248,0,.415.01.6-.077.687-.535a71.322,71.322,0,0,0,.808-8.56c.023-.355-.129-.441-.437-.416-.175.014-.353,0-.529,0-7.932,0-15.865-.065-23.8.032a5.28,5.28,0,0,1-5.463-5.474q.1-21.939,0-43.879a5.187,5.187,0,0,1,5.477-5.444c1.607.081,3.223-.008,4.834.026.511.011.647-.15.617-.637-.041-.652-.02-1.309-.008-1.963a2.731,2.731,0,0,1,2.8-2.82c5.615-.011,11.231,0,16.846-.01a1.209,1.209,0,0,1,1.369,1.1c-.212.937-.514,1.175-1.527,1.176-5.438,0-10.876.01-16.314-.01-.695,0-.94.239-.921.924.035,1.283.053,2.569-.007,3.85-.032.695.175.858.86.857q23.867-.03,47.733-.016c.629,0,1.26-.031,1.887.005.461.027.6-.111.593-.585-.034-1.308-.01-2.617-.012-3.926,0-1.077-.017-1.093-1.106-1.094l-26.586-.005c-1.087,0-1.353-.2-1.617-1.175m31.738,11.8c-.1-.029-.142.005-.122.109-.011.276-.03.552-.03.827q0,16.267,0,32.534c0,1.913,0,1.913,1.968,1.794a8.341,8.341,0,0,1,1.053.039c.743.118.9-.178.9-.9q-.038-16.311-.017-32.622c0-1.9,0-1.9-1.937-1.778l-1.812,0m6.494,35.268c.326.01.653.031.979.029,1.123-.007.99.115.99-1.022q0-18.108,0-36.215c0-.252.012-.5-.008-.754a2.616,2.616,0,0,0-2.715-2.457c-1.812-.013-3.624-.02-5.436-.045-.378-.005-.47.166-.461.5.015.629.023,1.259,0,1.887-.017.4.135.528.524.517.755-.022,1.51-.006,2.266-.006,2.327,0,3.395,1.078,3.395,3.43q0,16.575,0,33.151c0,.226,0,.453,0,.679,0,.338.216.345.464.3M1020.148,68.5a64.253,64.253,0,0,1-.8,7.523h14.165a63.609,63.609,0,0,1-.806-7.524,9.511,9.511,0,0,1-.03-1.2c.062-.652-.225-.765-.822-.76-3.289.031-6.579.015-9.868.015-1.868,0-1.868,0-1.834,1.945m40.729-11.628c-.3-.01-.6-.028-.9-.028q-27.641,0-55.283,0c-4.632,0-9.264.019-13.9-.02-.7-.006-.825.2-.8.834a26.57,26.57,0,0,1,0,3.32c-.156,1.977,1.089,3.344,3.29,3.34q32.928-.067,65.856-.029c.326,0,.652-.025.978-.039a2.6,2.6,0,0,0,2.713-2.6c.029-1,.007-2,.008-3.006,0-1.894,0-1.894-1.964-1.775m-59.835-40.309c-.1-.024-.141.011-.112.114-.009.251-.027.5-.027.753q0,18.155-.018,36.309c0,.7.187.852.864.851q23.747-.03,47.494-.016c.251,0,.5-.018.753-.028.326.011.652.029.977.03.982,0,.982,0,.982-1V18.353c0-1.911,0-1.911-1.958-1.8-.175-.008-.351-.024-.526-.024q-23.951,0-47.9,0c-.175,0-.35.019-.525.029m-2.409,20.4c0-5.685-.007-11.37.012-17.054,0-.525-.123-.7-.66-.663-.676.049-1.358.012-2.037.012-1.17,0-1.218.048-1.218,1.243q0,16.488,0,32.977a5.228,5.228,0,0,1,0,.6c-.048.411.142.513.523.5.855-.022,1.714-.048,2.565.007.634.04.843-.1.838-.8-.035-5.609-.02-11.218-.02-16.828m-8.62-1.636V53.058c0,1.519,0,1.476,1.551,1.535.746.028.906-.208.9-.924-.026-8.327-.016-16.655-.016-24.982,0-2.893-.011-5.787,0-8.68a2.859,2.859,0,0,1,3.038-3.023c.3,0,.6.016.906,0,.719-.047,1.66.321,2.1-.151s.072-1.394.136-2.115c.044-.5-.143-.646-.636-.638-1.635.027-3.271.009-4.907.01-2.066,0-3.079,1.028-3.08,3.121q0,9.057,0,18.114" transform="translate(4613.006 -8340.173)" fill="#020202"/>
      <path id="Trazado_130249" data-name="Trazado 130249" d="M1052.962,10.012c.265.979.53,1.175,1.618,1.175l26.585.005c1.089,0,1.106.017,1.107,1.094,0,1.309-.022,2.618.012,3.926.012.474-.132.612-.593.585-.627-.037-1.258-.005-1.888-.005q-23.866,0-47.733.016c-.685,0-.893-.163-.86-.858.06-1.281.042-2.567.007-3.85-.019-.685.226-.926.921-.924,5.438.021,10.875.013,16.314.01,1.014,0,1.315-.239,1.527-1.176h2.983" transform="translate(4582.682 -8342.705)" fill="#f2b558"/>
      <path id="Trazado_130250" data-name="Trazado 130250" d="M1080.325,77.912c-.251.01-.5.028-.753.028q-23.747,0-47.494.016c-.677,0-.865-.152-.864-.851q.036-18.155.018-36.309c0-.251.018-.5.027-.752l.112-.114c.175-.01.35-.028.525-.029q23.951,0,47.9,0c.175,0,.351.015.526.024q0,18.994,0,37.989m-11.51-12.137a8.932,8.932,0,0,0,1.249-2.746c1.013-.037,1.309-.3,1.489-1.316a15.084,15.084,0,1,0-2.616,6.041,1.265,1.265,0,0,0-.122-1.98" transform="translate(4582.676 -8363.544)" fill="#f4f7f8"/>
      <path id="Trazado_130251" data-name="Trazado 130251" d="M1065.348,180.4c-.326.014-.652.039-.978.039q-32.928,0-65.856.029c-2.2,0-3.446-1.362-3.29-3.34a26.593,26.593,0,0,0,0-3.32c-.029-.629.1-.84.8-.834,4.632.039,9.264.02,13.9.02H1065.2c.3,0,.6.018.9.028,0,.529.023,1.058,0,1.586-.087,1.927.395,3.93-.754,5.717-.012.018,0,.05,0,.075m-33.7-2.551c.856,0,1.711.019,2.566-.006a1.127,1.127,0,1,0-.02-2.253q-2.528-.027-5.056,0a1.131,1.131,0,1,0,.02,2.256c.83.019,1.66,0,2.49,0" transform="translate(4607.778 -8456.324)" fill="#dae5ea"/>
      <path id="Trazado_130252" data-name="Trazado 130252" d="M1014.767,66.563c0,5.609-.016,11.219.02,16.828,0,.7-.2.84-.838.8-.852-.055-1.71-.029-2.566-.006-.381.01-.57-.091-.522-.5a5.284,5.284,0,0,0,0-.6V50.1c0-1.2.048-1.243,1.218-1.244.679,0,1.361.037,2.037-.012.537-.039.662.138.66.663-.019,5.685-.012,11.37-.012,17.054" transform="translate(4596.873 -8369.778)" fill="#cbeaf8"/>
      <path id="Trazado_130253" data-name="Trazado 130253" d="M995.307,53.044q0-9.057,0-18.114c0-2.093,1.013-3.119,3.079-3.121,1.636,0,3.272.017,4.907-.01.493-.008.68.141.636.638-.063.721.3,1.652-.135,2.115s-1.381.1-2.1.151c-.3.02-.6,0-.906,0a2.859,2.859,0,0,0-3.038,3.023c-.015,2.893,0,5.787,0,8.68,0,8.327-.01,16.655.016,24.982,0,.715-.158.952-.9.924-1.549-.059-1.551-.016-1.551-1.535Z" transform="translate(4607.712 -8357.896)" fill="#5c6b74"/>
      <path id="Trazado_130254" data-name="Trazado 130254" d="M1105.542,211.537a63.71,63.71,0,0,0,.805,7.524h-14.164a64.12,64.12,0,0,0,.8-7.524h12.555" transform="translate(4540.167 -8483.215)" fill="#c6d2db"/>
      <path id="Trazado_130255" data-name="Trazado 130255" d="M1226.843,31.962a2.616,2.616,0,0,1,2.715,2.457c.021.25.008.5.008.754q0,18.108,0,36.215c0,1.137.133,1.015-.99,1.022-.326,0-.652-.019-.979-.029q.005-18.183.01-36.367c0-1.324.161-2.679-.743-3.83-.038-.049-.015-.147-.02-.222" transform="translate(4446.281 -8358.008)" fill="#4a5a60"/>
      <path id="Trazado_130256" data-name="Trazado 130256" d="M1193.416,77.879q0-18.994,0-37.989c1.958-.111,1.958-.111,1.958,1.8V76.908c0,1,0,1.005-.982,1-.326,0-.652-.02-.978-.03" transform="translate(4469.585 -8363.51)" fill="#e2e6e9"/>
      <path id="Trazado_130257" data-name="Trazado 130257" d="M1209.344,84.243c-1.968.12-1.968.12-1.968-1.793q0-16.267,0-32.534c0-.276.019-.552.03-.827l.123-.109,1.812,0q0,17.63,0,35.259" transform="translate(4459.851 -8369.875)" fill="#ceedfb"/>
      <path id="Trazado_130258" data-name="Trazado 130258" d="M1213.87,84.148q0-17.63,0-35.259c1.937-.124,1.937-.124,1.937,1.778q0,16.311.017,32.622c0,.721-.156,1.017-.9.9a8.346,8.346,0,0,0-1.053-.039" transform="translate(4455.324 -8369.78)" fill="#a4ddf1"/>
      <path id="Trazado_130259" data-name="Trazado 130259" d="M1213.259,31.863c0,.075-.019.173.02.222.9,1.151.744,2.505.743,3.83q-.006,18.184-.01,36.367c-.248.043-.464.036-.464-.3,0-.226,0-.453,0-.679q0-16.575,0-33.151c0-2.352-1.068-3.429-3.395-3.43-.755,0-1.511-.016-2.266.006-.39.011-.541-.117-.524-.517.026-.628.018-1.259,0-1.887-.008-.337.083-.508.462-.5,1.812.025,3.624.031,5.436.045" transform="translate(4459.864 -8357.909)" fill="#5c6b74"/>
      <path id="Trazado_130260" data-name="Trazado 130260" d="M1107.376,207.024h-12.555c-.035-1.945-.035-1.945,1.834-1.945,3.29,0,6.579.016,9.869-.015.6-.005.884.108.822.76a9.357,9.357,0,0,0,.031,1.2" transform="translate(4538.333 -8478.703)" fill="#b3bfc9"/>
      <path id="Trazado_130261" data-name="Trazado 130261" d="M1226.853,180.409c0-.025-.009-.057,0-.074,1.148-1.788.666-3.791.753-5.717.024-.527,0-1.057,0-1.585,1.965-.119,1.965-.119,1.965,1.775,0,1,.021,2.005-.008,3.007a2.6,2.6,0,0,1-2.713,2.6" transform="translate(4446.274 -8456.338)" fill="#c6d2db"/>
      <path id="Trazado_130262" data-name="Trazado 130262" d="M1031.455,39.981l-.112.114c-.029-.1.011-.138.112-.114" transform="translate(4582.592 -8363.596)" fill="#e2e6e9"/>
      <path id="Trazado_130263" data-name="Trazado 130263" d="M1207.592,48.956l-.122.109c-.019-.1.024-.138.122-.109" transform="translate(4459.79 -8369.853)" fill="#a4ddf1"/>
      <path id="Trazado_130264" data-name="Trazado 130264" d="M1092.975,74.937a1.264,1.264,0,0,1,.122,1.98,15.021,15.021,0,1,1,2.616-6.041c-.18,1.017-.476,1.279-1.489,1.316-.863-.507-.9-.728-.71-2.029a12.386,12.386,0,0,0-3-10.46h-.006l-.226-.238c-.094-.116-.18-.239-.283-.347a12.761,12.761,0,0,0-20.61,14.443,12.282,12.282,0,0,0,8.76,6.953.788.788,0,0,0,.2.1,12.647,12.647,0,0,0,12.886-5.018,1.452,1.452,0,0,1,1.741-.653" transform="translate(4558.515 -8372.706)" fill="#030404"/>
      <path id="Trazado_130265" data-name="Trazado 130265" d="M1121.256,90.282a1.452,1.452,0,0,0-1.741.653,12.648,12.648,0,0,1-12.887,5.018.784.784,0,0,1-.2-.1c.771-.092,1.544-.044,2.323-.158a13.94,13.94,0,0,0,11.28-10.308,4.111,4.111,0,0,0,.245-2.423q0-.29-.005-.58c.176-.219.11-.479.117-.725a12.53,12.53,0,0,0-1.324-5.716c-.131-.282-.4-.535-.27-.9a12.387,12.387,0,0,1,3,10.46c-.193,1.3-.154,1.522.71,2.029a8.937,8.937,0,0,1-1.248,2.746" transform="translate(4530.235 -8388.049)" fill="#6de8aa"/>
      <path id="Trazado_130266" data-name="Trazado 130266" d="M1107.008,183.842c-.83,0-1.66.015-2.49,0a1.131,1.131,0,1,1-.02-2.256q2.528-.025,5.056,0a1.127,1.127,0,1,1,.02,2.253c-.855.025-1.71.006-2.566.006" transform="translate(4532.416 -8462.32)" fill="#030404"/>
      <path id="Trazado_130267" data-name="Trazado 130267" d="M1097.184,72.866a4.116,4.116,0,0,1-.245,2.423,13.941,13.941,0,0,1-11.28,10.308c-.778.114-1.552.066-2.323.158a12.281,12.281,0,0,1-8.76-6.953,12.76,12.76,0,0,1,20.61-14.443c.1.108.189.231.283.347.012.14.024.28.226.238h.006c-.134.366.139.619.27.9a12.524,12.524,0,0,1,1.324,5.716c-.008.246.058.505-.118.725-.535-.97-1.068-1.065-2.132-.372-.035-.15-.072-.3-.1-.442a9.185,9.185,0,0,0-10.252-7.5,8.756,8.756,0,0,0-5.217,2.471,1.1,1.1,0,0,0-.149,1.611,1.115,1.115,0,0,0,1.673.055c.157-.126.3-.267.457-.394a6.988,6.988,0,0,1,11.066,3.373,1.164,1.164,0,0,1-.014.953c-.544-.623-1.168-.748-1.688-.34a1.144,1.144,0,0,0-.089,1.732c.689.928,1.385,1.853,2.1,2.759a1.088,1.088,0,0,0,1.752.181,26.7,26.7,0,0,0,2.6-3.5m-20.031,1.827c.051.215.1.385.132.556a9.171,9.171,0,0,0,8.806,7.494,8.948,8.948,0,0,0,6.594-2.478,1.138,1.138,0,0,0,.416-1.274,1.114,1.114,0,0,0-.924-.787,1.336,1.336,0,0,0-1.134.483,6.951,6.951,0,0,1-11.522-4,1.091,1.091,0,0,1,.278.086c.775.514,1.309.539,1.733.044.51-.6.308-1.15-.117-1.7-.663-.854-1.3-1.729-1.967-2.578a1.171,1.171,0,0,0-2.058,0c-.666.851-1.314,1.716-1.964,2.58-.532.708-.555,1.3-.08,1.756s1.052.4,1.809-.176" transform="translate(4553.328 -8377.946)" fill="#aff2d1"/>
      <path id="Trazado_130268" data-name="Trazado 130268" d="M1146.731,74.5c-.2.042-.214-.1-.227-.238l.227.238" transform="translate(4502.293 -8387.5)" fill="#6de8aa"/>
      <path id="Trazado_130269" data-name="Trazado 130269" d="M1110.381,80.586a26.625,26.625,0,0,1-2.6,3.5,1.089,1.089,0,0,1-1.752-.181c-.718-.906-1.413-1.831-2.1-2.759a1.144,1.144,0,0,1,.088-1.732c.52-.408,1.144-.282,1.688.341a1.168,1.168,0,0,0,.014-.953,6.988,6.988,0,0,0-11.066-3.373c-.156.127-.3.269-.457.394a1.115,1.115,0,0,1-1.673-.055,1.1,1.1,0,0,1,.149-1.611,8.756,8.756,0,0,1,5.217-2.471,9.185,9.185,0,0,1,10.252,7.5c.031.147.068.293.1.442,1.064-.692,1.6-.6,2.132.372q0,.291.005.58" transform="translate(4540.13 -8385.667)" fill="#030404"/>
      <path id="Trazado_130270" data-name="Trazado 130270" d="M1081.062,96.258c-.757.579-1.347.623-1.809.176s-.452-1.048.08-1.756c.65-.864,1.3-1.729,1.964-2.58a1.171,1.171,0,0,1,2.058,0c.669.849,1.3,1.724,1.967,2.578.425.547.627,1.1.117,1.7-.424.5-.958.47-1.733-.044a1.094,1.094,0,0,0-.278-.086,6.951,6.951,0,0,0,11.522,4,1.336,1.336,0,0,1,1.134-.483,1.114,1.114,0,0,1,.924.787,1.139,1.139,0,0,1-.416,1.274,8.948,8.948,0,0,1-6.594,2.478,9.171,9.171,0,0,1-8.806-7.494c-.036-.171-.081-.341-.132-.556" transform="translate(4549.418 -8399.512)" fill="#030404"/>
    </g>
  </g>
</svg>
