<svg id="Grupo_86376" data-name="Grupo 86376" xmlns="http://www.w3.org/2000/svg" width="206" height="206" viewBox="0 0 206 206">
  <rect id="Rectángulo_36790" data-name="Rectángulo 36790" width="206" height="206" fill="none"/>
  <g id="Grupo_86374" data-name="Grupo 86374" transform="translate(14.839 12.746)">
    <path id="Trazado_129627" data-name="Trazado 129627" d="M1495.005-223.334c-1.921-.387-2.7-1.608-2.687-3.513.028-4.77.022-9.541.006-14.312-.018-5.078-2.656-7.736-7.731-7.737q-54.346-.013-108.693,0c-5.158,0-7.8,2.677-7.8,7.85q0,22.971,0,45.942c0,4.4-2.1,6.51-6.452,6.523-1.06,0-2.121.018-3.181,0a5.57,5.57,0,0,1-5.823-5.748c-.05-1.884-.01-3.77-.01-5.654,0-13.9-.03-27.8.01-41.7a22.373,22.373,0,0,1,17.516-22.117,22.182,22.182,0,0,1,5.08-.54q54.966.014,109.93.014a22.258,22.258,0,0,1,22.581,22.624q.033,67.852,0,135.7a22.262,22.262,0,0,1-22.594,22.615q-54.965.033-109.931,0a22.363,22.363,0,0,1-22.586-22.306c-.036-2.532-.042-5.066,0-7.6a5.556,5.556,0,0,1,5.886-5.851c1.355-.017,2.711-.033,4.065.006a5.494,5.494,0,0,1,5.49,5.513c.061,2.59-.008,5.183.022,7.774a6.813,6.813,0,0,0,6.853,7.017c.47.021.943.012,1.414.012q53.905,0,107.81-.009a12.781,12.781,0,0,0,3.153-.266,6.675,6.675,0,0,0,4.934-6c.064-.761.057-1.53.057-2.295q0-52.568,0-105.136c0-2.695.427-3.311,2.62-3.858,2.268.519,2.655,1.058,2.655,3.791,0,34.981-.053,69.963.057,104.944.018,5.551-1.681,9.867-6.474,12.806a17.517,17.517,0,0,1-7.575,1.331q-53.465-.036-106.929.017a15.3,15.3,0,0,1-9.47-2.7,13.119,13.119,0,0,1-4.43-11.041c.072-1.054.011-2.116.011-3.175,0-3.588,0-3.551-3.563-3.452-.987.028-1.348.309-1.322,1.318.06,2.292-.053,4.59.043,6.879a16.128,16.128,0,0,0,2.608,8.825c3.514,5.652,8.711,8.154,15.251,8.154q54.122,0,108.243,0c.7,0,1.409-.065,2.113-.1a9.98,9.98,0,0,0,3.644-.5c7.72-2.086,12.635-8.708,12.637-17.081q.014-67.493,0-134.987c0-.589,0-1.178-.029-1.766-.4-8.479-8.049-15.917-16.254-15.812-.821-.035-1.644-.1-2.465-.1q-53.683-.007-107.366,0c-.765,0-1.535-.035-2.295.033-5.807.522-10.406,3.066-13.487,8.121a16.993,16.993,0,0,0-2.622,9.9q-.023,22.087-.006,44.173c0,2.909,0,2.8,2.893,2.94,1.685.081,2.013-.511,2.008-2.076-.057-14.842.038-29.684-.078-44.526-.035-4.4,1.225-8.078,4.459-11.063a15.3,15.3,0,0,1,9.471-2.693q53.554.082,107.108.016a17.188,17.188,0,0,1,7.4,1.33c4.777,2.928,6.71,7.219,6.459,12.764-.2,4.337-.108,8.691-.009,13.034C1497.681-225.074,1496.986-223.81,1495.005-223.334Z" transform="translate(-1330.977 264.347)" fill="#030303"/>
    <path id="Trazado_129628" data-name="Trazado 129628" d="M1396.96-179.951q0-3.5,0-7c.351-.021.7-.061,1.053-.061q36.772,0,73.544,0c.351,0,.7.042,1.053.064q0,43.271,0,86.54c-.645.031-1.289.089-1.934.089q-33.812.007-67.625,0c-3.1,0-3.318-.218-3.318-3.305q0-36.277,0-72.554C1399.729-178.673,1399.246-179.318,1396.96-179.951Zm46.3,21.87a26.82,26.82,0,0,0-26.862,26.753,26.935,26.935,0,0,0,26.925,26.924,26.957,26.957,0,0,0,26.792-26.9A26.841,26.841,0,0,0,1443.264-158.081Zm.06-23.962c-2.885,0-5.77-.031-8.653.007a8.089,8.089,0,0,0-8.23,7.94,7.966,7.966,0,0,0,7.823,8.136q9,.256,18.01,0a7.9,7.9,0,0,0,7.768-8.163,8.045,8.045,0,0,0-8.241-7.909C1448.975-182.072,1446.149-182.043,1443.324-182.043Z" transform="translate(-1343.918 241.78)" fill="#dfeffb"/>
    <path id="Trazado_129629" data-name="Trazado 129629" d="M1450.753-197.537c-.351-.022-.7-.064-1.053-.064q-36.772,0-73.544,0c-.351,0-.7.04-1.053.061-1.849-.4-2.583-1.535-2.557-3.424.067-4.946,0-9.894.031-14.841a7.114,7.114,0,0,1,7.429-7.472q41.355-.045,82.709,0c4.522,0,7.51,3.061,7.512,7.576q.017,51.24,0,102.481c0,4.661-2.923,7.614-7.6,7.617q-41.178.031-82.356,0c-4.806,0-7.65-2.9-7.7-7.7-.006-.52,0-1.04,0-1.779-3.848,1.674-7.762,1.066-11.61,1.093-9.248.066-18.5.028-27.746.02-7.054-.006-11.144-4.125-11.146-11.211q0-16.786,0-33.572c0-6.85,4.12-10.964,10.994-10.972,11.192-.012,22.385.008,33.578-.013a12.32,12.32,0,0,1,5.929,1.2c0-6.355.038-12.468-.023-18.581-.019-1.891.719-3.02,2.559-3.426,2.286.632,2.77,1.278,2.77,3.776q0,36.277,0,72.554c0,3.087.218,3.305,3.318,3.305q33.814,0,67.626,0c.644,0,1.289-.057,1.933-.089,3.763.03,7.527.074,11.291.087,2.466.008,2.88-.414,2.88-2.862q.005-16.508,0-33.015,0-24.628,0-49.257c0-.764.311-1.623-1.108-1.589C1459.462-197.528,1455.107-197.559,1450.753-197.537Zm-87.688,78.143a14.484,14.484,0,0,0,3.683.137c3.977-.016,5.819-1.874,5.827-5.838q.016-8.2,0-16.393c0-5.876.028-11.752-.013-17.627-.023-3.349-1.943-5.244-5.255-5.291-1.408-.02-2.817.041-4.226.065q-15.109-.035-30.218-.064c-3.678,0-5.486,1.861-5.488,5.576q-.011,16.875,0,33.751c0,4.025,1.756,5.757,5.838,5.767q13.961.035,27.924.049C1361.78-119.262,1362.422-119.348,1363.065-119.394Zm87.307-98.518c-.469-.032-.937-.091-1.406-.092q-33.917-.006-67.833,0c-.353,0-.708-.009-1.059.022a2.088,2.088,0,0,0-2.2,2.39c.063,4.119.05,8.24.067,12.359.009.221.13.308.343.285.647.015,1.294.042,1.942.042q34.281,0,68.562,0c.647,0,1.293-.04,1.94-.062,4.289.023,8.58.025,12.868.087.978.013,1.344-.288,1.332-1.3q-.068-5.73-.007-11.46a2.04,2.04,0,0,0-2.221-2.355C1458.594-218.021,1454.483-217.948,1450.372-217.912Z" transform="translate(-1322.063 252.369)" fill="#040404"/>
    <path id="Trazado_129630" data-name="Trazado 129630" d="M1546.221-92.612c4.794-2.939,6.492-7.255,6.474-12.806-.11-34.982-.055-69.963-.057-104.944,0-2.733-.387-3.272-2.655-3.791q.027-3.476.056-6.952c1.981-.476,2.676-1.739,2.631-3.748-.1-4.343-.187-8.7.009-13.034.251-5.544-1.682-9.836-6.459-12.764a2.7,2.7,0,0,0-.972-1.981c-1.266-1.443-2.929-2.486-4.046-4.071,8.205-.1,15.854,7.333,16.254,15.812.028.588.029,1.177.029,1.766q0,67.493,0,134.987c0,8.373-4.917,14.994-12.637,17.081a9.98,9.98,0,0,1-3.644.5c.041-.637.655-.763.985-1.14C1543.582-89.292,1545.787-90.231,1546.221-92.612Z" transform="translate(-1386.01 262.117)" fill="#6c8892"/>
    <path id="Trazado_129631" data-name="Trazado 129631" d="M1489.441-256.749c1.117,1.586,2.78,2.628,4.046,4.071a2.7,2.7,0,0,1,.972,1.981,17.2,17.2,0,0,0-7.4-1.329q-53.555.037-107.108-.016a15.3,15.3,0,0,0-9.47,2.693c-2.283-.443-4.429.517-6.655.651,3.08-5.055,7.679-7.6,13.487-8.121.76-.068,1.53-.033,2.295-.033q53.683,0,107.366,0C1487.8-256.849,1488.62-256.784,1489.441-256.749Z" transform="translate(-1334.251 262.163)" fill="#7f9baa"/>
    <path id="Trazado_129632" data-name="Trazado 129632" d="M1494.463-25.818c-.433,2.38-2.639,3.32-4.034,4.914-.33.377-.944.5-.985,1.14-.7.035-1.408.1-2.113.1q-54.122.007-108.244,0c-6.54,0-11.737-2.5-15.251-8.154,2.226.135,4.371,1.092,6.653.647a15.3,15.3,0,0,0,9.47,2.7q53.464-.082,106.929-.017A17.517,17.517,0,0,0,1494.463-25.818Z" transform="translate(-1334.253 195.323)" fill="#7f9baa"/>
    <path id="Trazado_129633" data-name="Trazado 129633" d="M1362.745-245.651c2.226-.134,4.371-1.093,6.655-.651-3.234,2.984-4.494,6.658-4.459,11.063.115,14.841.021,29.684.078,44.526.006,1.566-.322,2.158-2.008,2.076-2.889-.139-2.894-.032-2.894-2.94q0-22.087.006-44.173A16.99,16.99,0,0,1,1362.745-245.651Z" transform="translate(-1333.167 259.115)" fill="#6c8892"/>
    <path id="Trazado_129634" data-name="Trazado 129634" d="M1369.4-34.192c-2.282.445-4.428-.511-6.653-.647a16.127,16.127,0,0,1-2.608-8.825c-.1-2.29.017-4.588-.043-6.879-.026-1.008.335-1.29,1.322-1.318,3.564-.1,3.563-.135,3.563,3.452,0,1.059.062,2.121-.011,3.175A13.119,13.119,0,0,0,1369.4-34.192Z" transform="translate(-1333.16 202.349)" fill="#6c8892"/>
    <path id="Trazado_129635" data-name="Trazado 129635" d="M1503.781-186.961c4.354-.022,8.708.008,13.061-.1,1.418-.034,1.107.825,1.107,1.589q.008,24.628,0,49.257,0,16.508,0,33.015c0,2.449-.414,2.87-2.88,2.862-3.764-.013-7.528-.057-11.291-.087Q1503.78-143.69,1503.781-186.961Z" transform="translate(-1375.09 241.793)" fill="#cfeaf9"/>
    <path id="Trazado_129636" data-name="Trazado 129636" d="M1451.275-146.159a26.841,26.841,0,0,1,26.854,26.777,26.957,26.957,0,0,1-26.791,26.9,26.935,26.935,0,0,1-26.925-26.924A26.82,26.82,0,0,1,1451.275-146.159Zm1.052,48.2a6.454,6.454,0,0,0,.7.035c13.409-.745,22.917-14.706,18.841-27.662-2.777-8.829-11.167-15.346-19.532-15.172a21.342,21.342,0,0,0-20.768,12.686,21.343,21.343,0,0,0,4.763,24.176A20.164,20.164,0,0,0,1452.327-97.961Z" transform="translate(-1351.93 229.858)" fill="#030303"/>
    <path id="Trazado_129637" data-name="Trazado 129637" d="M1455.471-180c2.825,0,5.651-.029,8.476.006a8.045,8.045,0,0,1,8.24,7.909,7.9,7.9,0,0,1-7.768,8.163q-9,.27-18.01,0a7.966,7.966,0,0,1-7.823-8.136,8.089,8.089,0,0,1,8.231-7.94C1449.7-180.031,1452.587-180,1455.471-180Zm2.772,5.357c-3.763-.017-7.527-.061-11.289-.04a2.768,2.768,0,0,0-3.035,2.735,2.684,2.684,0,0,0,2.841,2.749c3.818.047,7.638-.035,11.458-.066,2,.032,4,.159,5.986.067a2.656,2.656,0,0,0,2.671-2.9,2.7,2.7,0,0,0-2.81-2.588C1462.125-174.731,1460.183-174.662,1458.243-174.643Z" transform="translate(-1356.065 239.737)" fill="#040404"/>
    <path id="Trazado_129638" data-name="Trazado 129638" d="M1400.945-201.055c-.017-4.12,0-8.24-.067-12.359a2.088,2.088,0,0,1,2.2-2.39c.35-.031.705-.022,1.059-.022q33.916,0,67.833,0c.469,0,.937.06,1.406.092a5.126,5.126,0,0,1,.4,2.054c-.03,4.3-.027,8.591-.035,12.887-.647.021-1.293.062-1.94.062q-34.281.005-68.562,0c-.647,0-1.295-.028-1.942-.043Zm14.891-4.571c1.768,0,3.536.035,5.3-.01a2.6,2.6,0,0,0,2.777-2.568,2.591,2.591,0,0,0-2.666-2.7c-3.593-.063-7.187-.057-10.78,0a2.7,2.7,0,0,0-2.73,2.678,2.67,2.67,0,0,0,2.8,2.593C1412.3-205.589,1414.069-205.628,1415.836-205.627Z" transform="translate(-1345.062 250.188)" fill="#2f7092"/>
    <path id="Trazado_129639" data-name="Trazado 129639" d="M1365.253-95.126c-.642.046-1.285.132-1.927.132q-13.963-.013-27.924-.049c-4.081-.01-5.835-1.742-5.838-5.767q-.006-16.875,0-33.751c0-3.715,1.809-5.577,5.488-5.576q15.11.005,30.218.064a9.411,9.411,0,0,1,1.75,5.967q.054,16.429.01,32.858A9.566,9.566,0,0,1,1365.253-95.126Zm-13.166-5.389v-.006c2.356,0,4.714.058,7.068-.015a5.443,5.443,0,0,0,5.471-5.182c.122-3.764.047-7.536,0-11.3a4.262,4.262,0,0,0-2.026-3.737,2.941,2.941,0,0,1-1.56-3.311,11.687,11.687,0,0,0,.006-1.588,9,9,0,0,0-8.775-9.021,8.918,8.918,0,0,0-9.02,8.932c-.026.882-.047,1.768,0,2.649a1.732,1.732,0,0,1-.951,1.858,5.48,5.48,0,0,0-2.77,5.007c-.04,3.3-.062,6.6,0,9.893a5.731,5.731,0,0,0,6.01,5.818C1347.728-100.493,1349.908-100.515,1352.087-100.515Z" transform="translate(-1324.25 228.101)" fill="#e8555a"/>
    <path id="Trazado_129640" data-name="Trazado 129640" d="M1379.96-95.128a9.564,9.564,0,0,0,1.778-6.122q.023-16.429-.01-32.858a9.412,9.412,0,0,0-1.75-5.967c1.409-.024,2.818-.085,4.226-.065,3.313.047,5.233,1.942,5.255,5.291.041,5.875.012,11.751.013,17.627q0,8.2,0,16.393c-.008,3.964-1.85,5.822-5.827,5.838A14.483,14.483,0,0,1,1379.96-95.128Z" transform="translate(-1338.958 228.103)" fill="#e04041"/>
    <path id="Trazado_129641" data-name="Trazado 129641" d="M1503.6-200.789c.008-4.3.005-8.592.035-12.887a5.13,5.13,0,0,0-.4-2.054c4.111-.035,8.222-.108,12.333-.087a2.04,2.04,0,0,1,2.221,2.355q-.054,5.73.007,11.46c.012,1.012-.354,1.313-1.332,1.3C1512.183-200.763,1507.893-200.765,1503.6-200.789Zm7.7-7.453a2.775,2.775,0,0,0-2.708-2.714,2.734,2.734,0,0,0-2.818,2.577,2.7,2.7,0,0,0,2.591,2.775A2.721,2.721,0,0,0,1511.3-208.242Z" transform="translate(-1374.934 250.186)" fill="#255b79"/>
    <path id="Trazado_129642" data-name="Trazado 129642" d="M1400.973-194.968l.343.285C1401.1-194.66,1400.982-194.747,1400.973-194.968Z" transform="translate(-1345.09 244.101)" fill="#255b79"/>
    <path id="Trazado_129643" data-name="Trazado 129643" d="M1454.508-95.759a20.163,20.163,0,0,1-16-5.936,21.343,21.343,0,0,1-4.763-24.176,21.342,21.342,0,0,1,20.768-12.686,4.558,4.558,0,0,0,.761.692,27.259,27.259,0,0,1,5.842,4.984c.5.513,1.016,1,.71,1.82-.422-.2-.847-.4-1.266-.607a16.143,16.143,0,0,0-20.951,6.1,16.047,16.047,0,0,0,4.2,21.391c5.794,4.14,11.9,4.11,18.121.923.425,1.362-.832,1.871-1.438,2.646C1458.887-98.546,1456.464-97.43,1454.508-95.759Z" transform="translate(-1354.111 227.657)" fill="#e8555a"/>
    <path id="Trazado_129644" data-name="Trazado 129644" d="M1471.15-131.039c.306-.819-.206-1.307-.71-1.821a27.259,27.259,0,0,0-5.842-4.984,4.564,4.564,0,0,1-.761-.692c8.365-.174,16.755,6.343,19.532,15.172,4.076,12.956-5.431,26.917-18.841,27.662a6.471,6.471,0,0,1-.7-.035c1.957-1.671,4.379-2.787,5.992-4.85.606-.775,1.863-1.284,1.438-2.646,4.632-3.173,7.406-7.483,7.7-13.147.317-6.165-2.585-10.776-7.368-14.378l.1-.294-.508-.012Z" transform="translate(-1363.432 227.635)" fill="#e04041"/>
    <path id="Trazado_129645" data-name="Trazado 129645" d="M1460.415-167.071c-3.819.03-7.639.113-11.458.066a2.684,2.684,0,0,1-2.841-2.749,2.768,2.768,0,0,1,3.035-2.735c3.763-.021,7.527.023,11.289.04A5.2,5.2,0,0,1,1460.415-167.071Z" transform="translate(-1358.263 237.543)" fill="#c2d4ed"/>
    <path id="Trazado_129646" data-name="Trazado 129646" d="M1466.307-167.076a5.2,5.2,0,0,0,.026-5.379c1.94-.018,3.882-.088,5.821-.04a2.7,2.7,0,0,1,2.81,2.588,2.656,2.656,0,0,1-2.671,2.9C1470.3-166.917,1468.3-167.044,1466.307-167.076Z" transform="translate(-1364.155 237.548)" fill="#a1b8d7"/>
    <path id="Trazado_129647" data-name="Trazado 129647" d="M1418.664-203.618c-1.768,0-3.536.038-5.3-.013a2.67,2.67,0,0,1-2.8-2.593,2.7,2.7,0,0,1,2.73-2.678c3.593-.052,7.187-.058,10.78,0a2.591,2.591,0,0,1,2.666,2.7,2.6,2.6,0,0,1-2.778,2.568C1422.2-203.583,1420.431-203.617,1418.664-203.618Z" transform="translate(-1347.889 248.179)" fill="#030303"/>
    <path id="Trazado_129648" data-name="Trazado 129648" d="M1356.181-98.266c-2.179,0-4.359.022-6.538,0a5.731,5.731,0,0,1-6.01-5.818c-.066-3.3-.044-6.6,0-9.893a5.481,5.481,0,0,1,2.77-5.007,1.732,1.732,0,0,0,.951-1.858c-.05-.881-.028-1.767,0-2.649a8.918,8.918,0,0,1,9.019-8.932,9,9,0,0,1,8.775,9.021,11.687,11.687,0,0,1-.006,1.588,2.941,2.941,0,0,0,1.56,3.311,4.261,4.261,0,0,1,2.025,3.737c.045,3.768.12,7.539,0,11.3a5.443,5.443,0,0,1-5.471,5.182c-2.354.073-4.712.015-7.068.015Zm-.6-5.366c2.229.02,4.459.007,6.687.075.908.028,1.249-.266,1.236-1.193-.041-2.875-.045-5.753,0-8.628.016-.949-.345-1.2-1.239-1.175-2.228.069-4.458.058-6.687.079-1.813-.023-3.627-.013-5.437-.081-.9-.033-1.245.256-1.23,1.191q.068,4.3,0,8.6c-.013.92.317,1.241,1.228,1.206C1351.95-103.624,1353.764-103.611,1355.577-103.632Zm.591-16.211c3.979,0,3.979,0,3.66-3.814a3.641,3.641,0,0,0-3.588-3.433,3.593,3.593,0,0,0-3.567,3.43C1352.349-119.843,1352.349-119.843,1356.169-119.843Z" transform="translate(-1328.345 225.852)" fill="#030303"/>
    <path id="Trazado_129649" data-name="Trazado 129649" d="M1512.343-206.238a2.721,2.721,0,0,1-2.936,2.638,2.7,2.7,0,0,1-2.591-2.775,2.734,2.734,0,0,1,2.818-2.577A2.775,2.775,0,0,1,1512.343-206.238Z" transform="translate(-1375.976 248.182)" fill="#030303"/>
    <path id="Trazado_129650" data-name="Trazado 129650" d="M1464.468-128.609c4.783,3.6,7.685,8.213,7.368,14.378-.291,5.664-3.064,9.973-7.7,13.147-6.219,3.187-12.327,3.217-18.121-.923a16.047,16.047,0,0,1-4.2-21.391,16.143,16.143,0,0,1,20.951-6.1c.419.208.844.405,1.266.607l.031-.023Zm-3.529,4.305c-3.407-2.588-9.182-1.974-12.8,1.441-3.719,3.51-4.5,9.246-1.868,13.189Zm3.982,3.825c-4.748,4.748-9.466,9.483-14.213,14.191-.735.729-.2.927.351,1.211a11.036,11.036,0,0,0,12.6-2.512A10.579,10.579,0,0,0,1464.921-120.479Z" transform="translate(-1356.314 225.486)" fill="#030303"/>
    <path id="Trazado_129651" data-name="Trazado 129651" d="M1474.615-127.677l-.405-.306.507.012Z" transform="translate(-1366.461 224.554)" fill="#e8555a"/>
    <path id="Trazado_129652" data-name="Trazado 129652" d="M1360.516-107.107c2.229-.021,4.459-.011,6.687-.079.894-.028,1.255.226,1.239,1.175-.048,2.875-.044,5.753,0,8.628.013.928-.328,1.221-1.236,1.193-2.228-.068-4.458-.055-6.687-.075Z" transform="translate(-1333.284 218.486)" fill="#f6dc4b"/>
    <path id="Trazado_129653" data-name="Trazado 129653" d="M1357.769-107.108v10.842c-1.813.021-3.627.008-5.438.076-.911.035-1.241-.286-1.228-1.206q.062-4.3,0-8.6c-.015-.935.333-1.224,1.23-1.191C1354.142-107.121,1355.956-107.131,1357.769-107.108Z" transform="translate(-1330.536 218.487)" fill="#f7ea6f"/>
    <path id="Trazado_129654" data-name="Trazado 129654" d="M1359.857-117.642c-3.819,0-3.819,0-3.5-3.816a3.594,3.594,0,0,1,3.567-3.43,3.641,3.641,0,0,1,3.588,3.433C1363.836-117.642,1363.836-117.642,1359.857-117.642Z" transform="translate(-1332.034 223.651)" fill="#e8555a"/>
    <path id="Trazado_129655" data-name="Trazado 129655" d="M1463.116-122.13l-14.667,14.63c-2.633-3.942-1.851-9.679,1.868-13.189C1453.935-124.1,1459.709-124.718,1463.116-122.13Z" transform="translate(-1358.491 223.312)" fill="#dfeffb"/>
    <path id="Trazado_129656" data-name="Trazado 129656" d="M1469.416-116.071a10.579,10.579,0,0,1-1.261,12.89,11.036,11.036,0,0,1-12.6,2.512c-.555-.284-1.086-.482-.351-1.211C1459.95-106.588,1464.668-111.323,1469.416-116.071Z" transform="translate(-1360.81 221.078)" fill="#dfeffb"/>
  </g>
</svg>
