<svg id="Grupo_86702" data-name="Grupo 86702" xmlns="http://www.w3.org/2000/svg" xmlns:xlink="http://www.w3.org/1999/xlink" width="87.43" height="87.407" viewBox="0 0 87.43 87.407">
  <defs>
    <clipPath id="clip-path">
      <rect id="Rectángulo_36929" data-name="Rectángulo 36929" width="87.43" height="87.407" fill="none"/>
    </clipPath>
  </defs>
  <g id="Grupo_86701" data-name="Grupo 86701" clip-path="url(#clip-path)">
    <path id="Trazado_130845" data-name="Trazado 130845" d="M0,43.717q0-13.841,0-27.68c0-3.108,1.673-4.772,4.795-4.772q18.733,0,37.467.013a1.462,1.462,0,0,0,1.418-.73,23.9,23.9,0,0,1,43.356,9.074c1.647,10.1-1.9,18.2-10.189,24.2a1.351,1.351,0,0,0-.681,1.265c.035,2.2.024,4.408.006,6.611,0,.473.032.816.57,1.011.678.245,1.03,1.092,1.611,1.284.564.187,1.275-.406,2-.412a4.2,4.2,0,0,1,4.274,4.047c.043,5.083.149,10.171-.034,15.248a15.48,15.48,0,0,1-30.084,4.143c-.253-.754-.606-.875-1.3-.875q-24.2.025-48.4.013C1.649,76.155,0,74.493,0,71.309q0-13.8,0-27.592M59.251,59.529c0-3.961-.009-7.746.01-11.531,0-.532-.332-.51-.676-.591A23.673,23.673,0,0,1,40.857,31.782.978.978,0,0,0,39.752,31q-18.027.029-36.055-.005c-.749,0-.894.2-.893.913q.035,19.657.018,39.314c0,1.739.373,2.111,2.115,2.111H51.924c1.687,0,1.657,0,1.692-1.72A10.53,10.53,0,0,0,52.558,65.9a27.787,27.787,0,0,1-1.44-2.914,3.665,3.665,0,0,1,3.434-5.163,7.789,7.789,0,0,1,4.7,1.709m8.465-14.894c.295-.048.527-.069.751-.123A21.159,21.159,0,1,0,44.62,33.49,20.773,20.773,0,0,0,58.508,44.524c.537.14.813.118.756-.56a15.309,15.309,0,0,1,0-2.114,1.064,1.064,0,0,0-.552-1.063,8.256,8.256,0,0,1-3.448-4.937,16.2,16.2,0,0,1-.232-4.3c.018-1.729-.365-3.542.24-5.165A8.1,8.1,0,0,0,55.3,21.5a25.569,25.569,0,0,1-.069-9.113,8.418,8.418,0,0,1,16.509.007,37.427,37.427,0,0,1,.059,8.783c-.08.98-.808,1.836-.854,2.737-.048.929.731,1.808.863,2.815a62.709,62.709,0,0,1,.137,6.6A8.4,8.4,0,0,1,68.107,40.9c-.224.153-.406.282-.4.609.023,1.025.008,2.051.008,3.127M62.073,54.716V66.968c0,2.25,0,2.238-2.284,2.146-.413-.017-.558-.111-.548-.542.027-1.116.036-2.233,0-3.349a4.782,4.782,0,0,0-4.5-4.578c-.96-.022-1.354.549-.951,1.416.358.77.723,1.541,1.139,2.281a11.616,11.616,0,0,1,1.508,6.421,14.518,14.518,0,0,0,.219,3.6,12.7,12.7,0,0,0,25.162-2.417c.023-4.584,0-9.167,0-13.752,0-.088,0-.176,0-.265a1.43,1.43,0,0,0-1.383-1.517,1.41,1.41,0,0,0-1.431,1.551C78.994,61.019,79,64.075,79,67.13c0,1.981,0,1.94-2,1.993-.745.02-.835-.253-.83-.889.026-3.614.013-7.229.013-10.842,0-.176,0-.353,0-.529-.006-1.2-.488-1.849-1.391-1.862s-1.427.646-1.428,1.824q0,5.157,0,10.313c0,1.968,0,1.933-1.924,1.983-.716.019-.927-.139-.919-.894.043-4.113.02-8.227.02-12.34,0-.176,0-.352,0-.529-.011-1.117-.519-1.759-1.4-1.767s-1.419.635-1.421,1.742q-.007,5.906,0,11.812c0,1.961,0,1.924-1.93,1.977-.728.02-.913-.159-.911-.9.029-8.873.019-17.747.018-26.62a5,5,0,0,0-.02-.879A1.4,1.4,0,0,0,62.1,40.7a4.189,4.189,0,0,0-.022.791q0,6.612,0,13.222M41.64,14.085H31.19q-13.261,0-26.523,0c-1.276,0-1.836.464-1.839,1.589-.013,3.965,0,7.93-.016,11.9,0,.5.149.631.64.631q17.887-.019,35.775,0c.6,0,.653-.182.564-.705a21.8,21.8,0,0,1-.193-5.616,25.1,25.1,0,0,1,2.042-7.8m16.2,16.609c0,1.266-.021,2.265,0,3.264a5.626,5.626,0,0,0,1.722,3.928c.344.347.561.421.977.02a4.035,4.035,0,0,1,5.9.025c.389.371.594.308.913-.013a5.619,5.619,0,0,0,1.614-2.87,22.891,22.891,0,0,0,.14-4.48A18.283,18.283,0,0,0,69,27.053c-.12-.647-.265-.695-.812-.324a8.231,8.231,0,0,1-6.637,1.241c-1.516-.334-1.513-.351-.907-1.741a6.156,6.156,0,0,0,.276-.646c.156-.509.376-.629.954-.465a5.618,5.618,0,0,0,7.245-5.466c.018-1.909.033-3.819-.008-5.728a5.624,5.624,0,0,0-11.127-1.013,25.3,25.3,0,0,0-.135,4.833,14.632,14.632,0,0,0,.118,3.162c.121.593.254.655.763.307A8.259,8.259,0,0,1,65.192,19.9c1.663.323,1.664.317,1.018,1.833a3.625,3.625,0,0,0-.206.484c-.152.582-.4.724-1.054.548a5.569,5.569,0,0,0-7,4.413,23.418,23.418,0,0,0-.1,3.513M73.359,45.816a24.524,24.524,0,0,1-5.195,1.619c-.295.052-.462.168-.455.514.019.993.007,1.986.007,3.03a4.243,4.243,0,0,1,4.768,1.48A.37.37,0,0,0,73,52.6a.54.54,0,0,0,.367-.6c-.009-2.022,0-4.044,0-6.184" transform="translate(0 0)" fill="#020201"/>
    <path id="Trazado_130846" data-name="Trazado 130846" d="M64.4,116.391a7.789,7.789,0,0,0-4.7-1.709,3.665,3.665,0,0,0-3.434,5.164,27.753,27.753,0,0,0,1.44,2.914,10.534,10.534,0,0,1,1.058,5.715c-.036,1.72-.006,1.721-1.692,1.721H10.084c-1.743,0-2.116-.372-2.116-2.111q0-19.657-.017-39.315c0-.716.144-.914.893-.913q18.027.041,36.055,0A.978.978,0,0,1,46,88.643a23.67,23.67,0,0,0,17.727,15.626c.344.081.678.059.676.591-.018,3.785-.01,7.57-.01,11.531M29.089,90.7a18.339,18.339,0,1,0,18.38,18.276A18.37,18.37,0,0,0,29.089,90.7" transform="translate(-5.146 -56.862)" fill="#e4e7ea"/>
    <path id="Trazado_130847" data-name="Trazado 130847" d="M145.348,49.731c0-1.076.014-2.1-.008-3.127-.007-.327.175-.456.4-.61a8.4,8.4,0,0,0,3.838-7.573,62.7,62.7,0,0,0-.137-6.6c-.132-1.007-.91-1.887-.863-2.815.046-.9.774-1.757.854-2.737a37.43,37.43,0,0,0-.059-8.784,8.418,8.418,0,0,0-16.508-.007,25.579,25.579,0,0,0,.068,9.113,8.1,8.1,0,0,1-.031,4.891c-.606,1.622-.222,3.435-.24,5.164a16.2,16.2,0,0,0,.232,4.3,8.255,8.255,0,0,0,3.448,4.937,1.064,1.064,0,0,1,.552,1.063,15.313,15.313,0,0,0,0,2.114c.057.678-.219.7-.756.56a20.776,20.776,0,0,1-13.889-11.034A21.138,21.138,0,1,1,146.1,49.608c-.224.054-.456.076-.751.123" transform="translate(-77.632 -5.097)" fill="#f4d57e"/>
    <path id="Trazado_130848" data-name="Trazado 130848" d="M160.467,127.17q0-6.611,0-13.222a4.192,4.192,0,0,1,.022-.792,1.4,1.4,0,0,1,2.778.018,5.039,5.039,0,0,1,.02.88c0,8.873.011,17.747-.018,26.62,0,.742.183.921.911.9,1.929-.053,1.93-.016,1.93-1.977q0-5.906,0-11.812c0-1.107.536-1.751,1.42-1.742s1.388.65,1.4,1.767c0,.176,0,.352,0,.529,0,4.113.023,8.227-.02,12.34-.008.755.2.913.919.894,1.923-.051,1.924-.015,1.924-1.983q0-5.157,0-10.313c0-1.178.523-1.837,1.428-1.824s1.386.659,1.392,1.862c0,.176,0,.352,0,.529,0,3.614.014,7.228-.013,10.842,0,.636.085.909.83.889,2-.054,2-.012,2-1.993,0-3.056-.008-6.112.006-9.167a1.41,1.41,0,0,1,1.431-1.552,1.43,1.43,0,0,1,1.383,1.517c0,.088,0,.176,0,.265,0,4.584.018,9.167,0,13.751a12.7,12.7,0,0,1-25.162,2.417,14.515,14.515,0,0,1-.22-3.6,11.612,11.612,0,0,0-1.508-6.421c-.416-.74-.781-1.511-1.139-2.281-.4-.867-.009-1.437.951-1.416a4.782,4.782,0,0,1,4.5,4.578c.037,1.115.029,2.233,0,3.349-.01.43.134.525.547.541,2.285.092,2.284.1,2.284-2.145V127.17" transform="translate(-98.394 -72.455)" fill="#e9d0b6"/>
    <path id="Trazado_130849" data-name="Trazado 130849" d="M46.8,39.927a25.092,25.092,0,0,0-2.042,7.8,21.813,21.813,0,0,0,.193,5.616c.089.524.04.706-.564.705q-17.888-.027-35.775,0c-.492,0-.643-.127-.64-.631.02-3.965,0-7.93.016-11.9,0-1.124.563-1.588,1.839-1.588q13.262,0,26.523,0ZM20.649,51.211c1.85,0,3.7.011,5.551,0a4.231,4.231,0,1,0-.033-8.458q-5.507-.017-11.015,0a4.231,4.231,0,1,0,.033,8.458c1.821.011,3.642,0,5.463,0" transform="translate(-5.158 -25.841)" fill="#bbda89"/>
    <path id="Trazado_130850" data-name="Trazado 130850" d="M163.889,46.172a23.372,23.372,0,0,1,.1-3.513,5.568,5.568,0,0,1,7-4.413c.657.177.9.034,1.054-.548a3.671,3.671,0,0,1,.207-.484c.646-1.516.644-1.51-1.018-1.833a8.261,8.261,0,0,0-6.459,1.311c-.509.347-.642.285-.763-.308a14.652,14.652,0,0,1-.118-3.162,25.305,25.305,0,0,1,.135-4.833A5.624,5.624,0,0,1,175.16,29.4c.041,1.909.026,3.819.008,5.728a5.618,5.618,0,0,1-7.245,5.466c-.577-.164-.8-.044-.954.465a6.155,6.155,0,0,1-.276.646c-.606,1.39-.61,1.407.906,1.741a8.233,8.233,0,0,0,6.638-1.241c.546-.371.692-.323.812.324a18.282,18.282,0,0,1,.109,3.515,22.946,22.946,0,0,1-.14,4.48,5.618,5.618,0,0,1-1.614,2.87c-.319.32-.525.384-.913.013a4.035,4.035,0,0,0-5.9-.026c-.417.4-.633.328-.977-.02a5.626,5.626,0,0,1-1.722-3.928c-.026-1,0-2,0-3.264" transform="translate(-106.045 -15.478)" fill="#f3d57e"/>
    <path id="Trazado_130851" data-name="Trazado 130851" d="M197.577,129.868c0,2.139,0,4.161,0,6.184a.54.54,0,0,1-.367.6.37.37,0,0,1-.513-.141,4.243,4.243,0,0,0-4.768-1.48c0-1.044.013-2.037-.007-3.03-.007-.346.161-.462.455-.514a24.524,24.524,0,0,0,5.195-1.619" transform="translate(-124.219 -84.053)" fill="#e3e6e9"/>
    <path id="Trazado_130852" data-name="Trazado 130852" d="M34.3,95.907A18.339,18.339,0,1,1,16,114.262,18.371,18.371,0,0,1,34.3,95.907m.023,16.928c1.674,0,3.349-.019,5.023.011.517.009.644-.148.594-.651-.141-1.431-.261-2.864-.491-4.285-.082-.506-.222-.743-.818-.734-2.849.038-5.7.033-8.548,0-.551-.006-.766.156-.85.7-.22,1.423-.347,2.854-.494,4.285-.058.561.1.7.649.686,1.644-.034,3.29-.012,4.935-.012m.023,2.822c-1.674,0-3.349.009-5.023-.006-.421,0-.639.055-.59.569.143,1.49.277,2.979.509,4.46.083.528.322.635.818.63,2.849-.024,5.7-.03,8.548,0,.567.007.756-.184.839-.71.225-1.422.342-2.855.495-4.285.062-.584-.139-.682-.661-.673-1.644.03-3.29.011-4.935.011m11.937-2.822c.969,0,1.939-.025,2.907.011.488.018.583-.141.525-.6a16.174,16.174,0,0,0-1.35-4.622.685.685,0,0,0-.75-.438c-1.615.016-3.23.021-4.845,0-.431-.006-.576.1-.493.542a35.8,35.8,0,0,1,.481,4.637c.022.392.167.487.531.48,1-.02,2-.007,3-.007m-23.927,0c1,0,2-.017,3,.008.4.01.554-.1.577-.526a32.755,32.755,0,0,1,.474-4.549c.093-.477-.075-.591-.536-.584-1.615.025-3.23.016-4.845,0a.629.629,0,0,0-.683.4,15.739,15.739,0,0,0-1.377,4.7c-.052.429.045.566.488.552.968-.03,1.938-.009,2.907-.009m.053,2.822c-.969,0-1.939.022-2.907-.01-.466-.015-.6.11-.538.588a16.193,16.193,0,0,0,1.348,4.623.685.685,0,0,0,.744.448q2.423-.027,4.846,0c.41,0,.595-.068.506-.53a35.5,35.5,0,0,1-.484-4.637c-.022-.379-.145-.5-.52-.49-1,.022-2,.007-3,.007m23.913,0c-1,0-2,.018-2.995-.009-.411-.011-.55.1-.574.531a35.344,35.344,0,0,1-.47,4.549c-.069.369-.044.59.448.581,1.644-.028,3.289-.017,4.933-.005a.629.629,0,0,0,.681-.4,15.864,15.864,0,0,0,1.375-4.7c.054-.434-.053-.562-.491-.549-.968.029-1.938.009-2.907.009m-7.753-11.308a11.336,11.336,0,0,0-2.689-4.9,1.979,1.979,0,0,0-3.042-.031,11.234,11.234,0,0,0-2.728,4.934Zm-8.457,19.79a11.827,11.827,0,0,0,2.544,4.768,2.073,2.073,0,0,0,3.363.007,11.66,11.66,0,0,0,2.548-4.775Zm9.5-24.464a20.85,20.85,0,0,1,1.789,4.256c.081.284.2.451.537.447,1.391-.014,2.782-.006,4.348-.006a15.674,15.674,0,0,0-6.674-4.7m-17.23,24.445a15.411,15.411,0,0,0,6.676,4.657,19.931,19.931,0,0,1-1.752-4.153.582.582,0,0,0-.666-.512c-1.344.022-2.688.008-4.258.008m6.7-24.438a15.768,15.768,0,0,0-6.69,4.691c1.562,0,2.906-.013,4.25.008a.582.582,0,0,0,.668-.51,20.066,20.066,0,0,1,1.772-4.189m10.52,29.148a15.828,15.828,0,0,0,6.688-4.71c-1.551,0-2.9.013-4.239-.008a.582.582,0,0,0-.667.511,20.207,20.207,0,0,1-1.782,4.207" transform="translate(-10.354 -62.073)" fill="#010202"/>
    <path id="Trazado_130853" data-name="Trazado 130853" d="M25.847,56.375c-1.821,0-3.642.009-5.463,0a4.231,4.231,0,1,1-.033-8.458q5.507-.021,11.015,0a4.231,4.231,0,1,1,.033,8.458c-1.85.014-3.7,0-5.551,0m1.439-4.229c0-1.414,0-1.414-1.408-1.414s-1.413,0-1.413,1.408,0,1.413,1.408,1.413,1.413,0,1.413-1.408m-5.612.047c-.237-.533.547-1.607-.924-1.483-1.253.105-1.912.494-1.924,1.415-.013.948.662,1.355,1.975,1.453s.685-.846.873-1.384m8.406-.1c.25.515-.569,1.6.906,1.487,1.265-.1,1.917-.48,1.939-1.4.023-.946-.662-1.361-1.96-1.468-1.324-.109-.722.818-.884,1.381" transform="translate(-10.356 -31.005)" fill="#010101"/>
    <path id="Trazado_130854" data-name="Trazado 130854" d="M57.67,133.508c-1.645,0-3.29-.022-4.935.012-.545.011-.707-.125-.649-.686.146-1.431.273-2.862.494-4.285.084-.541.3-.7.85-.7,2.849.03,5.7.035,8.548,0,.6-.008.737.229.818.734.23,1.422.349,2.854.491,4.285.05.5-.077.66-.594.651-1.674-.03-3.349-.011-5.023-.011" transform="translate(-33.704 -82.746)" fill="#83d2ee"/>
    <path id="Trazado_130855" data-name="Trazado 130855" d="M57.688,151.869c1.645,0,3.29.018,4.935-.011.522-.009.724.089.661.673-.153,1.43-.27,2.862-.495,4.285-.083.526-.272.717-.839.711-2.849-.034-5.7-.028-8.548,0-.5,0-.735-.1-.818-.63-.232-1.481-.367-2.97-.509-4.46-.049-.514.169-.573.59-.569,1.674.016,3.349.006,5.023.006" transform="translate(-33.7 -98.285)" fill="#83d2ee"/>
    <path id="Trazado_130856" data-name="Trazado 130856" d="M94.44,133.522c-1,0-2-.013-3,.007-.364.007-.509-.088-.531-.479a35.8,35.8,0,0,0-.481-4.637c-.083-.44.062-.549.493-.542,1.615.024,3.23.018,4.845,0a.685.685,0,0,1,.75.438,16.162,16.162,0,0,1,1.35,4.622c.059.459-.036.618-.524.6-.968-.036-1.938-.011-2.907-.011" transform="translate(-58.515 -82.76)" fill="#83d2ed"/>
    <path id="Trazado_130857" data-name="Trazado 130857" d="M27.758,133.521c-.969,0-1.939-.021-2.907.009-.443.014-.54-.123-.488-.551a15.741,15.741,0,0,1,1.377-4.7.63.63,0,0,1,.683-.4c1.615.012,3.231.02,4.846,0,.46-.007.629.107.536.584A32.75,32.75,0,0,0,31.331,133c-.024.431-.174.537-.577.526-1-.025-2-.008-3-.008" transform="translate(-15.76 -82.759)" fill="#83d2ed"/>
    <path id="Trazado_130858" data-name="Trazado 130858" d="M27.814,151.87c1,0,2,.015,3-.007.376-.008.5.111.52.49a35.488,35.488,0,0,0,.484,4.637c.089.462-.1.536-.506.531q-2.423-.03-4.846,0a.685.685,0,0,1-.744-.447,16.207,16.207,0,0,1-1.348-4.623c-.06-.478.072-.6.538-.588.968.031,1.938.009,2.907.009" transform="translate(-15.763 -98.286)" fill="#83d2ed"/>
    <path id="Trazado_130859" data-name="Trazado 130859" d="M94.48,151.871c.969,0,1.939.02,2.907-.009.438-.013.545.115.491.549a15.854,15.854,0,0,1-1.375,4.7.629.629,0,0,1-.681.4c-1.644-.012-3.289-.023-4.933.005-.492.008-.516-.212-.448-.581a35.218,35.218,0,0,0,.47-4.549c.024-.429.163-.542.574-.531,1,.027,2,.009,2.995.009" transform="translate(-58.517 -98.287)" fill="#83d2ed"/>
    <path id="Trazado_130860" data-name="Trazado 130860" d="M64.446,109.5H55.987a11.237,11.237,0,0,1,2.727-4.934,1.98,1.98,0,0,1,3.043.031,11.344,11.344,0,0,1,2.689,4.9" transform="translate(-36.236 -67.228)" fill="#82d1ed"/>
    <path id="Trazado_130861" data-name="Trazado 130861" d="M55.992,175.933h8.455a11.66,11.66,0,0,1-2.548,4.775,2.074,2.074,0,0,1-3.364-.007,11.827,11.827,0,0,1-2.543-4.768" transform="translate(-36.239 -113.867)" fill="#82d1ed"/>
    <path id="Trazado_130862" data-name="Trazado 130862" d="M82.916,106.586a15.674,15.674,0,0,1,6.674,4.7c-1.566,0-2.957-.008-4.349.006-.337,0-.455-.163-.536-.447a20.85,20.85,0,0,0-1.789-4.256" transform="translate(-53.665 -68.984)" fill="#81ceea"/>
    <path id="Trazado_130863" data-name="Trazado 130863" d="M34.076,175.862c1.57,0,2.914.014,4.258-.008a.582.582,0,0,1,.666.512,19.92,19.92,0,0,0,1.752,4.153,15.414,15.414,0,0,1-6.676-4.657" transform="translate(-22.055 -113.815)" fill="#81ceea"/>
    <path id="Trazado_130864" data-name="Trazado 130864" d="M40.784,106.605a20.058,20.058,0,0,0-1.772,4.189.583.583,0,0,1-.668.51c-1.344-.022-2.688-.008-4.25-.008a15.765,15.765,0,0,1,6.69-4.691" transform="translate(-22.066 -68.996)" fill="#81ceea"/>
    <path id="Trazado_130865" data-name="Trazado 130865" d="M82.877,180.573a20.207,20.207,0,0,0,1.782-4.207.582.582,0,0,1,.667-.511c1.344.022,2.688.008,4.239.008a15.828,15.828,0,0,1-6.688,4.71" transform="translate(-53.639 -113.816)" fill="#81ceea"/>
    <path id="Trazado_130866" data-name="Trazado 130866" d="M42.812,57.334c0,1.408,0,1.408-1.414,1.408s-1.408,0-1.408-1.414,0-1.408,1.414-1.408,1.408,0,1.408,1.414" transform="translate(-25.882 -36.192)" fill="#e4e7ea"/>
    <path id="Trazado_130867" data-name="Trazado 130867" d="M26.854,57.32c-.188.538.453,1.483-.873,1.384s-1.988-.5-1.975-1.453c.012-.921.67-1.31,1.924-1.415,1.471-.123.687.95.924,1.483" transform="translate(-15.537 -36.132)" fill="#e0e3e6"/>
    <path id="Trazado_130868" data-name="Trazado 130868" d="M55.9,57.214c.162-.562-.44-1.49.884-1.381,1.3.107,1.983.522,1.96,1.468-.022.92-.674,1.3-1.939,1.4-1.475.113-.656-.972-.906-1.487" transform="translate(-36.172 -36.13)" fill="#e0e3e6"/>
  </g>
</svg>
