<svg xmlns="http://www.w3.org/2000/svg" width="90.997" height="90.997" viewBox="0 0 90.997 90.997">
  <g id="Grupo_86483" data-name="Grupo 86483" transform="translate(-0.278 -0.277)">
    <circle id="Elipse_5411" data-name="Elipse 5411" cx="45.498" cy="45.498" r="45.498" transform="translate(0.278 0.277)" fill="#2ff980"/>
    <g id="Grupo_86513" data-name="Grupo 86513" transform="translate(-5720.407 8345.336)">
      <path id="Trazado_130271" data-name="Trazado 130271" d="M1395.907,5.306c.171-.791.682-1.04,1.459-1.026,1.9.033,3.806.005,5.709.012a4.287,4.287,0,0,1,4.494,4.479q.025,6.422-.006,12.845a1.239,1.239,0,0,0,.506,1.079c2.245,1.837,4.461,3.71,6.708,5.543a1.865,1.865,0,0,1,.757,1.582q-.021,20.409-.012,40.819c0,1.69-.8,2.468-2.5,2.468h-67.374c-1.712,0-2.5-.768-2.5-2.466q-.005-20.445-.011-40.89a1.732,1.732,0,0,1,.7-1.462c2.264-1.852,4.5-3.738,6.763-5.589a1.237,1.237,0,0,0,.506-1.078c-.018-4.186-.012-8.373-.01-12.56,0-3.038,1.735-4.769,4.778-4.77q8.065,0,16.13.009a1.789,1.789,0,0,0,1.284-.451c1.093-.952,2.221-1.866,3.339-2.79a4,4,0,0,1,5.4-.018c1.107.9,2.215,1.8,3.285,2.743a1.99,1.99,0,0,0,1.475.518c1.5-.034,3,0,4.5-.015a1.092,1.092,0,0,1,1.24,1c-.192.917-.447,1.1-1.59,1.1l-34.96,0a8.022,8.022,0,0,0-.855.024,2.156,2.156,0,0,0-1.906,1.99c-.021.308.028.623-.016.926-.1.67.12.866.829.865q23.866-.035,47.732-.019c.237,0,.474-.019.711-.029.451.01.9.027,1.354.028,1.821,0,1.914-.11,1.635-1.942a2.146,2.146,0,0,0-1.925-1.815c-.59-.041-1.186.005-1.779.012l-4.345-.041c-.973-.009-1.207-.179-1.494-1.078m14.539,63.122c.75.725,1.494,1.456,2.254,2.17.176.166.324.5.626.356.251-.122.111-.43.112-.65q.011-19.039,0-38.078c0-.193.1-.419-.127-.627l-3.006,2.382a1.545,1.545,0,0,0-.182.1Q1400.4,41.6,1390.664,49.1c-.408.314-.291.45,0,.728q5.973,5.615,11.929,11.247,3.916,3.688,7.849,7.356m-51.673-8.16a1.205,1.205,0,0,1,.332-1.69c3.178-2.97,6.34-5.957,9.544-8.973l-23.432-18.094V37.59q0,16.37.007,32.74c0,.213-.154.524.132.632a.713.713,0,0,0,.841-.21,3.587,3.587,0,0,1,.308-.3q4.075-3.84,8.146-7.685a1.194,1.194,0,0,1,1.705-.229c.453.786.416,1.1-.258,1.742q-3.008,2.844-6.026,5.677c-.321.3-.641.607-1.039.985h60.914c-.121-.145-.172-.222-.238-.284q-10.378-9.8-20.751-19.6c-.325-.308-.509-.25-.821,0q-2.522,1.986-5.077,3.93a5.9,5.9,0,0,1-7.452,0c-1.583-1.218-3.173-2.428-4.735-3.672-.408-.326-.649-.34-1.048.039-3.065,2.922-6.156,5.817-9.24,8.718-.708.666-1.047.7-1.812.2m43.687-47.961c-.166-.009-.331-.026-.5-.026q-24.053,0-48.107-.017c-.6,0-.67.21-.669.721q.022,10.705,0,21.41a1.177,1.177,0,0,0,.529,1.053q11.414,8.79,22.811,17.6c2.042,1.576,3.605,1.561,5.664-.029q6.576-5.079,13.151-10.158,3.578-2.77,7.138-5.561c.908-.685,1.811-1.377,2.729-2.049a.655.655,0,0,0,.267-.607q-.005-10.937,0-21.874c0-.34-.044-.52-.453-.5-.853.038-1.708.026-2.563.035m5.153,21.08c1.7-1.314,3.274-2.543,4.866-3.746.358-.271.234-.4-.031-.619-1.124-.917-2.234-1.851-3.351-2.777-.464-.385-.932-.766-1.483-1.219Zm-56.59-.03V25.039c-1.679,1.395-3.261,2.721-4.859,4.027-.3.249-.231.371.032.572,1.583,1.21,3.158,2.432,4.827,3.72m25.015-29.112h6.6c-.822-.666-1.509-1.277-2.252-1.81a1.711,1.711,0,0,0-2.065-.027c-.766.533-1.461,1.167-2.284,1.837" transform="translate(4386.849 -8336.113)" fill="#040403"/>
      <path id="Trazado_130272" data-name="Trazado 130272" d="M1427.5,23.335c-.237.01-.474.029-.711.029q-23.866,0-47.732.019c-.71,0-.928-.2-.83-.865.045-.3,0-.618.016-.926a2.155,2.155,0,0,1,1.906-1.99,8.029,8.029,0,0,1,.855-.024h34.96c1.144,0,1.4-.18,1.59-1.1l3.39.019c.288.9.521,1.068,1.494,1.078l4.345.041c.836,1.124.74,2.427.716,3.717" transform="translate(4361.808 -8349.307)" fill="#72cc98"/>
      <path id="Trazado_130273" data-name="Trazado 130273" d="M1427.561,67.912q-3.568,2.781-7.138,5.561-6.571,5.086-13.151,10.158c-2.059,1.591-3.623,1.605-5.664.029q-11.4-8.8-22.81-17.6a1.177,1.177,0,0,1-.53-1.053q.026-10.705,0-21.41c0-.511.064-.722.669-.721q24.054.03,48.108.017c.166,0,.331.017.5.026q0,1.424,0,2.849.008,11.074.015,22.148m-23.154-23.568a6.39,6.39,0,0,0-6.15,4.816,6.213,6.213,0,0,0-.081,2.756.675.675,0,0,1-.385.757c-.321.207-.393-.182-.492-.339a2.089,2.089,0,0,0-1.738-1.06c-.826-.06-1.64-.277-2.466-.363a.682.682,0,0,1-.653-.523q-.435-1.2-.9-2.4c-.295-.749-.812-1.034-1.425-.812-.593.214-.805.808-.532,1.54.381,1.022.8,2.03,1.157,3.061a1.521,1.521,0,0,0,1.408,1.1c.967.116,1.928.278,2.889.433a1.31,1.31,0,0,1,.956,1.861,9.126,9.126,0,0,0-.861,1.948c-.149.544-.373.755-.93.483a1.411,1.411,0,0,0-1.689.318c-1.014.9-2.076,1.742-3.111,2.618-.613.519-.736,1.117-.354,1.6.409.518,1.039.521,1.689-.014.9-.74,1.8-1.481,2.678-2.246a.691.691,0,0,1,.78-.109c.338.122.2.388.177.6a14.153,14.153,0,0,0,.7,6.532c.183.518.061.669-.392.871a5.045,5.045,0,0,0-2.009,1.025c-1.028,1.215-2,2.479-2.968,3.744a1,1,0,0,0,.187,1.453,1.056,1.056,0,0,0,1.506-.267c.854-1.052,1.667-2.138,2.532-3.18a3.79,3.79,0,0,1,2.129-1.055c.455-.113.564.709.916,1.038a3.2,3.2,0,0,1,.265.335c2.631,3.229,6.453,4.432,10.049,3.142a10.284,10.284,0,0,0,5.045-4.124c.12-.176.179-.564.471-.428.741.345,1.613.464,2.166,1.153.818,1.02,1.618,2.055,2.439,3.073a1.073,1.073,0,0,0,1.553.307,1.049,1.049,0,0,0,.088-1.575c-.518-.681-1.106-1.314-1.578-2.024a6.044,6.044,0,0,0-3.447-2.689c-.46-.128-.394-.388-.268-.744a14.8,14.8,0,0,0,.747-6.391c-.026-.271-.279-.605.153-.806a.754.754,0,0,1,.889.214q1.27,1.094,2.568,2.156c.631.519,1.215.526,1.638.046s.314-1.112-.325-1.656c-.942-.8-1.926-1.556-2.832-2.395a1.765,1.765,0,0,0-2.179-.467c-.328.164-.5.083-.612-.295a11.073,11.073,0,0,0-.932-2.15,1.3,1.3,0,0,1,1.019-1.918c.963-.144,1.925-.3,2.888-.444a1.325,1.325,0,0,0,1.213-.838c.425-1.157.886-2.3,1.309-3.46a1.029,1.029,0,1,0-1.914-.75,8.261,8.261,0,0,0-.611,1.591,1.954,1.954,0,0,1-2.106,1.69c-1.227.09-2.637.029-3.308,1.483-.12.259-.271.13-.444,0-.494-.365-.209-.836-.17-1.247a6.384,6.384,0,0,0-6.335-6.99" transform="translate(4361.766 -8366.721)" fill="#e0e4e7"/>
      <path id="Trazado_130274" data-name="Trazado 130274" d="M1373.5,187.162c.765.5,1.1.462,1.812-.2,3.084-2.9,6.175-5.8,9.24-8.718.4-.38.639-.365,1.048-.039,1.562,1.244,3.152,2.455,4.735,3.672a5.9,5.9,0,0,0,7.452,0q2.548-1.952,5.077-3.93c.312-.245.5-.3.821,0q10.365,9.813,20.751,19.6c.066.062.117.139.238.284h-60.914c.4-.378.718-.682,1.039-.985q3.013-2.838,6.026-5.677c.674-.637.712-.955.259-1.742a19.393,19.393,0,0,0,2.417-2.274" transform="translate(4372.124 -8463.007)" fill="#edae4e"/>
      <path id="Trazado_130275" data-name="Trazado 130275" d="M1363.892,138.906a19.364,19.364,0,0,1-2.417,2.274,1.194,1.194,0,0,0-1.705.229q-4.059,3.856-8.146,7.685a3.662,3.662,0,0,0-.308.3.713.713,0,0,1-.841.21c-.285-.108-.131-.419-.132-.632q-.011-16.37-.007-32.74v-6.079l23.432,18.094c-3.2,3.016-6.366,6-9.545,8.973a1.206,1.206,0,0,0-.333,1.69" transform="translate(4381.731 -8414.75)" fill="#f6d184"/>
      <path id="Trazado_130276" data-name="Trazado 130276" d="M1528.4,153.233q-3.925-3.678-7.849-7.357-5.968-5.62-11.929-11.247c-.3-.278-.413-.414,0-.728q9.744-7.49,19.464-15.01a1.478,1.478,0,0,1,.182-.1c.2.162.146.388.146.6q0,16.925-.009,33.85" transform="translate(4268.894 -8420.918)" fill="#f6d284"/>
      <path id="Trazado_130277" data-name="Trazado 130277" d="M1578.087,147.288q.005-16.925.009-33.85c0-.208.051-.434-.146-.6l3.006-2.382c.226.208.127.433.127.627q.007,19.039-.005,38.078c0,.22.14.529-.112.65-.3.146-.45-.19-.626-.356-.76-.714-1.5-1.446-2.253-2.17" transform="translate(4219.209 -8414.973)" fill="#f3be61"/>
      <path id="Trazado_130278" data-name="Trazado 130278" d="M1550.53,67.928q-.007-11.074-.015-22.148,0-1.425,0-2.849c.855-.009,1.71,0,2.563-.035.409-.018.453.162.453.5q-.012,10.937,0,21.874a.655.655,0,0,1-.266.608c-.918.672-1.82,1.364-2.729,2.048" transform="translate(4238.797 -8366.737)" fill="#cacaca"/>
      <path id="Trazado_130279" data-name="Trazado 130279" d="M1568.523,95.841V87.479c.551.453,1.019.834,1.484,1.219,1.116.926,2.227,1.86,3.351,2.777.265.217.389.348.031.619-1.592,1.2-3.164,2.432-4.866,3.746" transform="translate(4225.939 -8398.566)" fill="#ebad4d"/>
      <path id="Trazado_130280" data-name="Trazado 130280" d="M1358.093,95.845c-1.668-1.288-3.243-2.51-4.827-3.72-.263-.2-.336-.323-.032-.572,1.6-1.306,3.18-2.632,4.859-4.027Z" transform="translate(4379.779 -8398.601)" fill="#ebad4d"/>
      <path id="Trazado_130281" data-name="Trazado 130281" d="M1548.732,26.1c.024-1.29.121-2.593-.716-3.717.593-.007,1.189-.053,1.779-.012a2.146,2.146,0,0,1,1.925,1.815c.28,1.833.186,1.946-1.635,1.942-.451,0-.9-.018-1.353-.028" transform="translate(4240.579 -8352.075)" fill="#5db39e"/>
      <path id="Trazado_130282" data-name="Trazado 130282" d="M1458.153,9.425c.823-.67,1.519-1.3,2.284-1.837a1.711,1.711,0,0,1,2.065.027c.743.534,1.431,1.144,2.252,1.81Z" transform="translate(4304.734 -8341.292)" fill="#ebad4d"/>
      <path id="Trazado_130283" data-name="Trazado 130283" d="M1430.766,48.016a6.385,6.385,0,0,1,6.335,6.99c-.039.412-.324.883.17,1.247.173.128.325.257.445,0,.671-1.454,2.08-1.393,3.308-1.483a1.954,1.954,0,0,0,2.106-1.69,8.214,8.214,0,0,1,.611-1.591,1.029,1.029,0,1,1,1.914.75c-.423,1.158-.884,2.3-1.309,3.46a1.325,1.325,0,0,1-1.212.838c-.963.146-1.925.3-2.888.444a1.3,1.3,0,0,0-1.019,1.918,11.08,11.08,0,0,1,.932,2.15c.114.378.284.459.612.295a1.765,1.765,0,0,1,2.179.467c.907.839,1.89,1.593,2.832,2.395.639.544.752,1.171.325,1.655s-1.008.473-1.638-.046q-1.294-1.065-2.567-2.156a.754.754,0,0,0-.89-.213c-.432.2-.178.535-.153.806a14.785,14.785,0,0,1-.747,6.391c-.125.356-.192.617.269.744a6.044,6.044,0,0,1,3.447,2.689c.473.71,1.06,1.343,1.578,2.024a1.049,1.049,0,0,1-.088,1.575,1.073,1.073,0,0,1-1.553-.307c-.821-1.017-1.62-2.053-2.439-3.073-.553-.689-1.426-.809-2.167-1.153-.291-.136-.351.252-.471.428a10.283,10.283,0,0,1-5.045,4.124c-3.6,1.29-7.418.087-10.048-3.142a3.267,3.267,0,0,0-.266-.335c-.352-.329-.461-1.151-.916-1.038a3.791,3.791,0,0,0-2.129,1.055c-.865,1.043-1.678,2.128-2.532,3.18a1.056,1.056,0,0,1-1.506.267,1,1,0,0,1-.187-1.453c.967-1.265,1.939-2.529,2.968-3.744a5.05,5.05,0,0,1,2.009-1.026c.453-.2.575-.352.392-.871a14.155,14.155,0,0,1-.7-6.532c.027-.215.162-.482-.177-.6a.691.691,0,0,0-.78.109c-.879.765-1.779,1.506-2.679,2.246-.65.535-1.28.532-1.689.014-.382-.485-.259-1.084.354-1.6,1.035-.876,2.1-1.719,3.111-2.618a1.411,1.411,0,0,1,1.689-.318c.557.271.781.06.93-.483a9.132,9.132,0,0,1,.861-1.948,1.31,1.31,0,0,0-.956-1.861c-.962-.155-1.923-.317-2.889-.433a1.521,1.521,0,0,1-1.408-1.1c-.354-1.031-.776-2.039-1.157-3.061-.273-.732-.061-1.326.532-1.541.613-.222,1.131.063,1.425.812q.469,1.191.9,2.4a.682.682,0,0,0,.652.523c.826.087,1.64.3,2.466.363a2.089,2.089,0,0,1,1.739,1.06c.1.157.171.546.492.339a.675.675,0,0,0,.385-.757,6.218,6.218,0,0,1,.081-2.756,6.39,6.39,0,0,1,6.15-4.816m1.147,5.381a10.945,10.945,0,0,1,3.079,1.043,4.176,4.176,0,0,0-4.795-4.264c-2.2.31-3.988,2.412-3.586,4.249a8.947,8.947,0,0,1,5.3-1.028m-1,2.061a6.8,6.8,0,0,0-5.527,2.64,12.365,12.365,0,0,0-.358,14.913,6.987,6.987,0,0,0,5.885,3.08,6.755,6.755,0,0,0,5.188-2.57,12.272,12.272,0,0,0,0-15.5,6.784,6.784,0,0,0-5.192-2.566" transform="translate(4335.407 -8370.394)" fill="#030303"/>
      <path id="Trazado_130284" data-name="Trazado 130284" d="M1449.661,94.656a6.986,6.986,0,0,1-5.885-3.08,12.365,12.365,0,0,1,.358-14.913,6.8,6.8,0,0,1,5.527-2.639.506.506,0,0,0,.277.386,9.362,9.362,0,0,1,3.338,3.97,13.292,13.292,0,0,1,1.26,7.5,12.4,12.4,0,0,1-3.224,7.25,14.613,14.613,0,0,0-1.65,1.523" transform="translate(4316.659 -8388.958)" fill="#cb4a53"/>
      <path id="Trazado_130285" data-name="Trazado 130285" d="M1470.153,94.663a14.572,14.572,0,0,1,1.65-1.523,12.4,12.4,0,0,0,3.224-7.25,13.288,13.288,0,0,0-1.26-7.5,9.36,9.36,0,0,0-3.338-3.97.506.506,0,0,1-.277-.386,6.784,6.784,0,0,1,5.192,2.566,12.271,12.271,0,0,1,0,15.5,6.754,6.754,0,0,1-5.188,2.57" transform="translate(4296.167 -8388.965)" fill="#b33a49"/>
      <path id="Trazado_130286" data-name="Trazado 130286" d="M1460.279,58.79a8.946,8.946,0,0,0-5.3,1.028c-.4-1.837,1.39-3.939,3.586-4.249.04.315.316.454.5.664a4.32,4.32,0,0,1,1.219,2.556" transform="translate(4307.042 -8375.785)" fill="#e25b60"/>
      <path id="Trazado_130287" data-name="Trazado 130287" d="M1469.369,58.646a4.322,4.322,0,0,0-1.219-2.556c-.18-.21-.456-.349-.5-.664a4.176,4.176,0,0,1,4.794,4.264,10.942,10.942,0,0,0-3.079-1.043" transform="translate(4297.951 -8375.642)" fill="#c64852"/>
    </g>
  </g>
</svg>
