<svg xmlns="http://www.w3.org/2000/svg" xmlns:xlink="http://www.w3.org/1999/xlink" width="820" height="266.462" viewBox="0 0 820 266.462">
  <defs>
    <clipPath id="clip-path">
      <rect id="Rectángulo_36928" data-name="Rectángulo 36928" width="133.676" height="66.625" fill="#826be9"/>
    </clipPath>
    <clipPath id="clip-path-2">
      <rect id="Rectángulo_36928-2" data-name="Rectángulo 36928" width="133.676" height="66.625" fill="#d5cef8"/>
    </clipPath>
    <clipPath id="clip-path-3">
      <rect id="Rectángulo_36928-3" data-name="Rectángulo 36928" width="133.676" height="66.625" transform="translate(0 0)" fill="#583ae2"/>
    </clipPath>
    <clipPath id="clip-path-4">
      <rect id="Rectángulo_36928-4" data-name="Rectángulo 36928" width="133.676" height="66.625" transform="translate(0 0)" fill="#ab9df1"/>
    </clipPath>
    <clipPath id="clip-path-5">
      <rect id="Rectángulo_36928-5" data-name="Rectángulo 36928" width="133.676" height="66.625" transform="translate(0 0)" fill="#f3f1ff"/>
    </clipPath>
    <filter id="Elipse_5466" x="73.5" y="65.981" width="151" height="151" filterUnits="userSpaceOnUse">
      <feOffset dx="6" dy="6" input="SourceAlpha"/>
      <feGaussianBlur stdDeviation="12.5" result="blur"/>
      <feFlood flood-opacity="0.161"/>
      <feComposite operator="in" in2="blur"/>
      <feComposite in="SourceGraphic"/>
    </filter>
    <filter id="Elipse_5467" x="207.5" y="65.981" width="151" height="151" filterUnits="userSpaceOnUse">
      <feOffset dx="6" dy="6" input="SourceAlpha"/>
      <feGaussianBlur stdDeviation="12.5" result="blur-2"/>
      <feFlood flood-opacity="0.161"/>
      <feComposite operator="in" in2="blur-2"/>
      <feComposite in="SourceGraphic"/>
    </filter>
    <filter id="Elipse_5468" x="340.5" y="65.981" width="151" height="151" filterUnits="userSpaceOnUse">
      <feOffset dx="6" dy="6" input="SourceAlpha"/>
      <feGaussianBlur stdDeviation="12.5" result="blur-3"/>
      <feFlood flood-opacity="0.161"/>
      <feComposite operator="in" in2="blur-3"/>
      <feComposite in="SourceGraphic"/>
    </filter>
    <filter id="Elipse_5469" x="473.5" y="65.981" width="151" height="151" filterUnits="userSpaceOnUse">
      <feOffset dx="6" dy="6" input="SourceAlpha"/>
      <feGaussianBlur stdDeviation="12.5" result="blur-4"/>
      <feFlood flood-opacity="0.161"/>
      <feComposite operator="in" in2="blur-4"/>
      <feComposite in="SourceGraphic"/>
    </filter>
    <filter id="Elipse_5470" x="607.5" y="65.981" width="151" height="151" filterUnits="userSpaceOnUse">
      <feOffset dx="6" dy="6" input="SourceAlpha"/>
      <feGaussianBlur stdDeviation="12.5" result="blur-5"/>
      <feFlood flood-opacity="0.161"/>
      <feComposite operator="in" in2="blur-5"/>
      <feComposite in="SourceGraphic"/>
    </filter>
  </defs>
  <g id="Grupo_87397" data-name="Grupo 87397" transform="translate(-390 -3898.401)">
    <g id="Grupo_87395" data-name="Grupo 87395">
      <g id="Grupo_87394" data-name="Grupo 87394">
        <g id="Grupo_86641" data-name="Grupo 86641" transform="translate(390 3898.401)">
          <rect id="Rectángulo_33806" data-name="Rectángulo 33806" width="820" height="266.462" transform="translate(0)" fill="#daf1f5"/>
          <path id="hacker-working-in-the-darkness" d="M0,149.872H89.354A95.882,95.882,0,0,1,192,87.4V.427Q185.792.005,179.477,0A182.418,182.418,0,0,0,0,149.872Z" transform="translate(149.872 73.447) rotate(90)" fill="#8fd6e0"/>
          <path id="hacker-working-in-the-darkness-2" data-name="hacker-working-in-the-darkness" d="M0,195.482H116.546A125.062,125.062,0,0,1,250.431,114V.557Q242.334.007,234.1,0C117.193,0,19.989,84.334,0,195.482Z" transform="translate(624.518 250.431) rotate(-90)" fill="#b5e4eb" opacity="0.5"/>
        </g>
        <g id="Grupo_87173" data-name="Grupo 87173" transform="translate(0 7.5)">
          <g id="Grupo_86700" data-name="Grupo 86700" transform="translate(0 112.67)">
            <g id="Grupo_86699" data-name="Grupo 86699" transform="translate(0 -297)">
              <g id="Grupo_86694" data-name="Grupo 86694" transform="translate(599.485 4210.712)">
                <g id="Grupo_86693" data-name="Grupo 86693" transform="translate(0 0)" clip-path="url(#clip-path)">
                  <path id="Trazado_130844" data-name="Trazado 130844" d="M66.839,66.625A66.841,66.841,0,0,0,133.677,0H0A66.841,66.841,0,0,0,66.839,66.625" transform="translate(0 0)" fill="#826be9"/>
                </g>
              </g>
              <g id="Grupo_86697" data-name="Grupo 86697" transform="translate(866.838 4210.712)">
                <g id="Grupo_86693-2" data-name="Grupo 86693" transform="translate(0 0)" clip-path="url(#clip-path-2)">
                  <path id="Trazado_130844-2" data-name="Trazado 130844" d="M66.839,66.625A66.841,66.841,0,0,0,133.677,0H0A66.841,66.841,0,0,0,66.839,66.625" transform="translate(0 0)" fill="#d5cef8"/>
                </g>
              </g>
              <g id="Grupo_86695" data-name="Grupo 86695" transform="translate(599.485 4210.712) rotate(180)">
                <g id="Grupo_86693-3" data-name="Grupo 86693" transform="translate(0 0)" clip-path="url(#clip-path-3)">
                  <path id="Trazado_130844-3" data-name="Trazado 130844" d="M66.839,66.625A66.841,66.841,0,0,0,133.677,0H0A66.841,66.841,0,0,0,66.839,66.625" transform="translate(0 0)" fill="#583ae2"/>
                </g>
              </g>
              <g id="Grupo_86696" data-name="Grupo 86696" transform="translate(866.838 4210.712) rotate(180)">
                <g id="Grupo_86693-4" data-name="Grupo 86693" transform="translate(0 0)" clip-path="url(#clip-path-4)">
                  <path id="Trazado_130844-4" data-name="Trazado 130844" d="M66.839,66.625A66.841,66.841,0,0,0,133.677,0H0A66.841,66.841,0,0,0,66.839,66.625" transform="translate(0 0)" fill="#ab9df1"/>
                </g>
              </g>
              <g id="Grupo_86698" data-name="Grupo 86698" transform="translate(1134.19 4210.712) rotate(180)">
                <g id="Grupo_86693-5" data-name="Grupo 86693" transform="translate(0 0)" clip-path="url(#clip-path-5)">
                  <path id="Trazado_130844-5" data-name="Trazado 130844" d="M66.839,66.625A66.841,66.841,0,0,0,133.677,0H0A66.841,66.841,0,0,0,66.839,66.625" transform="translate(0 0)" fill="#f3f1ff"/>
                </g>
              </g>
              <g transform="matrix(1, 0, 0, 1, 390, 4075.23)" filter="url(#Elipse_5466)">
                <g id="Elipse_5466-2" data-name="Elipse 5466" transform="translate(105 97.48)" fill="#fff" stroke="#826be9" stroke-width="4">
                  <circle cx="38" cy="38" r="38" stroke="none"/>
                  <circle cx="38" cy="38" r="36" fill="none"/>
                </g>
              </g>
              <g transform="matrix(1, 0, 0, 1, 390, 4075.23)" filter="url(#Elipse_5467)">
                <g id="Elipse_5467-2" data-name="Elipse 5467" transform="translate(239 97.48)" fill="#fff" stroke="#826be9" stroke-width="4">
                  <circle cx="38" cy="38" r="38" stroke="none"/>
                  <circle cx="38" cy="38" r="36" fill="none"/>
                </g>
              </g>
              <g transform="matrix(1, 0, 0, 1, 390, 4075.23)" filter="url(#Elipse_5468)">
                <g id="Elipse_5468-2" data-name="Elipse 5468" transform="translate(372 97.48)" fill="#fff" stroke="#826be9" stroke-width="4">
                  <circle cx="38" cy="38" r="38" stroke="none"/>
                  <circle cx="38" cy="38" r="36" fill="none"/>
                </g>
              </g>
              <g transform="matrix(1, 0, 0, 1, 390, 4075.23)" filter="url(#Elipse_5469)">
                <g id="Elipse_5469-2" data-name="Elipse 5469" transform="translate(505 97.48)" fill="#fff" stroke="#826be9" stroke-width="4">
                  <circle cx="38" cy="38" r="38" stroke="none"/>
                  <circle cx="38" cy="38" r="36" fill="none"/>
                </g>
              </g>
              <g transform="matrix(1, 0, 0, 1, 390, 4075.23)" filter="url(#Elipse_5470)">
                <g id="Elipse_5470-2" data-name="Elipse 5470" transform="translate(639 97.48)" fill="#fff" stroke="#826be9" stroke-width="4">
                  <circle cx="38" cy="38" r="38" stroke="none"/>
                  <circle cx="38" cy="38" r="36" fill="none"/>
                </g>
              </g>
              <path id="Trazado_134016" data-name="Trazado 134016" d="M16.875,17.945a8.644,8.644,0,0,1-1.465,5.414,5.113,5.113,0,0,1-4.289,1.875,5.149,5.149,0,0,1-4.266-1.84,8.391,8.391,0,0,1-1.512-5.273V14.98A8.53,8.53,0,0,1,6.826,9.555,5.151,5.151,0,0,1,11.1,7.7a5.156,5.156,0,0,1,4.266,1.834A8.365,8.365,0,0,1,16.875,14.8ZM13.488,14.5a6.237,6.237,0,0,0-.58-3.088,1.961,1.961,0,0,0-1.811-.967,1.926,1.926,0,0,0-1.764.92,5.837,5.837,0,0,0-.6,2.877v4.148a6.547,6.547,0,0,0,.568,3.1A1.935,1.935,0,0,0,11.121,22.5a1.9,1.9,0,0,0,1.793-.973,6.39,6.39,0,0,0,.574-2.977ZM27.387,25H24V11.945L19.957,13.2V10.445l7.066-2.531h.363Z" transform="translate(515 4194.712)" fill="#12263f"/>
              <path id="Trazado_134017" data-name="Trazado 134017" d="M16.875,17.945a8.644,8.644,0,0,1-1.465,5.414,5.113,5.113,0,0,1-4.289,1.875,5.149,5.149,0,0,1-4.266-1.84,8.391,8.391,0,0,1-1.512-5.273V14.98A8.53,8.53,0,0,1,6.826,9.555,5.151,5.151,0,0,1,11.1,7.7a5.156,5.156,0,0,1,4.266,1.834A8.365,8.365,0,0,1,16.875,14.8ZM13.488,14.5a6.237,6.237,0,0,0-.58-3.088,1.961,1.961,0,0,0-1.811-.967,1.926,1.926,0,0,0-1.764.92,5.837,5.837,0,0,0-.6,2.877v4.148a6.547,6.547,0,0,0,.568,3.1A1.935,1.935,0,0,0,11.121,22.5a1.9,1.9,0,0,0,1.793-.973,6.39,6.39,0,0,0,.574-2.977ZM30.855,25H19.16V22.68L24.68,16.8a13.617,13.617,0,0,0,1.682-2.168,3.483,3.483,0,0,0,.545-1.758,2.606,2.606,0,0,0-.574-1.787,2.073,2.073,0,0,0-1.641-.65,2.236,2.236,0,0,0-1.811.791,3.133,3.133,0,0,0-.662,2.08h-3.4a5.594,5.594,0,0,1,.744-2.848,5.245,5.245,0,0,1,2.1-2.021A6.394,6.394,0,0,1,24.75,7.7a6.054,6.054,0,0,1,4.1,1.266A4.478,4.478,0,0,1,30.3,12.543a5.737,5.737,0,0,1-.656,2.578A14.327,14.327,0,0,1,27.4,18.18L23.52,22.27h7.336Z" transform="translate(649 4194.712)" fill="#12263f"/>
              <path id="Trazado_134021" data-name="Trazado 134021" d="M16.875,17.945a8.644,8.644,0,0,1-1.465,5.414,5.113,5.113,0,0,1-4.289,1.875,5.149,5.149,0,0,1-4.266-1.84,8.391,8.391,0,0,1-1.512-5.273V14.98A8.53,8.53,0,0,1,6.826,9.555,5.151,5.151,0,0,1,11.1,7.7a5.156,5.156,0,0,1,4.266,1.834A8.365,8.365,0,0,1,16.875,14.8ZM13.488,14.5a6.237,6.237,0,0,0-.58-3.088,1.961,1.961,0,0,0-1.811-.967,1.926,1.926,0,0,0-1.764.92,5.837,5.837,0,0,0-.6,2.877v4.148a6.547,6.547,0,0,0,.568,3.1A1.935,1.935,0,0,0,11.121,22.5a1.9,1.9,0,0,0,1.793-.973,6.39,6.39,0,0,0,.574-2.977Zm9.117.469h1.8a2.543,2.543,0,0,0,1.91-.645,2.362,2.362,0,0,0,.621-1.711,2.088,2.088,0,0,0-.615-1.605,2.384,2.384,0,0,0-1.693-.574A2.5,2.5,0,0,0,23,10.967a1.7,1.7,0,0,0-.656,1.389H18.961a4.165,4.165,0,0,1,.721-2.4A4.8,4.8,0,0,1,21.7,8.3a6.727,6.727,0,0,1,2.854-.6A6.38,6.38,0,0,1,28.793,9a4.418,4.418,0,0,1,1.535,3.568,3.59,3.59,0,0,1-.715,2.156,4.644,4.644,0,0,1-1.875,1.512,4.239,4.239,0,0,1,2.15,1.547,4.2,4.2,0,0,1,.709,2.438,4.491,4.491,0,0,1-1.658,3.645,6.667,6.667,0,0,1-4.389,1.371,6.322,6.322,0,0,1-4.178-1.348,4.4,4.4,0,0,1-1.623-3.562h3.387a1.962,1.962,0,0,0,.721,1.57,3.006,3.006,0,0,0,3.668-.029,2.2,2.2,0,0,0,.686-1.693q0-2.555-2.812-2.555H22.605Z" transform="translate(782 4194.712)" fill="#12263f"/>
              <path id="Trazado_134022" data-name="Trazado 134022" d="M16.875,17.945a8.644,8.644,0,0,1-1.465,5.414,5.113,5.113,0,0,1-4.289,1.875,5.149,5.149,0,0,1-4.266-1.84,8.391,8.391,0,0,1-1.512-5.273V14.98A8.53,8.53,0,0,1,6.826,9.555,5.151,5.151,0,0,1,11.1,7.7a5.156,5.156,0,0,1,4.266,1.834A8.365,8.365,0,0,1,16.875,14.8ZM13.488,14.5a6.237,6.237,0,0,0-.58-3.088,1.961,1.961,0,0,0-1.811-.967,1.926,1.926,0,0,0-1.764.92,5.837,5.837,0,0,0-.6,2.877v4.148a6.547,6.547,0,0,0,.568,3.1A1.935,1.935,0,0,0,11.121,22.5a1.9,1.9,0,0,0,1.793-.973,6.39,6.39,0,0,0,.574-2.977ZM29.18,18.578h1.934v2.73H29.18V25H25.793V21.309h-7l-.152-2.133L25.758,7.938H29.18Zm-7.16,0h3.773V12.555l-.223.387Z" transform="translate(915 4194.712)" fill="#12263f"/>
              <path id="Trazado_134023" data-name="Trazado 134023" d="M16.875,17.945a8.644,8.644,0,0,1-1.465,5.414,5.113,5.113,0,0,1-4.289,1.875,5.149,5.149,0,0,1-4.266-1.84,8.391,8.391,0,0,1-1.512-5.273V14.98A8.53,8.53,0,0,1,6.826,9.555,5.151,5.151,0,0,1,11.1,7.7a5.156,5.156,0,0,1,4.266,1.834A8.365,8.365,0,0,1,16.875,14.8ZM13.488,14.5a6.237,6.237,0,0,0-.58-3.088,1.961,1.961,0,0,0-1.811-.967,1.926,1.926,0,0,0-1.764.92,5.837,5.837,0,0,0-.6,2.877v4.148a6.547,6.547,0,0,0,.568,3.1A1.935,1.935,0,0,0,11.121,22.5a1.9,1.9,0,0,0,1.793-.973,6.39,6.39,0,0,0,.574-2.977Zm6.176,2.109.984-8.672h9.563v2.824H23.426L23,14.43a5.369,5.369,0,0,1,2.566-.645,4.918,4.918,0,0,1,3.82,1.512,6.038,6.038,0,0,1,1.383,4.23,6.186,6.186,0,0,1-.7,2.959,4.921,4.921,0,0,1-2,2.027,6.237,6.237,0,0,1-3.07.721,6.624,6.624,0,0,1-2.871-.627,5.093,5.093,0,0,1-2.092-1.764,4.807,4.807,0,0,1-.814-2.59h3.352a2.5,2.5,0,0,0,.744,1.658A2.359,2.359,0,0,0,25,22.5a2.082,2.082,0,0,0,1.77-.826,3.827,3.827,0,0,0,.621-2.338,3.165,3.165,0,0,0-.715-2.227,2.623,2.623,0,0,0-2.027-.773,2.932,2.932,0,0,0-1.957.633l-.328.3Z" transform="translate(1049 4194.712)" fill="#12263f"/>
            </g>
            <path id="Trazado_134015" data-name="Trazado 134015" d="M4.719,17h-1.5V5.625h1.5Zm2.164-4.3A4.952,4.952,0,0,1,7.8,9.574a2.915,2.915,0,0,1,2.414-1.184A2.932,2.932,0,0,1,12.57,9.406V5h1.445V17H12.688l-.07-.906A2.943,2.943,0,0,1,10.2,17.156a2.887,2.887,0,0,1-2.395-1.2,5.008,5.008,0,0,1-.926-3.141Zm1.445.164a3.749,3.749,0,0,0,.594,2.25,1.92,1.92,0,0,0,1.641.813A2.108,2.108,0,0,0,12.57,14.7V10.813a2.125,2.125,0,0,0-1.992-1.2,1.929,1.929,0,0,0-1.656.82A4.128,4.128,0,0,0,8.328,12.867Zm11.438,4.289a3.693,3.693,0,0,1-2.8-1.129,4.19,4.19,0,0,1-1.078-3.02v-.266a5.073,5.073,0,0,1,.48-2.246,3.748,3.748,0,0,1,1.344-1.547,3.378,3.378,0,0,1,1.871-.559,3.166,3.166,0,0,1,2.563,1.086,4.7,4.7,0,0,1,.914,3.109v.6H17.336a3,3,0,0,0,.73,2.02,2.3,2.3,0,0,0,1.777.77,2.517,2.517,0,0,0,1.3-.312,3.259,3.259,0,0,0,.93-.828l.883.688A3.55,3.55,0,0,1,19.766,17.156Zm-.18-7.578a1.928,1.928,0,0,0-1.469.637A3.1,3.1,0,0,0,17.383,12h4.234v-.109a2.753,2.753,0,0,0-.594-1.707A1.815,1.815,0,0,0,19.586,9.578ZM26.1,8.547l.047,1.063A3.08,3.08,0,0,1,28.68,8.391q2.68,0,2.7,3.023V17H29.938V11.406a1.946,1.946,0,0,0-.418-1.352,1.675,1.675,0,0,0-1.277-.437,2.086,2.086,0,0,0-1.234.375,2.546,2.546,0,0,0-.828.984V17H24.734V8.547ZM35.523,6.5V8.547H37.1V9.664H35.523v5.242a1.171,1.171,0,0,0,.211.762.888.888,0,0,0,.719.254,3.5,3.5,0,0,0,.688-.094V17a4.19,4.19,0,0,1-1.109.156,1.8,1.8,0,0,1-1.461-.586,2.517,2.517,0,0,1-.492-1.664V9.664H32.539V8.547h1.539V6.5ZM40.359,17H38.914V8.547h1.445ZM38.8,6.3a.863.863,0,0,1,.215-.594.807.807,0,0,1,.637-.242.819.819,0,0,1,.641.242.854.854,0,0,1,.219.594.826.826,0,0,1-.219.586.834.834,0,0,1-.641.234.821.821,0,0,1-.637-.234A.834.834,0,0,1,38.8,6.3ZM43.156,17V9.664H41.82V8.547h1.336V7.828a2.937,2.937,0,0,1,.809-2.2,3.136,3.136,0,0,1,2.285-.789,6.881,6.881,0,0,1,2.211.477l-.242,1.219a5.008,5.008,0,0,0-1.859-.391,1.819,1.819,0,0,0-1.34.418,1.723,1.723,0,0,0-.41,1.254v.734h1.727V9.664H44.609V17Zm6.023,0H47.727V8.547H49.18Zm5.742-1.023a2.082,2.082,0,0,0,1.352-.469,1.649,1.649,0,0,0,.641-1.172h1.367a2.621,2.621,0,0,1-.5,1.383,3.293,3.293,0,0,1-1.23,1.047,3.55,3.55,0,0,1-1.629.391A3.482,3.482,0,0,1,52.176,16a4.59,4.59,0,0,1-1.02-3.152v-.242a5.089,5.089,0,0,1,.453-2.2,3.451,3.451,0,0,1,1.3-1.492,3.7,3.7,0,0,1,2-.531,3.39,3.39,0,0,1,2.363.852,3.043,3.043,0,0,1,1,2.211H56.914a1.992,1.992,0,0,0-.621-1.348,1.932,1.932,0,0,0-1.379-.527,2.023,2.023,0,0,0-1.707.793,3.724,3.724,0,0,0-.605,2.293v.273a3.65,3.65,0,0,0,.6,2.25A2.033,2.033,0,0,0,54.922,15.977ZM65.125,17a3.036,3.036,0,0,1-.2-.891,3.225,3.225,0,0,1-2.406,1.047,2.984,2.984,0,0,1-2.051-.707,2.287,2.287,0,0,1-.8-1.793,2.39,2.39,0,0,1,1-2.051,4.733,4.733,0,0,1,2.824-.73H64.9v-.664A1.623,1.623,0,0,0,64.445,10a1.821,1.821,0,0,0-1.336-.449,2.107,2.107,0,0,0-1.3.391,1.151,1.151,0,0,0-.523.945H59.836a2,2,0,0,1,.449-1.223A3.066,3.066,0,0,1,61.5,8.734,4.1,4.1,0,0,1,63.2,8.391a3.342,3.342,0,0,1,2.289.73,2.635,2.635,0,0,1,.859,2.012v3.891a4.757,4.757,0,0,0,.3,1.852V17Zm-2.4-1.1a2.54,2.54,0,0,0,1.289-.352,2.127,2.127,0,0,0,.883-.914V12.9H63.766q-2.656,0-2.656,1.555a1.316,1.316,0,0,0,.453,1.063A1.742,1.742,0,0,0,62.727,15.9ZM72.7,9.844a4.331,4.331,0,0,0-.711-.055A1.9,1.9,0,0,0,70.055,11v6H68.609V8.547h1.406l.023.977a2.251,2.251,0,0,1,2.016-1.133A1.477,1.477,0,0,1,72.7,8.5Zm5.164,2.531a11.99,11.99,0,0,1,.477-3.406,8.989,8.989,0,0,1,1.406-2.863,5.251,5.251,0,0,1,2.016-1.73L82.2,5.594A5.438,5.438,0,0,0,80.414,8.2a12.082,12.082,0,0,0-.641,4.125v.242a12.313,12.313,0,0,0,.633,4.141A5.544,5.544,0,0,0,82.2,19.359l-.437,1.2a5.253,5.253,0,0,1-1.98-1.684,8.838,8.838,0,0,1-1.4-2.785,11.918,11.918,0,0,1-.516-3.3ZM86.016,17H83.672V5.625h2.344Zm2.172,0V5.625h3.5a5.315,5.315,0,0,1,2.684.676,4.712,4.712,0,0,1,1.848,1.922,5.928,5.928,0,0,1,.664,2.832v.523a5.945,5.945,0,0,1-.652,2.82,4.672,4.672,0,0,1-1.84,1.914,5.355,5.355,0,0,1-2.68.688Zm2.344-9.477v7.594h1.133a2.545,2.545,0,0,0,2.1-.9,4.06,4.06,0,0,0,.742-2.57v-.6a4.124,4.124,0,0,0-.719-2.629,2.537,2.537,0,0,0-2.1-.895Zm11.8,5.031a11.377,11.377,0,0,1-.508,3.4,9.225,9.225,0,0,1-1.461,2.883,5.263,5.263,0,0,1-2.039,1.719l-.437-1.2a5.494,5.494,0,0,0,1.75-2.578,11.939,11.939,0,0,0,.664-4.008v-.414a12.209,12.209,0,0,0-.637-4.117A5.727,5.727,0,0,0,97.883,5.57l.438-1.2a5.265,5.265,0,0,1,2,1.672,9.106,9.106,0,0,1,1.461,2.82,11.3,11.3,0,0,1,.543,3.336Z" transform="translate(483 3969.836)" fill="#12263f"/>
            <path id="Trazado_134019" data-name="Trazado 134019" d="M6.316,17V5.625H9.527a5.169,5.169,0,0,1,2.625.656,4.438,4.438,0,0,1,1.762,1.867,6.078,6.078,0,0,1,.629,2.781v.727a6.1,6.1,0,0,1-.621,2.82,4.369,4.369,0,0,1-1.773,1.859A5.5,5.5,0,0,1,9.465,17Zm1.5-10.141v8.914H9.395a3.435,3.435,0,0,0,2.7-1.078,4.452,4.452,0,0,0,.965-3.07v-.664a4.522,4.522,0,0,0-.91-3.012,3.24,3.24,0,0,0-2.582-1.09Zm12.273,10.3a3.693,3.693,0,0,1-2.8-1.129,4.19,4.19,0,0,1-1.078-3.02v-.266A5.073,5.073,0,0,1,16.7,10.5a3.748,3.748,0,0,1,1.344-1.547,3.378,3.378,0,0,1,1.871-.559,3.166,3.166,0,0,1,2.563,1.086,4.7,4.7,0,0,1,.914,3.109v.6H17.66a3,3,0,0,0,.73,2.02,2.3,2.3,0,0,0,1.777.77,2.517,2.517,0,0,0,1.3-.312,3.259,3.259,0,0,0,.93-.828l.883.688A3.55,3.55,0,0,1,20.09,17.156Zm-.18-7.578a1.928,1.928,0,0,0-1.469.637A3.1,3.1,0,0,0,17.707,12h4.234v-.109a2.753,2.753,0,0,0-.594-1.707A1.815,1.815,0,0,0,19.91,9.578ZM27.02,6.5V8.547H28.6V9.664H27.02v5.242a1.171,1.171,0,0,0,.211.762.888.888,0,0,0,.719.254,3.5,3.5,0,0,0,.688-.094V17a4.19,4.19,0,0,1-1.109.156,1.8,1.8,0,0,1-1.461-.586,2.517,2.517,0,0,1-.492-1.664V9.664H24.035V8.547h1.539V6.5Zm6.773,10.656A3.693,3.693,0,0,1,31,16.027a4.19,4.19,0,0,1-1.078-3.02v-.266A5.073,5.073,0,0,1,30.4,10.5a3.748,3.748,0,0,1,1.344-1.547,3.378,3.378,0,0,1,1.871-.559,3.166,3.166,0,0,1,2.563,1.086,4.7,4.7,0,0,1,.914,3.109v.6H31.363a3,3,0,0,0,.73,2.02,2.3,2.3,0,0,0,1.777.77,2.517,2.517,0,0,0,1.3-.312,3.259,3.259,0,0,0,.93-.828l.883.688A3.55,3.55,0,0,1,33.793,17.156Zm-.18-7.578a1.928,1.928,0,0,0-1.469.637A3.1,3.1,0,0,0,31.41,12h4.234v-.109a2.753,2.753,0,0,0-.594-1.707A1.815,1.815,0,0,0,33.613,9.578Zm8.539,6.4a2.082,2.082,0,0,0,1.352-.469,1.649,1.649,0,0,0,.641-1.172h1.367a2.621,2.621,0,0,1-.5,1.383,3.293,3.293,0,0,1-1.23,1.047,3.55,3.55,0,0,1-1.629.391A3.482,3.482,0,0,1,39.406,16a4.59,4.59,0,0,1-1.02-3.152v-.242a5.089,5.089,0,0,1,.453-2.2,3.451,3.451,0,0,1,1.3-1.492,3.7,3.7,0,0,1,2-.531,3.39,3.39,0,0,1,2.363.852,3.043,3.043,0,0,1,1,2.211H44.145a1.992,1.992,0,0,0-.621-1.348,1.932,1.932,0,0,0-1.379-.527,2.023,2.023,0,0,0-1.707.793,3.724,3.724,0,0,0-.605,2.293v.273a3.65,3.65,0,0,0,.6,2.25A2.033,2.033,0,0,0,42.152,15.977ZM49.1,6.5V8.547h1.578V9.664H49.1v5.242a1.171,1.171,0,0,0,.211.762.888.888,0,0,0,.719.254,3.5,3.5,0,0,0,.688-.094V17a4.19,4.19,0,0,1-1.109.156,1.8,1.8,0,0,1-1.461-.586,2.517,2.517,0,0,1-.492-1.664V9.664H46.113V8.547h1.539V6.5ZM57.582,17a3.036,3.036,0,0,1-.2-.891,3.225,3.225,0,0,1-2.406,1.047,2.984,2.984,0,0,1-2.051-.707,2.287,2.287,0,0,1-.8-1.793,2.39,2.39,0,0,1,1-2.051,4.733,4.733,0,0,1,2.824-.73h1.406v-.664A1.623,1.623,0,0,0,56.9,10a1.821,1.821,0,0,0-1.336-.449,2.107,2.107,0,0,0-1.3.391,1.151,1.151,0,0,0-.523.945H52.293a2,2,0,0,1,.449-1.223,3.066,3.066,0,0,1,1.219-.934,4.1,4.1,0,0,1,1.691-.344,3.342,3.342,0,0,1,2.289.73,2.635,2.635,0,0,1,.859,2.012v3.891a4.757,4.757,0,0,0,.3,1.852V17Zm-2.4-1.1a2.54,2.54,0,0,0,1.289-.352,2.127,2.127,0,0,0,.883-.914V12.9H56.223q-2.656,0-2.656,1.555a1.316,1.316,0,0,0,.453,1.063A1.742,1.742,0,0,0,55.184,15.9Zm9.969-6.055a4.331,4.331,0,0,0-.711-.055A1.9,1.9,0,0,0,62.512,11v6H61.066V8.547h1.406l.023.977a2.251,2.251,0,0,1,2.016-1.133,1.477,1.477,0,0,1,.641.109Zm5.164,2.531a11.99,11.99,0,0,1,.477-3.406A8.989,8.989,0,0,1,72.2,6.105a5.251,5.251,0,0,1,2.016-1.73l.438,1.219A5.438,5.438,0,0,0,72.871,8.2a12.082,12.082,0,0,0-.641,4.125v.242a12.313,12.313,0,0,0,.633,4.141,5.544,5.544,0,0,0,1.789,2.648l-.437,1.2a5.253,5.253,0,0,1-1.98-1.684,8.838,8.838,0,0,1-1.4-2.785,11.918,11.918,0,0,1-.516-3.3ZM75.98,17V5.625h3.5a5.315,5.315,0,0,1,2.684.676,4.712,4.712,0,0,1,1.848,1.922,5.928,5.928,0,0,1,.664,2.832v.523a5.945,5.945,0,0,1-.652,2.82,4.672,4.672,0,0,1-1.84,1.914A5.355,5.355,0,0,1,79.5,17Zm2.344-9.477v7.594h1.133a2.545,2.545,0,0,0,2.1-.9,4.06,4.06,0,0,0,.742-2.57v-.6a4.124,4.124,0,0,0-.719-2.629,2.537,2.537,0,0,0-2.1-.895Zm14.9,4.547h-4.5v3.047H94V17H86.379V5.625h7.609v1.9H88.723v2.711h4.5Zm5.9.484a11.377,11.377,0,0,1-.508,3.4,9.225,9.225,0,0,1-1.461,2.883,5.263,5.263,0,0,1-2.039,1.719l-.437-1.2a5.494,5.494,0,0,0,1.75-2.578,11.939,11.939,0,0,0,.664-4.008v-.414a12.209,12.209,0,0,0-.637-4.117A5.727,5.727,0,0,0,94.676,5.57l.438-1.2a5.265,5.265,0,0,1,2,1.672,9.106,9.106,0,0,1,1.461,2.82,11.3,11.3,0,0,1,.543,3.336Z" transform="translate(747.5 3969.836)" fill="#12263f"/>
            <path id="Trazado_134018" data-name="Trazado 134018" d="M6.922,12.547V17h-1.5V5.625h4.2a4.215,4.215,0,0,1,2.926.953A3.231,3.231,0,0,1,13.6,9.1a3.189,3.189,0,0,1-1.035,2.551,4.4,4.4,0,0,1-2.965.895Zm0-1.227h2.7a2.7,2.7,0,0,0,1.844-.566A2.069,2.069,0,0,0,12.1,9.117a2.138,2.138,0,0,0-.641-1.625A2.528,2.528,0,0,0,9.7,6.859H6.922ZM19.375,9.844a4.331,4.331,0,0,0-.711-.055A1.9,1.9,0,0,0,16.734,11v6H15.289V8.547H16.7l.023.977a2.251,2.251,0,0,1,2.016-1.133,1.477,1.477,0,0,1,.641.109Zm.789,2.852a4.993,4.993,0,0,1,.488-2.234A3.643,3.643,0,0,1,22.012,8.93,3.7,3.7,0,0,1,24,8.391a3.565,3.565,0,0,1,2.793,1.2,4.6,4.6,0,0,1,1.066,3.18v.1a5.036,5.036,0,0,1-.473,2.215,3.589,3.589,0,0,1-1.352,1.527,3.743,3.743,0,0,1-2.02.547,3.556,3.556,0,0,1-2.785-1.2A4.575,4.575,0,0,1,20.164,12.8Zm1.453.172a3.616,3.616,0,0,0,.652,2.258,2.211,2.211,0,0,0,3.5-.012,3.955,3.955,0,0,0,.648-2.418,3.61,3.61,0,0,0-.66-2.254A2.1,2.1,0,0,0,24,9.578a2.075,2.075,0,0,0-1.727.852A3.925,3.925,0,0,0,21.617,12.867ZM31.633,6.5V8.547h1.578V9.664H31.633v5.242a1.171,1.171,0,0,0,.211.762.888.888,0,0,0,.719.254,3.5,3.5,0,0,0,.688-.094V17a4.19,4.19,0,0,1-1.109.156,1.8,1.8,0,0,1-1.461-.586,2.517,2.517,0,0,1-.492-1.664V9.664H28.648V8.547h1.539V6.5Zm6.773,10.656a3.693,3.693,0,0,1-2.8-1.129,4.19,4.19,0,0,1-1.078-3.02v-.266a5.073,5.073,0,0,1,.48-2.246,3.748,3.748,0,0,1,1.344-1.547,3.378,3.378,0,0,1,1.871-.559,3.166,3.166,0,0,1,2.563,1.086,4.7,4.7,0,0,1,.914,3.109v.6H35.977a3,3,0,0,0,.73,2.02,2.3,2.3,0,0,0,1.777.77,2.517,2.517,0,0,0,1.3-.312,3.259,3.259,0,0,0,.93-.828l.883.688A3.55,3.55,0,0,1,38.406,17.156Zm-.18-7.578a1.928,1.928,0,0,0-1.469.637A3.1,3.1,0,0,0,36.023,12h4.234v-.109a2.753,2.753,0,0,0-.594-1.707A1.815,1.815,0,0,0,38.227,9.578Zm4.8,3.125a4.968,4.968,0,0,1,.914-3.145,3.151,3.151,0,0,1,4.836-.074l.07-.937h1.32V16.8a3.439,3.439,0,0,1-.973,2.586,3.589,3.589,0,0,1-2.613.945,4.348,4.348,0,0,1-1.789-.391,3.08,3.08,0,0,1-1.336-1.07l.75-.867a2.826,2.826,0,0,0,2.273,1.148,2.214,2.214,0,0,0,1.645-.594,2.269,2.269,0,0,0,.59-1.672v-.727a2.971,2.971,0,0,1-2.367,1,2.887,2.887,0,0,1-2.4-1.2A5.224,5.224,0,0,1,43.031,12.7Zm1.453.164a3.79,3.79,0,0,0,.586,2.246,1.9,1.9,0,0,0,1.641.816,2.117,2.117,0,0,0,2.008-1.242V10.828a2.142,2.142,0,0,0-1.992-1.211,1.921,1.921,0,0,0-1.648.82A4.128,4.128,0,0,0,44.484,12.867Zm11.375,4.289a3.693,3.693,0,0,1-2.8-1.129,4.19,4.19,0,0,1-1.078-3.02v-.266a5.073,5.073,0,0,1,.48-2.246,3.748,3.748,0,0,1,1.344-1.547,3.378,3.378,0,0,1,1.871-.559,3.166,3.166,0,0,1,2.563,1.086,4.7,4.7,0,0,1,.914,3.109v.6H53.43a3,3,0,0,0,.73,2.02,2.3,2.3,0,0,0,1.777.77,2.517,2.517,0,0,0,1.3-.312,3.259,3.259,0,0,0,.93-.828l.883.688A3.55,3.55,0,0,1,55.859,17.156Zm-.18-7.578a1.928,1.928,0,0,0-1.469.637A3.1,3.1,0,0,0,53.477,12h4.234v-.109a2.753,2.753,0,0,0-.594-1.707A1.815,1.815,0,0,0,55.68,9.578Zm9.234.266a4.331,4.331,0,0,0-.711-.055A1.9,1.9,0,0,0,62.273,11v6H60.828V8.547h1.406l.023.977a2.251,2.251,0,0,1,2.016-1.133,1.477,1.477,0,0,1,.641.109Zm5.164,2.531a11.99,11.99,0,0,1,.477-3.406,8.989,8.989,0,0,1,1.406-2.863,5.251,5.251,0,0,1,2.016-1.73l.438,1.219A5.438,5.438,0,0,0,72.633,8.2a12.082,12.082,0,0,0-.641,4.125v.242a12.313,12.313,0,0,0,.633,4.141,5.544,5.544,0,0,0,1.789,2.648l-.437,1.2A5.253,5.253,0,0,1,72,18.871a8.838,8.838,0,0,1-1.4-2.785,11.918,11.918,0,0,1-.516-3.3Zm8.008.617V17H75.742V5.625H80.18a5.134,5.134,0,0,1,2.254.469,3.454,3.454,0,0,1,1.5,1.332,3.714,3.714,0,0,1,.523,1.965,3.266,3.266,0,0,1-1.145,2.637,4.767,4.767,0,0,1-3.168.965Zm0-1.9H80.18a2.059,2.059,0,0,0,1.418-.437,1.591,1.591,0,0,0,.488-1.25,1.876,1.876,0,0,0-.492-1.352,1.839,1.839,0,0,0-1.359-.531H78.086Zm12.188,1.742H88.406V17H86.063V5.625h4.227a4.778,4.778,0,0,1,3.109.9,3.1,3.1,0,0,1,1.094,2.539,3.5,3.5,0,0,1-.5,1.941,3.437,3.437,0,0,1-1.527,1.238l2.461,4.648V17H92.406Zm-1.867-1.9H90.3a1.936,1.936,0,0,0,1.367-.449,1.606,1.606,0,0,0,.484-1.238,1.719,1.719,0,0,0-.457-1.266,1.9,1.9,0,0,0-1.4-.461H88.406Zm11.609,1.617a11.377,11.377,0,0,1-.508,3.4,9.225,9.225,0,0,1-1.461,2.883,5.263,5.263,0,0,1-2.039,1.719l-.437-1.2a5.494,5.494,0,0,0,1.75-2.578,11.939,11.939,0,0,0,.664-4.008v-.414a12.209,12.209,0,0,0-.637-4.117A5.727,5.727,0,0,0,95.57,5.57l.438-1.2a5.265,5.265,0,0,1,2,1.672,9.106,9.106,0,0,1,1.461,2.82,11.3,11.3,0,0,1,.543,3.336Z" transform="translate(615.5 3832.087)" fill="#12263f"/>
            <path id="Trazado_134020" data-name="Trazado 134020" d="M6.648,12.4H3.977V17H2.469V5.625H6.234A4.457,4.457,0,0,1,9.191,6.5a3.148,3.148,0,0,1,1.035,2.547A3.062,3.062,0,0,1,9.652,10.9a3.428,3.428,0,0,1-1.6,1.18l2.672,4.828V17H9.117ZM3.977,11.172h2.3a2.6,2.6,0,0,0,1.777-.578,1.953,1.953,0,0,0,.66-1.547A2.057,2.057,0,0,0,8.09,7.43a2.666,2.666,0,0,0-1.816-.57h-2.3Zm11.633,5.984a3.693,3.693,0,0,1-2.8-1.129,4.19,4.19,0,0,1-1.078-3.02v-.266a5.073,5.073,0,0,1,.48-2.246,3.748,3.748,0,0,1,1.344-1.547,3.378,3.378,0,0,1,1.871-.559,3.166,3.166,0,0,1,2.563,1.086,4.7,4.7,0,0,1,.914,3.109v.6H13.18a3,3,0,0,0,.73,2.02,2.3,2.3,0,0,0,1.777.77,2.517,2.517,0,0,0,1.3-.312,3.259,3.259,0,0,0,.93-.828l.883.688A3.55,3.55,0,0,1,15.609,17.156Zm-.18-7.578a1.928,1.928,0,0,0-1.469.637A3.1,3.1,0,0,0,13.227,12h4.234v-.109a2.753,2.753,0,0,0-.594-1.707A1.815,1.815,0,0,0,15.43,9.578Zm10.07,5.18a1.064,1.064,0,0,0-.441-.91,4.249,4.249,0,0,0-1.539-.559,7.277,7.277,0,0,1-1.742-.562,2.479,2.479,0,0,1-.953-.781,1.869,1.869,0,0,1-.309-1.078,2.193,2.193,0,0,1,.879-1.758,3.432,3.432,0,0,1,2.246-.719,3.532,3.532,0,0,1,2.332.742,2.357,2.357,0,0,1,.895,1.9H25.414a1.3,1.3,0,0,0-.5-1.023,1.888,1.888,0,0,0-1.27-.43,1.976,1.976,0,0,0-1.234.344,1.082,1.082,0,0,0-.445.9.877.877,0,0,0,.414.789,5.1,5.1,0,0,0,1.5.508,7.8,7.8,0,0,1,1.754.578,2.558,2.558,0,0,1,1,.809,1.988,1.988,0,0,1,.324,1.152,2.163,2.163,0,0,1-.906,1.816,3.8,3.8,0,0,1-2.352.684,4.257,4.257,0,0,1-1.8-.359,2.922,2.922,0,0,1-1.223-1,2.42,2.42,0,0,1-.441-1.395h1.445a1.5,1.5,0,0,0,.582,1.152,2.258,2.258,0,0,0,1.434.426A2.331,2.331,0,0,0,25,15.645,1.02,1.02,0,0,0,25.5,14.758Zm10.469-1.891a5.062,5.062,0,0,1-.883,3.109,2.829,2.829,0,0,1-2.391,1.18,3.1,3.1,0,0,1-2.422-.977v4.07H28.828V8.547h1.32l.07.938a2.977,2.977,0,0,1,2.453-1.094,2.882,2.882,0,0,1,2.41,1.148,5.117,5.117,0,0,1,.887,3.2ZM34.523,12.7a3.735,3.735,0,0,0-.609-2.258,1.963,1.963,0,0,0-1.672-.828,2.125,2.125,0,0,0-1.969,1.164V14.82a2.129,2.129,0,0,0,1.984,1.156,1.954,1.954,0,0,0,1.652-.824A4.077,4.077,0,0,0,34.523,12.7Zm2.9-.008a4.993,4.993,0,0,1,.488-2.234A3.643,3.643,0,0,1,39.27,8.93a3.7,3.7,0,0,1,1.988-.539,3.565,3.565,0,0,1,2.793,1.2,4.6,4.6,0,0,1,1.066,3.18v.1a5.036,5.036,0,0,1-.473,2.215,3.589,3.589,0,0,1-1.352,1.527,3.743,3.743,0,0,1-2.02.547,3.556,3.556,0,0,1-2.785-1.2A4.575,4.575,0,0,1,37.422,12.8Zm1.453.172a3.616,3.616,0,0,0,.652,2.258,2.211,2.211,0,0,0,3.5-.012,3.955,3.955,0,0,0,.648-2.418,3.61,3.61,0,0,0-.66-2.254,2.1,2.1,0,0,0-1.754-.863,2.075,2.075,0,0,0-1.727.852A3.925,3.925,0,0,0,38.875,12.867ZM48.3,8.547l.047,1.063a3.08,3.08,0,0,1,2.531-1.219q2.68,0,2.7,3.023V17H52.133V11.406a1.946,1.946,0,0,0-.418-1.352,1.675,1.675,0,0,0-1.277-.437,2.086,2.086,0,0,0-1.234.375,2.546,2.546,0,0,0-.828.984V17H46.93V8.547ZM55.406,12.7a4.952,4.952,0,0,1,.922-3.129,3.137,3.137,0,0,1,4.766-.168V5h1.445V17H61.211l-.07-.906a2.943,2.943,0,0,1-2.414,1.063,2.887,2.887,0,0,1-2.395-1.2,5.008,5.008,0,0,1-.926-3.141Zm1.445.164a3.749,3.749,0,0,0,.594,2.25,1.92,1.92,0,0,0,1.641.813A2.108,2.108,0,0,0,61.094,14.7V10.813a2.125,2.125,0,0,0-1.992-1.2,1.929,1.929,0,0,0-1.656.82A4.128,4.128,0,0,0,56.852,12.867Zm11.438,4.289a3.693,3.693,0,0,1-2.8-1.129,4.19,4.19,0,0,1-1.078-3.02v-.266a5.073,5.073,0,0,1,.48-2.246,3.748,3.748,0,0,1,1.344-1.547,3.378,3.378,0,0,1,1.871-.559,3.166,3.166,0,0,1,2.563,1.086,4.7,4.7,0,0,1,.914,3.109v.6H65.859a3,3,0,0,0,.73,2.02,2.3,2.3,0,0,0,1.777.77,2.517,2.517,0,0,0,1.3-.312,3.259,3.259,0,0,0,.93-.828l.883.688A3.55,3.55,0,0,1,68.289,17.156Zm-.18-7.578a1.928,1.928,0,0,0-1.469.637A3.1,3.1,0,0,0,65.906,12h4.234v-.109a2.753,2.753,0,0,0-.594-1.707A1.815,1.815,0,0,0,68.109,9.578Zm9.234.266a4.331,4.331,0,0,0-.711-.055A1.9,1.9,0,0,0,74.7,11v6H73.258V8.547h1.406l.023.977A2.251,2.251,0,0,1,76.7,8.391a1.477,1.477,0,0,1,.641.109Zm5.164,2.531a11.99,11.99,0,0,1,.477-3.406,8.989,8.989,0,0,1,1.406-2.863,5.251,5.251,0,0,1,2.016-1.73l.438,1.219A5.438,5.438,0,0,0,85.063,8.2a12.082,12.082,0,0,0-.641,4.125v.242a12.313,12.313,0,0,0,.633,4.141,5.544,5.544,0,0,0,1.789,2.648l-.437,1.2a5.253,5.253,0,0,1-1.98-1.684,8.838,8.838,0,0,1-1.4-2.785,11.918,11.918,0,0,1-.516-3.3Zm9.875.461H90.516V17H88.172V5.625H92.4a4.778,4.778,0,0,1,3.109.9A3.1,3.1,0,0,1,96.6,9.063,3.5,3.5,0,0,1,96.1,11a3.437,3.437,0,0,1-1.527,1.238l2.461,4.648V17H94.516Zm-1.867-1.9h1.891a1.936,1.936,0,0,0,1.367-.449,1.606,1.606,0,0,0,.484-1.238A1.719,1.719,0,0,0,93.8,7.984a1.9,1.9,0,0,0-1.4-.461H90.516Zm13.766,3.078a1.2,1.2,0,0,0-.469-1.02,6.148,6.148,0,0,0-1.687-.75,11.963,11.963,0,0,1-1.93-.777,3.153,3.153,0,0,1-1.937-2.82A2.747,2.747,0,0,1,98.777,7a3.389,3.389,0,0,1,1.492-1.129,5.616,5.616,0,0,1,2.184-.406,5.112,5.112,0,0,1,2.172.441,3.458,3.458,0,0,1,1.48,1.246,3.261,3.261,0,0,1,.527,1.828h-2.344A1.534,1.534,0,0,0,103.8,7.77a2.023,2.023,0,0,0-1.383-.434,2.162,2.162,0,0,0-1.336.363,1.146,1.146,0,0,0-.477.957,1.1,1.1,0,0,0,.559.93,6.311,6.311,0,0,0,1.645.7,7.106,7.106,0,0,1,2.914,1.492A2.972,2.972,0,0,1,106.633,14a2.737,2.737,0,0,1-1.117,2.316,4.891,4.891,0,0,1-3.008.84,5.808,5.808,0,0,1-2.391-.48,3.783,3.783,0,0,1-1.645-1.316,3.371,3.371,0,0,1-.566-1.937h2.352q0,1.883,2.25,1.883a2.189,2.189,0,0,0,1.3-.34A1.106,1.106,0,0,0,104.281,14.016Zm7.68-1.461a11.377,11.377,0,0,1-.508,3.4,9.225,9.225,0,0,1-1.461,2.883,5.263,5.263,0,0,1-2.039,1.719l-.437-1.2a5.494,5.494,0,0,0,1.75-2.578,11.939,11.939,0,0,0,.664-4.008v-.414a12.209,12.209,0,0,0-.637-4.117,5.727,5.727,0,0,0-1.777-2.672l.438-1.2a5.265,5.265,0,0,1,2,1.672,9.106,9.106,0,0,1,1.461,2.82,11.3,11.3,0,0,1,.543,3.336Z" transform="translate(877.5 3832.087)" fill="#12263f"/>
            <path id="Trazado_134024" data-name="Trazado 134024" d="M5.492,12.4H2.82V17H1.313V5.625H5.078A4.457,4.457,0,0,1,8.035,6.5,3.148,3.148,0,0,1,9.07,9.047,3.062,3.062,0,0,1,8.5,10.9a3.428,3.428,0,0,1-1.6,1.18L9.57,16.906V17H7.961ZM2.82,11.172h2.3A2.6,2.6,0,0,0,6.9,10.594a1.953,1.953,0,0,0,.66-1.547A2.057,2.057,0,0,0,6.934,7.43a2.666,2.666,0,0,0-1.816-.57H2.82Zm11.633,5.984a3.693,3.693,0,0,1-2.8-1.129,4.19,4.19,0,0,1-1.078-3.02v-.266a5.073,5.073,0,0,1,.48-2.246A3.748,3.748,0,0,1,12.4,8.949a3.378,3.378,0,0,1,1.871-.559,3.166,3.166,0,0,1,2.563,1.086,4.7,4.7,0,0,1,.914,3.109v.6H12.023a3,3,0,0,0,.73,2.02,2.3,2.3,0,0,0,1.777.77,2.517,2.517,0,0,0,1.3-.312,3.259,3.259,0,0,0,.93-.828l.883.688A3.55,3.55,0,0,1,14.453,17.156Zm-.18-7.578a1.928,1.928,0,0,0-1.469.637A3.1,3.1,0,0,0,12.07,12H16.3v-.109a2.753,2.753,0,0,0-.594-1.707A1.815,1.815,0,0,0,14.273,9.578Zm8.539,6.4a2.082,2.082,0,0,0,1.352-.469,1.649,1.649,0,0,0,.641-1.172h1.367a2.621,2.621,0,0,1-.5,1.383,3.293,3.293,0,0,1-1.23,1.047,3.55,3.55,0,0,1-1.629.391A3.482,3.482,0,0,1,20.066,16a4.59,4.59,0,0,1-1.02-3.152v-.242a5.089,5.089,0,0,1,.453-2.2,3.451,3.451,0,0,1,1.3-1.492,3.7,3.7,0,0,1,2-.531,3.39,3.39,0,0,1,2.363.852,3.043,3.043,0,0,1,1,2.211H24.8a1.992,1.992,0,0,0-.621-1.348A1.932,1.932,0,0,0,22.8,9.578a2.023,2.023,0,0,0-1.707.793,3.724,3.724,0,0,0-.605,2.293v.273a3.65,3.65,0,0,0,.6,2.25A2.033,2.033,0,0,0,22.813,15.977Zm10.2.188a3.07,3.07,0,0,1-2.477.992,2.628,2.628,0,0,1-2.059-.785,3.4,3.4,0,0,1-.715-2.324v-5.5h1.445v5.461q0,1.922,1.563,1.922a2.163,2.163,0,0,0,2.2-1.234V8.547h1.445V17H33.047Zm10.742-3.3a5.062,5.062,0,0,1-.883,3.109,2.829,2.829,0,0,1-2.391,1.18,3.1,3.1,0,0,1-2.422-.977v4.07H36.617V8.547h1.32l.07.938a2.977,2.977,0,0,1,2.453-1.094,2.882,2.882,0,0,1,2.41,1.148,5.117,5.117,0,0,1,.887,3.2ZM42.313,12.7a3.735,3.735,0,0,0-.609-2.258,1.963,1.963,0,0,0-1.672-.828,2.125,2.125,0,0,0-1.969,1.164V14.82a2.129,2.129,0,0,0,1.984,1.156,1.954,1.954,0,0,0,1.652-.824A4.077,4.077,0,0,0,42.313,12.7ZM49.1,17.156a3.693,3.693,0,0,1-2.8-1.129,4.19,4.19,0,0,1-1.078-3.02v-.266a5.073,5.073,0,0,1,.48-2.246,3.748,3.748,0,0,1,1.344-1.547,3.378,3.378,0,0,1,1.871-.559,3.166,3.166,0,0,1,2.563,1.086,4.7,4.7,0,0,1,.914,3.109v.6H46.672a3,3,0,0,0,.73,2.02,2.3,2.3,0,0,0,1.777.77,2.517,2.517,0,0,0,1.3-.312,3.259,3.259,0,0,0,.93-.828l.883.688A3.55,3.55,0,0,1,49.1,17.156Zm-.18-7.578a1.928,1.928,0,0,0-1.469.637A3.1,3.1,0,0,0,46.719,12h4.234v-.109a2.753,2.753,0,0,0-.594-1.707A1.815,1.815,0,0,0,48.922,9.578Zm9.234.266a4.331,4.331,0,0,0-.711-.055A1.9,1.9,0,0,0,55.516,11v6H54.07V8.547h1.406l.023.977a2.251,2.251,0,0,1,2.016-1.133,1.477,1.477,0,0,1,.641.109ZM64.391,17a3.036,3.036,0,0,1-.2-.891,3.225,3.225,0,0,1-2.406,1.047,2.984,2.984,0,0,1-2.051-.707,2.287,2.287,0,0,1-.8-1.793,2.39,2.39,0,0,1,1-2.051,4.733,4.733,0,0,1,2.824-.73h1.406v-.664A1.623,1.623,0,0,0,63.711,10a1.821,1.821,0,0,0-1.336-.449,2.107,2.107,0,0,0-1.3.391,1.151,1.151,0,0,0-.523.945H59.1a2,2,0,0,1,.449-1.223,3.066,3.066,0,0,1,1.219-.934,4.1,4.1,0,0,1,1.691-.344,3.342,3.342,0,0,1,2.289.73,2.635,2.635,0,0,1,.859,2.012v3.891a4.757,4.757,0,0,0,.3,1.852V17Zm-2.4-1.1a2.54,2.54,0,0,0,1.289-.352,2.127,2.127,0,0,0,.883-.914V12.9H63.031q-2.656,0-2.656,1.555a1.316,1.316,0,0,0,.453,1.063A1.742,1.742,0,0,0,61.992,15.9Zm9.969-6.055a4.331,4.331,0,0,0-.711-.055A1.9,1.9,0,0,0,69.32,11v6H67.875V8.547h1.406l.023.977A2.251,2.251,0,0,1,71.32,8.391a1.477,1.477,0,0,1,.641.109ZM77.2,12.383a12.079,12.079,0,0,1,.473-3.391,9.849,9.849,0,0,1,1.41-2.953,6,6,0,0,1,1.945-1.875l.3.953a6.222,6.222,0,0,0-1.871,2.672,11.583,11.583,0,0,0-.8,4.023l-.008.664a11.643,11.643,0,0,0,1.1,5.234,6.252,6.252,0,0,0,1.578,2.078l-.3.883a6.192,6.192,0,0,1-1.984-1.937A10.859,10.859,0,0,1,77.2,12.383Zm9.656.453H84.984V17H82.641V5.625h4.227a4.778,4.778,0,0,1,3.109.9A3.1,3.1,0,0,1,91.07,9.063a3.5,3.5,0,0,1-.5,1.941,3.437,3.437,0,0,1-1.527,1.238L91.5,16.891V17H88.984Zm-1.867-1.9h1.891a1.936,1.936,0,0,0,1.367-.449,1.606,1.606,0,0,0,.484-1.238,1.719,1.719,0,0,0-.457-1.266,1.9,1.9,0,0,0-1.4-.461H84.984Zm16.8,2.273a4.025,4.025,0,0,1-1.355,2.891A4.76,4.76,0,0,1,97.2,17.156a4.28,4.28,0,0,1-3.441-1.473,6.038,6.038,0,0,1-1.254-4.043v-.7a6.819,6.819,0,0,1,.578-2.891,4.332,4.332,0,0,1,1.652-1.918,5.164,5.164,0,0,1,5.668.387A4.326,4.326,0,0,1,101.8,9.484H99.453a2.376,2.376,0,0,0-.613-1.6,2.271,2.271,0,0,0-1.605-.5,1.991,1.991,0,0,0-1.754.84,4.707,4.707,0,0,0-.6,2.605V11.7a5.038,5.038,0,0,0,.559,2.7,1.954,1.954,0,0,0,1.762.852,2.314,2.314,0,0,0,1.621-.5,2.241,2.241,0,0,0,.613-1.535Zm5.078-.656a11.377,11.377,0,0,1-.508,3.4,9.225,9.225,0,0,1-1.461,2.883,5.263,5.263,0,0,1-2.039,1.719l-.437-1.2a5.494,5.494,0,0,0,1.75-2.578,11.939,11.939,0,0,0,.664-4.008v-.414a12.209,12.209,0,0,0-.637-4.117,5.727,5.727,0,0,0-1.777-2.672l.438-1.2a5.265,5.265,0,0,1,2,1.672,9.106,9.106,0,0,1,1.461,2.82,11.3,11.3,0,0,1,.543,3.336Z" transform="translate(1012 3969.836)" fill="#12263f"/>
          </g>
          <line id="Línea_312" data-name="Línea 312" y1="19" transform="translate(535.5 4062.408)" fill="none" stroke="#816ae8" stroke-width="2" stroke-dasharray="2 2"/>
          <line id="Línea_314" data-name="Línea 314" y1="19" transform="translate(800 4062.408)" fill="none" stroke="#816ae8" stroke-width="2" stroke-dasharray="2 2"/>
          <line id="Línea_315" data-name="Línea 315" y1="19" transform="translate(1069 4062.408)" fill="none" stroke="#816ae8" stroke-width="2" stroke-dasharray="2 2"/>
          <line id="Línea_313" data-name="Línea 313" y1="19" transform="translate(666.5 3972.408)" fill="none" stroke="#816ae8" stroke-width="2" stroke-dasharray="2 2"/>
          <line id="Línea_316" data-name="Línea 316" y1="19" transform="translate(932.5 3972.408)" fill="none" stroke="#816ae8" stroke-width="2" stroke-dasharray="2 2"/>
        </g>
      </g>
    </g>
  </g>
</svg>
