<svg xmlns="http://www.w3.org/2000/svg" width="65.826" height="67.677" viewBox="0 0 65.826 67.677">
  <g id="Grupo_86280" data-name="Grupo 86280" transform="translate(-2137.334 -185.144)">
    <path id="Trazado_128786" data-name="Trazado 128786" d="M2137.334,213.936q0-8.821,0-17.643c0-1.836.869-2.7,2.711-2.7,5,0,10-.009,15,.013.535,0,.651-.153.644-.66-.029-1.96-.016-3.92-.01-5.881,0-1.316.621-1.921,1.953-1.921q12.623,0,25.246,0c1.326,0,1.928.606,1.932,1.943.005,1.938.032,3.877-.016,5.815-.015.616.185.706.737.7,4.979-.021,9.957-.013,14.936-.012a2.354,2.354,0,0,1,2.69,2.656q0,17.643,0,35.286a3.009,3.009,0,0,1-3.316,3.312q-11,0-22.008-.013c-.562,0-.782.1-.721.706a15.062,15.062,0,0,1,.01,1.849.98.98,0,0,1-.99,1.077,1,1,0,0,1-.987-1.09c-.015-.661-.026-1.323,0-1.982.019-.408-.068-.562-.527-.558-2.93.023-5.86.017-8.79.005-.345,0-.5.049-.5.452q.026,4.46,0,8.92c0,.4.135.461.491.459q4.428-.02,8.855,0c.388,0,.479-.126.465-.485-.026-.66-.02-1.322,0-1.982a.992.992,0,0,1,1-1.076.981.981,0,0,1,.978,1.089c.012.638.033,1.279-.007,1.915-.028.447.129.542.552.54q4.13-.028,8.261-.007a3.572,3.572,0,0,1,3.758,2.608,12.88,12.88,0,0,1,.1,4.334,1.522,1.522,0,0,1-1.413,1.2,5.7,5.7,0,0,1-.594.012h-35.027c-1.56,0-2.119-.55-2.121-2.093,0-.881-.025-1.763.022-2.642a3.545,3.545,0,0,1,3.151-3.359,7.991,7.991,0,0,1,.988-.056c2.666,0,5.331-.013,8,.008.449,0,.593-.1.589-.571q-.035-4.328,0-8.656c0-.492-.113-.615-.61-.614q-11.136.027-22.272.011a2.973,2.973,0,0,1-3.112-2.478,5.169,5.169,0,0,1-.047-.921Q2137.332,222.691,2137.334,213.936Zm32.9,18.928h29.543c1.1,0,1.4-.3,1.4-1.414,0-.595-.038-1.192.011-1.783s-.111-.765-.736-.764q-21.414.031-42.827.015c-.22,0-.442.009-.661-.008a.972.972,0,0,1-.181-1.909,3.512,3.512,0,0,1,.851-.064q21.446,0,42.893,0c.4,0,.667.033.666-.553q-.034-15.066-.008-30.132c0-.512-.147-.689-.676-.687q-7.567.025-15.135,0c-.48,0-.584.145-.57.594.032,1.034.022,2.07,0,3.105a.932.932,0,0,1-.925,1,.988.988,0,0,1-1.042-.966,4.944,4.944,0,0,1-.008-.528c0-3.656-.012-7.313.013-10.969,0-.536-.105-.688-.669-.686q-11.929.032-23.859,0c-.571,0-.665.162-.664.69q.025,16.586,0,33.172c0,.547.126.681.677.68q11.9-.03,23.793,0c.554,0,.729-.094.726-.7-.029-5.529-.017-11.057-.016-16.586a2.014,2.014,0,0,1,.078-.783.925.925,0,0,1,1.034-.637.892.892,0,0,1,.856.852,4.965,4.965,0,0,1,.014.594q0,8.557,0,17.115c0,1.6-.525,2.122-2.147,2.122h-24.784c-1.714,0-2.2-.488-2.2-2.2q0-12.588.013-25.177c0-.535-.107-.7-.673-.694q-7.435.037-14.87,0c-.679,0-.847.2-.845.858q.029,14.934,0,29.868c0,.584.182.662.7.659,3.943-.022,7.887-.012,11.83-.011a3.512,3.512,0,0,1,.723.037.919.919,0,0,1,.812,1.033.9.9,0,0,1-.942.907c-.2.011-.4.005-.594.005-3.988,0-7.975.006-11.963-.008-.411,0-.591.076-.561.534.041.636.01,1.277.01,1.916,0,1.245.258,1.5,1.506,1.5Zm-.056,17.971q7.9,0,15.793,0c.613,0,1.437.208,1.784-.1.4-.358.113-1.2.119-1.825.017-1.724-.52-2.256-2.229-2.256q-15.4,0-30.794,0a5.461,5.461,0,0,0-.79.042,1.556,1.556,0,0,0-1.431,1.547c-.035.593.026,1.192-.029,1.782-.059.629.091.837.792.833C2158.988,250.82,2164.583,250.836,2170.178,250.836Z" transform="translate(0 0)" fill="#583ae2"/>
    <path id="Trazado_128787" data-name="Trazado 128787" d="M2232.893,228.076a7.6,7.6,0,1,1,7.611,7.606A7.6,7.6,0,0,1,2232.893,228.076Zm10.15-.987c.771,0,1.546-.052,2.311.015.721.064.661-.231.5-.737a5.615,5.615,0,1,0-6.858,7.115c.425.113.525.043.519-.394-.022-1.585-.015-3.171-.006-4.756.005-.916.328-1.234,1.226-1.241C2241.5,227.084,2242.272,227.089,2243.043,227.088Zm2.938,1.983c-1.388,0-2.769.007-4.15-.005-.317,0-.35.156-.349.408.007,1.252.009,2.5,0,3.756,0,.3.07.358.379.292A5.551,5.551,0,0,0,2245.981,229.071Z" transform="translate(-70.248 -25.975)" fill="#583ae2"/>
    <path id="Trazado_128788" data-name="Trazado 128788" d="M2331.835,244.632c0-.814-.017-1.629,0-2.443a1.613,1.613,0,0,1,1.716-1.683q2.41-.021,4.82,0a1.6,1.6,0,0,1,1.744,1.658q.058,2.507,0,5.016a1.585,1.585,0,0,1-1.648,1.626q-2.475.052-4.951,0a1.621,1.621,0,0,1-1.677-1.732C2331.821,246.261,2331.835,245.446,2331.835,244.632Zm4.048,2.2c.684,0,1.235-.021,1.783.007.368.019.5-.091.493-.474-.022-1.144-.018-2.288,0-3.433,0-.328-.068-.466-.432-.459-1.166.022-2.333.024-3.5,0-.381-.008-.426.152-.416.465.019.572,0,1.144.007,1.716.009.7-.242,1.646.113,2.039C2334.339,247.146,2335.3,246.775,2335.884,246.836Z" transform="translate(-142.98 -40.691)" fill="#583ae2"/>
    <path id="Trazado_128789" data-name="Trazado 128789" d="M2335.937,287.807c-.814,0-1.629.014-2.443,0a1.582,1.582,0,0,1-1.651-1.607q-.041-2.541,0-5.083a1.561,1.561,0,0,1,1.593-1.6q2.54-.062,5.083,0a1.56,1.56,0,0,1,1.591,1.61c.041,1.693.045,3.389,0,5.082a1.6,1.6,0,0,1-1.728,1.6h-2.443Zm-2.124-4.168c0,.594.016,1.189-.006,1.782-.012.313.079.416.4.411,1.188-.018,2.377-.014,3.565,0,.285,0,.382-.089.379-.376q-.018-1.782,0-3.565c0-.3-.081-.426-.409-.421-1.167.017-2.333.02-3.5,0-.361-.007-.45.124-.437.456C2333.829,282.493,2333.813,283.066,2333.813,283.638Z" transform="translate(-142.975 -69.349)" fill="#583ae2"/>
    <path id="Trazado_128790" data-name="Trazado 128790" d="M2240.453,305.415q-3.139,0-6.278,0c-.8,0-1.228-.334-1.249-.953-.021-.639.439-1.027,1.249-1.028q6.345,0,12.689,0c.809,0,1.27.389,1.249,1.028-.021.619-.45.952-1.249.953Q2243.658,305.419,2240.453,305.415Z" transform="translate(-70.272 -86.958)" fill="#583ae2"/>
    <path id="Trazado_128791" data-name="Trazado 128791" d="M2240.518,289.377q3.172,0,6.345,0c.8,0,1.229.33,1.249.949.02.636-.445,1.031-1.249,1.032q-6.345.005-12.689,0c-.8,0-1.269-.4-1.249-1.032.02-.617.447-.948,1.249-.949Q2237.345,289.373,2240.518,289.377Z" transform="translate(-70.271 -76.625)" fill="#583ae2"/>
    <path id="Trazado_128792" data-name="Trazado 128792" d="M2162.972,282.594c-1.144,0-2.287.007-3.43,0-.718-.006-1.165-.386-1.176-.966a1.029,1.029,0,0,1,1.142-1.013q3.463-.02,6.926,0a1.007,1.007,0,0,1,1.105.978c.01.593-.425.991-1.138,1C2165.259,282.6,2164.116,282.594,2162.972,282.594Z" transform="translate(-15.461 -70.175)" fill="#583ae2"/>
    <path id="Trazado_128793" data-name="Trazado 128793" d="M2162.911,256.548c-1.121,0-2.243.005-3.365,0-.716,0-1.164-.38-1.177-.962-.014-.6.457-1.016,1.2-1.018q3.4-.011,6.8,0c.71,0,1.164.4,1.176.979.013.616-.436,1-1.2,1C2165.2,256.553,2164.054,256.548,2162.911,256.548Z" transform="translate(-15.463 -51.031)" fill="#583ae2"/>
    <path id="Trazado_128794" data-name="Trazado 128794" d="M2162.968,308.882c1.122,0,2.244,0,3.365,0,.76,0,1.218.392,1.208,1s-.468.977-1.236.978q-3.365.006-6.73,0c-.753,0-1.219-.4-1.209-1s.468-.971,1.237-.975C2160.725,308.878,2161.846,308.882,2162.968,308.882Z" transform="translate(-15.461 -90.963)" fill="#583ae2"/>
    <path id="Trazado_128795" data-name="Trazado 128795" d="M2162.939,296.784c-1.165,0-2.331.008-3.5,0a.99.99,0,0,1-1.009-.7.942.942,0,0,1,.315-1.065,1.013,1.013,0,0,1,.74-.217c2.309,0,4.618-.007,6.927,0,.715,0,1.147.407,1.132,1a1.02,1.02,0,0,1-1.112.974C2165.271,296.8,2164.1,296.784,2162.939,296.784Z" transform="translate(-15.469 -80.61)" fill="#583ae2"/>
    <path id="Trazado_128796" data-name="Trazado 128796" d="M2336.025,324.908c-1.011,0-2.021.006-3.032,0-.7-.006-1.094-.343-1.116-.932a.983.983,0,0,1,1.092-1.044q3.032-.023,6.063,0a1.008,1.008,0,0,1,1.125,1.021c-.013.605-.427.952-1.166.957C2338,324.913,2337.014,324.908,2336.025,324.908Z" transform="translate(-143.014 -101.283)" fill="#583ae2"/>
    <path id="Trazado_128797" data-name="Trazado 128797" d="M2251.047,205.587c-.88,0-1.76.008-2.64,0-.706-.008-1.16-.408-1.161-.992s.453-.984,1.159-.987q2.641-.01,5.281,0c.707,0,1.162.4,1.162.985s-.455.985-1.16.994C2252.807,205.595,2251.927,205.587,2251.047,205.587Z" transform="translate(-80.799 -13.569)" fill="#583ae2"/>
    <path id="Trazado_128798" data-name="Trazado 128798" d="M2161.444,324.913c-.681,0-1.361.013-2.042,0a.981.981,0,1,1-.09-1.96c1.448-.031,2.9-.034,4.345.007a.943.943,0,0,1,.9,1.03.965.965,0,0,1-1,.921C2162.85,324.926,2162.147,324.912,2161.444,324.913Z" transform="translate(-15.462 -101.289)" fill="#583ae2"/>
    <path id="Trazado_128799" data-name="Trazado 128799" d="M2161.455,242.491c-.659,0-1.318.011-1.977,0a1.023,1.023,0,0,1-1.114-.969,1.009,1.009,0,0,1,1.13-1.009q1.976-.014,3.953,0a1,1,0,0,1,1.106.96,1.01,1.01,0,0,1-1.123,1.018C2162.772,242.5,2162.113,242.491,2161.455,242.491Z" transform="translate(-15.46 -40.697)" fill="#583ae2"/>
  </g>
</svg>
