<svg xmlns="http://www.w3.org/2000/svg" width="124.152" height="124.15" viewBox="0 0 124.152 124.15">
  <g id="Grupo_86281" data-name="Grupo 86281" transform="translate(-2040.147 -536.025)">
    <path id="Trazado_128800" data-name="Trazado 128800" d="M2043.833,663.586c-.458,1.285-1.168,1.84-2.142,1.675-1-.17-1.536-.965-1.519-2.265a15.221,15.221,0,0,1,10.736-14.176c8.425-2.32,16.9-4.456,25.355-6.664a4.919,4.919,0,0,1,4.163.706,1.263,1.263,0,0,0,1.619-.022,9.636,9.636,0,0,0,4.8-8.435c.044-1.816-.005-3.634.019-5.451a1.409,1.409,0,0,0-.567-1.243q-2.554-2.041-5.054-4.148a.989.989,0,0,0-1.258-.134,5.876,5.876,0,0,1-7.924-2.677,5.816,5.816,0,0,1,2.8-7.965c1.17-.559.586-1.406.748-2.139s-.387-.872-.886-1.049a18.624,18.624,0,0,1-6.676-3.544,14.334,14.334,0,0,1-4.882-10.92,6.9,6.9,0,0,1,1.786-4.758,2.488,2.488,0,0,0,.65-1.844c-.021-4.927-.013-9.854-.009-14.78a27.334,27.334,0,0,1,4.114-14.462c.949-1.556,1.419-1.72,3.183-1.178a2.566,2.566,0,0,1-.064,3.124,23.233,23.233,0,0,0-3.584,12.51q-.031,6.119,0,12.238c.011,2.063-.372,1.672,1.819,1.7.554.008.771-.264.965-.714a3.468,3.468,0,0,1,1.644-2.034c2.155-.783,2.059-2.438,1.937-4.185-.022-.322,0-.646,0-.969.042-8.311,7.742-13.436,15.443-10.266a38.04,38.04,0,0,0,4.921,1.668,1.092,1.092,0,0,0,1.38-.561,5.841,5.841,0,0,1,10-.024,1.076,1.076,0,0,0,1.384.53,42.9,42.9,0,0,0,5.022-1.748,10.8,10.8,0,0,1,12.206,2.655,11.551,11.551,0,0,1,2.886,9.075c-.109,1.623-.046,3.024,1.867,3.532a2.254,2.254,0,0,1,.6.4,9.394,9.394,0,0,1,1.453,2.067c.5,1.091,1.5.5,2.262.555.784.057.472-.711.475-1.115.024-4.282.013-8.564.011-12.846a24.109,24.109,0,0,0-17.525-23.057,21.074,21.074,0,0,0-6.791-1.016c-5.817-.005-11.635,0-17.452,0a23.774,23.774,0,0,0-14.4,4.583,2.441,2.441,0,0,1-3.089.265c-.7-1.71-.582-2.143.953-3.242a27.091,27.091,0,0,1,15.82-5.227c6.019-.058,12.039-.029,18.058-.014,15.791.038,27.981,12.3,28.1,28.278.035,4.807,0,9.614.009,14.422a1.772,1.772,0,0,0,.3,1.371c2.6,2.827,2.421,6.108,1.379,9.436a14.28,14.28,0,0,1-8.606,9.238,11.79,11.79,0,0,1-2.034.757c-1.255.262-1.54,1.006-1.41,2.165a1.132,1.132,0,0,0,.71,1.077,5.908,5.908,0,1,1-5.093,10.658.994.994,0,0,0-1.258.208q-2.468,2.052-4.956,4.079a1.275,1.275,0,0,0-.626,1.086c.067,2.3-.149,4.61.125,6.9a9.522,9.522,0,0,0,4.849,7.271,1.142,1.142,0,0,0,1.414-.055,5.2,5.2,0,0,1,4.4-.689q4.5,1.188,9.012,2.321a2,2,0,0,1,1.767,2.326c-.709,1.317-1.219,1.581-2.623,1.225-2.929-.742-5.854-1.5-8.771-2.287a1.959,1.959,0,0,0-2.366.669,46.045,46.045,0,0,1-3.857,4.491c-.312.252-.629.5-.937.755-8.223,6.889-17.485,8.632-27.628,5.331a27.564,27.564,0,0,1-13.635-10.211,2.159,2.159,0,0,0-2.443-1.1c-8.26,2.165-16.54,4.257-24.773,6.517A11.521,11.521,0,0,0,2043.833,663.586Zm46.278-25.7a13.983,13.983,0,0,1-6.62,8.339c5.172,5.863,11.5,8.872,19.26,8.721a22.835,22.835,0,0,0,14.692-5.353,19.2,19.2,0,0,0,3.518-3.387c-5.759-3.327-7.434-8.6-6.95-15.093a12.549,12.549,0,0,1-4.936,3.042,1.856,1.856,0,0,0-1.324,1.192c-1.709,3.826-6.91,4.9-9.512,1.669a12.144,12.144,0,0,0-5.116-3.9,11.5,11.5,0,0,1-1.788-1.232c-.237-.155-.373-.557-.847-.367,0,1.033.049,2.084-.013,3.129C2090.41,635.727,2090.237,636.8,2090.112,637.885Zm14.065-13.625.2.028c2.078-4.487,4.143-8.98,6.249-13.453.276-.586.012-.871-.311-1.255-1.284-1.527-2.006-3.477-1.148-5.173,1.044-2.068.078-3.161-1.086-4.44-.271-.3-.5-.631-.759-.944-.994-1.225-1.988-2.45-3.148-3.878v1.521c0,2.706.007,5.413,0,8.12-.006,1.39-.729,2.239-1.848,2.217-1.077-.021-1.761-.845-1.785-2.159-.009-.484,0-.969,0-1.454v-8.212c-1.942,2.407-3.665,4.583-5.441,6.713-.4.482-.141.765.043,1.162a5.727,5.727,0,0,1-.719,6.459,1.265,1.265,0,0,0-.194,1.593c1.321,2.761,2.6,5.545,3.889,8.319q1.107,2.374,2.22,4.746c.2-3.019.2-5.989.2-8.958,0-1.515.671-2.332,1.858-2.306,1.13.024,1.772.831,1.776,2.268C2104.182,618.2,2104.177,621.231,2104.177,624.26Zm17.308-35.8c.214-.483-.155-.638-.459-.834q-7.066-4.544-14.133-9.087c-.249-.16-.458-.375-.859-.15-1.176.659-2.287,1.286-1.873,2.962a4.1,4.1,0,0,1,.006,1.447,1.278,1.278,0,0,0,.873,1.463,5.74,5.74,0,0,1,2.572,7.921,1.278,1.278,0,0,0,.2,1.679c1.349,1.605,2.681,3.228,3.94,4.9.672.894,1.279,1.554,2.547,1.1a2.87,2.87,0,0,1,1.905.133.945.945,0,0,0,1.215-.45c1.519-2.036,3.066-4.051,4.612-6.067.26-.339.421-.607.15-1.067A5.632,5.632,0,0,1,2121.485,588.462Zm-20.945-6.809c0-.525.017-1.05,0-1.574-.037-.9-2.007-1.98-2.757-1.5q-7.016,4.513-14.023,9.038a.879.879,0,0,0-.5,1.055,5.011,5.011,0,0,1-.659,3.611,1.077,1.077,0,0,0,.179,1.474c1.564,1.9,3.09,3.831,4.635,5.746.432.536,4.485.566,4.918.034,1.58-1.938,3.141-3.893,4.739-5.817a1.032,1.032,0,0,0,.113-1.371,5.782,5.782,0,0,1,2.55-8.119,1.2,1.2,0,0,0,.821-1.369A10.8,10.8,0,0,1,2100.539,581.653ZM2087.281,611.1c-.254-.063-.394.1-.532.234-1.229,1.226-2.44,2.469-3.689,3.674-.385.371-.257.693-.114,1.085a5.344,5.344,0,0,1,.183,3.443.942.942,0,0,0,.318,1.158c3.671,2.972,7.313,5.98,10.983,8.952a3.431,3.431,0,0,0,2.159.992c.676-.033.659-1,1.129-1.425.393-.355.665-.683.358-1.33-2.447-5.169-4.844-10.361-7.266-15.541-.11-.235-.141-.631-.484-.625A7.642,7.642,0,0,1,2087.281,611.1Zm34.439,4.5c.071-.387-.2-.55-.385-.744-.728-.755-1.534-1.446-2.186-2.26-.912-1.14-1.872-1.8-3.346-1.013a1.783,1.783,0,0,1-.953.093.811.811,0,0,0-.907.583q-3.611,7.838-7.239,15.669c-.108.235-.28.452-.144.779.833,2,1.583,2.24,3.378,1.018.167-.113.332-.23.488-.357q5.242-4.294,10.478-8.595c.236-.194.63-.342.524-.734A6.211,6.211,0,0,1,2121.72,615.6Zm-25.156-40.574a51.077,51.077,0,0,1-7.771-2.45,7.139,7.139,0,0,0-9.408,5.7c-.219,1.406.043,2.838-.163,4.223-.194,1.308.676,1.579,1.47,2.111.815.546,1.156-.211,1.682-.44a7.5,7.5,0,0,0,1.023-.637Zm11.862-.109c.058.158.06.212.085.229q7.287,4.739,14.582,9.466c.5.324,2.1-.4,2.093-.985-.018-2.127.3-4.282-.336-6.37a7.183,7.183,0,0,0-9.735-4.477A39.479,39.479,0,0,1,2108.426,574.921Zm20.431,31.18a16.046,16.046,0,0,0,4.168-1.838,10.569,10.569,0,0,0,4.869-8.96,3.908,3.908,0,0,0-4.308-4,.794.794,0,0,0-.812.54,5.758,5.758,0,0,1-3.4,3.232.647.647,0,0,0-.523.683C2128.864,599.176,2128.857,602.592,2128.857,606.1Zm-53.239-5.575c0-1.492-.023-2.984.012-4.475a1.038,1.038,0,0,0-.744-1.171,4.479,4.479,0,0,1-2.6-2.41c-.55-1.453-1.539-1.288-2.607-1.012a3.825,3.825,0,0,0-2.867,3.736,11.12,11.12,0,0,0,8.149,10.629c.639.17.666-.1.662-.579C2075.611,603.672,2075.618,602.1,2075.618,600.526Zm3.636-5.367c0,5.759,0,11.128,0,16.5,0,.388-.1.808.42,1.018s.737-.146,1.015-.424c1.115-1.112,2.224-2.229,3.343-3.338.29-.288.518-.5.322-1.016a5.7,5.7,0,0,1,.412-5.119.646.646,0,0,0-.083-.85C2082.943,599.771,2081.214,597.605,2079.255,595.16Zm45.965.557-.234-.109c-1.632,2.14-3.256,4.285-4.9,6.414-.327.422-.123.726.065,1.094a4.119,4.119,0,0,1,.52,3.271c-.775,1.946.227,3.017,1.492,4.126.636.557,1.2,1.2,1.782,1.813.265.28.523.509.939.311.369-.175.34-.506.34-.83Q2125.22,603.761,2125.22,595.716Zm-22.822,39.5a2.3,2.3,0,1,0-2.34-2.261A2.332,2.332,0,0,0,2102.4,635.217Zm-24.959-19.391a2.3,2.3,0,1,0,2.244,2.355A2.315,2.315,0,0,0,2077.439,615.825Zm49.628,0a2.3,2.3,0,1,0,2.324,2.277A2.318,2.318,0,0,0,2127.067,615.824Zm2.568-26.314a2.3,2.3,0,1,0-2.3,2.307A2.329,2.329,0,0,0,2129.635,589.51Zm-27.282,2.307a2.3,2.3,0,1,0-2.3-2.308A2.337,2.337,0,0,0,2102.353,591.817Zm-22.67-2.352a2.3,2.3,0,1,0-2.252,2.35A2.322,2.322,0,0,0,2079.683,589.465Zm24.975-15.671a2.3,2.3,0,1,0-2.341,2.261A2.319,2.319,0,0,0,2104.658,573.794Zm12.474,31.97a2.284,2.284,0,1,0-2.323,2.294A2.3,2.3,0,0,0,2117.132,605.763Zm-24.977-.028a2.284,2.284,0,1,0-2.292,2.322A2.3,2.3,0,0,0,2092.155,605.736Z" transform="translate(-0.013 -5.115)" fill="#030303"/>
    <path id="Trazado_128801" data-name="Trazado 128801" d="M2162.066,588.915a2.26,2.26,0,0,0-.6-.4c-1.914-.508-1.977-1.909-1.868-3.532a11.552,11.552,0,0,0-2.886-9.075,10.8,10.8,0,0,0-12.206-2.655,42.92,42.92,0,0,1-5.022,1.748,1.076,1.076,0,0,1-1.383-.53,5.841,5.841,0,0,0-10,.024,1.092,1.092,0,0,1-1.38.561,38.081,38.081,0,0,1-4.921-1.668c-7.7-3.17-15.4,1.955-15.442,10.266,0,.323-.02.648,0,.969.122,1.747.218,3.4-1.937,4.185a3.469,3.469,0,0,0-1.644,2.034c-.194.45-.411.722-.965.714-2.19-.032-1.807.359-1.818-1.7q-.033-6.119,0-12.238a23.234,23.234,0,0,1,3.583-12.51,2.565,2.565,0,0,0,.064-3.124,11.1,11.1,0,0,1,3.367-3.635,2.441,2.441,0,0,0,3.089-.265,23.773,23.773,0,0,1,14.4-4.583c5.817.008,11.635,0,17.452,0a21.077,21.077,0,0,1,6.792,1.016c.027.368.276.539.568.716a26.888,26.888,0,0,1,6.708,5.6,26.189,26.189,0,0,1,6.281,16.19c.159,3.54.035,7.093.023,10.64C2162.321,588.092,2162.477,588.568,2162.066,588.915Z" transform="translate(-30.766 -8.985)" fill="#837585"/>
    <path id="Trazado_128802" data-name="Trazado 128802" d="M2047.707,769.074a11.522,11.522,0,0,1,8.307-11.351c8.234-2.259,16.513-4.351,24.773-6.517a2.158,2.158,0,0,1,2.443,1.1,27.565,27.565,0,0,0,13.635,10.211c10.142,3.3,19.4,1.558,27.628-5.331.307-.258.624-.5.937-.755.393.069.795.112,1.18.213,5.241,1.362,10.485,2.714,15.718,4.108,3.053.814,6.263,1.216,8.992,2.954a11.183,11.183,0,0,1,4.741,5.124c-.445.429-1,.23-1.5.23Q2101.133,769.078,2047.707,769.074Z" transform="translate(-3.886 -110.602)" fill="#ab9df1"/>
    <path id="Trazado_128803" data-name="Trazado 128803" d="M2246.946,536.026q6.6,0,13.2,0c1.865,0,2.439.582,2.44,2.466q0,13.2,0,26.4c0,1.807-.591,2.4-2.372,2.408q-3.634.007-7.267,0c-1.733,0-2.333-.583-2.336-2.315-.011-5.249-.035-10.5.02-15.745.01-1.038-.312-1.259-1.292-1.25-5.127.048-10.255.025-15.383.021-2.137,0-2.652-.516-2.653-2.621,0-2.342-.006-4.683,0-7.025.005-1.724.61-2.339,2.315-2.342Q2240.284,536.019,2246.946,536.026Zm-11.961,5.816a8.549,8.549,0,0,1-.05,1.207c-.209,1.165.337,1.357,1.383,1.346,5.09-.051,10.181-.025,15.272-.022,2.143,0,2.657.511,2.659,2.642q.005,7.029,0,14.059c0,2.7,0,2.7,2.765,2.552,1.935.1,1.935.1,1.935-1.783,0-7.028-.019-14.057.023-21.085.006-.907-.215-1.123-1.119-1.117-6.948.042-13.9.023-20.843.023C2234.869,539.666,2234.869,539.666,2234.985,541.843Z" transform="translate(-98.29)" fill="#020303"/>
    <path id="Trazado_128804" data-name="Trazado 128804" d="M2040.151,551.643q0-6.6,0-13.2c0-1.807.592-2.412,2.369-2.413q13.263-.005,26.525,0c1.792,0,2.383.6,2.387,2.394q.009,3.633,0,7.267c-.005,1.7-.607,2.318-2.341,2.323-5.168.013-10.336.04-15.5-.022-1.131-.014-1.5.216-1.488,1.429.075,5.126.035,10.254.03,15.381,0,1.964-.552,2.5-2.515,2.506-2.422,0-4.845.009-7.267,0-1.551-.008-2.191-.651-2.194-2.217Q2040.14,558.365,2040.151,551.643Zm5.816,11.985a8.065,8.065,0,0,1,.966.045c1.209.2,1.615-.2,1.593-1.508-.088-5.089-.04-10.181-.033-15.271,0-1.973.554-2.517,2.537-2.519q7.211-.009,14.423,0c2.437,0,2.437,0,2.3-2.531.014-.2.037-.4.039-.6.018-1.574.017-1.574-1.58-1.574-7.109,0-14.218.018-21.327-.023-.9,0-1.125.208-1.12,1.117.043,6.947.023,13.894.023,20.842C2043.79,563.74,2043.79,563.74,2045.967,563.628Z" transform="translate(-0.001 0)" fill="#020303"/>
    <path id="Trazado_128805" data-name="Trazado 128805" d="M2262.585,692.9q0,6.6,0,13.209c0,1.86-.587,2.436-2.473,2.437q-13.21,0-26.419,0c-1.8,0-2.389-.593-2.394-2.389q-.007-3.515,0-7.029c0-1.9.559-2.463,2.429-2.472,5.251-.025,10.5-.071,15.753-.05.916,0,1.151-.254,1.143-1.155-.042-5.211-.023-10.422-.019-15.633,0-2.041.525-2.55,2.591-2.551q3.393,0,6.787,0c2.1,0,2.6.516,2.6,2.665Q2262.586,686.421,2262.585,692.9Zm-5.574-11.954a11.7,11.7,0,0,1-1.568-.052c-1.063-.172-1.229.3-1.22,1.264.048,5,.023,10,.022,15,0,2.651-.382,3.049-2.982,3.064q-6.9.039-13.792.061c-2.642.009-2.642,0-2.493,2.69-.106,1.935-.106,1.935,1.781,1.935,7.029,0,14.059-.018,21.088.023.9,0,1.128-.2,1.123-1.115-.043-7.029-.023-14.058-.023-21.087C2258.946,680.851,2258.946,680.851,2257.011,680.951Z" transform="translate(-98.286 -72.628)" fill="#010202"/>
    <path id="Trazado_128806" data-name="Trazado 128806" d="M2062.428,698.6c.236-1.537.71-2.009,2.173-2.036,1.575-.03,3.151-.032,4.726,0,1.488.031,2.1.679,2.1,2.191q.018,3.818,0,7.636c-.009,1.488-.661,2.148-2.146,2.149q-13.515.013-27.029,0a1.833,1.833,0,0,1-2.1-2.073q-.017-13.575,0-27.15c0-1.395.688-2.04,2.117-2.048,2.5-.015,5.01-.008,7.515,0,1.737,0,2.335.58,2.339,2.315.011,5.091,0,10.181.009,15.272.006,1.969-.27,1.67,1.759,1.7.484.007.97-.008,1.454,0,1.577.037,2.055.467,2.292,2.043a2.094,2.094,0,0,1-2.371,1.607c-1.373-.034-2.747,0-4.121-.008-2.146-.006-2.657-.509-2.659-2.643q-.007-7.15,0-14.3c0-2.44,0-2.44-2.523-2.31-.2-.013-.4-.036-.6-.038-1.574-.017-1.574-.016-1.574,1.58,0,7.109.019,14.218-.024,21.327-.005.91.219,1.121,1.121,1.116,7.028-.041,14.057-.023,21.085-.023,1.885,0,1.885,0,1.782-1.934.149-2.766.149-2.766-2.619-2.773-.12,0-.241-.006-.361,0A2.056,2.056,0,0,1,2062.428,698.6Z" transform="translate(0 -72.623)" fill="#020303"/>
    <path id="Trazado_128807" data-name="Trazado 128807" d="M2238.325,768.844a11.184,11.184,0,0,0-4.741-5.124c-2.729-1.738-5.939-2.14-8.992-2.954-5.232-1.394-10.477-2.745-15.717-4.108-.386-.1-.787-.143-1.181-.213a46.026,46.026,0,0,0,3.857-4.491,1.959,1.959,0,0,1,2.366-.669c2.917.789,5.842,1.545,8.771,2.287,1.4.356,1.914.092,2.623-1.225l4.912,1.31c.017,1.537.344,1.957,1.849,2.357,2.139.569,4.293,1.081,6.414,1.71a11.673,11.673,0,0,1,8.3,11.361Z" transform="translate(-86.15 -110.618)" fill="#826be9"/>
    <path id="Trazado_128808" data-name="Trazado 128808" d="M2052.125,684.8c2.523-.13,2.523-.13,2.523,2.31q0,7.15,0,14.3c0,2.134.513,2.637,2.659,2.643,1.374,0,2.748-.026,4.121.008a2.094,2.094,0,0,0,2.371-1.607h4.787a2.055,2.055,0,0,0,2.345,1.6c.12-.007.24,0,.36,0,2.768.007,2.768.007,2.62,2.773q-9.876,0-19.751,0c-1.762,0-2.031-.27-2.031-2.03Q2052.125,694.795,2052.125,684.8Z" transform="translate(-6.159 -76.475)" fill="#45bbcc"/>
    <path id="Trazado_128809" data-name="Trazado 128809" d="M2270.626,770.322a11.674,11.674,0,0,0-8.3-11.361c-2.121-.629-4.275-1.141-6.414-1.71-1.506-.4-1.832-.82-1.849-2.357a1.915,1.915,0,0,1,2.532-1.229c2.334.611,4.684,1.173,6.987,1.885a15.356,15.356,0,0,1,10.694,14.076c.032,1.4-.487,2.2-1.524,2.376Q2271.29,772.244,2270.626,770.322Z" transform="translate(-109.995 -111.855)" fill="#030303"/>
    <path id="Trazado_128810" data-name="Trazado 128810" d="M2163.294,746.873a22.835,22.835,0,0,1-14.692,5.353c-7.758.151-14.088-2.858-19.261-8.721a13.982,13.982,0,0,0,6.62-8.339c1.271.374,2.409,1.067,3.671,1.488a24.736,24.736,0,0,0,5.816.778,26.042,26.042,0,0,0,5.269,0,7.67,7.67,0,0,1,3.813.149c1.03.421.922,1.606,1.321,2.451.035.073.074.143.108.216A13.458,13.458,0,0,0,2163.294,746.873Z" transform="translate(-45.863 -102.396)" fill="#f4cfbf"/>
    <path id="Trazado_128811" data-name="Trazado 128811" d="M2161.185,676.3c0-3.029.005-6.058,0-9.087,0-1.437-.646-2.244-1.776-2.268-1.188-.026-1.854.791-1.858,2.306-.006,2.969,0,5.939-.2,8.958q-1.11-2.373-2.219-4.746c-1.293-2.774-2.567-5.558-3.889-8.319a1.265,1.265,0,0,1,.194-1.594,5.727,5.727,0,0,0,.719-6.459c-.184-.4-.445-.68-.043-1.162,1.776-2.13,3.5-4.306,5.441-6.713v8.212c0,.485-.008.97,0,1.454.024,1.314.708,2.138,1.785,2.159,1.118.022,1.842-.827,1.847-2.217.011-2.706,0-5.413,0-8.12v-1.521c1.16,1.429,2.155,2.653,3.148,3.878.254.313.487.646.758.944,1.164,1.279,2.13,2.372,1.086,4.44-.857,1.7-.135,3.646,1.148,5.173.323.384.586.67.311,1.255-2.106,4.473-4.171,8.966-6.249,13.453Z" transform="translate(-57.02 -57.159)" fill="#f6dcce"/>
    <path id="Trazado_128812" data-name="Trazado 128812" d="M2189.116,622.671a5.641,5.641,0,0,0,.7,3.956c.272.46.11.728-.15,1.067-1.546,2.016-3.093,4.031-4.612,6.067a.944.944,0,0,1-1.215.45,2.87,2.87,0,0,0-1.905-.133c-1.268.453-1.875-.207-2.547-1.1-1.259-1.676-2.591-3.3-3.94-4.9a1.278,1.278,0,0,1-.2-1.679,5.74,5.74,0,0,0-2.572-7.921,1.277,1.277,0,0,1-.873-1.463,4.1,4.1,0,0,0-.006-1.447c-.414-1.676.7-2.3,1.873-2.961.4-.225.61-.01.859.15q7.07,4.537,14.133,9.087C2188.963,622.034,2189.331,622.189,2189.116,622.671Z" transform="translate(-67.645 -39.325)" fill="#f6ddcf"/>
    <path id="Trazado_128813" data-name="Trazado 128813" d="M2145.209,616.041a10.8,10.8,0,0,0,.008,1.21,1.2,1.2,0,0,1-.821,1.369,5.782,5.782,0,0,0-2.551,8.119,1.032,1.032,0,0,1-.113,1.372c-1.6,1.924-3.158,3.879-4.739,5.817-.434.532-4.487.5-4.918-.034-1.545-1.915-3.071-3.846-4.635-5.746a1.077,1.077,0,0,1-.179-1.474,5.01,5.01,0,0,0,.659-3.611.879.879,0,0,1,.5-1.055q7.019-4.509,14.023-9.038c.75-.483,2.72.6,2.757,1.5C2145.227,614.991,2145.209,615.517,2145.209,616.041Z" transform="translate(-44.682 -39.503)" fill="#f6ddcf"/>
    <path id="Trazado_128814" data-name="Trazado 128814" d="M2170.3,739.7a13.458,13.458,0,0,1-7.334-6.628c-.034-.073-.073-.143-.108-.216-.4-.845-.291-2.03-1.322-2.451a7.669,7.669,0,0,0-3.813-.149,26.042,26.042,0,0,1-5.269,0,24.723,24.723,0,0,1-5.816-.778c-1.262-.42-2.4-1.113-3.671-1.488.125-1.08.3-2.158.363-3.242.063-1.045.014-2.1.014-3.129.475-.19.61.212.847.367a11.486,11.486,0,0,0,1.788,1.233,12.143,12.143,0,0,1,5.116,3.9c2.6,3.226,7.8,2.156,9.512-1.669a1.856,1.856,0,0,1,1.324-1.192,12.553,12.553,0,0,0,4.936-3.042c-.483,6.495,1.192,11.765,6.95,15.093A19.2,19.2,0,0,1,2170.3,739.7Z" transform="translate(-52.869 -95.228)" fill="#f0c1ad"/>
    <path id="Trazado_128815" data-name="Trazado 128815" d="M2132.4,680.018a7.645,7.645,0,0,0,3.044.617c.344-.006.375.39.484.625,2.423,5.18,4.819,10.372,7.267,15.541.307.648.035.975-.358,1.33-.47.424-.454,1.392-1.129,1.425a3.431,3.431,0,0,1-2.159-.992c-3.671-2.973-7.313-5.98-10.984-8.953a.941.941,0,0,1-.317-1.158,5.35,5.35,0,0,0-.183-3.443c-.143-.392-.271-.714.113-1.085,1.25-1.2,2.461-2.448,3.689-3.674C2132.011,680.113,2132.15,679.955,2132.4,680.018Z" transform="translate(-45.135 -74.032)" fill="#f6dcce"/>
    <path id="Trazado_128816" data-name="Trazado 128816" d="M2191.934,684.69a6.213,6.213,0,0,0-.292,4.439c.106.392-.288.54-.524.734q-5.234,4.3-10.478,8.6c-.155.127-.321.244-.488.357-1.794,1.222-2.544.987-3.378-1.018-.136-.327.036-.544.144-.779q3.614-7.837,7.239-15.669a.81.81,0,0,1,.907-.583,1.783,1.783,0,0,0,.953-.093c1.475-.783,2.435-.127,3.346,1.013.652.815,1.458,1.505,2.186,2.26C2191.736,684.14,2192.005,684.3,2191.934,684.69Z" transform="translate(-70.226 -74.2)" fill="#f6dcce"/>
    <path id="Trazado_128817" data-name="Trazado 128817" d="M2213.676,589.994c.411-.347.255-.823.257-1.247.011-3.547.136-7.1-.023-10.64a26.19,26.19,0,0,0-6.281-16.19,26.889,26.889,0,0,0-6.708-5.6c-.292-.177-.541-.348-.568-.716a24.108,24.108,0,0,1,17.524,23.058c0,4.282.013,8.564-.01,12.846,0,.4.309,1.172-.475,1.115-.759-.055-1.766.536-2.261-.555A9.394,9.394,0,0,0,2213.676,589.994Z" transform="translate(-82.375 -10.064)" fill="#716174"/>
    <path id="Trazado_128818" data-name="Trazado 128818" d="M2137.866,602.756l-13.166,8.508a7.5,7.5,0,0,1-1.023.637c-.527.229-.868.986-1.682.44-.795-.532-1.665-.8-1.471-2.111.206-1.385-.057-2.816.163-4.223a7.14,7.14,0,0,1,9.408-5.7A51.077,51.077,0,0,0,2137.866,602.756Z" transform="translate(-41.315 -32.841)" fill="#f6dcce"/>
    <path id="Trazado_128819" data-name="Trazado 128819" d="M2180.668,602.707a39.459,39.459,0,0,0,6.689-2.138,7.183,7.183,0,0,1,9.735,4.477c.638,2.089.318,4.243.335,6.37,0,.588-1.592,1.309-2.093.985q-7.3-4.718-14.582-9.466C2180.727,602.919,2180.725,602.865,2180.668,602.707Z" transform="translate(-72.254 -32.901)" fill="#f6dcce"/>
    <path id="Trazado_128820" data-name="Trazado 128820" d="M2222.714,654.071c0-3.509.007-6.925-.008-10.341a.646.646,0,0,1,.523-.683,5.757,5.757,0,0,0,3.4-3.232.794.794,0,0,1,.813-.54,3.908,3.908,0,0,1,4.308,4,10.568,10.568,0,0,1-4.87,8.96A16.04,16.04,0,0,1,2222.714,654.071Z" transform="translate(-93.87 -53.084)" fill="#f4cfbf"/>
    <path id="Trazado_128821" data-name="Trazado 128821" d="M2103.812,648.473c0,1.573-.007,3.146,0,4.718,0,.478-.023.749-.662.579a11.12,11.12,0,0,1-8.149-10.629,3.825,3.825,0,0,1,2.867-3.736c1.068-.276,2.057-.441,2.607,1.012a4.48,4.48,0,0,0,2.6,2.41,1.038,1.038,0,0,1,.744,1.171C2103.789,645.489,2103.812,646.981,2103.812,648.473Z" transform="translate(-28.206 -53.062)" fill="#f4cfbf"/>
    <path id="Trazado_128822" data-name="Trazado 128822" d="M2120.615,647.22c1.96,2.446,3.688,4.612,5.431,6.768a.646.646,0,0,1,.083.85,5.7,5.7,0,0,0-.412,5.119c.2.516-.032.728-.322,1.016-1.118,1.109-2.228,2.226-3.343,3.338-.278.278-.505.629-1.015.424s-.419-.63-.42-1.018C2120.614,658.347,2120.615,652.979,2120.615,647.22Z" transform="translate(-41.373 -57.175)" fill="#f0d7ca"/>
    <path id="Trazado_128823" data-name="Trazado 128823" d="M2209.615,648.251q0,8.046,0,16.091c0,.323.029.655-.34.83-.416.2-.673-.031-.938-.311-.583-.616-1.146-1.257-1.782-1.813-1.266-1.109-2.268-2.18-1.492-4.126a4.116,4.116,0,0,0-.521-3.271c-.187-.369-.392-.672-.065-1.094,1.647-2.128,3.272-4.274,4.9-6.414Z" transform="translate(-84.408 -57.649)" fill="#f0d7ca"/>
    <path id="Trazado_128824" data-name="Trazado 128824" d="M2165.781,724.8a2.3,2.3,0,1,1,2.262-2.342A2.322,2.322,0,0,1,2165.781,724.8Z" transform="translate(-63.396 -94.702)" fill="#45bbcc"/>
    <path id="Trazado_128825" data-name="Trazado 128825" d="M2114.388,689.758a2.3,2.3,0,1,1-2.355,2.242A2.32,2.32,0,0,1,2114.388,689.758Z" transform="translate(-36.962 -79.048)" fill="#45bbcc"/>
    <path id="Trazado_128826" data-name="Trazado 128826" d="M2216.627,689.756a2.3,2.3,0,1,1-2.277,2.323A2.322,2.322,0,0,1,2216.627,689.756Z" transform="translate(-89.573 -79.047)" fill="#45bbcc"/>
    <path id="Trazado_128827" data-name="Trazado 128827" d="M2219.45,633.158a2.3,2.3,0,1,1-2.306-2.3A2.34,2.34,0,0,1,2219.45,633.158Z" transform="translate(-89.829 -48.764)" fill="#45bbcc"/>
    <path id="Trazado_128828" data-name="Trazado 128828" d="M2165.734,635.466a2.3,2.3,0,1,1,2.307-2.3A2.332,2.332,0,0,1,2165.734,635.466Z" transform="translate(-63.395 -48.764)" fill="#45bbcc"/>
    <path id="Trazado_128829" data-name="Trazado 128829" d="M2116.632,633.115a2.3,2.3,0,1,1-2.348-2.251A2.331,2.331,0,0,1,2116.632,633.115Z" transform="translate(-36.962 -48.765)" fill="#45bbcc"/>
    <path id="Trazado_128830" data-name="Trazado 128830" d="M2168.042,600.763a2.3,2.3,0,1,1-2.26-2.34A2.327,2.327,0,0,1,2168.042,600.763Z" transform="translate(-63.396 -32.084)" fill="#45bbcc"/>
    <path id="Trazado_128831" data-name="Trazado 128831" d="M2193.753,666.61a2.284,2.284,0,1,1-2.313-2.3A2.308,2.308,0,0,1,2193.753,666.61Z" transform="translate(-76.634 -65.961)" fill="#45bbcc"/>
    <path id="Trazado_128832" data-name="Trazado 128832" d="M2142.34,666.582a2.284,2.284,0,1,1-2.339-2.275A2.3,2.3,0,0,1,2142.34,666.582Z" transform="translate(-50.198 -65.961)" fill="#45bbcc"/>
    <path id="Trazado_128833" data-name="Trazado 128833" d="M2260.813,569.785c-2.765.143-2.765.143-2.765-2.552q0-7.029,0-14.059c0-2.131-.517-2.641-2.659-2.642-5.091,0-10.182-.029-15.271.022-1.046.011-1.593-.181-1.383-1.346a8.513,8.513,0,0,0,.05-1.207q10,0,19.993,0c1.763,0,2.032.27,2.032,2.03Q2260.813,559.909,2260.813,569.785Z" transform="translate(-102.088 -6.157)" fill="#45bbcc"/>
    <path id="Trazado_128834" data-name="Trazado 128834" d="M2260.871,567.456q0-9.876-.005-19.751c0-1.761-.27-2.029-2.032-2.03q-10,0-19.993,0c-.116-2.177-.116-2.177,2.026-2.177,6.948,0,13.9.019,20.843-.023.9-.005,1.125.21,1.119,1.117-.042,7.028-.023,14.056-.023,21.085C2262.805,567.556,2262.805,567.556,2260.871,567.456Z" transform="translate(-102.146 -3.829)" fill="#8fd6e0"/>
    <path id="Trazado_128835" data-name="Trazado 128835" d="M2073.913,548c.135,2.531.135,2.531-2.3,2.531q-7.211,0-14.423,0c-1.983,0-2.534.547-2.537,2.519-.006,5.09-.054,10.182.034,15.271.022,1.311-.384,1.706-1.593,1.508a8.075,8.075,0,0,0-.966-.045q0-9.936.006-19.872c0-1.593.314-1.907,1.91-1.908Q2063.976,548,2073.913,548Z" transform="translate(-6.159 -6.157)" fill="#45bbcc"/>
    <path id="Trazado_128836" data-name="Trazado 128836" d="M2071.584,545.671q-9.936,0-19.872.005c-1.6,0-1.909.314-1.91,1.908q-.007,9.936-.005,19.872c-2.177.112-2.177.112-2.177-2.027,0-6.948.02-13.895-.023-20.842-.006-.909.217-1.122,1.12-1.117,7.109.042,14.218.023,21.327.023,1.6,0,1.6,0,1.58,1.574C2071.621,545.269,2071.6,545.47,2071.584,545.671Z" transform="translate(-3.83 -3.829)" fill="#8fd6e0"/>
    <path id="Trazado_128837" data-name="Trazado 128837" d="M2238.822,706.781c-.148-2.689-.148-2.682,2.494-2.69q6.9-.022,13.791-.061c2.6-.014,2.983-.413,2.983-3.063,0-5,.026-10-.022-15-.01-.959.156-1.436,1.22-1.264a11.675,11.675,0,0,0,1.568.052q0,10,0,19.995c0,1.759-.27,2.028-2.033,2.029Q2248.82,706.781,2238.822,706.781Z" transform="translate(-102.13 -76.43)" fill="#45bbcc"/>
    <path id="Trazado_128838" data-name="Trazado 128838" d="M2238.838,706.837q10,0,20,0c1.763,0,2.033-.27,2.033-2.029q.005-10,0-19.995c1.935-.1,1.935-.1,1.935,1.783,0,7.029-.02,14.058.023,21.087.006.913-.223,1.12-1.122,1.115-7.029-.041-14.059-.023-21.088-.023C2238.731,708.772,2238.731,708.772,2238.838,706.837Z" transform="translate(-102.145 -76.486)" fill="#8fd6e0"/>
    <path id="Trazado_128839" data-name="Trazado 128839" d="M2049.8,684.8q0,10,0,19.993c0,1.76.27,2.029,2.031,2.03q9.875,0,19.751,0c.1,1.934.1,1.934-1.782,1.934-7.029,0-14.057-.018-21.085.023-.9.005-1.126-.206-1.121-1.116.043-7.109.024-14.218.024-21.327,0-1.6,0-1.6,1.574-1.58C2049.394,684.766,2049.594,684.788,2049.8,684.8Z" transform="translate(-3.829 -76.478)" fill="#8fd6e0"/>
  </g>
</svg>
