<svg xmlns="http://www.w3.org/2000/svg" xmlns:xlink="http://www.w3.org/1999/xlink" width="83" height="83" viewBox="0 0 83 83">
  <defs>
    <clipPath id="clip-path">
      <rect id="Rectángulo_36789" data-name="Rectángulo 36789" width="83" height="83" fill="#fff" stroke="#707070" stroke-width="1"/>
    </clipPath>
  </defs>
  <g id="Grupo_86266" data-name="Grupo 86266" clip-path="url(#clip-path)">
    <g id="Grupo_86267" data-name="Grupo 86267" transform="translate(4.152 4.173)">
      <path id="Trazado_128725" data-name="Trazado 128725" d="M2403.046,835.661l2.318-.005c.34,1.056.543,1.211,1.664,1.212q4.351.006,8.7,0a3.074,3.074,0,0,1,1,.1c.028.091.029.206.087.269a5.116,5.116,0,0,1,1.252,3.742c-.031,9.724-.015,19.448-.018,29.173,0,.29-.024.58-.037.87-.242.009-.485.024-.727.024q-28.193,0-56.386,0c-.243,0-.485-.01-.728-.016q-.016-.059-.027-.12-.006-1.128-.013-2.256c.916-.231,1.18-.542,1.185-1.461.009-1.577,0-3.154,0-4.732q0-10.81,0-21.619a3.73,3.73,0,0,1,1.769-3.444,4.344,4.344,0,0,1,2.379-.528c3.543,0,7.086,0,10.629,0,1.026,0,1.33-.267,1.466-1.2l2.407,0c.006,1.019-.008,2.04.028,3.058.016.453-.131.579-.577.571-1.432-.027-2.865,0-4.3-.016a1.265,1.265,0,0,0-1.373.728,1.31,1.31,0,0,0,.438,1.5q8.147,8.129,16.283,16.27a1.251,1.251,0,0,0,2.072,0q8.17-8.158,16.333-16.323a1.263,1.263,0,0,0,.387-1.446,1.219,1.219,0,0,0-1.3-.727c-1.457.016-2.914-.012-4.37.015-.446.008-.593-.118-.577-.571C2403.054,837.7,2403.04,836.68,2403.046,835.661Z" transform="translate(-2354.154 -813.058)" fill="#ab9df1"/>
      <path id="Trazado_128726" data-name="Trazado 128726" d="M2345.68,868.173c.243.006.485.016.728.016q28.193,0,56.386,0c.242,0,.485-.016.727-.024,1.066.012,2.133.009,3.2.043.484.016.474-.267.473-.606q-.005-14.955-.009-29.911a3.54,3.54,0,0,0-2.7-3.531,6.983,6.983,0,0,0-2.244-.049,3.075,3.075,0,0,0-1-.1q-4.35,0-8.7,0c-1.121,0-1.324-.156-1.664-1.212a1.328,1.328,0,0,1,1.427-1.159c3.766,0,7.532-.052,11.3.014a5.911,5.911,0,0,1,5.965,6.192c.024,2.964,0,5.928,0,8.892q0,10.75-.009,21.5a1.927,1.927,0,0,0,.411,1.266c1.273,1.654,2.5,3.347,3.774,5a2.685,2.685,0,0,1,.61,1.876,18.325,18.325,0,0,1-.218,3.989,5.942,5.942,0,0,1-5.688,4.482c-.194.008-.389.005-.583.005q-30.869,0-61.737,0a6.039,6.039,0,0,1-6.438-6.041c-.087-3.381-.084-3.381,1.941-6.087q1.4-1.865,2.8-3.728a1.571,1.571,0,0,1,1.078-.792Zm58.889,2.414c-.291-.008-.582-.024-.873-.024h-48.264q-4.3,0-8.6,0c-.231,0-.509-.109-.686.124-.944,1.243-1.878,2.493-2.879,3.825h63.494c.193,0,.387-.017.581-.026h3.394c-.953-1.27-1.843-2.445-2.719-3.631a.657.657,0,0,0-.607-.3C2406.462,870.579,2405.516,870.579,2404.57,870.587Zm2.313,11.845a5.208,5.208,0,0,0,1.587.038,3.582,3.582,0,0,0,3.5-3.562c.034-.505,0-1.016.015-1.523.012-.324-.075-.5-.439-.488-1.061.029-2.122.039-3.184.057a.7.7,0,0,0-.142-.03q-14.762,0-29.523-.015c-.445,0-.524.175-.507.56a11.971,11.971,0,0,1-.014,1.529,1.166,1.166,0,0,1-2.323-.01,5.352,5.352,0,0,1-.009-1.164c.092-.708-.117-.929-.884-.927q-16,.045-32,.02c-.194,0-.389,0-.583,0s-.318.092-.313.307a9.38,9.38,0,0,0,.2,2.746,3.6,3.6,0,0,0,3.762,2.5q30.142.005,60.285,0C2406.5,882.478,2406.69,882.447,2406.882,882.432Z" transform="translate(-2339.656 -810.201)" fill="#030303"/>
      <path id="Trazado_128727" data-name="Trazado 128727" d="M2435.8,780.908c-.006,1.019.008,2.039-.029,3.057-.016.453.131.579.577.571,1.456-.026,2.914,0,4.371-.015a1.219,1.219,0,0,1,1.3.727,1.264,1.264,0,0,1-.387,1.446q-8.172,8.157-16.333,16.323a1.251,1.251,0,0,1-2.072,0q-8.145-8.131-16.283-16.27a1.31,1.31,0,0,1-.438-1.5,1.265,1.265,0,0,1,1.373-.728c1.432.018,2.865-.011,4.3.016.446.008.593-.118.577-.571-.036-1.018-.022-2.038-.028-3.058q.01-6.7.02-13.4c0-2.526,0-5.051,0-7.577,0-1.221.4-1.622,1.608-1.622q9.762,0,19.526,0h.292c1.211.007,1.608.4,1.608,1.623q0,10.09,0,20.18C2435.783,780.375,2435.8,780.642,2435.8,780.908Zm-6.56,14.73-.012.012.173-.161.116-.116c.111-.091.232-.173.333-.274q3.912-3.906,7.817-7.818c.091-.091.256-.157.2-.367H2435.2c-1.333-.075-1.544-.213-1.817-1.191.009-.121.025-.242.025-.362q0-12.018,0-24.036c0-.073-.005-.146,0-.218.024-.3-.093-.444-.416-.438-1.067.023-2.134.03-3.2.044-.241-.013-.483-.035-.725-.036-4.373,0-8.746.012-13.118-.016-.653,0-.852.145-.849.831.026,7.894.018,15.789.016,23.684,0,1.377-.342,1.713-1.723,1.715-.926,0-1.851,0-2.941,0l5.556,5.549q3.917,3.916,7.832,7.833c.226.226.389.478.746.108,1.483-1.537,2.993-3.048,4.493-4.568Z" transform="translate(-2386.911 -758.305)" fill="#010101"/>
      <path id="Trazado_128728" data-name="Trazado 128728" d="M2374.684,832.832c-.135.936-.439,1.2-1.466,1.2-3.543.007-7.086,0-10.628,0a4.345,4.345,0,0,0-2.38.528,3.73,3.73,0,0,0-1.769,3.444q.018,10.81.005,21.619c0,1.577.006,3.154,0,4.732,0,.919-.268,1.23-1.185,1.461-.92-.22-1.177-.514-1.177-1.458,0-8.868-.027-17.736.01-26.6a5.9,5.9,0,0,1,6.142-6.091c3.669-.025,7.338-.009,11.007,0C2374.178,831.669,2374.535,831.972,2374.684,832.832Z" transform="translate(-2351.275 -810.227)" fill="#010101"/>
      <path id="Trazado_128729" data-name="Trazado 128729" d="M2359.833,956.448l-.183.035.156-.155C2359.814,956.368,2359.823,956.408,2359.833,956.448Z" transform="translate(-2353.81 -898.475)" fill="#307070"/>
      <path id="Trazado_128730" data-name="Trazado 128730" d="M2553.863,839.987a6.98,6.98,0,0,1,2.244.049,3.54,3.54,0,0,1,2.7,3.531q.017,14.956.009,29.911c0,.339.01.622-.473.606-1.066-.034-2.133-.031-3.2-.044.013-.29.037-.58.037-.871,0-9.724-.013-19.448.018-29.173a5.114,5.114,0,0,0-1.252-3.742C2553.892,840.193,2553.891,840.078,2553.863,839.987Z" transform="translate(-2491.282 -816.077)" fill="#826be9"/>
      <path id="Trazado_128731" data-name="Trazado 128731" d="M2412.686,992.133c-.193.016-.385.046-.578.046q-30.143,0-60.286,0a3.6,3.6,0,0,1-3.762-2.5,9.389,9.389,0,0,1-.2-2.746c0-.214.11-.305.313-.307s.389,0,.583,0q16,0,32-.02c.767,0,.976.218.884.927a5.351,5.351,0,0,0,.009,1.164,1.166,1.166,0,0,0,2.324.01,11.972,11.972,0,0,0,.014-1.529c-.018-.384.062-.56.507-.56q14.762.02,29.523.015a.706.706,0,0,1,.142.03C2414.289,988.647,2414.225,990.588,2412.686,992.133Z" transform="translate(-2345.46 -919.902)" fill="#826be9"/>
      <path id="Trazado_128732" data-name="Trazado 128732" d="M2416.084,968.792c-.194.009-.387.026-.581.026h-63.494c1-1.332,1.935-2.582,2.879-3.825.177-.233.455-.124.686-.124q4.3-.01,8.6,0h48.264c.291,0,.582.015.874.024.133.2.264.4.4.6C2414.473,966.609,2415.426,967.595,2416.084,968.792Z" transform="translate(-2348.4 -904.504)" fill="#d5cef8"/>
      <path id="Trazado_128733" data-name="Trazado 128733" d="M2569.765,992.131c1.54-1.544,1.6-3.486,1.475-5.478,1.061-.018,2.123-.028,3.183-.057.365-.01.451.164.439.488-.019.507.02,1.017-.015,1.523a3.582,3.582,0,0,1-3.5,3.562A5.21,5.21,0,0,1,2569.765,992.131Z" transform="translate(-2502.538 -919.9)" fill="#583ae2"/>
      <path id="Trazado_128734" data-name="Trazado 128734" d="M2564.618,968.828c-.658-1.2-1.611-2.183-2.372-3.307-.134-.2-.265-.4-.4-.6.946-.008,1.893-.008,2.839-.03a.657.657,0,0,1,.606.3c.876,1.185,1.765,2.361,2.719,3.631Z" transform="translate(-2496.934 -904.54)" fill="#ab9df1"/>
      <path id="Trazado_128735" data-name="Trazado 128735" d="M2443.178,791.43c.273.979.484,1.117,1.817,1.191a1.792,1.792,0,0,1-.144.324c-1.434,2.023-2.891,4.03-4.3,6.071-.454.658-1.131,1.2-1.24,2.065l-.116.116-.173.161.012-.012-.159.173c-1.5,1.52-3.01,3.031-4.493,4.568-.357.37-.521.119-.746-.107q-3.915-3.918-7.832-7.833c-1.8-1.8-3.608-3.6-5.556-5.549,1.089,0,2.015,0,2.941,0,1.381,0,1.723-.338,1.723-1.715,0-7.894.01-15.789-.016-23.684,0-.686.2-.835.849-.831,4.373.028,8.746.014,13.118.016.242,0,.484.023.725.036q0,5.345.008,10.689a1.2,1.2,0,0,0,0,2.4c0,3.688.022,7.376-.013,11.063-.007.72.218.913.9.87C2441.38,791.38,2442.28,791.427,2443.178,791.43Zm-14.67-11.953a1.173,1.173,0,1,0-.02-2.345,1.173,1.173,0,0,0,.02,2.345Zm6.72-1.2a1.172,1.172,0,1,0-1.1,1.2A1.174,1.174,0,0,0,2435.228,778.273Z" transform="translate(-2396.703 -764.011)" fill="#2ff980"/>
      <path id="Trazado_128736" data-name="Trazado 128736" d="M2486.44,777.128q0-5.345-.007-10.689c1.067-.013,2.135-.02,3.2-.044.323-.007.44.136.416.438-.006.072,0,.145,0,.218q0,12.018,0,24.036c0,.121-.017.242-.026.362-.9,0-1.8-.049-2.693.006-.686.043-.911-.149-.9-.87.035-3.687.014-7.375.013-11.063.7-.1,1.178-.441,1.177-1.2S2487.14,777.226,2486.44,777.128Z" transform="translate(-2443.547 -764.032)" fill="#00d154"/>
      <path id="Trazado_128737" data-name="Trazado 128737" d="M2485.5,864.692c.11-.869.786-1.407,1.24-2.065,1.408-2.04,2.865-4.048,4.3-6.071a1.76,1.76,0,0,0,.144-.324h2.668c.055.211-.111.276-.2.367q-3.9,3.913-7.817,7.818C2485.733,864.519,2485.613,864.6,2485.5,864.692Z" transform="translate(-2442.893 -827.623)" fill="#00d154"/>
      <path id="Trazado_128738" data-name="Trazado 128738" d="M2484.512,885.747l.174-.161Z" transform="translate(-2442.192 -848.401)" fill="#ea6834"/>
      <path id="Trazado_128739" data-name="Trazado 128739" d="M2484.009,886.268l.159-.173Z" transform="translate(-2441.836 -848.761)" fill="#ea6834"/>
      <path id="Trazado_128740" data-name="Trazado 128740" d="M2445.667,805.559a1.173,1.173,0,0,1-.02-2.345,1.173,1.173,0,1,1,.02,2.345Z" transform="translate(-2413.862 -790.094)" fill="#080403"/>
      <path id="Trazado_128741" data-name="Trazado 128741" d="M2465.845,804.354a1.172,1.172,0,1,1-1.168-1.142A1.166,1.166,0,0,1,2465.845,804.354Z" transform="translate(-2427.32 -790.092)" fill="#080503"/>
      <path id="Trazado_128742" data-name="Trazado 128742" d="M2483.692,803.133c.7.1,1.176.444,1.177,1.2s-.479,1.1-1.177,1.2a1.2,1.2,0,0,1,0-2.4Z" transform="translate(-2440.799 -790.036)" fill="#080402"/>
    </g>
  </g>
</svg>
