<svg id="Grupo_86614" data-name="Grupo 86614" xmlns="http://www.w3.org/2000/svg" xmlns:xlink="http://www.w3.org/1999/xlink" width="135.785" height="151.384" viewBox="0 0 135.785 151.384">
  <defs>
    <clipPath id="clip-path">
      <rect id="Rectángulo_36903" data-name="Rectángulo 36903" width="135.785" height="151.384" fill="none"/>
    </clipPath>
  </defs>
  <g id="Grupo_86613" data-name="Grupo 86613" clip-path="url(#clip-path)">
    <path id="Trazado_130715" data-name="Trazado 130715" d="M118.674,20.1c.393-1.779,1.013-2.3,2.831-2.312,2.463-.015,4.927-.031,7.389,0a6.689,6.689,0,0,1,6.857,6.5c.027.392.021.787.021,1.181q0,36.861.012,73.723a7.515,7.515,0,0,1-2.047,5.795,7.281,7.281,0,0,1-5.405,1.925c-4.135-.013-8.269,0-12.418,0-.078.682.364,1.068.618,1.509q4.773,8.307,9.594,16.586c.777,1.326.829,2.478-.338,3.568-1.858.651-2.545.389-3.595-1.427Q110.3,106.567,98.416,85.993c-2.015-3.485-4.9-3.46-6.933.057q-5.8,10.029-11.593,20.062-10.185,17.637-20.36,35.281c-1.584,2.751-.113,5.513,2.967,5.516q32.456.033,64.913,0c3.011,0,4.548-2.713,3.09-5.368-1.043-1.9-2.165-3.749-3.233-5.632-.947-1.669-.785-2.448.712-3.665a2.51,2.51,0,0,1,3.163,1.449c1.063,1.938,2.238,3.815,3.294,5.758a7.858,7.858,0,0,1-6.972,11.908q-32.52.047-65.041,0a7.854,7.854,0,0,1-6.971-11.82c.5-.935,1.04-1.853,1.677-2.983-2.574,0-4.917.011-7.26,0a6.347,6.347,0,0,1-4.991-2.152,2.235,2.235,0,0,0-2.045-.811c-1.364.076-3.179-.428-3.976.264-.835.725-.187,2.589-.249,3.953-.023.492.006.985-.007,1.478-.1,3.91-3.275,6.337-6.985,5.04-8.759-3.061-17.5-6.177-26.151-9.535C1.873,133.393.042,130.341.017,126.4c-.032-5.024-.009-10.048-.009-15.072q0-42.7,0-85.409c0-5.071,2.129-8.1,6.875-9.814,2.864-1.033,5.714-2.1,8.59-3.1.86-.3,1.261-.693,1.2-1.668-.091-1.521-.049-3.053-.017-4.579A6.585,6.585,0,0,1,23.522.012Q39.56-.018,55.6.005q12.491,0,24.982,0c4.467,0,7.19,2.679,7.262,7.119.016.985-.025,1.972.009,2.955A2.443,2.443,0,0,1,85.667,12.9c-1.819-.488-2.257-1.03-2.29-2.876-.015-.787,0-1.575,0-2.362-.008-2.585-.632-3.209-3.217-3.209H24.333c-.3,0-.591-.012-.886,0a2.185,2.185,0,0,0-2.322,2.306c-.041,1.031.034,2.069-.025,3.1-.049.865.235.952,1.014.729,4.107-1.17,6.258-.041,7.593,3.911q0,12.759.005,25.519c0,1.957-.437,2.524-2.272,3.042-1.82-.555-2.179-1.021-2.18-2.94q-.009-11.654,0-23.308c0-2.579-.062-2.62-2.425-1.761-4.148,1.507-8.308,2.979-12.442,4.526A13.217,13.217,0,0,0,6.621,21.17c-1.774,1.077-2.153,2.741-2.152,4.683q.033,49.88.016,99.76c0,3.175.957,4.538,3.939,5.624q6.442,2.345,12.884,4.689,5.474,1.985,10.955,3.952c1.637.584,1.882.4,1.886-1.353,0-1.132-.025-2.263-.04-3.395.015-.541.041-1.082.042-1.623,0-21.323-.084-42.647.07-63.968.032-4.5-1.005-8-4.892-10.615-2.933-1.971-4.089-5.055-4.068-8.577.011-1.9.312-2.363,2.157-2.973,1.283.248,2.343.906,2.254,2.295-.2,3.194,1.4,5.274,3.821,7.007,3.652,2.619,5.2,6.244,5.126,10.7-.075,4.722-.015,9.445-.014,14.168,0,3.109,0,3.058,3.182,3.094,1.071.012,1.286-.327,1.279-1.33-.045-6.4-.018-12.791-.028-19.187a12.9,12.9,0,0,1,.288-3.215c1.382-3.2,3.819-4.63,7.3-4.553,3.374.074,6.752-.031,10.128-.057.834.03,1.672.015,2.5.1,1.013.1,1.37-.24,1.348-1.3-.066-3.249-.017-6.5-.025-9.75q-.026-9.673-.065-19.347a1.861,1.861,0,0,0,.051-.437c-.522-4.354,2.713-8.051,7.939-7.821,4.37.193,8.757,0,13.136-.015l25.536.06c2.082.005,2.587.38,3.161,2.325-.377,1.6-1.4,2.158-3.02,2.154q-19.648-.056-39.3-.019c-2.289,0-2.988.7-2.989,3,0,9.845.021,19.69-.031,29.535-.007,1.25.235,1.641,1.584,1.633,10.932-.065,21.864-.039,32.8-.034,1.624,0,3.254-.037,4.872.071a6.59,6.59,0,0,1,5.79,4.928,28.859,28.859,0,0,1,.31,3.37c-.023.539-.068,1.079-.068,1.618q-.006,16.4,0,32.794c0,3.529,0,3.529,3.585,3.167,3.3.033,6.591.079,9.888.1,3.064.015,3.545-.467,3.545-3.476q0-15.583,0-31.164,0-21.194,0-42.388c0-2.494-.662-3.144-3.153-3.148-2.265,0-4.532-.027-6.8.008a2.353,2.353,0,0,1-2.675-2.15M85.587,87.21c.755-1.264,1.516-2.525,2.266-3.792,3.532-5.973,10.765-5.952,14.267.056,2.252,3.863,4.466,7.749,6.718,11.612.229.393.315.927.9,1.155a2.263,2.263,0,0,0,.084-.41q.005-16.18-.005-32.36c0-1.826-.807-2.625-2.622-2.626q-28.529-.018-57.056,0c-1.839,0-2.639.789-2.64,2.589q-.013,33.024,0,66.049c0,1.722.815,2.593,2.5,2.617,2.313.033,4.628-.025,6.942-.044,1.982.435,3.139-.293,4.148-2.146,3.171-5.826,6.585-11.519,9.894-17.27q7.313-12.71,14.611-25.429M38.6,109.092v17.134c0,2.925,0,2.83,2.907,2.956,1.415.061,1.562-.472,1.558-1.671-.041-11.768-.024-23.535-.024-35.3,0-3.177,0-3.11-3.127-3.175-1.2-.025-1.341.423-1.335,1.446.043,6.2.021,12.407.021,18.611" transform="translate(0 0)" fill="#050504"/>
    <path id="Trazado_130716" data-name="Trazado 130716" d="M161.822,78.562a28.991,28.991,0,0,0-.31-3.37,6.59,6.59,0,0,0-5.79-4.928c-1.619-.108-3.248-.07-4.872-.071-10.932,0-21.864-.031-32.8.034-1.348.008-1.591-.382-1.584-1.633.052-9.845.026-19.69.031-29.535,0-2.293.7-3,2.989-3q19.648-.007,39.3.018c1.622,0,2.643-.552,3.021-2.154l4.336-.009a2.353,2.353,0,0,0,2.675,2.15c2.265-.035,4.531-.011,6.8-.008,2.491,0,3.152.655,3.152,3.148q.006,21.194,0,42.388,0,15.582,0,31.164c0,3.009-.48,3.491-3.545,3.476-3.3-.017-6.591-.062-9.887-.1q.005-16.613.007-33.225a4.03,4.03,0,0,0-3.522-4.354" transform="translate(-47.469 -13.824)" fill="#efc8d9"/>
    <path id="Trazado_130717" data-name="Trazado 130717" d="M168.489,189.616c-1.5,1.217-1.659,2-.712,3.665,1.068,1.883,2.19,3.735,3.233,5.632,1.459,2.654-.078,5.365-3.09,5.367q-32.456.029-64.913,0c-3.079,0-4.551-2.764-2.967-5.516q10.16-17.652,20.36-35.281,5.794-10.033,11.593-20.062c2.033-3.517,4.918-3.543,6.933-.057q11.891,20.571,23.777,41.145c1.05,1.816,1.736,2.078,3.595,1.428a10.015,10.015,0,0,0,2.19,3.68m-30.8-16.759q0-5.389,0-10.778c0-1.847-.8-2.889-2.2-2.9s-2.241,1.046-2.242,2.868q-.008,10.7,0,21.409c0,1.8.87,2.847,2.284,2.81,1.359-.035,2.152-1.041,2.156-2.78.008-3.543,0-7.087,0-10.631m.155,19.94a2.349,2.349,0,0,0-2.261-2.413,2.313,2.313,0,0,0-2.456,2.2,2.4,2.4,0,0,0,2.313,2.528,2.444,2.444,0,0,0,2.4-2.312" transform="translate(-40.511 -57.371)" fill="#d795b5"/>
    <path id="Trazado_130718" data-name="Trazado 130718" d="M44.217,17.566c-1.335-3.952-3.486-5.081-7.592-3.91-.78.222-1.063.135-1.014-.73.058-1.03-.016-2.068.024-3.1a2.185,2.185,0,0,1,2.323-2.306c.294-.017.591,0,.886,0H94.666c2.585,0,3.209.624,3.218,3.209,0,.787-.011,1.575,0,2.362.034,1.846.471,2.388,2.291,2.876q-.013,2.407-.025,4.816c-4.379.02-8.766.208-13.137.015-5.226-.23-8.461,3.466-7.939,7.821a1.9,1.9,0,0,1-.051.438c-2.611.761-3.7,2.209-3.71,4.927q-.028,12.686-.05,25.371c-3.376.027-6.754.131-10.128.057-3.482-.076-5.919,1.35-7.3,4.553-4.534.422-5.82-1.629-6.639-4.856a16.9,16.9,0,0,1-.411-4.08c-.031-11.118-.016-22.236-.02-33.354,0-2.749-1.414-4.133-4.189-4.128-.787,0-1.575.014-2.362.021" transform="translate(-14.511 -3.062)" fill="#c8d1da"/>
    <path id="Trazado_130719" data-name="Trazado 130719" d="M11.175,31.182a13.224,13.224,0,0,1,3.768-1.588c4.133-1.546,8.294-3.018,12.442-4.526,2.363-.858,2.425-.818,2.425,1.761q0,11.654,0,23.308c0,1.919.36,2.385,2.18,2.94q-.011,2.155-.021,4.309c-1.845.611-2.146,1.07-2.158,2.973-.021,3.523,1.135,6.606,4.069,8.577,3.886,2.611,4.924,6.115,4.891,10.615-.154,21.322-.069,42.645-.071,63.968,0,.541-.027,1.082-.041,1.622a11.04,11.04,0,0,1-1.574-.331q-10.455-3.8-20.9-7.645c-3.427-1.263-4.964-3.517-4.964-7.182q0-48.295,0-96.589c0-.738-.034-1.476-.052-2.213" transform="translate(-4.555 -10.013)" fill="#fcefb5"/>
    <path id="Trazado_130720" data-name="Trazado 130720" d="M89.6,173.906c-2.315.019-4.629.078-6.943.044-1.681-.024-2.495-.895-2.5-2.617q-.014-33.024,0-66.049c0-1.8.8-2.588,2.639-2.589q28.528-.015,57.056,0c1.815,0,2.619.8,2.623,2.626q.025,16.18,0,32.36a2.2,2.2,0,0,1-.084.409c-.583-.227-.669-.761-.9-1.154-2.252-3.863-4.466-7.749-6.718-11.612-3.5-6.008-10.734-6.03-14.267-.056-.749,1.267-1.51,2.528-2.266,3.792a4.956,4.956,0,0,0-4.334,2.642c-2.283,3.779-4.44,7.634-6.65,11.458q-5.3,9.177-10.6,18.354c-2.371,4.121-4.71,8.26-7.064,12.391" transform="translate(-32.67 -41.852)" fill="#e8ecf0"/>
    <path id="Trazado_130721" data-name="Trazado 130721" d="M46.28,57.339,46.3,53.03c1.834-.517,2.271-1.084,2.272-3.042q0-12.759-.006-25.519c.787-.007,1.575-.019,2.362-.021,2.775-.006,4.188,1.378,4.189,4.127,0,11.118-.011,22.236.02,33.354a16.9,16.9,0,0,0,.411,4.08c.819,3.228,2.1,5.279,6.639,4.857a12.87,12.87,0,0,0-.289,3.215c.01,6.4-.017,12.791.028,19.186.007,1-.209,1.342-1.278,1.331-3.182-.036-3.182.015-3.183-3.094,0-4.723-.061-9.446.014-14.168.071-4.451-1.474-8.077-5.126-10.7-2.417-1.733-4.023-3.813-3.821-7.007.088-1.387-.972-2.046-2.254-2.294" transform="translate(-18.862 -9.964)" fill="#a2aab6"/>
    <path id="Trazado_130722" data-name="Trazado 130722" d="M9.695,35.733c.018.738.052,1.475.052,2.213q0,48.294,0,96.589c0,3.665,1.537,5.919,4.964,7.182q10.439,3.846,20.9,7.645a11.034,11.034,0,0,0,1.574.331c.014,1.132.042,2.264.04,3.4,0,1.749-.249,1.936-1.886,1.352q-5.486-1.955-10.955-3.952Q17.937,148.151,11.5,145.8c-2.982-1.086-3.938-2.449-3.938-5.624q0-49.879-.017-99.759c0-1.943.378-3.607,2.152-4.684" transform="translate(-3.074 -14.563)" fill="#f5cf76"/>
    <path id="Trazado_130723" data-name="Trazado 130723" d="M65.147,170.341c0-6.2.021-12.408-.021-18.611-.007-1.023.136-1.471,1.335-1.446,3.125.065,3.127,0,3.127,3.175,0,11.767-.017,23.535.024,35.3,0,1.2-.143,1.732-1.558,1.671-2.9-.126-2.907-.031-2.907-2.956V170.341" transform="translate(-26.543 -61.249)" fill="#e0af57"/>
    <path id="Trazado_130724" data-name="Trazado 130724" d="M192.972,109.274a4.03,4.03,0,0,1,3.522,4.354q.008,16.613-.007,33.225c-3.586.361-3.586.361-3.586-3.167q0-16.4,0-32.794c0-.539.044-1.079.068-1.618" transform="translate(-78.619 -44.536)" fill="#d896b5"/>
    <path id="Trazado_130725" data-name="Trazado 130725" d="M96.1,192.049c2.354-4.131,4.693-8.27,7.064-12.391q5.286-9.187,10.6-18.354c2.21-3.824,4.366-7.679,6.65-11.458a4.956,4.956,0,0,1,4.334-2.642q-7.3,12.715-14.611,25.429c-3.309,5.751-6.723,11.444-9.893,17.27-1.009,1.854-2.167,2.582-4.148,2.146" transform="translate(-39.168 -59.995)" fill="#c5ced6"/>
    <path id="Trazado_130726" data-name="Trazado 130726" d="M102.55,74.173q.025-12.686.05-25.371c.006-2.719,1.1-4.166,3.709-4.928q.034,9.674.065,19.347c.009,3.25-.04,6.5.025,9.75.021,1.063-.335,1.406-1.348,1.3-.828-.085-1.667-.07-2.5-.1" transform="translate(-41.796 -17.881)" fill="#9da5b0"/>
    <path id="Trazado_130727" data-name="Trazado 130727" d="M160.976,185.524c0,3.543.006,7.087,0,10.631,0,1.739-.8,2.745-2.156,2.78-1.414.037-2.283-1.01-2.284-2.81q-.011-10.7,0-21.409c0-1.822.841-2.877,2.242-2.868s2.2,1.05,2.2,2.9q.01,5.389,0,10.778" transform="translate(-63.795 -70.039)" fill="#010101"/>
    <path id="Trazado_130728" data-name="Trazado 130728" d="M161.05,226.928a2.444,2.444,0,0,1-2.4,2.312,2.4,2.4,0,0,1-2.313-2.528,2.313,2.313,0,0,1,2.456-2.2,2.349,2.349,0,0,1,2.261,2.413" transform="translate(-63.714 -91.503)" fill="#070506"/>
  </g>
</svg>
