<svg id="Grupo_86621" data-name="Grupo 86621" xmlns="http://www.w3.org/2000/svg" xmlns:xlink="http://www.w3.org/1999/xlink" width="45.738" height="40.8" viewBox="0 0 45.738 40.8">
  <defs>
    <clipPath id="clip-path">
      <rect id="Rectángulo_36904" data-name="Rectángulo 36904" width="45.738" height="40.8" fill="#45bbcc"/>
    </clipPath>
  </defs>
  <g id="Grupo_86620" data-name="Grupo 86620" clip-path="url(#clip-path)">
    <path id="Trazado_130729" data-name="Trazado 130729" d="M3.629,5.873c0-.689,0-1.356,0-2.022A3.61,3.61,0,0,1,7.483,0q17.2,0,34.408,0a3.606,3.606,0,0,1,3.842,3.858q0,4.373,0,8.746a3.579,3.579,0,0,1-3.71,3.76c-.967.013-1.934,0-2.9,0H38.6c0,.623-.02,1.186.016,1.746.008.116.2.264.342.32q2.941,1.164,5.892,2.3a.959.959,0,0,1,.721.817,20.559,20.559,0,0,1-.752,8.946,9.564,9.564,0,0,1-1.1,2.177A17.788,17.788,0,0,1,39.5,36.987c-.108.079-.223.148-.332.225a2.3,2.3,0,0,1-2.992-.059,20.826,20.826,0,0,1-3.6-3.189.559.559,0,0,0-.36-.2c-2.8-.012-5.591-.009-8.45-.009.138.589.258,1.146.41,1.694.021.076.2.149.314.153.49.017.982,0,1.472.012a2.589,2.589,0,0,1,.023,5.175q-6.672.03-13.344,0a2.589,2.589,0,0,1,.034-5.175c.476-.012.952-.011,1.428,0,.223,0,.352-.04.4-.294.1-.507.235-1.007.369-1.563H14.3q-5.132,0-10.264,0a3.723,3.723,0,0,1-4.01-4c0-6.559.038-13.119-.023-19.678A3.924,3.924,0,0,1,3.629,5.873M31.1,31.96c-.3-.735-.61-1.423-.86-2.131a.444.444,0,0,0-.509-.352c-1.532.011-3.065.006-4.6.005-.759,0-1.518.01-2.276-.007a.853.853,0,0,1-.875-.829.875.875,0,0,1,.778-.929,3.139,3.139,0,0,1,.489-.022h6.494v-.563c0-1.754.008-3.508,0-5.262a1.2,1.2,0,0,1,.916-1.248c1.927-.7,3.839-1.436,5.753-2.168.149-.057.376-.185.383-.292.038-.585.018-1.173.018-1.793h-6.4a4.357,4.357,0,0,1-.446-.012.877.877,0,0,1-.087-1.739,3.151,3.151,0,0,1,.577-.035q5.736,0,11.471,0a1.814,1.814,0,0,0,2.019-2.01q0-4.4,0-8.792a2.645,2.645,0,0,0-.056-.618,1.865,1.865,0,0,0-2.036-1.37H7.528c-.089,0-.179,0-.268,0A1.792,1.792,0,0,0,5.426,3.629q-.02,4.552,0,9.1a1.725,1.725,0,0,0,1.3,1.761,3.4,3.4,0,0,0,.883.083q7.454.007,14.908.006a2.741,2.741,0,0,1,.663.059.841.841,0,0,1,.618.915.85.85,0,0,1-.722.79,2.575,2.575,0,0,1-.4.021q-7.633,0-15.265,0A3.582,3.582,0,0,1,3.63,12.58c-.006-1.458,0-2.916,0-4.374V7.724A1.874,1.874,0,0,0,1.811,9.74q0,8.769,0,17.539c0,.129.015.258.025.415H2.4q6.539,0,13.078,0a2.786,2.786,0,0,1,.576.04.879.879,0,0,1-.127,1.738c-.163.013-.327.008-.491.008H1.845A1.986,1.986,0,0,0,4,31.96H31.1m12.85-8.021c-.016-.269-.065-.789-.069-1.308a.476.476,0,0,0-.374-.505c-1.83-.7-3.651-1.425-5.482-2.121a.973.973,0,0,0-.629,0c-1.839.678-3.667,1.384-5.506,2.062a.533.533,0,0,0-.414.581c.021,1.4.028,2.794.048,4.192a8.811,8.811,0,0,0,1.319,4.432,15,15,0,0,0,4.351,4.414.777.777,0,0,0,1.031.005,15.2,15.2,0,0,0,3.748-3.66,9.911,9.911,0,0,0,1.246-2.392,16.516,16.516,0,0,0,.73-5.7M19.311,39.008h6.242A2.971,2.971,0,0,0,26,38.994a.823.823,0,0,0,.7-.8.809.809,0,0,0-.755-.791c-.133-.012-.267-.007-.4-.007H13.1a3.891,3.891,0,0,0-.445.01.785.785,0,0,0-.684,1,.827.827,0,0,0,.919.606q3.21,0,6.42,0m3.043-3.422c-.127-.531-.261-1.017-.355-1.51-.049-.26-.163-.333-.417-.331-1.2.011-2.41.005-3.614.005h-1.25l-.439,1.836Z" transform="translate(0 0)" fill="#45bbcc"/>
    <path id="Trazado_130730" data-name="Trazado 130730" d="M103.85,156.7a.871.871,0,0,1-.88-.875.9.9,0,0,1,1.792-.013.874.874,0,0,1-.912.888" transform="translate(-84.559 -127.226)" fill="#45bbcc"/>
    <path id="Trazado_130731" data-name="Trazado 130731" d="M144.019,83.364a.89.89,0,0,1-.925-.883.9.9,0,0,1,1.8,0,.88.88,0,0,1-.876.883" transform="translate(-117.508 -67.002)" fill="#45bbcc"/>
    <path id="Trazado_130732" data-name="Trazado 130732" d="M193.4,138.632c1.218-1.263,2.341-2.429,3.467-3.591a1.644,1.644,0,0,1,.407-.339.845.845,0,0,1,1.027.148.856.856,0,0,1,.152,1.064,1.684,1.684,0,0,1-.25.311q-1.961,2.041-3.926,4.078a.942.942,0,0,1-1.569.02c-.385-.371-.774-.739-1.151-1.118a.9.9,0,0,1-.083-1.309.889.889,0,0,1,1.31.021,9.383,9.383,0,0,1,.618.715" transform="translate(-157.038 -110.527)" fill="#45bbcc"/>
  </g>
</svg>
