<svg xmlns="http://www.w3.org/2000/svg" xmlns:xlink="http://www.w3.org/1999/xlink" width="64" height="64" viewBox="0 0 64 64">
  <defs>
    <clipPath id="clip-path">
      <rect id="Rect치ngulo_36885" data-name="Rect치ngulo 36885" width="64" height="64" fill="#fff" stroke="#707070" stroke-width="1"/>
    </clipPath>
    <clipPath id="clip-path-2">
      <rect id="Rect치ngulo_36891" data-name="Rect치ngulo 36891" width="48.28" height="57.189" fill="none"/>
    </clipPath>
  </defs>
  <g id="Grupo_86522" data-name="Grupo 86522" clip-path="url(#clip-path)">
    <g id="Grupo_86531" data-name="Grupo 86531" transform="translate(7.86 3.405)">
      <g id="Grupo_86531-2" data-name="Grupo 86531" clip-path="url(#clip-path-2)">
        <path id="Trazado_130511" data-name="Trazado 130511" d="M46.094,15.559c.545.59.564.9.07,1.552A10.6,10.6,0,0,1,39.849,21.2c-.407.092-.489.243-.489.619,0,4.466.175,8.942-.066,13.4-.457,8.437-4.5,14.818-11.739,19.144a25.223,25.223,0,0,1-7.593,2.8,1.2,1.2,0,0,1-.5.013A24.215,24.215,0,0,1,6.241,49.952,22.97,22.97,0,0,1,.019,34.435c-.04-2.027.007-4.057-.019-6.085-.008-.623.171-1.044.81-1.191.725.217.873.406.875,1.142,0,1.061,0,2.122,0,3.183A41.138,41.138,0,0,0,1.83,36.67,21.509,21.509,0,0,0,9.449,50.691a18.817,18.817,0,0,0,6.036,3.51,22.087,22.087,0,0,0,4.086,1.266.9.9,0,0,0,.378-.038A22.413,22.413,0,0,0,30.3,50.367a20.763,20.763,0,0,0,7.3-14.861c.224-4.53.065-9.08.077-13.62,0-.056,0-.112,0-.168.01-.193-.09-.265-.272-.259a16.836,16.836,0,0,1-2.215-.228c-.445-.058-.288.3-.288.475q-.02,6.688-.016,13.377a18.933,18.933,0,0,1-3.78,10.367,25.273,25.273,0,0,1-2.929,3.122l-.149.133.01-.014-.128.121,0-.019a1.146,1.146,0,0,0-.469.354.074.074,0,0,0-.085.049,20.338,20.338,0,0,1-4.539,2.476,7.255,7.255,0,0,1-5.2.427A18.938,18.938,0,0,1,4.483,34.224c-.027-6.737-.007-13.473-.006-20.21A1.4,1.4,0,0,1,5.807,12.4a28,28,0,0,0,6.162-1.7A26.281,26.281,0,0,0,18.6,6.734a1.449,1.449,0,0,1,2.191.005c.131.1.26.21.392.314a26.515,26.515,0,0,0,5.161,3.185c.33.155.51.218.527-.274a5.07,5.07,0,0,1,.276-1.7c.221-.559-.02-.759-.482-.993a22.192,22.192,0,0,1-6.553-5.036c-.322-.36-.471-.418-.823-.023a22.288,22.288,0,0,1-5.758,4.629A23.366,23.366,0,0,1,2.519,9.88c-.832.021-.832.031-.832.847q0,6.56,0,13.12c0,.74-.2.981-.881,1.112a.881.881,0,0,1-.8-1.016c.007-4.689,0-9.378.006-14.067A1.483,1.483,0,0,1,1.689,8.238,22.972,22.972,0,0,0,9.861,6.729,21.393,21.393,0,0,0,18.271.846C19.258-.277,20.1-.285,21.1.84a21.777,21.777,0,0,0,6.428,5.006c.319.164.444.124.616-.19A10.7,10.7,0,0,1,48.1,8.85a10.184,10.184,0,0,1-.012,3.828c-.132.692-.338.851-1.055.881a.912.912,0,0,1-.6-1.155,8.666,8.666,0,0,0-.882-5.841,8.7,8.7,0,0,0-7.019-4.776,6.062,6.062,0,0,0-2.157-.007,9.033,9.033,0,0,0-1.025,17.726,6.7,6.7,0,0,0,3.183.176,4.562,4.562,0,0,0,.608-.04,8.916,8.916,0,0,0,5.635-3.5,1.166,1.166,0,0,1,1.311-.582M30.723,19.022c-.079-.077-.156-.157-.239-.231a10.6,10.6,0,0,1-3.426-5.918.889.889,0,0,0-.586-.762,25.343,25.343,0,0,1-6.342-3.771.572.572,0,0,0-.878,0,27.422,27.422,0,0,1-12.573,5.6c-.416.073-.539.184-.538.61q.022,9.738.009,19.476a16.809,16.809,0,0,0,3.088,9.885,16.284,16.284,0,0,0,7.4,5.953c.288.124.581.235.861.373a5.025,5.025,0,0,0,4.318.034c6.707-2.678,10.655-7.564,11.29-14.743.43-4.861.081-9.773.115-14.662a.437.437,0,0,0-.293-.468,12.152,12.152,0,0,1-2.211-1.378" transform="translate(0 0)" fill="#040303"/>
        <path id="Trazado_130512" data-name="Trazado 130512" d="M3.593,31.691c.684-.132.881-.372.881-1.113q0-6.56,0-13.12c0-.816,0-.826.832-.847a23.363,23.363,0,0,0,11.009-3.038,22.287,22.287,0,0,0,5.758-4.629c.352-.4.5-.337.823.022A22.192,22.192,0,0,0,29.45,14c.462.234.7.434.482.993a5.069,5.069,0,0,0-.276,1.7c-.016.492-.2.429-.526.274a26.521,26.521,0,0,1-5.161-3.185c-.132-.1-.261-.21-.392-.314a1.449,1.449,0,0,0-2.191-.005,26.28,26.28,0,0,1-6.627,3.965,28,28,0,0,1-6.162,1.7,1.4,1.4,0,0,0-1.33,1.613c0,6.737-.022,13.473.006,20.21A18.937,18.937,0,0,0,20.407,58.83a7.255,7.255,0,0,0,5.2-.427,20.347,20.347,0,0,0,4.539-2.476.526.526,0,0,1-.268.515,22.93,22.93,0,0,1-6.368,3.692,14.522,14.522,0,0,1-5.238.8,18.817,18.817,0,0,1-6.036-3.51A21.508,21.508,0,0,1,4.619,43.4a41.184,41.184,0,0,1-.143-5.186c-.007-1.061,0-2.122,0-3.183,0-.736-.15-.924-.875-1.142q0-1.1-.006-2.2" transform="translate(-2.789 -6.731)" fill="#cb696f"/>
        <path id="Trazado_130513" data-name="Trazado 130513" d="M179.791,21.758a1.166,1.166,0,0,0-1.311.582,8.914,8.914,0,0,1-5.635,3.5,4.562,4.562,0,0,1-.608.04,14.213,14.213,0,0,0,2.55-1.84,10.058,10.058,0,0,0,2.483-3.959,9.765,9.765,0,0,0,.441-4.414c-.021-.171-.07-.282-.251-.3a2.6,2.6,0,0,0-1.2-3.418,3.943,3.943,0,0,0-1.186-1.81,12.54,12.54,0,0,0-2.84-2.149,8.7,8.7,0,0,1,7.019,4.776,8.666,8.666,0,0,1,.882,5.841.912.912,0,0,0,.6,1.155,5.422,5.422,0,0,1-.942,2" transform="translate(-133.696 -6.199)" fill="#a1d0a6"/>
        <path id="Trazado_130514" data-name="Trazado 130514" d="M37.951,78.092a16.281,16.281,0,0,1-7.4-5.954,16.81,16.81,0,0,1-3.088-9.885q.007-9.738-.009-19.476c0-.426.122-.538.538-.61a27.419,27.419,0,0,0,12.573-5.6.572.572,0,0,1,.878,0,25.339,25.339,0,0,0,6.342,3.771.889.889,0,0,1,.586.762,10.6,10.6,0,0,0,3.426,5.918c.082.074.159.154.239.231,0,4.109-.006,8.217.007,12.326a24.171,24.171,0,0,1-.227,3.877,17.746,17.746,0,0,1-2.248,6.294,17.414,17.414,0,0,1-6.375,6.373,12.23,12.23,0,0,1-4.356,1.758c-.284.04-.648-.086-.88.217M51.706,56.826A10.718,10.718,0,1,0,41.013,67.554,10.724,10.724,0,0,0,51.706,56.826" transform="translate(-21.307 -28.225)" fill="#fdfdfd"/>
        <path id="Trazado_130515" data-name="Trazado 130515" d="M137.405,7.635a12.549,12.549,0,0,1,2.84,2.149,3.943,3.943,0,0,1,1.186,1.81,2.725,2.725,0,0,0-3.132.787c-1.027,1.076-2.114,2.095-3.141,3.17-.332.348-.5.366-.853.008a2.505,2.505,0,1,0-3.56,3.523c.541.563,1.1,1.109,1.655,1.659a3.079,3.079,0,0,0,4.679-.017c1.582-1.574,3.154-3.157,4.736-4.731a6.084,6.084,0,0,0,.814-.981c.181.022.229.134.251.3a9.762,9.762,0,0,1-.442,4.414,10.06,10.06,0,0,1-2.483,3.959,14.222,14.222,0,0,1-2.55,1.84,6.7,6.7,0,0,1-3.183-.176,9.033,9.033,0,0,1,1.025-17.726,6.062,6.062,0,0,1,2.158.007" transform="translate(-98.865 -5.848)" fill="#bbe0a4"/>
        <path id="Trazado_130516" data-name="Trazado 130516" d="M69.208,127.855a14.523,14.523,0,0,0,5.238-.8,22.928,22.928,0,0,0,6.368-3.692.526.526,0,0,0,.268-.515.075.075,0,0,1,.085-.049c.258.017.487,0,.469-.354l0,.019.128-.121-.01.014.148-.133A25.257,25.257,0,0,0,84.83,119.1a18.934,18.934,0,0,0,3.78-10.366c.162-.033.2-.149.191-.291-.022-.685.126-1.357.123-2.045-.02-3.839-.009-7.678-.009-11.516a16.835,16.835,0,0,0,2.215.228c.182-.005.282.066.272.259,0,.056,0,.112,0,.167-.011,4.541.147,9.09-.077,13.62a20.763,20.763,0,0,1-7.3,14.861,22.414,22.414,0,0,1-10.353,5.061.891.891,0,0,1-.378.038,22.076,22.076,0,0,1-4.086-1.265" transform="translate(-53.722 -73.654)" fill="#c75357"/>
        <path id="Trazado_130517" data-name="Trazado 130517" d="M74.383,115.856c.232-.3.6-.177.88-.217a12.227,12.227,0,0,0,4.356-1.758,17.414,17.414,0,0,0,6.375-6.373,17.751,17.751,0,0,0,2.248-6.294,24.171,24.171,0,0,0,.227-3.877c-.013-4.109-.006-8.217-.007-12.326a12.144,12.144,0,0,0,2.211,1.378.438.438,0,0,1,.293.468c-.035,4.889.314,9.8-.115,14.662-.635,7.179-4.583,12.064-11.29,14.743a5.024,5.024,0,0,1-4.317-.034c-.28-.138-.574-.249-.861-.373" transform="translate(-57.739 -65.99)" fill="#eae9eb"/>
        <path id="Trazado_130518" data-name="Trazado 130518" d="M156.186,94.864c0,3.839-.011,7.678.009,11.516,0,.688-.145,1.36-.123,2.045,0,.142-.029.258-.191.291q0-6.689.016-13.377c0-.178-.157-.533.288-.475" transform="translate(-120.994 -73.633)" fill="#cd686f"/>
        <path id="Trazado_130519" data-name="Trazado 130519" d="M123.124,218.059c.018.349-.211.371-.469.354a1.145,1.145,0,0,1,.469-.354" transform="translate(-95.21 -169.266)" fill="#cb696f"/>
        <path id="Trazado_130520" data-name="Trazado 130520" d="M125.417,217.071l-.148.133.148-.133" transform="translate(-97.239 -168.499)" fill="#cb696f"/>
        <path id="Trazado_130521" data-name="Trazado 130521" d="M124.87,217.6l-.128.121.128-.121" transform="translate(-96.83 -168.911)" fill="#cb696f"/>
        <path id="Trazado_130522" data-name="Trazado 130522" d="M151.651,28.4a6.085,6.085,0,0,1-.814.981c-1.582,1.574-3.154,3.157-4.736,4.731a3.079,3.079,0,0,1-4.679.017c-.555-.549-1.114-1.1-1.655-1.659a2.505,2.505,0,1,1,3.56-3.522c.35.358.521.339.854-.008,1.027-1.075,2.114-2.094,3.141-3.17a2.725,2.725,0,0,1,3.132-.787,2.6,2.6,0,0,1,1.2,3.417m-10.163,1.435a.764.764,0,0,0-.745.488.792.792,0,0,0,.179.923c.628.633,1.246,1.278,1.9,1.885a1.315,1.315,0,0,0,1.9-.033q2.622-2.582,5.207-5.2a.809.809,0,0,0,.042-1.2.871.871,0,0,0-1.208.013c-.114.095-.215.205-.32.31-1.262,1.262-2.518,2.529-3.786,3.783a1.164,1.164,0,0,1-1.814,0c-.242-.231-.475-.471-.71-.708a.831.831,0,0,0-.648-.268" transform="translate(-107.888 -19.237)" fill="#050504"/>
        <path id="Trazado_130523" data-name="Trazado 130523" d="M61.49,90.649a10.718,10.718,0,1,1-10.7-10.715,10.728,10.728,0,0,1,10.7,10.715M51.763,99.6a5.586,5.586,0,0,0,.61-.042A9.045,9.045,0,0,0,58.452,85.9,8.567,8.567,0,0,0,51.763,81.7a6.357,6.357,0,0,0-2.6.052A9.032,9.032,0,0,0,46.309,98.5a8.248,8.248,0,0,0,5.454,1.1" transform="translate(-31.091 -62.048)" fill="#040303"/>
        <path id="Trazado_130524" data-name="Trazado 130524" d="M147.317,35.667a.83.83,0,0,1,.648.267c.235.237.469.477.71.708a1.164,1.164,0,0,0,1.814,0c1.269-1.254,2.525-2.522,3.786-3.784.1-.1.206-.215.32-.31a.871.871,0,0,1,1.208-.013.809.809,0,0,1-.042,1.2q-2.59,2.614-5.207,5.2a1.315,1.315,0,0,1-1.9.033c-.653-.607-1.271-1.251-1.9-1.885a.792.792,0,0,1-.179-.923.762.762,0,0,1,.744-.488" transform="translate(-113.716 -25.068)" fill="#fbfbfb"/>
        <path id="Trazado_130525" data-name="Trazado 130525" d="M57.56,105.352a8.248,8.248,0,0,1-5.454-1.1A9.032,9.032,0,0,1,54.963,87.5a6.353,6.353,0,0,1,2.6-.052.89.89,0,0,0,.162.144,9.552,9.552,0,0,1,3.952,3.7A6.123,6.123,0,0,1,62.7,93.907c-1.041,0-2.083-.012-3.124,0-.351,0-.494-.09-.483-.471.026-.892.015-1.786.006-2.678a1.556,1.556,0,0,0-1.725-1.728q-.781-.005-1.562,0a1.526,1.526,0,0,0-1.735,1.7c-.008.874-.021,1.749.006,2.623.013.408-.095.559-.526.543-.892-.031-1.786-.025-2.678,0A1.539,1.539,0,0,0,49.2,95.6c0,.5,0,1,0,1.507a1.6,1.6,0,0,0,1.811,1.82c.874.012,1.748.015,2.622,0,.338-.007.457.1.449.443-.02.874-.01,1.748-.006,2.623.006,1.221.558,1.777,1.763,1.782q.754,0,1.507,0a1.567,1.567,0,0,0,1.755-1.755c.007-.874.017-1.749-.006-2.623-.01-.366.11-.476.473-.472,1.041.012,2.082-.013,3.123-.024a1.335,1.335,0,0,1-.008.387,10.152,10.152,0,0,1-2.863,4.479,18.734,18.734,0,0,1-2.258,1.587" transform="translate(-36.888 -67.796)" fill="#cb686e"/>
        <path id="Trazado_130526" data-name="Trazado 130526" d="M92.385,105.746a18.736,18.736,0,0,0,2.258-1.587,10.152,10.152,0,0,0,2.863-4.479,1.335,1.335,0,0,0,.008-.387,1.529,1.529,0,0,0,1.247-1.659q.007-.833,0-1.666A1.532,1.532,0,0,0,97.524,94.3,6.123,6.123,0,0,0,96.5,91.695a9.552,9.552,0,0,0-3.952-3.7.89.89,0,0,1-.162-.144,8.566,8.566,0,0,1,6.689,4.194A9.045,9.045,0,0,1,93,105.7a5.588,5.588,0,0,1-.61.042" transform="translate(-71.713 -68.19)" fill="#c55256"/>
        <path id="Trazado_130527" data-name="Trazado 130527" d="M68.509,99.774a1.532,1.532,0,0,1,1.238,1.668q.007.833,0,1.666a1.529,1.529,0,0,1-1.247,1.659c-1.041.011-2.082.036-3.123.024-.364,0-.483.106-.473.472.023.874.013,1.748.006,2.622a1.568,1.568,0,0,1-1.755,1.755q-.754,0-1.507,0c-1.205,0-1.757-.561-1.763-1.782,0-.874-.015-1.749.005-2.623.008-.345-.111-.451-.449-.443-.874.019-1.748.016-2.622,0a1.6,1.6,0,0,1-1.811-1.82c0-.5,0-1,0-1.507a1.539,1.539,0,0,1,1.68-1.714c.892-.02,1.786-.027,2.678,0,.431.015.539-.136.526-.543-.028-.874-.015-1.748-.007-2.623a1.526,1.526,0,0,1,1.735-1.7q.781,0,1.562,0a1.556,1.556,0,0,1,1.725,1.728c.009.893.02,1.786-.006,2.678-.011.381.132.476.483.471,1.041-.015,2.083,0,3.124,0m-5.277,6.189c0-.521-.008-1.042,0-1.563a1.148,1.148,0,0,1,1.273-1.281c.781-.014,1.562,0,2.343,0,1.249,0,1.235,0,1.232-1.249,0-.342-.084-.445-.433-.437-.985.024-1.971.014-2.957.007-1.058-.008-1.455-.4-1.46-1.445,0-.725,0-1.451,0-2.176,0-1.276,0-1.264-1.285-1.25-.315,0-.406.086-.4.4.02.985.01,1.972.007,2.957,0,1.1-.412,1.5-1.525,1.512-.707,0-1.413,0-2.12,0-1.255,0-1.241,0-1.236,1.246,0,.342.089.447.435.439,1-.022,2.008-.011,3.013-.006s1.425.417,1.432,1.422.019,2.009-.008,3.013c-.01.359.105.454.438.419a3.379,3.379,0,0,1,.78,0c.416.054.5-.13.475-.5-.031-.5-.008-1-.007-1.506" transform="translate(-42.698 -73.663)" fill="#040303"/>
        <path id="Trazado_130528" data-name="Trazado 130528" d="M69.018,111.742c0,.5-.023,1.006.008,1.506.023.372-.059.557-.475.5a3.379,3.379,0,0,0-.78,0c-.333.035-.448-.06-.439-.419.027-1,.015-2.009.008-3.013s-.424-1.417-1.432-1.422-2.009-.015-3.013.006c-.346.008-.434-.1-.435-.439,0-1.246-.019-1.246,1.236-1.246.707,0,1.413,0,2.12,0,1.112-.007,1.521-.412,1.525-1.512,0-.986.013-1.972-.007-2.957-.006-.316.084-.4.4-.4,1.285-.015,1.284-.026,1.284,1.25,0,.725,0,1.451,0,2.176.006,1.041.4,1.437,1.46,1.445.986.007,1.972.017,2.957-.007.348-.009.432.095.433.437,0,1.249.016,1.249-1.233,1.249-.781,0-1.563-.011-2.343,0a1.148,1.148,0,0,0-1.273,1.281c-.01.521,0,1.042,0,1.563" transform="translate(-48.483 -79.442)" fill="#f8f8f8"/>
      </g>
    </g>
  </g>
</svg>
