<svg id="Grupo_86573" data-name="Grupo 86573" xmlns="http://www.w3.org/2000/svg" xmlns:xlink="http://www.w3.org/1999/xlink" width="67.978" height="76.48" viewBox="0 0 67.978 76.48">
  <defs>
    <clipPath id="clip-path">
      <rect id="Rectángulo_36900" data-name="Rectángulo 36900" width="67.978" height="76.48" fill="none"/>
    </clipPath>
  </defs>
  <g id="Grupo_86572" data-name="Grupo 86572" clip-path="url(#clip-path)">
    <path id="Trazado_130622" data-name="Trazado 130622" d="M10.274,18.775c-.489-.964-.42-1.259.46-1.958A28.523,28.523,0,0,1,45.813,16.4c.152.115.31.221.555.394,0-1.853-.013-3.606,0-5.358.026-2.917-.392-1.918,1.644-3.988,2.27-2.307,4.575-4.578,6.857-6.873.407-.409.813-.733,1.439-.487.656.258.733.785.734,1.4,0,2.066.044,4.132.037,6.2a1.743,1.743,0,0,0,.459,1.112A4.994,4.994,0,0,0,62.6,10.938a32.79,32.79,0,0,1,3.954-.023,1.242,1.242,0,0,1,1.34.727,1.226,1.226,0,0,1-.42,1.4q-4.049,4.03-8.078,8.081a1.735,1.735,0,0,1-1.336.523c-2.264-.016-4.529-.007-6.813-.007-.047.253.16.389.277.549A28.49,28.49,0,0,1,45.172,62.27a1.036,1.036,0,0,0-.45,1.48c.93,2.486,1.8,4.994,2.644,7.511a3.9,3.9,0,0,1-3.912,5.194,3.738,3.738,0,0,1-3.489-2.6c-.832-2.284-1.626-4.582-2.407-6.884-.17-.5-.316-.694-.919-.513a27.894,27.894,0,0,1-16.313-.026c-.453-.135-.58-.053-.726.377q-1.2,3.522-2.47,7.02a3.918,3.918,0,1,1-7.389-2.609q1.333-3.909,2.735-7.795a.686.686,0,0,0-.3-.961A27.792,27.792,0,0,1,.3,43.071a27.908,27.908,0,0,1,6.746-22.72c.586-.69.97-.733,1.824-.26A1.271,1.271,0,0,1,8.685,21.9c-.255.271-.489.564-.718.858A26.026,26.026,0,0,0,2.508,42.762a22.79,22.79,0,0,0,2.609,8.183,4.225,4.225,0,0,0,.2.479c4.914,8.659,12.329,13.439,22.277,13.937A25.227,25.227,0,0,0,46.283,58.5a23.765,23.765,0,0,0,5.536-7.25l.27-.55.187-.348c.071-.13.151-.256.212-.391A26.308,26.308,0,0,0,49.94,23.813c-.292-.414-.487-.53-.88-.094a28.155,28.155,0,0,1-2.006,2A.8.8,0,0,0,46.9,27a21.924,21.924,0,0,1-.462,24.936c-.636.88-1.04.986-1.932.508-.566-.672-.3-1.252.137-1.879a19.5,19.5,0,0,0,3.063-16.322,17.936,17.936,0,0,0-2.873-6.3c-1.039,1.045-2.024,2.066-3.048,3.047-.319.306-.306.514-.105.879a14.237,14.237,0,0,1,1.572,10.162c-1.31,5.961-4.936,9.957-10.814,11.539-5.912,1.591-11.046-.083-15.215-4.593-.644-.7-.633-1.118-.053-1.9.756-.379,1.282-.092,1.817.5a12.332,12.332,0,0,0,11.2,4.194A12.7,12.7,0,0,0,41.295,38.359a11.774,11.774,0,0,0-1.54-5.327c-1.07,1.071-2.071,2.106-3.112,3.1a1.06,1.06,0,0,0-.318,1.173,7.992,7.992,0,1,1-5.331-5.786.708.708,0,0,0,.844-.189c.915-.95,1.843-1.889,2.8-2.8.39-.37.274-.516-.128-.723a12.332,12.332,0,0,0-8.027-1.292,12.725,12.725,0,0,0-9.945,16.952,1.23,1.23,0,0,1-.484,1.671c-.929.206-1.3.026-1.611-.833a14.67,14.67,0,0,1-.727-7.634A15,15,0,0,1,36.21,26.223a.58.58,0,0,0,.869-.129c.806-.847,1.621-1.689,2.484-2.476.477-.435.466-.633-.09-.988A19.191,19.191,0,0,0,25.014,19.7C17.34,21.216,12.093,25.77,9.736,33.187S9.08,47.332,14.471,52.945a19.631,19.631,0,0,0,26.667,1.387c.626-.516,1.211-.768,1.93-.238.452.947.391,1.261-.424,1.921a21.6,21.6,0,0,1-17.794,4.78A21.884,21.884,0,0,1,7.732,32.081c3.068-8.729,9.457-13.712,18.632-14.842a20.783,20.783,0,0,1,14.7,3.8c.54.374.812.319,1.216-.133.63-.7,1.311-1.365,2-2.008.37-.344.443-.529-.032-.877a25.927,25.927,0,0,0-14.614-5.16A25.828,25.828,0,0,0,12.1,18.62a1.366,1.366,0,0,1-1.823.156m50.46-5.612c-.5,0-.994-.146-1.446.319-1.786,1.837-3.614,3.634-5.422,5.45-.108.109-.318.189-.211.418h1.109c.868.013,1.737.006,2.6.05a1.177,1.177,0,0,0,.975-.4c1.761-1.783,3.541-3.548,5.309-5.325.128-.129.334-.218.331-.514ZM54.791,7.451V3.8C53.307,5.3,52,6.621,50.684,7.939c-2.173,2.178-2.175,2.176-2.052,5.279,0,.025.007.049.01.074v1.1c.269-.038.364-.232.5-.364,1.758-1.75,3.5-3.517,5.274-5.25a1.184,1.184,0,0,0,.378-1.322m-11.952,57.8c-.044-.165-.1-.328-.131-.5-.112-.635-.37-.742-.931-.37a12.687,12.687,0,0,1-1.584.775c-.837.4-.837.4-.377,1.306.319,1.328.862,2.583,1.29,3.875.319.965.639,1.934,1.038,2.867a1.654,1.654,0,0,0,3.094-1.157c-.779-2.274-1.6-4.534-2.4-6.8m-28.608-.007c-.8,2.267-1.607,4.53-2.382,6.8a1.658,1.658,0,0,0,3.036,1.3.418.418,0,0,0,.033-.066c.827-2.256,1.683-4.5,2.354-6.813.451-.91.45-.909-.4-1.317-.4-.193-.8-.4-1.2-.587-1.16-.548-.96-.806-1.417.609a.689.689,0,0,0-.017.072M29.5,39.23c.642.351,1-.11,1.38-.49Q43.992,25.628,57.118,12.525c.486-.485.4-.743-.1-1.049-.079-.095-.152-.2-.238-.283-.806-.832-.807-.832-1.607-.032L29.385,36.945a4.7,4.7,0,0,0-.56.6A1.036,1.036,0,0,0,29.5,39.23m.142-5.7a5.62,5.62,0,0,0-6.157,2.86,5.749,5.749,0,0,0,8.151,7.566c1.851-1.179,3.037-3.65,2.513-5.328-.63.636-1.233,1.26-1.853,1.868A3.411,3.411,0,1,1,27.5,35.657c.695-.7,1.4-1.394,2.135-2.124" transform="translate(-0.001 0)" fill="#030203"/>
    <path id="Trazado_130623" data-name="Trazado 130623" d="M15.577,48.819a1.367,1.367,0,0,0,1.823-.156,26.327,26.327,0,0,1,32.151-.6c.476.348.4.533.032.877-.693.643-1.373,1.3-2,2.008-.4.451-.676.507-1.216.133a20.784,20.784,0,0,0-14.7-3.8c-9.175,1.13-15.564,6.113-18.632,14.842A21.883,21.883,0,0,0,30.153,90.838a21.6,21.6,0,0,0,17.794-4.78c.815-.659.876-.973.425-1.921a13.729,13.729,0,0,0,1.44-1.653c.892.478,1.3.372,1.932-.508a21.924,21.924,0,0,0,.462-24.936.8.8,0,0,1,.151-1.273,27.9,27.9,0,0,0,2.005-2c.394-.436.588-.32.88.094A26.309,26.309,0,0,1,57.791,80c-.061.134-.141.261-.212.391-.182.051-.2.191-.187.348l-.27.55c-.387-.017-.472.327-.627.557A27.151,27.151,0,0,1,53.8,85.2a27.732,27.732,0,0,1-6.543,5.1A27.077,27.077,0,0,1,35.4,93.8a26.441,26.441,0,0,1-6.363-.407,27.279,27.279,0,0,1-14.22-7.261,25.246,25.246,0,0,1-3.773-4.581c-.152-.232-.238-.573-.623-.563A22.788,22.788,0,0,1,7.81,72.8,26.029,26.029,0,0,1,13.269,52.8c.23-.294.463-.586.719-.858a1.272,1.272,0,0,0,.181-1.805l1.408-1.316" transform="translate(-5.303 -30.043)" fill="#826be9"/>
    <path id="Trazado_130624" data-name="Trazado 130624" d="M64.872,97.688a13.707,13.707,0,0,1-1.44,1.653c-.72-.53-1.3-.278-1.931.238a19.63,19.63,0,0,1-26.667-1.387c-5.391-5.613-7.089-12.35-4.735-19.757s7.6-11.971,15.279-13.483a19.191,19.191,0,0,1,14.459,2.925c.556.355.568.553.09.989-.863.787-1.678,1.629-2.484,2.476a.58.58,0,0,1-.869.129A15,15,0,0,0,34.081,81.925a14.667,14.667,0,0,0,.727,7.634c.314.859.682,1.039,1.611.833l1.117,1.932c-.58.785-.592,1.206.053,1.9,4.169,4.51,9.3,6.184,15.215,4.593,5.878-1.582,9.5-5.578,10.814-11.54a14.238,14.238,0,0,0-1.572-10.162c-.2-.365-.215-.573.105-.879,1.023-.981,2.008-2,3.048-3.047a17.942,17.942,0,0,1,2.873,6.3,19.5,19.5,0,0,1-3.063,16.321c-.437.627-.7,1.207-.137,1.879" transform="translate(-20.364 -45.248)" fill="#f3f1ff"/>
    <path id="Trazado_130625" data-name="Trazado 130625" d="M54.13,108.686l-1.117-1.932a1.23,1.23,0,0,0,.484-1.671,12.725,12.725,0,0,1,9.945-16.952,12.331,12.331,0,0,1,8.027,1.292c.4.207.518.353.128.723-.957.907-1.885,1.845-2.8,2.8a.708.708,0,0,1-.844.189,7.986,7.986,0,1,0,5.331,5.786,1.06,1.06,0,0,1,.318-1.173c1.04-.994,2.042-2.029,3.111-3.1a11.782,11.782,0,0,1,1.54,5.327,12.7,12.7,0,0,1-11.106,13.407,12.332,12.332,0,0,1-11.2-4.194c-.535-.589-1.061-.875-1.817-.5" transform="translate(-36.958 -61.61)" fill="#826be9"/>
    <path id="Trazado_130626" data-name="Trazado 130626" d="M17.09,170.19c.384-.01.471.332.623.564a25.244,25.244,0,0,0,3.773,4.581,27.279,27.279,0,0,0,14.22,7.261,26.44,26.44,0,0,0,6.363.408,27.077,27.077,0,0,0,11.864-3.493,27.723,27.723,0,0,0,6.543-5.1,27.175,27.175,0,0,0,2.691-3.359c.155-.23.239-.574.627-.557a23.771,23.771,0,0,1-5.536,7.25,25.226,25.226,0,0,1-18.69,6.865c-9.948-.5-17.363-5.278-22.277-13.937a4.227,4.227,0,0,1-.2-.479" transform="translate(-11.974 -119.244)" fill="#583ae2"/>
    <path id="Trazado_130627" data-name="Trazado 130627" d="M96.406,63.96a1.036,1.036,0,0,1-.671-1.689,4.719,4.719,0,0,1,.56-.6L122.083,35.89c.8-.8.8-.8,1.607.032.086.088.159.189.238.284-.214.24-.417.492-.645.719Q110.142,50.069,97,63.213c-.224.224-.515.4-.593.747" transform="translate(-66.911 -24.729)" fill="#ab9df1"/>
    <path id="Trazado_130628" data-name="Trazado 130628" d="M82.974,111.695c-.735.73-1.44,1.422-2.135,2.124a3.411,3.411,0,1,0,4.789,4.841c.62-.608,1.223-1.232,1.853-1.868.524,1.678-.662,4.149-2.513,5.328a5.749,5.749,0,0,1-8.151-7.566,5.621,5.621,0,0,1,6.157-2.86" transform="translate(-53.338 -78.162)" fill="#f3f1ff"/>
    <path id="Trazado_130629" data-name="Trazado 130629" d="M98.532,66.094c.078-.344.369-.523.593-.747q13.14-13.146,26.284-26.288c.227-.228.43-.479.644-.719.5.306.587.564.1,1.049Q113.016,52.479,99.912,65.6c-.38.38-.738.841-1.38.49" transform="translate(-69.037 -26.863)" fill="#826be9"/>
    <path id="Trazado_130630" data-name="Trazado 130630" d="M44.8,219.179c-.672,2.31-1.527,4.556-2.354,6.812a.435.435,0,0,1-.034.067,1.658,1.658,0,0,1-3.036-1.3c.776-2.274,1.586-4.537,2.383-6.8.271.111.543.217.81.334a6.808,6.808,0,0,0,2.231.887" transform="translate(-27.525 -152.713)" fill="#8fd6e0"/>
    <path id="Trazado_130631" data-name="Trazado 130631" d="M136.031,217.98c.8,2.266,1.619,4.527,2.4,6.8a1.654,1.654,0,0,1-3.094,1.157c-.4-.933-.719-1.9-1.038-2.867-.427-1.293-.97-2.547-1.29-3.876a1.68,1.68,0,0,0,.908-.224,15.532,15.532,0,0,1,2.116-.991" transform="translate(-93.192 -152.729)" fill="#8fd6e0"/>
    <path id="Trazado_130632" data-name="Trazado 130632" d="M162.372,22.184a.69.69,0,0,1-.011-.074c-.123-3.1-.121-3.1,2.052-5.278,1.315-1.318,2.623-2.644,4.107-4.14v3.653c-.205.175-.423.336-.613.526q-2.418,2.407-4.829,4.819c-.2.2-.36.487-.706.495" transform="translate(-113.729 -8.892)" fill="#2ff980"/>
    <path id="Trazado_130633" data-name="Trazado 130633" d="M188.914,43.973h3.248c0,.3-.2.385-.331.514-1.768,1.777-3.547,3.542-5.309,5.325a1.176,1.176,0,0,1-.975.4c-.866-.043-1.735-.036-2.6-.05.04-.333.323-.488.526-.694q2.716-2.752,5.443-5.494" transform="translate(-128.181 -30.81)" fill="#2ff980"/>
    <path id="Trazado_130634" data-name="Trazado 130634" d="M186.248,43.923q-2.723,2.745-5.443,5.494c-.2.206-.486.361-.526.694h-1.109c-.107-.229.1-.309.211-.418,1.808-1.816,3.636-3.612,5.421-5.45.452-.465.943-.319,1.446-.319" transform="translate(-125.515 -30.76)" fill="#06d85a"/>
    <path id="Trazado_130635" data-name="Trazado 130635" d="M162.5,30.734c.345-.007.5-.292.706-.495q2.42-2.4,4.829-4.819c.19-.189.408-.351.613-.526a1.184,1.184,0,0,1-.378,1.322c-1.775,1.734-3.516,3.5-5.274,5.25-.132.131-.226.325-.5.364Z" transform="translate(-113.854 -17.442)" fill="#06d85a"/>
    <path id="Trazado_130636" data-name="Trazado 130636" d="M50.579,216.558a6.807,6.807,0,0,1-2.231-.887c-.268-.117-.54-.223-.81-.334.006-.025.01-.049.017-.073.458-1.416.257-1.157,1.418-.609.4.191.8.394,1.2.587.852.408.852.407.4,1.317" transform="translate(-33.308 -150.092)" fill="#45bbcc"/>
    <path id="Trazado_130637" data-name="Trazado 130637" d="M135.309,215.452a15.527,15.527,0,0,0-2.116.991,1.68,1.68,0,0,1-.908.224c-.46-.906-.46-.906.377-1.306a12.68,12.68,0,0,0,1.584-.775c.561-.372.819-.265.931.37.029.168.087.331.131.5" transform="translate(-92.47 -150.2)" fill="#45bbcc"/>
    <path id="Trazado_130638" data-name="Trazado 130638" d="M174,168.539c-.014-.157,0-.3.187-.348l-.187.348" transform="translate(-121.911 -117.844)" fill="#e34142"/>
  </g>
</svg>
