<svg xmlns="http://www.w3.org/2000/svg" width="378.539" height="240.92" viewBox="0 0 378.539 240.92">
  <g id="Grupo_86332" data-name="Grupo 86332" transform="translate(-761.911 -39.438)">
    <g id="Grupo_86282" data-name="Grupo 86282" transform="translate(792.809 79.155)">
      <path id="Trazado_128840" data-name="Trazado 128840" d="M951.009,261.449c-42.306,0-82.145-9.551-112.181-26.891-30.213-17.443-46.852-40.656-46.852-65.362,0-24.488,16.392-47.438,46.156-64.624,29.587-17.082,68.974-26.488,110.905-26.488,42.306,0,82.145,9.55,112.181,26.89,30.213,17.443,46.852,40.656,46.852,65.362,0,24.488-16.393,47.439-46.157,64.624C1032.325,252.042,992.939,261.449,951.009,261.449Zm-1.972-181.31c-41.576,0-80.6,9.309-109.877,26.214-29.1,16.8-45.129,39.119-45.128,62.843,0,23.941,16.274,46.521,45.824,63.581,29.728,17.165,69.2,26.617,111.154,26.617,41.575,0,80.6-9.31,109.877-26.215,29.1-16.8,45.129-39.119,45.129-62.843,0-23.941-16.274-46.521-45.824-63.582C1030.463,89.59,990.988,80.139,949.037,80.139Z" transform="translate(-791.976 -78.084)" fill="#ab9df1"/>
    </g>
    <g id="Grupo_86283" data-name="Grupo 86283" transform="translate(1014.9 84.215)">
      <path id="Trazado_128841" data-name="Trazado 128841" d="M1009.366,114.29l10.974-23.906,41.406-6.336,30.432,17.57L1081.2,125.524,1039.8,131.86Z" transform="translate(-1008.041 -82.978)" fill="#d5cef8"/>
      <path id="Trazado_128842" data-name="Trazado 128842" d="M1039.632,132.959l-31.555-18.218,11.6-25.259,42.31-6.475,31.554,18.218-11.6,25.259ZM1010.726,113.9l29.31,16.921,40.5-6.2,10.351-22.551L1061.58,85.148l-40.5,6.2Z" transform="translate(-1008.077 -83.007)" fill="#ab9df1"/>
    </g>
    <g id="Grupo_86284" data-name="Grupo 86284" transform="translate(801.999 207.132)">
      <path id="Trazado_128843" data-name="Trazado 128843" d="M802.207,233.893l10.974-23.906,41.406-6.336,30.432,17.57-10.974,23.906-41.406,6.336Z" transform="translate(-800.882 -202.58)" fill="#d5cef8"/>
      <path id="Trazado_128844" data-name="Trazado 128844" d="M832.473,252.563l-31.555-18.219,11.6-25.259,42.31-6.476,31.555,18.22-11.6,25.259ZM803.567,233.5l29.308,16.92,40.5-6.2,10.352-22.552-29.309-16.921-40.5,6.2Z" transform="translate(-800.918 -202.609)" fill="#ab9df1"/>
    </g>
    <g id="Grupo_86285" data-name="Grupo 86285" transform="translate(1063.944 145.071)">
      <path id="Trazado_128845" data-name="Trazado 128845" d="M1056.8,155.593l37.087-12.318,37.222,12.452.134,24.77-37.087,12.318-37.222-12.452Z" transform="translate(-1055.77 -142.193)" fill="#d5cef8"/>
      <path id="Trazado_128846" data-name="Trazado 128846" d="M1094.184,193.926l-38.245-12.793-.142-26.252,38.119-12.659,38.245,12.793.143,26.252Zm-36.2-14.276,36.2,12.111,36.054-11.976-.126-23.287-36.2-12.111-36.054,11.975Z" transform="translate(-1055.798 -142.222)" fill="#ab9df1"/>
    </g>
    <g id="Grupo_86286" data-name="Grupo 86286" transform="translate(761.911 144.524)">
      <path id="Trazado_128847" data-name="Trazado 128847" d="M762.915,155.062,800,142.744,837.224,155.2l.134,24.77-37.087,12.318-37.222-12.452Z" transform="translate(-761.883 -141.661)" fill="#d5cef8"/>
      <path id="Trazado_128848" data-name="Trazado 128848" d="M800.3,193.4,762.053,180.6l-.142-26.252,38.12-12.66,38.245,12.794.142,26.252Zm-36.2-14.277,36.2,12.112,36.054-11.976-.126-23.287-36.2-12.111-36.054,11.975Z" transform="translate(-761.911 -141.69)" fill="#ab9df1"/>
    </g>
    <g id="Grupo_86287" data-name="Grupo 86287" transform="translate(801.255 83.787)">
      <path id="Trazado_128849" data-name="Trazado 128849" d="M854.2,131.525l-41.475-6.486-11.234-23.946,30.242-17.46,41.475,6.486,11.234,23.946Z" transform="translate(-800.158 -82.562)" fill="#d5cef8"/>
      <path id="Trazado_128850" data-name="Trazado 128850" d="M854.434,132.625,812.06,126l-11.866-25.3,31.372-18.114,42.375,6.627,11.867,25.294Zm-40.977-8.488,40.578,6.345,29.11-16.806-10.6-22.6-40.578-6.346-29.109,16.807Z" transform="translate(-800.194 -82.591)" fill="#ab9df1"/>
    </g>
    <g id="Grupo_86288" data-name="Grupo 86288" transform="translate(1015.492 207.477)">
      <path id="Trazado_128851" data-name="Trazado 128851" d="M1062.658,251.88l-41.475-6.486-11.234-23.946,30.241-17.46,41.475,6.486L1092.9,234.42Z" transform="translate(-1008.617 -202.916)" fill="#d5cef8"/>
      <path id="Trazado_128852" data-name="Trazado 128852" d="M1062.894,252.98l-42.374-6.626-11.867-25.3,31.374-18.114,42.374,6.627,11.867,25.3Zm-40.977-8.489,40.578,6.345,29.11-16.806-10.6-22.6-40.576-6.345L1011.316,221.9Z" transform="translate(-1008.653 -202.945)" fill="#ab9df1"/>
    </g>
    <g id="Grupo_86289" data-name="Grupo 86289" transform="translate(906.353 60.942)">
      <path id="Trazado_128853" data-name="Trazado 128853" d="M925.438,104.265l-21.567-21.49,21.335-21.412,42.9.077,21.567,21.49-21.335,21.412Z" transform="translate(-902.418 -60.334)" fill="#d5cef8"/>
      <path id="Trazado_128854" data-name="Trazado 128854" d="M968.806,105.4l-43.755-.08L902.457,82.805,924.82,60.362l43.753.079,22.594,22.514Zm-42.9-2.134,42.052.076L988.261,82.96,967.722,62.5l-42.051-.076L905.363,82.8Z" transform="translate(-902.457 -60.362)" fill="#ab9df1"/>
    </g>
    <g id="Grupo_86290" data-name="Grupo 86290" transform="translate(907.298 235.321)">
      <path id="Trazado_128855" data-name="Trazado 128855" d="M926.358,273.941l-21.567-21.49,21.335-21.412,42.9.077,21.567,21.49L969.26,274.019Z" transform="translate(-903.338 -230.01)" fill="#d5cef8"/>
      <path id="Trazado_128856" data-name="Trazado 128856" d="M969.726,275.075,925.971,275l-22.594-22.514,22.362-22.443,43.754.079,22.594,22.514Zm-42.9-2.133,42.052.075,20.307-20.381-20.539-20.466-42.051-.075-20.308,20.38Z" transform="translate(-903.377 -230.038)" fill="#ab9df1"/>
    </g>
    <g id="Grupo_86291" data-name="Grupo 86291" transform="translate(1079.951 119.466)">
      <path id="Trazado_128857" data-name="Trazado 128857" d="M1108.949,174.291c-4.138,3.323-18.379,5.221-18.379,5.221s-1.255-9.517,2.884-12.839,7.824-1.3,12.1.808S1113.088,170.968,1108.949,174.291Z" transform="translate(-1070.847 -115.989)" fill="#92b4d1" opacity="0.2"/>
      <path id="Trazado_128858" data-name="Trazado 128858" d="M1110.46,142.774c-6.926-3.919-13.7-10.6-19.372-19.119l-.076-.044c-5.676,1.963-12.447.828-19.372-3.251l-.265-.156.374,12.941c1.314,20.059,8.156,28.79,19.168,47.44l.267.154c11.012-5.934,17.853-6.765,19.168-25.306l.374-12.509Z" transform="translate(-1071.374 -117.228)" fill="#a8cff0"/>
      <path id="Trazado_128859" data-name="Trazado 128859" d="M1114.365,139.878c-6.927-3.919-13.7-10.6-19.374-19.12l-.076-.044c-5.675,1.964-12.447.828-19.372-3.25l-.265-.156-3.832,3.02.191.112c6.926,4.079,13.7,5.214,19.373,3.251l.076.044c5.676,8.517,12.447,15.2,19.373,19.119l.264.15-.374,12.509c-.857,12.1-4.072,16.658-9.261,20.014,6.484-3.829,12.2-9.388,13.167-22.991l.374-12.508Z" transform="translate(-1071.372 -117.308)" fill="#d1ebff"/>
      <path id="Trazado_128860" data-name="Trazado 128860" d="M1114.1,139.936l-.264-.15c-6.927-3.919-13.7-10.6-19.374-19.12l-.076-.044-3.906,2.977.076.044c5.676,8.517,12.447,15.2,19.373,19.119l.264.15Z" transform="translate(-1070.844 -117.216)" fill="#d1ebff"/>
      <path id="Trazado_128861" data-name="Trazado 128861" d="M1109.924,142.391l-.374,12.509c-.857,12.1-4.072,16.658-9.261,20.014,6.484-3.829,12.2-9.388,13.167-22.991l.374-12.508Z" transform="translate(-1070.573 -116.695)" fill="#72b5e8"/>
      <path id="Trazado_128862" data-name="Trazado 128862" d="M1089.64,170.782c-7.9-13.106-11.876-19.7-12.834-34.085l-.219-7.551c5.073,2.293,9.937,3.025,14.318,2.152a63.83,63.83,0,0,0,14.317,14.38l-.218,7.3c-.959,13.279-4.933,15.283-12.835,19.267l-1.264.639Q1090.259,171.812,1089.64,170.782Z" transform="translate(-1071.229 -116.98)" fill="#084c94"/>
      <path id="Trazado_128863" data-name="Trazado 128863" d="M1092.816,171.674c-.413.209-.833.42-1.263.639q-.646-1.073-1.266-2.1c-7.9-13.106-11.875-19.7-12.834-34.085l-.193-6.688c-.224-.095-.447-.19-.672-.291l.219,7.551c.958,14.385,4.932,20.979,12.834,34.085q.619,1.03,1.265,2.1l1.264-.639c3.224-1.625,5.793-2.922,7.771-4.788A37.269,37.269,0,0,1,1092.816,171.674Z" transform="translate(-1071.229 -116.98)" fill="#001a46"/>
      <path id="Trazado_128864" data-name="Trazado 128864" d="M1110.7,142.529c-6.926-3.919-13.7-10.6-19.372-19.12l-.077-.044c-5.675,1.963-12.447.828-19.373-3.251l-.253.267c6.913,4.063,13.672,5.191,19.338,3.231l.076.044c5.675,8.516,12.447,15.2,19.372,19.119l.265.15-.374,12.509c-.712,10.043-3.046,14.889-6.785,18.165,3.907-3.28,6.343-8.114,7.074-18.413l.373-12.509Z" transform="translate(-1071.367 -117.23)" fill="#fff"/>
    </g>
    <g id="Grupo_86295" data-name="Grupo 86295" transform="translate(824.814 182.541)">
      <path id="Trazado_128865" data-name="Trazado 128865" d="M848.76,239.332,824.8,225.54c-2.493-1.439-2.181-3.954.7-5.615h0c2.88-1.663,12.4-1.672,14.9-.232l21.243,12.259c3.827,2.258.038,5.357-3.15,6.977h0C855.609,240.591,851.254,240.771,848.76,239.332Z" transform="translate(-823.117 -177.574)" fill="#92b4d1" opacity="0.2"/>
      <path id="Trazado_128866" data-name="Trazado 128866" d="M858.09,210.938l-34.643-12.92v25.694a2.259,2.259,0,0,0,1.352,2.237l23.427,13.568c2.029,1.172,5.573,1.025,7.916-.328h0a3.328,3.328,0,0,0,1.936-2.5l.011,0Z" transform="translate(-823.108 -178.145)" fill="#a8cff0"/>
      <path id="Trazado_128867" data-name="Trazado 128867" d="M848.226,213.8,824.8,200.232c-2.03-1.172-1.775-3.218.568-4.571h0c2.343-1.352,5.888-1.5,7.917-.328L856.711,208.9c2.03,1.172,1.775,3.219-.568,4.571h0C853.8,214.825,850.254,214.972,848.226,213.8Z" transform="translate(-823.108 -178.242)" fill="#d1ebff"/>
      <path id="Trazado_128868" data-name="Trazado 128868" d="M856.142,213.051c-2.343,1.352-5.888,1.5-7.916.328L824.8,199.812A2.422,2.422,0,0,1,823.442,198a2.269,2.269,0,0,0,1.357,2.205l23.427,13.568c2.029,1.172,5.573,1.025,7.916-.328,1.366-.788,2.016-1.812,1.925-2.76A3.442,3.442,0,0,1,856.142,213.051Z" transform="translate(-823.108 -178.146)" fill="#fff"/>
      <g id="Grupo_86294" data-name="Grupo 86294" transform="translate(5.255)">
        <path id="Trazado_128869" data-name="Trazado 128869" d="M842.943,180.006h0a9.814,9.814,0,0,0-14.713,8.5v10.644h0l0,.014c0,1.044,1.443,1.884,3.222,1.884s3.221-.84,3.221-1.876c0-.012,0-.025,0-.037h.035v-9.257a4.159,4.159,0,0,1,6.231-3.605h0a10.372,10.372,0,0,1,5.2,8.993v14.192h.035c.035,1.019,1.46,1.839,3.218,1.839s3.2-.83,3.22-1.858h0V196.737A19.309,19.309,0,0,0,842.943,180.006Z" transform="translate(-828.23 -178.681)" fill="#084c94"/>
        <g id="Grupo_86292" data-name="Grupo 86292" transform="translate(13.922 5.938)">
          <path id="Trazado_128870" data-name="Trazado 128870" d="M842.378,184.76a6.086,6.086,0,0,0-.6-.3,11.308,11.308,0,0,1,4.99,9.359v16.654a3.917,3.917,0,0,0,1.258.46v-16.4A11.3,11.3,0,0,0,842.378,184.76Z" transform="translate(-841.777 -184.459)" fill="#2672ab"/>
        </g>
        <g id="Grupo_86293" data-name="Grupo 86293" transform="translate(2.674 4.531)">
          <path id="Trazado_128871" data-name="Trazado 128871" d="M836.138,183.09a5.279,5.279,0,0,0-5.272,5.273V199.48l-.034,1.153a4.526,4.526,0,0,0,1.847-.222l.033-1.153V188.141a5.283,5.283,0,0,1,3.727-5.041C836.338,183.094,836.239,183.09,836.138,183.09Z" transform="translate(-830.832 -183.09)" fill="#03336e"/>
        </g>
        <path id="Trazado_128872" data-name="Trazado 128872" d="M839.346,180.9a10.188,10.188,0,0,1,4.79,1.2,18.065,18.065,0,0,0-1.776-1.171,8.58,8.58,0,0,0-4.331-1.177,8.741,8.741,0,0,0-8.721,8.721v.024A10.533,10.533,0,0,1,839.346,180.9Z" transform="translate(-828.2 -178.651)" fill="#2672ab"/>
        <path id="Trazado_128873" data-name="Trazado 128873" d="M849.536,198.273v12.454a3.99,3.99,0,0,0,1.613-.559,1.064,1.064,0,0,0,.11-.438l0-12.7C851.259,191.533,849.536,192.674,849.536,198.273Z" transform="translate(-827.639 -178.272)" fill="#03336e"/>
      </g>
      <path id="Trazado_128874" data-name="Trazado 128874" d="M840.7,217.865a7,7,0,0,0-3.177-5.479c-1.754-1.013-3.177-.2-3.177,1.811a6.907,6.907,0,0,0,1.606,4.093v6.377l3.141,1.813V220.1C840.052,220.029,840.7,219.222,840.7,217.865Z" transform="translate(-822.806 -177.759)" fill="#084c94"/>
      <path id="Trazado_128875" data-name="Trazado 128875" d="M836.5,224.431v-6.377a6.913,6.913,0,0,1-1.606-4.092,2.268,2.268,0,0,1,.833-1.974c-.833.176-1.381.961-1.381,2.209a6.906,6.906,0,0,0,1.606,4.093v6.377l3.141,1.813v-.551Z" transform="translate(-822.806 -177.758)" fill="#001a46"/>
    </g>
    <g id="Grupo_86298" data-name="Grupo 86298" transform="translate(923.854 39.438)">
      <path id="Trazado_128876" data-name="Trazado 128876" d="M951.322,95.445l-23.96-13.791c-2.493-1.44-2.181-3.954.7-5.616h0c2.88-1.662,12.4-1.671,14.9-.231L964.2,88.065c3.827,2.258.038,5.357-3.15,6.977h0C958.17,96.7,953.815,96.885,951.322,95.445Z" transform="translate(-919.314 -38.459)" fill="#92b4d1" opacity="0.2"/>
      <path id="Trazado_128877" data-name="Trazado 128877" d="M969.066,75.238a14.411,14.411,0,0,0-6.539-11.28,6.191,6.191,0,0,0-2.651-.883c0-.057.007-.108.007-.165,0-8.024-5.669-17.8-12.663-21.84-3.927-2.267-7.345-1.964-9.752-.356l-4.039,2.305c-2.283-1.184-4.323-1.176-5.76-.182l-5.432,3.255c1.472-.641,3.4-.433,5.523.79a12.507,12.507,0,0,1,1.322.9c1.653-4.867,6.413-6.33,12.037-3.082,6.994,4.037,12.663,13.816,12.663,21.84,0,.058-.007.109-.007.165a6.192,6.192,0,0,1,2.651.883,14.411,14.411,0,0,1,6.539,11.28,4.936,4.936,0,0,1-1.4,3.832l5.386-3.137-.006-.012C968.246,78.929,969.066,77.43,969.066,75.238Z" transform="translate(-919.41 -39.438)" fill="#72b5e8"/>
      <g id="Grupo_86296" data-name="Grupo 86296" transform="translate(3.061 3.308)">
        <path id="Trazado_128878" data-name="Trazado 128878" d="M956.612,67.281a6.183,6.183,0,0,0-2.651-.883c0-.057.007-.108.007-.164,0-8.024-5.669-17.8-12.662-21.841-3.351-1.935-6.4-2.2-8.66-1.063,2.206-.877,5.061-.527,8.182,1.275,6.994,4.037,12.662,13.816,12.662,21.84,0,.058-.007.109-.007.165a6.191,6.191,0,0,1,2.651.883,14.411,14.411,0,0,1,6.539,11.28c0,2.1-.75,3.558-1.958,4.223,1.485-.519,2.436-2.075,2.436-4.436A14.409,14.409,0,0,0,956.612,67.281Z" transform="translate(-922.182 -42.656)" fill="#fff"/>
        <path id="Trazado_128879" data-name="Trazado 128879" d="M927.753,46.718a12.507,12.507,0,0,1,1.322.9c.052-.151.106-.3.162-.441a11.742,11.742,0,0,0-1.006-.667c-2.237-1.291-4.267-1.451-5.766-.673A6.34,6.34,0,0,1,927.753,46.718Z" transform="translate(-922.464 -42.581)" fill="#fff"/>
      </g>
      <path id="Trazado_128880" data-name="Trazado 128880" d="M956.5,67.488a6.191,6.191,0,0,0-2.651-.883c0-.057.007-.108.007-.165,0-8.024-5.669-17.8-12.662-21.84-5.624-3.248-10.384-1.785-12.036,3.082a12.5,12.5,0,0,0-1.322-.9c-4.61-2.662-8.349-.531-8.349,4.76s3.739,11.738,8.349,14.4L956.5,82.5c3.611,2.085,6.539.416,6.539-3.729A14.411,14.411,0,0,0,956.5,67.488Z" transform="translate(-919.486 -39.343)" fill="#d1ebff"/>
      <path id="Trazado_128881" data-name="Trazado 128881" d="M959.378,81.23a3.865,3.865,0,0,1-1.882-.616L928.832,64.063c-3.953-2.282-7.294-8.041-7.294-12.573,0-1.143.242-3.8,2.493-3.8a5.6,5.6,0,0,1,2.693.864,10.41,10.41,0,0,1,1.1.747l2.331,1.772L931.1,48.3a4.466,4.466,0,0,1,4.365-3.388,9.565,9.565,0,0,1,4.622,1.454c6.292,3.633,11.608,12.8,11.608,20.016,0,0-.007.072-.008.139l-.024,2,1.992.134a4.185,4.185,0,0,1,1.738.6,12.281,12.281,0,0,1,5.486,9.455,3.436,3.436,0,0,1-.538,2.093,1.108,1.108,0,0,1-.959.425Z" transform="translate(-919.429 -39.286)" fill="#3f92d1"/>
      <g id="Grupo_86297" data-name="Grupo 86297" transform="translate(2.109 6.218)">
        <path id="Trazado_128882" data-name="Trazado 128882" d="M930.618,50.532l.942-2.773a5.554,5.554,0,0,1,1.38-2.271,5.058,5.058,0,0,0-2.083,2.8l-.655,1.929Z" transform="translate(-921.298 -45.488)" fill="#2672ab"/>
        <path id="Trazado_128883" data-name="Trazado 128883" d="M960.081,80.623a3.862,3.862,0,0,1-1.882-.616l-28.666-16.55c-3.953-2.283-7.293-8.041-7.293-12.574a5.016,5.016,0,0,1,.861-3.078c-1.388.624-1.564,2.645-1.564,3.605,0,4.532,3.341,10.292,7.294,12.573L957.5,80.535a3.865,3.865,0,0,0,1.882.616,1.108,1.108,0,0,0,.959-.425c.032-.039.055-.095.084-.139A1.519,1.519,0,0,1,960.081,80.623Z" transform="translate(-921.538 -45.424)" fill="#2672ab"/>
      </g>
    </g>
    <g id="Grupo_86303" data-name="Grupo 86303" transform="translate(931.083 219.295)">
      <path id="Trazado_128884" data-name="Trazado 128884" d="M963.243,265.606l-31.038-17.431c-1.7-.98-1.486-2.694.476-3.826h0c1.961-1.132,8.449-1.138,10.147-.157l29.187,16.386c2.607,1.538.027,3.65-2.145,4.753h0A7.366,7.366,0,0,1,963.243,265.606Z" transform="translate(-926.395 -213.64)" fill="#92b4d1" opacity="0.2"/>
      <path id="Trazado_128885" data-name="Trazado 128885" d="M964.263,267.247l-34.212-19.783c-1.949-1.125-3.53-4.146-3.53-6.746V218.363c0-2.6,1.581-3.8,3.53-2.67l34.212,19.783c1.949,1.126,3.53,4.147,3.53,6.747v22.355C967.793,267.178,966.212,268.373,964.263,267.247Z" transform="translate(-926.521 -214.422)" fill="#a8cff0"/>
      <path id="Trazado_128886" data-name="Trazado 128886" d="M964.664,249.517l-33.673-19.468a6.006,6.006,0,0,1-2.541-5.03v-5.811a.627.627,0,0,1,.943-.54l.11.065,33.713,19.5a5.43,5.43,0,0,1,2.541,5.03v5.718a.676.676,0,0,1-1.011.586Z" transform="translate(-926.467 -214.33)" fill="#084c94"/>
      <path id="Trazado_128887" data-name="Trazado 128887" d="M964.664,263.9l-33.673-19.468a6.006,6.006,0,0,1-2.541-5.03v-5.811a.627.627,0,0,1,.943-.54l.11.065,33.713,19.5a5.431,5.431,0,0,1,2.541,5.03v5.718a.676.676,0,0,1-1.011.586Z" transform="translate(-926.467 -213.931)" fill="#084c94"/>
      <path id="Trazado_128888" data-name="Trazado 128888" d="M965.311,249.1l-.082-.047-33.674-19.469a6,6,0,0,1-2.539-5.03v-5.81a.617.617,0,0,1,.021-.159.623.623,0,0,0-.587.621v5.811a6.006,6.006,0,0,0,2.541,5.03l33.673,19.468.082.047a.675.675,0,0,0,.977-.382A.659.659,0,0,1,965.311,249.1Z" transform="translate(-926.467 -214.33)" fill="#001a46"/>
      <path id="Trazado_128889" data-name="Trazado 128889" d="M965.311,263.487l-.082-.047-33.674-19.469a6,6,0,0,1-2.539-5.03v-5.81a.617.617,0,0,1,.021-.159.623.623,0,0,0-.587.621V239.4a6.006,6.006,0,0,0,2.541,5.03L964.664,263.9l.082.047a.675.675,0,0,0,.977-.382A.66.66,0,0,1,965.311,263.487Z" transform="translate(-926.467 -213.931)" fill="#001a46"/>
      <path id="Trazado_128890" data-name="Trazado 128890" d="M965.89,234.651l-34.21-19.783a2.387,2.387,0,0,0-2.067-.3c-.074.029-1.72.868-1.79.906l0,0a2.311,2.311,0,0,1,2.2.243L964.227,235.5c1.949,1.126,3.53,4.147,3.53,6.747V264.6c0,1.623-.615,2.7-1.553,3a.588.588,0,0,0,.309-.1c.045-.026,1.776-.946,1.819-.975a3.262,3.262,0,0,0,1.088-2.772V241.4C969.421,238.8,967.839,235.776,965.89,234.651Z" transform="translate(-926.485 -214.445)" fill="#3f92d1"/>
      <path id="Trazado_128891" data-name="Trazado 128891" d="M965.89,234.651l-34.21-19.783a2.387,2.387,0,0,0-2.067-.3c-.074.029-1.72.868-1.79.906l0,0a2.311,2.311,0,0,1,2.2.243L964.227,235.5Z" transform="translate(-926.485 -214.445)" fill="#4f9fdb"/>
      <path id="Trazado_128892" data-name="Trazado 128892" d="M964.39,235.394l-34.212-19.783a2.342,2.342,0,0,0-2.126-.271,2.606,2.606,0,0,1,1.7.4l34.211,19.783c1.951,1.125,3.531,4.146,3.531,6.746v22.355c0,1.534-.553,2.573-1.4,2.941,1.089-.173,1.827-1.292,1.827-3.069V242.141C967.92,239.541,966.34,236.519,964.39,235.394Z" transform="translate(-926.478 -214.424)" fill="#fff" style="mix-blend-mode: screen;isolation: isolate"/>
      <g id="Grupo_86299" data-name="Grupo 86299" transform="translate(7.871 25.482)">
        <path id="Trazado_128893" data-name="Trazado 128893" d="M955.552,253.16a4.689,4.689,0,0,0,2.128,3.672c1.176.679,2.129.136,2.129-1.214a4.692,4.692,0,0,0-2.129-3.672C956.5,251.268,955.552,251.81,955.552,253.16Z" transform="translate(-933.587 -238.895)" fill="#001a46"/>
        <path id="Trazado_128894" data-name="Trazado 128894" d="M950.209,250.057a4.692,4.692,0,0,0,2.128,3.672c1.176.678,2.13.135,2.13-1.214a4.691,4.691,0,0,0-2.13-3.672C951.162,248.164,950.209,248.707,950.209,250.057Z" transform="translate(-933.736 -238.981)" fill="#001a46"/>
        <path id="Trazado_128895" data-name="Trazado 128895" d="M944.866,246.953A4.69,4.69,0,0,0,947,250.625c1.176.678,2.129.136,2.129-1.214A4.689,4.689,0,0,0,947,245.739C945.819,245.06,944.866,245.6,944.866,246.953Z" transform="translate(-933.884 -239.067)" fill="#001a46"/>
        <path id="Trazado_128896" data-name="Trazado 128896" d="M939.523,243.849a4.69,4.69,0,0,0,2.13,3.672c1.176.679,2.128.136,2.128-1.214a4.691,4.691,0,0,0-2.128-3.672C940.477,241.957,939.523,242.5,939.523,243.849Z" transform="translate(-934.032 -239.153)" fill="#001a46"/>
        <path id="Trazado_128897" data-name="Trazado 128897" d="M934.18,240.746a4.694,4.694,0,0,0,2.13,3.672c1.176.678,2.128.135,2.128-1.214a4.689,4.689,0,0,0-2.128-3.672C935.134,238.853,934.18,239.4,934.18,240.746Z" transform="translate(-934.18 -239.239)" fill="#001a46"/>
      </g>
      <g id="Grupo_86300" data-name="Grupo 86300" transform="translate(7.213 25.526)">
        <path id="Trazado_128898" data-name="Trazado 128898" d="M954.911,253.2a4.691,4.691,0,0,0,2.128,3.672c1.176.678,2.13.136,2.13-1.214a4.691,4.691,0,0,0-2.13-3.672C955.864,251.31,954.911,251.853,954.911,253.2Z" transform="translate(-932.947 -238.938)" fill="#a8cff0"/>
        <path id="Trazado_128899" data-name="Trazado 128899" d="M949.568,250.1a4.69,4.69,0,0,0,2.128,3.672c1.176.679,2.129.136,2.129-1.214a4.694,4.694,0,0,0-2.129-3.672C950.521,248.207,949.568,248.75,949.568,250.1Z" transform="translate(-933.095 -239.024)" fill="#a8cff0"/>
        <path id="Trazado_128900" data-name="Trazado 128900" d="M944.225,247a4.693,4.693,0,0,0,2.128,3.672c1.176.678,2.129.135,2.129-1.214a4.691,4.691,0,0,0-2.129-3.672C945.178,245.1,944.225,245.646,944.225,247Z" transform="translate(-933.243 -239.11)" fill="#a8cff0"/>
        <path id="Trazado_128901" data-name="Trazado 128901" d="M938.882,243.892a4.689,4.689,0,0,0,2.129,3.672c1.176.679,2.128.136,2.128-1.214a4.691,4.691,0,0,0-2.128-3.672C939.835,242,938.882,242.542,938.882,243.892Z" transform="translate(-933.391 -239.196)" fill="#a8cff0"/>
        <path id="Trazado_128902" data-name="Trazado 128902" d="M933.539,240.788a4.69,4.69,0,0,0,2.13,3.672c1.176.679,2.128.136,2.128-1.214a4.691,4.691,0,0,0-2.128-3.672C934.493,238.9,933.539,239.439,933.539,240.788Z" transform="translate(-933.539 -239.282)" fill="#a8cff0"/>
      </g>
      <g id="Grupo_86301" data-name="Grupo 86301" transform="translate(7.871 10.328)">
        <path id="Trazado_128903" data-name="Trazado 128903" d="M955.552,238.415a4.689,4.689,0,0,0,2.128,3.672c1.176.679,2.129.136,2.129-1.214a4.692,4.692,0,0,0-2.129-3.672C956.5,236.523,955.552,237.065,955.552,238.415Z" transform="translate(-933.587 -224.15)" fill="#001a46"/>
        <path id="Trazado_128904" data-name="Trazado 128904" d="M950.209,235.312a4.689,4.689,0,0,0,2.128,3.671c1.176.679,2.13.136,2.13-1.214a4.694,4.694,0,0,0-2.13-3.672C951.162,233.419,950.209,233.962,950.209,235.312Z" transform="translate(-933.736 -224.236)" fill="#001a46"/>
        <path id="Trazado_128905" data-name="Trazado 128905" d="M944.866,232.208A4.69,4.69,0,0,0,947,235.88c1.176.678,2.129.136,2.129-1.214A4.689,4.689,0,0,0,947,230.994C945.819,230.315,944.866,230.858,944.866,232.208Z" transform="translate(-933.884 -224.322)" fill="#001a46"/>
        <path id="Trazado_128906" data-name="Trazado 128906" d="M939.523,229.1a4.69,4.69,0,0,0,2.13,3.672c1.176.679,2.128.136,2.128-1.214a4.691,4.691,0,0,0-2.128-3.672C940.477,227.212,939.523,227.754,939.523,229.1Z" transform="translate(-934.032 -224.408)" fill="#001a46"/>
        <path id="Trazado_128907" data-name="Trazado 128907" d="M934.18,226a4.69,4.69,0,0,0,2.13,3.672c1.176.679,2.128.136,2.128-1.214a4.693,4.693,0,0,0-2.128-3.672C935.134,224.108,934.18,224.651,934.18,226Z" transform="translate(-934.18 -224.494)" fill="#001a46"/>
      </g>
      <g id="Grupo_86302" data-name="Grupo 86302" transform="translate(7.213 10.372)">
        <path id="Trazado_128908" data-name="Trazado 128908" d="M954.911,238.458a4.691,4.691,0,0,0,2.128,3.672c1.176.678,2.13.136,2.13-1.214a4.691,4.691,0,0,0-2.13-3.672C955.864,236.565,954.911,237.108,954.911,238.458Z" transform="translate(-932.947 -224.193)" fill="#a8cff0"/>
        <path id="Trazado_128909" data-name="Trazado 128909" d="M949.568,235.354a4.69,4.69,0,0,0,2.128,3.672c1.176.679,2.129.136,2.129-1.214a4.692,4.692,0,0,0-2.129-3.672C950.521,233.462,949.568,234,949.568,235.354Z" transform="translate(-933.095 -224.279)" fill="#a8cff0"/>
        <path id="Trazado_128910" data-name="Trazado 128910" d="M944.225,232.251a4.693,4.693,0,0,0,2.128,3.672c1.176.678,2.129.135,2.129-1.215a4.69,4.69,0,0,0-2.129-3.671C945.178,230.358,944.225,230.9,944.225,232.251Z" transform="translate(-933.243 -224.365)" fill="#a8cff0"/>
        <path id="Trazado_128911" data-name="Trazado 128911" d="M938.882,229.147a4.69,4.69,0,0,0,2.129,3.672c1.176.678,2.128.136,2.128-1.214a4.689,4.689,0,0,0-2.128-3.672C939.835,227.254,938.882,227.8,938.882,229.147Z" transform="translate(-933.391 -224.451)" fill="#a8cff0"/>
        <path id="Trazado_128912" data-name="Trazado 128912" d="M933.539,226.043a4.69,4.69,0,0,0,2.13,3.672c1.176.679,2.128.136,2.128-1.214a4.691,4.691,0,0,0-2.128-3.672C934.493,224.151,933.539,224.693,933.539,226.043Z" transform="translate(-933.539 -224.537)" fill="#a8cff0"/>
      </g>
    </g>
    <g id="Grupo_86306" data-name="Grupo 86306" transform="translate(774.087 124.64)">
      <path id="Trazado_128913" data-name="Trazado 128913" d="M798.875,176.1l-13.683-7.473c-2.283-1.319-2-3.621.639-5.143h0c2.637-1.522,11.358-1.531,13.641-.213l11.194,6.07c3.5,2.068.035,4.906-2.884,6.389h0C805.146,177.254,801.157,177.418,798.875,176.1Z" transform="translate(-773.485 -121.234)" fill="#92b4d1" opacity="0.2"/>
      <path id="Trazado_128914" data-name="Trazado 128914" d="M797.349,161.993c-6.371-3.678-11.535-12.586-11.535-19.9a9.226,9.226,0,0,1,1.938-6.2c-3.5.253-5.861,3.18-5.861,8.12,0,7.31,5.164,16.218,11.535,19.9,4,2.31,7.518,1.993,9.582-.368A10.019,10.019,0,0,1,797.349,161.993Z" transform="translate(-773.534 -121.967)" fill="#72b5e8"/>
      <path id="Trazado_128915" data-name="Trazado 128915" d="M796.333,162.546c-6.371-3.678-11.536-12.586-11.536-19.9s5.165-10.255,11.536-6.576,11.535,12.585,11.535,19.9S802.7,166.224,796.333,162.546Z" transform="translate(-773.453 -122.006)" fill="#084c94"/>
      <path id="Trazado_128916" data-name="Trazado 128916" d="M808.786,159.887a22.658,22.658,0,0,0-.2-2.8l4.663-.59a42.278,42.278,0,0,0-2.113-7.059l-5.313-1.606a37.287,37.287,0,0,0-3.307-5.7l1.273-5.362a42.56,42.56,0,0,0-5.088-5.363l-2.86,3.7a23.415,23.415,0,0,0-2.337-1.575,18.071,18.071,0,0,0-2.338-1.123l-2.86-7a14.154,14.154,0,0,0-5.088-.513l1.272,6.831a7.3,7.3,0,0,0-3.306,1.886l-5.313-4.528a13.849,13.849,0,0,0-2.113,4.619l4.663,5.974a17.547,17.547,0,0,0-.2,2.568,22.612,22.612,0,0,0,.2,2.8l-4.663.59a42.064,42.064,0,0,0,2.113,7.058l5.313,1.607a37.33,37.33,0,0,0,3.306,5.7l-1.272,5.362a42.623,42.623,0,0,0,5.088,5.363l2.86-3.7a23,23,0,0,0,2.338,1.577,18.045,18.045,0,0,0,2.337,1.123l2.86,7a14.177,14.177,0,0,0,5.088.513l-1.273-6.832a7.286,7.286,0,0,0,3.307-1.885l5.313,4.528a13.9,13.9,0,0,0,2.113-4.619l-4.663-5.974A17.593,17.593,0,0,0,808.786,159.887Zm-15.134,4.332c-6.371-3.678-11.535-12.586-11.535-19.9s5.164-10.256,11.535-6.577,11.536,12.586,11.536,19.9S800.022,167.9,793.651,164.219Z" transform="translate(-773.759 -122.273)" fill="#a8cff0"/>
      <path id="Trazado_128917" data-name="Trazado 128917" d="M795.243,129.894l-2.86-7-4.469,2.567,2.86,7Z" transform="translate(-773.367 -122.327)" fill="#72b5e8"/>
      <path id="Trazado_128918" data-name="Trazado 128918" d="M790.7,132.272a18.064,18.064,0,0,1,2.338,1.123,23.413,23.413,0,0,1,2.337,1.576l2.86-3.7h0s-.484-.3-.728-.445a18.042,18.042,0,0,0-2.338-1.122Z" transform="translate(-773.289 -122.138)" fill="#d1ebff"/>
      <path id="Trazado_128919" data-name="Trazado 128919" d="M792.521,122.908a14.155,14.155,0,0,0-5.088-.514l-4.469,2.567a14.177,14.177,0,0,1,5.088.513Z" transform="translate(-773.504 -122.342)" fill="#d1ebff"/>
      <path id="Trazado_128920" data-name="Trazado 128920" d="M807.587,134.095a42.626,42.626,0,0,0-5.088-5.363L798.03,131.3a42.626,42.626,0,0,1,5.088,5.363Z" transform="translate(-773.086 -122.165)" fill="#d1ebff"/>
      <path id="Trazado_128921" data-name="Trazado 128921" d="M803.015,136.517l-1.273,5.362,4.468-2.567,1.273-5.362Z" transform="translate(-772.983 -122.021)" fill="#72b5e8"/>
      <path id="Trazado_128922" data-name="Trazado 128922" d="M801.742,141.734a37.293,37.293,0,0,1,3.307,5.7l4.468-2.567a37.378,37.378,0,0,0-3.307-5.7Z" transform="translate(-772.983 -121.876)" fill="#72b5e8"/>
      <path id="Trazado_128923" data-name="Trazado 128923" d="M804.96,147.284l5.313,1.607,4.469-2.567-5.313-1.607Z" transform="translate(-772.894 -121.722)" fill="#d1ebff"/>
      <path id="Trazado_128924" data-name="Trazado 128924" d="M810.13,148.847a42.269,42.269,0,0,1,2.113,7.059l4.468-2.567a42.291,42.291,0,0,0-2.113-7.058Z" transform="translate(-772.751 -121.679)" fill="#72b5e8"/>
      <path id="Trazado_128925" data-name="Trazado 128925" d="M784.434,131.678l-.37-1.987-3.781-3.223-4.468,2.567,5.313,4.528A7.3,7.3,0,0,1,784.434,131.678Z" transform="translate(-773.702 -122.228)" fill="#72b5e8"/>
      <path id="Trazado_128926" data-name="Trazado 128926" d="M812.243,167.323a13.9,13.9,0,0,1-2.113,4.619l4.469-2.566a13.906,13.906,0,0,0,2.113-4.62Z" transform="translate(-772.751 -121.167)" fill="#72b5e8"/>
      <path id="Trazado_128927" data-name="Trazado 128927" d="M812.118,159.034a17.57,17.57,0,0,0,.2-2.568c0-.269-.017-.543-.032-.816l-4.634.587a22.658,22.658,0,0,1,.2,2.8,17.593,17.593,0,0,1-.2,2.568Z" transform="translate(-772.82 -121.419)" fill="#72b5e8"/>
      <path id="Trazado_128928" data-name="Trazado 128928" d="M807.649,161.51l4.663,5.974,4.469-2.567-4.663-5.974Z" transform="translate(-772.82 -121.328)" fill="#d1ebff"/>
      <path id="Trazado_128929" data-name="Trazado 128929" d="M805.049,167.342a7.287,7.287,0,0,1-3.307,1.885l1.273,6.832,4.468-2.567-.9-4.845Z" transform="translate(-772.983 -121.095)" fill="#72b5e8"/>
      <path id="Trazado_128930" data-name="Trazado 128930" d="M778.253,142.5l-4.494,2.638,4.663-.59C778.335,143.86,778.283,143.177,778.253,142.5Z" transform="translate(-773.759 -121.784)" fill="#d1ebff"/>
      <path id="Trazado_128931" data-name="Trazado 128931" d="M790.775,165.885l-2.86,3.7,4.5-2.562C791.862,166.668,791.314,166.292,790.775,165.885Z" transform="translate(-773.367 -121.135)" fill="#72b5e8"/>
      <g id="Grupo_86304" data-name="Grupo 86304" transform="translate(0.225 2.546)" style="mix-blend-mode: color-dodge;isolation: isolate">
        <path id="Trazado_128932" data-name="Trazado 128932" d="M783.69,131.84l-.012-.069c-.213.082-.416.18-.619.28C783.267,131.976,783.473,131.9,783.69,131.84Z" transform="translate(-773.726 -124.627)" fill="#fff"/>
        <path id="Trazado_128933" data-name="Trazado 128933" d="M777.848,144.571l-3.87.489c.014.075.035.151.051.226l3.843-.486C777.862,144.723,777.858,144.647,777.848,144.571Z" transform="translate(-773.978 -124.272)" fill="#fff"/>
        <path id="Trazado_128934" data-name="Trazado 128934" d="M802.867,136.884l-1.273,5.363a37.281,37.281,0,0,1,3.307,5.7l5.312,1.606a42.352,42.352,0,0,1,2.063,6.833l.526-.087a42.281,42.281,0,0,0-2.113-7.058l-5.313-1.606a37.333,37.333,0,0,0-3.307-5.7l1.273-5.362a42.619,42.619,0,0,0-5.088-5.363l-.176.59A42.767,42.767,0,0,1,802.867,136.884Z" transform="translate(-773.31 -124.642)" fill="#fff"/>
        <path id="Trazado_128935" data-name="Trazado 128935" d="M793.476,163.794c-6.371-3.678-11.535-12.586-11.535-19.9,0-3.229,1.013-5.6,2.69-6.923-1.936,1.247-3.127,3.734-3.127,7.235,0,7.311,5.164,16.218,11.535,19.9,3.217,1.857,6.123,2.021,8.215.792-.154.047-.316.078-.477.114C798.787,165.735,796.248,165.394,793.476,163.794Z" transform="translate(-773.769 -124.482)" fill="#fff"/>
        <path id="Trazado_128936" data-name="Trazado 128936" d="M802.577,168.987a7.222,7.222,0,0,0,2.1-1.178l-.2-.168A7.287,7.287,0,0,1,802.577,168.987Z" transform="translate(-773.185 -123.632)" fill="#fff"/>
        <path id="Trazado_128937" data-name="Trazado 128937" d="M780.958,133.616c-.193.008,0-.151.2-.309l-5.116-4.361c-.145.2-.276.42-.035.447Z" transform="translate(-773.926 -124.705)" fill="#fff"/>
        <path id="Trazado_128938" data-name="Trazado 128938" d="M801.62,169.484l1.219,6.537c-.141-.007.137-.01.406-.036l-1.26-6.762C801.73,169.321,801.472,169.413,801.62,169.484Z" transform="translate(-773.213 -123.589)" fill="#fff" style="mix-blend-mode: color-dodge;isolation: isolate"/>
        <path id="Trazado_128939" data-name="Trazado 128939" d="M808.077,158.99a21.956,21.956,0,0,0-.175-2.567l-.464.035a22.853,22.853,0,0,1,.2,2.8,17.7,17.7,0,0,1-.2,2.568L812.1,167.8a14.237,14.237,0,0,1-1.7,3.984l.031.371a13.9,13.9,0,0,0,2.113-4.62l-4.663-5.973A17.742,17.742,0,0,0,808.077,158.99Z" transform="translate(-773.05 -123.943)" fill="#fff"/>
        <path id="Trazado_128940" data-name="Trazado 128940" d="M787.852,125.592l2.859,7a17.93,17.93,0,0,1,2.338,1.123,23.119,23.119,0,0,1,2.337,1.575l.089-.444a21.65,21.65,0,0,0-2.007-1.338,17.976,17.976,0,0,0-2.337-1.123l-2.86-7a14.158,14.158,0,0,0-5.089-.514l.055.294A16.643,16.643,0,0,1,787.852,125.592Z" transform="translate(-773.723 -124.819)" fill="#fff"/>
        <path id="Trazado_128941" data-name="Trazado 128941" d="M790.233,166.186l-2.392,3.092c.1.091.2.188.3.276l2.421-3.132C790.454,166.342,790.342,166.268,790.233,166.186Z" transform="translate(-773.594 -123.673)" fill="#fff"/>
      </g>
      <g id="Grupo_86305" data-name="Grupo 86305" transform="translate(17.135 21.162)">
        <path id="Trazado_128942" data-name="Trazado 128942" d="M796.657,143.612a3.526,3.526,0,0,0-3.453-.381c-.025.013-2.732,1.6-2.772,1.666.906-.684,2.25-.674,3.748.191a10.9,10.9,0,0,1,4.945,8.531,3.4,3.4,0,0,1-1.5,3.206,1.124,1.124,0,0,0,.241-.106c.027-.014,2.327-1.42,2.352-1.437a3.472,3.472,0,0,0,1.388-3.14A10.9,10.9,0,0,0,796.657,143.612Z" transform="translate(-790.432 -142.933)" fill="#4f9fdb"/>
      </g>
      <path id="Trazado_128943" data-name="Trazado 128943" d="M794.212,145.048c-2.732-1.577-4.946-.314-4.946,2.82a10.9,10.9,0,0,0,4.946,8.531c2.732,1.577,4.945.315,4.945-2.82A10.9,10.9,0,0,0,794.212,145.048Z" transform="translate(-773.329 -121.732)" fill="#a8cff0"/>
      <path id="Trazado_128944" data-name="Trazado 128944" d="M794.175,145.048a3.451,3.451,0,0,0-3.553-.319,3.7,3.7,0,0,1,3.2.494,10.9,10.9,0,0,1,4.945,8.531,3.464,3.464,0,0,1-1.394,3.139c1.067-.425,1.745-1.583,1.745-3.314A10.9,10.9,0,0,0,794.175,145.048Z" transform="translate(-773.292 -121.732)" fill="#fff"/>
    </g>
    <g id="Grupo_86317" data-name="Grupo 86317" transform="translate(823.777 59.281)">
      <path id="Trazado_128945" data-name="Trazado 128945" d="M854.293,121.348l-31.038-17.431c-1.7-.98-1.485-2.693.476-3.825h0c1.961-1.133,8.449-1.139,10.148-.158l29.186,16.387c2.607,1.538.027,3.649-2.145,4.753h0A7.369,7.369,0,0,1,854.293,121.348Z" transform="translate(-822.108 -57.624)" fill="#92b4d1" opacity="0.2"/>
      <g id="Grupo_86307" data-name="Grupo 86307" transform="translate(0.111)">
        <path id="Trazado_128946" data-name="Trazado 128946" d="M853.743,122.258l-28-16.318c-1.951-1.126-3.531-4.147-3.531-6.747V62.665c0-2.6,1.581-3.8,3.531-2.67l28,16.319c1.95,1.125,3.53,4.146,3.53,6.746v36.528C857.273,122.189,855.693,123.384,853.743,122.258Z" transform="translate(-822.216 -58.723)" fill="#a8cff0"/>
        <path id="Trazado_128947" data-name="Trazado 128947" d="M854.144,120.128l-27.458-16a6,6,0,0,1-2.54-5.03V63.511a.626.626,0,0,1,.943-.54l.111.065,27.5,16.032a5.431,5.431,0,0,1,2.54,5.03v35.49a.676.676,0,0,1-1.01.587Z" transform="translate(-822.163 -58.632)" fill="#084c94"/>
        <path id="Trazado_128948" data-name="Trazado 128948" d="M854.792,119.712l-.082-.047-27.458-16a6,6,0,0,1-2.541-5.03V63.048a.661.661,0,0,1,.022-.158.622.622,0,0,0-.586.621V99.093a6,6,0,0,0,2.54,5.03l27.458,16,.083.047a.675.675,0,0,0,.976-.382A.661.661,0,0,1,854.792,119.712Z" transform="translate(-822.163 -58.631)" fill="#001a46"/>
        <path id="Trazado_128949" data-name="Trazado 128949" d="M855.37,75.489l-28-16.318a2.381,2.381,0,0,0-2.066-.3c-.074.029-1.721.868-1.79.906l0,0a2.311,2.311,0,0,1,2.2.243l28,16.319c1.95,1.125,3.53,4.146,3.53,6.746v36.528c0,1.623-.616,2.7-1.552,3a.594.594,0,0,0,.309-.1c.044-.026,1.775-.946,1.818-.975a3.264,3.264,0,0,0,1.088-2.772V82.235C858.9,79.635,857.32,76.615,855.37,75.489Z" transform="translate(-822.18 -58.746)" fill="#3f92d1"/>
        <path id="Trazado_128950" data-name="Trazado 128950" d="M855.37,75.489l-28-16.318a2.381,2.381,0,0,0-2.066-.3c-.074.029-1.721.868-1.79.906l0,0a2.311,2.311,0,0,1,2.2.243l28,16.319Z" transform="translate(-822.18 -58.746)" fill="#4f9fdb"/>
        <path id="Trazado_128951" data-name="Trazado 128951" d="M853.87,76.231l-28-16.318a2.348,2.348,0,0,0-2.128-.272,2.612,2.612,0,0,1,1.7.4l27.995,16.318c1.951,1.125,3.531,4.146,3.531,6.747v36.527c0,1.533-.553,2.573-1.4,2.941,1.089-.173,1.827-1.292,1.827-3.069V82.978C857.4,80.378,855.82,77.358,853.87,76.231Z" transform="translate(-822.173 -58.726)" fill="#fff" style="mix-blend-mode: screen;isolation: isolate"/>
      </g>
      <g id="Grupo_86308" data-name="Grupo 86308" transform="translate(17.318 29.764)">
        <path id="Trazado_128952" data-name="Trazado 128952" d="M839.577,99.724a.618.618,0,0,1-.6-.752,47.383,47.383,0,0,0,1.086-10.4v-.246a.616.616,0,1,1,1.232,0v.246a48.641,48.641,0,0,1-1.116,10.673A.616.616,0,0,1,839.577,99.724Z" transform="translate(-838.959 -87.708)" fill="#a8cff0"/>
      </g>
      <g id="Grupo_86309" data-name="Grupo 86309" transform="translate(12.921 25.571)">
        <path id="Trazado_128953" data-name="Trazado 128953" d="M835.3,104a.589.589,0,0,1-.146-.017.616.616,0,0,1-.454-.744,82.207,82.207,0,0,0,1.833-16.911,3.2,3.2,0,0,1,1.031-2.567.617.617,0,0,1,.775.96,2.022,2.022,0,0,0-.574,1.607,83.594,83.594,0,0,1-1.867,17.2A.616.616,0,0,1,835.3,104Z" transform="translate(-834.681 -83.628)" fill="#a8cff0"/>
      </g>
      <g id="Grupo_86310" data-name="Grupo 86310" transform="translate(18.26 25.669)">
        <path id="Trazado_128954" data-name="Trazado 128954" d="M843.982,90.975a.617.617,0,0,1-.617-.617,7.126,7.126,0,0,0-3.181-5.484.617.617,0,0,1,.617-1.068,8.254,8.254,0,0,1,3.8,6.552A.616.616,0,0,1,843.982,90.975Z" transform="translate(-839.876 -83.723)" fill="#a8cff0"/>
      </g>
      <g id="Grupo_86311" data-name="Grupo 86311" transform="translate(19.232 36.688)">
        <path id="Trazado_128955" data-name="Trazado 128955" d="M841.44,108.28a.662.662,0,0,1-.141-.015.617.617,0,0,1-.46-.741,122.805,122.805,0,0,0,2.17-12.532.616.616,0,1,1,1.224.141,123.527,123.527,0,0,1-2.194,12.671A.616.616,0,0,1,841.44,108.28Z" transform="translate(-840.822 -94.445)" fill="#a8cff0"/>
      </g>
      <g id="Grupo_86312" data-name="Grupo 86312" transform="translate(6.791 16.629)">
        <path id="Trazado_128956" data-name="Trazado 128956" d="M849.17,109.988a.645.645,0,0,1-.158-.021.617.617,0,0,1-.438-.754,56.717,56.717,0,0,0,1.76-14.521v-.247c0-6.224-4.414-13.836-9.84-16.97-2.524-1.457-4.861-1.711-6.581-.718-1.7.984-2.641,3.1-2.641,5.971a59.81,59.81,0,0,1-1.336,12.934.617.617,0,0,1-1.2-.268,58.5,58.5,0,0,0,1.308-12.666c0-3.327,1.156-5.826,3.258-7.04s4.891-.967,7.814.719c5.765,3.329,10.456,11.421,10.456,18.037v.247a57.966,57.966,0,0,1-1.8,14.836A.617.617,0,0,1,849.17,109.988Z" transform="translate(-828.716 -74.927)" fill="#a8cff0"/>
      </g>
      <g id="Grupo_86313" data-name="Grupo 86313" transform="translate(9.65 35.04)">
        <path id="Trazado_128957" data-name="Trazado 128957" d="M832.115,99.986a.621.621,0,0,1-.6-.771,53.663,53.663,0,0,0,1.151-5.845.627.627,0,0,1,.7-.524.616.616,0,0,1,.524.7,54.647,54.647,0,0,1-1.178,5.979A.616.616,0,0,1,832.115,99.986Z" transform="translate(-831.498 -92.841)" fill="#a8cff0"/>
      </g>
      <g id="Grupo_86314" data-name="Grupo 86314" transform="translate(11.039 22.356)">
        <path id="Trazado_128958" data-name="Trazado 128958" d="M833.468,92.629c-.024,0-.046,0-.069,0a.617.617,0,0,1-.546-.681,67.608,67.608,0,0,0,.4-7.447,6.422,6.422,0,0,1,1.026-3.738.617.617,0,1,1,1.005.715,5.214,5.214,0,0,0-.8,3.023,69.352,69.352,0,0,1-.4,7.584A.618.618,0,0,1,833.468,92.629Z" transform="translate(-832.849 -80.499)" fill="#a8cff0"/>
      </g>
      <g id="Grupo_86315" data-name="Grupo 86315" transform="translate(14.254 20.915)">
        <path id="Trazado_128959" data-name="Trazado 128959" d="M846.475,88.512a.615.615,0,0,1-.572-.39,14.335,14.335,0,0,0-5.61-6.94,4.818,4.818,0,0,0-3.544-.754.616.616,0,0,1-.309-1.193,6.007,6.007,0,0,1,4.47.879,15.4,15.4,0,0,1,6.14,7.555.616.616,0,0,1-.573.844Z" transform="translate(-835.978 -79.097)" fill="#a8cff0"/>
      </g>
      <g id="Grupo_86316" data-name="Grupo 86316" transform="translate(22.56 33.609)">
        <path id="Trazado_128960" data-name="Trazado 128960" d="M844.677,109.5a.617.617,0,0,1-.585-.812l.136-.41a50.8,50.8,0,0,0,2.35-15.972v-.246a.617.617,0,1,1,1.233,0v.246a52.052,52.052,0,0,1-2.413,16.361l-.137.41A.618.618,0,0,1,844.677,109.5Z" transform="translate(-844.06 -91.449)" fill="#a8cff0"/>
      </g>
    </g>
    <g id="Grupo_86324" data-name="Grupo 86324" transform="translate(1025.312 49.942)">
      <path id="Trazado_128961" data-name="Trazado 128961" d="M1060.716,111.842l-12.159-6.826a3.452,3.452,0,0,0,1.666-2.671c0-2.72-4.641-4.925-10.368-4.925s-10.366,2.2-10.366,4.925,4.641,4.924,10.366,4.924a20.846,20.846,0,0,0,3.4-.276l13.093,7.352a3.663,3.663,0,0,0,3.3-.137C1060.73,113.659,1062.014,112.608,1060.716,111.842Z" transform="translate(-1017.895 -48.335)" fill="#92b4d1" opacity="0.2"/>
      <g id="Grupo_86319" data-name="Grupo 86319" transform="translate(8.489 9.144)">
        <g id="Grupo_86318" data-name="Grupo 86318">
          <path id="Trazado_128962" data-name="Trazado 128962" d="M1046.876,72.962a.586.586,0,0,0-.8-.219l-1.606.916a2.666,2.666,0,0,1-2.592-.322l-.517-.3c.033-.5.051-1.015.051-1.553l-9.4-5.427c0,.535.019,1.073.051,1.606a8.721,8.721,0,0,1-2.891-3.084l-1.607-2.771a.587.587,0,1,0-1.015.589l1.607,2.771a9.733,9.733,0,0,0,3.39,3.557l.644.372q.085.74.206,1.461l-2.759-1.594a.587.587,0,0,0-.587,1.017l3.654,2.109c.091.4.192.783.3,1.162a3.278,3.278,0,0,0-1.71.079,2.9,2.9,0,0,0-1.744,1.74l-.623,1.545a.587.587,0,0,0,1.089.438l.622-1.545a1.737,1.737,0,0,1,1.038-1.068,2.516,2.516,0,0,1,1.757.16c.847,2.383,2,4.22,3.281,4.957,1.246.719,2.38.257,3.222-1.077a9.971,9.971,0,0,1,2.832,4.608l.623,2.263a.585.585,0,0,0,.565.432.633.633,0,0,0,.156-.021.587.587,0,0,0,.41-.721l-.623-2.264a10.993,10.993,0,0,0-3.418-5.38c.086-.214.167-.441.241-.679l3.067,1.771a.587.587,0,1,0,.587-1.016l-3.346-1.932q.122-.58.206-1.222l.058.033a4.7,4.7,0,0,0,2.318.691,2.876,2.876,0,0,0,1.442-.366l1.607-.916A.587.587,0,0,0,1046.876,72.962Z" transform="translate(-1026.468 -58.474)" fill="#03336e"/>
          <path id="Trazado_128963" data-name="Trazado 128963" d="M1032.107,59.668a4.749,4.749,0,0,1,2.167,3.066l.1.5c-1.092.189-1.815,1.186-1.815,2.8l8,4.621a8.667,8.667,0,0,0-1.948-5.059l.227-.845a.752.752,0,0,1,.422-.559,1.4,1.4,0,0,1,1.169.287.587.587,0,1,0,.64-.984,2.468,2.468,0,0,0-2.228-.4,1.9,1.9,0,0,0-1.137,1.349l-.036.134a6.484,6.484,0,0,0-1.112-.826,4.387,4.387,0,0,0-.97-.418l-.171-.835a5.851,5.851,0,0,0-2.789-3.879.587.587,0,0,0-.527,1.048Z" transform="translate(-1026.321 -58.556)" fill="#03336e"/>
        </g>
      </g>
      <g id="Grupo_86320" data-name="Grupo 86320" transform="translate(7.61 9.408)">
        <path id="Trazado_128964" data-name="Trazado 128964" d="M1046.021,73.219a.585.585,0,0,0-.8-.219l-1.606.916a2.669,2.669,0,0,1-2.592-.323l-.517-.3q.051-.746.051-1.553l-9.4-5.428q0,.8.05,1.607a8.729,8.729,0,0,1-2.891-3.084l-1.606-2.772a.587.587,0,0,0-1.016.589l1.607,2.771a9.738,9.738,0,0,0,3.391,3.558l.643.371c.057.493.125.981.207,1.461l-2.759-1.593a.587.587,0,0,0-.587,1.016l3.653,2.109c.091.4.192.784.3,1.162a3.28,3.28,0,0,0-1.711.08,2.9,2.9,0,0,0-1.744,1.739l-.623,1.545a.587.587,0,1,0,1.089.439l.622-1.545a1.74,1.74,0,0,1,1.039-1.069,2.524,2.524,0,0,1,1.756.16c.848,2.383,2,4.22,3.281,4.957,1.247.72,2.38.257,3.222-1.076a9.964,9.964,0,0,1,2.831,4.607l.623,2.264a.587.587,0,0,0,1.131-.311l-.622-2.263a11,11,0,0,0-3.419-5.38c.086-.215.166-.442.242-.679l3.067,1.771a.593.593,0,0,0,.293.078.587.587,0,0,0,.294-1.1l-3.347-1.932c.081-.385.151-.794.208-1.222l.057.033a4.7,4.7,0,0,0,2.318.691,2.878,2.878,0,0,0,1.443-.365l1.607-.916A.587.587,0,0,0,1046.021,73.219Z" transform="translate(-1025.613 -58.731)" fill="#084c94"/>
        <path id="Trazado_128965" data-name="Trazado 128965" d="M1031.253,59.924a4.754,4.754,0,0,1,2.166,3.066l.1.5c-1.092.19-1.815,1.186-1.815,2.8l8,4.622a8.662,8.662,0,0,0-1.948-5.059l.227-.846a.75.75,0,0,1,.422-.558,1.393,1.393,0,0,1,1.168.286.587.587,0,0,0,.64-.984,2.474,2.474,0,0,0-2.228-.4,1.906,1.906,0,0,0-1.136,1.35l-.035.133a6.487,6.487,0,0,0-1.113-.826,4.394,4.394,0,0,0-.969-.418l-.171-.835a5.859,5.859,0,0,0-2.789-3.879.587.587,0,1,0-.527,1.048Z" transform="translate(-1025.466 -58.813)" fill="#084c94"/>
      </g>
      <g id="Grupo_86323" data-name="Grupo 86323">
        <g id="Grupo_86321" data-name="Grupo 86321" transform="translate(26.445 40.267)">
          <path id="Trazado_128966" data-name="Trazado 128966" d="M1059.975,110.186a2.783,2.783,0,1,1-3.771-1.131A2.783,2.783,0,0,1,1059.975,110.186Z" transform="translate(-1043.64 -88.289)" fill="#001a46"/>
          <path id="Trazado_128967" data-name="Trazado 128967" d="M1051.428,93.12l-6.025,3.247,8.987,16.579h0l.011.026c.522.968,2.294,1.027,3.958.131s2.589-2.409,2.067-3.377l-.013-.024h0Z" transform="translate(-1043.899 -88.721)" fill="#084c94"/>
          <path id="Trazado_128968" data-name="Trazado 128968" d="M1051.438,93.153c.522.969-.4,2.481-2.067,3.377s-3.436.838-3.958-.131.4-2.481,2.068-3.378S1050.916,92.184,1051.438,93.153Z" transform="translate(-1043.903 -88.742)" fill="#2672ab"/>
          <path id="Trazado_128969" data-name="Trazado 128969" d="M1047.524,88.84l-3.584,1.931,2.548,4.729h0l.007.014c.31.577,1.364.611,2.354.078s1.54-1.433,1.229-2.008l-.008-.014h0Z" transform="translate(-1043.94 -88.84)" fill="#001a46"/>
        </g>
        <g id="Grupo_86322" data-name="Grupo 86322" transform="translate(3.977)">
          <path id="Trazado_128970" data-name="Trazado 128970" d="M1038.013,51.915c-4.462-2.575-8.509-2.871-11.468-1.268-.083.045-4.332,2.416-4.466,2.621,3.013-2.272,7.474-2.237,12.451.636,9.073,5.238,16.428,17.925,16.428,28.336,0,5.312-1.916,9-5,10.652a3.7,3.7,0,0,0,.8-.353c.088-.049,2.985-1.8,3.071-1.857,2.853-1.743,4.608-5.345,4.608-10.431C1054.441,69.84,1047.086,57.153,1038.013,51.915Z" transform="translate(-1022.078 -49.659)" fill="#72b5e8"/>
        </g>
        <path id="Trazado_128971" data-name="Trazado 128971" d="M1034.636,53.85c-9.074-5.238-16.428-1.045-16.428,9.367s7.354,23.1,16.428,28.336,16.428,1.045,16.428-9.367S1043.709,59.088,1034.636,53.85Zm-.247,35.217c-7.7-4.445-13.941-15.211-13.941-24.047s6.241-12.393,13.941-7.948,13.941,15.211,13.941,24.047S1042.089,93.511,1034.389,89.067Z" transform="translate(-1018.208 -49.605)" fill="#d1ebff"/>
        <path id="Trazado_128972" data-name="Trazado 128972" d="M1037.215,87.351c-7.7-4.446-13.941-15.211-13.941-24.047,0-3.6,1.039-6.329,2.791-7.992-3.443.925-5.677,4.319-5.677,9.6,0,8.835,6.242,19.6,13.941,24.047,4.559,2.632,8.605,2.457,11.15.043C1043.165,89.628,1040.308,89.137,1037.215,87.351Z" transform="translate(-1018.148 -49.502)" fill="#72b5e8"/>
        <path id="Trazado_128973" data-name="Trazado 128973" d="M1035.263,53.466c-4.349-2.511-8.3-2.849-11.24-1.379a14.279,14.279,0,0,1,10.452,1.774C1043.547,59.1,1050.9,71.786,1050.9,82.2c0,5.42-2.627,9.308-5.819,10.9,4.01-1.121,6.607-5.112,6.607-11.3C1051.691,71.391,1044.336,58.705,1035.263,53.466Z" transform="translate(-1018.047 -49.615)" fill="#fff" style="mix-blend-mode: screen;isolation: isolate"/>
      </g>
    </g>
    <g id="Grupo_86327" data-name="Grupo 86327" transform="translate(1030.478 189.985)">
      <path id="Trazado_128974" data-name="Trazado 128974" d="M1066.612,235.939c-5.6,3.232-14.7,3.216-20.334-.036s-5.661-8.508-.064-11.741,14.7-3.215,20.334.037S1072.21,232.708,1066.612,235.939Z" transform="translate(-1022.714 -184.932)" fill="#92b4d1" opacity="0.2"/>
      <ellipse id="Elipse_5448" data-name="Elipse 5448" cx="14.271" cy="24.72" rx="14.271" ry="24.72" transform="translate(4.689 14.405) rotate(-30.311)" fill="#084c94"/>
      <ellipse id="Elipse_5449" data-name="Elipse 5449" cx="14.271" cy="24.72" rx="14.271" ry="24.72" transform="translate(3.981 14.791) rotate(-30.311)" fill="#2672ab"/>
      <path id="Trazado_128975" data-name="Trazado 128975" d="M1067.42,224.813c0,5.207-1.8,8.9-4.718,10.681-.088.053-3.357,2.068-3.447,2.118-3.04,1.7-1.1-2.157-5.712-4.822-9.29-5.364-16.82-18.354-16.82-29.014,0-5.271-4.874-5.313-1.889-7.074.083-.049,3.938-2.155,4.023-2.2,3.031-1.641,7.173-1.339,11.742,1.3C1059.889,201.163,1067.42,214.152,1067.42,224.813Z" transform="translate(-1022.94 -185.715)" fill="#72b5e8"/>
      <ellipse id="Elipse_5450" data-name="Elipse 5450" cx="13.691" cy="23.715" rx="13.691" ry="23.715" transform="translate(0 18.076) rotate(-30.311)" fill="#d1ebff"/>
      <path id="Trazado_128976" data-name="Trazado 128976" d="M1047.352,197.673c-4.453-2.571-8.5-2.918-11.508-1.413.03-.008.063-.011.093-.02,2.91-1.082,6.637-.6,10.709,1.754,9.29,5.364,16.82,18.353,16.82,29.013,0,5.5-2.008,9.306-5.227,10.964,3.63-1.445,5.934-5.389,5.934-11.285C1064.173,216.027,1056.642,203.037,1047.352,197.673Z" transform="translate(-1022.885 -185.663)" fill="#fff" style="mix-blend-mode: color-dodge;isolation: isolate"/>
      <g id="Grupo_86325" data-name="Grupo 86325" transform="translate(7.324 11.418)">
        <path id="Trazado_128977" data-name="Trazado 128977" d="M1054.1,206.681l-1.539,1.8c.165.209.328.419.488.635l1.512-1.836c-.125-.168-.254-.332-.384-.5Z" transform="translate(-1029.745 -196.768)" fill="#084c94"/>
        <path id="Trazado_128978" data-name="Trazado 128978" d="M1053.163,205.508q-.186-.216-.376-.423l-.107-.12-1.289,2.116.06.067c.151.17.3.338.451.512Z" transform="translate(-1029.778 -196.815)" fill="#084c94"/>
        <path id="Trazado_128979" data-name="Trazado 128979" d="M1052.89,237.055c.082,0,.165.007.246.009l-1.312-3.754c-.136.006-.269,0-.407-.005l1.339,3.745Z" transform="translate(-1029.777 -196.03)" fill="#084c94"/>
        <path id="Trazado_128980" data-name="Trazado 128980" d="M1051.679,203.867c-.145-.15-.293-.3-.442-.441l-.049-.049-1.024,2.416.091.089c.145.141.29.283.432.429Z" transform="translate(-1029.812 -196.859)" fill="#084c94"/>
        <path id="Trazado_128981" data-name="Trazado 128981" d="M1055.845,236.552l-1.834-3.693c-.12.045-.237.084-.345.118l1.859,3.679C1055.632,236.624,1055.74,236.591,1055.845,236.552Z" transform="translate(-1029.715 -196.042)" fill="#084c94"/>
        <path id="Trazado_128982" data-name="Trazado 128982" d="M1054.264,236.954c.092-.009.183-.021.273-.034l-1.583-3.749c-.122.024-.247.042-.377.059l1.609,3.735Z" transform="translate(-1029.745 -196.033)" fill="#084c94"/>
        <path id="Trazado_128983" data-name="Trazado 128983" d="M1055.425,208.512l-1.772,1.458c.154.225.307.451.455.679l1.748-1.5c-.14-.214-.283-.423-.426-.633Z" transform="translate(-1029.715 -196.717)" fill="#084c94"/>
        <path id="Trazado_128984" data-name="Trazado 128984" d="M1051.353,236.933c.1.017.2.035.3.05l-1.023-3.711c-.144-.017-.291-.042-.434-.068l1.055,3.711Z" transform="translate(-1029.811 -196.032)" fill="#084c94"/>
        <path id="Trazado_128985" data-name="Trazado 128985" d="M1058.566,224.827c-.007.19-.015.374-.029.553l2.861,1.8c.008-.17.016-.342.02-.516Z" transform="translate(-1029.58 -196.265)" fill="#084c94"/>
        <path id="Trazado_128986" data-name="Trazado 128986" d="M1046.441,235.2c.155.084.309.167.465.244l-.135-3.356c-.161-.08-.327-.164-.5-.255Z" transform="translate(-1029.92 -196.07)" fill="#084c94"/>
        <path id="Trazado_128987" data-name="Trazado 128987" d="M1046.433,199.564l-.165,3.165c.172.1.341.212.512.322l.132-3.181C1046.753,199.765,1046.593,199.663,1046.433,199.564Z" transform="translate(-1029.92 -196.965)" fill="#084c94"/>
        <path id="Trazado_128988" data-name="Trazado 128988" d="M1050.106,236.682l-.731-3.633c-.148-.037-.3-.079-.456-.127l.764,3.636C1049.824,236.6,1049.965,236.643,1050.106,236.682Z" transform="translate(-1029.847 -196.04)" fill="#084c94"/>
        <path id="Trazado_128989" data-name="Trazado 128989" d="M1049.639,201.94l-.747,2.692q.265.224.526.454l.714-2.717C1049.97,202.223,1049.8,202.08,1049.639,201.94Z" transform="translate(-1029.847 -196.899)" fill="#084c94"/>
        <path id="Trazado_128990" data-name="Trazado 128990" d="M1054.665,211.542c.141.236.279.474.413.714l1.965-1.147c-.128-.226-.259-.45-.391-.674Z" transform="translate(-1029.687 -196.664)" fill="#084c94"/>
        <path id="Trazado_128991" data-name="Trazado 128991" d="M1048.52,236.168l-.434-3.514c-.15-.056-.307-.119-.479-.19l.467,3.522C1048.223,236.048,1048.37,236.109,1048.52,236.168Z" transform="translate(-1029.883 -196.053)" fill="#084c94"/>
        <path id="Trazado_128992" data-name="Trazado 128992" d="M1048.049,200.664l-.46,2.943c.175.127.348.256.521.388l.427-2.963C1048.375,200.907,1048.213,200.784,1048.049,200.664Z" transform="translate(-1029.883 -196.934)" fill="#084c94"/>
        <path id="Trazado_128993" data-name="Trazado 128993" d="M1058.094,219.992q.069.339.13.676l2.725.716c-.04-.213-.08-.423-.128-.636Z" transform="translate(-1029.592 -196.399)" fill="#084c94"/>
        <path id="Trazado_128994" data-name="Trazado 128994" d="M1057.044,235.971l-2.067-3.593c-.1.064-.209.122-.312.178l2.091,3.578C1056.856,236.08,1056.952,236.025,1057.044,235.971Z" transform="translate(-1029.687 -196.055)" fill="#084c94"/>
        <path id="Trazado_128995" data-name="Trazado 128995" d="M1060.867,230.549c.037-.139.071-.282.106-.424l-2.787-2.484c-.037.156-.075.306-.118.453Z" transform="translate(-1029.593 -196.187)" fill="#084c94"/>
        <path id="Trazado_128996" data-name="Trazado 128996" d="M1060.5,231.647l-2.706-2.772c-.048.135-.1.272-.157.4l2.72,2.747c.038-.1.074-.194.11-.293Z" transform="translate(-1029.605 -196.152)" fill="#084c94"/>
        <path id="Trazado_128997" data-name="Trazado 128997" d="M1058.57,223.879l2.845,1.452c-.007-.187-.015-.374-.027-.561l-2.841-1.488C1058.557,223.481,1058.565,223.681,1058.57,223.879Z" transform="translate(-1029.58 -196.307)" fill="#084c94"/>
        <path id="Trazado_128998" data-name="Trazado 128998" d="M1061.189,222.79l-2.8-1.126c.026.191.05.4.076.639l2.8,1.087C1061.242,223.191,1061.218,222.992,1061.189,222.79Z" transform="translate(-1029.584 -196.352)" fill="#084c94"/>
        <path id="Trazado_128999" data-name="Trazado 128999" d="M1058.371,226.79l2.846,2.14c.024-.155.044-.312.065-.471l-2.836-2.172C1058.42,226.475,1058.4,226.637,1058.371,226.79Z" transform="translate(-1029.584 -196.224)" fill="#084c94"/>
        <path id="Trazado_129000" data-name="Trazado 129000" d="M1060.29,218.664l-2.63-.38c.062.217.117.434.173.651l.014.057,2.622.339-.01-.042C1060.405,219.08,1060.35,218.873,1060.29,218.664Z" transform="translate(-1029.604 -196.446)" fill="#084c94"/>
        <path id="Trazado_129001" data-name="Trazado 129001" d="M1058.12,235.179l-2.271-3.446c-.1.09-.188.166-.275.236l2.295,3.43C1057.952,235.329,1058.036,235.254,1058.12,235.179Z" transform="translate(-1029.662 -196.073)" fill="#084c94"/>
        <path id="Trazado_129002" data-name="Trazado 129002" d="M1057.767,212.432l-2.185.745q.188.364.363.732l2.164-.784-.007-.012C1057.992,212.885,1057.881,212.658,1057.767,212.432Z" transform="translate(-1029.662 -196.608)" fill="#084c94"/>
        <path id="Trazado_129003" data-name="Trazado 129003" d="M1059.015,234.246l.045-.059-2.446-3.259c-.078.1-.156.2-.24.293l2.471,3.244C1058.9,234.394,1058.96,234.32,1059.015,234.246Z" transform="translate(-1029.64 -196.096)" fill="#084c94"/>
        <path id="Trazado_129004" data-name="Trazado 129004" d="M1058.755,214.483l-2.36.373c.106.246.206.49.306.737l2.34-.414-.044-.108C1058.918,214.874,1058.839,214.677,1058.755,214.483Z" transform="translate(-1029.639 -196.551)" fill="#084c94"/>
        <path id="Trazado_129005" data-name="Trazado 129005" d="M1059.6,216.566l-2.509,0c.078.22.151.44.224.66l.024.069,2.492-.039c-.016-.051-.033-.1-.05-.152C1059.723,216.921,1059.664,216.744,1059.6,216.566Z" transform="translate(-1029.62 -196.494)" fill="#084c94"/>
        <path id="Trazado_129006" data-name="Trazado 129006" d="M1059.678,233.339c.039-.069.076-.14.113-.211.021-.04.042-.081.064-.122l-2.59-3.033c-.064.118-.129.237-.2.35Z" transform="translate(-1029.621 -196.122)" fill="#084c94"/>
        <path id="Trazado_129007" data-name="Trazado 129007" d="M1033.686,214.045c-.048-.226-.09-.451-.133-.677l-2.723-.715c.04.213.08.423.127.636Z" transform="translate(-1030.348 -196.602)" fill="#084c94"/>
        <path id="Trazado_129008" data-name="Trazado 129008" d="M1032.175,217.454l2.51,0c-.075-.209-.145-.419-.214-.63l-.033-.1-2.493.04.054.166C1032.056,217.107,1032.113,217.281,1032.175,217.454Z" transform="translate(-1030.317 -196.489)" fill="#084c94"/>
        <path id="Trazado_129009" data-name="Trazado 129009" d="M1031.922,201.083l2.591,3.033c.063-.118.128-.236.2-.351l-2.613-3.012c-.037.067-.073.137-.11.2Z" transform="translate(-1030.318 -196.932)" fill="#084c94"/>
        <path id="Trazado_129010" data-name="Trazado 129010" d="M1032.771,199.833c-.019.025-.038.048-.057.074l2.446,3.258c.077-.1.156-.2.24-.294l-2.471-3.243C1032.875,199.694,1032.823,199.763,1032.771,199.833Z" transform="translate(-1030.296 -196.963)" fill="#084c94"/>
        <path id="Trazado_129011" data-name="Trazado 129011" d="M1033.651,198.919l2.27,3.445c.086-.076.179-.157.276-.235L1033.9,198.7C1033.819,198.768,1033.736,198.842,1033.651,198.919Z" transform="translate(-1030.27 -196.989)" fill="#084c94"/>
        <path id="Trazado_129012" data-name="Trazado 129012" d="M1036.188,220.862c-.125-.243-.246-.487-.364-.732l-2.162.784c.112.231.224.464.341.692Z" transform="translate(-1030.269 -196.395)" fill="#084c94"/>
        <path id="Trazado_129013" data-name="Trazado 129013" d="M1031.488,215.362l2.629.38c-.061-.217-.116-.434-.172-.651l-.014-.055-2.622-.339.01.039C1031.374,214.945,1031.427,215.153,1031.488,215.362Z" transform="translate(-1030.335 -196.545)" fill="#084c94"/>
        <path id="Trazado_129014" data-name="Trazado 129014" d="M1033.02,219.545l2.36-.372c-.107-.246-.209-.491-.308-.738l-2.339.415.057.143C1032.864,219.177,1032.94,219.362,1033.02,219.545Z" transform="translate(-1030.295 -196.442)" fill="#084c94"/>
        <path id="Trazado_129015" data-name="Trazado 129015" d="M1045.286,234.528l.166-3.166c-.182-.111-.351-.217-.511-.321l-.133,3.182C1044.966,234.327,1045.127,234.429,1045.286,234.528Z" transform="translate(-1029.96 -196.092)" fill="#084c94"/>
        <path id="Trazado_129016" data-name="Trazado 129016" d="M1033.215,209.235c.005-.187.015-.372.027-.552l-2.859-1.8c-.01.171-.016.343-.022.517Z" transform="translate(-1030.361 -196.762)" fill="#084c94"/>
        <path id="Trazado_129017" data-name="Trazado 129017" d="M1030.391,209.284l2.843,1.488c-.011-.2-.02-.4-.024-.6l-2.844-1.451C1030.371,208.909,1030.38,209.1,1030.391,209.284Z" transform="translate(-1030.361 -196.711)" fill="#084c94"/>
        <path id="Trazado_129018" data-name="Trazado 129018" d="M1030.59,211.255l2.8,1.126c-.029-.214-.053-.428-.077-.639l-2.8-1.088C1030.537,210.854,1030.562,211.054,1030.59,211.255Z" transform="translate(-1030.357 -196.658)" fill="#084c94"/>
        <path id="Trazado_129019" data-name="Trazado 129019" d="M1033.41,207.281l-2.845-2.141c-.024.156-.045.312-.066.472l2.837,2.173C1033.356,207.626,1033.38,207.453,1033.41,207.281Z" transform="translate(-1030.357 -196.81)" fill="#084c94"/>
        <path id="Trazado_129020" data-name="Trazado 129020" d="M1031.284,202.437l2.7,2.772c.049-.135.1-.272.158-.4l-2.719-2.747c-.039.1-.075.194-.11.291Z" transform="translate(-1030.335 -196.896)" fill="#084c94"/>
        <path id="Trazado_129021" data-name="Trazado 129021" d="M1034.723,198.129l2.067,3.592c.1-.063.207-.122.311-.177l-2.089-3.579C1034.915,198.017,1034.819,198.072,1034.723,198.129Z" transform="translate(-1030.24 -197.009)" fill="#084c94"/>
        <path id="Trazado_129022" data-name="Trazado 129022" d="M1030.914,203.528c-.038.139-.071.282-.106.424l2.785,2.485c.037-.152.076-.306.119-.454Z" transform="translate(-1030.349 -196.855)" fill="#084c94"/>
        <path id="Trazado_129023" data-name="Trazado 129023" d="M1040.392,197.169c-.1-.019-.2-.036-.3-.051l1.025,3.71c.144.017.29.042.432.069l-1.056-3.711Z" transform="translate(-1030.091 -197.033)" fill="#084c94"/>
        <path id="Trazado_129024" data-name="Trazado 129024" d="M1042.1,232.144l.747-2.692c-.176-.15-.351-.3-.526-.455l-.713,2.717C1041.766,231.861,1041.932,232,1042.1,232.144Z" transform="translate(-1030.049 -196.149)" fill="#084c94"/>
        <path id="Trazado_129025" data-name="Trazado 129025" d="M1040.065,230.211c.144.149.291.294.438.438l.052.051,1.023-2.417-.075-.073c-.15-.147-.3-.293-.447-.443Z" transform="translate(-1030.092 -196.183)" fill="#084c94"/>
        <path id="Trazado_129026" data-name="Trazado 129026" d="M1041.627,197.418l.733,3.633c.152.037.305.08.456.126l-.764-3.635C1041.911,197.5,1041.768,197.456,1041.627,197.418Z" transform="translate(-1030.049 -197.024)" fill="#084c94"/>
        <path id="Trazado_129027" data-name="Trazado 129027" d="M1043.208,197.931l.433,3.513c.164.061.327.126.478.189l-.466-3.52C1043.5,198.05,1043.355,197.989,1043.208,197.931Z" transform="translate(-1030.005 -197.01)" fill="#084c94"/>
        <path id="Trazado_129028" data-name="Trazado 129028" d="M1037.1,222.506c-.141-.236-.278-.475-.413-.715l-1.965,1.147c.129.227.258.451.391.675Z" transform="translate(-1030.24 -196.349)" fill="#084c94"/>
        <path id="Trazado_129029" data-name="Trazado 129029" d="M1043.679,233.426l.459-2.945c-.175-.127-.348-.256-.521-.389l-.425,2.964C1043.352,233.182,1043.516,233.3,1043.679,233.426Z" transform="translate(-1030.005 -196.119)" fill="#084c94"/>
        <path id="Trazado_129030" data-name="Trazado 129030" d="M1044.814,198.65l.133,3.358c.163.08.328.164.5.255l-.167-3.37C1045.122,198.809,1044.967,198.728,1044.814,198.65Z" transform="translate(-1029.96 -196.99)" fill="#084c94"/>
        <path id="Trazado_129031" data-name="Trazado 129031" d="M1036.338,225.545l1.771-1.458c-.153-.225-.307-.452-.455-.68l-1.748,1.5c.139.214.281.421.423.631Z" transform="translate(-1030.207 -196.304)" fill="#084c94"/>
        <path id="Trazado_129032" data-name="Trazado 129032" d="M1035.916,197.549l1.835,3.693c.119-.045.237-.085.345-.118l-1.86-3.678C1036.129,197.477,1036.021,197.511,1035.916,197.549Z" transform="translate(-1030.207 -197.024)" fill="#084c94"/>
        <path id="Trazado_129033" data-name="Trazado 129033" d="M1037.483,197.147c-.089.01-.179.022-.267.035l1.583,3.747c.125-.024.251-.041.376-.058l-1.608-3.735Z" transform="translate(-1030.171 -197.032)" fill="#084c94"/>
        <path id="Trazado_129034" data-name="Trazado 129034" d="M1038.588,228.564c.125.146.254.289.381.431l.1.113,1.29-2.116-.043-.048c-.157-.176-.315-.351-.469-.531Z" transform="translate(-1030.133 -196.221)" fill="#084c94"/>
        <path id="Trazado_129035" data-name="Trazado 129035" d="M1038.86,197.045l-.247-.01,1.313,3.754c.034,0,.067,0,.1,0,.1,0,.2,0,.305.007l-1.339-3.744Z" transform="translate(-1030.132 -197.035)" fill="#084c94"/>
        <path id="Trazado_129036" data-name="Trazado 129036" d="M1037.66,227.382l1.538-1.8q-.247-.313-.488-.635l-1.513,1.833c.123.165.249.325.376.485Z" transform="translate(-1030.171 -196.261)" fill="#084c94"/>
      </g>
      <g id="Grupo_86326" data-name="Grupo 86326" transform="translate(3.21 20.007)">
        <path id="Trazado_129037" data-name="Trazado 129037" d="M1054.876,224.07c0,3.106-1.072,5.306-2.814,6.371-.052.032-6.331,1.642-6.379,1.668-1.631.873-.588-1.107-3.066-2.475-4.987-2.753-9.03-9.421-9.03-14.894,0-2.706-2.617-2.728-1.013-3.631.044-.026,5.214-5.091,5.214-5.091,1.859-1.007,4.33-.826,7.055.746C1050.384,209.963,1054.876,217.711,1054.876,224.07Z" transform="translate(-1026.201 -205.392)" fill="#a8cff0"/>
        <ellipse id="Elipse_5451" data-name="Elipse 5451" cx="7.261" cy="12.323" rx="7.261" ry="12.323" transform="translate(0 9.855) rotate(-32.629)" fill="#d1ebff"/>
        <path id="Trazado_129038" data-name="Trazado 129038" d="M1039.333,211.433c-2.4-1.327-4.587-1.506-6.21-.73a7.416,7.416,0,0,1,5.426,1.022c5.013,2.768,9.077,9.47,9.077,14.971,0,2.864-1.1,4.834-2.866,5.678,2.216-.593,3.65-2.7,3.65-5.97C1048.41,220.9,1044.347,214.2,1039.333,211.433Z" transform="translate(-1026.171 -205.258)" fill="#fff" style="mix-blend-mode: color-dodge;isolation: isolate"/>
      </g>
      <path id="Trazado_129039" data-name="Trazado 129039" d="M1047.21,209.1l6.252-4.16-3.254,7.345Z" transform="translate(-1022.57 -185.398)" fill="#03336e"/>
    </g>
    <g id="Grupo_86331" data-name="Grupo 86331" transform="translate(877.901 73.615)">
      <g id="Grupo_86329" data-name="Grupo 86329" transform="translate(0 0)">
        <path id="Trazado_129040" data-name="Trazado 129040" d="M950.3,221.2,876.734,178.73c-2.905-1.677-2.541-4.607.814-6.543L919.3,148.081c3.354-1.937,8.429-2.147,11.333-.47l73.568,42.474c2.9,1.677,2.541,4.607-.814,6.544l-41.751,24.1C958.281,222.671,953.206,222.882,950.3,221.2Z" transform="translate(-874.773 -70.648)" fill="#92b4d1" opacity="0.2"/>
        <path id="Trazado_129041" data-name="Trazado 129041" d="M950.3,217.168l-73.567-42.474a3.391,3.391,0,0,1-1.961-2.79V168.26c.024-1.271.963.936,2.775-.11l41.751-24.1c3.354-1.937,8.429-2.148,11.334-.471L1004.2,186.05c.969.56,1.673-1.817,1.924-1.061.084.252.031,3.586.037,3.847.028,1.3-.914,2.683-2.775,3.757L961.636,216.7C958.281,218.636,953.206,218.846,950.3,217.168Z" transform="translate(-874.773 -70.76)" fill="#2672ab"/>
        <path id="Trazado_129042" data-name="Trazado 129042" d="M950.3,213.688l-73.567-42.475c-2.905-1.677-2.541-4.606.814-6.543L919.3,140.565c3.354-1.936,8.429-2.147,11.333-.47L1004.2,182.57c2.9,1.677,2.541,4.606-.814,6.543l-41.751,24.105C958.281,215.155,953.206,215.366,950.3,213.688Z" transform="translate(-874.773 -70.856)" fill="#d1ebff"/>
        <path id="Trazado_129043" data-name="Trazado 129043" d="M948.265,215.262c2.9,1.677,7.979,1.468,11.334-.47v-3.576c-3.354,1.936-8.429,2.147-11.334.47Z" transform="translate(-872.736 -68.854)" fill="#3f92d1" opacity="0.5"/>
        <path id="Trazado_129044" data-name="Trazado 129044" d="M950.3,212.9l-73.568-42.475a3.277,3.277,0,0,1-1.945-3.057,1.67,1.67,0,0,0-.015.2v3.644a3.391,3.391,0,0,0,1.961,2.79L950.3,216.477Z" transform="translate(-874.773 -70.069)" fill="#3f92d1"/>
        <path id="Trazado_129045" data-name="Trazado 129045" d="M1003.387,187.722l-41.751,24.105c-3.355,1.936-8.429,2.147-11.335.47l-73.567-42.475a3.476,3.476,0,0,1-1.939-2.574,3.245,3.245,0,0,0,1.939,3.182L950.3,212.9c2.905,1.677,7.98,1.467,11.335-.47l41.751-24.105c1.963-1.134,2.893-2.605,2.752-3.969A4.949,4.949,0,0,1,1003.387,187.722Z" transform="translate(-874.773 -70.072)" fill="#fff"/>
        <path id="Trazado_129046" data-name="Trazado 129046" d="M932.686,197.835,906.5,182.72c-.525-.3-.459-.831.146-1.181l9.83-5.676a2.273,2.273,0,0,1,2.046-.084L944.708,190.9c.524.3.458.831-.147,1.181l-9.83,5.675A2.272,2.272,0,0,1,932.686,197.835Z" transform="translate(-873.903 -69.842)" fill="#fff" opacity="0.3"/>
        <path id="Trazado_129047" data-name="Trazado 129047" d="M906.649,182.16l9.83-5.676a2.274,2.274,0,0,1,2.046-.084l26.182,15.116a.813.813,0,0,1,.241.213.548.548,0,0,0-.241-.833l-26.182-15.116a2.274,2.274,0,0,0-2.046.084l-9.83,5.676c-.481.277-.615.667-.388.968A1.142,1.142,0,0,1,906.649,182.16Z" transform="translate(-873.903 -69.842)" fill="#a8cff0"/>
        <path id="Trazado_129048" data-name="Trazado 129048" d="M925.146,145.415l4.513,2.605a2.292,2.292,0,0,0,2.072,0,.631.631,0,0,0-.007-1.2l-4.512-2.605a2.292,2.292,0,0,0-2.072,0A.631.631,0,0,0,925.146,145.415Zm7.726,4.46,2.137,1.234a2.292,2.292,0,0,0,2.072,0,.632.632,0,0,0-.006-1.2l-2.138-1.234a2.289,2.289,0,0,0-2.072,0A.631.631,0,0,0,932.873,149.875Zm5.35,3.089,2.138,1.234a2.293,2.293,0,0,0,2.072,0,.632.632,0,0,0-.007-1.2l-2.137-1.234a2.289,2.289,0,0,0-2.072,0A.631.631,0,0,0,938.223,152.964Zm5.351,3.089,2.138,1.234a2.29,2.29,0,0,0,2.071,0,.632.632,0,0,0-.006-1.2l-2.138-1.234a2.292,2.292,0,0,0-2.072,0A.632.632,0,0,0,943.574,156.054Zm5.35,3.089,2.138,1.234a2.292,2.292,0,0,0,2.072,0,.631.631,0,0,0-.007-1.2l-2.137-1.234a2.292,2.292,0,0,0-2.072,0A.631.631,0,0,0,948.925,159.143Zm5.351,3.089,2.138,1.234a2.29,2.29,0,0,0,2.071,0,.632.632,0,0,0-.006-1.2l-2.138-1.234a2.29,2.29,0,0,0-2.071,0A.631.631,0,0,0,954.276,162.232Zm5.35,3.089,2.138,1.234a2.293,2.293,0,0,0,2.072,0,.631.631,0,0,0-.007-1.2l-2.137-1.234a2.293,2.293,0,0,0-2.072,0A.632.632,0,0,0,959.626,165.322Zm5.351,3.089,2.138,1.234a2.29,2.29,0,0,0,2.071,0,.632.632,0,0,0-.006-1.2l-2.138-1.234a2.29,2.29,0,0,0-2.071,0A.631.631,0,0,0,964.978,168.411Zm5.35,3.089,2.138,1.234a2.29,2.29,0,0,0,2.072,0,.631.631,0,0,0-.007-1.2l-2.137-1.234a2.293,2.293,0,0,0-2.072,0A.632.632,0,0,0,970.328,171.5Zm5.351,3.089,2.138,1.234a2.287,2.287,0,0,0,2.071,0,.631.631,0,0,0-.006-1.2l-2.138-1.234a2.29,2.29,0,0,0-2.071,0A.631.631,0,0,0,975.679,174.59Zm5.35,3.089,2.138,1.234a2.289,2.289,0,0,0,2.072,0,.631.631,0,0,0-.007-1.2l-2.137-1.234a2.292,2.292,0,0,0-2.072,0A.632.632,0,0,0,981.029,177.679Zm5.351,3.089L988.519,182a2.287,2.287,0,0,0,2.071,0,.631.631,0,0,0-.006-1.2l-2.138-1.234a2.29,2.29,0,0,0-2.071,0A.631.631,0,0,0,986.381,180.768Zm5.462,3.154,2.137,1.233a2.289,2.289,0,0,0,2.072,0,.632.632,0,0,0-.006-1.2l-2.138-1.233a2.289,2.289,0,0,0-2.072,0A.632.632,0,0,0,991.843,183.922Zm-71.509-35.563,1.85,1.068a2.607,2.607,0,0,0,2.358.005l1.839-1.062a.719.719,0,0,0-.007-1.362l-1.85-1.068a2.607,2.607,0,0,0-2.358-.005L920.327,147A.718.718,0,0,0,920.335,148.359Zm9.559,4.162,1.839-1.062a.719.719,0,0,0-.007-1.362l-1.851-1.068a2.607,2.607,0,0,0-2.358-.005l-1.839,1.062a.719.719,0,0,0,.007,1.362l1.851,1.068A2.607,2.607,0,0,0,929.893,152.522Zm1.143,2.016,1.85,1.068a2.607,2.607,0,0,0,2.358.005l1.839-1.062a.719.719,0,0,0-.007-1.362l-1.85-1.068a2.607,2.607,0,0,0-2.358-.005l-1.839,1.062A.719.719,0,0,0,931.036,154.538Zm5.35,3.089,1.851,1.068a2.607,2.607,0,0,0,2.358.005l1.839-1.062a.719.719,0,0,0-.007-1.362l-1.851-1.068a2.607,2.607,0,0,0-2.358-.005l-1.839,1.062A.719.719,0,0,0,936.387,157.627Zm11.39,1.739-1.85-1.068a2.607,2.607,0,0,0-2.358-.005l-1.839,1.062a.719.719,0,0,0,.007,1.362l1.85,1.068a2.607,2.607,0,0,0,2.358.005l1.839-1.062A.719.719,0,0,0,947.777,159.366Zm5.351,3.089-1.851-1.068a2.607,2.607,0,0,0-2.358-.005l-1.838,1.062a.719.719,0,0,0,.007,1.362l1.851,1.068a2.607,2.607,0,0,0,2.358.005l1.839-1.063A.718.718,0,0,0,953.128,162.455Zm5.35,3.089-1.85-1.068a2.607,2.607,0,0,0-2.358-.005l-1.839,1.062a.719.719,0,0,0,.007,1.362l1.85,1.068a2.6,2.6,0,0,0,2.358,0l1.839-1.062A.718.718,0,0,0,958.478,165.545Zm5.351,3.089-1.851-1.068a2.607,2.607,0,0,0-2.358-.005l-1.839,1.062a.719.719,0,0,0,.007,1.362l1.851,1.068a2.6,2.6,0,0,0,2.358,0l1.839-1.062A.718.718,0,0,0,963.83,168.634Zm5.35,3.089-1.85-1.069a2.61,2.61,0,0,0-2.358,0l-1.839,1.062a.719.719,0,0,0,.007,1.362l1.85,1.068a2.6,2.6,0,0,0,2.358,0l1.84-1.062A.718.718,0,0,0,969.18,171.723Zm5.351,3.089-1.851-1.069a2.61,2.61,0,0,0-2.358,0l-1.839,1.062a.719.719,0,0,0,.007,1.362l1.851,1.068a2.6,2.6,0,0,0,2.358,0l1.839-1.062A.718.718,0,0,0,974.531,174.813Zm-.689,4.44,1.85,1.068a2.6,2.6,0,0,0,2.358,0l1.84-1.062a.718.718,0,0,0-.008-1.361l-1.85-1.069a2.61,2.61,0,0,0-2.357,0l-1.839,1.062A.719.719,0,0,0,973.843,179.252Zm11.39,1.739-1.851-1.069a2.61,2.61,0,0,0-2.358,0l-1.839,1.062a.719.719,0,0,0,.007,1.362l1.851,1.068a2.6,2.6,0,0,0,2.358,0l1.839-1.062A.718.718,0,0,0,985.233,180.991Zm7.836,4.525-4.225-2.44a2.6,2.6,0,0,0-2.358,0l-1.839,1.062a.718.718,0,0,0,.007,1.361l4.225,2.44a2.6,2.6,0,0,0,2.357,0l1.84-1.062A.718.718,0,0,0,993.069,185.516Zm-77.691-34.3,4.226,2.44a2.6,2.6,0,0,0,2.358,0L923.8,152.6a.719.719,0,0,0-.007-1.362l-4.226-2.439a2.6,2.6,0,0,0-2.358,0l-1.839,1.062A.718.718,0,0,0,915.378,151.22Zm7.726,4.46,1.85,1.069a2.6,2.6,0,0,0,2.358,0l1.839-1.062a.719.719,0,0,0-.007-1.362l-1.85-1.068a2.6,2.6,0,0,0-2.358,0L923.1,154.32A.718.718,0,0,0,923.1,155.681Zm7.2,4.158a2.6,2.6,0,0,0,2.358,0l1.839-1.062a.719.719,0,0,0-.007-1.362l-1.851-1.068a2.6,2.6,0,0,0-2.358,0l-1.838,1.062a.718.718,0,0,0,.007,1.361Zm5.35,3.089a2.607,2.607,0,0,0,2.358,0l1.839-1.062a.719.719,0,0,0-.007-1.362l-1.85-1.068a2.6,2.6,0,0,0-2.358,0L933.8,160.5a.718.718,0,0,0,.008,1.361Zm5.332-.4-1.839,1.062a.718.718,0,0,0,.007,1.361l1.851,1.069a2.607,2.607,0,0,0,2.358,0l1.839-1.062a.719.719,0,0,0-.007-1.362l-1.851-1.068A2.6,2.6,0,0,0,940.988,162.526Zm5.464,3.024-2.066,1.192a.649.649,0,0,0,.007,1.23l2.078,1.2a2.354,2.354,0,0,0,2.13,0l2.065-1.192a.649.649,0,0,0-.006-1.23l-2.078-1.2A2.355,2.355,0,0,0,946.452,165.55Zm5.35,3.089-2.065,1.192a.649.649,0,0,0,.006,1.23l2.078,1.2a2.357,2.357,0,0,0,2.131,0l2.065-1.192c.587-.338.584-.889-.007-1.23l-2.077-1.2A2.357,2.357,0,0,0,951.8,168.639Zm5.351,3.089-2.066,1.192a.65.65,0,0,0,.007,1.23l2.078,1.2a2.354,2.354,0,0,0,2.13,0l2.065-1.192a.649.649,0,0,0-.006-1.23l-2.078-1.2A2.355,2.355,0,0,0,957.154,171.729Zm5.35,3.089-2.065,1.192a.649.649,0,0,0,.006,1.23l2.078,1.2a2.356,2.356,0,0,0,2.131,0l2.065-1.192c.587-.338.584-.889-.007-1.23l-2.077-1.2A2.357,2.357,0,0,0,962.5,174.818Zm5.351,3.089-2.066,1.192a.65.65,0,0,0,.007,1.23l2.078,1.2a2.355,2.355,0,0,0,2.13,0l2.065-1.192a.649.649,0,0,0-.006-1.23l-2.078-1.2A2.355,2.355,0,0,0,967.855,177.907Zm7.5,6.715,2.065-1.192a.649.649,0,0,0-.006-1.23l-2.078-1.2a2.357,2.357,0,0,0-2.131,0l-2.065,1.192a.649.649,0,0,0,.006,1.23l2.078,1.2A2.357,2.357,0,0,0,975.357,184.622Zm5.35,3.089,2.066-1.192a.65.65,0,0,0-.007-1.23l-2.078-1.2a2.354,2.354,0,0,0-2.13,0l-2.065,1.192a.649.649,0,0,0,.006,1.23l2.078,1.2A2.355,2.355,0,0,0,980.707,187.712Zm7.521.732-2.078-1.2a2.354,2.354,0,0,0-2.13,0l-2.066,1.192a.65.65,0,0,0,.007,1.23l2.078,1.2a2.355,2.355,0,0,0,2.13,0l2.065-1.192A.649.649,0,0,0,988.228,188.443Zm-77.919-34.428,6.709,3.873a2.351,2.351,0,0,0,2.13,0l2.066-1.192a.649.649,0,0,0-.007-1.23L914.5,151.6a2.358,2.358,0,0,0-2.13,0l-2.065,1.192A.649.649,0,0,0,910.308,154.016Zm9.982,5.763,2.078,1.2a2.351,2.351,0,0,0,2.13,0l2.065-1.192a.649.649,0,0,0-.006-1.23l-2.078-1.2a2.351,2.351,0,0,0-2.13,0l-2.066,1.192A.649.649,0,0,0,920.291,159.779Zm5.35,3.089,2.078,1.2a2.351,2.351,0,0,0,2.13,0l2.066-1.192a.649.649,0,0,0-.007-1.23l-2.078-1.2a2.351,2.351,0,0,0-2.13,0l-2.065,1.192A.649.649,0,0,0,925.641,162.869Zm5.351,3.089,2.078,1.2a2.351,2.351,0,0,0,2.13,0l2.065-1.192a.649.649,0,0,0-.006-1.23l-2.078-1.2a2.351,2.351,0,0,0-2.13,0l-2.066,1.192A.649.649,0,0,0,930.992,165.958Zm9.559,4.293,2.066-1.192a.649.649,0,0,0-.007-1.23l-2.078-1.2a2.351,2.351,0,0,0-2.13,0l-2.065,1.192a.649.649,0,0,0,.006,1.23l2.078,1.2A2.351,2.351,0,0,0,940.551,170.251Zm5.351,3.089,2.065-1.192a.649.649,0,0,0-.006-1.23l-2.078-1.2a2.351,2.351,0,0,0-2.13,0l-2.066,1.192a.65.65,0,0,0,.007,1.23l2.078,1.2A2.351,2.351,0,0,0,945.9,173.34Zm5.35,3.089,2.066-1.192c.587-.339.584-.889-.007-1.23l-2.078-1.2a2.352,2.352,0,0,0-2.13,0L947.038,174a.649.649,0,0,0,.006,1.23l2.078,1.2A2.351,2.351,0,0,0,951.252,176.429Zm5.351,3.089,2.065-1.192a.649.649,0,0,0-.006-1.23l-2.078-1.2a2.352,2.352,0,0,0-2.131,0l-2.066,1.192a.65.65,0,0,0,.007,1.23l2.078,1.2A2.355,2.355,0,0,0,956.6,179.519Zm5.351,3.089,2.065-1.192a.649.649,0,0,0-.007-1.23l-2.078-1.2a2.351,2.351,0,0,0-2.13,0l-2.065,1.192a.649.649,0,0,0,.006,1.23l2.078,1.2A2.357,2.357,0,0,0,961.955,182.608Zm5.35,3.089,2.065-1.192a.649.649,0,0,0-.006-1.23l-2.078-1.2a2.351,2.351,0,0,0-2.13,0l-2.066,1.192a.65.65,0,0,0,.007,1.23l2.078,1.2A2.354,2.354,0,0,0,967.305,185.7Zm1.142,1.886,2.078,1.2a2.357,2.357,0,0,0,2.132,0l2.065-1.192a.649.649,0,0,0-.007-1.23l-2.078-1.2a2.354,2.354,0,0,0-2.13,0l-2.065,1.192A.649.649,0,0,0,968.447,187.583Zm14.824,3.721-5.283-3.051a2.354,2.354,0,0,0-2.13,0l-2.066,1.192a.65.65,0,0,0,.007,1.23l5.284,3.05a2.353,2.353,0,0,0,2.131,0l2.065-1.192A.649.649,0,0,0,983.271,191.3Zm-77.9-34.278,9.519,5.5a2.659,2.659,0,0,0,2.407.005l1.79-1.034a.734.734,0,0,0-.008-1.389l-9.519-5.5a2.663,2.663,0,0,0-2.407,0l-1.79,1.034A.733.733,0,0,0,905.373,157.026Zm13.069,7.546,1.8,1.039a2.66,2.66,0,0,0,2.407.005l1.789-1.034a.733.733,0,0,0-.007-1.389l-1.8-1.04a2.662,2.662,0,0,0-2.407,0l-1.789,1.034A.733.733,0,0,0,918.442,164.572Zm5.351,3.089,1.8,1.039a2.659,2.659,0,0,0,2.407.005l1.79-1.034a.733.733,0,0,0-.008-1.389l-1.8-1.04a2.662,2.662,0,0,0-2.407,0l-1.789,1.034A.733.733,0,0,0,923.793,167.661Zm5.35,3.089,1.8,1.039a2.66,2.66,0,0,0,2.407.005l1.789-1.034a.733.733,0,0,0-.007-1.389l-1.8-1.04a2.663,2.663,0,0,0-2.407,0l-1.789,1.033A.734.734,0,0,0,929.143,170.75Zm5.351,3.089,1.8,1.039a2.659,2.659,0,0,0,2.407.005l1.79-1.034a.733.733,0,0,0-.008-1.389l-1.8-1.04a2.663,2.663,0,0,0-2.407,0l-1.789,1.033A.734.734,0,0,0,934.495,173.839Zm5.35,3.089,1.8,1.039a2.66,2.66,0,0,0,2.407.005l1.789-1.034a.733.733,0,0,0-.007-1.389l-1.8-1.04a2.66,2.66,0,0,0-2.406,0l-1.79,1.033A.734.734,0,0,0,939.845,176.929Zm5.351,3.089,1.8,1.039a2.659,2.659,0,0,0,2.407.005l1.79-1.034a.733.733,0,0,0-.008-1.389l-1.8-1.04a2.663,2.663,0,0,0-2.407,0l-1.789,1.033A.734.734,0,0,0,945.2,180.018Zm5.35,3.089,1.8,1.039a2.66,2.66,0,0,0,2.407.005l1.789-1.034a.733.733,0,0,0-.007-1.389l-1.8-1.04a2.663,2.663,0,0,0-2.407,0l-1.79,1.033A.734.734,0,0,0,950.546,183.107ZM955.9,186.2l1.8,1.039a2.66,2.66,0,0,0,2.407.005l1.79-1.034a.733.733,0,0,0-.008-1.389l-1.8-1.04a2.663,2.663,0,0,0-2.407,0l-1.789,1.033A.734.734,0,0,0,955.9,186.2Zm5.35,3.089,1.8,1.039a2.656,2.656,0,0,0,2.407,0l1.789-1.033a.733.733,0,0,0-.007-1.389l-1.8-1.04a2.662,2.662,0,0,0-2.407,0l-1.79,1.033A.734.734,0,0,0,961.248,189.286Zm5.351,3.089,1.8,1.039a2.657,2.657,0,0,0,2.407,0l1.79-1.033a.733.733,0,0,0-.008-1.389l-1.8-1.04a2.663,2.663,0,0,0-2.407,0l-1.789,1.033A.734.734,0,0,0,966.6,192.375Zm11.459,1.779-1.8-1.04a2.656,2.656,0,0,0-2.407,0l-1.789,1.033a.733.733,0,0,0,.007,1.389l1.8,1.04a2.662,2.662,0,0,0,2.407,0l1.79-1.033A.733.733,0,0,0,978.058,194.154ZM908.782,159.88l-4.177-2.411a2.659,2.659,0,0,0-2.407-.005l-1.789,1.034a.733.733,0,0,0,.007,1.389l4.177,2.411a2.663,2.663,0,0,0,2.407,0l1.789-1.033A.733.733,0,0,0,908.782,159.88Zm5.35,3.088-1.8-1.039a2.656,2.656,0,0,0-2.407,0l-1.79,1.033a.733.733,0,0,0,.008,1.389l1.8,1.04a2.662,2.662,0,0,0,2.407,0l1.789-1.033A.734.734,0,0,0,914.132,162.968Zm5.351,3.089-1.8-1.039a2.656,2.656,0,0,0-2.407,0l-1.789,1.033a.733.733,0,0,0,.007,1.389l1.8,1.04a2.663,2.663,0,0,0,2.407,0l1.789-1.033A.734.734,0,0,0,919.484,166.058Zm37.455,21.625-33.906-19.575a2.659,2.659,0,0,0-2.407-.005l-1.79,1.034a.733.733,0,0,0,.008,1.389L952.75,190.1a2.663,2.663,0,0,0,2.407,0l1.79-1.034A.734.734,0,0,0,956.939,187.683Zm5.351,3.089-1.8-1.039a2.66,2.66,0,0,0-2.407-.005l-1.789,1.034a.733.733,0,0,0,.007,1.389l1.8,1.04a2.662,2.662,0,0,0,2.407,0l1.789-1.034A.733.733,0,0,0,962.29,190.772Zm5.35,3.089-1.8-1.039a2.659,2.659,0,0,0-2.407-.005l-1.789,1.034a.733.733,0,0,0,.007,1.389l1.8,1.04a2.663,2.663,0,0,0,2.407,0l1.79-1.034A.733.733,0,0,0,967.641,193.861Zm5.462,3.154-1.8-1.04a2.662,2.662,0,0,0-2.407,0L967.105,197a.733.733,0,0,0,.008,1.389l1.8,1.04a2.656,2.656,0,0,0,2.407,0l1.789-1.033A.733.733,0,0,0,973.1,197.016Z" transform="translate(-874.076 -70.718)" fill="#72b5e8"/>
        <path id="Trazado_129049" data-name="Trazado 129049" d="M925.146,144.93l4.513,2.605a2.292,2.292,0,0,0,2.072,0,.631.631,0,0,0-.007-1.2l-4.512-2.605a2.292,2.292,0,0,0-2.072,0A.631.631,0,0,0,925.146,144.93Zm7.726,4.46,2.137,1.234a2.292,2.292,0,0,0,2.072,0,.632.632,0,0,0-.006-1.2l-2.138-1.234a2.289,2.289,0,0,0-2.072,0A.631.631,0,0,0,932.873,149.39Zm5.35,3.089,2.138,1.234a2.292,2.292,0,0,0,2.072,0,.631.631,0,0,0-.007-1.2l-2.137-1.234a2.289,2.289,0,0,0-2.072,0A.631.631,0,0,0,938.223,152.479Zm5.351,3.089,2.138,1.234a2.29,2.29,0,0,0,2.071,0,.632.632,0,0,0-.006-1.2l-2.138-1.234a2.289,2.289,0,0,0-2.072,0A.631.631,0,0,0,943.574,155.569Zm5.35,3.089,2.138,1.234a2.292,2.292,0,0,0,2.072,0,.631.631,0,0,0-.007-1.2l-2.137-1.234a2.289,2.289,0,0,0-2.072,0A.631.631,0,0,0,948.925,158.658Zm5.351,3.089,2.138,1.234a2.29,2.29,0,0,0,2.071,0,.632.632,0,0,0-.006-1.2l-2.138-1.234a2.287,2.287,0,0,0-2.071,0A.631.631,0,0,0,954.276,161.747Zm5.35,3.089,2.138,1.234a2.292,2.292,0,0,0,2.072,0,.631.631,0,0,0-.007-1.2l-2.137-1.234a2.292,2.292,0,0,0-2.072,0A.632.632,0,0,0,959.626,164.837Zm5.351,3.089,2.138,1.234a2.29,2.29,0,0,0,2.071,0,.631.631,0,0,0-.006-1.2l-2.138-1.234a2.29,2.29,0,0,0-2.071,0A.631.631,0,0,0,964.978,167.926Zm5.35,3.089,2.138,1.234a2.293,2.293,0,0,0,2.072,0,.631.631,0,0,0-.007-1.2l-2.137-1.234a2.292,2.292,0,0,0-2.072,0A.632.632,0,0,0,970.328,171.015Zm5.351,3.089,2.138,1.234a2.29,2.29,0,0,0,2.071,0,.631.631,0,0,0-.006-1.2l-2.138-1.234a2.29,2.29,0,0,0-2.071,0A.631.631,0,0,0,975.679,174.1Zm5.35,3.089,2.138,1.234a2.292,2.292,0,0,0,2.072,0,.631.631,0,0,0-.007-1.2L983.1,176a2.292,2.292,0,0,0-2.072,0A.631.631,0,0,0,981.029,177.194Zm5.351,3.089,2.138,1.234a2.287,2.287,0,0,0,2.071,0,.631.631,0,0,0-.006-1.2l-2.138-1.234a2.29,2.29,0,0,0-2.071,0A.631.631,0,0,0,986.381,180.283Zm5.462,3.154,2.137,1.233a2.289,2.289,0,0,0,2.072,0,.632.632,0,0,0-.006-1.2l-2.138-1.233a2.289,2.289,0,0,0-2.072,0A.632.632,0,0,0,991.843,183.437Zm-71.509-35.563,1.85,1.069a2.61,2.61,0,0,0,2.358,0l1.839-1.062a.719.719,0,0,0-.007-1.362l-1.85-1.068a2.6,2.6,0,0,0-2.358,0l-1.839,1.062A.718.718,0,0,0,920.335,147.874Zm9.559,4.162,1.839-1.062a.719.719,0,0,0-.007-1.362l-1.851-1.068a2.6,2.6,0,0,0-2.358,0l-1.839,1.062a.718.718,0,0,0,.007,1.361l1.851,1.068A2.607,2.607,0,0,0,929.893,152.037Zm1.143,2.016,1.85,1.068a2.608,2.608,0,0,0,2.358.005l1.839-1.062a.719.719,0,0,0-.007-1.362l-1.85-1.068a2.607,2.607,0,0,0-2.358-.005l-1.839,1.063A.718.718,0,0,0,931.036,154.053Zm5.35,3.089,1.851,1.068a2.607,2.607,0,0,0,2.358.005l1.839-1.062a.719.719,0,0,0-.007-1.362l-1.851-1.068a2.607,2.607,0,0,0-2.358-.005l-1.839,1.063A.718.718,0,0,0,936.387,157.142Zm11.39,1.739-1.85-1.068a2.607,2.607,0,0,0-2.358-.005l-1.839,1.062a.719.719,0,0,0,.007,1.362l1.85,1.068a2.607,2.607,0,0,0,2.358.005l1.839-1.062A.719.719,0,0,0,947.777,158.881Zm5.351,3.089-1.851-1.068a2.607,2.607,0,0,0-2.358-.005l-1.838,1.062a.719.719,0,0,0,.007,1.362l1.851,1.068a2.607,2.607,0,0,0,2.358.005l1.839-1.062A.719.719,0,0,0,953.128,161.97Zm5.35,3.089-1.85-1.068a2.607,2.607,0,0,0-2.358-.005l-1.839,1.062a.719.719,0,0,0,.007,1.362l1.85,1.068a2.607,2.607,0,0,0,2.358.005l1.839-1.062A.719.719,0,0,0,958.478,165.06Zm5.351,3.089-1.851-1.068a2.607,2.607,0,0,0-2.358-.005l-1.839,1.062a.719.719,0,0,0,.007,1.362l1.851,1.068a2.607,2.607,0,0,0,2.358.005l1.839-1.063A.718.718,0,0,0,963.83,168.149Zm5.35,3.089-1.85-1.068a2.607,2.607,0,0,0-2.358-.005l-1.839,1.062a.719.719,0,0,0,.007,1.362l1.85,1.068a2.607,2.607,0,0,0,2.358.005l1.84-1.063A.718.718,0,0,0,969.18,171.238Zm5.351,3.089-1.851-1.068a2.607,2.607,0,0,0-2.358-.005l-1.839,1.062a.719.719,0,0,0,.007,1.362l1.851,1.068a2.6,2.6,0,0,0,2.358,0l1.839-1.062A.718.718,0,0,0,974.531,174.328Zm-.689,4.44,1.85,1.068a2.6,2.6,0,0,0,2.358,0l1.84-1.062a.718.718,0,0,0-.008-1.361l-1.85-1.069a2.61,2.61,0,0,0-2.357,0l-1.839,1.062A.719.719,0,0,0,973.843,178.767Zm11.39,1.739-1.851-1.069a2.61,2.61,0,0,0-2.358,0l-1.839,1.062a.719.719,0,0,0,.007,1.362l1.851,1.068a2.6,2.6,0,0,0,2.358,0l1.839-1.062A.718.718,0,0,0,985.233,180.506Zm7.836,4.525-4.225-2.44a2.6,2.6,0,0,0-2.358,0l-1.839,1.062a.718.718,0,0,0,.007,1.361l4.225,2.44a2.6,2.6,0,0,0,2.357,0l1.84-1.062A.718.718,0,0,0,993.069,185.031Zm-77.691-34.3,4.226,2.44a2.6,2.6,0,0,0,2.358,0l1.839-1.062a.718.718,0,0,0-.007-1.361l-4.226-2.44a2.6,2.6,0,0,0-2.358,0l-1.839,1.062A.718.718,0,0,0,915.378,150.735Zm7.726,4.46,1.85,1.069a2.6,2.6,0,0,0,2.358,0l1.839-1.062a.718.718,0,0,0-.007-1.361l-1.85-1.069a2.6,2.6,0,0,0-2.358,0l-1.839,1.062A.718.718,0,0,0,923.1,155.2Zm7.2,4.158a2.6,2.6,0,0,0,2.358,0L934.5,158.3a.718.718,0,0,0-.007-1.361l-1.851-1.069a2.6,2.6,0,0,0-2.358,0l-1.838,1.062a.718.718,0,0,0,.007,1.361Zm5.35,3.089a2.6,2.6,0,0,0,2.358,0l1.839-1.062a.719.719,0,0,0-.007-1.362l-1.85-1.068a2.6,2.6,0,0,0-2.358,0l-1.84,1.062a.718.718,0,0,0,.008,1.361Zm5.332-.4-1.839,1.062a.718.718,0,0,0,.007,1.361l1.851,1.069a2.6,2.6,0,0,0,2.358,0l1.839-1.062a.719.719,0,0,0-.007-1.362l-1.851-1.068A2.6,2.6,0,0,0,940.988,162.041Zm5.464,3.024-2.066,1.192a.649.649,0,0,0,.007,1.23l2.078,1.2a2.354,2.354,0,0,0,2.13,0l2.065-1.192a.649.649,0,0,0-.006-1.23l-2.078-1.2A2.355,2.355,0,0,0,946.452,165.065Zm5.35,3.089-2.065,1.192a.649.649,0,0,0,.006,1.23l2.078,1.2a2.357,2.357,0,0,0,2.131,0l2.065-1.192c.587-.338.584-.889-.007-1.23l-2.077-1.2A2.357,2.357,0,0,0,951.8,168.154Zm5.351,3.089-2.066,1.192a.65.65,0,0,0,.007,1.23l2.078,1.2a2.354,2.354,0,0,0,2.13,0l2.065-1.192a.649.649,0,0,0-.006-1.23l-2.078-1.2A2.355,2.355,0,0,0,957.154,171.244Zm5.35,3.089-2.065,1.192a.649.649,0,0,0,.006,1.23l2.078,1.2a2.356,2.356,0,0,0,2.131,0l2.065-1.192c.587-.338.584-.889-.007-1.23l-2.077-1.2A2.357,2.357,0,0,0,962.5,174.333Zm5.351,3.089-2.066,1.192a.65.65,0,0,0,.007,1.23l2.078,1.2a2.355,2.355,0,0,0,2.13,0l2.065-1.192a.649.649,0,0,0-.006-1.23l-2.078-1.2A2.355,2.355,0,0,0,967.855,177.422Zm7.5,6.715,2.065-1.192a.649.649,0,0,0-.006-1.23l-2.078-1.2a2.357,2.357,0,0,0-2.131,0l-2.065,1.192a.649.649,0,0,0,.006,1.23l2.078,1.2A2.357,2.357,0,0,0,975.357,184.137Zm5.35,3.089,2.066-1.192a.65.65,0,0,0-.007-1.23l-2.078-1.2a2.354,2.354,0,0,0-2.13,0l-2.065,1.192a.649.649,0,0,0,.006,1.23l2.078,1.2A2.355,2.355,0,0,0,980.707,187.227Zm7.521.732-2.078-1.2a2.354,2.354,0,0,0-2.13,0l-2.066,1.192a.65.65,0,0,0,.007,1.23l2.078,1.2a2.355,2.355,0,0,0,2.13,0l2.065-1.192A.649.649,0,0,0,988.228,187.958Zm-77.919-34.428,6.709,3.873a2.351,2.351,0,0,0,2.13,0l2.066-1.192a.649.649,0,0,0-.007-1.23l-6.709-3.873a2.358,2.358,0,0,0-2.13,0L910.3,152.3A.649.649,0,0,0,910.308,153.531Zm9.982,5.763,2.078,1.2a2.351,2.351,0,0,0,2.13,0l2.065-1.192a.649.649,0,0,0-.006-1.23l-2.078-1.2a2.351,2.351,0,0,0-2.13,0l-2.066,1.192A.649.649,0,0,0,920.291,159.294Zm5.35,3.089,2.078,1.2a2.351,2.351,0,0,0,2.13,0l2.066-1.192a.649.649,0,0,0-.007-1.23l-2.078-1.2a2.352,2.352,0,0,0-2.13,0l-2.065,1.192A.649.649,0,0,0,925.641,162.384Zm5.351,3.089,2.078,1.2a2.351,2.351,0,0,0,2.13,0l2.065-1.192a.649.649,0,0,0-.006-1.23l-2.078-1.2a2.351,2.351,0,0,0-2.13,0l-2.066,1.192A.649.649,0,0,0,930.992,165.473Zm9.559,4.293,2.066-1.192c.587-.338.584-.889-.007-1.23l-2.078-1.2a2.352,2.352,0,0,0-2.13,0l-2.065,1.192a.649.649,0,0,0,.006,1.23l2.078,1.2A2.351,2.351,0,0,0,940.551,169.766Zm5.351,3.089,2.065-1.192a.649.649,0,0,0-.006-1.23l-2.078-1.2a2.351,2.351,0,0,0-2.13,0l-2.066,1.192a.649.649,0,0,0,.007,1.23l2.078,1.2A2.351,2.351,0,0,0,945.9,172.855Zm5.35,3.089,2.066-1.192c.587-.339.584-.889-.007-1.23l-2.078-1.2a2.351,2.351,0,0,0-2.13,0l-2.065,1.192a.649.649,0,0,0,.006,1.23l2.078,1.2A2.351,2.351,0,0,0,951.252,175.944Zm5.351,3.089,2.065-1.192a.649.649,0,0,0-.006-1.23l-2.078-1.2a2.352,2.352,0,0,0-2.131,0l-2.066,1.192a.649.649,0,0,0,.007,1.23l2.078,1.2A2.352,2.352,0,0,0,956.6,179.034Zm5.351,3.089,2.065-1.192a.649.649,0,0,0-.007-1.23l-2.078-1.2a2.351,2.351,0,0,0-2.13,0l-2.065,1.192a.649.649,0,0,0,.006,1.23l2.078,1.2A2.354,2.354,0,0,0,961.955,182.123Zm5.35,3.089,2.065-1.192a.649.649,0,0,0-.006-1.23l-2.078-1.2a2.351,2.351,0,0,0-2.13,0l-2.066,1.192a.65.65,0,0,0,.007,1.23l2.078,1.2A2.354,2.354,0,0,0,967.305,185.212Zm1.142,1.886,2.078,1.2a2.357,2.357,0,0,0,2.132,0l2.065-1.192a.649.649,0,0,0-.007-1.23l-2.078-1.2a2.351,2.351,0,0,0-2.13,0l-2.065,1.192A.649.649,0,0,0,968.447,187.1Zm14.824,3.721-5.283-3.05a2.351,2.351,0,0,0-2.13,0l-2.066,1.192a.65.65,0,0,0,.007,1.23l5.284,3.05a2.353,2.353,0,0,0,2.131,0l2.065-1.192A.649.649,0,0,0,983.271,190.82Zm-77.9-34.279,9.519,5.5a2.659,2.659,0,0,0,2.407.005l1.79-1.034a.733.733,0,0,0-.008-1.389l-9.519-5.5a2.663,2.663,0,0,0-2.407,0l-1.79,1.034A.733.733,0,0,0,905.373,156.541Zm13.069,7.546,1.8,1.039a2.66,2.66,0,0,0,2.407.005l1.789-1.034a.733.733,0,0,0-.007-1.389l-1.8-1.04a2.662,2.662,0,0,0-2.407,0l-1.789,1.034A.733.733,0,0,0,918.442,164.087Zm5.351,3.089,1.8,1.039a2.659,2.659,0,0,0,2.407.005l1.79-1.034a.733.733,0,0,0-.008-1.389l-1.8-1.04a2.663,2.663,0,0,0-2.407,0l-1.789,1.034A.733.733,0,0,0,923.793,167.176Zm5.35,3.089,1.8,1.039a2.66,2.66,0,0,0,2.407.005l1.789-1.034a.733.733,0,0,0-.007-1.389l-1.8-1.04a2.663,2.663,0,0,0-2.407,0l-1.789,1.034A.733.733,0,0,0,929.143,170.265Zm5.351,3.089,1.8,1.039a2.659,2.659,0,0,0,2.407.005l1.79-1.034a.733.733,0,0,0-.008-1.389l-1.8-1.04a2.663,2.663,0,0,0-2.407,0l-1.789,1.034A.733.733,0,0,0,934.495,173.354Zm5.35,3.089,1.8,1.039a2.66,2.66,0,0,0,2.407.005l1.789-1.034a.733.733,0,0,0-.007-1.389l-1.8-1.04a2.661,2.661,0,0,0-2.406,0l-1.79,1.034A.733.733,0,0,0,939.845,176.444Zm5.351,3.089,1.8,1.039a2.659,2.659,0,0,0,2.407.005l1.79-1.034a.733.733,0,0,0-.008-1.389l-1.8-1.04a2.663,2.663,0,0,0-2.407,0l-1.789,1.033A.734.734,0,0,0,945.2,179.533Zm5.35,3.089,1.8,1.039a2.66,2.66,0,0,0,2.407.005l1.789-1.034a.733.733,0,0,0-.007-1.389l-1.8-1.04a2.663,2.663,0,0,0-2.407,0l-1.79,1.033A.734.734,0,0,0,950.546,182.622Zm5.351,3.089,1.8,1.039a2.659,2.659,0,0,0,2.407.005l1.79-1.034a.733.733,0,0,0-.008-1.389l-1.8-1.04a2.663,2.663,0,0,0-2.407,0l-1.789,1.033A.734.734,0,0,0,955.9,185.712Zm5.35,3.089,1.8,1.039a2.659,2.659,0,0,0,2.407.005l1.789-1.034a.733.733,0,0,0-.007-1.389l-1.8-1.04a2.662,2.662,0,0,0-2.407,0l-1.79,1.033A.734.734,0,0,0,961.248,188.8Zm5.351,3.089,1.8,1.039a2.66,2.66,0,0,0,2.407.005l1.79-1.034a.733.733,0,0,0-.008-1.389l-1.8-1.04a2.663,2.663,0,0,0-2.407,0l-1.789,1.033A.734.734,0,0,0,966.6,191.89Zm11.459,1.779-1.8-1.04a2.656,2.656,0,0,0-2.407,0l-1.789,1.033a.733.733,0,0,0,.007,1.389l1.8,1.04a2.659,2.659,0,0,0,2.407,0l1.79-1.033A.733.733,0,0,0,978.058,193.669ZM908.782,159.4l-4.177-2.411a2.659,2.659,0,0,0-2.407-.005l-1.789,1.034a.733.733,0,0,0,.007,1.389l4.177,2.411a2.663,2.663,0,0,0,2.407,0l1.789-1.033A.733.733,0,0,0,908.782,159.4Zm5.35,3.089-1.8-1.04a2.656,2.656,0,0,0-2.407,0l-1.79,1.033a.733.733,0,0,0,.008,1.389l1.8,1.04a2.663,2.663,0,0,0,2.407,0l1.789-1.033A.733.733,0,0,0,914.132,162.484Zm5.351,3.089-1.8-1.04a2.656,2.656,0,0,0-2.407,0l-1.789,1.033a.733.733,0,0,0,.007,1.389l1.8,1.04a2.663,2.663,0,0,0,2.407,0l1.789-1.033A.733.733,0,0,0,919.484,165.574ZM956.939,187.2l-33.906-19.575a2.656,2.656,0,0,0-2.407,0l-1.79,1.033a.733.733,0,0,0,.008,1.389l33.905,19.576a2.663,2.663,0,0,0,2.407,0l1.79-1.033A.734.734,0,0,0,956.939,187.2Zm5.351,3.089-1.8-1.039a2.66,2.66,0,0,0-2.407-.005l-1.789,1.034a.733.733,0,0,0,.007,1.389l1.8,1.04a2.662,2.662,0,0,0,2.407,0l1.789-1.034A.733.733,0,0,0,962.29,190.287Zm5.35,3.089-1.8-1.039a2.659,2.659,0,0,0-2.407-.005l-1.789,1.034a.733.733,0,0,0,.007,1.389l1.8,1.04a2.663,2.663,0,0,0,2.407,0l1.79-1.034A.733.733,0,0,0,967.641,193.376Zm5.462,3.154-1.8-1.04a2.663,2.663,0,0,0-2.407,0l-1.79,1.033a.733.733,0,0,0,.008,1.389l1.8,1.04a2.656,2.656,0,0,0,2.407,0l1.789-1.033A.733.733,0,0,0,973.1,196.531Z" transform="translate(-874.076 -70.731)" fill="#a8cff0"/>
        <g id="Grupo_86328" data-name="Grupo 86328" transform="translate(52.411)">
          <path id="Trazado_129050" data-name="Trazado 129050" d="M1001.621,183.822l-70.882-40.948c-2.745-1.585-4.969-5.835-4.969-9.494V77.774c0-3.66,2.224-5.341,4.969-3.756l70.882,40.947c2.745,1.585,4.969,5.835,4.969,9.494v55.607C1006.589,183.725,1004.366,185.406,1001.621,183.822Z" transform="translate(-925.77 -72.673)" fill="#a8cff0"/>
          <path id="Trazado_129051" data-name="Trazado 129051" d="M1002.186,180.878l-70.126-40.506a8.45,8.45,0,0,1-3.574-7.078V77.418a.881.881,0,0,1,1.327-.758l.155.09L1000.15,117.3c2.629,1.516,3.574,4.209,3.574,7.078v55.745a.951.951,0,0,1-1.422.825Z" transform="translate(-925.695 -72.587)" fill="#03336e"/>
          <path id="Trazado_129052" data-name="Trazado 129052" d="M1000.15,117.3,929.967,76.75l-.155-.09a.881.881,0,0,0-1.327.758v55.876a8.45,8.45,0,0,0,3.574,7.078l70.126,40.506.116.066a.951.951,0,0,0,1.422-.825V124.373C1003.724,121.5,1002.779,118.811,1000.15,117.3Zm3.016,62.823a.394.394,0,0,1-.395.394.387.387,0,0,1-.193-.052l-70.24-40.572a7.871,7.871,0,0,1-3.3-6.594V77.418a.322.322,0,0,1,.487-.277l70.34,40.638c2.725,1.57,3.3,4.453,3.3,6.595Z" transform="translate(-925.695 -72.587)" fill="#022652"/>
          <path id="Trazado_129053" data-name="Trazado 129053" d="M1002.979,114.237,932.1,73.29a3.359,3.359,0,0,0-2.907-.428c-.1.041-1.49.777-1.588.83l0,0a3.253,3.253,0,0,1,3.091.341l70.882,40.948c2.745,1.585,4.969,5.835,4.969,9.494v55.607c0,2.283-.866,3.8-2.185,4.226a.825.825,0,0,0,.436-.148c.063-.036,1.566-.885,1.626-.927.945-.661,1.532-2.018,1.532-3.9V123.731C1007.948,120.073,1005.723,115.822,1002.979,114.237Z" transform="translate(-925.719 -72.693)" fill="#3f92d1"/>
          <path id="Trazado_129054" data-name="Trazado 129054" d="M1002.979,114.237,932.1,73.29a3.359,3.359,0,0,0-2.907-.428c-.1.041-1.49.777-1.588.83l0,0a3.253,3.253,0,0,1,3.091.341l70.882,40.948Z" transform="translate(-925.719 -72.693)" fill="#4f9fdb"/>
          <path id="Trazado_129055" data-name="Trazado 129055" d="M1001.8,114.849,930.918,73.9a3.3,3.3,0,0,0-2.994-.383,3.67,3.67,0,0,1,2.4.562l70.883,40.947c2.745,1.585,4.969,5.835,4.969,9.494v55.607c0,2.158-.777,3.621-1.976,4.139,1.533-.244,2.572-1.818,2.572-4.317V124.343C1006.768,120.685,1004.544,116.434,1001.8,114.849Z" transform="translate(-925.71 -72.676)" fill="#fff" style="mix-blend-mode: screen;isolation: isolate"/>
        </g>
      </g>
      <g id="Grupo_86330" data-name="Grupo 86330" transform="translate(75.137 30.196)">
        <path id="Trazado_129056" data-name="Trazado 129056" d="M947.883,119.506l12.289,28.425,24.846-26.081-9.693-8.2-13.35,22.505-6.3-15.129Z" transform="translate(-947.883 -101.754)" fill="#2ff980"/>
        <path id="Trazado_129057" data-name="Trazado 129057" d="M965.188,151.978l-.921-1.083.914-.4c1.132-.609,2.21-1.152,3.23-1.667,6.94-3.5,10.739-5.209,11.62-17.651l1.734-1.517.018,1.423c-.951,13.425-5.583,15.759-12.594,19.292-1.006.508-2.07,1.044-3.186,1.645Z" transform="translate(-947.429 -101.31)" fill="#2ff980"/>
        <path id="Trazado_129058" data-name="Trazado 129058" d="M971.908,115.224a58.8,58.8,0,0,1-6.362-7.869c-4.354,1.295-9.319.527-14.467-2.226l.277,9.205-1.756-.343-.343-11.915,1.562.919c5.345,3.148,10.453,4.024,14.768,2.527l.373-.128.519.3.174.2a57.366,57.366,0,0,0,6.5,8.121Z" transform="translate(-947.845 -102.075)" fill="#2ff980"/>
      </g>
    </g>
  </g>
</svg>
