<svg id="Grupo_86816" data-name="Grupo 86816" xmlns="http://www.w3.org/2000/svg" xmlns:xlink="http://www.w3.org/1999/xlink" width="126.238" height="144.89" viewBox="0 0 126.238 144.89">
  <defs>
    <clipPath id="clip-path">
      <rect id="Rectángulo_36990" data-name="Rectángulo 36990" width="126.238" height="144.89" fill="none"/>
    </clipPath>
  </defs>
  <g id="Grupo_86815" data-name="Grupo 86815" clip-path="url(#clip-path)">
    <path id="Trazado_131713" data-name="Trazado 131713" d="M63.17,0h45.7c2.588,0,3.279.693,3.28,3.282,0,6.28.026,12.559-.025,18.838-.008,1.018.228,1.341,1.267,1.273,1.5-.1,3.025.081,4.523-.044,5-.42,8.4,3.142,8.32,8.348-.2,13.53-.066,27.064-.066,40.6q0,13.727,0,27.455c0,4.923-2.851,7.748-7.811,7.748q-21.1,0-42.2-.026c-1.131,0-1.437.265-1.423,1.414q.1,8.031,0,16.063c-.011,1.024.242,1.293,1.27,1.272,3.406-.071,6.814-.046,10.22-.023a11.683,11.683,0,0,1,11.9,11.928c.011,1.314.013,2.629,0,3.943-.021,1.981-.856,2.815-2.866,2.817q-12.995.012-25.99,0-18.981,0-37.963,0c-2.581,0-3.3-.7-3.264-3.289a32.7,32.7,0,0,1,.226-5.969,11.636,11.636,0,0,1,11.11-9.417c3.551-.069,7.106-.052,10.658,0,1,.015,1.415-.1,1.4-1.3-.081-5.4-.069-10.807-.007-16.209.012-1.073-.332-1.237-1.3-1.235q-21.1.049-42.2.022C2.772,107.5,0,104.729,0,99.576Q0,65.4,0,31.232c0-5.061,2.793-7.859,7.84-7.863,1.655,0,3.314-.075,4.963.026,1.076.066,1.246-.323,1.239-1.3C14,15.768,14.016,9.44,14.02,3.111,14.022.74,14.772,0,17.177,0q23,0,45.993,0m2.237,107.542c-2.77-.014-5.541,0-8.31-.06-.882-.019-1.037.351-1.034,1.123q.036,8.24,0,16.481c0,.772.152,1.143,1.034,1.123,2.769-.061,5.539-.046,8.31-.06,1.215.014,2.43.006,3.644.052.71.026,1.059-.163,1.055-.967q-.037-8.388,0-16.776c0-.8-.346-.993-1.055-.967-1.214.045-2.429.037-3.644.052m20.734,23.4c-.582-.024-1.165-.068-1.748-.068q-21.9-.006-43.808,0c-5.069,0-7.817,2.8-7.915,7.839-.027,1.39.455,1.536,1.639,1.533,12.9-.039,25.8-.02,38.7-.027,5.256,0,10.512-.029,15.768-.044,1.257.016,2.516,0,3.771.057.679.028.975-.191.923-.9-.05-.674.018-1.357-.033-2.031a6.95,6.95,0,0,0-7.3-6.355m16.65-126.22a2.5,2.5,0,0,0-.29-.032q-41.315-.007-82.63-.032c-1,0-1.208.351-1.2,1.263.044,3.6.007,7.2.022,10.8.009,2.239-.275,1.968,1.9,1.969q40.293.01,80.586,0c.535,0,1.069-.028,1.6-.042,1.214.014,2.43.007,3.643.052.708.026,1.062-.16,1.056-.966q-.044-6.052,0-12.1c.006-.806-.348-.992-1.056-.966-1.214.045-2.429.037-3.643.052m13.454,23.374a23.548,23.548,0,0,1-2.622-.067c-1.223-.161-1.5.271-1.5,1.486q.069,23.367.03,46.735c0,2.484-.726,3.208-3.212,3.208q-45.851,0-91.7,0c-2.492,0-3.216-.721-3.217-3.2q0-12.779,0-25.558c0-7.156-.018-14.313.022-21.469.005-.943-.223-1.255-1.193-1.2-1.6.084-3.211.022-4.818.023-2.687,0-3.356.669-3.357,3.354q0,25.559-.032,51.117c0,1.323.32,1.648,1.645,1.646q54.539-.059,109.079-.033c.486,0,.971-.03,1.457-.047,1.07.016,2.149-.052,3.206.071,1.228.142,1.5-.283,1.5-1.494-.045-16.551-.084-33.1,0-49.652.026-5-.688-5.154-5.286-4.912m.271,74.661c.63.024,1.26.068,1.891.068,2.306,0,3.083-.763,3.09-3.031.007-2.189.039-4.379-.012-6.567-.033-1.439.646-3.393-.292-4.18-.98-.822-2.881-.232-4.381-.193-.388-.016-.777-.045-1.165-.045q-54.748,0-109.5,0a2.87,2.87,0,0,1-.438,0c-.831-.129-1.072.216-1.06,1.046.046,3.163.018,6.327.018,9.491,0,2.87.623,3.488,3.519,3.488q53.288,0,106.576,0c.582,0,1.164-.044,1.747-.068M102.79,74.735c1.07.015,2.148-.051,3.206.067,1.217.136,1.517-.27,1.513-1.492-.046-15.183-.022-30.367-.044-45.55,0-1.437.648-3.468-.289-4.157-.979-.72-2.885-.178-4.386-.188-.194-.015-.387-.044-.581-.044q-41.173,0-82.345-.032c-1.148,0-1.19.449-1.188,1.349q.033,24.241-.016,48.481c0,1.322.319,1.645,1.642,1.643q40.516-.064,81.031-.034c.486,0,.971-.029,1.457-.044" transform="translate(0 0)"/>
    <path id="Trazado_131714" data-name="Trazado 131714" d="M147.882,131.134c-.486.015-.971.044-1.456.044q-40.516,0-81.031.034c-1.323,0-1.646-.321-1.642-1.643q.074-24.24.016-48.481c0-.9.04-1.351,1.188-1.349q41.172.057,82.345.032c.193,0,.387.028.581.044q.006,2.325.012,4.65c-1.167-.007-2.339.05-3.5-.042-.966-.076-1.2.25-1.192,1.2.052,4.329,0,8.658.036,12.987.013,1.487-.66,3.534.283,4.306.906.742,2.873.188,4.373.2v4.718c-1.167-.007-2.339.05-3.5-.042-.966-.076-1.2.249-1.192,1.2.052,4.328,0,8.658.036,12.987.013,1.487-.66,3.534.283,4.306.906.742,2.873.188,4.373.2q-.006,2.325-.012,4.65M68.457,93.757c0,2.235-.018,4.471.006,6.706.019,1.8.889,2.656,2.708,2.669q4.3.031,8.6,0c1.811-.013,2.691-.878,2.7-2.679q.03-6.633,0-13.266c-.007-1.888-.872-2.73-2.783-2.741q-4.227-.024-8.454,0c-1.906.011-2.757.857-2.773,2.751-.018,2.186,0,4.374,0,6.56m42.058.041c0-2.187.013-4.374,0-6.56-.014-1.916-.852-2.778-2.734-2.791q-4.3-.029-8.6,0a2.37,2.37,0,0,0-2.676,2.7q-.027,6.633,0,13.266c.007,1.877.878,2.711,2.8,2.722q4.227.023,8.454,0c1.89-.013,2.737-.871,2.753-2.775.018-2.187,0-4.374,0-6.56m28.038-.011c0-2.235.02-4.471-.007-6.706a2.349,2.349,0,0,0-2.6-2.631q-4.372-.041-8.745,0c-1.794.014-2.658.892-2.665,2.709q-.026,6.633,0,13.266a2.375,2.375,0,0,0,2.669,2.708q4.3.036,8.6,0c1.884-.013,2.727-.876,2.742-2.786.017-2.187,0-4.373,0-6.56M68.457,117.2c0,2.235-.022,4.471.007,6.706a2.349,2.349,0,0,0,2.63,2.6q4.372.039,8.745,0a2.346,2.346,0,0,0,2.629-2.6q.037-6.706,0-13.412c-.008-1.8-.892-2.658-2.705-2.671q-4.3-.03-8.6,0a2.375,2.375,0,0,0-2.7,2.673c-.023,2.235-.006,4.471-.006,6.706m42.057,0c0-2.235.019-4.471-.006-6.706a2.38,2.38,0,0,0-2.708-2.669q-4.3-.03-8.6,0c-1.815.013-2.692.873-2.7,2.674q-.029,6.633,0,13.266c.007,1.888.871,2.734,2.779,2.745q4.227.025,8.454,0c1.9-.011,2.76-.862,2.777-2.751.02-2.186,0-4.374,0-6.56m28.038,0c0-2.235.018-4.471-.006-6.706a2.38,2.38,0,0,0-2.7-2.672q-4.3-.03-8.6,0c-1.817.013-2.695.872-2.7,2.672q-.029,6.633,0,13.266c.007,1.89.87,2.737,2.776,2.748q4.227.025,8.454,0c1.9-.011,2.763-.86,2.78-2.748.02-2.186,0-4.374,0-6.56m-51.4-23.553v5.984c0,3.556,0,3.518,3.5,3.537.952.005,1.205-.244,1.195-1.2-.051-4.669-.023-9.34-.023-14.01,0-3.608,0-3.579-3.647-3.534-.822.01-1.06.223-1.045,1.049.051,2.723.019,5.448.019,8.172m32.711.146V87.949c0-3.552,0-3.512-3.506-3.533-.963-.006-1.2.261-1.189,1.2.049,4.669.022,9.34.022,14.01,0,3.605,0,3.576,3.653,3.53.83-.011,1.053-.237,1.039-1.055-.049-2.772-.019-5.545-.019-8.318M91.822,117.158V111.32c0-3.553,0-3.514-3.5-3.534-.959-.006-1.2.256-1.191,1.2.05,4.67.023,9.34.023,14.01,0,3.606,0,3.577,3.651,3.531.827-.011,1.055-.233,1.041-1.053-.05-2.772-.019-5.546-.019-8.318m28.038,0V111.32c0-3.553,0-3.514-3.505-3.534-.96-.005-1.2.257-1.19,1.2.05,4.67.023,9.34.023,14.01,0,3.606,0,3.577,3.651,3.531.828-.011,1.055-.234,1.04-1.053-.049-2.772-.019-5.546-.019-8.318" transform="translate(-45.091 -56.399)" fill="#daf1f5"/>
    <path id="Trazado_131715" data-name="Trazado 131715" d="M127.764,317.268c-.582.024-1.164.068-1.747.068q-53.288,0-106.576,0c-2.9,0-3.519-.617-3.519-3.487,0-3.164.027-6.328-.019-9.491-.012-.83.229-1.174,1.06-1.046a2.914,2.914,0,0,0,.438,0q54.747,0,109.5,0c.388,0,.777.029,1.165.044q0,2.327.006,4.653c-1.257-.008-2.516.014-3.771-.037-.69-.029-.88.2-.915.9-.19,3.8-.211,3.8,3.526,3.788.387,0,.773-.016,1.16-.025a19.023,19.023,0,0,1-.3,4.629m-53.357-9.277H68.421c-3.484,0-3.432,0-3.463,3.469-.01,1.106.407,1.234,1.347,1.225,4.623-.043,9.247-.02,13.87-.02,3.579,0,3.548,0,3.527-3.542,0-.869-.186-1.178-1.12-1.155-2.724.066-5.45.024-8.175.023m44.321,2.373c0-2.373,0-2.373-2.337-2.373h-.146c-2.19,0-2.19,0-2.19,2.228,0,2.446,0,2.446,2.41,2.446,2.263,0,2.263,0,2.263-2.3" transform="translate(-11.248 -214.515)" fill="#d5cef8"/>
    <path id="Trazado_131716" data-name="Trazado 131716" d="M128.039,151.722c-.486.016-.971.047-1.457.047q-54.539,0-109.079.033c-1.325,0-1.649-.323-1.645-1.646q.072-25.558.032-51.117c0-2.684.67-3.351,3.357-3.354,1.606,0,3.216.061,4.817-.023.969-.05,1.2.261,1.193,1.2-.04,7.156-.022,14.313-.022,21.469q0,12.779,0,25.558c0,2.482.724,3.2,3.217,3.2q45.851,0,91.7,0c2.487,0,3.212-.724,3.212-3.208q0-23.368-.03-46.735c0-1.215.278-1.647,1.5-1.486a23.548,23.548,0,0,0,2.622.067,5.67,5.67,0,0,1,.591,2.662q-.023,26.663-.013,53.326" transform="translate(-11.216 -67.641)" fill="#8fd6e0"/>
    <path id="Trazado_131717" data-name="Trazado 131717" d="M147.917,29.9c-.534.015-1.069.042-1.6.042q-40.293,0-80.586,0c-2.18,0-1.9.27-1.9-1.969-.015-3.6.022-7.2-.022-10.8C63.79,16.252,64,15.9,65,15.9q41.315.043,82.63.032a2.564,2.564,0,0,1,.29.032V29.9m-58.3-9.3c-2.436,0-2.436,0-2.438,1.872,0,2.8,0,2.8,1.944,2.8,2.729,0,2.729,0,2.729-2.017,0-2.657,0-2.657-2.235-2.657M77.837,22.841c0,2.427,0,2.427,1.882,2.428,2.79,0,2.79,0,2.792-1.809,0-2.864,0-2.864-2.027-2.865-2.645,0-2.645,0-2.646,2.246m-6.88-2.246c-2.83.042-2.438-.336-2.46,1.843-.029,2.83-.008,2.83,1.909,2.831,2.757,0,2.757,0,2.757-1.989,0-2.685,0-2.685-2.207-2.685" transform="translate(-45.126 -11.247)" fill="#ab9df1"/>
    <path id="Trazado_131718" data-name="Trazado 131718" d="M167.718,456.4c-5.256.016-10.512.042-15.768.044-12.9.006-25.8-.013-38.7.027-1.184,0-1.666-.143-1.639-1.533.1-5.035,2.846-7.838,7.915-7.839q21.9,0,43.808,0c.583,0,1.166.044,1.748.068,1.9,2.786,3.1,5.768,2.634,9.23" transform="translate(-78.942 -316.229)" fill="#d5cef8"/>
    <path id="Trazado_131719" data-name="Trazado 131719" d="M397.72,151.8q0-26.663.013-53.326a5.67,5.67,0,0,0-.591-2.662c4.6-.241,5.312-.09,5.286,4.912-.087,16.551-.047,33.1,0,49.652,0,1.211-.272,1.636-1.5,1.494-1.058-.122-2.137-.054-3.206-.071" transform="translate(-280.898 -67.719)" fill="#45bbcc"/>
    <path id="Trazado_131720" data-name="Trazado 131720" d="M351.177,130.866q.006-2.325.012-4.65V84.2q-.006-2.325-.012-4.65c1.5.01,3.408-.532,4.386.188.937.689.287,2.72.289,4.157.022,15.183,0,30.367.044,45.55,0,1.222-.3,1.628-1.513,1.492-1.058-.118-2.136-.052-3.206-.067" transform="translate(-248.386 -56.13)" fill="#b5e4eb"/>
    <path id="Trazado_131721" data-name="Trazado 131721" d="M200.882,385.869c-2.77.014-5.541,0-8.31.06-.882.019-1.037-.351-1.034-1.123q.036-8.24,0-16.481c0-.772.152-1.143,1.034-1.123,2.769.061,5.54.046,8.31.06v18.607" transform="translate(-135.475 -259.72)" fill="#ab9df1"/>
    <path id="Trazado_131722" data-name="Trazado 131722" d="M223.46,385.887V367.28c1.215-.014,2.43-.006,3.644-.051.71-.026,1.059.162,1.055.967q-.037,8.388,0,16.776c0,.8-.346.993-1.055.967-1.214-.045-2.429-.037-3.644-.051" transform="translate(-158.053 -259.738)" fill="#826be9"/>
    <path id="Trazado_131723" data-name="Trazado 131723" d="M351.179,29.923V15.99c1.214-.014,2.43-.007,3.643-.051.708-.026,1.062.16,1.056.966q-.043,6.052,0,12.1c.006.806-.348.992-1.056.966-1.214-.045-2.429-.037-3.643-.052" transform="translate(-248.388 -11.271)" fill="#826be9"/>
    <path id="Trazado_131724" data-name="Trazado 131724" d="M398.068,316.868a19.038,19.038,0,0,0,.3-4.629v-4.622q0-2.327-.006-4.653c1.5-.039,3.4-.629,4.38.193.938.786.258,2.741.292,4.18.051,2.188.019,4.378.012,6.567-.007,2.268-.784,3.03-3.09,3.031-.63,0-1.26-.044-1.891-.067" transform="translate(-281.552 -214.115)" fill="#ab9df1"/>
    <path id="Trazado_131725" data-name="Trazado 131725" d="M296.93,456.544c.471-3.462-.736-6.444-2.634-9.23a6.95,6.95,0,0,1,7.3,6.355c.051.674-.017,1.357.033,2.031.052.709-.244.928-.923.9-1.256-.052-2.514-.041-3.771-.057" transform="translate(-208.155 -316.376)" fill="#ab9df1"/>
    <path id="Trazado_131726" data-name="Trazado 131726" d="M79.809,105.1c0-2.187-.014-4.374,0-6.56.016-1.893.867-2.739,2.773-2.751q4.227-.025,8.454,0c1.911.011,2.776.853,2.783,2.741q.025,6.633,0,13.266a2.375,2.375,0,0,1-2.7,2.678q-4.3.032-8.6,0c-1.818-.013-2.688-.872-2.708-2.669-.024-2.235-.006-4.471-.006-6.706m9.346.111v-1.167c0-3.832,0-3.814-3.863-3.6-.626.034-.839.176-.822.822.042,1.652.014,3.306.014,4.958,0,3.834,0,3.816,3.863,3.6.625-.034.846-.177.823-.823-.047-1.262-.014-2.527-.014-3.791" transform="translate(-56.444 -67.744)" fill="#010101"/>
    <path id="Trazado_131727" data-name="Trazado 131727" d="M189.616,105.138c0,2.187.014,4.374,0,6.56-.016,1.9-.863,2.762-2.753,2.775q-4.227.028-8.454,0c-1.925-.011-2.8-.844-2.8-2.721q-.026-6.633,0-13.266a2.37,2.37,0,0,1,2.676-2.7q4.3-.034,8.6,0c1.882.013,2.719.875,2.734,2.791.017,2.186,0,4.373,0,6.56m-4.674.061v-1.167c0-3.707,0-3.707-3.725-3.576a.782.782,0,0,1-.146,0c-.646-.1-.83.181-.815.813.039,1.652.013,3.306.013,4.958,0,3.707,0,3.707,3.725,3.576a.779.779,0,0,1,.145,0c.647.1.836-.181.814-.813-.044-1.262-.013-2.527-.013-3.791" transform="translate(-124.194 -67.739)" fill="#010101"/>
    <path id="Trazado_131728" data-name="Trazado 131728" d="M285.407,105.122c0,2.187.013,4.374,0,6.56-.015,1.91-.858,2.773-2.742,2.786q-4.3.029-8.6,0a2.375,2.375,0,0,1-2.668-2.708q-.026-6.633,0-13.266c.007-1.818.871-2.695,2.665-2.709q4.373-.035,8.745,0a2.349,2.349,0,0,1,2.6,2.631c.027,2.235.007,4.471.007,6.706m-9.346-.058v1.167c0,3.706,0,3.706,3.733,3.567a.757.757,0,0,1,.146,0c.657.1.819-.2.806-.821-.037-1.652-.013-3.305-.013-4.958,0-3.705,0-3.7-3.733-3.568a.755.755,0,0,1-.145,0c-.658-.105-.825.2-.806.822.041,1.262.012,2.527.012,3.791" transform="translate(-191.946 -67.734)" fill="#010101"/>
    <path id="Trazado_131729" data-name="Trazado 131729" d="M79.806,185.005c0-2.235-.018-4.471.006-6.706a2.375,2.375,0,0,1,2.7-2.673q4.3-.031,8.6,0c1.814.013,2.7.875,2.705,2.671q.03,6.706,0,13.412a2.346,2.346,0,0,1-2.629,2.6q-4.372.038-8.745,0a2.35,2.35,0,0,1-2.63-2.6c-.029-2.235-.007-4.471-.007-6.706m4.674-.049v1.167c0,3.7,0,3.7,3.782,3.519a.809.809,0,0,1,.146,0c.554.073.761-.141.755-.724q-.039-3.937,0-7.875c0-.551-.154-.715-.727-.766-3.956-.351-3.954-.368-3.954,3.512Z" transform="translate(-56.441 -124.209)" fill="#010101"/>
    <path id="Trazado_131730" data-name="Trazado 131730" d="M189.616,185c0,2.187.015,4.374,0,6.56-.017,1.889-.874,2.739-2.777,2.751q-4.227.025-8.454,0c-1.908-.011-2.772-.857-2.779-2.745q-.025-6.633,0-13.266c.008-1.8.885-2.662,2.7-2.674q4.3-.031,8.6,0a2.38,2.38,0,0,1,2.708,2.669c.025,2.235.006,4.471.006,6.706m-4.674-.153v-1.021c0-3.616,0-3.591-3.623-3.552-.786.009-1.108.156-1.069,1.022.071,1.6.02,3.208.02,4.812,0,3.616,0,3.591,3.623,3.552.786-.008,1.12-.156,1.068-1.022-.075-1.259-.019-2.527-.019-3.791" transform="translate(-124.193 -124.209)" fill="#010101"/>
    <path id="Trazado_131731" data-name="Trazado 131731" d="M285.406,185c0,2.187.015,4.374,0,6.56-.017,1.888-.875,2.736-2.78,2.748q-4.227.025-8.454,0c-1.907-.011-2.77-.859-2.776-2.748q-.024-6.633,0-13.266c.008-1.8.886-2.659,2.7-2.672q4.3-.03,8.6,0a2.38,2.38,0,0,1,2.7,2.672c.024,2.235.006,4.471.006,6.706m-9.346-.048v1.167c0,3.7,0,3.7,3.782,3.519a.809.809,0,0,1,.146,0c.554.073.761-.141.755-.724q-.039-3.937,0-7.875c0-.551-.154-.715-.727-.766-3.956-.351-3.954-.368-3.954,3.512Z" transform="translate(-191.946 -124.209)" fill="#010101"/>
    <path id="Trazado_131732" data-name="Trazado 131732" d="M143.638,104.931c0-2.724.032-5.449-.019-8.173-.015-.825.223-1.038,1.045-1.048,3.648-.045,3.648-.074,3.648,3.534,0,4.67-.028,9.341.023,14.01.011.953-.242,1.2-1.195,1.2-3.5-.02-3.5.018-3.5-3.537v-5.984" transform="translate(-101.58 -67.689)"/>
    <path id="Trazado_131733" data-name="Trazado 131733" d="M244.095,105.09c0,2.773-.03,5.546.019,8.318.015.818-.209,1.044-1.039,1.054-3.653.046-3.653.076-3.653-3.529,0-4.67.027-9.341-.022-14.01-.01-.943.226-1.209,1.189-1.2,3.506.02,3.506-.019,3.506,3.533v5.838" transform="translate(-169.326 -67.702)"/>
    <path id="Trazado_131734" data-name="Trazado 131734" d="M339.433,95.755v18.651c-1.5-.016-3.467.538-4.373-.2-.943-.772-.27-2.819-.283-4.306-.036-4.329.016-8.659-.036-12.987-.011-.946.227-1.272,1.192-1.2,1.16.092,2.332.035,3.5.042" transform="translate(-236.63 -67.69)"/>
    <path id="Trazado_131735" data-name="Trazado 131735" d="M148.3,184.931c0,2.773-.031,5.546.019,8.318.015.82-.213,1.042-1.041,1.053-3.651.046-3.651.075-3.651-3.531,0-4.67.027-9.34-.023-14.01-.01-.946.232-1.207,1.191-1.2,3.5.02,3.5-.019,3.5,3.534v5.838" transform="translate(-101.573 -124.172)"/>
    <path id="Trazado_131736" data-name="Trazado 131736" d="M244.094,184.93c0,2.773-.031,5.546.019,8.318.015.819-.212,1.043-1.04,1.053-3.652.046-3.651.075-3.651-3.531,0-4.67.027-9.34-.023-14.01-.01-.945.23-1.207,1.19-1.2,3.5.02,3.505-.019,3.505,3.534v5.838" transform="translate(-169.325 -124.171)"/>
    <path id="Trazado_131737" data-name="Trazado 131737" d="M339.433,175.594v18.651c-1.5-.016-3.467.538-4.373-.2-.943-.772-.27-2.819-.283-4.306-.036-4.329.016-8.659-.036-12.987-.011-.946.227-1.272,1.192-1.2,1.16.092,2.332.035,3.5.042" transform="translate(-236.63 -124.16)"/>
    <path id="Trazado_131738" data-name="Trazado 131738" d="M192.944,319.3c2.725,0,5.452.043,8.176-.023.934-.023,1.114.287,1.12,1.155.021,3.542.052,3.542-3.528,3.542-4.623,0-9.247-.024-13.87.02-.94.009-1.357-.119-1.347-1.225.031-3.468-.021-3.469,3.463-3.469h5.986" transform="translate(-129.785 -225.82)"/>
    <path id="Trazado_131739" data-name="Trazado 131739" d="M355.9,321.728c0,2.3,0,2.3-2.263,2.3-2.41,0-2.41,0-2.41-2.446,0-2.228,0-2.228,2.19-2.228h.146c2.337,0,2.337,0,2.337,2.373" transform="translate(-248.424 -225.879)"/>
    <path id="Trazado_131740" data-name="Trazado 131740" d="M387.624,319.346v4.622c-.387.009-.773.024-1.16.025-3.737.009-3.716.01-3.526-3.788.035-.693.225-.925.915-.9,1.255.052,2.514.029,3.771.038" transform="translate(-270.805 -225.844)"/>
    <path id="Trazado_131741" data-name="Trazado 131741" d="M146.123,31.937c2.236,0,2.236,0,2.235,2.657,0,2.018,0,2.018-2.729,2.017-1.946,0-1.946,0-1.944-2.8,0-1.872,0-1.872,2.438-1.872" transform="translate(-101.628 -22.589)"/>
    <path id="Trazado_131742" data-name="Trazado 131742" d="M111.756,34.182c0-2.246,0-2.246,2.646-2.246,2.029,0,2.029,0,2.027,2.865,0,1.81,0,1.81-2.792,1.809-1.881,0-1.881,0-1.881-2.428" transform="translate(-79.045 -22.588)"/>
    <path id="Trazado_131743" data-name="Trazado 131743" d="M82.291,31.933c2.208,0,2.208,0,2.207,2.685,0,1.99,0,1.99-2.757,1.989-1.917,0-1.938,0-1.909-2.831.022-2.179-.371-1.8,2.46-1.843" transform="translate(-56.459 -22.585)"/>
    <path id="Trazado_131744" data-name="Trazado 131744" d="M100.429,116.3c0,1.264-.033,2.529.014,3.791.024.646-.2.788-.822.823-3.864.213-3.863.231-3.863-3.6,0-1.653.028-3.307-.014-4.958-.016-.646.2-.788.822-.822,3.865-.211,3.863-.229,3.863,3.6V116.3" transform="translate(-67.718 -78.836)" fill="#daf1f5"/>
    <path id="Trazado_131745" data-name="Trazado 131745" d="M196.221,116.427c0,1.264-.031,2.529.013,3.791.022.632-.167.916-.814.813a.781.781,0,0,0-.146,0c-3.725.131-3.725.131-3.725-3.576,0-1.653.026-3.306-.013-4.958-.015-.632.168-.915.815-.813a.782.782,0,0,0,.146,0c3.725-.131,3.725-.131,3.725,3.576v1.167" transform="translate(-135.472 -78.967)" fill="#daf1f5"/>
    <path id="Trazado_131746" data-name="Trazado 131746" d="M287.339,116.291c0-1.264.029-2.529-.012-3.791-.02-.619.147-.927.805-.822a.758.758,0,0,0,.146,0c3.733-.137,3.733-.137,3.733,3.568,0,1.653-.025,3.306.013,4.958.014.619-.149.926-.806.821a.757.757,0,0,0-.146,0c-3.733.138-3.733.138-3.733-3.567v-1.167" transform="translate(-203.224 -78.961)" fill="#daf1f5"/>
    <path id="Trazado_131747" data-name="Trazado 131747" d="M95.793,195.879v-1.167c0-3.88,0-3.864,3.954-3.512.574.051.732.216.727.766q-.033,3.937,0,7.875c.006.582-.2.8-.755.724a.81.81,0,0,0-.146,0c-3.782.181-3.782.181-3.782-3.519Z" transform="translate(-67.754 -135.132)" fill="#daf1f5"/>
    <path id="Trazado_131748" data-name="Trazado 131748" d="M196.2,196.1c0,1.264-.056,2.531.019,3.791.052.866-.282,1.014-1.068,1.022-3.623.04-3.623.065-3.623-3.552,0-1.6.051-3.211-.02-4.812-.039-.866.283-1.013,1.069-1.022,3.623-.04,3.623-.065,3.623,3.552V196.1" transform="translate(-135.45 -135.463)" fill="#daf1f5"/>
    <path id="Trazado_131749" data-name="Trazado 131749" d="M287.373,195.879v-1.167c0-3.88,0-3.864,3.954-3.512.574.051.732.216.727.766q-.033,3.937,0,7.875c.006.582-.2.8-.755.724a.81.81,0,0,0-.146,0c-3.782.181-3.782.181-3.782-3.519Z" transform="translate(-203.258 -135.132)" fill="#daf1f5"/>
  </g>
</svg>
