<svg xmlns="http://www.w3.org/2000/svg" xmlns:xlink="http://www.w3.org/1999/xlink" width="83" height="83" viewBox="0 0 83 83">
  <defs>
    <clipPath id="clip-path">
      <rect id="Rectángulo_36788" data-name="Rectángulo 36788" width="83" height="83" fill="#fff" stroke="#707070" stroke-width="1"/>
    </clipPath>
  </defs>
  <g id="Grupo_86262" data-name="Grupo 86262" clip-path="url(#clip-path)">
    <g id="Grupo_86263" data-name="Grupo 86263" transform="translate(-518.447 -607.871)">
      <g id="Grupo_86260" data-name="Grupo 86260" transform="translate(522.69 612.13)">
        <path id="Trazado_128743" data-name="Trazado 128743" d="M2033.545,875.955q-.007-1.126-.013-2.251c.914-.231,1.177-.541,1.182-1.458.009-1.574,0-3.147,0-4.721q0-10.785-.005-21.569a3.721,3.721,0,0,1,1.765-3.436,4.332,4.332,0,0,1,2.374-.527c3.534,0,7.068,0,10.6,0,1.023,0,1.327-.266,1.462-1.2h2.4q.01,10.353.019,20.705c0,1.609.306,1.92,1.9,1.92q9.591,0,19.181,0a6.961,6.961,0,0,0,.867-.056,1.119,1.119,0,0,0,1.015-1.063,5.568,5.568,0,0,0,.018-.8q.01-10.353.019-20.706l2.312-.005c.339,1.053.542,1.208,1.66,1.21q4.34.006,8.68,0a3.066,3.066,0,0,1,1,.1c.028.091.029.206.087.268a5.1,5.1,0,0,1,1.249,3.733c-.03,9.7-.015,19.4-.017,29.1,0,.289-.024.579-.037.869-.242.008-.483.024-.726.024q-28.124,0-56.249,0c-.242,0-.484-.01-.726-.016C2033.562,876.035,2033.553,876,2033.545,875.955Z" transform="translate(-2027.563 -818.236)" fill="#ab9df1"/>
        <path id="Trazado_128744" data-name="Trazado 128744" d="M2019.061,873.215c.242.006.484.016.726.016q28.125,0,56.249,0c.242,0,.483-.016.726-.024,1.064.012,2.128.009,3.191.043.483.016.472-.267.472-.6q-.005-14.921-.008-29.841a3.533,3.533,0,0,0-2.7-3.523,6.962,6.962,0,0,0-2.239-.049,3.067,3.067,0,0,0-1-.1q-4.34,0-8.68,0c-1.118,0-1.321-.156-1.661-1.21a1.326,1.326,0,0,1,1.424-1.156c3.757,0,7.515-.051,11.27.014a5.9,5.9,0,0,1,5.951,6.178c.024,2.957,0,5.914,0,8.871q0,10.725-.008,21.451a1.921,1.921,0,0,0,.41,1.263c1.27,1.65,2.489,3.339,3.765,4.985a2.678,2.678,0,0,1,.609,1.872,18.285,18.285,0,0,1-.218,3.979,5.927,5.927,0,0,1-5.674,4.472c-.194.008-.388,0-.582,0q-30.794,0-61.587,0a6.025,6.025,0,0,1-6.423-6.027c-.086-3.372-.084-3.373,1.937-6.073q1.393-1.861,2.789-3.719a1.565,1.565,0,0,1,1.074-.79Zm58.746,2.408c-.29-.008-.581-.023-.871-.023H2028.79q-4.291,0-8.582,0c-.23,0-.507-.108-.684.124-.942,1.24-1.874,2.487-2.872,3.815h.647q31.346,0,62.692,0c.193,0,.387-.017.58-.025h3.385c-.951-1.267-1.839-2.439-2.712-3.622a.656.656,0,0,0-.6-.3C2079.7,875.615,2078.751,875.615,2077.807,875.623Zm3.778,6.352a.676.676,0,0,0-.142-.03q-14.725,0-29.451-.015c-.444,0-.524.175-.506.558a12.006,12.006,0,0,1-.014,1.526,1.163,1.163,0,0,1-2.318-.01,5.341,5.341,0,0,1-.009-1.161c.092-.707-.117-.927-.882-.924q-15.962.045-31.924.02c-.194,0-.388,0-.582,0s-.317.092-.312.306a9.345,9.345,0,0,0,.2,2.74,3.6,3.6,0,0,0,3.753,2.5q30.069.005,60.139,0c.192,0,.385-.03.577-.046a5.184,5.184,0,0,0,1.582.038,3.573,3.573,0,0,0,3.487-3.554c.034-.5,0-1.013.015-1.519.012-.323-.074-.5-.438-.487C2083.7,881.947,2082.644,881.957,2081.585,881.974Z" transform="translate(-2013.052 -815.376)" fill="#030303"/>
        <path id="Trazado_128745" data-name="Trazado 128745" d="M2109.1,785.977q-.009,10.353-.019,20.706a5.567,5.567,0,0,1-.018.8,1.119,1.119,0,0,1-1.015,1.063,6.972,6.972,0,0,1-.867.056q-9.591,0-19.181,0c-1.595,0-1.9-.311-1.9-1.919q-.009-10.353-.019-20.706c.007-1.017,0-2.034.029-3.05.013-.389-.112-.486-.488-.48-1.429.021-2.858,0-4.287.011-.616,0-1.185-.1-1.454-.728-.282-.659.049-1.145.51-1.6q8.024-8.007,16.035-16.027c.9-.9,1.433-.9,2.329,0q8.017,8.013,16.035,16.026a1.382,1.382,0,0,1,.511,1.606c-.266.63-.836.734-1.453.729-1.429-.009-2.858.01-4.287-.011-.376-.006-.5.091-.489.48C2109.105,783.942,2109.095,784.96,2109.1,785.977Zm-6.429-14.543a.449.449,0,0,0-.285-.288c-1.445-1.464-2.906-2.913-4.324-4.4-.385-.4-.573-.37-.949.008q-6.377,6.421-12.785,12.81c-.124.124-.332.205-.316.491h2.607c1.519,0,1.85.324,1.851,1.811q0,2.326,0,4.652,0,9.486,0,18.971c0,.323-.17.73.47.726,4.724-.028,9.448-.028,14.172-.037.943.009,1.89-.03,2.829.043.673.052.783-.189.781-.805-.021-7.795-.014-15.589-.016-23.384,0-.241-.026-.481-.04-.722.27-1.036.472-1.178,1.832-1.292h2.823c-1.431-1.428-2.742-2.745-4.062-4.053q-2.288-2.269-4.588-4.527Z" transform="translate(-2060.329 -763.424)" fill="#020202"/>
        <path id="Trazado_128746" data-name="Trazado 128746" d="M2048.033,837.957c-.135.934-.438,1.2-1.462,1.2-3.534.007-7.069,0-10.6,0a4.331,4.331,0,0,0-2.374.527,3.721,3.721,0,0,0-1.765,3.436q.018,10.785.005,21.569c0,1.574.006,3.147,0,4.721-.005.917-.268,1.227-1.182,1.458-.918-.22-1.174-.513-1.175-1.454,0-8.847-.027-17.695.009-26.542a5.89,5.89,0,0,1,6.127-6.077c3.66-.025,7.32-.009,10.98,0C2047.528,836.8,2047.884,837.1,2048.033,837.957Z" transform="translate(-2024.681 -815.403)" fill="#010101"/>
        <path id="Trazado_128747" data-name="Trazado 128747" d="M2033.227,961.577l-.182.035.155-.154C2033.208,961.5,2033.217,961.538,2033.227,961.577Z" transform="translate(-2027.218 -903.739)" fill="#307070"/>
        <path id="Trazado_128748" data-name="Trazado 128748" d="M2227.241,845.114a6.965,6.965,0,0,1,2.239.049,3.533,3.533,0,0,1,2.7,3.523q.016,14.921.008,29.841c0,.338.01.621-.472.6-1.063-.034-2.127-.031-3.191-.043.013-.29.037-.579.037-.869,0-9.7-.012-19.4.018-29.1a5.1,5.1,0,0,0-1.249-3.733C2227.27,845.32,2227.269,845.2,2227.241,845.114Z" transform="translate(-2164.813 -821.258)" fill="#826be9"/>
        <path id="Trazado_128749" data-name="Trazado 128749" d="M2085.923,997.25c-.192.016-.385.046-.577.046q-30.07,0-60.139,0a3.6,3.6,0,0,1-3.753-2.5,9.349,9.349,0,0,1-.2-2.74c0-.214.11-.3.313-.306s.388,0,.582,0q15.962,0,31.924-.02c.765,0,.973.218.882.925a5.341,5.341,0,0,0,.009,1.161,1.163,1.163,0,0,0,2.318.01,11.962,11.962,0,0,0,.014-1.526c-.018-.383.062-.559.506-.558q14.725.02,29.451.015a.683.683,0,0,1,.142.03C2087.522,993.772,2087.459,995.709,2085.923,997.25Z" transform="translate(-2018.86 -925.186)" fill="#826be9"/>
        <path id="Trazado_128750" data-name="Trazado 128750" d="M2089.323,973.913c-.193.009-.386.025-.579.025q-31.347,0-62.693,0h-.647c1-1.328,1.93-2.576,2.872-3.816.176-.232.453-.124.684-.124q4.291-.01,8.582,0h48.146c.29,0,.581.015.871.023.132.2.264.4.4.594C2087.716,971.734,2088.667,972.718,2089.323,973.913Z" transform="translate(-2021.804 -909.773)" fill="#d5cef8"/>
        <path id="Trazado_128751" data-name="Trazado 128751" d="M2243.142,997.247c1.536-1.541,1.6-3.477,1.471-5.466,1.059-.018,2.118-.028,3.176-.057.363-.01.45.163.438.487-.019.506.02,1.015-.015,1.519a3.573,3.573,0,0,1-3.487,3.554A5.187,5.187,0,0,1,2243.142,997.247Z" transform="translate(-2176.079 -925.184)" fill="#583ae2"/>
        <path id="Trazado_128752" data-name="Trazado 128752" d="M2237.99,973.948c-.656-1.195-1.607-2.178-2.366-3.3-.133-.2-.265-.4-.4-.594.944-.008,1.888-.008,2.832-.03a.657.657,0,0,1,.6.3c.874,1.183,1.761,2.355,2.712,3.622Z" transform="translate(-2170.471 -909.809)" fill="#ab9df1"/>
        <path id="Trazado_128753" data-name="Trazado 128753" d="M2113.416,813.537c-4.724.009-9.448.008-14.172.037-.64,0-.47-.4-.47-.726q-.008-9.486,0-18.971,0-2.326,0-4.652c0-1.487-.332-1.81-1.851-1.811h-2.606c-.016-.286.192-.367.316-.491q6.393-6.405,12.785-12.81c.375-.378.564-.413.948-.008,1.417,1.49,2.879,2.939,4.324,4.4a.263.263,0,0,0,.286.288l0,0a.9.9,0,0,0,.26.649c1.061,1.481,2.138,2.951,3.173,4.45a36.7,36.7,0,0,1,2.394,3.481c-1.359.113-1.562.256-1.832,1.292-.945,0-1.892.041-2.835,0-.594-.029-.731.188-.728.747.022,3.684.011,7.368.011,11.052a4.29,4.29,0,0,0-.407.138,1.083,1.083,0,0,0-.725,1.256,1.177,1.177,0,0,0,1.132,1.06Q2113.417,808.227,2113.416,813.537Zm-5.58-10.677a1.178,1.178,0,0,0,1.22-1.083,1.169,1.169,0,1,0-2.331-.18A1.175,1.175,0,0,0,2107.836,802.86Zm-4.313-1.189a1.224,1.224,0,0,0-1.158-1.168,1.194,1.194,0,0,0-1.188,1.2,1.174,1.174,0,0,0,1.219,1.155A1.2,1.2,0,0,0,2103.522,801.671Z" transform="translate(-2070.627 -770.786)" fill="#6ac9d6"/>
        <path id="Trazado_128754" data-name="Trazado 128754" d="M2159.84,836.563c0-3.684.011-7.368-.011-11.052,0-.559.134-.776.728-.747.943.046,1.89.007,2.835,0,.014.24.039.481.04.722,0,7.795-.006,15.589.016,23.384,0,.616-.108.858-.781.805-.938-.073-1.885-.034-2.829-.043q0-5.31,0-10.62c.647-.165,1.18-.456,1.18-1.227S2160.493,836.721,2159.84,836.563Z" transform="translate(-2117.049 -806.884)" fill="#45bbcc"/>
        <path id="Trazado_128755" data-name="Trazado 128755" d="M2164.159,799.5a36.786,36.786,0,0,0-2.394-3.481c-1.034-1.5-2.111-2.969-3.173-4.45a.893.893,0,0,1-.26-.649q2.294,2.263,4.588,4.527c1.32,1.308,2.631,2.625,4.062,4.053Z" transform="translate(-2115.985 -782.903)" fill="#45bbcc"/>
        <path id="Trazado_128756" data-name="Trazado 128756" d="M2157.638,790.2a.264.264,0,0,1-.286-.288A.448.448,0,0,1,2157.638,790.2Z" transform="translate(-2115.294 -782.193)" fill="#94d9da"/>
        <path id="Trazado_128757" data-name="Trazado 128757" d="M2138,867.737a1.175,1.175,0,0,1-1.112-1.263,1.169,1.169,0,1,1,2.331.18A1.178,1.178,0,0,1,2138,867.737Z" transform="translate(-2100.796 -835.662)" fill="#050707"/>
        <path id="Trazado_128758" data-name="Trazado 128758" d="M2157.053,865.251c.653.159,1.181.454,1.181,1.226s-.533,1.062-1.18,1.227a1.177,1.177,0,0,1-1.132-1.059,1.083,1.083,0,0,1,.725-1.256C2156.776,865.33,2156.917,865.3,2157.053,865.251Z" transform="translate(-2114.262 -835.572)" fill="#040606"/>
        <path id="Trazado_128759" data-name="Trazado 128759" d="M2120.21,866.553a1.2,1.2,0,0,1-1.127,1.186,1.174,1.174,0,0,1-1.219-1.155,1.2,1.2,0,0,1,1.188-1.2A1.224,1.224,0,0,1,2120.21,866.553Z" transform="translate(-2087.315 -835.667)" fill="#040606"/>
      </g>
    </g>
  </g>
</svg>
