<svg xmlns="http://www.w3.org/2000/svg" xmlns:xlink="http://www.w3.org/1999/xlink" width="81.311" height="81.311" viewBox="0 0 81.311 81.311">
  <defs>
    <clipPath id="clip-path">
      <rect id="Rect치ngulo_36623" data-name="Rect치ngulo 36623" width="81.311" height="81.311" fill="#fff" stroke="#707070" stroke-width="1"/>
    </clipPath>
    <clipPath id="clip-path-2">
      <rect id="Rect치ngulo_36875" data-name="Rect치ngulo 36875" width="67.052" height="66.935" fill="none"/>
    </clipPath>
  </defs>
  <g id="Grupo_85832" data-name="Grupo 85832" clip-path="url(#clip-path)">
    <g id="Grupo_86488" data-name="Grupo 86488" transform="translate(7.129 7.187)">
      <g id="Grupo_86487" data-name="Grupo 86487" clip-path="url(#clip-path-2)">
        <path id="Trazado_130051" data-name="Trazado 130051" d="M67.051,32.934q0,9.61,0,19.22a3.957,3.957,0,0,1-4.3,4.318q-10.9,0-21.8-.014c-.608,0-.654.137-.5.674.62,2.2,1.215,4.4,1.767,6.613.125.5.346.619.8.579a6.711,6.711,0,0,1,1.047,0,1.3,1.3,0,0,1-.009,2.6c-.173.014-.349.006-.523.006H23.5c-.131,0-.262,0-.393,0a1.306,1.306,0,1,1-.023-2.61,11.547,11.547,0,0,1,1.178,0c.324.02.438-.1.52-.417.6-2.314,1.211-4.625,1.864-6.925.146-.516-.042-.515-.435-.514q-7.038.013-14.076.005c-2.662,0-5.325,0-7.987,0A3.932,3.932,0,0,1,0,52.326Q0,32.943,0,13.56A3.931,3.931,0,0,1,4.189,9.4c3.077,0,6.154-.011,9.232.01a1.15,1.15,0,0,0,.987-.469A23.948,23.948,0,0,1,29.632.309C38.6-.992,46.176,1.827,52.259,8.541a2.272,2.272,0,0,0,1.92.877c2.88-.054,5.761-.022,8.642-.02a3.939,3.939,0,0,1,4.23,4.251q0,9.642,0,19.285M10.373,29.385c1.041-.015,1.4.249,1.67,1.262a22.661,22.661,0,0,0,4.4,8.449c.361.443.548.412.93.025q3.817-3.863,7.683-7.676c.312-.308.4-.5.108-.905a8.731,8.731,0,0,1-1.6-3.885c-.067-.453-.27-.536-.685-.529-1.549.025-3.1.013-4.649.008-.937,0-1.547-.53-1.542-1.315s.613-1.3,1.558-1.3c1.571,0,3.143-.016,4.714.009.383.006.536-.1.594-.48a9.159,9.159,0,0,1,1.657-4c.23-.32.2-.488-.073-.755q-3.951-3.914-7.87-7.859c-.3-.306-.454-.318-.742.025A22.116,22.116,0,0,0,12.041,19c-.272,1.009-.632,1.278-1.669,1.268a1.362,1.362,0,0,1-.878-1.889,24.674,24.674,0,0,1,2.39-5.835c.089-.157.265-.295.2-.533-2.686,0-5.371-.007-8.055,0a1.317,1.317,0,0,0-1.41,1.5q0,17.293-.012,34.585c0,.436.124.528.54.528q30.381-.015,60.763,0c.438,0,.528-.125.528-.54q-.017-17.26-.01-34.52c0-1.081-.478-1.558-1.554-1.562-1.309,0-2.619,0-3.929,0H54.853c.09.171.136.264.187.353a24.338,24.338,0,0,1,3.257,14.6A24.511,24.511,0,0,1,51.26,42.244a1.31,1.31,0,0,1-2.109.032Q44.049,37.2,38.962,32.11a1.442,1.442,0,0,1-.479-1.165,1.958,1.958,0,0,1,.686-1.15A7.518,7.518,0,1,0,26.109,23.52c.919,0,1.769-.027,2.617.01a.908.908,0,0,0,1.028-.611,4.236,4.236,0,1,1,4.162,6.126,4.133,4.133,0,0,1-4.2-2.389.779.779,0,0,0-.881-.528c-.741.028-1.486.041-2.225,0-.481-.029-.491.175-.4.527a7.86,7.86,0,0,0,1.838,3.338A1.348,1.348,0,0,1,28,32.2Q23,37.2,18,42.183a1.369,1.369,0,0,1-2.3-.03A24.62,24.62,0,0,1,9.5,31.276a1.355,1.355,0,0,1,.871-1.891m23.089-26.8a22.342,22.342,0,0,0-14.24,5.191c-.386.317-.443.492-.053.877q3.893,3.831,7.73,7.717c.351.355.563.347.961.073a10.064,10.064,0,0,1,11.369.026.576.576,0,0,0,.911-.085Q43.983,12.5,47.872,8.67c.393-.387.329-.565-.054-.881a22.376,22.376,0,0,0-14.355-5.2M55.788,25.531a22.708,22.708,0,0,0-5.067-14.8c-.547-.665-.547-.665-1.134-.079-2.516,2.511-5.024,5.03-7.555,7.525-.361.356-.408.573-.1,1.014a10.026,10.026,0,0,1,0,11.3c-.274.4-.277.613.077.963q3.867,3.812,7.684,7.674c.394.4.583.382.933-.042a21.756,21.756,0,0,0,5.17-13.552M33.569,51.242H3.724c-1.125,0-1.125,0-1.1,1.132a1.343,1.343,0,0,0,1.507,1.482c.174,0,.349,0,.524,0H62.705c1.292,0,1.723-.433,1.726-1.723a1.083,1.083,0,0,1,0-.2c.105-.566-.108-.712-.691-.711q-15.086.031-30.173.015m6.1,13.045c-.674-2.515-1.343-4.988-1.991-7.466-.092-.352-.3-.351-.577-.351-2.377,0-4.754.013-7.131-.008a.529.529,0,0,0-.619.476c-.339,1.326-.7,2.647-1.056,3.97-.3,1.119-.594,2.24-.9,3.379ZM33.519,23.206a1.621,1.621,0,1,0,1.631,1.6,1.611,1.611,0,0,0-1.631-1.6" transform="translate(0 0)" fill="#020201"/>
        <path id="Trazado_130052" data-name="Trazado 130052" d="M17.726,63.219a1.356,1.356,0,0,0-.871,1.891,24.62,24.62,0,0,0,6.2,10.878,1.369,1.369,0,0,0,2.3.03q5-4.988,10-9.987a1.347,1.347,0,0,0,.051-2.207,7.859,7.859,0,0,1-1.838-3.338c-.1-.352-.085-.556.4-.527.739.045,1.484.032,2.225,0a.779.779,0,0,1,.881.528,4.133,4.133,0,0,0,4.2,2.389,4.236,4.236,0,1,0-4.162-6.126.908.908,0,0,1-1.028.611c-.848-.037-1.7-.01-2.617-.01a7.523,7.523,0,1,1,13.059,6.275,1.957,1.957,0,0,0-.686,1.15,1.442,1.442,0,0,0,.479,1.165Q51.409,71.027,56.5,76.111a1.31,1.31,0,0,0,2.109-.032A24.843,24.843,0,0,0,62.393,46.2c-.051-.09-.1-.182-.187-.353H66.3c1.31,0,2.619,0,3.929,0,1.075,0,1.554.481,1.554,1.562q0,17.26.01,34.52c0,.415-.09.54-.528.54q-30.381-.018-60.763,0c-.416,0-.541-.091-.54-.528q.02-17.293.012-34.585a1.317,1.317,0,0,1,1.41-1.5c2.684-.011,5.368,0,8.055,0,.062.238-.114.376-.2.533a24.672,24.672,0,0,0-2.39,5.835,1.362,1.362,0,0,0,.878,1.889,26.743,26.743,0,0,0-.318,3.226c-.922.134-1.408.594-1.408,1.33s.484,1.194,1.408,1.331c-.032,1.089.247,2.148.319,3.227m23.152,12.7c-1.307,0-2.614,0-3.92,0-.913,0-1.483.495-1.5,1.273-.019.807.564,1.337,1.5,1.339q3.92.008,7.841,0c.939,0,1.519-.529,1.5-1.339-.018-.779-.587-1.269-1.5-1.273-1.307-.006-2.614,0-3.92,0m-.011-2.615c.936,0,1.872.008,2.808,0a1.311,1.311,0,1,0,.022-2.61q-2.808-.015-5.617,0a1.311,1.311,0,1,0-.022,2.61c.936.012,1.872,0,2.808,0" transform="translate(-7.352 -33.834)" fill="#fdfdfd"/>
        <path id="Trazado_130053" data-name="Trazado 130053" d="M86.712,9.875a22.379,22.379,0,0,1,14.355,5.2c.384.316.447.494.054.881q-3.893,3.83-7.731,7.716a.576.576,0,0,1-.911.085,10.063,10.063,0,0,0-11.369-.026c-.4.274-.611.282-.961-.073q-3.84-3.884-7.73-7.717c-.39-.384-.333-.559.053-.876a22.346,22.346,0,0,1,14.24-5.191" transform="translate(-53.249 -7.288)" fill="#f4c15c"/>
        <path id="Trazado_130054" data-name="Trazado 130054" d="M173.328,54.311a21.757,21.757,0,0,1-5.17,13.552c-.35.425-.539.441-.933.042q-3.815-3.864-7.684-7.674c-.354-.349-.351-.566-.077-.963a10.026,10.026,0,0,0,0-11.3c-.3-.44-.257-.658.1-1.014,2.532-2.495,5.04-5.014,7.555-7.525.587-.586.588-.586,1.134.079a22.707,22.707,0,0,1,5.067,14.8" transform="translate(-117.54 -28.781)" fill="#eb645e"/>
        <path id="Trazado_130055" data-name="Trazado 130055" d="M38.687,58.124c-.072-1.079-.352-2.138-.319-3.227.84-.274,1.206-.678,1.206-1.331s-.371-1.062-1.206-1.33a26.8,26.8,0,0,1,.318-3.226c1.037.01,1.4-.259,1.67-1.268A22.112,22.112,0,0,1,44.84,39.2c.288-.343.438-.331.742-.024q3.918,3.947,7.871,7.859c.27.267.3.435.072.755a9.166,9.166,0,0,0-1.657,4c-.058.379-.211.486-.594.48-1.571-.024-3.143-.013-4.714-.009-.945,0-1.553.515-1.558,1.3s.605,1.312,1.542,1.315c1.55,0,3.1.016,4.649-.008.416-.007.618.076.685.529a8.728,8.728,0,0,0,1.6,3.885c.293.4.2.6-.107.905Q49.509,64,45.686,67.86c-.382.386-.57.418-.93-.025a22.66,22.66,0,0,1-4.4-8.449c-.274-1.013-.629-1.276-1.67-1.262" transform="translate(-28.314 -28.739)" fill="#cfe16d"/>
        <path id="Trazado_130056" data-name="Trazado 130056" d="M40.938,195.544q15.086,0,30.173-.015c.583,0,.8.145.691.711a1.083,1.083,0,0,0,0,.2c0,1.29-.433,1.723-1.726,1.723H12.02c-.174,0-.349,0-.524,0a1.344,1.344,0,0,1-1.507-1.483c-.021-1.131-.021-1.131,1.1-1.131Z" transform="translate(-7.368 -144.302)" fill="#aabcca"/>
        <path id="Trazado_130057" data-name="Trazado 130057" d="M116.832,223.335H104.561c.3-1.139.6-2.26.9-3.379.353-1.323.717-2.643,1.056-3.97a.528.528,0,0,1,.619-.476c2.377.021,4.754.013,7.131.008.273,0,.485,0,.577.351.648,2.479,1.318,4.952,1.992,7.467" transform="translate(-77.167 -159.048)" fill="#738fa8"/>
        <path id="Trazado_130058" data-name="Trazado 130058" d="M123.381,88.576a1.621,1.621,0,1,1-1.619,1.61,1.611,1.611,0,0,1,1.619-1.61" transform="translate(-89.861 -65.37)" fill="#58c5e9"/>
        <path id="Trazado_130059" data-name="Trazado 130059" d="M112.693,160.642c1.307,0,2.614,0,3.92,0,.914,0,1.483.494,1.5,1.273.018.81-.561,1.337-1.5,1.339q-3.92.008-7.841,0c-.937,0-1.52-.532-1.5-1.34.018-.778.588-1.269,1.5-1.272,1.307-.006,2.614,0,3.92,0" transform="translate(-79.167 -118.554)" fill="#010101"/>
        <path id="Trazado_130060" data-name="Trazado 130060" d="M116,143.286c-.936,0-1.872.009-2.808,0a1.311,1.311,0,1,1,.022-2.61q2.808-.013,5.617,0a1.311,1.311,0,1,1-.022,2.61c-.936.01-1.872,0-2.808,0" transform="translate(-82.487 -103.814)" fill="#010101"/>
        <path id="Trazado_130061" data-name="Trazado 130061" d="M34.41,89.685c.835.267,1.208.678,1.206,1.33s-.367,1.058-1.206,1.331C33.486,92.21,33,91.752,33,91.015s.487-1.2,1.408-1.33" transform="translate(-24.356 -66.188)" fill="#070705"/>
      </g>
    </g>
  </g>
</svg>
