<svg xmlns="http://www.w3.org/2000/svg" xmlns:xlink="http://www.w3.org/1999/xlink" width="96" height="96" viewBox="0 0 96 96">
  <defs>
    <clipPath id="clip-path">
      <rect id="Rect치ngulo_36987" data-name="Rect치ngulo 36987" width="96" height="96" fill="#fff" stroke="#707070" stroke-width="1"/>
    </clipPath>
    <clipPath id="clip-path-2">
      <rect id="Rect치ngulo_36988" data-name="Rect치ngulo 36988" width="78.664" height="78.655" fill="none"/>
    </clipPath>
  </defs>
  <g id="Grupo_86796" data-name="Grupo 86796" clip-path="url(#clip-path)">
    <g id="Grupo_86798" data-name="Grupo 86798" transform="translate(8.668 8.672)">
      <g id="Grupo_86798-2" data-name="Grupo 86798" clip-path="url(#clip-path-2)">
        <path id="Trazado_131479" data-name="Trazado 131479" d="M83.3,34.99l-1.876,1.841c-1-.431-1.186-.392-2.01.432Q57.5,59.17,35.595,81.081a4.035,4.035,0,0,1-1.74,1.18c-.2-.229-.389-.471-.6-.686C29.2,77.52,25.126,73.491,21.1,69.408a4.612,4.612,0,0,1-.073-6.779c4.45-4.522,8.961-8.983,13.448-13.469.2-.2.381-.428.713-.367a1.451,1.451,0,0,0,.514,1.07q6.436,6.424,12.865,12.854c.741.739,1.29.733,2.041-.016q9.718-9.706,19.426-19.423c.744-.745.749-1.3.011-2.038Q63.626,34.8,57.194,28.377a1.45,1.45,0,0,0-1.072-.511c-.066-.438.289-.628.531-.871q8.713-8.722,17.436-17.435c.2-.2.418-.372.628-.557a3.22,3.22,0,0,1,1.23.884Q82.265,16.2,88.582,22.524c1.783,1.785,1.775,3.786-.014,5.585-1.659,1.667-3.328,3.325-4.988,4.991-.7.7-.74,1-.28,1.89M28.059,71.508a1.156,1.156,0,0,0,1.148-1.1,1.175,1.175,0,0,0-1.167-1.166,1.156,1.156,0,0,0-1.1,1.146,1.142,1.142,0,0,0,1.117,1.118M78.84,20.7a1.142,1.142,0,0,0-1.151-1.084,1.164,1.164,0,0,0-1.115,1.132,1.182,1.182,0,0,0,1.2,1.132A1.16,1.16,0,0,0,78.84,20.7m-45.8,35.915a1.138,1.138,0,0,0,1.12-1.114,1.153,1.153,0,0,0-1.093-1.15,1.176,1.176,0,0,0-1.17,1.163,1.157,1.157,0,0,0,1.144,1.1m29.81-32.046a1.192,1.192,0,0,0-1.164,1.092,1.151,1.151,0,0,0,1.148,1.171,1.139,1.139,0,0,0,1.116-1.118,1.156,1.156,0,0,0-1.1-1.145m9.93,2.262A1.16,1.16,0,0,0,73.889,25.7a1.2,1.2,0,0,0-1.207-1.129,1.156,1.156,0,0,0-1.057,1.183,1.134,1.134,0,0,0,1.152,1.078M42.941,66.556a1.2,1.2,0,0,0,1.158-1.1,1.15,1.15,0,0,0-1.156-1.162,1.137,1.137,0,0,0-1.108,1.124,1.157,1.157,0,0,0,1.105,1.139m-8.783-1.121a1.135,1.135,0,0,0-1.089-1.142A1.155,1.155,0,0,0,31.9,65.36a1.193,1.193,0,0,0,1.14,1.2,1.161,1.161,0,0,0,1.123-1.121m39.73-29.78a1.161,1.161,0,0,0-1.1-1.145,1.138,1.138,0,0,0-1.165,1.066,1.156,1.156,0,0,0,1.12,1.2,1.2,1.2,0,0,0,1.143-1.119M29.206,60.443a1.136,1.136,0,0,0-1.148-1.1,1.107,1.107,0,1,0,.021,2.214,1.137,1.137,0,0,0,1.128-1.118M67.748,19.617a1.1,1.1,0,0,0-1.071,1.163,1.108,1.108,0,1,0,2.214-.074,1.1,1.1,0,0,0-1.144-1.089M23.126,64.293A1.1,1.1,0,0,0,22,65.4a1.109,1.109,0,1,0,2.216.044,1.1,1.1,0,0,0-1.087-1.147m50.761-48.5a1.137,1.137,0,0,0-1.123-1.123,1.108,1.108,0,1,0-.03,2.215,1.136,1.136,0,0,0,1.153-1.092m3.83,13.769a1.108,1.108,0,1,0-.006,2.215,1.108,1.108,0,1,0,.006-2.215M38.009,69.245a1.136,1.136,0,0,0-1.12,1.125,1.107,1.107,0,1,0,2.214.024,1.134,1.134,0,0,0-1.095-1.149M82.681,26.832A1.1,1.1,0,0,0,83.787,25.7a1.108,1.108,0,1,0-2.216.006,1.1,1.1,0,0,0,1.111,1.122m-48.524,48.5a1.1,1.1,0,0,0-1.136-1.1,1.108,1.108,0,1,0,.022,2.215,1.1,1.1,0,0,0,1.114-1.118M67.75,31.775a1.1,1.1,0,1,0-1.071-1.139,1.067,1.067,0,0,0,1.071,1.139M37.983,61.558a1.1,1.1,0,1,0-1.091-1.119,1.066,1.066,0,0,0,1.091,1.119" transform="translate(-13.559 -6.234)" fill="#56a3ae"/>
        <path id="Trazado_131480" data-name="Trazado 131480" d="M20.3,76.027a4.037,4.037,0,0,0,1.74-1.18Q43.942,52.934,65.855,31.029c.824-.824,1.015-.863,2.01-.432.5.953.456,1.228-.322,2.007-2.077,2.079-4.144,4.169-6.246,6.224-.411.4-.409.594,0,1q7.7,7.645,15.356,15.329a5.89,5.89,0,0,1,1.392,6.993,6.472,6.472,0,0,1-1.315,1.774q-2.172,2.165-4.341,4.334c-.794.791-1.014.824-2.011.335a1.422,1.422,0,0,1,.364-1.961c1.472-1.42,2.908-2.878,4.347-4.333A3.549,3.549,0,0,0,75.1,56.88q-7.72-7.742-15.449-15.473c-.392-.394-.584-.352-.951.017q-5.649,5.689-11.33,11.347-2.412,2.414-4.809,4.844c-.4.389-.794.794-1.216,1.161-.328.285-.315.479,0,.789,5.238,5.218,10.45,10.461,15.7,15.662a3.146,3.146,0,0,0,3.641.864,3.571,3.571,0,0,0,1.655-1.043c1.458-1.456,2.91-2.918,4.374-4.368.688-.682,1.161-.686,1.91-.061a1.258,1.258,0,0,1-.3,1.711c-1.529,1.51-3.028,3.051-4.567,4.551a5.806,5.806,0,0,1-8.383-.043q-7.757-7.711-15.462-15.474c-.477-.48-.695-.473-1.167,0q-7.57,7.627-15.186,15.208c-2.781,2.779-6.193,2.774-8.987-.017Q8.3,70.293,2.038,64.021c-2.714-2.716-2.716-6.163-.006-8.873q7.651-7.654,15.317-15.294c.429-.426.416-.636,0-1.054Q9.668,31.171,2.028,23.506c-2.71-2.71-2.7-6.153.014-8.873q6.294-6.3,12.593-12.59C17.355-.673,20.8-.676,23.513,2.031q7.656,7.65,15.3,15.314c.426.428.635.418,1.054,0Q47.438,9.718,55.049,2.132c2.854-2.853,6.247-2.839,9.1.019q6.208,6.221,12.429,12.429c2.784,2.786,2.782,6.2,0,8.989q-2.44,2.444-4.886,4.883c-.745.741-1.058.783-1.95.3-.459-.888-.421-1.186.281-1.89,1.66-1.666,3.329-3.323,4.987-4.991,1.789-1.8,1.8-3.8.015-5.585Q68.71,9.967,62.388,3.654a3.222,3.222,0,0,0-1.23-.884,1.1,1.1,0,0,0-.183-.132,3.5,3.5,0,0,0-4.163,1Q44.6,15.843,32.4,28.052c-.527.528-1.052.9-1.818.525-.7-.809-.695-1.279.059-2.036q3.3-3.313,6.623-6.607c.347-.342.377-.53.011-.894Q29.5,11.3,21.759,3.542a3.477,3.477,0,0,0-1.611-.991,3.345,3.345,0,0,0-3.8,1.051Q10.034,9.87,3.759,16.173c-1.942,1.942-1.942,3.86,0,5.8Q10.888,29.1,18.024,36.225c.48.478.912,1.355,1.495,1.288.6-.068,1.058-.877,1.528-1.413q2.787-2.769,5.574-5.538c.753-.746,1.14-.768,1.972-.138.477.814.067,1.372-.5,1.939Q15.853,44.579,3.632,56.812a3.565,3.565,0,0,0-.018,5.527c1.043,1.053,2.1,2.1,3.145,3.145q4.8,4.8,9.6,9.594a3.321,3.321,0,0,0,3.937.949" transform="translate(0 0)" fill="#010202"/>
        <path id="Trazado_131481" data-name="Trazado 131481" d="M138.345,150.169q2.4-2.423,4.809-4.844,5.666-5.673,11.33-11.347c.367-.369.559-.411.951-.017q7.709,7.752,15.449,15.473a3.549,3.549,0,0,1-.012,5.421c-1.438,1.455-2.874,2.913-4.347,4.333a1.422,1.422,0,0,0-.364,1.961q-.675.709-1.35,1.418c-.169.179-.4.319-.4.608-.749-.626-1.222-.621-1.91.06-1.463,1.45-2.916,2.912-4.374,4.368a3.566,3.566,0,0,1-1.655,1.043c-.1-.344-.394-.528-.625-.759q-8.461-8.47-16.927-16.936c-.227-.228-.549-.4-.573-.782m22.72,6.529a1.159,1.159,0,0,0-1.112-1.134,1.176,1.176,0,0,0-1.153,1.18,1.156,1.156,0,0,0,1.159,1.085,1.143,1.143,0,0,0,1.106-1.131m-4.954-14.865a1.179,1.179,0,0,0-1.1-1.16,1.15,1.15,0,0,0-1.166,1.152,1.138,1.138,0,0,0,1.122,1.111,1.156,1.156,0,0,0,1.141-1.1m-11.071,8.78a1.152,1.152,0,0,0-1.135,1.109,1.177,1.177,0,0,0,1.18,1.153,1.156,1.156,0,0,0,1.084-1.159,1.138,1.138,0,0,0-1.13-1.1m11.072,1.1a1.154,1.154,0,0,0-1.139-1.1,1.134,1.134,0,0,0-1.125,1.106,1.15,1.15,0,0,0,1.161,1.156,1.2,1.2,0,0,0,1.1-1.158m4.953-4.938a1.1,1.1,0,0,0-1.121-1.112,1.108,1.108,0,1,0-.011,2.215,1.1,1.1,0,0,0,1.132-1.1m3.858,6.1a1.136,1.136,0,0,0,1.087-1.158,1.108,1.108,0,1,0-2.216.04,1.139,1.139,0,0,0,1.129,1.118m-14.949,2.689a1.135,1.135,0,0,0-1.072,1.172,1.108,1.108,0,1,0,2.214-.07,1.137,1.137,0,0,0-1.142-1.1m6.137,6.16a1.136,1.136,0,0,0-1.079-1.165,1.107,1.107,0,1,0-.118,2.211,1.138,1.138,0,0,0,1.2-1.047m-6.072-13.846a1.1,1.1,0,1,0-1.135-1.075,1.066,1.066,0,0,0,1.135,1.075" transform="translate(-95.783 -92.555)" fill="#56a4ae"/>
        <path id="Trazado_131482" data-name="Trazado 131482" d="M35.784,33.789c.766.377,1.292,0,1.818-.525Q49.8,21.051,62.01,8.854a3.5,3.5,0,0,1,4.163-1,1.1,1.1,0,0,1,.183.133c-.21.185-.43.359-.628.556q-8.721,8.714-17.436,17.436c-.242.242-.6.433-.531.87a1.725,1.725,0,0,0-.964.574q-9.691,9.7-19.391,19.388a1.724,1.724,0,0,0-.574.964c-.332-.061-.514.168-.713.367-4.486,4.486-9,8.947-13.447,13.469a4.612,4.612,0,0,0,.072,6.779c4.021,4.083,8.1,8.112,12.146,12.166.215.215.4.457.6.686a3.321,3.321,0,0,1-3.937-.949q-4.806-4.791-9.6-9.595c-1.048-1.048-2.1-2.092-3.145-3.145a3.565,3.565,0,0,1,.018-5.527q12.225-12.229,24.46-24.448c.568-.567.979-1.125.5-1.939a7,7,0,0,0,1.991-1.847" transform="translate(-5.199 -5.212)" fill="#347894"/>
        <path id="Trazado_131483" data-name="Trazado 131483" d="M70.319,91.24a1.724,1.724,0,0,1,.574-.965q9.7-9.689,19.391-19.388a1.726,1.726,0,0,1,.964-.574,1.451,1.451,0,0,1,1.072.511q6.426,6.434,12.857,12.862c.738.739.733,1.293-.011,2.038q-9.709,9.716-19.426,19.423c-.751.749-1.3.755-2.041.016Q77.261,98.742,70.833,92.31a1.451,1.451,0,0,1-.514-1.07M86.2,101.382c.188-.17.384-.331.563-.51q7.508-7.5,15.016-15.007c.378-.377.789-.722,1.29-1.177-.383-.325-.693-.555-.965-.824q-4.651-4.611-9.292-9.231a14.4,14.4,0,0,1-.99-1.06c-.358-.464-.59-.4-.988,0q-8.606,8.649-17.258,17.253c-.415.413-.383.6.011.99,3.255,3.22,6.483,6.468,9.728,9.7.463.461.918,1.329,1.422,1.246.549-.091.98-.888,1.463-1.377" transform="translate(-48.685 -48.681)" fill="#020201"/>
        <path id="Trazado_131484" data-name="Trazado 131484" d="M44.618,207.07a1.142,1.142,0,0,1-1.117-1.118,1.156,1.156,0,0,1,1.1-1.146,1.175,1.175,0,0,1,1.167,1.166,1.156,1.156,0,0,1-1.148,1.1" transform="translate(-30.118 -141.796)" fill="#030607"/>
        <path id="Trazado_131485" data-name="Trazado 131485" d="M207.09,44.583a1.159,1.159,0,0,1-1.064,1.179,1.181,1.181,0,0,1-1.2-1.131,1.164,1.164,0,0,1,1.115-1.132,1.141,1.141,0,0,1,1.151,1.084" transform="translate(-141.809 -30.116)" fill="#030607"/>
        <path id="Trazado_131486" data-name="Trazado 131486" d="M60.74,158.667a1.157,1.157,0,0,1-1.144-1.1,1.176,1.176,0,0,1,1.171-1.163,1.153,1.153,0,0,1,1.093,1.15,1.138,1.138,0,0,1-1.12,1.114" transform="translate(-41.261 -108.285)" fill="#030607"/>
        <path id="Trazado_131487" data-name="Trazado 131487" d="M157.586,59.6a1.156,1.156,0,0,1,1.1,1.145,1.138,1.138,0,0,1-1.116,1.118,1.151,1.151,0,0,1-1.148-1.17,1.192,1.192,0,0,1,1.164-1.092" transform="translate(-108.297 -41.262)" fill="#030607"/>
        <path id="Trazado_131488" data-name="Trazado 131488" d="M189.889,61.859a1.135,1.135,0,0,1-1.152-1.079,1.155,1.155,0,0,1,1.057-1.183A1.2,1.2,0,0,1,191,60.727a1.16,1.16,0,0,1-1.112,1.132" transform="translate(-130.671 -41.261)" fill="#030607"/>
        <path id="Trazado_131489" data-name="Trazado 131489" d="M93.017,190.978a1.158,1.158,0,0,1-1.105-1.139,1.137,1.137,0,0,1,1.108-1.124,1.15,1.15,0,0,1,1.156,1.162,1.194,1.194,0,0,1-1.158,1.1" transform="translate(-63.635 -130.656)" fill="#030607"/>
        <path id="Trazado_131490" data-name="Trazado 131490" d="M61.863,189.857a1.162,1.162,0,0,1-1.123,1.122,1.193,1.193,0,0,1-1.14-1.2,1.155,1.155,0,0,1,1.173-1.067,1.135,1.135,0,0,1,1.089,1.142" transform="translate(-41.263 -130.656)" fill="#030607"/>
        <path id="Trazado_131491" data-name="Trazado 131491" d="M191,93.05a1.2,1.2,0,0,1-1.143,1.119,1.156,1.156,0,0,1-1.12-1.2,1.137,1.137,0,0,1,1.165-1.065A1.16,1.16,0,0,1,191,93.05" transform="translate(-130.67 -63.629)" fill="#030607"/>
        <path id="Trazado_131492" data-name="Trazado 131492" d="M45.765,173.735a1.137,1.137,0,0,1-1.128,1.118,1.107,1.107,0,1,1-.021-2.214,1.136,1.136,0,0,1,1.148,1.1" transform="translate(-30.118 -119.526)" fill="#030606"/>
        <path id="Trazado_131493" data-name="Trazado 131493" d="M173.726,43.5a1.1,1.1,0,0,1,1.144,1.089,1.108,1.108,0,1,1-2.214.073,1.1,1.1,0,0,1,1.071-1.162" transform="translate(-119.537 -30.116)" fill="#030606"/>
        <path id="Trazado_131494" data-name="Trazado 131494" d="M28.555,188.714a1.1,1.1,0,0,1,1.087,1.147,1.109,1.109,0,1,1-2.216-.045,1.1,1.1,0,0,1,1.129-1.1" transform="translate(-18.988 -130.656)" fill="#030606"/>
        <path id="Trazado_131495" data-name="Trazado 131495" d="M191,28.549a1.136,1.136,0,0,1-1.153,1.092,1.108,1.108,0,1,1,.03-2.215A1.137,1.137,0,0,1,191,28.549" transform="translate(-130.672 -18.988)" fill="#030606"/>
        <path id="Trazado_131496" data-name="Trazado 131496" d="M205.973,75.831a1.107,1.107,0,1,1-.006,2.214,1.108,1.108,0,1,1,.006-2.214" transform="translate(-141.815 -52.501)" fill="#030506"/>
        <path id="Trazado_131497" data-name="Trazado 131497" d="M76.954,204.809a1.134,1.134,0,0,1,1.095,1.149,1.108,1.108,0,1,1-2.215-.024,1.137,1.137,0,0,1,1.12-1.125" transform="translate(-52.503 -141.798)" fill="#030506"/>
        <path id="Trazado_131498" data-name="Trazado 131498" d="M222.178,61.861a1.1,1.1,0,0,1-1.111-1.122,1.108,1.108,0,1,1,2.216-.005,1.1,1.1,0,0,1-1.105,1.128" transform="translate(-153.055 -41.263)" fill="#030606"/>
        <path id="Trazado_131499" data-name="Trazado 131499" d="M61.864,222.136a1.1,1.1,0,0,1-1.114,1.118,1.108,1.108,0,1,1-.022-2.215,1.1,1.1,0,0,1,1.136,1.1" transform="translate(-41.264 -153.035)" fill="#030606"/>
        <path id="Trazado_131500" data-name="Trazado 131500" d="M173.735,78.049a1.1,1.1,0,1,1,1.139-1.07,1.067,1.067,0,0,1-1.139,1.07" transform="translate(-119.543 -52.507)" fill="#010303"/>
        <path id="Trazado_131501" data-name="Trazado 131501" d="M76.933,174.856a1.1,1.1,0,1,1,1.119-1.09,1.067,1.067,0,0,1-1.119,1.09" transform="translate(-52.509 -119.532)" fill="#010303"/>
        <path id="Trazado_131502" data-name="Trazado 131502" d="M43.526,34.316a7,7,0,0,1-1.991,1.848c-.832-.63-1.22-.608-1.972.138q-2.791,2.765-5.574,5.537c-.381-.024-.554-.344-.782-.571q-6.43-6.417-12.851-12.843A4.771,4.771,0,0,1,20.34,21.2q6.1-6.1,12.194-12.2c.212-.212.492-.38.555-.711A3.476,3.476,0,0,1,34.7,9.28q7.757,7.751,15.519,15.5c.366.364.336.552-.011.894q-3.331,3.285-6.623,6.607c-.754.757-.76,1.228-.06,2.036m-9.985-9.11a1.158,1.158,0,0,0-1.112-1.132,1.178,1.178,0,0,0-1.151,1.182,1.153,1.153,0,0,0,1.162,1.081,1.135,1.135,0,0,0,1.1-1.132m9.942-.023a1.184,1.184,0,0,0-1.149-1.108,1.156,1.156,0,0,0-1.113,1.205,1.138,1.138,0,0,0,1.174,1.057,1.155,1.155,0,0,0,1.089-1.154m-11.045,11.1a1.155,1.155,0,0,0,1.1-1.14,1.138,1.138,0,0,0-1.111-1.123,1.153,1.153,0,0,0-1.153,1.167,1.18,1.18,0,0,0,1.16,1.1M27.419,19.123a1.141,1.141,0,0,0-1.1,1.14,1.16,1.16,0,0,0,1.122,1.125A1.18,1.18,0,0,0,28.588,20.2a1.157,1.157,0,0,0-1.169-1.074m5-4.946a1.108,1.108,0,1,0-.01,2.215,1.108,1.108,0,1,0,.01-2.215m5.019,4.945a1.1,1.1,0,0,0-1.166,1.066,1.108,1.108,0,1,0,2.212.12,1.1,1.1,0,0,0-1.046-1.186m-9.968,9.946a1.108,1.108,0,1,0-.042,2.215,1.108,1.108,0,1,0,.042-2.215M23.59,25.315a1.109,1.109,0,1,0-2.207-.206,1.109,1.109,0,1,0,2.207.206M37.373,31.28a1.1,1.1,0,1,0-1.1-1.111,1.064,1.064,0,0,0,1.1,1.111" transform="translate(-12.941 -5.739)" fill="#56a4af"/>
        <path id="Trazado_131503" data-name="Trazado 131503" d="M25.33,7.75c-.063.331-.344.5-.555.711q-6.093,6.1-12.194,12.2a4.771,4.771,0,0,0,.016,7.227q6.423,6.424,12.851,12.843c.228.227.4.547.782.571-.469.536-.924,1.345-1.528,1.413-.583.066-1.015-.811-1.495-1.288Q16.062,34.31,8.939,27.173c-1.94-1.94-1.94-3.858,0-5.8q6.29-6.29,12.586-12.572a3.345,3.345,0,0,1,3.8-1.051" transform="translate(-5.182 -5.2)" fill="#357895"/>
        <path id="Trazado_131504" data-name="Trazado 131504" d="M135.064,187.269c.024.382.345.554.573.782q8.46,8.471,16.927,16.936c.231.231.528.415.625.759a3.146,3.146,0,0,1-3.64-.864c-5.254-5.2-10.467-10.445-15.7-15.662-.312-.31-.325-.5,0-.789.423-.367.813-.773,1.217-1.161" transform="translate(-92.501 -129.655)" fill="#357895"/>
        <path id="Trazado_131505" data-name="Trazado 131505" d="M207.1,205.938a1.142,1.142,0,0,1-1.106,1.13,1.156,1.156,0,0,1-1.159-1.085,1.176,1.176,0,0,1,1.154-1.18,1.158,1.158,0,0,1,1.111,1.134" transform="translate(-141.813 -141.795)" fill="#030607"/>
        <path id="Trazado_131506" data-name="Trazado 131506" d="M191,157.563a1.156,1.156,0,0,1-1.141,1.1,1.137,1.137,0,0,1-1.122-1.111A1.15,1.15,0,0,1,189.9,156.4a1.179,1.179,0,0,1,1.1,1.16" transform="translate(-130.672 -108.284)" fill="#030607"/>
        <path id="Trazado_131507" data-name="Trazado 131507" d="M157.553,188.713a1.137,1.137,0,0,1,1.13,1.1,1.155,1.155,0,0,1-1.084,1.159,1.177,1.177,0,0,1-1.18-1.153,1.152,1.152,0,0,1,1.135-1.109" transform="translate(-108.296 -130.655)" fill="#030607"/>
        <path id="Trazado_131508" data-name="Trazado 131508" d="M191,189.818a1.2,1.2,0,0,1-1.1,1.158,1.15,1.15,0,0,1-1.161-1.156,1.134,1.134,0,0,1,1.125-1.106,1.154,1.154,0,0,1,1.139,1.1" transform="translate(-130.671 -130.655)" fill="#030607"/>
        <path id="Trazado_131509" data-name="Trazado 131509" d="M207.1,173.751a1.1,1.1,0,0,1-1.132,1.1,1.108,1.108,0,1,1,.011-2.215,1.1,1.1,0,0,1,1.121,1.112" transform="translate(-141.815 -119.526)" fill="#030506"/>
        <path id="Trazado_131510" data-name="Trazado 131510" d="M222.192,190.977a1.138,1.138,0,0,1-1.129-1.118,1.108,1.108,0,1,1,2.216-.04,1.135,1.135,0,0,1-1.087,1.158" transform="translate(-153.052 -130.656)" fill="#030606"/>
        <path id="Trazado_131511" data-name="Trazado 131511" d="M173.732,204.807a1.137,1.137,0,0,1,1.142,1.1,1.108,1.108,0,1,1-2.214.07,1.135,1.135,0,0,1,1.072-1.172" transform="translate(-119.54 -141.797)" fill="#030506"/>
        <path id="Trazado_131512" data-name="Trazado 131512" d="M191,222.209a1.138,1.138,0,0,1-1.2,1.047,1.107,1.107,0,1,1,.118-2.211A1.135,1.135,0,0,1,191,222.209" transform="translate(-130.668 -153.038)" fill="#030606"/>
        <path id="Trazado_131513" data-name="Trazado 131513" d="M173.8,174.855a1.1,1.1,0,1,1,1.075-1.135,1.068,1.068,0,0,1-1.075,1.135" transform="translate(-119.542 -119.531)" fill="#010303"/>
        <path id="Trazado_131514" data-name="Trazado 131514" d="M108.213,84.354q4.644,4.617,9.292,9.231c.271.269.581.5.965.824-.5.454-.911.8-1.289,1.177q-7.512,7.5-15.016,15.007c-.179.178-.375.34-.563.509-.211-.184-.433-.356-.63-.553-2.517-2.512-4.983-5.077-7.568-7.518a2.812,2.812,0,0,1-.011-3.987c4.772-4.669,9.465-9.42,14.188-14.138.2-.2.421-.369.633-.552" transform="translate(-64.09 -58.402)" fill="#f9d955"/>
        <path id="Trazado_131515" data-name="Trazado 131515" d="M99.458,81.24c-.212.183-.435.355-.633.552C94.1,86.51,89.41,91.261,84.638,95.93a2.812,2.812,0,0,0,.011,3.987c2.584,2.44,5.05,5.006,7.568,7.518.2.2.42.369.63.553-.483.489-.914,1.287-1.463,1.377-.5.084-.96-.785-1.423-1.245-3.245-3.23-6.473-6.478-9.728-9.7-.395-.39-.426-.577-.011-.99q8.653-8.6,17.257-17.253c.4-.4.63-.464.988,0a14.47,14.47,0,0,0,.991,1.06" transform="translate(-55.335 -55.288)" fill="#f1ab41"/>
        <path id="Trazado_131516" data-name="Trazado 131516" d="M61.862,60.727a1.135,1.135,0,0,1-1.1,1.132A1.154,1.154,0,0,1,59.6,60.778,1.177,1.177,0,0,1,60.75,59.6a1.158,1.158,0,0,1,1.112,1.132" transform="translate(-41.263 -41.261)" fill="#030607"/>
        <path id="Trazado_131517" data-name="Trazado 131517" d="M94.177,60.7a1.156,1.156,0,0,1-1.089,1.154A1.138,1.138,0,0,1,91.914,60.8a1.157,1.157,0,0,1,1.113-1.206,1.185,1.185,0,0,1,1.15,1.108" transform="translate(-63.635 -41.26)" fill="#030607"/>
        <path id="Trazado_131518" data-name="Trazado 131518" d="M60.757,94.169a1.18,1.18,0,0,1-1.16-1.1,1.153,1.153,0,0,1,1.153-1.167,1.138,1.138,0,0,1,1.111,1.123,1.155,1.155,0,0,1-1.1,1.141" transform="translate(-41.261 -63.631)" fill="#030607"/>
        <path id="Trazado_131519" data-name="Trazado 131519" d="M44.593,43.5a1.157,1.157,0,0,1,1.169,1.074,1.18,1.18,0,0,1-1.143,1.191A1.16,1.16,0,0,1,43.5,44.641a1.142,1.142,0,0,1,1.1-1.14" transform="translate(-30.115 -30.118)" fill="#030607"/>
        <path id="Trazado_131520" data-name="Trazado 131520" d="M60.743,27.427a1.108,1.108,0,1,1-.01,2.215,1.108,1.108,0,1,1,.01-2.215" transform="translate(-41.264 -18.989)" fill="#030606"/>
        <path id="Trazado_131521" data-name="Trazado 131521" d="M77,43.5a1.1,1.1,0,0,1,1.046,1.186,1.108,1.108,0,1,1-2.212-.119A1.1,1.1,0,0,1,77,43.5" transform="translate(-52.505 -30.114)" fill="#030606"/>
        <path id="Trazado_131522" data-name="Trazado 131522" d="M44.647,75.829a1.108,1.108,0,1,1-.042,2.215,1.108,1.108,0,1,1,.042-2.215" transform="translate(-30.117 -52.5)" fill="#030606"/>
        <path id="Trazado_131523" data-name="Trazado 131523" d="M29.636,60.841a1.109,1.109,0,1,1-2.207-.206,1.109,1.109,0,1,1,2.207.206" transform="translate(-18.988 -41.265)" fill="#030606"/>
        <path id="Trazado_131524" data-name="Trazado 131524" d="M76.941,78.05a1.1,1.1,0,1,1,1.111-1.1,1.066,1.066,0,0,1-1.111,1.1" transform="translate(-52.509 -52.508)" fill="#010303"/>
      </g>
    </g>
  </g>
</svg>
