<svg xmlns="http://www.w3.org/2000/svg" width="315" height="251.3" viewBox="0 0 315 251.3">
  <g id="Grupo_86578" data-name="Grupo 86578" transform="translate(-1020 -1591.405)">
    <rect id="Rectángulo_36901" data-name="Rectángulo 36901" width="315" height="104" rx="10" transform="translate(1020 1723)" fill="#f3f1ff"/>
    <g id="Grupo_86577" data-name="Grupo 86577" transform="translate(1064.354 1591.405)">
      <g id="Grupo_82372" data-name="Grupo 82372" transform="translate(37.959 0)">
        <path id="Trazado_119616" data-name="Trazado 119616" d="M419.378,300.656c-16.368,13.144-72.705,20.653-72.705,20.653s-4.964-37.652,11.408-50.8,30.951-5.123,47.877,3.2S435.75,287.511,419.378,300.656Z" transform="translate(-268.645 -70.009)" fill="#92b4d1" opacity="0.2"/>
        <path id="Trazado_119617" data-name="Trazado 119617" d="M481.57,308.131c-27.4-15.5-54.182-41.945-76.637-75.637l-.3-.175c-22.454,7.765-49.239,3.277-76.637-12.86l-1.049-.614,1.48,51.19c5.2,79.357,32.265,113.9,75.828,187.673l1.057.614c43.563-23.475,70.628-26.764,75.828-100.116l1.48-49.486Z" transform="translate(-326.947 -207.068)" fill="#6ac9d6"/>
        <path id="Trazado_119618" data-name="Trazado 119618" d="M496.807,305.234c-27.4-15.5-54.187-41.941-76.641-75.633l-.3-.175c-22.45,7.765-49.239,3.277-76.637-12.86l-1.049-.618L327.019,227.9l.756.443c27.4,16.136,54.186,20.625,76.637,12.86l.3.175c22.454,33.692,49.239,60.134,76.641,75.637l1.045.59-1.48,49.487c-3.391,47.877-16.108,65.9-36.635,79.174,25.65-15.148,48.275-37.135,52.089-90.948l1.48-49.487Z" transform="translate(-326.726 -215.949)" fill="#8fd6e0"/>
        <path id="Trazado_119619" data-name="Trazado 119619" d="M439.495,295.665l-1.045-.594c-27.4-15.5-54.186-41.941-76.641-75.633l-.3-.175-15.453,11.774.3.175C368.81,264.9,395.594,291.347,423,306.85l1.045.589Z" transform="translate(-268.369 -205.786)" fill="#b5e4eb"/>
        <path id="Trazado_119620" data-name="Trazado 119620" d="M393.977,249.83l-1.48,49.487c-3.391,47.877-16.108,65.9-36.635,79.174,25.65-15.148,48.275-37.135,52.089-90.948l1.48-49.487Z" transform="translate(-238.305 -148.178)" fill="#45bbcc"/>
        <path id="Trazado_119621" data-name="Trazado 119621" d="M383.8,392.5c-31.26-51.849-46.982-77.93-50.771-134.836l-.866-29.874c20.068,9.074,39.31,11.969,56.642,8.517,17.332,23.463,36.57,42.786,56.638,56.886l-.862,28.874c-3.793,52.536-19.515,60.464-50.775,76.222q-2.457,1.238-5,2.529Q386.247,396.577,383.8,392.5Z" transform="translate(-310.966 -179.658)" fill="#2499aa"/>
        <path id="Trazado_119622" data-name="Trazado 119622" d="M396.36,396.026c-1.634.829-3.3,1.667-5,2.529q-2.555-4.238-5.009-8.314c-31.256-51.849-46.978-77.934-50.771-134.84l-.764-26.459c-.886-.378-1.769-.752-2.659-1.155l.866,29.874c3.789,56.906,19.511,82.987,50.771,134.836q2.452,4.074,5,8.318,2.549-1.293,5-2.529c12.754-6.432,22.918-11.558,30.744-18.942C417.1,385.561,407.772,390.277,396.36,396.026Z" transform="translate(-310.966 -179.658)" fill="#001a46"/>
        <path id="Trazado_119623" data-name="Trazado 119623" d="M481.778,307.424c-27.4-15.5-54.186-41.941-76.637-75.633l-.3-.175c-22.45,7.765-49.239,3.277-76.637-12.859l-1,1.057c27.349,16.067,54.085,20.531,76.5,12.778l.3.175c22.45,33.692,49.239,60.134,76.637,75.637l1.049.59L480.2,358.48c-2.817,39.729-12.051,58.9-26.841,71.864,15.457-12.977,25.093-32.1,27.984-72.839l1.476-49.487Z" transform="translate(-326.174 -207.341)" fill="#fff"/>
      </g>
      <g id="Grupo_82373" data-name="Grupo 82373" transform="translate(23.187 163.218)">
        <path id="Trazado_119624" data-name="Trazado 119624" d="M447.177,322.246l-29.155-16.781c-3.034-1.752-2.654-4.811.849-6.834h0c3.5-2.022,15.093-2.033,18.126-.283l25.848,14.916c4.657,2.749.046,6.52-3.833,8.491h0C455.511,323.778,450.211,324,447.177,322.246Z" transform="translate(-415.974 -247.099)" fill="#92b4d1" opacity="0.2"/>
        <path id="Trazado_119625" data-name="Trazado 119625" d="M458.461,292.168l-17.708-6.6-24.446-9.117v31.263a2.752,2.752,0,0,0,1.644,2.724l28.506,16.509c2.47,1.426,6.783,1.247,9.634-.4h0c1.508-.87,2.3-1.977,2.356-3.039l.014.006Z" transform="translate(-415.896 -252.266)" fill="#2ff980"/>
        <path id="Trazado_119626" data-name="Trazado 119626" d="M446.458,296.4,417.952,279.9c-2.469-1.426-2.16-3.917.692-5.562h0c2.851-1.647,7.166-1.826,9.634-.4l28.506,16.509c2.47,1.426,2.16,3.915-.692,5.562h0C453.24,297.651,448.927,297.83,446.458,296.4Z" transform="translate(-415.896 -253.137)" fill="#88ffb8"/>
        <path id="Trazado_119627" data-name="Trazado 119627" d="M456.091,294.744c-2.851,1.646-7.164,1.825-9.634.4l-28.506-16.509a2.945,2.945,0,0,1-1.649-2.2,2.762,2.762,0,0,0,1.649,2.685l28.506,16.509c2.47,1.424,6.783,1.247,9.634-.4,1.662-.959,2.454-2.2,2.342-3.359A4.193,4.193,0,0,1,456.091,294.744Z" transform="translate(-415.896 -252.271)" fill="#fff"/>
        <g id="Grupo_82347" data-name="Grupo 82347" transform="translate(6.394)">
          <path id="Trazado_119628" data-name="Trazado 119628" d="M438.99,258.723h0a11.941,11.941,0,0,0-17.9,10.347v12.952h0l0,.019c0,1.269,1.754,2.292,3.92,2.292s3.919-1.023,3.919-2.283c0-.015,0-.029,0-.045h.043V270.742a5.06,5.06,0,0,1,7.581-4.388h0a12.619,12.619,0,0,1,6.333,10.942v17.27h.041c.044,1.239,1.778,2.236,3.917,2.236s3.9-1.009,3.918-2.26h0V279.08A23.493,23.493,0,0,0,438.99,258.723Z" transform="translate(-421.087 -257.111)" fill="#084c94"/>
          <g id="Grupo_82345" data-name="Grupo 82345" transform="translate(16.941 7.226)">
            <path id="Trazado_119629" data-name="Trazado 119629" d="M435.364,263.255a6.988,6.988,0,0,0-.73-.366,13.759,13.759,0,0,1,6.071,11.387v20.265a4.754,4.754,0,0,0,1.531.561V275.142A13.751,13.751,0,0,0,435.364,263.255Z" transform="translate(-434.634 -262.889)" fill="#2672ab"/>
          </g>
          <g id="Grupo_82346" data-name="Grupo 82346" transform="translate(3.254 5.514)">
            <path id="Trazado_119630" data-name="Trazado 119630" d="M430.146,261.52a6.423,6.423,0,0,0-6.416,6.416v13.526l-.04,1.4a5.5,5.5,0,0,0,2.247-.269l.04-1.4V267.666a6.426,6.426,0,0,1,4.534-6.134C430.389,261.525,430.267,261.52,430.146,261.52Z" transform="translate(-423.689 -261.52)" fill="#03336e"/>
          </g>
          <path id="Trazado_119631" data-name="Trazado 119631" d="M434.378,259.582a12.405,12.405,0,0,1,5.83,1.462,22.149,22.149,0,0,0-2.161-1.423,10.44,10.44,0,0,0-5.27-1.432A10.635,10.635,0,0,0,422.165,268.8v.03A12.814,12.814,0,0,1,434.378,259.582Z" transform="translate(-420.817 -256.841)" fill="#2672ab"/>
          <path id="Trazado_119632" data-name="Trazado 119632" d="M442.393,277.749l0,15.155a4.841,4.841,0,0,0,1.962-.682,1.291,1.291,0,0,0,.135-.531V276.233C444.489,269.549,442.393,270.938,442.393,277.749Z" transform="translate(-415.75 -253.413)" fill="#03336e"/>
        </g>
        <path id="Trazado_119633" data-name="Trazado 119633" d="M434.932,297.577a8.514,8.514,0,0,0-3.864-6.667c-2.135-1.233-3.865-.246-3.865,2.2a8.408,8.408,0,0,0,1.955,4.981v7.758l3.822,2.207V300.3C434.145,300.211,434.932,299.228,434.932,297.577Z" transform="translate(-413.161 -248.776)" fill="#084c94"/>
        <path id="Trazado_119634" data-name="Trazado 119634" d="M429.824,305.558V297.8a8.4,8.4,0,0,1-1.955-4.981,2.758,2.758,0,0,1,1.014-2.4c-1.016.214-1.681,1.168-1.681,2.687a8.408,8.408,0,0,0,1.955,4.981v7.758l3.822,2.207v-.672Z" transform="translate(-413.161 -248.767)" fill="#001a46"/>
      </g>
      <g id="Grupo_82374" data-name="Grupo 82374" transform="translate(0 57.969)">
        <path id="Trazado_119642" data-name="Trazado 119642" d="M406.673,206.135l-37.767-21.21c-2.067-1.193-1.807-3.278.579-4.654h0c2.386-1.378,10.281-1.386,12.346-.193l35.515,19.938c3.173,1.872.033,4.442-2.61,5.784h0C412.349,207.178,408.74,207.328,406.673,206.135Z" transform="translate(-361.836 -142.904)" fill="#92b4d1" opacity="0.2"/>
        <path id="Trazado_119643" data-name="Trazado 119643" d="M408.9,214.247,367.27,190.176c-2.373-1.369-4.3-5.045-4.3-8.208v-27.2c0-3.164,1.923-4.618,4.3-3.248l41.627,24.07c2.372,1.371,4.3,5.046,4.3,8.21V211C413.193,214.163,411.269,215.618,408.9,214.247Z" transform="translate(-362.973 -149.97)" fill="#a8cff0"/>
        <path id="Trazado_119644" data-name="Trazado 119644" d="M408.966,191.956l-40.973-23.689a7.307,7.307,0,0,1-3.09-6.12v-7.07a.761.761,0,0,1,1.147-.655l.134.078,41.022,23.724c2.273,1.311,3.091,3.639,3.091,6.12V191.3a.822.822,0,0,1-1.229.713Z" transform="translate(-362.489 -149.14)" fill="#084c94"/>
        <path id="Trazado_119645" data-name="Trazado 119645" d="M408.966,206.34l-40.973-23.689a7.307,7.307,0,0,1-3.09-6.12v-7.07a.761.761,0,0,1,1.147-.655l.134.078,41.022,23.724c2.273,1.311,3.091,3.639,3.091,6.12v6.958a.822.822,0,0,1-1.229.713Z" transform="translate(-362.489 -145.537)" fill="#084c94"/>
        <path id="Trazado_119646" data-name="Trazado 119646" d="M409.754,191.451l-.1-.058L368.68,167.7a7.3,7.3,0,0,1-3.09-6.12v-7.069a.745.745,0,0,1,.026-.194.757.757,0,0,0-.713.755v7.07a7.307,7.307,0,0,0,3.09,6.12l40.973,23.689.1.058a.82.82,0,0,0,1.188-.465A.8.8,0,0,1,409.754,191.451Z" transform="translate(-362.489 -149.139)" fill="#001a46"/>
        <path id="Trazado_119647" data-name="Trazado 119647" d="M409.754,205.835l-.1-.057-40.975-23.69a7.3,7.3,0,0,1-3.09-6.12V168.9a.745.745,0,0,1,.026-.194.757.757,0,0,0-.713.755v7.07a7.307,7.307,0,0,0,3.09,6.12l40.973,23.689.1.058a.82.82,0,0,0,1.188-.465A.8.8,0,0,1,409.754,205.835Z" transform="translate(-362.489 -145.535)" fill="#001a46"/>
        <path id="Trazado_119648" data-name="Trazado 119648" d="M410.6,174.764l-41.627-24.071a2.908,2.908,0,0,0-2.515-.369c-.09.035-2.093,1.057-2.177,1.1l-.005,0a2.812,2.812,0,0,1,2.674.3l41.627,24.07c2.372,1.371,4.3,5.046,4.3,8.21v27.2c0,1.975-.75,3.283-1.89,3.654a.719.719,0,0,0,.376-.128c.054-.031,2.16-1.15,2.212-1.187a3.969,3.969,0,0,0,1.324-3.373v-27.2C414.892,179.808,412.968,176.133,410.6,174.764Z" transform="translate(-362.648 -150.177)" fill="#3f92d1"/>
        <path id="Trazado_119649" data-name="Trazado 119649" d="M410.6,174.764l-41.627-24.071a2.908,2.908,0,0,0-2.515-.369c-.09.035-2.093,1.057-2.177,1.1l-.005,0a2.812,2.812,0,0,1,2.674.3l41.627,24.07Z" transform="translate(-362.648 -150.177)" fill="#4f9fdb"/>
        <path id="Trazado_119650" data-name="Trazado 119650" d="M408.72,175.506l-41.629-24.071a2.85,2.85,0,0,0-2.587-.33,3.172,3.172,0,0,1,2.072.485L408.2,175.661c2.373,1.369,4.3,5.045,4.3,8.208v27.2c0,1.867-.673,3.131-1.708,3.579,1.326-.21,2.223-1.572,2.223-3.734v-27.2C413.016,180.552,411.092,176.876,408.72,175.506Z" transform="translate(-362.589 -149.99)" fill="#fff" style="mix-blend-mode: screen;isolation: isolate"/>
        <g id="Grupo_82352" data-name="Grupo 82352" transform="translate(9.578 31.006)">
          <path id="Trazado_119651" data-name="Trazado 119651" d="M392,189.218a5.706,5.706,0,0,0,2.59,4.468c1.432.827,2.591.165,2.591-1.477a5.706,5.706,0,0,0-2.591-4.468C393.163,186.916,392,187.577,392,189.218Z" transform="translate(-365.278 -171.861)" fill="#001a46"/>
          <path id="Trazado_119652" data-name="Trazado 119652" d="M386.661,186.115a5.711,5.711,0,0,0,2.591,4.468c1.431.825,2.59.164,2.59-1.477a5.706,5.706,0,0,0-2.59-4.468C387.821,183.812,386.661,184.473,386.661,186.115Z" transform="translate(-366.616 -172.639)" fill="#001a46"/>
          <path id="Trazado_119653" data-name="Trazado 119653" d="M381.318,183.011a5.709,5.709,0,0,0,2.591,4.468c1.431.825,2.59.165,2.59-1.477a5.706,5.706,0,0,0-2.59-4.468C382.478,180.708,381.318,181.369,381.318,183.011Z" transform="translate(-367.955 -173.416)" fill="#001a46"/>
          <path id="Trazado_119654" data-name="Trazado 119654" d="M375.975,179.907a5.707,5.707,0,0,0,2.591,4.468c1.431.827,2.59.165,2.59-1.477a5.708,5.708,0,0,0-2.59-4.468C377.135,177.6,375.975,178.266,375.975,179.907Z" transform="translate(-369.293 -174.194)" fill="#001a46"/>
          <path id="Trazado_119655" data-name="Trazado 119655" d="M370.632,176.8a5.711,5.711,0,0,0,2.591,4.468c1.431.825,2.59.164,2.59-1.477a5.706,5.706,0,0,0-2.59-4.468C371.792,174.5,370.632,175.162,370.632,176.8Z" transform="translate(-370.632 -174.971)" fill="#001a46"/>
        </g>
        <g id="Grupo_82353" data-name="Grupo 82353" transform="translate(8.776 31.059)">
          <path id="Trazado_119656" data-name="Trazado 119656" d="M391.363,189.261a5.706,5.706,0,0,0,2.59,4.468c1.431.827,2.591.165,2.591-1.477a5.709,5.709,0,0,0-2.591-4.468C392.522,186.959,391.363,187.619,391.363,189.261Z" transform="translate(-364.637 -171.904)" fill="#a8cff0"/>
          <path id="Trazado_119657" data-name="Trazado 119657" d="M386.02,186.157a5.706,5.706,0,0,0,2.59,4.468c1.432.827,2.591.165,2.591-1.477a5.708,5.708,0,0,0-2.591-4.468C387.179,183.855,386.02,184.516,386.02,186.157Z" transform="translate(-365.975 -172.681)" fill="#a8cff0"/>
          <path id="Trazado_119658" data-name="Trazado 119658" d="M380.677,183.054a5.706,5.706,0,0,0,2.591,4.468c1.431.825,2.59.164,2.59-1.477a5.706,5.706,0,0,0-2.59-4.468C381.836,180.751,380.677,181.412,380.677,183.054Z" transform="translate(-367.314 -173.459)" fill="#a8cff0"/>
          <path id="Trazado_119659" data-name="Trazado 119659" d="M375.334,179.95a5.709,5.709,0,0,0,2.591,4.468c1.431.827,2.59.165,2.59-1.477a5.708,5.708,0,0,0-2.59-4.468C376.495,177.647,375.334,178.308,375.334,179.95Z" transform="translate(-368.652 -174.236)" fill="#a8cff0"/>
          <path id="Trazado_119660" data-name="Trazado 119660" d="M369.991,176.846a5.707,5.707,0,0,0,2.591,4.468c1.431.827,2.59.165,2.59-1.477a5.71,5.71,0,0,0-2.59-4.468C371.151,174.544,369.991,175.205,369.991,176.846Z" transform="translate(-369.991 -175.014)" fill="#a8cff0"/>
        </g>
        <g id="Grupo_82354" data-name="Grupo 82354" transform="translate(9.578 12.567)">
          <path id="Trazado_119661" data-name="Trazado 119661" d="M392,174.473a5.706,5.706,0,0,0,2.59,4.468c1.432.827,2.591.165,2.591-1.477A5.706,5.706,0,0,0,394.594,173C393.163,172.171,392,172.831,392,174.473Z" transform="translate(-365.278 -157.116)" fill="#001a46"/>
          <path id="Trazado_119662" data-name="Trazado 119662" d="M386.661,171.37a5.707,5.707,0,0,0,2.591,4.467c1.431.827,2.59.165,2.59-1.477a5.71,5.71,0,0,0-2.59-4.468C387.821,169.067,386.661,169.728,386.661,171.37Z" transform="translate(-366.616 -157.894)" fill="#001a46"/>
          <path id="Trazado_119663" data-name="Trazado 119663" d="M381.318,168.266a5.709,5.709,0,0,0,2.591,4.468c1.431.825,2.59.165,2.59-1.477a5.706,5.706,0,0,0-2.59-4.468C382.478,165.963,381.318,166.624,381.318,168.266Z" transform="translate(-367.955 -158.671)" fill="#001a46"/>
          <path id="Trazado_119664" data-name="Trazado 119664" d="M375.975,165.162a5.707,5.707,0,0,0,2.591,4.468c1.431.827,2.59.165,2.59-1.477a5.708,5.708,0,0,0-2.59-4.468C377.135,162.86,375.975,163.52,375.975,165.162Z" transform="translate(-369.293 -159.449)" fill="#001a46"/>
          <path id="Trazado_119665" data-name="Trazado 119665" d="M370.632,162.059a5.711,5.711,0,0,0,2.591,4.468c1.431.825,2.59.164,2.59-1.478a5.706,5.706,0,0,0-2.59-4.467C371.792,159.756,370.632,160.417,370.632,162.059Z" transform="translate(-370.632 -160.226)" fill="#001a46"/>
        </g>
        <g id="Grupo_82355" data-name="Grupo 82355" transform="translate(8.776 12.62)">
          <path id="Trazado_119666" data-name="Trazado 119666" d="M391.363,174.516a5.708,5.708,0,0,0,2.59,4.468c1.431.825,2.591.165,2.591-1.477a5.708,5.708,0,0,0-2.591-4.468C392.522,172.213,391.363,172.874,391.363,174.516Z" transform="translate(-364.637 -157.159)" fill="#a8cff0"/>
          <path id="Trazado_119667" data-name="Trazado 119667" d="M386.02,171.412a5.706,5.706,0,0,0,2.59,4.468c1.432.827,2.591.165,2.591-1.477a5.706,5.706,0,0,0-2.591-4.468C387.179,169.11,386.02,169.77,386.02,171.412Z" transform="translate(-365.975 -157.936)" fill="#a8cff0"/>
          <path id="Trazado_119668" data-name="Trazado 119668" d="M380.677,168.309a5.708,5.708,0,0,0,2.591,4.468c1.431.825,2.59.164,2.59-1.477a5.706,5.706,0,0,0-2.59-4.468C381.836,166.006,380.677,166.667,380.677,168.309Z" transform="translate(-367.314 -158.714)" fill="#a8cff0"/>
          <path id="Trazado_119669" data-name="Trazado 119669" d="M375.334,165.205a5.709,5.709,0,0,0,2.591,4.468c1.431.825,2.59.165,2.59-1.477a5.706,5.706,0,0,0-2.59-4.468C376.495,162.9,375.334,163.563,375.334,165.205Z" transform="translate(-368.652 -159.491)" fill="#a8cff0"/>
          <path id="Trazado_119670" data-name="Trazado 119670" d="M369.991,162.1a5.707,5.707,0,0,0,2.591,4.468c1.431.827,2.59.165,2.59-1.477a5.708,5.708,0,0,0-2.59-4.468C371.151,159.8,369.991,160.46,369.991,162.1Z" transform="translate(-369.991 -160.269)" fill="#a8cff0"/>
        </g>
      </g>
      <g id="Grupo_82375" data-name="Grupo 82375" transform="translate(205.964 8.89)">
        <g id="Grupo_82357" data-name="Grupo 82357">
          <path id="Trazado_119671" data-name="Trazado 119671" d="M588.568,251.906,554.5,232.05c-2.372-1.369-4.3-5.045-4.3-8.21V179.394c0-3.164,1.923-4.618,4.3-3.248L588.568,196c2.374,1.371,4.3,5.046,4.3,8.21v44.446C592.865,251.822,590.942,253.276,588.568,251.906Z" transform="translate(-550.207 -174.598)" fill="#a8cff0"/>
          <path id="Trazado_119672" data-name="Trazado 119672" d="M588.639,248.6l-33.411-19.474a7.306,7.306,0,0,1-3.091-6.12V179.7a.762.762,0,0,1,1.148-.655l.134.077,33.46,19.508c2.273,1.311,3.09,3.639,3.09,6.121v43.183a.822.822,0,0,1-1.229.714Z" transform="translate(-549.724 -173.768)" fill="#084c94"/>
          <path id="Trazado_119673" data-name="Trazado 119673" d="M589.425,248.089l-.1-.058-33.411-19.473a7.307,7.307,0,0,1-3.09-6.12v-43.3a.744.744,0,0,1,.026-.194.758.758,0,0,0-.714.755V223a7.306,7.306,0,0,0,3.091,6.12l33.411,19.474.1.058a.822.822,0,0,0,1.189-.465A.8.8,0,0,1,589.425,248.089Z" transform="translate(-549.724 -173.767)" fill="#001a46"/>
          <path id="Trazado_119674" data-name="Trazado 119674" d="M590.266,195.176,556.2,175.32a2.909,2.909,0,0,0-2.515-.369c-.09.035-2.093,1.057-2.178,1.1l0,0a2.805,2.805,0,0,1,2.672.3l34.065,19.856c2.374,1.371,4.3,5.046,4.3,8.21v44.446c0,1.975-.749,3.283-1.89,3.655a.713.713,0,0,0,.377-.129c.054-.031,2.161-1.151,2.212-1.187a3.966,3.966,0,0,0,1.324-3.373V203.386C594.563,200.222,592.64,196.547,590.266,195.176Z" transform="translate(-549.882 -174.805)" fill="#3f92d1"/>
          <path id="Trazado_119675" data-name="Trazado 119675" d="M590.266,195.176,556.2,175.32a2.909,2.909,0,0,0-2.515-.369c-.09.035-2.093,1.057-2.178,1.1l0,0a2.805,2.805,0,0,1,2.672.3l34.065,19.856Z" transform="translate(-549.882 -174.805)" fill="#4f9fdb"/>
          <path id="Trazado_119676" data-name="Trazado 119676" d="M588.391,195.919l-34.065-19.857a2.85,2.85,0,0,0-2.587-.33,3.173,3.173,0,0,1,2.072.485l34.066,19.856c2.372,1.371,4.3,5.046,4.3,8.21v44.446c0,1.867-.673,3.131-1.709,3.579,1.326-.21,2.225-1.572,2.225-3.733V204.128C592.688,200.964,590.764,197.289,588.391,195.919Z" transform="translate(-549.823 -174.618)" fill="#fff" style="mix-blend-mode: screen;isolation: isolate"/>
        </g>
        <g id="Grupo_82358" data-name="Grupo 82358" transform="translate(20.938 36.216)">
          <path id="Trazado_119677" data-name="Trazado 119677" d="M567.7,218.387a.833.833,0,0,1-.166-.017.751.751,0,0,1-.567-.9,57.725,57.725,0,0,0,1.321-12.657v-.3a.75.75,0,0,1,1.5,0v.3a59.252,59.252,0,0,1-1.358,12.987A.751.751,0,0,1,567.7,218.387Z" transform="translate(-566.95 -203.766)" fill="#a8cff0"/>
        </g>
        <g id="Grupo_82359" data-name="Grupo 82359" transform="translate(15.587 31.114)">
          <path id="Trazado_119678" data-name="Trazado 119678" d="M563.423,224.481a.719.719,0,0,1-.176-.022.75.75,0,0,1-.554-.905,100.016,100.016,0,0,0,2.232-20.576,3.89,3.89,0,0,1,1.254-3.124.75.75,0,1,1,.942,1.167,2.462,2.462,0,0,0-.7,1.957,101.649,101.649,0,0,1-2.273,20.93A.75.75,0,0,1,563.423,224.481Z" transform="translate(-562.671 -199.686)" fill="#a8cff0"/>
        </g>
        <g id="Grupo_82360" data-name="Grupo 82360" transform="translate(22.084 31.234)">
          <path id="Trazado_119679" data-name="Trazado 119679" d="M572.862,208.6a.749.749,0,0,1-.749-.75,8.668,8.668,0,0,0-3.87-6.672.75.75,0,1,1,.75-1.3,10.04,10.04,0,0,1,4.619,7.971A.75.75,0,0,1,572.862,208.6Z" transform="translate(-567.867 -199.782)" fill="#a8cff0"/>
        </g>
        <g id="Grupo_82361" data-name="Grupo 82361" transform="translate(23.266 44.643)">
          <path id="Trazado_119680" data-name="Trazado 119680" d="M569.564,227.339a.736.736,0,0,1-.171-.02.75.75,0,0,1-.56-.9,148.806,148.806,0,0,0,2.641-15.25.75.75,0,0,1,1.491.171,150.64,150.64,0,0,1-2.671,15.418A.748.748,0,0,1,569.564,227.339Z" transform="translate(-568.812 -210.504)" fill="#a8cff0"/>
        </g>
        <g id="Grupo_82362" data-name="Grupo 82362" transform="translate(8.128 20.233)">
          <path id="Trazado_119681" data-name="Trazado 119681" d="M581.594,233.647a.741.741,0,0,1-.193-.025.751.751,0,0,1-.533-.918,69.01,69.01,0,0,0,2.142-17.669v-.3c0-7.573-5.371-16.837-11.973-20.649-3.071-1.774-5.915-2.083-8.008-.875-2.073,1.2-3.215,3.777-3.215,7.266a72.76,72.76,0,0,1-1.624,15.738.751.751,0,1,1-1.466-.325,71.267,71.267,0,0,0,1.591-15.413c0-4.048,1.407-7.089,3.964-8.565,2.573-1.489,5.952-1.178,9.509.875,7.015,4.05,12.722,13.9,12.722,21.948v.3a70.482,70.482,0,0,1-2.191,18.054A.75.75,0,0,1,581.594,233.647Z" transform="translate(-556.707 -190.985)" fill="#a8cff0"/>
        </g>
        <g id="Grupo_82363" data-name="Grupo 82363" transform="translate(11.607 42.636)">
          <path id="Trazado_119682" data-name="Trazado 119682" d="M560.239,217.593a.75.75,0,0,1-.727-.938,65.221,65.221,0,0,0,1.4-7.112.764.764,0,0,1,.848-.638.749.749,0,0,1,.636.848,66.7,66.7,0,0,1-1.432,7.276A.751.751,0,0,1,560.239,217.593Z" transform="translate(-559.489 -208.899)" fill="#a8cff0"/>
        </g>
        <g id="Grupo_82364" data-name="Grupo 82364" transform="translate(13.297 27.203)">
          <path id="Trazado_119683" data-name="Trazado 119683" d="M561.591,211.317a.632.632,0,0,1-.084-.005.75.75,0,0,1-.663-.828,82.3,82.3,0,0,0,.485-9.063,7.81,7.81,0,0,1,1.248-4.547.751.751,0,0,1,1.224.869,6.34,6.34,0,0,0-.972,3.678,84.025,84.025,0,0,1-.494,9.228A.751.751,0,0,1,561.591,211.317Z" transform="translate(-560.84 -196.558)" fill="#a8cff0"/>
        </g>
        <g id="Grupo_82365" data-name="Grupo 82365" transform="translate(17.208 25.449)">
          <path id="Trazado_119684" data-name="Trazado 119684" d="M576.742,206.612a.752.752,0,0,1-.7-.474,17.438,17.438,0,0,0-6.825-8.446,5.868,5.868,0,0,0-4.312-.917.751.751,0,1,1-.376-1.453,7.31,7.31,0,0,1,5.439,1.07,18.73,18.73,0,0,1,7.469,9.191.752.752,0,0,1-.7,1.028Z" transform="translate(-563.968 -195.155)" fill="#a8cff0"/>
        </g>
        <g id="Grupo_82366" data-name="Grupo 82366" transform="translate(27.316 40.896)">
          <path id="Trazado_119685" data-name="Trazado 119685" d="M572.8,229.477a.743.743,0,0,1-.236-.039.751.751,0,0,1-.475-.949l.166-.5a61.856,61.856,0,0,0,2.86-19.434v-.3a.75.75,0,1,1,1.5,0v.3a63.371,63.371,0,0,1-2.935,19.907l-.166.5A.753.753,0,0,1,572.8,229.477Z" transform="translate(-572.05 -207.508)" fill="#a8cff0"/>
        </g>
      </g>
    </g>
  </g>
</svg>
