<svg xmlns="http://www.w3.org/2000/svg" xmlns:xlink="http://www.w3.org/1999/xlink" width="81.311" height="81.311" viewBox="0 0 81.311 81.311">
  <defs>
    <clipPath id="clip-path">
      <rect id="Rect치ngulo_36624" data-name="Rect치ngulo 36624" width="81.311" height="81.311" fill="#fff" stroke="#707070" stroke-width="1"/>
    </clipPath>
    <clipPath id="clip-path-2">
      <rect id="Rect치ngulo_36879" data-name="Rect치ngulo 36879" width="60.433" height="66.168" fill="none"/>
    </clipPath>
  </defs>
  <g id="Grupo_85834" data-name="Grupo 85834" clip-path="url(#clip-path)">
    <g id="Grupo_86500" data-name="Grupo 86500" transform="translate(10.439 7.572)">
      <g id="Grupo_86495" data-name="Grupo 86495" transform="translate(0 -0.001)" clip-path="url(#clip-path-2)">
        <path id="Trazado_130174" data-name="Trazado 130174" d="M3.917,20.822q.007-.941.013-1.883c.717-.2.933-.678.926-1.4-.029-3.121,0-6.242-.027-9.363-.006-.592.151-.736.739-.735q19.856.026,39.713.015c.215,0,.429.013.644.02q0,5.578.007,11.156c0,.244-.1.524.151.72l-3.808,6.72c-.17-.226-.3-.4-.425-.563-4.784-6.168-11.075-8.763-18.711-7.247A17.49,17.49,0,0,0,9.193,30.842a17.6,17.6,0,0,0,4.178,18.2A17.8,17.8,0,0,0,29.01,54.756a1.876,1.876,0,0,1,1.609.511c1.813,1.623,3.645,3.226,5.51,4.789a4.327,4.327,0,1,0,5.226-6.878c-.844-.594-1.692-1.187-2.566-1.736-.472-.3-.584-.436-.066-.865a18.184,18.184,0,0,0,6.029-9.412c.248-.908.241-.91,1.172-.855q0,14.7,0,29.408a1.849,1.849,0,0,1-.192.019q-20.182,0-40.365.014c-.511,0-.532-.214-.531-.61.011-3.53.006-7.061.006-10.591q0-18.179,0-36.359c0-.944-.133-1.137-.926-1.369m22.9,44.816q4,0,8.009,0a4.045,4.045,0,0,0,.644-.022.863.863,0,0,0,.778-.818.9.9,0,0,0-.612-1.017,2.145,2.145,0,0,0-.829-.084H18.917c-.129,0-.259,0-.388,0-.686.032-1.132.426-1.128.991s.442.945,1.146.947q4.134.009,8.268,0m.051-51.86h7.945c.172,0,.346.01.516-.007a.965.965,0,0,0-.057-1.93c-.108-.006-.215,0-.323,0H18.736a3.408,3.408,0,0,0-.452.008.962.962,0,0,0-.07,1.906,2.778,2.778,0,0,0,.579.024q4.037,0,8.074,0m18.284-1a1.032,1.032,0,0,0-1.044-1,1.051,1.051,0,0,0-1.012,1.044,1.026,1.026,0,0,0,1.051.992,1,1,0,0,0,1-1.031M9.061,13.814a1,1,0,0,0,.988-1.043,1.016,1.016,0,1,0-2.031.06.989.989,0,0,0,1.043.983m.988,50.593a1.016,1.016,0,0,0-2.032-.04,1.012,1.012,0,0,0,.993,1.045,1.023,1.023,0,0,0,1.038-1.005m35.1,0a1,1,0,0,0-1-1.032,1.024,1.024,0,0,0-1.053.99,1.049,1.049,0,0,0,1.011,1.044,1.031,1.031,0,0,0,1.045-1" transform="translate(-2.902 -5.511)" fill="#b3acb5"/>
        <path id="Trazado_130175" data-name="Trazado 130175" d="M43.022,1.961c-.215-.007-.429-.02-.644-.02q-19.856,0-39.713-.015c-.587,0-.744.143-.739.736.031,3.12,0,6.242.027,9.362.007.726-.209,1.2-.926,1.4C.162,13.154,0,12.944,0,12.047Q0,7.169,0,2.291A2.041,2.041,0,0,1,2.256,0Q23.935,0,45.614,0a2.013,2.013,0,0,1,2.248,2.223q.015,3.909,0,7.818a.809.809,0,0,0,.37.813,2.46,2.46,0,0,1,.764.942q5.492,9.52,10.988,19.037a2.488,2.488,0,0,1-2.3,3.94c-3.015,0-6.031.018-9.046-.014-.6-.006-.787.108-.785.755.027,6.806.018,13.612.016,20.418,0,.935-.153,1.146-.945,1.352-.816-.18-1-.424-1-1.373q0-8.1,0-16.192c0-1.484-.006-2.967,0-4.451,0-.332-.052-.518-.451-.5-.816.033-1.633.024-2.449.031-.931-.055-.923-.053-1.172.855a18.184,18.184,0,0,1-6.029,9.412c-.517.429-.405.568.066.865.874.55,1.722,1.142,2.566,1.736a4.327,4.327,0,1,1-5.226,6.878c-1.865-1.563-3.7-3.165-5.51-4.788a1.876,1.876,0,0,0-1.609-.512,17.8,17.8,0,0,1-15.639-5.713,17.6,17.6,0,0,1-4.178-18.2A17.49,17.49,0,0,1,20.236,12.748c7.636-1.516,13.927,1.079,18.711,7.247.129.167.254.337.425.563l3.808-6.72c.29-.473.59-.94.868-1.421a3.769,3.769,0,0,1,1.661-1.9c.235-.1.207-.3.207-.489,0-2.556-.005-5.113.006-7.67,0-.349-.128-.437-.453-.428-.815.024-1.632.019-2.448.026M34.76,53.245a2.371,2.371,0,0,0,2.724-3.879c-1.148-.834-2.34-1.607-3.515-2.4q-4.672-3.17-9.346-6.337a1.474,1.474,0,1,0-1.829,2.307q3.843,3.349,7.7,6.68c1.416,1.218,2.771,2.507,4.265,3.632m20.8-20.435c.667.008,1.333.023,2,.024.988,0,1.168-.306.676-1.16q-2.7-4.691-5.415-9.38-2.742-4.745-5.487-9.487c-.435-.75-.819-.757-1.249-.026-.271.463-.524.936-.785,1.4-.062.087-.131.17-.184.261q-4.979,8.621-9.955,17.244c-.486.842-.3,1.144.7,1.144q6.781,0,13.562,0c2.044,0,4.089-.015,6.133-.024M37.076,34.8c-.58-.008-1.161-.013-1.742-.025a2.332,2.332,0,0,1-1.664-.739,2.44,2.44,0,0,1-.316-3.085c1.107-1.962,2.228-3.915,3.344-5.872.438-.734.856-1.482,1.323-2.2a.677.677,0,0,0-.038-.855,16.41,16.41,0,0,0-3.941-4.3,15.661,15.661,0,0,0-6.915-3.1,15.416,15.416,0,0,0-5.643-.163,16.583,16.583,0,0,0-2.567,32.214,15.431,15.431,0,0,0,5.952.737c-.013-.071-.009-.1-.02-.1-1.152-1-2.315-2-3.453-3.015a3.254,3.254,0,0,1-1.025-3.566,3.372,3.372,0,0,1,5.165-1.814c2.257,1.495,4.5,3.016,6.744,4.526.347.249.7.489,1.037.752a.392.392,0,0,0,.562-.028,16.568,16.568,0,0,0,6.1-9.006c.1-.372-.034-.385-.321-.38-.859.017-1.719.018-2.578.025" transform="translate(0 0)" fill="#030303"/>
        <path id="Trazado_130176" data-name="Trazado 130176" d="M1.018,59.108c.793.232.926.424.926,1.369q0,18.179,0,36.359c0,3.53,0,7.061-.007,10.591,0,.4.02.611.531.611q20.182-.023,40.365-.014c.064,0,.128-.012.192-.019.793.007,1.588-.012,2.38.031.452.024.532-.16.523-.556-.022-1.051-.012-2.1-.006-3.154.005-.87.167-1.082.985-1.343a1.119,1.119,0,0,1,.967,1.3c-.025,1.163,0,2.326-.009,3.489a2.009,2.009,0,0,1-2.214,2.194q-21.712,0-43.424,0a2.026,2.026,0,0,1-2.221-2.195q0-23.681,0-47.363c0-.862.207-1.12,1.013-1.3" transform="translate(-0.003 -43.797)" fill="#020202"/>
        <path id="Trazado_130177" data-name="Trazado 130177" d="M169.962,158.633c-.817.261-.979.474-.985,1.343-.006,1.051-.016,2.1.006,3.154.008.4-.071.58-.523.556-.791-.043-1.586-.024-2.38-.031q0-14.7,0-29.408c.816-.008,1.634,0,2.449-.032.4-.016.454.17.451.5-.011,1.484,0,2.967,0,4.451q0,8.1,0,16.192c0,.949.184,1.194,1,1.373q-.007.95-.014,1.9" transform="translate(-123.059 -99.448)" fill="#a29ca5"/>
        <path id="Trazado_130178" data-name="Trazado 130178" d="M65.389,226.556q-4.134,0-8.268,0c-.7,0-1.142-.377-1.146-.947s.441-.958,1.128-.991c.129-.006.258,0,.388,0H73.38a2.15,2.15,0,0,1,.829.084.9.9,0,0,1,.612,1.017.863.863,0,0,1-.779.817,4.038,4.038,0,0,1-.644.023q-4,0-8.009,0" transform="translate(-41.475 -166.429)" fill="#040404"/>
        <path id="Trazado_130179" data-name="Trazado 130179" d="M65.473,26.359q-4.037,0-8.074,0a2.779,2.779,0,0,1-.579-.024.962.962,0,0,1,.07-1.906,3.362,3.362,0,0,1,.451-.008H73.555c.108,0,.216,0,.323,0a.965.965,0,0,1,.057,1.93c-.171.017-.344.007-.517.007H65.473" transform="translate(-41.509 -18.092)" fill="#010101"/>
        <path id="Trazado_130180" data-name="Trazado 130180" d="M166.046,7.494c.816-.007,1.632,0,2.448-.026.324-.009.455.079.453.428-.012,2.556-.006,5.113-.007,7.67,0,.191.028.39-.207.489a3.768,3.768,0,0,0-1.661,1.9c-.278.48-.578.947-.868,1.42-.254-.2-.15-.476-.151-.72q-.011-5.578-.007-11.156" transform="translate(-123.024 -5.532)" fill="#a29ca5"/>
        <path id="Trazado_130181" data-name="Trazado 130181" d="M157.215,25.2a1,1,0,0,1-1,1.031,1.026,1.026,0,0,1-1.051-.992,1.051,1.051,0,0,1,1.012-1.044,1.033,1.033,0,0,1,1.044,1" transform="translate(-114.967 -17.925)" fill="#040404"/>
        <path id="Trazado_130182" data-name="Trazado 130182" d="M20.792,26.227a.989.989,0,0,1-1.043-.983,1.016,1.016,0,1,1,2.03-.06,1,1,0,0,1-.988,1.043" transform="translate(-14.633 -17.923)" fill="#040404"/>
        <path id="Trazado_130183" data-name="Trazado 130183" d="M21.778,224.413a1.023,1.023,0,0,1-1.038,1.005,1.012,1.012,0,0,1-.993-1.045,1.016,1.016,0,0,1,2.032.04" transform="translate(-14.631 -165.517)" fill="#040404"/>
        <path id="Trazado_130184" data-name="Trazado 130184" d="M157.215,224.417a1.031,1.031,0,0,1-1.045,1,1.049,1.049,0,0,1-1.011-1.044,1.024,1.024,0,0,1,1.053-.99,1,1,0,0,1,1,1.032" transform="translate(-114.967 -165.52)" fill="#040404"/>
        <path id="Trazado_130185" data-name="Trazado 130185" d="M57.711,65.9c-1.115,1.957-2.237,3.911-3.344,5.872a2.441,2.441,0,0,0,.317,3.086,2.33,2.33,0,0,0,1.664.739c.581.012,1.161.017,1.742.026a5.692,5.692,0,0,1-.071.633,15.4,15.4,0,0,1-1.758,4.259,14,14,0,0,1-2.969,3.745c-2.247-1.51-4.487-3.031-6.743-4.526a3.373,3.373,0,0,0-5.166,1.814,3.254,3.254,0,0,0,1.025,3.566c1.138,1.02,2.3,2.01,3.453,3.015.01.009.007.034.019.1a15.431,15.431,0,0,1-5.952-.738A16.583,16.583,0,0,1,42.5,55.286a15.41,15.41,0,0,1,5.643.163c.011.235.218.229.365.3a18.036,18.036,0,0,1,7.128,6.119,21.523,21.523,0,0,1,2.08,4.036m-7.7,5.771a5.063,5.063,0,1,0-10.126.069,5.063,5.063,0,0,0,10.126-.069" transform="translate(-21.013 -40.83)" fill="#e0dee2"/>
        <path id="Trazado_130186" data-name="Trazado 130186" d="M155.4,73.386c-2.044.008-4.089.022-6.133.024q-6.781.005-13.562,0c-1,0-1.188-.3-.7-1.144q4.975-8.623,9.955-17.244c.053-.092.122-.174.183-.261a.979.979,0,0,1,.179.179q2.181,3.76,4.356,7.525L154.8,71.33a3.02,3.02,0,0,1,.6,2.056m-7.884-10.981c0-.773.013-1.546,0-2.318a.969.969,0,1,0-1.931.024q-.016,2.254,0,4.507a.956.956,0,0,0,.943,1.071c.591.011.979-.407.99-1.1.012-.729,0-1.459,0-2.189m-.977,7.676a1.019,1.019,0,0,0,.008-2.037,1.018,1.018,0,0,0-1.026,1.018,1.007,1.007,0,0,0,1.018,1.019" transform="translate(-99.84 -40.577)" fill="#f6edb6"/>
        <path id="Trazado_130187" data-name="Trazado 130187" d="M185.134,67.816a3.02,3.02,0,0,0-.6-2.056L179.411,56.9q-2.176-3.763-4.356-7.525a.979.979,0,0,0-.179-.179c.261-.469.514-.942.785-1.4.429-.731.814-.724,1.249.026q2.747,4.741,5.486,9.487,2.709,4.689,5.415,9.38c.492.853.311,1.162-.677,1.16-.667,0-1.334-.016-2-.024" transform="translate(-129.577 -35.006)" fill="#f3e48f"/>
        <path id="Trazado_130188" data-name="Trazado 130188" d="M98.115,169.678c-1.494-1.126-2.849-2.415-4.265-3.632q-3.865-3.324-7.7-6.68a1.424,1.424,0,0,1-.2-2.229c.82.545,1.646,1.083,2.46,1.636,2.942,2,5.872,4.015,8.825,6a4.116,4.116,0,0,1,1.288,1.4c.645,1.116.389,2.95-.411,3.507" transform="translate(-63.354 -116.432)" fill="#f5ecb5"/>
        <path id="Trazado_130189" data-name="Trazado 130189" d="M99.4,168.36c.8-.557,1.056-2.39.411-3.507a4.116,4.116,0,0,0-1.288-1.4c-2.953-1.982-5.884-4-8.825-6-.814-.554-1.64-1.091-2.46-1.636a1.427,1.427,0,0,1,2.026-.078q4.675,3.165,9.346,6.337c1.175.8,2.367,1.57,3.515,2.4a2.371,2.371,0,0,1-2.724,3.88" transform="translate(-64.638 -115.115)" fill="#f2e38e"/>
        <path id="Trazado_130190" data-name="Trazado 130190" d="M124.61,142.89a13.986,13.986,0,0,0,2.969-3.745,15.4,15.4,0,0,0,1.759-4.258,5.625,5.625,0,0,0,.071-.633c.859-.007,1.719-.008,2.578-.025.287-.005.423.008.321.38a16.568,16.568,0,0,1-6.1,9.006.392.392,0,0,1-.562.028c-.336-.264-.691-.5-1.037-.753" transform="translate(-92.332 -99.458)" fill="#d0ccd2"/>
        <path id="Trazado_130191" data-name="Trazado 130191" d="M114.293,66.891a21.519,21.519,0,0,0-2.079-4.036,18.039,18.039,0,0,0-7.128-6.119c-.147-.071-.354-.065-.365-.3a15.66,15.66,0,0,1,6.915,3.1,16.418,16.418,0,0,1,3.941,4.3.677.677,0,0,1,.038.855c-.467.715-.885,1.463-1.323,2.2" transform="translate(-77.594 -41.817)" fill="#d0ccd2"/>
        <path id="Trazado_130192" data-name="Trazado 130192" d="M82.97,104.685a5.063,5.063,0,1,1-5.061-5.03,5.073,5.073,0,0,1,5.061,5.03m-5.878-2.943a3.02,3.02,0,0,0-2.3,2.757,3.113,3.113,0,0,0,2.155,3.151c.143.044.284.1.429.129a3.123,3.123,0,0,0,2.987-5.009,2.982,2.982,0,0,0-3.269-1.029" transform="translate(-53.974 -73.841)" fill="#030303"/>
        <path id="Trazado_130193" data-name="Trazado 130193" d="M178.486,74.669c0,.73.009,1.46,0,2.189-.011.689-.4,1.106-.99,1.1a.956.956,0,0,1-.943-1.071q-.014-2.254,0-4.507a.969.969,0,1,1,1.931-.024c.017.772,0,1.545,0,2.318" transform="translate(-130.812 -52.839)" fill="#020202"/>
        <path id="Trazado_130194" data-name="Trazado 130194" d="M177.361,108.076a1.007,1.007,0,0,1-1.018-1.019,1.018,1.018,0,0,1,1.026-1.018,1.019,1.019,0,0,1-.008,2.037" transform="translate(-130.664 -78.571)" fill="#040404"/>
        <path id="Trazado_130195" data-name="Trazado 130195" d="M88.824,107.3a2.982,2.982,0,0,1,3.269,1.029,3.123,3.123,0,0,1-2.987,5.009c-.146-.029-.286-.085-.429-.129a1.7,1.7,0,0,1,.161-.273,4.027,4.027,0,0,0,.913-3.692c-.155-.743-.732-1.244-.927-1.944" transform="translate(-65.706 -79.399)" fill="#b2abb4"/>
        <path id="Trazado_130196" data-name="Trazado 130196" d="M82.634,107.71c.194.7.772,1.2.927,1.944a4.027,4.027,0,0,1-.913,3.692,1.7,1.7,0,0,0-.161.273,3.113,3.113,0,0,1-2.155-3.151,3.02,3.02,0,0,1,2.3-2.757" transform="translate(-59.517 -79.809)" fill="#c1bcc2"/>
      </g>
    </g>
  </g>
</svg>
