<svg xmlns="http://www.w3.org/2000/svg" width="90.997" height="90.997" viewBox="0 0 90.997 90.997">
  <g id="Grupo_86763" data-name="Grupo 86763" transform="translate(-0.278 -0.277)">
    <circle id="Elipse_5411" data-name="Elipse 5411" cx="45.498" cy="45.498" r="45.498" transform="translate(0.278 0.277)" fill="#2ff980"/>
    <g id="Grupo_86512" data-name="Grupo 86512" transform="translate(-5236.443 8335.986)">
      <path id="Trazado_130318" data-name="Trazado 130318" d="M5.265,59.492q0-11.033.013-22.065a1.148,1.148,0,0,0-.641-1.161c-.948-.539-1.866-1.132-2.781-1.726a3.657,3.657,0,0,1,0-6.366c3.038-1.934,6.107-3.82,9.152-5.742a1.89,1.89,0,0,1,1.08-.27c3.663.007,7.327-.005,10.99.015a1.251,1.251,0,0,0,1.09-.521A19.565,19.565,0,0,1,39.188,14.3a23.647,23.647,0,0,1,10.055,1.42,19.81,19.81,0,0,1,7.94,5.886,1.4,1.4,0,0,0,1.232.573q8-.025,15.994-.01a6.554,6.554,0,0,1,6.966,6.984,34.128,34.128,0,0,1-.14,6.056,6.191,6.191,0,0,1-4.433,5,.813.813,0,0,0-.679.951q.024,19.933.01,39.865a6.532,6.532,0,0,1-5.633,6.7,8.464,8.464,0,0,1-1.389.074c-5.276,0-10.553.017-15.829-.014-.664,0-.807.192-.784.81.047,1.256.05,2.517,0,3.772-.025.6.175.716.729.7,1.311-.042,2.624,0,3.936-.023.43-.008.608.06.615.561.028,2.074.048,2.074-2.044,2.074-10.389,0-20.778-.012-31.167.022-.823,0-.974-.228-.946-.986.062-1.66.019-1.662,1.641-1.662.957,0,1.915-.035,2.87.013.579.029.81-.081.776-.735-.063-1.227-.058-2.462,0-3.69.03-.659-.113-.861-.823-.856-5.276.036-10.553.021-15.829.018a6.577,6.577,0,0,1-6.986-6.974q0-10.664,0-21.327M40.671,74.667q13.41,0,26.821.006c.47,0,.787.04.786-.643q-.037-16.447-.009-32.894c0-.443-.09-.611-.575-.605-2.187.026-4.374.016-6.562.006-.33,0-.534.053-.666.415a20.183,20.183,0,0,1-7.006,9.283,9.152,9.152,0,0,0-3.369,5.375,1,1,0,0,0,.516,1.314,3.842,3.842,0,0,1-.155,6.72,1.276,1.276,0,0,0-.769,1.013,9.161,9.161,0,0,1-17.963.06,1.372,1.372,0,0,0-.791-1.089,3.831,3.831,0,0,1-.19-6.672,1.083,1.083,0,0,0,.539-1.447,9.447,9.447,0,0,0-3.548-5.449,19.677,19.677,0,0,1-6.775-9.054c-.16-.443-.415-.473-.8-.47-2.078.012-4.156.032-6.233-.01-.637-.013-.8.151-.8.8q.033,16.283,0,32.566c0,.658.183.793.809.792q13.369-.031,26.739-.014M7.891,38.321v.947q0,20.75,0,41.5c0,2.832,1.576,4.4,4.423,4.4H69.062c2.893,0,4.447-1.558,4.447-4.458q0-19.192,0-38.383c0-1.786,0-1.748-1.751-1.8-.707-.022-.894.143-.892.878q.042,16.362.019,32.724c0,2.193-.962,3.168-3.128,3.168H13.633c-2.135,0-3.118-.976-3.118-3.094q0-11.359,0-22.718,0-5.454,0-10.908c0-.322.045-.625-.331-.836-.734-.412-1.436-.881-2.294-1.415M33.617,23.949c-.243.03-.365.227-.515.376-.969.964-1.885,1.988-2.916,2.878-.748.646-.957,1.221-.329,2.035a1.26,1.26,0,0,1,.08,1.277,1.98,1.98,0,0,1-1.729,1.569c-.556.074-.655.406-.643.918.034,1.42.059,2.844-.007,4.262-.036.78.168,1.2.972,1.35.362.069.814.092,1.027.556.414.9.839,1.776.042,2.7-.315.365-.235.687.139,1.043q1.694,1.609,3.3,3.3c.37.39.684.466,1.112.165a2.075,2.075,0,0,1,2.179-.183c.839.332.979.947,1.158,1.606a.723.723,0,0,0,.859.621c1.53-.034,3.062-.046,4.59,0a.869.869,0,0,0,1.024-.751c.126-.441.1-.99.637-1.25.9-.433,1.781-.816,2.7-.029.385.33.7.2,1.039-.164.92-.972,1.885-1.9,2.832-2.849.926-.926.919-.923.359-2.081-.133-.275-.346-.506-.2-.9.35-.946.7-1.835,1.9-1.93.531-.042.613-.382.6-.856-.026-1.53-.041-3.062.006-4.591.018-.567-.138-.877-.7-.965a2.059,2.059,0,0,1-1.655-1.439,1.86,1.86,0,0,1,.31-1.874.773.773,0,0,0-.164-1.118c-1.093-1.031-2.16-2.092-3.187-3.189a.9.9,0,0,0-1.316-.206c-.387.222-.759.61-1.333.405-.954-.339-1.823-.714-1.92-1.907-.038-.47-.318-.6-.785-.587-1.584.032-3.171.036-4.755,0a.746.746,0,0,0-.855.634c-.154.468-.106,1.079-.648,1.342-.879.426-1.771.89-2.7.069a2.089,2.089,0,0,0-.52-.248M44.865,56.293c.768,0,1.4-.013,2.021.006.333.01.478-.094.528-.445A12.353,12.353,0,0,1,52.4,47.7a17.185,17.185,0,0,0-2.55-28.827c-3.926-2.064-8.117-2.269-12.372-1.8A17.184,17.184,0,0,0,23.411,40.145a17.96,17.96,0,0,0,6.14,8.017,11.561,11.561,0,0,1,4.234,6.546c.409,1.618.391,1.595,2.106,1.6.548,0,.632-.158.545-.647-.31-1.747-.57-3.5-.885-5.25-.295-1.638-.329-1.661-1.79-.878a.918.918,0,0,1-1.31-.2q-2.826-2.915-5.739-5.744a.954.954,0,0,1-.247-1.367c.715-1.3.69-1.361-.727-1.771-.644-.186-.813-.476-.8-1.129q.064-4.06,0-8.121a.9.9,0,0,1,.787-1.054c1.431-.423,1.442-.472.721-1.841a.878.878,0,0,1,.193-1.24q2.912-2.829,5.744-5.74a1.007,1.007,0,0,1,1.436-.251c1.254.7,1.325.675,1.713-.715.194-.693.527-.842,1.191-.832,2.706.037,5.414.03,8.12,0,.536-.005.807.1.976.669.462,1.544.507,1.555,1.914.818A.825.825,0,0,1,48.9,21.2q2.857,2.942,5.8,5.8a.957.957,0,0,1,.229,1.372c-.7,1.289-.679,1.341.747,1.759a.907.907,0,0,1,.79,1.059q-.061,4.1,0,8.2a.906.906,0,0,1-.8,1.05c-1.423.423-1.444.475-.741,1.767a.955.955,0,0,1-.229,1.372c-1.716,1.647-3.377,3.351-5.058,5.034-1.235,1.236-1.245,1.258-2.774.48-.491-.25-.638-.117-.761.35-.583,2.224-.781,4.514-1.243,6.845m23.4-24.977c0,1.994.019,3.988-.013,5.981-.008.513.138.639.639.632,1.966-.029,3.932,0,5.9-.016a3.922,3.922,0,0,0,3.969-3.939q.034-2.622,0-5.244A3.92,3.92,0,0,0,74.78,24.8c-1.966-.018-3.933.014-5.9-.017-.51-.008-.64.134-.633.637.03,1.966.012,3.933.012,5.9M40.684,93.043c2.839,0,5.679-.011,8.517.01.5,0,.719-.078.7-.654-.046-1.336-.032-2.675-.005-4.013.009-.448-.1-.6-.58-.6q-8.6.024-17.2,0c-.54,0-.623.185-.613.657.029,1.283.042,2.567,0,3.849-.021.6.114.783.749.774,2.812-.039,5.624-.017,8.436-.017M34.293,64.167a6.549,6.549,0,0,0,12.666.664c.176-.557.081-.679-.5-.676-3.8.023-7.6.012-11.4.012h-.769M10.477,36.833V25.867C7.955,27.449,5.5,28.958,3.089,30.522a.991.991,0,0,0,.055,1.715c.393.291.825.529,1.241.789l6.091,3.807M40.7,58.917q-3.766,0-7.533,0c-1.041,0-1.636.474-1.649,1.29s.585,1.332,1.607,1.332q7.573.006,15.147,0c1.018,0,1.622-.511,1.609-1.331s-.609-1.289-1.649-1.291q-3.766-.006-7.532,0M21.985,24.791H15.162c-2.2,0-2.185,0-2.033,2.176.025.365.14.456.482.454q3.441-.017,6.882,0a.5.5,0,0,0,.545-.37c.282-.731.6-1.447.946-2.258M43.077,51.042c-1.5,0-2.935.01-4.374-.007-.4,0-.349.219-.308.469.135.832.234,1.672.416,2.494.167.756-.07,1.823.544,2.2.582.351,1.533.09,2.322.1a.517.517,0,0,1,.082,0c.341.057.49-.1.542-.432.249-1.582.509-3.163.777-4.819m-26.437-21H15.087c-1.984,0-1.956,0-1.964,1.991,0,.584.219.653.706.643,1.307-.027,2.615,0,3.922-.012.65,0,1.462.2,1.9-.117.469-.331.157-1.23.357-1.854.178-.557-.072-.682-.6-.662-.925.037-1.852.01-2.778.01M16.6,37.916c.627,0,1.255.016,1.882,0,.513-.017,1.16.222,1.5-.115.277-.276-.1-.871-.108-1.334,0-.136-.027-.273-.019-.408.033-.575-.174-.806-.8-.779-1.307.055-2.619.016-3.928.016-2.109,0-2.1,0-1.989,2.135.02.4.142.506.522.5.982-.022,1.964-.008,2.947-.007m42.82-13.125c.311.74.623,1.4.865,2.085a.723.723,0,0,0,.845.55c.845-.037,1.692-.011,2.539-.011,2.112,0,2.1,0,1.978-2.145-.019-.326-.066-.49-.447-.487-1.9.016-3.807.008-5.779.008m4.092,5.25c-.571,0-1.143.009-1.713,0-.314-.007-.516.02-.444.434.1.588.158,1.184.215,1.779.029.3.152.424.464.42q1.591-.02,3.182,0c.31,0,.4-.1.431-.414.213-2.216.222-2.216-1.972-2.216H63.51m-.089,7.875a13.047,13.047,0,0,1,1.47.011c.62.07.771-.149.761-.759-.032-1.876,0-1.877-1.919-1.877-.109,0-.218-.006-.327,0-.567.035-1.241-.215-1.672.1-.393.29-.133.98-.252,1.481-.044.185-.065.376-.1.562-.072.34.026.5.408.483.544-.025,1.09-.007,1.635-.006" transform="translate(5241.5 -8345.192)" fill="#010101"/>
      <path id="Trazado_130319" data-name="Trazado 130319" d="M67.463,128.266q-13.369,0-26.739.014c-.625,0-.81-.134-.809-.791q.034-16.283,0-32.566c0-.647.166-.811.8-.8,2.077.042,4.155.022,6.233.01.38,0,.635.027.8.47a19.674,19.674,0,0,0,6.775,9.054,9.449,9.449,0,0,1,3.548,5.449,1.083,1.083,0,0,1-.539,1.447,3.831,3.831,0,0,0,.19,6.672,1.371,1.371,0,0,1,.791,1.089,9.161,9.161,0,0,0,17.963-.061,1.276,1.276,0,0,1,.768-1.012,3.842,3.842,0,0,0,.155-6.72,1,1,0,0,1-.516-1.314,9.154,9.154,0,0,1,3.369-5.376,20.18,20.18,0,0,0,7.006-9.283c.132-.362.336-.417.666-.415,2.187.01,4.375.02,6.562-.006.485-.006.575.162.574.605q-.016,16.447.009,32.894c0,.684-.316.644-.786.643q-13.41-.012-26.821-.006M47.73,115.141h3.357c2,0,1.974,0,1.983-1.974,0-.552-.168-.668-.686-.663-2.62.025-5.24.012-7.86.012-2.031,0-2.014,0-1.981,2.056.008.475.153.586.6.579,1.528-.025,3.057-.01,4.585-.01m39.435,0H90.6c1.833,0,1.807,0,1.839-1.872.01-.6-.117-.78-.749-.77-2.592.041-5.185.017-7.778.017-2.041,0-2.015,0-2,2.037,0,.557.218.6.668.6,1.528-.022,3.057-.008,4.585-.008m-39.283,2.625H44.525c-2,0-1.974,0-1.983,1.974,0,.552.168.668.686.663,2.62-.025,5.24-.011,7.86-.011,2.031,0,2.014,0,1.981-2.056-.008-.475-.153-.587-.6-.579-1.528.025-3.057.01-4.585.01m39.293,2.625h3.357c1.923,0,1.9,0,1.909-1.965,0-.536-.142-.678-.676-.673-2.62.028-5.24.012-7.86.012-2.036,0-2.02,0-1.99,2.047.007.462.13.6.592.588,1.555-.027,3.111-.01,4.667-.01m-41.994,3.977c0-1.352,0-1.352-1.355-1.352-1.27,0-1.27,0-1.27,1.273,0,1.352,0,1.352,1.355,1.352,1.27,0,1.27,0,1.27-1.273m5.25.036c0-1.387,0-1.387-1.4-1.387-1.224,0-1.224,0-1.224,1.237,0,1.387,0,1.387,1.4,1.387,1.224,0,1.224,0,1.224-1.237m3.94-1.387c-1.315,0-1.315,0-1.315,1.31s0,1.315,1.31,1.315,1.315,0,1.315-1.31,0-1.315-1.31-1.315m27.558,1.366c0-1.366,0-1.366-1.34-1.366-1.285,0-1.285,0-1.285,1.258,0,1.367,0,1.367,1.34,1.367,1.285,0,1.285,0,1.285-1.258m3.931,1.258c1.319,0,1.319,0,1.319-1.306s0-1.319-1.306-1.319-1.319,0-1.319,1.306,0,1.319,1.306,1.319m3.944-1.378c0,1.378,0,1.378,1.329,1.378,1.3,0,1.3,0,1.3-1.329,0-1.3,0-1.3-1.329-1.3-1.3,0-1.3,0-1.3,1.247" transform="translate(5214.708 -8398.792)" fill="#83d3ef"/>
      <path id="Trazado_130320" data-name="Trazado 130320" d="M24,87.42c.858.534,1.56,1,2.294,1.415.375.211.331.514.331.836q0,5.454,0,10.908,0,11.359,0,22.718c0,2.119.984,3.095,3.118,3.095H83.866c2.166,0,3.128-.975,3.128-3.168q0-16.362-.019-32.724c0-.735.185-.9.892-.878,1.75.054,1.751.017,1.751,1.8q0,19.191,0,38.383c0,2.9-1.555,4.458-4.447,4.458H28.422c-2.847,0-4.423-1.567-4.423-4.4q0-20.75,0-41.5V87.42m3.976,41.6c-1.352,0-1.352,0-1.352,1.355,0,1.27,0,1.27,1.273,1.27,1.352,0,1.352,0,1.352-1.355,0-1.27,0-1.27-1.273-1.27m5.285,0c-1.387,0-1.387,0-1.387,1.4,0,1.224,0,1.224,1.237,1.224,1.387,0,1.387,0,1.387-1.4,0-1.224,0-1.224-1.237-1.224m5.135,2.625c1.352,0,1.352,0,1.352-1.355,0-1.27,0-1.27-1.273-1.27-1.352,0-1.352,0-1.352,1.355,0,1.27,0,1.27,1.273,1.27" transform="translate(5225.392 -8394.293)" fill="#ccd0d7"/>
      <path id="Trazado_130321" data-name="Trazado 130321" d="M89.866,40.038a2.093,2.093,0,0,1,.519.248c.926.821,1.818.356,2.7-.069.543-.263.5-.875.649-1.342a.746.746,0,0,1,.855-.634c1.584.038,3.17.034,4.754,0,.468-.009.748.117.786.587.1,1.194.966,1.568,1.92,1.907.574.2.946-.184,1.333-.406a.9.9,0,0,1,1.316.206c1.027,1.1,2.095,2.157,3.187,3.189a.773.773,0,0,1,.164,1.118,1.859,1.859,0,0,0-.31,1.874,2.059,2.059,0,0,0,1.655,1.439c.559.088.714.4.7.965-.047,1.529-.033,3.061-.006,4.591.008.474-.073.814-.6.856-1.2.095-1.552.983-1.9,1.93-.146.4.067.626.2.9.559,1.158.566,1.155-.359,2.081-.947.947-1.912,1.877-2.832,2.849-.34.36-.653.495-1.038.164-.918-.787-1.8-.4-2.7.029-.542.261-.511.809-.637,1.251a.869.869,0,0,1-1.024.751c-1.529-.051-3.061-.038-4.59,0a.724.724,0,0,1-.859-.621c-.179-.659-.319-1.273-1.158-1.606a2.076,2.076,0,0,0-2.179.183c-.428.3-.742.224-1.112-.165q-1.608-1.695-3.3-3.3c-.374-.355-.453-.677-.139-1.043.8-.926.372-1.8-.042-2.7-.213-.465-.665-.488-1.027-.556-.8-.153-1.008-.571-.972-1.351.066-1.418.041-2.842.007-4.262-.012-.511.087-.844.642-.917a1.981,1.981,0,0,0,1.73-1.569,1.26,1.26,0,0,0-.08-1.277c-.628-.813-.419-1.389.329-2.035,1.032-.891,1.948-1.915,2.917-2.878.15-.149.272-.346.515-.376m7.1,19.216a7.874,7.874,0,1,0-7.89-7.858,7.9,7.9,0,0,0,7.89,7.858" transform="translate(5185.251 -8361.282)" fill="#f3d57e"/>
      <path id="Trazado_130322" data-name="Trazado 130322" d="M90.413,61.581c.462-2.331.659-4.621,1.243-6.845.122-.467.27-.6.76-.35,1.529.778,1.54.756,2.775-.48,1.681-1.683,3.342-3.387,5.058-5.034a.956.956,0,0,0,.229-1.372c-.7-1.292-.682-1.344.741-1.767a.905.905,0,0,0,.8-1.05q-.063-4.1,0-8.2a.907.907,0,0,0-.79-1.059c-1.426-.418-1.447-.471-.747-1.759a.957.957,0,0,0-.229-1.372q-2.946-2.852-5.8-5.8a.824.824,0,0,0-1.173-.184c-1.407.737-1.453.726-1.914-.818-.169-.566-.44-.674-.976-.669-2.707.027-5.414.034-8.12,0-.664-.009-1,.139-1.191.832-.388,1.39-.459,1.411-1.713.715a1.007,1.007,0,0,0-1.437.251q-2.828,2.912-5.744,5.74a.877.877,0,0,0-.193,1.24c.721,1.369.71,1.418-.721,1.841a.9.9,0,0,0-.787,1.054q.062,4.06,0,8.121c-.01.652.16.942.8,1.129,1.418.41,1.442.471.728,1.771a.954.954,0,0,0,.247,1.367Q75.172,51.7,78,54.619a.918.918,0,0,0,1.31.2c1.461-.783,1.495-.76,1.79.878.314,1.747.574,3.5.885,5.25.087.489,0,.649-.544.647-1.716-.007-1.7.016-2.106-1.6A11.561,11.561,0,0,0,75.1,53.45a17.96,17.96,0,0,1-6.14-8.017A17.184,17.184,0,0,1,83.026,22.358c4.255-.469,8.445-.263,12.372,1.8a17.185,17.185,0,0,1,2.55,28.827,12.355,12.355,0,0,0-4.986,8.156c-.05.351-.195.455-.528.445-.626-.019-1.253-.006-2.022-.006" transform="translate(5195.951 -8350.481)" fill="#f7e5ab"/>
      <path id="Trazado_130323" data-name="Trazado 130323" d="M207.584,52.767c0-1.966.018-3.933-.012-5.9-.008-.5.123-.645.633-.637,1.966.031,3.933,0,5.9.017a3.92,3.92,0,0,1,3.974,3.933q.035,2.622,0,5.244a3.922,3.922,0,0,1-3.969,3.939c-1.966.02-3.933-.013-5.9.017-.5.007-.647-.119-.639-.632.032-1.993.013-3.988.013-5.981" transform="translate(5102.177 -8366.645)" fill="#d7b28f"/>
      <path id="Trazado_130324" data-name="Trazado 130324" d="M104.985,243.111c-2.812,0-5.624-.022-8.436.017-.635.009-.771-.18-.749-.774.046-1.282.033-2.567,0-3.849-.011-.471.073-.658.613-.656q8.6.033,17.2,0c.478,0,.589.156.58.6-.026,1.337-.041,2.677.005,4.013.02.575-.2.657-.7.653-2.839-.02-5.679-.01-8.518-.01" transform="translate(5177.199 -8495.262)" fill="#aab1bb"/>
      <path id="Trazado_130325" data-name="Trazado 130325" d="M104.3,166.006h.769c3.8,0,7.6.011,11.4-.012.579,0,.675.119.5.676a6.549,6.549,0,0,1-12.666-.664" transform="translate(5171.492 -8447.032)" fill="#a9b0ba"/>
      <path id="Trazado_130326" data-name="Trazado 130326" d="M15.826,60.507,9.735,56.7c-.416-.26-.848-.5-1.241-.789A.991.991,0,0,1,8.439,54.2c2.415-1.563,4.866-3.072,7.387-4.655Z" transform="translate(5236.15 -8368.868)" fill="#d5b18e"/>
      <path id="Trazado_130327" data-name="Trazado 130327" d="M105.044,150.06q3.766,0,7.533,0c1.04,0,1.636.475,1.649,1.291s-.59,1.331-1.609,1.331q-7.573.006-15.147,0c-1.022,0-1.62-.508-1.607-1.332s.608-1.288,1.649-1.29q3.766-.006,7.533,0" transform="translate(5177.156 -8436.337)" fill="#cbcfd6"/>
      <path id="Trazado_130328" data-name="Trazado 130328" d="M48.669,46.27c-.343.811-.664,1.527-.946,2.258a.5.5,0,0,1-.545.37q-3.441-.01-6.882,0c-.342,0-.456-.088-.482-.454-.152-2.177-.164-2.176,2.033-2.176Z" transform="translate(5214.816 -8366.672)" fill="#ed8773"/>
      <path id="Trazado_130329" data-name="Trazado 130329" d="M121.4,126.1c-.268,1.656-.528,3.237-.778,4.819-.051.327-.2.489-.541.432a.521.521,0,0,0-.082,0c-.789-.008-1.741.253-2.322-.1-.615-.372-.377-1.439-.544-2.2-.182-.822-.28-1.662-.416-2.494-.04-.25-.1-.473.308-.469,1.439.016,2.878.007,4.374.007" transform="translate(5163.177 -8420.248)" fill="#f9e7ad"/>
      <path id="Trazado_130330" data-name="Trazado 130330" d="M43.43,62.213c.926,0,1.853.026,2.778-.01.523-.021.773.1.6.662-.2.624.112,1.523-.357,1.853-.443.313-1.255.113-1.9.117-1.308.009-2.615-.015-3.922.012-.487.01-.709-.059-.706-.643.008-1.991-.019-1.991,1.964-1.991H43.43" transform="translate(5214.709 -8377.365)" fill="#bbda89"/>
      <path id="Trazado_130331" data-name="Trazado 130331" d="M43.324,80.793c-.982,0-1.965-.014-2.946.007-.38.009-.5-.1-.522-.5-.107-2.135-.12-2.134,1.989-2.134,1.31,0,2.621.039,3.928-.016.63-.027.837.2.8.779-.008.135.018.272.019.408.006.463.385,1.058.108,1.334-.338.337-.986.1-1.5.115-.627.021-1.255,0-1.882,0" transform="translate(5214.773 -8388.07)" fill="#ed8773"/>
      <path id="Trazado_130332" data-name="Trazado 130332" d="M180.714,46.255c1.971,0,3.875.009,5.779-.008.381,0,.428.161.447.487.126,2.145.133,2.145-1.978,2.145-.846,0-1.694-.027-2.539.011a.722.722,0,0,1-.844-.55c-.241-.685-.554-1.345-.865-2.085" transform="translate(5120.203 -8366.657)" fill="#ed8773"/>
      <path id="Trazado_130333" data-name="Trazado 130333" d="M188.728,62.229h.163c2.194,0,2.185,0,1.972,2.216-.031.316-.122.417-.431.414q-1.591-.02-3.182,0c-.312,0-.435-.121-.464-.42-.057-.594-.112-1.191-.215-1.779-.072-.414.13-.441.444-.433.571.013,1.142,0,1.713,0" transform="translate(5116.282 -8377.38)" fill="#bbda89"/>
      <path id="Trazado_130334" data-name="Trazado 130334" d="M188.674,80.709c-.545,0-1.091-.019-1.635.006-.382.017-.48-.143-.408-.483.039-.186.06-.377.1-.562.119-.5-.141-1.191.252-1.481.431-.319,1.105-.069,1.672-.1.109-.007.218,0,.327,0,1.916,0,1.888,0,1.919,1.877.01.61-.141.829-.761.759a13.2,13.2,0,0,0-1.47-.011" transform="translate(5116.247 -8387.986)" fill="#ed8773"/>
      <path id="Trazado_130335" data-name="Trazado 130335" d="M53.079,152.664c-1.528,0-3.057-.016-4.585.01-.449.007-.594-.1-.6-.579-.033-2.056-.05-2.056,1.981-2.056,2.62,0,5.24.013,7.86-.012.518,0,.688.11.686.663-.009,1.973.015,1.973-1.983,1.973H53.079" transform="translate(5209.359 -8436.315)"/>
      <path id="Trazado_130336" data-name="Trazado 130336" d="M172.893,152.652c-1.528,0-3.057-.014-4.585.009-.451.007-.665-.04-.668-.6-.011-2.037-.037-2.037,2-2.037,2.593,0,5.186.024,7.778-.017.632-.01.759.174.749.769-.032,1.872-.006,1.872-1.839,1.872h-3.439" transform="translate(5128.98 -8436.304)"/>
      <path id="Trazado_130337" data-name="Trazado 130337" d="M53.242,166.01c1.528,0,3.057.016,4.585-.01.449-.007.594.1.6.579.033,2.056.05,2.056-1.981,2.056-2.62,0-5.24-.013-7.86.011-.518,0-.688-.11-.686-.663.009-1.973-.015-1.973,1.983-1.973h3.357" transform="translate(5209.348 -8447.036)"/>
      <path id="Trazado_130338" data-name="Trazado 130338" d="M172.9,168.629c-1.556,0-3.112-.017-4.667.011-.462.008-.585-.127-.592-.589-.03-2.047-.046-2.047,1.99-2.047,2.62,0,5.24.015,7.86-.013.534-.006.678.137.676.673-.008,1.965.013,1.965-1.909,1.965H172.9" transform="translate(5128.981 -8447.029)"/>
      <path id="Trazado_130339" data-name="Trazado 130339" d="M50.572,183.351c0,1.273,0,1.273-1.27,1.273-1.355,0-1.355,0-1.355-1.352,0-1.273,0-1.273,1.27-1.273,1.355,0,1.355,0,1.355,1.352" transform="translate(5209.316 -8457.774)"/>
      <path id="Trazado_130340" data-name="Trazado 130340" d="M66.539,183.387c0,1.237,0,1.237-1.224,1.237-1.4,0-1.4,0-1.4-1.387,0-1.238,0-1.238,1.224-1.238,1.4,0,1.4,0,1.4,1.388" transform="translate(5198.599 -8457.774)"/>
      <path id="Trazado_130341" data-name="Trazado 130341" d="M81.195,182c1.31,0,1.31,0,1.31,1.315s0,1.31-1.315,1.31-1.31,0-1.31-1.315,0-1.31,1.315-1.31" transform="translate(5187.883 -8457.774)"/>
      <path id="Trazado_130342" data-name="Trazado 130342" d="M162.336,183.366c0,1.258,0,1.258-1.285,1.258-1.34,0-1.34,0-1.34-1.367,0-1.258,0-1.258,1.285-1.258,1.339,0,1.339,0,1.339,1.367" transform="translate(5134.3 -8457.774)"/>
      <path id="Trazado_130343" data-name="Trazado 130343" d="M176.984,184.624c-1.306,0-1.306,0-1.306-1.319S175.678,182,177,182s1.306,0,1.306,1.319,0,1.306-1.319,1.306" transform="translate(5123.583 -8457.774)"/>
      <path id="Trazado_130344" data-name="Trazado 130344" d="M191.644,183.246c0-1.247,0-1.247,1.3-1.247,1.329,0,1.329,0,1.329,1.3,0,1.329,0,1.329-1.3,1.329-1.329,0-1.329,0-1.329-1.378" transform="translate(5112.867 -8457.774)"/>
      <path id="Trazado_130345" data-name="Trazado 130345" d="M33.333,213.935c1.273,0,1.273,0,1.273,1.27,0,1.355,0,1.355-1.352,1.355-1.273,0-1.273,0-1.273-1.27,0-1.355,0-1.355,1.352-1.355" transform="translate(5220.034 -8479.21)"/>
      <path id="Trazado_130346" data-name="Trazado 130346" d="M49.335,213.935c1.237,0,1.237,0,1.237,1.224,0,1.4,0,1.4-1.387,1.4-1.238,0-1.238,0-1.238-1.224,0-1.4,0-1.4,1.388-1.4" transform="translate(5209.317 -8479.21)"/>
      <path id="Trazado_130347" data-name="Trazado 130347" d="M65.187,216.56c-1.273,0-1.273,0-1.273-1.27,0-1.355,0-1.355,1.352-1.355,1.273,0,1.273,0,1.273,1.27,0,1.355,0,1.355-1.352,1.355" transform="translate(5198.6 -8479.21)"/>
      <path id="Trazado_130348" data-name="Trazado 130348" d="M107.731,70a7.874,7.874,0,1,1,7.856-7.892A7.9,7.9,0,0,1,107.731,70m5.23-7.837a5.247,5.247,0,1,0-5.306,5.211,5.262,5.262,0,0,0,5.306-5.211" transform="translate(5174.485 -8372.033)" fill="#040302"/>
      <path id="Trazado_130349" data-name="Trazado 130349" d="M118.322,67.528a5.247,5.247,0,1,1-5.23-5.286,5.264,5.264,0,0,1,5.23,5.286" transform="translate(5169.125 -8377.392)" fill="#f9e7ad"/>
    </g>
  </g>
</svg>
