<svg xmlns="http://www.w3.org/2000/svg" xmlns:xlink="http://www.w3.org/1999/xlink" width="150.617" height="150.617" viewBox="0 0 150.617 150.617">
  <defs>
    <clipPath id="clip-path">
      <rect id="Rectángulo_36767" data-name="Rectángulo 36767" width="134.728" height="134.728" fill="#fff" stroke="#707070" stroke-width="1"/>
    </clipPath>
  </defs>
  <g id="Grupo_86116" data-name="Grupo 86116" transform="translate(-0.278 -0.277)">
    <circle id="Elipse_5411" data-name="Elipse 5411" cx="75.308" cy="75.308" r="75.308" transform="translate(0.278 0.277)" fill="#2ff980"/>
    <g id="Grupo_86118" data-name="Grupo 86118" transform="translate(8.223 8.221)" clip-path="url(#clip-path)">
      <g id="Grupo_86117" data-name="Grupo 86117" transform="translate(5.937 5.893)">
        <path id="Trazado_128317" data-name="Trazado 128317" d="M-201.853,105.192l-3.818,0c-.159-1.963-.159-1.963-2.216-1.963-5.837,0-11.675.061-17.511-.019a11.431,11.431,0,0,1-10.852-6.785,11.237,11.237,0,0,1,1.353-12.4,11.435,11.435,0,0,1,10.186-4.53c.843.045,1.283-.065,1.373-1.077a17.172,17.172,0,0,1,.778-3.5A21.707,21.707,0,0,1-190.4,62.867c.908.543,1.391.591,1.82-.469a10.165,10.165,0,0,1,1.1-1.848c6.38-9.327,15.256-13.747,26.469-12.584,13.753,1.426,23.886,12.6,24.608,26.482.045.874-.163,1.171-1.076,1.378-6.616,1.5-10.776,5.594-12.428,12.167-.835,3.319-.765,3.3,2.555,3.344.981.014,1.063-.4,1.137-1.173a11.859,11.859,0,0,1,9.988-10.593,11.886,11.886,0,0,1,12.68,7,11.882,11.882,0,0,1-11.043,16.642c-5.837.063-11.675.013-17.512.013-2.056,0-2.056,0-2.216,1.963l-3.818,0c-.015-1.794,0-3.589-.063-5.382a1.27,1.27,0,0,1,.84-1.348,5.811,5.811,0,0,0,2.912-6.7,5.887,5.887,0,0,0-5.854-4.379,5.878,5.878,0,0,0-5.642,4.5,5.857,5.857,0,0,0,2.924,6.593c.456.254.882.4.854,1.1-.076,1.872-.058,3.746-.077,5.62l-7.811,0c-.019-1.634-.013-3.269-.066-4.9-.031-.981.453-2.319-.2-2.843-.615-.493-1.9-.113-2.889-.192-.715-.058-.843.232-.838.879.021,2.353-.019,4.705-.037,7.058l-4,0h-3.83l-4,0c-.018-1.634-.01-3.269-.061-4.9-.031-.981.451-2.32-.2-2.844-.613-.493-1.9-.113-2.889-.19-.713-.057-.845.23-.84.88.019,2.352-.023,4.7-.041,7.056l-7.811,0c-.019-1.753-.012-3.509-.073-5.26a1.353,1.353,0,0,1,.84-1.473,5.8,5.8,0,0,0,2.97-6.462,5.915,5.915,0,0,0-5.682-4.609,5.9,5.9,0,0,0-5.855,4.38,5.874,5.874,0,0,0,2.909,6.711c.451.253.879.4.852,1.093C-201.86,101.442-201.838,103.318-201.853,105.192Zm38.176-49.5a19.7,19.7,0,0,1,18.333,13.54c.285.856.306,2.137.882,2.467.614.353,1.737-.253,2.647-.326.968-.078,1.041-.523.836-1.34a23.557,23.557,0,0,0-10.646-14.769,23.672,23.672,0,0,0-13.7-3.563c-.757.025-1.142.209-.917,1.037a4.39,4.39,0,0,1,.1.711C-165.911,55.63-165.912,55.63-163.677,55.694ZM-181.956,97v1.318c0,2.965,0,2.939,3,2.919.724,0,.958-.174.939-.927-.054-2.036.022-4.075-.037-6.111a1.616,1.616,0,0,1,.993-1.753,5.73,5.73,0,0,0,2.843-6.4,5.935,5.935,0,0,0-5.2-4.594,6,6,0,0,0-6.059,3.609c-1.012,2.4-.5,5.4,1.738,6.747,1.813,1.094,1.933,2.424,1.788,4.118C-181.982,96.277-181.956,96.638-181.956,97ZM-201.8,65.718v-.6c0-1.543,0-1.543-1.5-1.453a17.866,17.866,0,0,0-15.805,13.552c-.441,1.887-.441,1.89,1.372,2.178a11.153,11.153,0,0,1,1.3.169c.742.212.9-.1,1.053-.783A13.75,13.75,0,0,1-203.447,67.67C-201.8,67.419-201.8,67.419-201.8,65.718Zm32.152-9.692a25.01,25.01,0,0,1-.706-2.526c-.149-.845-.5-.87-1.214-.625a23.9,23.9,0,0,0-12.261,9.277c-1.669,2.424-1.659,2.432.9,3.729a3.728,3.728,0,0,1,.53.271c.43.317.678.192.928-.253a19.7,19.7,0,0,1,11.244-9.285C-169.959,56.524-169.532,56.531-169.652,56.026Z" transform="translate(241.422 -43.802)" fill="#d5cef8"/>
        <path id="Trazado_128318" data-name="Trazado 128318" d="M-155.1,104.393c.16-1.963.16-1.963,2.216-1.963,5.837,0,11.675.051,17.512-.013a11.882,11.882,0,0,0,11.043-16.642,11.886,11.886,0,0,0-12.68-7,11.859,11.859,0,0,0-9.988,10.593c-.074.769-.156,1.188-1.137,1.173-3.32-.047-3.39-.025-2.555-3.344,1.652-6.573,5.811-10.668,12.428-12.167.913-.207,1.121-.5,1.076-1.378C-137.9,59.773-148.038,48.6-161.791,47.17-173,46.007-181.879,50.427-188.26,59.754a10.166,10.166,0,0,0-1.1,1.848c-.429,1.06-.913,1.013-1.82.469a21.707,21.707,0,0,0-32.161,12.055,17.167,17.167,0,0,0-.778,3.5c-.09,1.012-.529,1.122-1.373,1.077a11.436,11.436,0,0,0-10.186,4.53,11.237,11.237,0,0,0-1.353,12.4,11.431,11.431,0,0,0,10.852,6.785c5.836.08,11.674.019,17.511.019,2.057,0,2.057,0,2.216,1.963-.157,1.965-.157,1.966-2.209,1.965-5.917,0-11.835.049-17.751-.012a15.8,15.8,0,0,1-15.78-16.377A15.859,15.859,0,0,1-228.638,74.88a1.292,1.292,0,0,0,1.283-1.083,25.57,25.57,0,0,1,27.513-18.786,23.681,23.681,0,0,1,7.483,2c.609.276.964.289,1.428-.35,6.719-9.285,15.848-13.864,27.294-13.646,14.463.275,27.589,11.772,29.906,26.051a23.475,23.475,0,0,1,.458,4.642c-.03.818.187,1.122,1.053,1.3a15.819,15.819,0,0,1,12.857,16.28,15.777,15.777,0,0,1-15.055,15.027c-6.554.134-13.113.023-19.67.067-.841,0-1.038-.3-.958-1.034A5.554,5.554,0,0,0-155.1,104.393Z" transform="translate(242.201 -43.006)" fill="#030303"/>
        <path id="Trazado_128319" data-name="Trazado 128319" d="M-172.068,179.651c-3.639,0-7.277-.026-10.916.02-.8.011-.993-.223-.992-1,0-2.97-.026-3,2.96-2.978.83.008,1.149-.193,1.045-1.044-.114-.938.406-2.233-.205-2.739-.578-.478-1.822-.171-2.773-.174-3.634-.01-5.893-1.486-6.728-4.391a6.785,6.785,0,0,1-.193-1.9c-.006-5.037-.016-10.075,0-15.112.013-3.9,2.456-6.336,6.372-6.367,2.8-.022,5.6-.048,8.4.02.94.023,1.106-.286,1.1-1.148-.041-5.2,0-10.395-.042-15.592-.008-.875.167-1.222,1.1-1.113.9.106,2.1-.267,2.658.191.591.482.182,1.716.185,2.619.019,4.638.035,9.276-.013,13.913-.009.9.21,1.15,1.12,1.128,2.758-.063,5.518-.034,8.276-.02,4.054.022,6.466,2.445,6.475,6.508q.016,7.376,0,14.753c-.008,4.077-2.414,6.491-6.463,6.507-.919,0-1.84.028-2.759-.009-.519-.021-.705.135-.678.67.052,1.034-.321,2.321.167,3.035.475.693,1.847.228,2.818.219.779-.007,1.018.2,1.023,1.006.012,3,.044,3-2.934,3Zm-.116-19.837c4.312,0,8.625-.018,12.937.017.8.006,1.113-.153,1.1-1.036-.057-2.794-.011-5.589-.024-8.383-.008-1.715-.71-2.439-2.376-2.44q-11.5-.012-23,0c-1.674,0-2.378.721-2.387,2.427-.013,2.794.031,5.59-.024,8.384-.017.861.265,1.058,1.081,1.05C-180.65,159.793-176.417,159.813-172.184,159.813Zm.123,4c-4.315,0-8.631.014-12.945-.014-.7-.005-.961.128-.959.908.005,2.445.553,3.05,3,3.051q10.967,0,21.935,0c2.26,0,2.8-.6,2.882-2.816.038-1-.327-1.155-1.21-1.146C-163.59,163.832-167.825,163.81-172.061,163.81Zm.122,7.922h-1.2c-3.069,0-3.051,0-2.914,3.132.027.605.184.845.82.836q3.169-.044,6.338,0c.636.009.793-.23.821-.836.137-3.133.155-3.132-2.914-3.132Z" transform="translate(233.485 -56.848)" fill="#030404"/>
        <path id="Trazado_128320" data-name="Trazado 128320" d="M-119.684,181.636c-3.637,0-7.275-.021-10.912.017-.773.008-1.185-.088-1.088-1,.1-.944-.283-2.186.192-2.78.513-.642,1.8-.208,2.748-.191.807.015,1.1-.174,1.093-1.049-.019-2.909.018-2.915-2.879-2.908a8.931,8.931,0,0,1-3.078-.34,6.031,6.031,0,0,1-4-5.939c-.02-5.075-.029-10.151,0-15.226a5.977,5.977,0,0,1,6.262-6.263c2.837-.038,5.676-.053,8.512.017.94.023,1.121-.278,1.093-1.139-.064-1.956.01-3.916-.036-5.874-.018-.736.209-.939.945-.948,3.061-.035,3.06-.061,3.06,2.991,0,1.279.054,2.561-.018,3.836-.049.856.138,1.161,1.083,1.135,2.756-.075,5.515-.038,8.273-.023,4.048.021,6.5,2.472,6.505,6.49q.009,7.434,0,14.867c-.005,3.939-2.479,6.393-6.45,6.412-.919,0-1.84.026-2.758-.009-.509-.019-.762.123-.678.663a.96.96,0,0,1,0,.12c.017,1-.331,2.259.151,2.913.516.7,1.853.222,2.826.229.7.005,1.027.138.96.919-.084.985.3,2.287-.193,2.884-.529.635-1.874.179-2.86.188C-113.848,181.654-116.767,181.636-119.684,181.636Zm-.106-19.841h12.828c.553,0,1.093.128,1.075-.8-.054-2.956,0-5.915-.032-8.871-.018-1.488-.752-2.168-2.26-2.17q-11.57-.015-23.139,0c-1.572,0-2.284.705-2.294,2.253-.016,2.877.027,5.755-.025,8.631-.015.821.267.977,1.018.971C-128.342,161.779-124.066,161.8-119.79,161.8Zm-.026,4c-4.271,0-8.542-.008-12.813.015-.349,0-.873-.308-1,.45-.4,2.391.473,3.475,2.9,3.476q10.957,0,21.914,0c2.414,0,2.914-.553,2.935-2.974.007-.8-.231-.99-1-.983C-111.194,165.814-115.5,165.8-119.816,165.8Zm.045,11.854h.959c3.079,0,3.059,0,3.006-3.058-.011-.653-.15-.913-.855-.887-1.4.053-2.8.016-4.2.016-2.931,0-2.907,0-2.9,2.914,0,.75.157,1.09.987,1.032C-121.774,177.6-120.77,177.649-119.771,177.649Z" transform="translate(224.78 -58.833)" fill="#050506"/>
        <path id="Trazado_128321" data-name="Trazado 128321" d="M-224.422,181.635c-3.638,0-7.275-.022-10.912.019-.743.008-1-.18-.914-.924.109-.983-.405-2.245.2-2.889.564-.6,1.824-.2,2.77-.163.808.031,1.038-.242.973-1.008-.079-.944.285-2.2-.2-2.763-.51-.6-1.8-.175-2.749-.181-3.779-.022-6.1-1.613-6.8-4.735a7.139,7.139,0,0,1-.142-1.543q-.016-7.553,0-15.107c.006-3.874,2.466-6.356,6.36-6.391q4.317-.04,8.633.01c.677.008.879-.177.864-.859-.043-2.037.008-4.076-.029-6.114-.012-.677.09-.974.89-.983,3.114-.033,3.114-.068,3.114,3.086,0,1.358.033,2.719-.014,4.075-.023.652.217.8.821.79,2.8-.027,5.6-.018,8.394-.01,4.194.013,6.645,2.442,6.652,6.607q.012,7.313,0,14.627c-.008,4.093-2.468,6.525-6.583,6.538h-.479c-3.159,0-3.144,0-2.892,3.249.04.514.2.705.7.692.838-.022,1.68.03,2.517-.016.643-.035.785.216.8.827.1,3.165.115,3.164-2.984,3.164Zm.024-19.841c4.276,0,8.552-.02,12.828.019.809.007,1.1-.165,1.078-1.035-.058-2.8-.015-5.594-.024-8.391,0-1.77-.678-2.433-2.478-2.434q-11.39-.007-22.78,0c-1.782,0-2.435.657-2.445,2.472-.016,2.8.024,5.595-.022,8.391-.013.8.246,1,1.014.993C-232.951,161.778-228.674,161.795-224.4,161.795Zm.2,4c-4.35,0-8.7-.007-13.052.013-.358,0-.868-.283-.983.48-.363,2.407.491,3.447,2.935,3.448q10.957,0,21.913,0c2.351,0,2.834-.548,2.9-2.884.029-.957-.305-1.084-1.143-1.076C-215.818,165.817-220.01,165.794-224.2,165.794Zm-.2,7.926h-.959c-3.064,0-3.039,0-2.961,3.085.018.705.251.876.906.856,1.358-.042,2.718-.012,4.077-.012,3.014,0,2.99,0,2.97-2.989-.005-.705-.137-1.01-.916-.958C-222.322,173.772-223.366,173.72-224.4,173.72Z" transform="translate(242.203 -58.832)" fill="#050506"/>
        <path id="Trazado_128322" data-name="Trazado 128322" d="M-185.972,115.071c.018-2.353.06-4.7.041-7.056-.005-.65.127-.937.84-.88.986.077,2.275-.3,2.889.19.65.524.168,1.863.2,2.844.051,1.633.043,3.269.061,4.9-.018,5.553-.058,11.107-.027,16.66.006.941-.238,1.173-1.173,1.168-8.393-.038-16.787,0-25.18-.045-1.045-.005-1.443.186-1.4,1.342.093,2.678.025,2.629-2.612,2.7-1.062.031-1.444-.209-1.378-1.343.107-1.832.082-3.677.006-5.512-.038-.9.2-1.12,1.107-1.116,8.473.038,16.947,0,25.419.053,1.1.007,1.31-.3,1.291-1.328C-185.969,123.46-185.953,119.265-185.972,115.071Z" transform="translate(237.458 -53.679)" fill="#010101"/>
        <path id="Trazado_128323" data-name="Trazado 128323" d="M-161.4,115.072c.017-2.353.057-4.705.037-7.058-.005-.648.123-.937.838-.879.987.078,2.274-.3,2.889.192.652.523.168,1.862.2,2.843.053,1.633.047,3.268.066,4.9-.018,4.394-.022,8.788-.066,13.182-.011,1,.682.688,1.157.688,8.433.014,16.867.033,25.3-.018,1.1-.007,1.405.273,1.35,1.361-.095,1.873-.069,3.757-.007,5.633.028.816-.252.978-1.009.976-2.973,0-3.017.021-2.977-2.938.013-.946-.3-1.1-1.158-1.1-8.473.032-16.946,0-25.419.042-.935,0-1.178-.228-1.173-1.168C-161.343,126.179-161.384,120.625-161.4,115.072Z" transform="translate(228.741 -53.679)" fill="#010101"/>
        <path id="Trazado_128324" data-name="Trazado 128324" d="M-195.5,113.109c.016-1.874-.007-3.75.067-5.622.027-.7-.4-.84-.852-1.093a5.874,5.874,0,0,1-2.909-6.711,5.9,5.9,0,0,1,5.855-4.38,5.915,5.915,0,0,1,5.682,4.609,5.8,5.8,0,0,1-2.97,6.462,1.353,1.353,0,0,0-.84,1.473c.061,1.752.053,3.507.073,5.26-.15,1.965-.15,1.965-2.184,1.965C-195.384,115.072-195.384,115.072-195.5,113.109Zm1.993-9.9a2.058,2.058,0,0,0,2.04-1.939,2.061,2.061,0,0,0-1.939-2.04,2.061,2.061,0,0,0-2.038,1.94A2.056,2.056,0,0,0-193.511,103.209Z" transform="translate(235.073 -51.719)" fill="#040304"/>
        <path id="Trazado_128325" data-name="Trazado 128325" d="M-147.97,113.107c.019-1.873,0-3.748.077-5.62.028-.7-.4-.841-.854-1.1a5.857,5.857,0,0,1-2.924-6.593,5.878,5.878,0,0,1,5.642-4.5,5.887,5.887,0,0,1,5.854,4.379,5.811,5.811,0,0,1-2.912,6.7,1.27,1.27,0,0,0-.84,1.348c.063,1.793.047,3.588.062,5.382-.119,1.963-.119,1.963-2.161,1.963C-147.82,115.072-147.82,115.072-147.97,113.107Zm2.108-13.876a2.051,2.051,0,0,0-2.036,1.941,2.053,2.053,0,0,0,1.94,2.038,2.062,2.062,0,0,0,2.037-1.942A2.062,2.062,0,0,0-145.862,99.231Z" transform="translate(227.15 -51.719)" fill="#040304"/>
        <path id="Trazado_128326" data-name="Trazado 128326" d="M-127.677,123.814c3,0,6,.026,9-.018.743-.011.944.188.924.929-.054,2.038-.038,4.078-.008,6.116.01.621-.075.905-.82.921-3.129.063-3.165.093-3.157-3.01,0-.888-.313-1.034-1.1-1.028-4.559.034-9.117-.011-13.675.039-.911.01-1.137-.235-1.123-1.131.044-2.817.005-2.818,2.767-2.818Z" transform="translate(224.782 -56.466)" fill="#030303"/>
        <path id="Trazado_128327" data-name="Trazado 128327" d="M-213.229,123.815c2.959,0,5.919.023,8.877-.016.753-.01,1.028.147,1.027.975-.006,2.967.029,2.967-2.981,2.967-3.919,0-7.838.023-11.756-.019-.847-.009-1.18.134-1.167,1.091.039,2.968-.007,2.941-2.974,2.947-.76,0-1.033-.165-1.009-.978.061-2.037.047-4.078.005-6.116-.014-.676.178-.873.861-.865C-219.307,123.836-216.267,123.815-213.229,123.815Z" transform="translate(239.039 -56.467)" fill="#030303"/>
        <path id="Trazado_128328" data-name="Trazado 128328" d="M-145.1,127.745c-2.025,0-2.025,0-2.025-2.071,0-1.858,0-1.858,1.877-1.858,2.129,0,2.129,0,2.129,2.187a1.326,1.326,0,0,0,0,.238c.23,1.236-.273,1.732-1.507,1.508A2.745,2.745,0,0,0-145.1,127.745Z" transform="translate(226.362 -56.469)" fill="#050506"/>
        <path id="Trazado_128329" data-name="Trazado 128329" d="M-192.706,127.745c-1.964,0-1.964,0-1.964-2,0-1.933,0-1.933,1.907-1.933,2.1,0,2.1,0,2.1,2.113C-190.665,127.745-190.665,127.745-192.706,127.745Z" transform="translate(234.283 -56.469)" fill="#050506"/>
        <path id="Trazado_128330" data-name="Trazado 128330" d="M-170.8,116.667h3.83c.015,1.072.009,2.144.055,3.214.023.547-.131.735-.719.767-3.225.173-3.225.193-3.211-3.031C-170.846,117.3-170.818,116.984-170.8,116.667Z" transform="translate(230.315 -55.278)" fill="#010101"/>
        <path id="Trazado_128331" data-name="Trazado 128331" d="M-149.441,56.474c-2.234-.063-2.234-.063-2.459-2.243a4.389,4.389,0,0,0-.1-.711c-.225-.828.16-1.012.917-1.037a23.672,23.672,0,0,1,13.7,3.563,23.557,23.557,0,0,1,10.646,14.769c.205.818.132,1.262-.836,1.34-.91.073-2.033.678-2.647.326-.576-.33-.6-1.611-.882-2.467A19.7,19.7,0,0,0-149.441,56.474Z" transform="translate(227.185 -44.582)" fill="#040404"/>
        <path id="Trazado_128332" data-name="Trazado 128332" d="M-171.652,103.724c0-.36-.026-.722,0-1.078.144-1.693.025-3.024-1.788-4.118-2.233-1.348-2.749-4.346-1.738-6.747a6,6,0,0,1,6.059-3.609,5.935,5.935,0,0,1,5.2,4.595,5.73,5.73,0,0,1-2.843,6.4,1.616,1.616,0,0,0-.993,1.753c.059,2.036-.017,4.075.038,6.111.019.753-.215.922-.939.927-3,.021-3,.047-3-2.919Zm3.912-9.6a1.966,1.966,0,0,0-1.919-2.013,1.968,1.968,0,0,0-1.984,1.948,1.964,1.964,0,0,0,1.92,2.011A1.961,1.961,0,0,0-167.74,94.121Z" transform="translate(231.118 -50.528)" fill="#030303"/>
        <path id="Trazado_128333" data-name="Trazado 128333" d="M-198.174,68.887c0,1.7,0,1.7-1.643,1.953a13.749,13.749,0,0,0-11.938,11.112c-.151.681-.311.994-1.053.783a11.156,11.156,0,0,0-1.3-.169c-1.813-.288-1.813-.291-1.372-2.178a17.866,17.866,0,0,1,15.805-13.552c1.5-.09,1.5-.09,1.5,1.453Z" transform="translate(237.792 -46.971)" fill="#030303"/>
        <path id="Trazado_128334" data-name="Trazado 128334" d="M-159.151,57.017c.12.505-.308.5-.576.588a19.7,19.7,0,0,0-11.244,9.285c-.249.445-.5.57-.928.253a3.728,3.728,0,0,0-.53-.271c-2.563-1.3-2.573-1.305-.9-3.729a23.9,23.9,0,0,1,12.261-9.277c.716-.245,1.065-.22,1.214.625A25.006,25.006,0,0,0-159.151,57.017Z" transform="translate(230.92 -44.793)" fill="#030404"/>
        <path id="Trazado_128335" data-name="Trazado 128335" d="M-171.4,164.186c-4.233,0-8.466-.02-12.7.018-.816.007-1.1-.189-1.081-1.05.055-2.794.011-5.59.024-8.384.008-1.706.713-2.425,2.387-2.427q11.5-.011,23,0c1.666,0,2.368.725,2.376,2.44.013,2.794-.033,5.59.024,8.383.018.883-.3,1.042-1.1,1.036C-162.777,164.168-167.09,164.186-171.4,164.186Z" transform="translate(232.702 -61.221)" fill="#826be9"/>
        <path id="Trazado_128336" data-name="Trazado 128336" d="M-171.279,171.346c4.235,0,8.471.023,12.705-.018.883-.009,1.248.142,1.21,1.146-.083,2.214-.622,2.815-2.882,2.816q-10.967,0-21.935,0c-2.449,0-3-.606-3-3.051,0-.78.261-.913.959-.908C-179.909,171.36-175.594,171.346-171.279,171.346Z" transform="translate(232.703 -64.385)" fill="#583ae2"/>
        <path id="Trazado_128337" data-name="Trazado 128337" d="M-169.182,180.856h.957c3.069,0,3.051,0,2.914,3.132-.028.606-.185.845-.821.836q-3.169-.044-6.338,0c-.636.009-.793-.231-.82-.836-.138-3.133-.155-3.132,2.914-3.132Z" transform="translate(230.729 -65.973)" fill="#d5cef8"/>
        <path id="Trazado_128338" data-name="Trazado 128338" d="M-118.992,164.184c-4.276,0-8.552-.017-12.828.016-.751.006-1.033-.15-1.018-.971.053-2.876.009-5.754.025-8.631.009-1.548.722-2.251,2.294-2.253q11.57-.014,23.139,0c1.508,0,2.242.683,2.26,2.17.036,2.956-.022,5.915.032,8.871.018.926-.522.8-1.075.8Z" transform="translate(223.982 -61.222)" fill="#826be9"/>
        <path id="Trazado_128339" data-name="Trazado 128339" d="M-119.035,171.342c4.311,0,8.622.019,12.933-.017.77-.007,1.008.187,1,.983-.021,2.422-.521,2.974-2.935,2.974q-10.957,0-21.914,0c-2.423,0-3.3-1.085-2.9-3.476.127-.758.651-.448,1-.45C-127.577,171.334-123.306,171.342-119.035,171.342Z" transform="translate(223.999 -64.38)" fill="#583ae2"/>
        <path id="Trazado_128340" data-name="Trazado 128340" d="M-117,184.786c-1,0-2-.054-3,.017-.83.058-.984-.282-.987-1.032-.01-2.914-.034-2.914,2.9-2.914,1.4,0,2.8.037,4.2-.016.705-.027.844.233.855.887.052,3.058.072,3.058-3.006,3.058Z" transform="translate(222.007 -65.97)" fill="#d5cef8"/>
        <path id="Trazado_128341" data-name="Trazado 128341" d="M-223.605,164.184c-4.276,0-8.553-.017-12.828.017-.768.006-1.027-.194-1.014-.993.047-2.8.007-5.595.022-8.391.01-1.815.663-2.471,2.445-2.472q11.391-.009,22.78,0c1.8,0,2.473.664,2.478,2.434.009,2.8-.033,5.595.024,8.391.017.87-.269,1.042-1.078,1.035C-215.053,164.164-219.329,164.184-223.605,164.184Z" transform="translate(241.41 -61.222)" fill="#826be9"/>
        <path id="Trazado_128342" data-name="Trazado 128342" d="M-223.425,171.344c4.191,0,8.383.023,12.573-.018.838-.008,1.173.119,1.143,1.076-.069,2.335-.553,2.883-2.9,2.884q-10.956,0-21.913,0c-2.444,0-3.3-1.041-2.935-3.448.115-.763.626-.478.983-.48C-232.126,171.337-227.775,171.344-223.425,171.344Z" transform="translate(241.426 -64.382)" fill="#583ae2"/>
        <path id="Trazado_128343" data-name="Trazado 128343" d="M-221.635,180.856c1.039,0,2.083.052,3.117-.018.779-.053.911.253.916.958.02,2.989.043,2.989-2.97,2.989-1.359,0-2.719-.029-4.077.012-.655.02-.888-.151-.906-.856-.078-3.086-.1-3.085,2.961-3.085Z" transform="translate(239.433 -65.969)" fill="#d5cef8"/>
        <path id="Trazado_128344" data-name="Trazado 128344" d="M-192.719,103.994a2.056,2.056,0,0,1-1.937-2.039,2.061,2.061,0,0,1,2.038-1.94,2.061,2.061,0,0,1,1.939,2.04A2.058,2.058,0,0,1-192.719,103.994Z" transform="translate(234.281 -52.504)" fill="#ab9df1"/>
        <path id="Trazado_128345" data-name="Trazado 128345" d="M-145.071,100.016a2.062,2.062,0,0,1,1.941,2.037,2.062,2.062,0,0,1-2.037,1.942,2.053,2.053,0,0,1-1.94-2.038A2.051,2.051,0,0,1-145.071,100.016Z" transform="translate(226.359 -52.504)" fill="#ab9df1"/>
        <path id="Trazado_128346" data-name="Trazado 128346" d="M-166.935,94.912a1.961,1.961,0,0,1-1.983,1.947,1.964,1.964,0,0,1-1.92-2.011,1.968,1.968,0,0,1,1.984-1.948A1.966,1.966,0,0,1-166.935,94.912Z" transform="translate(230.313 -51.318)" fill="#ab9df1"/>
      </g>
    </g>
  </g>
</svg>
