<svg xmlns="http://www.w3.org/2000/svg" xmlns:xlink="http://www.w3.org/1999/xlink" width="81.311" height="81.311" viewBox="0 0 81.311 81.311">
  <defs>
    <clipPath id="clip-path">
      <rect id="Rect치ngulo_36625" data-name="Rect치ngulo 36625" width="81.311" height="81.311" fill="#fff" stroke="#707070" stroke-width="1"/>
    </clipPath>
    <clipPath id="clip-path-2">
      <rect id="Rect치ngulo_36878" data-name="Rect치ngulo 36878" width="64.122" height="64.115" fill="none"/>
    </clipPath>
  </defs>
  <g id="Grupo_85836" data-name="Grupo 85836" clip-path="url(#clip-path)">
    <g id="Grupo_86497" data-name="Grupo 86497" transform="translate(8.594 8.598)">
      <g id="Grupo_86493" data-name="Grupo 86493" transform="translate(0)" clip-path="url(#clip-path-2)">
        <path id="Trazado_130152" data-name="Trazado 130152" d="M32.058,64.111q-13.279,0-26.557,0A5.171,5.171,0,0,1,.22,60.4,5.464,5.464,0,0,1,0,58.809c0-1.917,0-3.834,0-5.751,0-1.007.35-1.391,1.359-1.341.6.029.723-.156.722-.732q-.028-15.96-.013-31.92c0-2.919,1.682-4.588,4.619-4.589,1.034,0,2.069-.025,3.1.012.455.016.565-.111.563-.563-.019-4.157-.011-8.314-.011-12.471C10.343.315,10.658,0,11.8,0H52.314c1.143,0,1.459.315,1.459,1.452,0,4.135.01,8.271-.012,12.406,0,.5.116.653.627.631,1.011-.044,2.024-.013,3.036-.013,2.962,0,4.621,1.671,4.621,4.652V48.915c0,.732.031,1.466-.011,2.2-.027.472.091.689.589.592a1.226,1.226,0,0,1,.258,0c.846.02,1.228.389,1.23,1.227.006,2.025.022,4.049,0,6.074a5.08,5.08,0,0,1-5.04,5.088c-6.634.042-13.268.018-19.9.021H32.058M12.433,26.083c-.008.817,0,1.634-.03,2.449-.013.345.1.429.434.428q6.516-.016,13.031,0a.588.588,0,0,0,.568-.319c.6-.987,1.223-1.966,1.836-2.948q1.37-2.127,2.741-4.254c.636-.983,1.456-.971,2.1.022.3.466.609.928.913,1.393,1.215,1.924,2.438,3.843,3.636,5.777.2.323.455.326.76.326,4.217,0,8.434-.015,12.652.013.573,0,.644-.184.641-.685-.021-3.658-.011-7.315-.011-10.973q0-3.228,0-6.455c0-.29.04-.532-.407-.526-2.194.031-4.388.029-6.581.038a.325.325,0,0,0-.063-.012q-15.916-.008-31.831-.022c-.359,0-.42.131-.419.448q.023,7.65.027,15.3m26.8,4.939c.162.28.261.464.372.64q1.627,2.558,3.258,5.114c1.478,2.322,2.963,4.641,4.429,6.97.592.94.155,1.722-.947,1.751-.086,0-.172,0-.259,0H18.049a4.561,4.561,0,0,1-.58-.017,1,1,0,0,1-.814-1.428,4.721,4.721,0,0,1,.358-.611q3.738-5.88,7.476-11.76c.119-.188.319-.35.292-.66h-.636q-6.17,0-12.341,0c-1.161,0-1.461-.3-1.461-1.437q0-3.747,0-7.495c0-1.41,0-1.375-1.388-1.425-.593-.021-.693.166-.692.714q.027,12.761,0,25.521c0,.608.193.677.719.677q23.067-.02,46.133.006c.654,0,.747-.192.745-.783q-.031-12.308-.014-24.617c0-1.529,0-1.51-1.553-1.514-.445,0-.525.146-.522.551.016,2.713.009,5.427.009,8.141,0,1.445-.22,1.661-1.692,1.661H39.237m-7.18,22.748H3.04c-.969,0-.969,0-.969,1V58.2a1.265,1.265,0,0,1,0,.129c-.223,2.184,1.265,3.758,3.685,3.744C17.129,62,28.5,62.04,39.878,62.04c6.183,0,12.366-.054,18.548.027a3.331,3.331,0,0,0,3.636-3.68c-.088-1.243-.016-2.5-.016-3.747,0-.87,0-.87-.841-.87H32.057m.008-2.068q13.6,0,27.2.016c.612,0,.734-.182.723-.749-.036-1.765-.013-3.532-.013-5.3q0-13.407,0-26.814a2.078,2.078,0,0,0-2.01-2.3c-1.27-.042-2.543-.053-3.811,0-.795.036-.324.711-.343,1.054-.017.307-.432.941.34.987.751.045,1.507.01,2.261.01,1.189,0,1.5.305,1.5,1.483q0,14.021,0,28.041c0,1.2-.286,1.5-1.469,1.5H7.657c-1.151,0-1.45-.3-1.45-1.45q0-9.3,0-18.608,0-4.846,0-9.692c0-.886.372-1.256,1.253-1.27.452-.007.9,0,1.357,0,1.579,0,1.567,0,1.533-1.6-.008-.36-.1-.485-.471-.477-1.1.023-2.2.007-3.3.008A2.149,2.149,0,0,0,4.139,19q0,15.991-.015,31.983c0,.6.159.732.739.731q13.6-.028,27.2-.013M32.041,8.272V8.256c6.331,0,12.662-.007,18.993.013.537,0,.685-.135.673-.673-.037-1.636-.031-3.273,0-4.909.008-.472-.1-.618-.6-.618q-19.058.015-38.116-.015c-.513,0-.6.17-.59.627.026,1.636.041,3.274-.006,4.909-.017.593.171.7.718.694,6.31-.019,12.619-.012,18.929-.012m.017,15.378L19.506,43.376H44.613L32.058,23.65" transform="translate(0 0)" fill="#020202"/>
        <path id="Trazado_130153" data-name="Trazado 130153" d="M62.859,90.127H75.7c1.472,0,1.692-.216,1.692-1.661,0-2.714.008-5.427-.009-8.141,0-.4.078-.552.522-.551,1.553,0,1.553-.015,1.553,1.514q0,12.308.014,24.617c0,.591-.091.784-.745.783q-23.067-.033-46.133-.006c-.526,0-.721-.069-.719-.677q.038-12.761,0-25.521c0-.548.1-.735.692-.714,1.387.05,1.388.015,1.388,1.425q0,3.747,0,7.495c0,1.14.3,1.437,1.461,1.437q6.17,0,12.341,0H48.4c.026.31-.173.471-.292.66q-3.733,5.883-7.476,11.76a4.72,4.72,0,0,0-.358.611,1,1,0,0,0,.814,1.428,4.562,4.562,0,0,0,.581.017H69.713c.086,0,.172,0,.259,0,1.1-.028,1.539-.811.947-1.751-1.466-2.33-2.951-4.648-4.429-6.97q-1.628-2.558-3.258-5.114c-.112-.176-.21-.36-.372-.64" transform="translate(-23.622 -59.106)" fill="#abd8f2"/>
        <path id="Trazado_130154" data-name="Trazado 130154" d="M37.917,207.575H67.063c.841,0,.841,0,.841.87,0,1.249-.072,2.5.016,3.747a3.33,3.33,0,0,1-3.636,3.68c-6.181-.081-12.365-.027-18.547-.027-11.374,0-22.749-.036-34.123.029-2.42.014-3.908-1.56-3.685-3.744a1.265,1.265,0,0,0,0-.129v-3.425c0-1,0-1,.969-1H37.917M59.633,211.7c0-1.029,0-1.029-.8-1.03-1.268,0-1.268,0-1.268.82,0,1.25,0,1.25.833,1.251,1.236,0,1.236,0,1.236-1.041m4.136.02c0-1.049,0-1.049-.781-1.05-1.288,0-1.288,0-1.288.8,0,1.271,0,1.271.877,1.271,1.192,0,1.192,0,1.192-1.02" transform="translate(-5.86 -153.805)" fill="#89919e"/>
        <path id="Trazado_130155" data-name="Trazado 130155" d="M43.863,98.96q-13.6,0-27.2.013c-.58,0-.74-.134-.739-.731q.03-15.992.015-31.983A2.148,2.148,0,0,1,18.383,63.8c1.1,0,2.2.015,3.3-.008.374-.008.463.117.471.477.034,1.6.046,1.6-1.533,1.6-.452,0-.9-.005-1.357,0-.881.014-1.252.383-1.253,1.27Q18,71.988,18,76.834q0,9.3,0,18.608c0,1.148.3,1.449,1.45,1.45H68.238c1.183,0,1.469-.294,1.469-1.5q0-14.021,0-28.042c0-1.177-.308-1.481-1.5-1.482-.754,0-1.51.035-2.261-.01-.771-.046-.356-.68-.34-.988.019-.343-.452-1.018.343-1.054,1.268-.057,2.542-.046,3.811,0a2.078,2.078,0,0,1,2.01,2.3q0,13.407,0,26.814c0,1.766-.023,3.533.013,5.3.011.567-.11.75-.723.748q-13.6-.033-27.2-.015" transform="translate(-11.798 -47.258)" fill="#9fa6b0"/>
        <path id="Trazado_130156" data-name="Trazado 130156" d="M67.49,14.147c-6.31,0-12.619-.007-18.929.012-.547,0-.735-.1-.718-.695.047-1.635.032-3.273.006-4.909-.007-.457.076-.628.59-.627q19.058.03,38.117.015c.5,0,.607.146.6.618-.029,1.636-.035,3.273,0,4.909.012.538-.136.675-.673.673-6.331-.019-12.662-.013-18.994-.013v.016m8.294-4.14c-1.037,0-1.037,0-1.037.791,0,1.276,0,1.276.8,1.276,1.262,0,1.262,0,1.263-.818,0-1.249,0-1.249-1.029-1.249m5.165,1.02c-.016-1.166.135-1.009-.744-1.017-1.322-.012-1.322,0-1.322.824,0,1.24,0,1.24.841,1.24,1.226,0,1.226,0,1.226-1.047M84,12.087c1.1,0,1.1,0,1.1-1.119,0-.976,0-.976-.99-.976-1.1,0-1.1,0-1.1,1.122,0,.973,0,.973.989.973" transform="translate(-35.449 -5.874)" fill="#6a89b8"/>
        <path id="Trazado_130157" data-name="Trazado 130157" d="M87.856,91.3l12.555,19.726H75.3L87.856,91.3m1.034,9.439V98.1c0-1.523,0-1.505-1.55-1.509-.435,0-.531.133-.527.544.02,2.061.009,4.123.009,6.185,0,1.6,0,1.592,1.615,1.565.368-.006.467-.112.461-.471-.02-1.224-.008-2.448-.008-3.672m-1.037,8.27c1.038,0,1.038,0,1.038-1.028s0-1.042-1.032-1.042-1.038,0-1.038,1.036,0,1.035,1.032,1.035" transform="translate(-55.798 -67.651)" fill="#f0d68c"/>
        <path id="Trazado_130158" data-name="Trazado 130158" d="M69.515,52.413c-.3-.464-.612-.927-.914-1.393-.644-.993-1.465-1-2.1-.022q-1.374,2.125-2.741,4.254c-.481-.04-.885.325-1.37.264q-.008-6.069-.016-12.138c0-1.067-.33-1.408-1.372-1.409q-4.843,0-9.686,0c-1.007,0-1.35.349-1.351,1.363q0,5.876,0,11.752a2.257,2.257,0,0,0,.165.941c-.77.069-1.452-.368-2.208-.383q-.01-7.65-.027-15.3c0-.318.06-.449.419-.448q15.916.021,31.831.022a.321.321,0,0,1,.063.012l-.773,2.007c-.236.01-.472.028-.708.028q-6.46,0-12.92,0c-1.365,0-1.33,0-1.38,1.362-.022.6.161.725.735.722,4.284-.018,8.569,0,12.853.009.036.315-.214.5-.342.736-.24.447-.68.766-.823,1.277q-5.456.015-10.913.029c-1.5,0-1.477,0-1.507,1.492-.01.5.131.593.6.591,3.25-.015,6.5,0,9.751.011a.717.717,0,0,1-.269.422A23.41,23.41,0,0,1,71.2,51.422a4.627,4.627,0,0,1-1.686.991" transform="translate(-35.486 -29.56)" fill="#ecf6fc"/>
        <path id="Trazado_130159" data-name="Trazado 130159" d="M138.7,46.06c.143-.511.583-.83.823-1.277.128-.238.379-.421.342-.736q2.807-.012,5.614-.023c1.521,0,1.5,0,1.507-1.548,0-.429-.123-.534-.54-.531-1.72.014-3.441-.01-5.162-.02l.773-2.007c2.194-.01,4.388-.008,6.581-.038.447-.006.407.236.407.526q-.005,3.227,0,6.455c0,3.658-.01,7.315.011,10.973,0,.5-.068.689-.641.685-4.217-.029-8.434-.017-12.652-.013-.305,0-.561,0-.761-.326-1.2-1.934-2.421-3.853-3.635-5.777a4.625,4.625,0,0,0,1.686-.991,23.426,23.426,0,0,0,3.312-2.806.716.716,0,0,0,.269-.422q4.455-.012,8.91-.024c1.436,0,1.407,0,1.446-1.418.015-.545-.14-.668-.672-.664-2.539.02-5.078-.007-7.617-.017m2.527,6.235h4.257c1.5,0,1.479,0,1.505-1.484.009-.493-.133-.6-.608-.6-3.075.023-6.149.012-9.224.012-1.579,0-1.56,0-1.568,1.557,0,.438.136.525.542.52,1.7-.021,3.4-.009,5.1-.009m.084,2.068h-4.257c-1.459,0-1.429,0-1.467,1.467-.014.54.178.614.649.611,3.074-.019,6.149-.01,9.224-.01,1.556,0,1.539,0,1.529-1.588,0-.416-.137-.492-.517-.488-1.72.019-3.44.009-5.16.009" transform="translate(-97.337 -29.549)" fill="#c8dcf2"/>
        <path id="Trazado_130160" data-name="Trazado 130160" d="M47.91,99.568c.756.014,1.438.451,2.208.383a1.473,1.473,0,0,0,1.159.425q4.889-.017,9.778,0a1.168,1.168,0,0,0,1.327-.936c.485.061.888-.3,1.37-.263-.613.982-1.231,1.96-1.836,2.947a.588.588,0,0,1-.568.319q-6.516-.013-13.031,0c-.334,0-.447-.083-.434-.428.031-.816.022-1.633.03-2.449" transform="translate(-35.477 -73.485)" fill="#c9ddf4"/>
        <path id="Trazado_130161" data-name="Trazado 130161" d="M201.673,220.562c0,1.041,0,1.041-1.236,1.041-.834,0-.834,0-.833-1.251,0-.82,0-.82,1.268-.82.8,0,.8,0,.8,1.03" transform="translate(-147.899 -162.665)" fill="#020202"/>
        <path id="Trazado_130162" data-name="Trazado 130162" d="M217.64,220.582c0,1.02,0,1.02-1.192,1.02-.878,0-.878,0-.877-1.271,0-.8,0-.8,1.288-.8.781,0,.781,0,.781,1.05" transform="translate(-159.73 -162.665)" fill="#020202"/>
        <path id="Trazado_130163" data-name="Trazado 130163" d="M152.743,15.954c1.029,0,1.029,0,1.029,1.249,0,.819,0,.819-1.263.818-.8,0-.8,0-.8-1.276,0-.79,0-.79,1.037-.79" transform="translate(-112.409 -11.821)" fill="#020203"/>
        <path id="Trazado_130164" data-name="Trazado 130164" d="M169.74,16.973c0,1.047,0,1.047-1.226,1.047-.841,0-.841,0-.84-1.24,0-.828,0-.836,1.322-.824.879.008.728-.149.744,1.017" transform="translate(-124.24 -11.82)" fill="#020203"/>
        <path id="Trazado_130165" data-name="Trazado 130165" d="M184.585,17.991c-.989,0-.989,0-.989-.973,0-1.122,0-1.122,1.1-1.122.99,0,.99,0,.99.976,0,1.119,0,1.119-1.1,1.119" transform="translate(-136.038 -11.778)" fill="#020203"/>
        <path id="Trazado_130166" data-name="Trazado 130166" d="M121.809,115.865c0,1.224-.013,2.449.008,3.673.006.359-.093.464-.461.471-1.615.027-1.615.04-1.615-1.565,0-2.062.011-4.124-.009-6.186,0-.411.092-.545.527-.544,1.55,0,1.55-.015,1.55,1.509v2.642" transform="translate(-88.717 -82.776)" fill="#010101"/>
        <path id="Trazado_130167" data-name="Trazado 130167" d="M120.8,153.744c-1.032,0-1.032,0-1.032-1.035s0-1.036,1.038-1.036,1.032,0,1.032,1.042,0,1.028-1.038,1.028" transform="translate(-88.741 -112.385)" fill="#030304"/>
        <path id="Trazado_130168" data-name="Trazado 130168" d="M68.309,61.448a1.167,1.167,0,0,1-1.327.935q-4.889-.024-9.778,0a1.474,1.474,0,0,1-1.159-.425,2.258,2.258,0,0,1-.165-.942q.009-5.876,0-11.752c0-1.014.343-1.362,1.351-1.363q4.843,0,9.686,0c1.042,0,1.37.341,1.372,1.409q.009,6.069.016,12.138M57.953,55.119c0,1.55.007,3.1-.005,4.651,0,.35.031.548.474.544,2.455-.021,4.91-.015,7.364,0,.334,0,.445-.1.444-.441q-.016-4.716,0-9.432c0-.364-.107-.481-.475-.479q-3.65.021-7.3,0c-.4,0-.516.115-.511.511.02,1.55.008,3.1.008,4.651" transform="translate(-41.405 -35.491)" fill="#010202"/>
        <path id="Trazado_130169" data-name="Trazado 130169" d="M126.722,47.774c1.721.01,3.441.034,5.162.02.417,0,.541.1.54.531,0,1.547.014,1.544-1.507,1.547q-2.807.007-5.614.024c-4.284-.008-8.569-.027-12.853-.009-.573,0-.757-.121-.735-.722.05-1.361.015-1.362,1.38-1.362q6.46,0,12.92,0c.236,0,.472-.018.708-.028" transform="translate(-82.775 -35.399)" fill="#030304"/>
        <path id="Trazado_130170" data-name="Trazado 130170" d="M124.144,63.74c2.539.01,5.078.038,7.617.017.533,0,.687.119.672.664-.039,1.417-.01,1.415-1.446,1.418q-4.454.01-8.909.024c-3.25-.008-6.5-.026-9.751-.011-.472,0-.613-.095-.6-.591.031-1.491.006-1.489,1.507-1.492q5.456-.012,10.913-.029" transform="translate(-82.783 -47.229)" fill="#030304"/>
        <path id="Trazado_130171" data-name="Trazado 130171" d="M153.3,81.861c-1.7,0-3.4-.012-5.1.009-.405.005-.544-.082-.542-.52.008-1.557-.011-1.557,1.568-1.557,3.075,0,6.15.011,9.224-.012.475,0,.616.1.607.6-.026,1.484,0,1.484-1.505,1.484H153.3" transform="translate(-109.414 -59.115)" fill="#030304"/>
        <path id="Trazado_130172" data-name="Trazado 130172" d="M153.375,95.769c1.72,0,3.441.011,5.16-.009.38,0,.514.072.517.488.01,1.588.028,1.588-1.529,1.588-3.075,0-6.15-.009-9.224.01-.471,0-.663-.071-.649-.611.038-1.466.009-1.467,1.467-1.467h4.257" transform="translate(-109.403 -70.955)" fill="#030304"/>
        <path id="Trazado_130173" data-name="Trazado 130173" d="M63.858,61.008c0-1.55.012-3.1-.008-4.651,0-.4.115-.514.511-.511q3.65.024,7.3,0c.368,0,.477.115.475.479q-.018,4.716,0,9.432c0,.34-.11.442-.444.441-2.455-.011-4.91-.016-7.364,0-.443,0-.477-.194-.474-.544.012-1.55.005-3.1.005-4.651" transform="translate(-47.31 -41.38)" fill="#4c71aa"/>
      </g>
    </g>
  </g>
</svg>
