<svg xmlns="http://www.w3.org/2000/svg" xmlns:xlink="http://www.w3.org/1999/xlink" width="96" height="96" viewBox="0 0 96 96">
  <defs>
    <clipPath id="clip-path">
      <rect id="Rect치ngulo_36998" data-name="Rect치ngulo 36998" width="96" height="96" fill="#fff" stroke="#707070" stroke-width="1"/>
    </clipPath>
    <clipPath id="clip-path-2">
      <rect id="Rect치ngulo_36997" data-name="Rect치ngulo 36997" width="79.687" height="76.109" fill="none"/>
    </clipPath>
  </defs>
  <g id="Grupo_86831" data-name="Grupo 86831" clip-path="url(#clip-path)">
    <g id="Grupo_86830" data-name="Grupo 86830" transform="translate(8.157 9.945)">
      <g id="Grupo_86829" data-name="Grupo 86829" clip-path="url(#clip-path-2)">
        <path id="Trazado_131750" data-name="Trazado 131750" d="M63.5,90.968a1.265,1.265,0,0,1,1.172,1.459c-.009,1.219.013,2.438-.01,3.657-.007.4.1.545.52.527.725-.032,1.452-.015,2.178-.007.987.011,1.425.458,1.414,1.427a7.043,7.043,0,0,1-6.589,6.815c-.233.011-.467.011-.7.011q-27.116,0-54.233,0a6.973,6.973,0,0,1-7.177-6A5.4,5.4,0,0,1,0,97.923a1.173,1.173,0,0,1,1.28-1.318c.752-.017,1.506-.029,2.256.006.445.021.571-.122.561-.563-.029-1.218-.01-2.437-.01-3.656q0-13.5,0-27a6.551,6.551,0,0,1,4.966-6.678,8.314,8.314,0,0,1,2.081-.213q22.059.005,44.117.021c.741,0,.94-.159.93-.919-.046-3.5-.026-7-.019-10.5a5,5,0,0,1,5.288-5.325q6.458-.017,12.916,0a5.019,5.019,0,0,1,5.314,5.31q.008,12.915,0,25.829a5.044,5.044,0,0,1-5.217,5.271c-2.956.025-5.913.031-8.87-.012-.721-.011-.965.124-.947.909.057,2.644.025,5.29.02,7.935,0,1.065-.177,1.3-1.172,1.637-1.012-.327-1.206-.593-1.207-1.69,0-2.36.006-4.72-.006-7.08,0-.539.219-1.193-.1-1.584-.272-.336-.93-.045-1.407-.153-.05-.012-.106,0-.154-.019-.611-.2-.714.065-.711.638.023,4.539.013,9.077.013,13.616,0,1.564-.294,1.859-1.857,1.859H10.678c-.181,0-.364.009-.545,0A1.191,1.191,0,0,1,8.851,92.91q-.009-13.888-.006-27.776a1.842,1.842,0,0,1,.625-1.447,2.3,2.3,0,0,1,1.688-.42H54.5c1.672,0,1.639,0,1.68-1.636C56.2,61,56,60.869,55.4,60.869q-22.216.025-44.433.013a5.173,5.173,0,0,0-1.537.184A4.163,4.163,0,0,0,6.476,65.4c0,10.115.006,20.229-.019,30.344,0,.716.187.877.887.876q21.671-.032,43.343-.016c3.657,0,7.315-.011,10.972.012.512,0,.656-.135.64-.643-.038-1.166-.019-2.334-.009-3.5.008-.966.273-1.284,1.21-1.5M74.686,69.784c.721.012,1.443.013,2.164.041.372.014.5-.135.489-.5-.029-1.391-.039-2.782-.055-4.173q.012-4.266.023-8.531c.007-1.987.007-3.974.027-5.961,0-.364-.122-.529-.484-.513-.256.012-.511.021-.767.032-2.249-.012-4.5-.035-6.746-.033-1.472,0-2.943.035-4.415.055-1.987-.156-3.978-.023-5.967-.071-.338-.008-.445.133-.443.46q.031,5.663.045,11.326c-.013,2.488-.02,4.976-.043,7.464,0,.35.135.438.46.435,2.332-.025,4.664-.036,7-.052,1.41.092,2.821.058,4.231.019h4.485M30.978,91.821a38.518,38.518,0,0,0,4.5-.005,1.086,1.086,0,0,0,.226.049q10.659.005,21.319.013c.452,0,.556-.164.555-.588q-.019-7.119,0-14.237a1.006,1.006,0,0,0-.248-.7,5.073,5.073,0,0,1-1.17-3.449c.023-2.23,0-4.46.014-6.69,0-.41-.066-.6-.542-.592-2.1.034-4.2.03-6.3.04l-4.661,0-4.208,0-11.356,0c-.233-.011-.465-.031-.7-.031-5.473,0-10.946.011-16.419-.018-.65,0-.8.159-.8.8.027,6.406.016,12.812.016,19.218q0,2.84,0,5.68c0,.288-.053.575.406.562,1.268-.034,2.537-.039,3.806-.056,1.735.017,3.47.048,5.205.047,1.994,0,3.988-.032,5.982-.049a36.222,36.222,0,0,0,4.377,0M2.569,98.954a1.36,1.36,0,0,0,.194.768,4.647,4.647,0,0,0,4.55,2.781H61.468c.156,0,.312.006.467-.006a4.613,4.613,0,0,0,3.978-2.576c.478-.914.44-.966-.552-.966H2.569ZM67.86,75.778c2.2,0,4.4,0,6.607,0a2.757,2.757,0,0,0,2.88-2.951c0-.512-.152-.671-.661-.661-1.476.029-2.953.01-4.43.01-4.327,0-8.654.013-12.98-.015-.63,0-.785.19-.768.788a2.675,2.675,0,0,0,2.824,2.827c2.176.01,4.353,0,6.529,0m.089-28.02c2.879,0,5.759-.022,8.637.016.658.009.782-.232.756-.809a2.739,2.739,0,0,0-2.873-2.809q-6.576-.007-13.151,0a2.694,2.694,0,0,0-2.812,2.78c-.025.632.138.845.806.836,2.879-.037,5.758-.016,8.637-.016" transform="translate(0 -28.748)" fill="#030303"/>
        <path id="Trazado_131751" data-name="Trazado 131751" d="M77.752,133.125c-.937.22-1.2.538-1.21,1.5-.009,1.167-.028,2.335.009,3.5.017.508-.128.646-.64.643-3.657-.023-7.315-.012-10.972-.012q-21.672,0-43.343.016c-.7,0-.889-.161-.887-.876q.038-15.172.019-30.344a4.164,4.164,0,0,1,2.957-4.334,5.185,5.185,0,0,1,1.537-.183q22.216,0,44.433-.013c.6,0,.794.134.778.763-.041,1.635-.008,1.636-1.68,1.636H25.411a2.3,2.3,0,0,0-1.688.42,1.841,1.841,0,0,0-.625,1.446q.006,13.888.006,27.776a1.191,1.191,0,0,0,1.282,1.332c.181.012.363,0,.545,0H72.321c1.563,0,1.857-.295,1.857-1.859,0-4.539.01-9.077-.012-13.616,0-.572.1-.838.711-.638.048.016.1.008.154.019.477.109,1.135-.183,1.408.153.317.391.1,1.045.1,1.583.012,2.36,0,4.72.006,7.08,0,1.1.2,1.363,1.208,1.69q0,1.155,0,2.31" transform="translate(-14.253 -70.905)" fill="#ececec"/>
        <path id="Trazado_131752" data-name="Trazado 131752" d="M30.989,0a29.989,29.989,0,0,1,20.7,8.659c.875.841.889,1.389.056,2.231q-1.423,1.436-2.86,2.858c-.79.779-1.32.788-2.126.011A22.647,22.647,0,0,0,33.984,7.4,23.1,23.1,0,0,0,14.4,13.381c-.211.191-.406.4-.623.586a1.131,1.131,0,0,1-1.673-.006c-1.135-1.1-2.26-2.213-3.351-3.357-.561-.589-.473-1.189.185-1.832A30.412,30.412,0,0,1,18.721,2.3,31.864,31.864,0,0,1,30.989,0m-.912,4.739a25.9,25.9,0,0,1,16.625,5.8c1.131.912,1.1.889,2.181-.12.484-.454.531-.683-.012-1.166a28.284,28.284,0,0,0-36.264-.582c-1.374,1.111-1.36,1.1-.129,2.349.363.369.572.406.99.044a25.291,25.291,0,0,1,16.61-6.322" transform="translate(-5.772 0.001)" fill="#040403"/>
        <path id="Trazado_131753" data-name="Trazado 131753" d="M35.962,32.451c-.116-1.091.029-1.374,1.082-1.739q12.586-4.37,22.5,4.543c.922.83.9,1.4.028,2.282-.951.957-1.9,1.915-2.863,2.86a1.253,1.253,0,0,1-2.023.028,14.287,14.287,0,0,0-19.944,0,1.261,1.261,0,0,1-2.026-.02q-1.5-1.473-2.972-2.971a1.253,1.253,0,0,1,0-2.067,20.356,20.356,0,0,1,2.887-2.358c.826-.555,1.143-.536,1.926.115.311.939.2,1.268-.6,1.842a14.648,14.648,0,0,0-1.937,1.553,13.889,13.889,0,0,1,1.224,1.091c.362.4.58.443,1.047.072a16.7,16.7,0,0,1,19.852-.755c.531.36.986,1.177,1.605.985.569-.176.972-.89,1.446-1.369a.653.653,0,0,0,.077-.149c-.171-.151-.338-.315-.522-.456a18.886,18.886,0,0,0-18.741-3.058c-1.1.383-1.381.347-2.047-.425" transform="translate(-20.096 -20.147)" fill="#040403"/>
        <path id="Trazado_131754" data-name="Trazado 131754" d="M58.927,58.587a12.266,12.266,0,0,1,8.392,3.326c.867.805.869,1.382.026,2.232Q65.92,65.581,64.483,67a1.248,1.248,0,0,1-2.023.094,5.157,5.157,0,0,0-7.117.022,1.2,1.2,0,0,1-1.907-.035q-1.558-1.522-3.081-3.08a1.2,1.2,0,0,1,.059-2,12.279,12.279,0,0,1,8.512-3.415m-6.175,4.539c.459.434.9.8,1.277,1.223.321.368.552.341.956.1A7.536,7.536,0,0,1,62.058,64c.482.2.89.813,1.4.6.465-.192.766-.753,1.185-1.1s.3-.526-.087-.787a9.88,9.88,0,0,0-7.328-1.6,9.329,9.329,0,0,0-4.476,2.007" transform="translate(-34.306 -40.321)" fill="#050404"/>
        <path id="Trazado_131755" data-name="Trazado 131755" d="M42.187,37.686c.665.772.943.808,2.047.425a18.886,18.886,0,0,1,18.741,3.058c.184.141.35.305.522.456a.653.653,0,0,1-.077.149c-.474.479-.877,1.193-1.446,1.369-.619.192-1.075-.625-1.605-.985a16.7,16.7,0,0,0-19.852.755c-.467.371-.685.33-1.047-.072a13.889,13.889,0,0,0-1.224-1.091A14.648,14.648,0,0,1,40.182,40.2c.807-.574.914-.9.6-1.842l1.4-.67" transform="translate(-26.321 -25.382)" fill="#f3db7c"/>
        <path id="Trazado_131756" data-name="Trazado 131756" d="M127.649,118.3c2.1-.01,4.2-.006,6.3-.039.475-.008.544.182.542.592-.016,2.23.009,4.461-.014,6.691a5.075,5.075,0,0,0,1.17,3.449,1,1,0,0,1,.248.7q-.007,7.118,0,14.237c0,.424-.1.589-.555.588q-10.66-.018-21.32-.013a1.085,1.085,0,0,1-.226-.049q3.127-5.882,6.252-11.766,3.807-7.192,7.6-14.392" transform="translate(-78.319 -81.389)" fill="#85cade"/>
        <path id="Trazado_131757" data-name="Trazado 131757" d="M63.127,118.389l11.356,0a5.149,5.149,0,0,1-.768,1.51c-1.667,3.152-3.351,6.3-5.024,9.446q-4.037,7.6-8.067,15.2c-1.994.018-3.988.048-5.982.05-1.735,0-3.47-.03-5.205-.047a3.454,3.454,0,0,1,.661-1.382q4.35-8.236,8.707-16.469c1.017-1.919,2.075-3.818,3.089-5.739.444-.84.824-1.713,1.234-2.57" transform="translate(-34.023 -81.476)" fill="#9bccf4"/>
        <path id="Trazado_131758" data-name="Trazado 131758" d="M53.8,118.29c-.409.858-.79,1.731-1.234,2.57-1.014,1.921-2.072,3.819-3.089,5.739q-4.363,8.229-8.707,16.469a3.454,3.454,0,0,0-.661,1.382c-1.268.017-2.537.022-3.805.056-.46.012-.407-.275-.406-.562q0-2.84,0-5.68c0-6.406.011-12.812-.016-19.218,0-.645.15-.807.8-.8,5.473.029,10.946.016,16.42.018.232,0,.465.02.7.031" transform="translate(-24.693 -81.376)" fill="#85cade"/>
        <path id="Trazado_131759" data-name="Trazado 131759" d="M8.229,225.181H71.02c.992,0,1.031.052.552.966a4.613,4.613,0,0,1-3.978,2.576c-.155.012-.311.006-.467.006H12.973a4.647,4.647,0,0,1-4.55-2.781,1.358,1.358,0,0,1-.194-.768" transform="translate(-5.66 -154.975)" fill="#e2e2e2"/>
        <path id="Trazado_131760" data-name="Trazado 131760" d="M195.134,88.254c-2.332.016-4.664.027-7,.052-.325,0-.463-.085-.46-.435.023-2.488.031-4.976.043-7.464.313-.061.349-.354.467-.571,1.032-1.9,2.07-3.807,3.084-5.722.952-1.8,1.877-3.614,2.814-5.422,1.472-.019,2.943-.054,4.415-.055,2.249,0,4.5.021,6.746.033a1.305,1.305,0,0,1-.28.942q-2.476,4.655-4.961,9.306c-1.036,1.937-2.122,3.848-3.108,5.811a24.019,24.019,0,0,0-1.766,3.524" transform="translate(-129.165 -47.238)" fill="#afd09d"/>
        <path id="Trazado_131761" data-name="Trazado 131761" d="M117.709,118.387q-3.8,7.2-7.6,14.392-3.117,5.888-6.252,11.766a38.45,38.45,0,0,1-4.5.005c-.022-.431.308-.7.486-1.034q4.227-7.994,8.464-15.983c1.043-1.964,2.145-3.9,3.151-5.882a20.432,20.432,0,0,0,1.589-3.26l4.661,0" transform="translate(-68.379 -81.477)" fill="#9bccf4"/>
        <path id="Trazado_131762" data-name="Trazado 131762" d="M103.387,118.389a20.435,20.435,0,0,1-1.589,3.261c-1.006,1.983-2.108,3.917-3.151,5.882q-4.241,7.987-8.464,15.983c-.178.336-.509.6-.487,1.034a36.159,36.159,0,0,1-4.377,0q4.033-7.6,8.067-15.2c1.673-3.15,3.357-6.294,5.024-9.446a5.149,5.149,0,0,0,.768-1.51l4.208,0" transform="translate(-58.719 -81.476)" fill="#85c9dc"/>
        <path id="Trazado_131763" data-name="Trazado 131763" d="M211.592,88.255a24.019,24.019,0,0,1,1.766-3.524c.986-1.962,2.072-3.874,3.108-5.811q2.487-4.65,4.961-9.306a1.305,1.305,0,0,0,.28-.942c.256-.011.511-.02.767-.032.362-.017.487.148.484.513-.02,1.987-.02,3.974-.027,5.961-.323.047-.356.344-.472.561-1.55,2.887-3.124,5.763-4.628,8.674a40.483,40.483,0,0,0-2.006,3.925c-1.411.039-2.821.073-4.231-.019" transform="translate(-145.623 -47.239)" fill="#8ab077"/>
        <path id="Trazado_131764" data-name="Trazado 131764" d="M197.006,142.858c-2.176,0-4.353.007-6.529,0a2.675,2.675,0,0,1-2.824-2.827c-.017-.6.137-.792.768-.788,4.327.028,8.654.015,12.98.015,1.477,0,2.954.019,4.43-.01.509-.01.665.149.661.661a2.756,2.756,0,0,1-2.879,2.951c-2.2.007-4.4,0-6.607,0" transform="translate(-129.146 -95.828)" fill="#4d505e"/>
        <path id="Trazado_131765" data-name="Trazado 131765" d="M197.091,53.015c-2.879,0-5.759-.021-8.637.016-.668.008-.831-.2-.806-.836a2.694,2.694,0,0,1,2.812-2.78q6.576-.01,13.151,0a2.739,2.739,0,0,1,2.873,2.809c.026.577-.1.817-.756.809-2.879-.038-5.758-.016-8.637-.016" transform="translate(-129.142 -34.005)" fill="#4d505e"/>
        <path id="Trazado_131766" data-name="Trazado 131766" d="M225.164,102.567a40.483,40.483,0,0,1,2.006-3.925c1.5-2.912,3.078-5.787,4.628-8.674.116-.216.149-.514.472-.561q-.012,4.265-.023,8.531c-.313.113-.35.43-.48.67-.713,1.316-1.413,2.639-2.118,3.96h-4.485" transform="translate(-154.963 -61.532)" fill="#afd09d"/>
        <path id="Trazado_131767" data-name="Trazado 131767" d="M194.086,68.639c-.937,1.808-1.862,3.622-2.814,5.421-1.014,1.915-2.052,3.817-3.084,5.722-.118.217-.154.51-.467.571q-.02-5.663-.044-11.326c0-.327.1-.468.443-.46,1.989.047,3.979-.085,5.967.071" transform="translate(-129.163 -47.185)" fill="#86aa74"/>
        <path id="Trazado_131768" data-name="Trazado 131768" d="M239.55,121.4c.7-1.321,1.4-2.644,2.118-3.96.13-.24.167-.557.48-.671.017,1.391.027,2.782.056,4.173.008.363-.117.513-.489.5-.721-.028-1.443-.029-2.164-.041" transform="translate(-164.864 -80.363)" fill="#81a170"/>
        <path id="Trazado_131769" data-name="Trazado 131769" d="M37.094,9.991a25.291,25.291,0,0,0-16.61,6.322c-.417.362-.626.325-.99-.044-1.231-1.252-1.245-1.238.129-2.349a28.284,28.284,0,0,1,36.264.582c.543.482.5.711.012,1.166-1.076,1.01-1.05,1.032-2.181.12a25.9,25.9,0,0,0-16.625-5.8" transform="translate(-12.788 -5.252)" fill="#f3da7b"/>
        <path id="Trazado_131770" data-name="Trazado 131770" d="M59.164,68.4a9.329,9.329,0,0,1,4.476-2.007,9.88,9.88,0,0,1,7.328,1.6c.387.261.509.44.087.787s-.719.906-1.185,1.1c-.51.21-.918-.406-1.4-.6a7.536,7.536,0,0,0-7.073.453c-.4.242-.635.268-.956-.1-.372-.427-.817-.789-1.277-1.223" transform="translate(-40.718 -45.596)" fill="#f3db7c"/>
      </g>
    </g>
  </g>
</svg>
