<svg xmlns="http://www.w3.org/2000/svg" xmlns:xlink="http://www.w3.org/1999/xlink" width="81.311" height="81.311" viewBox="0 0 81.311 81.311">
  <defs>
    <clipPath id="clip-path">
      <rect id="Rect치ngulo_36626" data-name="Rect치ngulo 36626" width="81.311" height="81.311" fill="#fff" stroke="#707070" stroke-width="1"/>
    </clipPath>
    <clipPath id="clip-path-2">
      <rect id="Rect치ngulo_36877" data-name="Rect치ngulo 36877" width="66.602" height="47.243" fill="none"/>
    </clipPath>
  </defs>
  <g id="Grupo_85838" data-name="Grupo 85838" clip-path="url(#clip-path)">
    <g id="Grupo_86499" data-name="Grupo 86499" transform="translate(7.354 17.034)">
      <g id="Grupo_86491" data-name="Grupo 86491" transform="translate(0 0)" clip-path="url(#clip-path-2)">
        <path id="Trazado_130088" data-name="Trazado 130088" d="M33.34,95.791H65.024c1.283,0,1.574.292,1.575,1.573,0,1.185,0,2.371,0,3.556-.005.919-.388,1.3-1.3,1.312a8.731,8.731,0,0,0-.939.013,1.021,1.021,0,0,0-.97,1.017,1.045,1.045,0,0,0,.953,1.1c.354.038.716.007,1.073.017a1.067,1.067,0,0,1,1.182,1.154q.016,5.3,0,10.6a1.062,1.062,0,0,1-1.147,1.124c-.156.007-.313,0-.47,0H32.754c-1.315,0-1.6-.288-1.6-1.619,0-.515.013-1.029,0-1.543a1.071,1.071,0,1,0-2.139.008c-.017.581,0,1.163,0,1.744,0,1.051-.357,1.409-1.407,1.41q-10.505,0-21.011,0c-1.745,0-3.49,0-5.236,0-.965,0-1.344-.377-1.345-1.334q-.005-5.1,0-10.2c0-.971.37-1.339,1.329-1.349a6.6,6.6,0,0,0,.938-.016,1.026,1.026,0,0,0,.945-1.043,1.04,1.04,0,0,0-.979-1.077c-.355-.031-.716,0-1.074-.014a1.062,1.062,0,0,1-1.154-1.116q-.028-2.113,0-4.227a1.048,1.048,0,0,1,1.1-1.093c.2-.01.4,0,.6,0H33.34m-.017,2.147H3.79c-1.689,0-1.682,0-1.64,1.676.008.307.052.441.417.5a3.211,3.211,0,0,1,.031,6.367c-.386.068-.449.2-.448.547.012,2.527.018,5.054,0,7.581,0,.436.147.518.539.509,1.029-.024,2.058,0,3.088-.01.556,0,1.292.185,1.621-.1.385-.329.116-1.089.128-1.66.023-1.138.337-1.463,1.491-1.463q9.028,0,18.055.005a1.445,1.445,0,0,0,1.025-.352,3.05,3.05,0,0,1,3.948-.025,1.556,1.556,0,0,0,1.084.378q10.907-.013,21.814-.006c.94,0,1.879,0,2.819,0s1.31.378,1.323,1.29c.006.47.026.941-.006,1.408-.028.4.091.54.516.532,1.409-.027,2.82-.04,4.228,0,.561.018.649-.183.644-.679q-.035-3.623,0-7.246c0-.469-.081-.666-.61-.759a3.165,3.165,0,0,1-2.616-2.917,3.283,3.283,0,0,1,2.113-3.258c.36-.137.9.024,1.064-.362a3.32,3.32,0,0,0,.039-1.195.371.371,0,0,1,0-.067c.121-.6-.146-.724-.723-.723q-15.2.028-30.406.013M10.734,114.584c.109-.449-.084-.558-.518-.558s-.564.1-.559.548c.005.426.1.568.55.557.416-.01.644-.082.527-.547m3.214.006c.111-.388.012-.6-.479-.561-.366.026-.634,0-.588.514.033.364.005.639.515.585.354-.037.7.019.551-.538m3.222,0c.111-.389.01-.6-.479-.561-.366.026-.635,0-.587.514.034.364,0,.639.515.585.353-.038.7.02.552-.538m3.222,0c.111-.389.011-.6-.479-.561-.366.026-.635,0-.587.514.034.364,0,.639.515.585.353-.038.7.02.551-.538m3.221-.011c.129-.406-.014-.574-.486-.551-.38.018-.618.025-.581.521.028.378.028.623.523.579.366-.033.688,0,.543-.549m3.222-.01c.147-.427-.041-.551-.493-.541-.4.009-.6.051-.575.529.022.393.053.605.532.572.381-.026.675-.029.535-.561m7.529.055c.076-.4.012-.636-.488-.6-.365.03-.635,0-.587.514.034.364,0,.639.515.585.353-.038.7.02.561-.5m2.7-.568c-.449-.109-.558.084-.558.518s.1.564.548.558c.426-.005.568-.1.557-.549-.01-.415-.082-.644-.547-.527m3.211,1.046c.449.109.559-.084.558-.518s-.1-.564-.548-.558c-.426.005-.568.1-.557.55.01.416.082.644.547.527m3.743-.512c.112-.388.012-.6-.479-.561-.366.026-.634,0-.588.514.033.364.005.639.515.585.354-.037.7.019.551-.538m2.671.512c.41.086.618-.009.587-.494-.024-.378-.027-.617-.523-.581-.378.028-.623.029-.579.523.033.366,0,.688.515.552m2.728-.611c-.03.369-.082.706.468.634.326-.043.685.072.608-.486-.045-.325.071-.691-.487-.6-.314.048-.737-.1-.59.457m4.277.144c.063-.387.036-.657-.482-.606-.352.035-.65-.019-.594.506.038.352-.018.655.507.592.342-.041.709.041.569-.492m3.212-.045c.112-.388.012-.6-.479-.561-.366.026-.634,0-.588.513.033.364.005.639.515.585.353-.037.7.02.551-.538" transform="translate(0 -70.022)"/>
        <path id="Trazado_130089" data-name="Trazado 130089" d="M33.281,0H65.032C66.306,0,66.6.3,66.6,1.585c0,1.185.005,2.371,0,3.556-.005.914-.391,1.291-1.311,1.3a7.964,7.964,0,0,0-.939.014,1.023,1.023,0,0,0-.963,1.025,1.041,1.041,0,0,0,.961,1.095c.377.038.761,0,1.14.018a1.044,1.044,0,0,1,1.1,1.094q.02,5.334,0,10.669A1.053,1.053,0,0,1,65.5,21.472c-.156.01-.313,0-.47,0H32.747c-1.294,0-1.59-.291-1.592-1.559,0-.537.014-1.074,0-1.61a1.071,1.071,0,1,0-2.139.024c-.016.648.006,1.3-.007,1.946a1.081,1.081,0,0,1-1.21,1.2q-13.291.007-26.582,0a1.074,1.074,0,0,1-1.2-1.2Q0,15.033.011,9.8a1.081,1.081,0,0,1,1.2-1.207c.313-.009.627.013.939-.006a1.068,1.068,0,0,0,.018-2.136c-.334-.022-.672,0-1.007-.009A1.061,1.061,0,0,1,.014,5.319q-.027-2.113,0-4.227A1.048,1.048,0,0,1,1.127.005c.2-.01.4,0,.6,0h31.55m.091,2.147H3.773c-1.683,0-1.672,0-1.626,1.694.009.335.1.428.437.488a3.213,3.213,0,0,1,0,6.371c-.343.062-.432.165-.43.493q.017,3.824,0,7.649c0,.377.1.5.486.492,1.051-.024,2.1,0,3.154-.012.554-.008,1.266.236,1.62-.1s.1-1.057.111-1.608c.022-1.2.321-1.513,1.509-1.513q8.994,0,17.988,0a1.521,1.521,0,0,0,1.09-.36,3.033,3.033,0,0,1,3.945,0,1.536,1.536,0,0,0,1.089.364q12.115-.01,24.23-.005c.2,0,.4-.009.6,0a1.063,1.063,0,0,1,1.1,1.105,12.139,12.139,0,0,1,0,1.542c-.042.492.151.589.6.58q2.113-.042,4.228,0c.441.008.561-.121.558-.559-.02-2.437-.024-4.875,0-7.313.005-.495-.069-.71-.629-.812a3.159,3.159,0,0,1-2.6-3,3.247,3.247,0,0,1,2.262-3.214c.957-.3.957-.3.957-1.332a1.251,1.251,0,0,1,0-.2c.1-.593-.111-.776-.742-.774q-15.169.033-30.338.016M16.128,18.719c-.046.376-.061.683.474.62.338-.04.669.048.6-.5-.042-.337.047-.674-.5-.6-.327.045-.724-.074-.579.475m-2.172.077c.109-.449-.084-.559-.518-.558s-.564.1-.559.548c.005.426.1.568.55.557.416-.01.644-.082.527-.547m-3.673-.533c-.376-.046-.683-.061-.62.474.04.338-.048.669.5.6.337-.042.675.047.6-.5-.045-.327.074-.723-.475-.579m10.119.572c.075-.4.013-.637-.488-.6-.366.03-.634,0-.588.514.033.364.006.639.515.585.353-.037.7.02.56-.5m3.221-.01c.086-.41-.009-.618-.494-.587-.379.024-.618.027-.582.522.028.378.029.623.524.579.366-.033.688,0,.552-.515m13.4.488c.41.086.618-.009.587-.494-.024-.379-.027-.618-.523-.581-.378.028-.623.028-.579.523.032.366,0,.688.515.552m-11.232-.6c-.046.376-.062.683.474.62.338-.04.669.048.6-.5-.042-.337.047-.674-.5-.6-.327.045-.724-.074-.579.475m8.57.117c.075-.4.013-.637-.488-.6-.365.03-.634,0-.587.514.033.364.006.639.515.585.353-.037.7.02.56-.5m5.864.48c.387.063.657.036.606-.482-.035-.352.019-.65-.506-.594-.352.038-.655-.018-.592.507.041.342-.041.709.493.568m16.212-1.049c-.4-.076-.636-.011-.6.488.03.365,0,.634.514.587.364-.034.639-.005.586-.515-.037-.354.019-.7-.5-.56m-3.272,1.047c.449.109.558-.084.558-.518s-.1-.564-.548-.558c-.426.005-.568.1-.557.549.01.416.082.644.547.527m-3.191-1.046c-.423-.093-.6.034-.578.5.017.393.051.6.531.573.392-.022.606-.052.572-.532-.026-.381-.029-.674-.526-.544m-3.222,0c-.423-.093-.6.034-.578.5.017.393.051.6.531.573.392-.022.606-.052.573-.532-.027-.381-.029-.674-.526-.544m-3.263,1.046c.437.1.577-.06.568-.511-.008-.411-.08-.581-.541-.566-.41.013-.586.08-.564.541.019.4.057.659.537.535" transform="translate(0 0)"/>
        <path id="Trazado_130090" data-name="Trazado 130090" d="M39.135,103.744q15.2,0,30.406-.013c.577,0,.844.118.723.723a.37.37,0,0,0,0,.067,3.319,3.319,0,0,1-.039,1.195c-.164.386-.7.225-1.064.362a3.283,3.283,0,0,0-2.113,3.257,3.165,3.165,0,0,0,2.616,2.917c.529.094.614.29.61.759q-.031,3.623,0,7.246c0,.5-.084.7-.644.679-1.408-.045-2.819-.032-4.228,0-.426.008-.544-.127-.516-.532.033-.468.013-.939.006-1.408-.013-.912-.394-1.284-1.323-1.29s-1.879,0-2.819,0q-10.907,0-21.814.006a1.556,1.556,0,0,1-1.084-.378,3.05,3.05,0,0,0-3.948.025,1.445,1.445,0,0,1-1.025.352q-9.028-.012-18.056-.005c-1.154,0-1.468.325-1.491,1.463-.011.572.257,1.332-.128,1.66-.328.28-1.065.092-1.621.1-1.029.006-2.059-.014-3.088.01-.392.009-.543-.073-.539-.509.022-2.527.016-5.054,0-7.581,0-.342.062-.479.448-.547a3.211,3.211,0,0,0-.031-6.367c-.365-.063-.409-.2-.417-.5-.042-1.677-.048-1.676,1.64-1.676Zm-12.9,10.735c3.2,0,6.4.011,9.594,0a3.214,3.214,0,0,0,3.284-3.262c.01-.693.011-1.386,0-2.079a3.2,3.2,0,0,0-3.235-3.238q-9.661-.017-19.323,0a3.2,3.2,0,0,0-3.215,3.19c-.013.626,0,1.252,0,1.878a3.251,3.251,0,0,0,3.5,3.515q4.7.006,9.393,0m39.731-3.207c0-1.026.009-2.053,0-3.08a1.09,1.09,0,0,0-1.245-1.225q-1.976-.014-3.952,0a1.085,1.085,0,0,0-1.241,1.228q-.014,3.046,0,6.093c0,.871.4,1.256,1.278,1.263q1.942.013,3.885,0c.879-.006,1.268-.394,1.276-1.266.01-1,0-2.009,0-3.013m-13.963,0c0,1-.007,2.009,0,3.013.008.845.392,1.254,1.211,1.262q2.009.021,4.019,0a1.076,1.076,0,0,0,1.208-1.2q.018-3.08,0-6.16a1.087,1.087,0,0,0-1.244-1.226q-1.976-.014-3.952,0a1.087,1.087,0,0,0-1.242,1.227c-.011,1.027,0,2.054,0,3.08m-1.074-.034c0-1.027.01-2.054,0-3.08a1.077,1.077,0,0,0-1.209-1.193q-2.009-.017-4.019,0a1.072,1.072,0,0,0-1.208,1.192q-.017,3.08,0,6.16a1.088,1.088,0,0,0,1.242,1.23q1.976.017,3.952,0a1.092,1.092,0,0,0,1.244-1.229c.012-1.026,0-2.054,0-3.08m16.678,5.39a1.605,1.605,0,1,0,1.576,1.6,1.643,1.643,0,0,0-1.576-1.6M12.258,118.2a1.606,1.606,0,1,0-1.606,1.638,1.641,1.641,0,0,0,1.606-1.638m30.079-10.187c0-1.05,0-1.05-.778-1.051-1.369,0-1.369,0-1.37.794,0,1.352,0,1.352.879,1.352,1.269,0,1.269,0,1.269-1.1m-1.051,5.39c-1.1,0-1.1,0-1.1.8,0,1.347,0,1.347.816,1.348,1.331,0,1.331,0,1.332-.9,0-1.247,0-1.247-1.051-1.247m-.033-3.221c-1.063,0-1.063,0-1.064.766,0,1.381,0,1.381.85,1.381,1.3,0,1.3,0,1.3-.866,0-1.281,0-1.281-1.084-1.281" transform="translate(-5.812 -75.828)" fill="#6ca998"/>
        <path id="Trazado_130091" data-name="Trazado 130091" d="M36.978,164.147c.117.465-.112.537-.527.547-.445.011-.545-.131-.55-.557-.005-.444.132-.548.559-.548s.627.109.518.558" transform="translate(-26.244 -119.585)" fill="#f1d78c"/>
        <path id="Trazado_130092" data-name="Trazado 130092" d="M48.942,164.152c.148.558-.2.5-.551.538-.51.054-.482-.221-.515-.585-.046-.51.221-.488.588-.514.491-.035.59.172.479.561" transform="translate(-34.994 -119.583)" fill="#f1d78c"/>
        <path id="Trazado_130093" data-name="Trazado 130093" d="M60.921,164.151c.148.557-.2.5-.552.538-.51.054-.481-.221-.515-.585-.047-.511.221-.488.587-.514.49-.034.59.172.479.561" transform="translate(-43.75 -119.583)" fill="#f1d78c"/>
        <path id="Trazado_130094" data-name="Trazado 130094" d="M72.9,164.151c.148.557-.2.5-.552.538-.51.054-.481-.221-.515-.585-.047-.511.221-.488.587-.514.49-.034.59.172.479.561" transform="translate(-52.506 -119.583)" fill="#f1d78c"/>
        <path id="Trazado_130095" data-name="Trazado 130095" d="M84.879,164.144c.145.546-.177.517-.543.549-.5.044-.5-.2-.523-.579-.037-.5.2-.5.581-.521.471-.023.614.144.486.551" transform="translate(-61.264 -119.586)" fill="#f1d78c"/>
        <path id="Trazado_130096" data-name="Trazado 130096" d="M96.859,164.136c.14.532-.153.534-.535.561-.479.033-.511-.179-.532-.572-.026-.479.179-.52.575-.529.451-.01.639.114.492.541" transform="translate(-70.023 -119.589)" fill="#f1d78c"/>
        <path id="Trazado_130097" data-name="Trazado 130097" d="M124.815,164.181c.139.524-.207.467-.561.5-.51.054-.482-.221-.515-.585-.047-.511.222-.484.587-.514.5-.041.564.2.488.6" transform="translate(-90.45 -119.579)" fill="#f1d78c"/>
        <path id="Trazado_130098" data-name="Trazado 130098" d="M136.285,163.616c.465-.117.537.112.547.527.011.445-.132.544-.557.549-.444.006-.548-.132-.548-.558s.109-.627.558-.518" transform="translate(-99.217 -119.582)" fill="#f1d78c"/>
        <path id="Trazado_130099" data-name="Trazado 130099" d="M148.253,164.662c-.465.117-.537-.112-.547-.527-.011-.445.131-.544.557-.55.444-.005.548.132.549.558s-.109.627-.558.518" transform="translate(-107.973 -119.582)" fill="#f1d78c"/>
        <path id="Trazado_130100" data-name="Trazado 130100" d="M160.743,164.152c.148.558-.2.5-.551.538-.51.054-.482-.221-.515-.585-.046-.51.221-.488.588-.514.491-.035.59.172.479.561" transform="translate(-116.721 -119.583)" fill="#f1d78c"/>
        <path id="Trazado_130101" data-name="Trazado 130101" d="M172.174,164.658c-.512.136-.482-.186-.515-.552-.044-.495.2-.5.579-.523.5-.036.5.2.523.581.031.486-.176.58-.587.494" transform="translate(-125.48 -119.577)" fill="#f1d78c"/>
        <path id="Trazado_130102" data-name="Trazado 130102" d="M183.648,164.041c-.147-.559.275-.408.59-.457.557-.086.441.279.486.6.077.558-.282.443-.608.486-.551.072-.5-.265-.468-.634" transform="translate(-134.226 -119.572)" fill="#f1d78c"/>
        <path id="Trazado_130103" data-name="Trazado 130103" d="M196.688,164.189c.14.533-.227.451-.569.492-.525.063-.469-.24-.507-.592-.056-.525.241-.471.594-.506.518-.052.544.218.482.605" transform="translate(-142.989 -119.576)" fill="#f1d78c"/>
        <path id="Trazado_130104" data-name="Trazado 130104" d="M208.657,164.152c.148.558-.2.5-.551.538-.51.054-.482-.221-.515-.585-.046-.51.221-.487.588-.513.49-.035.59.172.479.561" transform="translate(-151.747 -119.583)" fill="#f1d78c"/>
        <path id="Trazado_130105" data-name="Trazado 130105" d="M39.171,7.951q15.169,0,30.338-.016c.631,0,.84.182.742.774a1.252,1.252,0,0,0,0,.2c0,1.037,0,1.037-.957,1.332a3.246,3.246,0,0,0-2.262,3.214,3.16,3.16,0,0,0,2.6,3c.56.1.635.317.629.812q-.038,3.656,0,7.313c0,.438-.117.567-.558.559q-2.113-.041-4.228,0c-.453.009-.646-.088-.6-.58a12.135,12.135,0,0,0,0-1.542,1.064,1.064,0,0,0-1.1-1.106c-.2-.012-.4,0-.6,0q-12.115,0-24.23.005a1.537,1.537,0,0,1-1.089-.364,3.033,3.033,0,0,0-3.945,0,1.523,1.523,0,0,1-1.09.36q-8.994-.011-17.988,0c-1.188,0-1.488.317-1.509,1.513-.01.551.25,1.27-.111,1.608s-1.066.088-1.62.1c-1.051.015-2.1-.012-3.154.013-.386.009-.489-.115-.486-.492q.023-3.824,0-7.648c0-.328.087-.431.43-.493a3.213,3.213,0,0,0,0-6.371c-.337-.06-.428-.152-.437-.488C7.9,7.95,7.889,7.951,9.571,7.951h29.6M26.2,18.686c3.2,0,6.4.008,9.594,0a3.215,3.215,0,0,0,3.3-3.308c.008-.715.017-1.431,0-2.146a3.187,3.187,0,0,0-3.143-3.122q-9.729-.028-19.458,0a3.191,3.191,0,0,0-3.167,3.168c-.015.648,0,1.3,0,1.945a3.238,3.238,0,0,0,3.483,3.467q4.7.005,9.394,0m32.234-3.223c0-1.027.01-2.053,0-3.08a1.076,1.076,0,0,0-1.195-1.208q-2.01-.02-4.02,0a1.086,1.086,0,0,0-1.224,1.246q-.013,3.047,0,6.094a1.088,1.088,0,0,0,1.228,1.243q1.976.017,3.952,0c.869-.006,1.252-.4,1.26-1.281.008-1,0-2.009,0-3.013m1.074.013c0,1-.007,2.009,0,3.013.008.875.395,1.262,1.272,1.268q1.943.013,3.885,0c.883-.005,1.279-.389,1.283-1.258q.013-3.047,0-6.094a1.088,1.088,0,0,0-1.238-1.233q-1.976-.015-3.952,0c-.865.006-1.242.4-1.249,1.289-.007,1,0,2.009,0,3.013m-8.593.072c0-1.049.009-2.1,0-3.147a1.09,1.09,0,0,0-1.244-1.228q-1.976-.015-3.952,0A1.086,1.086,0,0,0,44.476,12.4q-.014,3.046,0,6.093c0,.872.4,1.257,1.277,1.263q1.942.012,3.885,0c.879-.006,1.269-.391,1.278-1.263.01-.982,0-1.964,0-2.946M12.246,22.461a1.606,1.606,0,1,0-1.658,1.588,1.642,1.642,0,0,0,1.658-1.588m56.925-.037A1.606,1.606,0,1,0,67.55,24.05a1.641,1.641,0,0,0,1.621-1.625M41.256,14.392c-1.08,0-1.08,0-1.08.816,0,1.33,0,1.33.834,1.33,1.314,0,1.314,0,1.314-.85,0-1.3,0-1.3-1.068-1.3m1.068,4.3c0-1.08,0-1.08-1.017-1.08-1.131,0-1.131,0-1.131,1.1,0,1.046,0,1.046,1.051,1.046,1.1,0,1.1,0,1.1-1.067m-2.148-6.513c0,1.138,0,1.138,1.093,1.138,1.055,0,1.055,0,1.055-1.042,0-1.1,0-1.1-1.127-1.1-1.021,0-1.021,0-1.021,1.009" transform="translate(-5.799 -5.801)" fill="#6ca998"/>
        <path id="Trazado_130106" data-name="Trazado 130106" d="M59.875,68.27c-.144-.548.252-.429.579-.474.543-.076.454.261.5.6.068.543-.263.455-.6.5-.536.063-.521-.244-.474-.62" transform="translate(-43.747 -49.551)" fill="#f1d78c"/>
        <path id="Trazado_130107" data-name="Trazado 130107" d="M48.957,68.36c.117.465-.112.537-.527.547-.445.011-.545-.131-.55-.557-.005-.444.132-.548.559-.548s.627.109.518.558" transform="translate(-35 -49.564)" fill="#f1d78c"/>
        <path id="Trazado_130108" data-name="Trazado 130108" d="M36.521,67.815c.548-.144.429.252.475.579.076.542-.262.454-.6.5-.543.068-.456-.263-.5-.6-.063-.536.244-.52.62-.474" transform="translate(-26.237 -49.551)" fill="#f1d78c"/>
        <path id="Trazado_130109" data-name="Trazado 130109" d="M72.909,68.393c.139.524-.207.467-.56.5-.51.054-.482-.221-.515-.585-.046-.51.222-.484.588-.514.5-.041.564.2.488.6" transform="translate(-52.507 -49.557)" fill="#f1d78c"/>
        <path id="Trazado_130110" data-name="Trazado 130110" d="M84.888,68.385c.136.512-.186.482-.552.515-.495.044-.5-.2-.524-.579-.036-.495.2-.5.581-.522.486-.031.58.176.495.587" transform="translate(-61.265 -49.559)" fill="#f1d78c"/>
        <path id="Trazado_130111" data-name="Trazado 130111" d="M136.238,68.87c-.512.136-.482-.186-.515-.552-.044-.495.2-.5.579-.523.5-.036.5.2.523.581.031.486-.176.58-.587.494" transform="translate(-99.211 -49.555)" fill="#f1d78c"/>
        <path id="Trazado_130112" data-name="Trazado 130112" d="M95.811,68.27c-.144-.548.252-.429.579-.474.543-.076.454.261.5.6.068.543-.263.455-.6.5-.536.063-.521-.244-.474-.62" transform="translate(-70.016 -49.551)" fill="#f1d78c"/>
        <path id="Trazado_130113" data-name="Trazado 130113" d="M124.816,68.393c.139.524-.207.467-.56.5-.51.054-.482-.221-.515-.585-.046-.51.222-.484.588-.514.5-.041.564.2.488.6" transform="translate(-90.451 -49.557)" fill="#f1d78c"/>
        <path id="Trazado_130114" data-name="Trazado 130114" d="M148.193,68.868c-.533.14-.451-.226-.492-.568-.063-.525.24-.469.592-.507.525-.056.471.241.506.593.052.517-.218.544-.606.481" transform="translate(-107.964 -49.552)" fill="#f1d78c"/>
        <path id="Trazado_130115" data-name="Trazado 130115" d="M208.191,67.823c.523-.139.467.207.5.56.054.51-.221.481-.586.515-.511.047-.485-.222-.514-.587-.041-.5.2-.565.6-.488" transform="translate(-151.751 -49.556)" fill="#f1d78c"/>
        <path id="Trazado_130116" data-name="Trazado 130116" d="M196.167,68.874c-.465.117-.537-.112-.547-.527-.011-.445.131-.544.557-.55.444-.005.548.132.548.558s-.109.627-.558.518" transform="translate(-142.999 -49.56)" fill="#f1d78c"/>
        <path id="Trazado_130117" data-name="Trazado 130117" d="M184.217,67.825c.5-.13.5.163.526.544.033.479-.18.51-.573.532-.48.027-.514-.181-.531-.574-.021-.469.155-.6.578-.5" transform="translate(-134.241 -49.558)" fill="#f1d78c"/>
        <path id="Trazado_130118" data-name="Trazado 130118" d="M172.239,67.825c.5-.13.5.163.526.544.033.479-.18.51-.573.532-.48.027-.514-.181-.531-.574-.021-.469.155-.6.578-.5" transform="translate(-125.485 -49.558)" fill="#f1d78c"/>
        <path id="Trazado_130119" data-name="Trazado 130119" d="M160.219,68.873c-.48.124-.519-.136-.537-.535-.022-.461.154-.528.564-.541.46-.015.532.155.541.566.009.45-.131.613-.568.511" transform="translate(-116.728 -49.559)" fill="#f1d78c"/>
        <path id="Trazado_130120" data-name="Trazado 130120" d="M40.864,120.341q-4.7,0-9.393,0a3.251,3.251,0,0,1-3.5-3.515c0-.626-.01-1.252,0-1.878a3.2,3.2,0,0,1,3.215-3.19q9.661-.019,19.323,0A3.2,3.2,0,0,1,53.742,115c.012.693.01,1.386,0,2.079a3.213,3.213,0,0,1-3.284,3.262c-3.2.015-6.4,0-9.594,0m-.025-6.441q-4.693,0-9.386,0c-.961,0-1.329.376-1.337,1.339,0,.469,0,.938,0,1.407,0,1.233.311,1.547,1.537,1.547H46.6c1.251,0,2.5.009,3.754,0a1.1,1.1,0,0,0,1.237-1.241c.01-.536,0-1.072,0-1.608,0-1.1-.342-1.441-1.438-1.442q-4.659,0-9.319,0" transform="translate(-20.441 -81.689)"/>
        <path id="Trazado_130121" data-name="Trazado 130121" d="M206.107,120.05c0,1,.008,2.009,0,3.013-.008.872-.4,1.259-1.276,1.266q-1.942.014-3.885,0c-.882-.006-1.274-.391-1.278-1.263q-.012-3.046,0-6.093a1.085,1.085,0,0,1,1.241-1.228q1.976-.014,3.952,0a1.09,1.09,0,0,1,1.245,1.225c.012,1.027,0,2.054,0,3.08m-3.516,2.093c.307.013.615.022.922.041s.457-.076.447-.405c-.025-.813-.035-1.626-.051-2.439.092-1.453.092-1.453-1.35-1.449a1.969,1.969,0,0,1-.267,0c-.388-.051-.495.127-.488.5.02,1.025.047,2.053-.008,3.075-.035.657.187.852.795.682" transform="translate(-145.952 -84.605)" fill="#000101"/>
        <path id="Trazado_130122" data-name="Trazado 130122" d="M171.714,120.052c0-1.026-.009-2.053,0-3.08a1.087,1.087,0,0,1,1.242-1.227q1.976-.014,3.952,0a1.087,1.087,0,0,1,1.244,1.226q.015,3.08,0,6.16a1.076,1.076,0,0,1-1.208,1.2q-2.009.02-4.019,0c-.819-.008-1.2-.417-1.211-1.262-.009-1,0-2.009,0-3.013m2.928,2.09c.307.013.615.022.922.041s.457-.076.447-.405c-.025-.813-.035-1.626-.051-2.439.092-1.453.092-1.453-1.35-1.449a2.014,2.014,0,0,1-.267,0c-.388-.051-.495.127-.488.5.02,1.025.047,2.053-.008,3.075-.035.657.187.852.795.682" transform="translate(-125.522 -84.605)" fill="#000101"/>
        <path id="Trazado_130123" data-name="Trazado 130123" d="M150.2,120.016c0,1.027.009,2.053,0,3.08a1.093,1.093,0,0,1-1.244,1.23q-1.976.017-3.952,0a1.088,1.088,0,0,1-1.242-1.231q-.015-3.08,0-6.16a1.072,1.072,0,0,1,1.208-1.192q2.009-.017,4.019,0a1.077,1.077,0,0,1,1.209,1.193c.014,1.026,0,2.053,0,3.08m-2.2-.68c.092-1.453.092-1.453-1.35-1.449a2.015,2.015,0,0,1-.267,0c-.388-.051-.495.127-.488.5.02,1.025.047,2.053-.008,3.075-.035.657.187.852.795.682.307.013.615.022.922.041s.457-.076.447-.405c-.025-.813-.035-1.626-.051-2.439" transform="translate(-105.087 -84.603)" fill="#000101"/>
        <path id="Trazado_130124" data-name="Trazado 130124" d="M225.282,151.688a1.605,1.605,0,1,1-1.636,1.541,1.641,1.641,0,0,1,1.636-1.541" transform="translate(-163.486 -110.885)" fill="#030302"/>
        <path id="Trazado_130125" data-name="Trazado 130125" d="M15.235,153.261a1.606,1.606,0,1,1-1.605-1.572,1.639,1.639,0,0,1,1.605,1.572" transform="translate(-8.788 -110.886)" fill="#030302"/>
        <path id="Trazado_130126" data-name="Trazado 130126" d="M129.949,116.806c0,1.1,0,1.1-1.269,1.1-.88,0-.88,0-.879-1.352,0-.8,0-.8,1.37-.794.778,0,.778,0,.778,1.051" transform="translate(-93.423 -84.617)"/>
        <path id="Trazado_130127" data-name="Trazado 130127" d="M128.9,139.7c1.051,0,1.051,0,1.051,1.247,0,.9,0,.9-1.331.9-.817,0-.817,0-.816-1.347,0-.8,0-.8,1.1-.8" transform="translate(-93.423 -102.122)"/>
        <path id="Trazado_130128" data-name="Trazado 130128" d="M128.864,127.728c1.085,0,1.085,0,1.084,1.281,0,.867,0,.867-1.3.866-.851,0-.851,0-.85-1.381,0-.766,0-.766,1.064-.766" transform="translate(-93.423 -93.37)"/>
        <path id="Trazado_130129" data-name="Trazado 130129" d="M40.841,24.55q-4.7,0-9.393,0a3.238,3.238,0,0,1-3.483-3.467c0-.648-.012-1.3,0-1.945a3.192,3.192,0,0,1,3.167-3.168q9.729-.025,19.458,0a3.187,3.187,0,0,1,3.143,3.122c.022.715.012,1.431,0,2.146a3.215,3.215,0,0,1-3.3,3.308c-3.2.011-6.4,0-9.595,0m0-6.441q-4.727,0-9.453,0c-.878,0-1.264.392-1.277,1.264-.007.514,0,1.028,0,1.541,0,1.148.332,1.486,1.462,1.486q6.7,0,13.409,0c1.788,0,3.576.007,5.364,0a1.1,1.1,0,0,0,1.244-1.233c.01-.536,0-1.072,0-1.609,0-1.1-.342-1.449-1.43-1.45q-4.66,0-9.32,0" transform="translate(-20.439 -11.665)"/>
        <path id="Trazado_130130" data-name="Trazado 130130" d="M178.157,24.243c0,1,.007,2.009,0,3.013-.008.882-.39,1.275-1.26,1.281q-1.976.014-3.952,0a1.088,1.088,0,0,1-1.228-1.243q-.012-3.047,0-6.094a1.086,1.086,0,0,1,1.224-1.246q2.01-.017,4.02,0a1.076,1.076,0,0,1,1.195,1.208c.013,1.027,0,2.053,0,3.08m-3.516,2.108c.307.013.615.022.922.041s.457-.076.447-.405c-.025-.813-.035-1.626-.051-2.44.092-1.453.092-1.453-1.35-1.449a1.969,1.969,0,0,1-.267,0c-.388-.051-.495.128-.488.5.02,1.025.047,2.053-.008,3.075-.035.657.188.852.795.682" transform="translate(-125.521 -14.58)" fill="#000101"/>
        <path id="Trazado_130131" data-name="Trazado 130131" d="M199.666,24.259c0-1-.006-2.009,0-3.013.006-.889.384-1.283,1.249-1.289q1.976-.015,3.952,0a1.088,1.088,0,0,1,1.238,1.233q.014,3.046,0,6.093c0,.869-.4,1.252-1.283,1.258q-1.942.012-3.885,0c-.877-.006-1.264-.393-1.272-1.268-.009-1,0-2.009,0-3.013m4.246-.709C204,22.1,204,22.1,202.563,22.1a2.018,2.018,0,0,1-.268,0c-.388-.051-.495.127-.488.5.02,1.025.047,2.053-.008,3.076-.035.657.188.852.795.682.307.013.615.022.922.041s.457-.076.447-.405c-.025-.813-.035-1.626-.051-2.44" transform="translate(-145.956 -14.583)" fill="#000101"/>
        <path id="Trazado_130132" data-name="Trazado 130132" d="M150.206,24.331c0,.982.008,1.964,0,2.946-.008.872-.4,1.258-1.278,1.263q-1.942.012-3.885,0c-.88-.006-1.273-.391-1.276-1.263q-.012-3.046,0-6.093a1.086,1.086,0,0,1,1.242-1.228q1.976-.015,3.952,0a1.09,1.09,0,0,1,1.244,1.227c.012,1.049,0,2.1,0,3.147m-3.516,2.023c.307.013.615.022.922.041s.457-.076.447-.405c-.025-.813-.035-1.626-.051-2.439.092-1.453.092-1.453-1.35-1.449a1.971,1.971,0,0,1-.267,0c-.388-.051-.495.128-.488.5.02,1.025.047,2.053-.008,3.075-.035.657.188.852.795.682" transform="translate(-105.088 -14.583)" fill="#000101"/>
        <path id="Trazado_130133" data-name="Trazado 130133" d="M15.236,57.524A1.606,1.606,0,1,1,13.682,55.9a1.642,1.642,0,0,1,1.554,1.623" transform="translate(-8.789 -40.863)" fill="#030302"/>
        <path id="Trazado_130134" data-name="Trazado 130134" d="M226.859,57.489a1.606,1.606,0,1,1-1.591-1.587,1.641,1.641,0,0,1,1.591,1.587" transform="translate(-163.487 -40.865)" fill="#030302"/>
        <path id="Trazado_130135" data-name="Trazado 130135" d="M128.88,31.94c1.068,0,1.068,0,1.068,1.3,0,.85,0,.85-1.314.85-.834,0-.834,0-.834-1.33,0-.817,0-.817,1.08-.817" transform="translate(-93.423 -23.348)"/>
        <path id="Trazado_130136" data-name="Trazado 130136" d="M129.949,44.994c0,1.067,0,1.067-1.1,1.067-1.051,0-1.051,0-1.051-1.046,0-1.1,0-1.1,1.131-1.1,1.017,0,1.017,0,1.017,1.08" transform="translate(-93.423 -32.101)"/>
        <path id="Trazado_130137" data-name="Trazado 130137" d="M127.8,20.976c0-1.009,0-1.009,1.021-1.009,1.127,0,1.127,0,1.127,1.1,0,1.042,0,1.042-1.055,1.042-1.093,0-1.093,0-1.093-1.138" transform="translate(-93.423 -14.596)"/>
        <path id="Trazado_130138" data-name="Trazado 130138" d="M46.684,119.743q4.659,0,9.319,0c1.1,0,1.434.342,1.438,1.442,0,.536.008,1.072,0,1.608a1.1,1.1,0,0,1-1.237,1.241c-1.251.012-2.5,0-3.754,0H37.5c-1.226,0-1.536-.313-1.537-1.547,0-.469,0-.938,0-1.407.008-.963.376-1.337,1.337-1.339q4.693-.005,9.386,0" transform="translate(-26.286 -87.533)" fill="#c1c7cf"/>
        <path id="Trazado_130139" data-name="Trazado 130139" d="M208.39,127.962c-.607.17-.83-.025-.795-.682.055-1.022.027-2.05.008-3.075-.007-.37.1-.548.488-.5a1.971,1.971,0,0,0,.267,0c1.442,0,1.442,0,1.35,1.449-.468.921-.78,1.916-1.318,2.8" transform="translate(-151.751 -90.425)" fill="#4f5c77"/>
        <path id="Trazado_130140" data-name="Trazado 130140" d="M210.559,131.929c.539-.888.85-1.883,1.318-2.8.016.813.025,1.627.051,2.439.01.329-.154.424-.447.405s-.614-.028-.922-.041" transform="translate(-153.92 -94.391)" fill="#283342"/>
        <path id="Trazado_130141" data-name="Trazado 130141" d="M180.44,127.962c-.607.17-.83-.025-.795-.682.055-1.022.027-2.05.008-3.075-.007-.37.1-.548.488-.5a1.97,1.97,0,0,0,.267,0c1.442,0,1.442,0,1.35,1.449-.468.921-.78,1.916-1.318,2.8" transform="translate(-131.319 -90.425)" fill="#4f5c77"/>
        <path id="Trazado_130142" data-name="Trazado 130142" d="M182.609,131.929c.539-.888.85-1.882,1.318-2.8.016.813.025,1.627.051,2.439.01.329-.154.424-.447.405s-.614-.028-.922-.041" transform="translate(-133.488 -94.391)" fill="#283342"/>
        <path id="Trazado_130143" data-name="Trazado 130143" d="M152.489,127.962c-.607.17-.83-.025-.795-.682.055-1.022.027-2.05.008-3.075-.007-.37.1-.548.488-.5a1.971,1.971,0,0,0,.267,0c1.442,0,1.442,0,1.35,1.449-.468.921-.78,1.916-1.318,2.8" transform="translate(-110.887 -90.425)" fill="#4f5c77"/>
        <path id="Trazado_130144" data-name="Trazado 130144" d="M154.658,131.929c.539-.888.85-1.882,1.318-2.8.016.813.025,1.627.051,2.439.01.329-.154.424-.447.405s-.614-.028-.922-.041" transform="translate(-113.056 -94.391)" fill="#283342"/>
        <path id="Trazado_130145" data-name="Trazado 130145" d="M46.688,23.955q4.66,0,9.32,0c1.088,0,1.427.346,1.43,1.45,0,.536.009,1.072,0,1.608a1.1,1.1,0,0,1-1.244,1.233c-1.788.01-3.576,0-5.364,0H37.419c-1.13,0-1.46-.339-1.462-1.486,0-.514-.006-1.028,0-1.541.013-.872.4-1.263,1.277-1.264q4.726-.008,9.454,0" transform="translate(-26.282 -17.511)" fill="#c1c7cf"/>
        <path id="Trazado_130146" data-name="Trazado 130146" d="M180.44,32.174c-.607.17-.83-.025-.795-.682.055-1.022.027-2.05.008-3.075-.007-.37.1-.548.488-.5a1.97,1.97,0,0,0,.267,0c1.442,0,1.442,0,1.35,1.449-.468.921-.779,1.916-1.318,2.8" transform="translate(-131.319 -20.403)" fill="#4f5c77"/>
        <path id="Trazado_130147" data-name="Trazado 130147" d="M182.609,36.141c.539-.888.85-1.882,1.318-2.8.016.813.025,1.627.051,2.44.01.329-.154.424-.447.405s-.615-.028-.922-.041" transform="translate(-133.488 -24.37)" fill="#283342"/>
        <path id="Trazado_130148" data-name="Trazado 130148" d="M208.39,32.174c-.607.17-.83-.025-.795-.682.055-1.022.027-2.05.008-3.075-.007-.37.1-.548.488-.5a1.97,1.97,0,0,0,.267,0c1.442,0,1.442,0,1.35,1.449-.468.921-.78,1.916-1.318,2.8" transform="translate(-151.751 -20.403)" fill="#4f5c77"/>
        <path id="Trazado_130149" data-name="Trazado 130149" d="M210.559,36.141c.539-.888.85-1.882,1.318-2.8.016.813.025,1.627.051,2.44.01.329-.154.424-.447.405s-.615-.028-.922-.041" transform="translate(-153.92 -24.37)" fill="#283342"/>
        <path id="Trazado_130150" data-name="Trazado 130150" d="M152.489,32.174c-.607.17-.83-.025-.795-.682.055-1.022.027-2.05.008-3.075-.007-.37.1-.548.488-.5a1.97,1.97,0,0,0,.267,0c1.442,0,1.442,0,1.35,1.449-.468.921-.78,1.916-1.318,2.8" transform="translate(-110.887 -20.403)" fill="#4f5c77"/>
        <path id="Trazado_130151" data-name="Trazado 130151" d="M154.658,36.141c.539-.888.85-1.882,1.318-2.8.016.813.025,1.627.051,2.44.01.329-.154.424-.447.405s-.615-.028-.922-.041" transform="translate(-113.056 -24.37)" fill="#283342"/>
      </g>
    </g>
  </g>
</svg>
