<svg xmlns="http://www.w3.org/2000/svg" width="67" height="90.367" viewBox="0 0 67 90.367">
  <g id="Grupo_87547" data-name="Grupo 87547" transform="translate(-1058 -1400.725)">
    <g id="Grupo_81330" data-name="Grupo 81330" transform="translate(1058 1400.725)">
      <rect id="Rectángulo_34185" data-name="Rectángulo 34185" width="67" height="90.367" rx="5" fill="#fff"/>
    </g>
    <g id="Grupo_86775" data-name="Grupo 86775" transform="translate(1070.508 1414.297)">
      <path id="Trazado_131146" data-name="Trazado 131146" d="M63.562,134.37c-.125.105-.234.265-.378.306-.652.182-.6.674-.6,1.188q.019,3.354,0,6.709a1.67,1.67,0,0,0,.214.845q4.065,7.437,8.115,14.881a4.662,4.662,0,0,1,.094,4.42,3.376,3.376,0,0,1-3.244,1.966q-6.821.014-13.642,0c-1.834,0-3.668,0-5.5,0a3.675,3.675,0,0,1-3.768-3.734,5.914,5.914,0,0,1,.791-3.138c1.606-2.874,3.148-5.783,4.724-8.673q1.579-2.9,3.189-5.778a1.322,1.322,0,0,0,.175-.674q-.01-3.667,0-7.335a.489.489,0,0,0-.289-.522,2.108,2.108,0,0,1-1.131-2.353,2.24,2.24,0,0,1,2.133-1.778c.535-.02,1.074-.026,1.61,0a.7.7,0,0,0,.787-.455c.5-.979,1.173-1.868,1.658-2.852a1.8,1.8,0,0,1,2.01-1.141c.917.087,1.847.005,2.772.026a.628.628,0,0,0,.639-.357c.566-.979,1.167-1.937,1.732-2.916a.8.8,0,0,1,.757-.444c1.4,0,2.8,0,4.2,0a3.17,3.17,0,0,1,.526.09,3.161,3.161,0,0,1,.426.568c.539.909,1.092,1.81,1.626,2.721a.493.493,0,0,0,.487.3c.984-.015,1.967-.012,2.951,0a.462.462,0,0,0,.461-.259q.719-1.232,1.469-2.447a.4.4,0,0,0,0-.479c-.492-.8-.978-1.6-1.447-2.412a.494.494,0,0,0-.5-.282c-.969.012-1.937,0-2.906,0-.731,0-.731,0-.776-.7.052-.791.052-.791.88-.791,1.058,0,2.117.028,3.174-.012a1.232,1.232,0,0,1,1.261.7c.505.909,1.072,1.784,1.592,2.685a.555.555,0,0,0,.566.315q1.43-.023,2.861,0a.522.522,0,0,0,.528-.3c.537-.926,1.1-1.834,1.644-2.759.126-.216.224-.264.433-.107.3.229.843.318.906.639.054.276-.311.638-.5.955-.4.677-.806,1.354-1.222,2.024a.436.436,0,0,0-.006.526q.749,1.216,1.469,2.448a.5.5,0,0,0,.5.282c1.088-.012,2.176,0,3.264-.012.289,0,.442.035.4.375s.1.819-.076,1.03-.67.063-1.023.066c-.983.009-1.967,0-2.951,0a2.867,2.867,0,0,1-.836-.078c-.738-1.063-1.354-2.2-2.024-3.3a.532.532,0,0,0-.525-.307c-.952.016-1.9.018-2.857,0a.561.561,0,0,0-.558.333q-.671,1.157-1.378,2.294a.53.53,0,0,0,0,.647c.437.69.869,1.387,1.258,2.105a.915.915,0,0,0,.937.543,36.982,36.982,0,0,1,3.746.038,2.629,2.629,0,0,1,.488.628c.545.92,1.107,1.831,1.645,2.754a.451.451,0,0,0,.456.258c1.116-.01,2.233,0,3.349-.011.264,0,.353.048.355.337.006,1.164.017,1.164-1.134,1.164-.849,0-1.7.008-2.546-.006a.486.486,0,0,0-.493.278q-.724,1.254-1.488,2.484a.419.419,0,0,0,.006.515c.617,1,1.21,2.009,1.832,3a1.732,1.732,0,0,1,.121.953c.008.185-.158.137-.267.141-.312.011-.624.014-.936.021-.185-.011-.319-.067-.287-.293a.745.745,0,0,0-.15-.5c-.536-.876-1.071-1.752-1.588-2.639a.492.492,0,0,0-.5-.276c-.953.013-1.906.017-2.859,0a.561.561,0,0,0-.561.327c-.5.862-1.017,1.715-1.533,2.568a2.186,2.186,0,0,1-.529.711,2.435,2.435,0,0,1-.435.079c-1.369.006-2.739,0-4.108.011-.249,0-.306-.088-.286-.309a3.8,3.8,0,0,0-.008-.446.654.654,0,0,0,.01-.176c-.1-.477.133-.559.561-.546,1.026.03,2.053,0,3.08.014a.5.5,0,0,0,.5-.273q.715-1.235,1.469-2.448a.394.394,0,0,0-.008-.48c-.49-.8-.977-1.6-1.444-2.407a.52.52,0,0,0-.527-.3c-.968.014-1.935.019-2.9,0a.588.588,0,0,0-.594.351c-.483.837-1.006,1.652-1.477,2.495-.178.319-.354.468-.7.291l0,0c.01-.072-.037-.085-.092-.092-.2-.228-.669-.242-.678-.548-.008-.25.267-.51.42-.763.441-.737.878-1.477,1.33-2.208a.449.449,0,0,0,.014-.55c-.649-1.043-1.272-2.1-1.919-3.148-.065-.1-.041-.194-.065-.288.11-.226.207-.461.334-.676.53-.9,1.062-1.792,1.61-2.677a.525.525,0,0,0,.015-.641q-.734-1.172-1.424-2.372a.494.494,0,0,0-.5-.273c-.968.012-1.936.01-2.9,0a.457.457,0,0,0-.467.246q-.716,1.235-1.47,2.449a.434.434,0,0,0,.008.524c.5.811.984,1.63,1.474,2.447.351.586.351.586-.174.957l-.253.147c-.056.023-.129.032-.107.123v-.006c-.292.131-.446.009-.6-.255-.5-.877-1.04-1.734-1.548-2.608a.575.575,0,0,0-.594-.345,10.07,10.07,0,0,1-1.873-.008,1.729,1.729,0,0,0-2.069,1.159,15.654,15.654,0,0,1-1.035,1.753.6.6,0,0,0,.136.052q1.607,0,3.215,0a2.439,2.439,0,0,1,1.511.452,2.286,2.286,0,0,1,.357,3.222M58.143,163.2q4.65,0,9.3,0a3.5,3.5,0,0,0,.932-.074,2.649,2.649,0,0,0,1.425-3.694c-1.642-3.106-3.332-6.185-5-9.277a.408.408,0,0,0-.38-.239,1.329,1.329,0,0,0-1.19.467,2.659,2.659,0,0,1-1.741.988,2.443,2.443,0,0,1-2.289-.931,1.147,1.147,0,0,0-1.072-.517,1.374,1.374,0,0,0-.824.57,2.633,2.633,0,0,1-3.944.018,2.6,2.6,0,0,0-.348-.348,1.045,1.045,0,0,0-1.626.266c-1.556,2.881-3.094,5.773-4.674,8.641a3.5,3.5,0,0,0-.254,2.552,2.076,2.076,0,0,0,2.295,1.577q4.694.007,9.388,0m5.663-14.771c-.846-1.551-1.637-3.014-2.442-4.47a1.841,1.841,0,0,1-.24-.933c.01-2-.005-3.992.014-5.988,0-.364-.108-.441-.45-.437q-2.5.025-5.005,0c-.363,0-.477.076-.473.457.02,1.877,0,3.754.017,5.631a2.821,2.821,0,0,1-.373,1.483c-.741,1.306-1.449,2.63-2.157,3.954-.047.088-.3.294-.02.335a3.2,3.2,0,0,1,1.707,1.143.947.947,0,0,0,1.424.006c.184-.174.356-.361.541-.533a2.3,2.3,0,0,1,1.171-.6,2.622,2.622,0,0,1,2.549,1.04.949.949,0,0,0,1.575.021,2.793,2.793,0,0,1,2.163-1.105m18.053-11.085c.506,0,1.013-.007,1.519,0a.426.426,0,0,0,.428-.239q.732-1.252,1.492-2.487a.371.371,0,0,0,0-.446c-.5-.812-.989-1.627-1.469-2.449a.466.466,0,0,0-.464-.259c-1,.01-2,.014-2.993,0a.529.529,0,0,0-.526.31c-.455.783-.924,1.559-1.4,2.33a.469.469,0,0,0-.012.566q.74,1.193,1.446,2.406a.494.494,0,0,0,.5.271c.491-.015.982,0,1.473-.005m-6.729-3.7c.506,0,1.013-.008,1.519,0a.424.424,0,0,0,.431-.232q.733-1.252,1.491-2.489a.375.375,0,0,0,0-.447q-.758-1.238-1.5-2.487a.443.443,0,0,0-.43-.247c-.983.008-1.966.01-2.949,0a.466.466,0,0,0-.458.272q-.712,1.211-1.447,2.409a.476.476,0,0,0-.012.57c.495.8.974,1.6,1.448,2.411a.422.422,0,0,0,.426.242c.491-.014.983,0,1.475,0M58.2,132.189v.006c-1.25,0-2.5-.01-3.751.005a.666.666,0,0,0-.708.656.715.715,0,0,0,.583.778c.8.178.9.285.887,1.1-.007.346.1.418.429.415,1.652-.017,3.305-.023,4.957,0,.42.006.568-.081.546-.528-.036-.709.115-.863.8-.981a.675.675,0,0,0,.636-.634c.056-.5-.236-.814-.808-.819-1.191-.01-2.382,0-3.573,0" transform="translate(-44.851 -118.867)" fill="#030303"/>
      <path id="Trazado_131147" data-name="Trazado 131147" d="M100.164,157.973c0,.343-.017.686,0,1.028.006.2-.065.256-.256.249-.312-.01-.627.028-.938,0s-.366.106-.364.382q.017,2.168,0,4.337a.428.428,0,0,0,.267.445A7.4,7.4,0,0,1,97.4,178.255a7.382,7.382,0,0,1-8.942-5.658,7.5,7.5,0,0,1,3.749-8,.892.892,0,0,0,.56-.953c-.038-1.341-.021-2.683-.006-4.024,0-.292-.072-.388-.371-.377-.352.014-.824.16-1.029-.057-.224-.238-.03-.711-.074-1.076-.037-.307.114-.329.359-.326.8.01,1.61,0,2.414-.006q2.843.006,5.687.017c.154,0,.377-.1.417.183m1.254,11.636a5.868,5.868,0,0,0-3.5-4.031c-.738-.309-.8-.394-.8-1.192,0-.625-.007-1.251,0-1.876,0-.22-.044-.318-.292-.313-.76.015-1.519.017-2.279,0-.278-.007-.313.112-.308.344.012.625,0,1.251,0,1.876,0,.749-.072.868-.747,1.137a5.793,5.793,0,0,0-1.249.681,5.72,5.72,0,0,0-2.2,3.1c-.022.076-.187.252.051.262a2.677,2.677,0,0,1,1.886,1.15,1.04,1.04,0,0,0,1.5-.021,4.382,4.382,0,0,1,.644-.617,2.345,2.345,0,0,1,3.1.107c.194.185.388.37.57.566a.947.947,0,0,0,.722.283,1.118,1.118,0,0,0,.863-.481,2.479,2.479,0,0,1,2.037-.982M95.7,176.973a5.9,5.9,0,0,0,5.9-5.487c0-.125.082-.3-.063-.366a.426.426,0,0,0-.455.1q-.35.312-.682.643a2.382,2.382,0,0,1-2,.682,2.679,2.679,0,0,1-1.69-.988c-.643-.664-1.115-.658-1.768.006a3.51,3.51,0,0,1-1,.735,2.452,2.452,0,0,1-2.876-.476c-.274-.262-.48-.613-.89-.716-.266-.067-.371-.034-.353.288a5.914,5.914,0,0,0,5.875,5.578m-.022-16.233h.311c1.187,0,1.18,0,1.139-1.194-.008-.223-.057-.311-.3-.306-.756.014-1.513.012-2.27,0-.216,0-.332.034-.316.287a8.659,8.659,0,0,1,0,.934c-.01.209.056.29.275.282.385-.016.771,0,1.157,0" transform="translate(-60.24 -132.643)" fill="#030303"/>
      <path id="Trazado_131148" data-name="Trazado 131148" d="M85.185,147.215c.348.176.524.028.7-.291.472-.843.995-1.657,1.477-2.495a.589.589,0,0,1,.594-.351c.967.021,1.935.016,2.9,0a.519.519,0,0,1,.527.3c.467.811.954,1.611,1.444,2.408a.393.393,0,0,1,.008.48q-.752,1.213-1.469,2.448a.5.5,0,0,1-.5.273c-1.027-.01-2.055.016-3.08-.014-.428-.012-.656.07-.56.546a.684.684,0,0,1-.011.176q-.962-1.6-1.922-3.2c-.052-.086-.135-.164-.109-.282" transform="translate(-59.131 -127.794)" fill="#c75359"/>
      <path id="Trazado_131149" data-name="Trazado 131149" d="M77.477,133.524c.526-.372.526-.372.174-.957-.49-.816-.974-1.636-1.474-2.447a.436.436,0,0,1-.008-.525q.751-1.214,1.47-2.448a.457.457,0,0,1,.468-.246c.968.009,1.936.01,2.9,0a.5.5,0,0,1,.5.273c.462.8.935,1.59,1.424,2.371a.526.526,0,0,1-.014.642c-.549.885-1.081,1.78-1.61,2.677-.128.216-.224.45-.335.676l-3.5-.015" transform="translate(-55.911 -121.712)" fill="#7e9cbd"/>
      <path id="Trazado_131150" data-name="Trazado 131150" d="M102.748,132.858A36.98,36.98,0,0,0,99,132.82a.912.912,0,0,1-.937-.543c-.389-.718-.822-1.415-1.259-2.105a.53.53,0,0,1,0-.647q.706-1.136,1.378-2.294a.56.56,0,0,1,.558-.333q1.428.027,2.857,0a.531.531,0,0,1,.525.307c.671,1.1,1.287,2.242,2.024,3.3a18.481,18.481,0,0,1-1.406,2.348" transform="translate(-63.209 -121.711)" fill="#c75359"/>
      <path id="Trazado_131151" data-name="Trazado 131151" d="M87.341,120.113c.045.7.045.7.776.7.969,0,1.937.007,2.906,0a.494.494,0,0,1,.5.282c.47.812.955,1.614,1.448,2.412a.4.4,0,0,1,0,.479q-.749,1.215-1.469,2.447a.461.461,0,0,1-.461.259c-.983-.011-1.967-.014-2.951,0a.493.493,0,0,1-.487-.3c-.535-.911-1.088-1.812-1.626-2.721a3.134,3.134,0,0,0-.426-.568l1.79-2.989" transform="translate(-59.262 -119.308)" fill="#e48b40"/>
      <path id="Trazado_131152" data-name="Trazado 131152" d="M102.823,155.137c-.04-.283-.264-.182-.417-.183-1.9-.01-3.792-.012-5.687-.017l-.9-1.566a2.166,2.166,0,0,0,.529-.711c.517-.853,1.033-1.706,1.533-2.568a.56.56,0,0,1,.561-.327c.953.018,1.906.015,2.859,0a.492.492,0,0,1,.5.276c.518.887,1.052,1.763,1.588,2.639a.742.742,0,0,1,.15.5c-.031.227.1.282.287.293l-1,1.663" transform="translate(-62.899 -129.808)" fill="#5c9e57"/>
      <path id="Trazado_131153" data-name="Trazado 131153" d="M52.232,122.347a3.682,3.682,0,1,1-3.951-3.429,3.619,3.619,0,0,1,3.951,3.429m-5.861.185a2.156,2.156,0,0,0,2.141,2.265,2.18,2.18,0,0,0,2.265-2.153,2.153,2.153,0,0,0-2.152-2.252,2.129,2.129,0,0,0-2.253,2.141" transform="translate(-44.859 -118.88)" fill="#030303"/>
      <path id="Trazado_131154" data-name="Trazado 131154" d="M70.959,139.21a2.286,2.286,0,0,0-.357-3.222,2.439,2.439,0,0,0-1.511-.452q-1.607,0-3.215-.005a.6.6,0,0,1-.136-.052,15.652,15.652,0,0,0,1.035-1.753,1.73,1.73,0,0,1,2.069-1.159,10.071,10.071,0,0,0,1.873.008.575.575,0,0,1,.594.345c.508.875,1.046,1.731,1.548,2.609.151.264.3.386.6.255.052.171-.081.275-.152.4-.521.878-1.063,1.745-1.564,2.635a.641.641,0,0,1-.778.4" transform="translate(-52.248 -123.707)" fill="#e38b40"/>
      <path id="Trazado_131155" data-name="Trazado 131155" d="M69.075,121.856a2.951,2.951,0,0,1-5.9,0,2.951,2.951,0,1,1,5.9,0m-2.934,1.454a1.464,1.464,0,1,0-.042-2.927,1.464,1.464,0,0,0,.042,2.927" transform="translate(-51.339 -118.876)" fill="#040403"/>
      <path id="Trazado_131156" data-name="Trazado 131156" d="M56.333,130.274a2.206,2.206,0,1,1,2.212,2.2,2.176,2.176,0,0,1-2.212-2.2m2.936-.033a.734.734,0,0,0-1.468.029.734.734,0,0,0,1.468-.029" transform="translate(-48.917 -122.115)" fill="#030303"/>
      <path id="Trazado_131157" data-name="Trazado 131157" d="M85.05,148.8c.054.007.1.02.092.092-.065,0-.085-.038-.092-.092" transform="translate(-59.085 -129.465)" fill="#c75359"/>
      <path id="Trazado_131158" data-name="Trazado 131158" d="M77.681,137.506c-.023-.092.05-.1.107-.123,0,.07-.017.129-.107.123" transform="translate(-56.474 -125.423)" fill="#e38b40"/>
      <path id="Trazado_131159" data-name="Trazado 131159" d="M58.956,180.2q-4.694,0-9.388,0a2.076,2.076,0,0,1-2.3-1.576,3.5,3.5,0,0,1,.254-2.553c1.581-2.868,3.118-5.759,4.674-8.64a1.045,1.045,0,0,1,1.626-.267,2.717,2.717,0,0,1,.348.348,2.632,2.632,0,0,0,3.943-.018,1.377,1.377,0,0,1,.824-.57,1.15,1.15,0,0,1,1.072.517,2.443,2.443,0,0,0,2.288.931,2.659,2.659,0,0,0,1.742-.988,1.328,1.328,0,0,1,1.189-.467.407.407,0,0,1,.38.239c1.667,3.092,3.357,6.172,5,9.277a2.649,2.649,0,0,1-1.425,3.694,3.476,3.476,0,0,1-.932.074q-4.65,0-9.3,0m-3.689-4.414a2.943,2.943,0,0,0-2.944-2.954,2.951,2.951,0,1,0,2.944,2.954m4.452,2.948a2.218,2.218,0,1,0-2.221-2.2,2.207,2.207,0,0,0,2.221,2.2m6.636-6.634a2.2,2.2,0,1,0-2.22,2.185,2.156,2.156,0,0,0,2.22-2.185m0,5.9c0-.759,0-.759-.745-.759-.715,0-.715,0-.715.791,0,.7,0,.7.7.7.758,0,.758,0,.758-.736m2.954.008a1.605,1.605,0,0,1,0-.267c.074-.425-.12-.563-.516-.5a1.173,1.173,0,0,1-.178,0c-.767,0-.767,0-.767.782,0,.714,0,.714.737.714s.723,0,.723-.728m-14.772-7.394c0-.741,0-.741-.525-.741-.937,0-.937,0-.937.6,0,.858,0,.858.643.858.82,0,.82,0,.82-.72m2.954,0c0-.746,0-.746-.521-.746-.94,0-.94,0-.941.6,0,.863,0,.863.638.863.824,0,.824,0,.824-.715" transform="translate(-45.664 -135.87)" fill="#c75359"/>
      <path id="Trazado_131160" data-name="Trazado 131160" d="M68.026,158.146a2.793,2.793,0,0,0-2.163,1.105.949.949,0,0,1-1.575-.021,2.622,2.622,0,0,0-2.549-1.04,2.3,2.3,0,0,0-1.171.6c-.185.172-.357.359-.541.533a.947.947,0,0,1-1.424-.006,3.2,3.2,0,0,0-1.707-1.143c-.276-.041-.027-.247.02-.335.709-1.323,1.417-2.648,2.157-3.954a2.822,2.822,0,0,0,.373-1.483c-.021-1.877,0-3.754-.017-5.631,0-.38.11-.461.473-.457q2.5.03,5.005,0c.342,0,.453.072.45.437-.019,2,0,3.992-.014,5.988a1.841,1.841,0,0,0,.24.933c.8,1.455,1.6,2.918,2.442,4.47" transform="translate(-49.071 -128.587)" fill="#d1d0d4"/>
      <path id="Trazado_131161" data-name="Trazado 131161" d="M100.221,144.246c-.492,0-.983-.01-1.474,0a.491.491,0,0,1-.5-.27q-.705-1.214-1.447-2.407a.47.47,0,0,1,.013-.566c.475-.771.945-1.546,1.4-2.329a.528.528,0,0,1,.527-.31c1,.016,2,.012,2.993,0a.465.465,0,0,1,.464.258c.48.822.972,1.637,1.469,2.449a.372.372,0,0,1,0,.446q-.758,1.236-1.492,2.487a.428.428,0,0,1-.429.24c-.506-.011-1.012,0-1.519,0" transform="translate(-63.213 -125.773)" fill="#7e9cbd"/>
      <path id="Trazado_131162" data-name="Trazado 131162" d="M89.845,138.507c-.492,0-.983-.009-1.475,0a.423.423,0,0,1-.426-.242c-.473-.809-.953-1.615-1.448-2.411a.477.477,0,0,1,.012-.57q.734-1.2,1.447-2.409a.468.468,0,0,1,.459-.273c.982.012,1.966.01,2.949,0a.443.443,0,0,1,.43.247q.739,1.248,1.5,2.486a.377.377,0,0,1,0,.448q-.757,1.238-1.492,2.489a.424.424,0,0,1-.431.232c-.506-.012-1.013,0-1.519,0" transform="translate(-59.566 -123.732)" fill="#5c9e57"/>
      <path id="Trazado_131163" data-name="Trazado 131163" d="M63.069,139.491c1.191,0,2.382-.007,3.573,0,.572.005.864.315.808.819a.675.675,0,0,1-.636.634c-.687.118-.838.271-.8.98.023.447-.125.535-.546.528-1.652-.025-3.305-.019-4.957,0-.326,0-.436-.068-.429-.415.017-.816-.088-.924-.887-1.1a.715.715,0,0,1-.583-.778.666.666,0,0,1,.708-.656c1.25-.015,2.5-.005,3.751-.005Z" transform="translate(-49.721 -126.169)" fill="#d0cfd3"/>
      <path id="Trazado_131164" data-name="Trazado 131164" d="M102.329,172.033a2.475,2.475,0,0,0-2.037.981,1.118,1.118,0,0,1-.864.481.946.946,0,0,1-.721-.282c-.182-.2-.377-.382-.571-.566a2.343,2.343,0,0,0-3.1-.107,4.408,4.408,0,0,0-.644.616,1.039,1.039,0,0,1-1.5.021,2.675,2.675,0,0,0-1.885-1.15c-.238-.01-.074-.185-.051-.262a5.715,5.715,0,0,1,2.2-3.106,5.824,5.824,0,0,1,1.249-.681c.676-.27.747-.389.747-1.138,0-.625.008-1.251,0-1.876,0-.231.031-.35.309-.344.759.019,1.519.016,2.278,0,.249-.005.3.093.293.313-.012.626,0,1.251,0,1.877,0,.8.062.882.8,1.191a5.868,5.868,0,0,1,3.5,4.031" transform="translate(-61.15 -135.067)" fill="#d1d0d4"/>
      <path id="Trazado_131165" data-name="Trazado 131165" d="M96.522,184.258a5.914,5.914,0,0,1-5.875-5.578c-.018-.322.087-.355.353-.288.41.1.616.453.89.715a2.452,2.452,0,0,0,2.876.477,3.522,3.522,0,0,0,1-.735c.653-.665,1.125-.671,1.768-.007a2.679,2.679,0,0,0,1.69.989,2.384,2.384,0,0,0,2-.682q.332-.33.682-.643a.426.426,0,0,1,.455-.1c.145.067.067.24.063.365a5.9,5.9,0,0,1-5.9,5.488m-.721-2.2c0-.751,0-.751-.694-.751-.769,0-.769,0-.769.773,0,.718,0,.718.723.718.741,0,.741,0,.741-.74m2.214.74c.741,0,.741,0,.741-.518,0-.972,0-.972-.562-.973-.9,0-.9,0-.9.595,0,.9,0,.9.721.9" transform="translate(-61.066 -139.928)" fill="#7d9bbc"/>
      <path id="Trazado_131166" data-name="Trazado 131166" d="M98.924,161.544c-.386,0-.772-.011-1.157,0-.219.008-.284-.072-.275-.282a8.664,8.664,0,0,0,0-.934c-.016-.253.1-.29.316-.287.756.01,1.513.013,2.27,0,.241,0,.29.083.3.307.041,1.193.047,1.193-1.139,1.193h-.311" transform="translate(-63.49 -133.447)" fill="#cccbcf"/>
      <path id="Trazado_131167" data-name="Trazado 131167" d="M47.193,123.348a2.129,2.129,0,0,1,2.253-2.141A2.153,2.153,0,0,1,51.6,123.46a2.18,2.18,0,0,1-2.265,2.153,2.156,2.156,0,0,1-2.141-2.265" transform="translate(-45.68 -119.696)" fill="#c75359"/>
      <path id="Trazado_131168" data-name="Trazado 131168" d="M66.961,124.128a1.464,1.464,0,0,1-.042-2.927,1.464,1.464,0,1,1,.042,2.927" transform="translate(-52.158 -119.694)" fill="#e38b40"/>
      <path id="Trazado_131169" data-name="Trazado 131169" d="M60.074,131.062a.734.734,0,0,1-1.468.029.734.734,0,0,1,1.468-.029" transform="translate(-49.721 -122.936)" fill="#7d9bbc"/>
      <path id="Trazado_131170" data-name="Trazado 131170" d="M56.484,179.046a2.959,2.959,0,0,1-2.958,2.948,2.951,2.951,0,0,1,.013-5.9,2.944,2.944,0,0,1,2.945,2.954m-2.921,1.46a1.483,1.483,0,0,0,1.462-1.484,1.5,1.5,0,0,0-1.5-1.458,1.478,1.478,0,0,0-1.449,1.493,1.459,1.459,0,0,0,1.484,1.449" transform="translate(-46.881 -139.13)" fill="#030303"/>
      <path id="Trazado_131171" data-name="Trazado 131171" d="M65.394,182.8a2.218,2.218,0,1,1,2.22-2.206,2.2,2.2,0,0,1-2.22,2.206m-.01-2.947a.692.692,0,0,0-.716.739.675.675,0,0,0,.731.715.685.685,0,0,0,.721-.729.7.7,0,0,0-.735-.725" transform="translate(-51.338 -139.933)" fill="#030202"/>
      <path id="Trazado_131172" data-name="Trazado 131172" d="M74.468,173.741a2.2,2.2,0,1,1-2.188-2.223,2.144,2.144,0,0,1,2.188,2.223m-2.2-.754a.739.739,0,1,0,.736.742.734.734,0,0,0-.736-.742" transform="translate(-53.778 -137.51)" fill="#030202"/>
      <path id="Trazado_131173" data-name="Trazado 131173" d="M76.089,183.68c0,.736,0,.736-.758.736-.7,0-.7,0-.7-.7,0-.79,0-.79.715-.79.745,0,.745,0,.745.758" transform="translate(-55.395 -141.548)" fill="#040403"/>
      <path id="Trazado_131174" data-name="Trazado 131174" d="M80.664,183.68c0,.728,0,.728-.723.728s-.737,0-.737-.714c0-.782,0-.782.767-.782a1.173,1.173,0,0,0,.178,0c.4-.062.59.076.516.5a1.605,1.605,0,0,0,0,.267" transform="translate(-57.015 -141.539)" fill="#040403"/>
      <path id="Trazado_131175" data-name="Trazado 131175" d="M57.793,172.254c0,.72,0,.72-.82.72-.643,0-.643,0-.643-.858,0-.6,0-.6.937-.6.526,0,.526,0,.526.741" transform="translate(-48.916 -137.508)" fill="#030202"/>
      <path id="Trazado_131176" data-name="Trazado 131176" d="M62.367,172.259c0,.715,0,.715-.824.715-.638,0-.638,0-.638-.863,0-.6,0-.6.941-.6.521,0,.521,0,.521.746" transform="translate(-50.536 -137.508)" fill="#030202"/>
      <path id="Trazado_131177" data-name="Trazado 131177" d="M97.826,183.678c0,.74,0,.74-.742.74-.722,0-.722,0-.722-.718,0-.773,0-.773.769-.773.695,0,.695,0,.695.751" transform="translate(-63.09 -141.55)" fill="#040403"/>
      <path id="Trazado_131178" data-name="Trazado 131178" d="M101.659,184.419c-.721,0-.721,0-.721-.9,0-.6,0-.6.9-.595.563,0,.563,0,.562.973,0,.518,0,.518-.741.518" transform="translate(-64.711 -141.55)" fill="#040403"/>
      <path id="Trazado_131179" data-name="Trazado 131179" d="M54.382,181.314a1.459,1.459,0,0,1-1.484-1.449,1.478,1.478,0,0,1,1.449-1.493,1.5,1.5,0,0,1,1.5,1.458,1.483,1.483,0,0,1-1.462,1.484" transform="translate(-47.7 -139.937)" fill="#fbfbfb"/>
      <path id="Trazado_131180" data-name="Trazado 131180" d="M66.2,180.666a.7.7,0,0,1,.735.725.685.685,0,0,1-.721.729.675.675,0,0,1-.731-.715.692.692,0,0,1,.716-.739" transform="translate(-52.158 -140.749)" fill="#f7f9fa"/>
      <path id="Trazado_131181" data-name="Trazado 131181" d="M73.069,173.793a.739.739,0,1,1-.745.734.732.732,0,0,1,.745-.734" transform="translate(-54.579 -138.316)" fill="#f7f9fa"/>
    </g>
  </g>
</svg>
