<svg xmlns="http://www.w3.org/2000/svg" width="150.617" height="150.617" viewBox="0 0 150.617 150.617">
  <g id="Grupo_86115" data-name="Grupo 86115" transform="translate(-0.278 -0.277)">
    <circle id="Elipse_5411" data-name="Elipse 5411" cx="75.308" cy="75.308" r="75.308" transform="translate(0.278 0.277)" fill="#2ff980"/>
    <g id="Grupo_86119" data-name="Grupo 86119" transform="translate(-2272.206 168.811)">
      <path id="Trazado_128347" data-name="Trazado 128347" d="M2347.87-97.717h54.907c3.388,0,4.853,1.449,4.854,4.8q0,6.308,0,12.616c-.005,2.935-1.6,4.527-4.569,4.529q-16.064.011-32.127-.022c-.971,0-1.219.224-1.2,1.2.068,3.27.047,6.542.01,9.812-.009.73.135,1.064.937.967.99-.119,2.319.423,2.895-.223.49-.551.157-1.847.16-2.813.01-2.714.864-4.125,2.859-4.766a4.8,4.8,0,0,1,1.5-.167q12.558-.006,25.117,0c2.824,0,4.411,1.589,4.418,4.406q.016,6.541,0,13.084c-.007,2.8-1.609,4.428-4.419,4.438q-9.171.031-18.342-.011c-.857,0-1.294.131-1.163,1.112.123.917-.375,2.119.186,2.7s1.772.178,2.695.182c5.491.019,10.981,0,16.472.011,3.055,0,4.57,1.532,4.573,4.6q.006,6.367,0,12.734c0,3.024-1.566,4.588-4.619,4.594-6.036.011-12.072.027-18.107-.021-.966-.008-1.218.221-1.213,1.2.016,3.152.111,6.3-.066,9.456a10.04,10.04,0,0,1-10.346,9.3c-9.034-.044-18.068-.012-27.1-.012-7.944,0-15.888.024-23.832-.01a9.874,9.874,0,0,1-9.422-5.7,10.964,10.964,0,0,1-1.013-4.977c-.023-2.764-.035-5.53.012-8.294.014-.773-.215-.963-.97-.959-6.036.03-12.072.019-18.107.016-3.365,0-4.853-1.485-4.854-4.83q0-6.309,0-12.617c.005-2.907,1.559-4.477,4.456-4.482,6.114-.01,12.228-.027,18.341.021.951.007,1.147-.284,1.135-1.17-.042-2.843-.008-2.843-2.806-2.843q-8.177,0-16.355,0c-3.26,0-4.771-1.524-4.772-4.795q0-6.308,0-12.617c0-2.971,1.557-4.522,4.537-4.523q12.442-.008,24.883,0c2.907,0,4.453,1.561,4.47,4.467,0,.156,0,.311,0,.467,0,3.366,0,3.353,3.412,3.04.469-.043.577-.188.575-.621q-.02-5.374,0-10.748c0-.455-.143-.637-.6-.593-.27.026-.544,0-.817,0q-15.772,0-31.543,0c-3.442,0-4.919-1.467-4.92-4.883,0-4.05.11-8.1-.038-12.148-.108-2.949,1.621-4.975,5.01-4.959C2311.265-97.671,2329.567-97.717,2347.87-97.717Zm51.781,69.73c1.086.03,2.172.047,3.258.095.543.024.754-.177.752-.739q-.025-6.242,0-12.485c0-.649-.273-.786-.839-.765-1.048.039-2.1.035-3.148.048q-7.59-.02-15.182-.047c-.519,0-.774.118-.772.706q.027,6.249,0,12.5c0,.544.2.77.748.766Q2392.062-27.959,2399.65-27.987Zm.007-25.906c1.087.022,2.174.03,3.26.074.555.022.744-.2.742-.748q-.023-6.242,0-12.484c0-.654-.279-.781-.84-.761-1.049.038-2.1.033-3.148.046q-10.616-.019-21.232-.048c-.556,0-.747.172-.731.731.034,1.165.032,2.334,0,3.5a.884.884,0,0,0,.565.9,9.571,9.571,0,0,1,5.345,8.063c.047.574.273.8.873.8C2389.548-53.862,2394.6-53.874,2399.657-53.893Zm-85.677-6.114c.558-.538,1.024-1.294,1.691-1.574,2.2-.923,2.522-2.615,2.233-4.667a3.565,3.565,0,0,1,0-.815c.05-.544-.158-.769-.724-.748-1.086.041-2.174.033-3.262.045q-10.559-.019-21.119-.046c-.547,0-.846.071-.842.743.028,4.162.021,8.324.005,12.485,0,.541.154.759.724.758q9.219-.021,18.437,0c.6,0,.856-.216.873-.8A10.4,10.4,0,0,1,2313.98-60.008ZM2399.674-93.7c-.194-.012-.388-.034-.582-.034q-16.405,0-32.811,0c-.171,0-.392-.1-.546.218a14.284,14.284,0,0,1,2.545,3.544c1.453,2.8,1.6,5.819,1.463,8.869-.046,1.03.2,1.381,1.314,1.368,5.448-.064,10.9-.022,16.346-.031,4.086-.007,8.171-.032,12.257-.05,1.087.02,2.176.023,3.263.066.562.022.738-.207.736-.753q-.022-6.243,0-12.486c0-.655-.28-.78-.841-.759C2401.774-93.706,2400.724-93.711,2399.674-93.7ZM2373.254-8.05a5.441,5.441,0,0,0,3.56-.829c2.25-1.347,2.941-3.513,2.956-5.964.027-4.317.007-8.634.007-12.951,0-8.4.014-16.8-.005-25.2-.01-4.3-2.626-6.995-6.517-6.793-.388-.019-.776-.054-1.164-.055q-24.751,0-49.5,0c-4.243,0-6.638,2.4-6.64,6.663q-.01,19.264,0,38.528a7.942,7.942,0,0,0,.221,2.312c.83,2.777,3.078,4.353,6.3,4.353q24.81.007,49.62,0C2372.478-7.99,2372.866-8.029,2373.254-8.05Zm-35.43-65.936c0,3.073.027,6.148-.019,9.221-.012.782.224.96.978.957q9.046-.046,18.092,0c.814,0,.939-.28.937-1-.025-6.108-.008-12.217-.018-18.325,0-1.935-.74-2.643-2.706-2.645q-7.295-.008-14.591,0c-1.942,0-2.663.725-2.67,2.682C2337.816-80.056,2337.824-77.021,2337.824-73.986Zm-7.776-19.683c-.363-.037-.506-.065-.648-.065q-18.274,0-36.546-.019c-.745,0-.9.237-.9.931.03,3.931.051,7.862-.01,11.792-.016,1.009.216,1.3,1.27,1.3,10.314-.044,20.628-.027,30.942-.027,1.7,0,1.766,0,1.69-1.747C2325.65-86.035,2326.561-90.173,2330.048-93.669Zm35.729,19.452c0-3.037.024-6.074,0-9.111a10.062,10.062,0,0,0-10.486-10.405c-4.983-.017-9.967-.007-14.951,0a10.4,10.4,0,0,0-4.852,1.049c-3.844,1.986-5.6,5.239-5.629,9.475-.035,5.49-.012,10.98,0,16.47,0,.927-.3,2.159.167,2.7.559.642,1.834.088,2.782.226s1.062-.272,1.057-1.1c-.035-6.035-.024-12.07-.017-18.1.005-4.294,2.446-6.734,6.732-6.739q7.184-.008,14.367,0c4.442,0,6.846,2.408,6.849,6.857,0,5.373-.01,10.746.012,16.119,0,.957-.443,2.263.193,2.776.6.482,1.859.1,2.817.194.884.089,1-.3.987-1.062C2365.753-67.987,2365.777-71.1,2365.776-74.217Zm-63.85,46.3c3,0,6-.023,8.993.016.776.01.994-.241.988-1q-.048-6.014,0-12.029c.008-.787-.258-.969-1-.965q-8.993.039-17.986,0c-.771,0-.978.222-.972.98q.053,6.014,0,12.029c-.007.775.219,1,.982.987C2295.931-27.935,2298.929-27.912,2301.927-27.912Z" transform="translate(0 -29.404)" fill="#020202"/>
      <path id="Trazado_128348" data-name="Trazado 128348" d="M2390.869-153.05q8.643,0,17.286,0c3.108,0,4.656,1.551,4.659,4.664q.008,6.365,0,12.73c-.006,2.933-1.618,4.551-4.548,4.552q-17.4.01-34.805,0c-2.928,0-4.535-1.621-4.542-4.559q-.013-6.423,0-12.847c.007-2.953,1.594-4.536,4.549-4.539Q2382.168-153.057,2390.869-153.05Zm14,4.026q-15.594-.022-31.19-.059c-.75,0-.792.347-.79.927.015,3.933.043,7.867-.016,11.8-.016,1,.208,1.311,1.269,1.3,6.776-.054,13.552-.022,20.328-.03,3.464,0,6.929-.032,10.394-.049,1.047.018,2.095.019,3.141.061.568.022.843-.125.84-.77q-.032-6.231,0-12.462c0-.641-.261-.794-.833-.771C2406.966-149.035,2405.918-149.039,2404.871-149.024Z" transform="translate(-43.055 0)" fill="#010101"/>
      <path id="Trazado_128349" data-name="Trazado 128349" d="M2305.028-153.05q6.192,0,12.384,0c2.91.005,4.5,1.569,4.51,4.439q.015,6.541,0,13.084a4.038,4.038,0,0,1-4.426,4.421q-12.5.017-25,0c-2.862,0-4.455-1.626-4.46-4.511q-.012-6.483,0-12.967c.006-2.875,1.6-4.459,4.492-4.465Q2298.777-153.06,2305.028-153.05Zm8.93,4.02q-10.56-.02-21.12-.048c-.557,0-.841.09-.837.752.027,4.162.02,8.324.005,12.486,0,.527.124.768.71.765q10.619-.045,21.237-.055c1.089.016,2.178.014,3.266.056.566.022.735-.21.733-.753q-.022-6.248,0-12.5c0-.662-.291-.773-.846-.754C2316.059-149.039,2315.008-149.043,2313.958-149.03Z" transform="translate(-0.043 0)" fill="#010101"/>
      <path id="Trazado_128350" data-name="Trazado 128350" d="M2488.162-153.05q6.192,0,12.383,0c2.949.006,4.515,1.585,4.519,4.556q.01,6.425,0,12.851c0,2.948-1.592,4.537-4.55,4.539q-12.384.011-24.767,0c-2.979,0-4.565-1.572-4.571-4.513q-.011-6.484,0-12.967c.006-2.881,1.593-4.46,4.484-4.465Q2481.911-153.06,2488.162-153.05Zm-12.97,17.754c-.011.147.05.216.2.184l21.708-.018c1.088.016,2.177.014,3.264.056.57.022.729-.22.728-.758q-.022-6.243,0-12.485c0-.655-.281-.78-.842-.759-1.048.039-2.1.035-3.148.048-7.074-.014-14.148-.019-21.222-.054-.677,0-.74.3-.737.845C2475.174-143.924,2475.18-139.609,2475.192-135.3Z" transform="translate(-97.435 0)" fill="#010101"/>
      <path id="Trazado_128351" data-name="Trazado 128351" d="M2405.051,35.008c-.388.021-.775.06-1.163.06q-24.81,0-49.621,0c-3.22,0-5.469-1.576-6.3-4.353a7.95,7.95,0,0,1-.221-2.312q-.008-19.264,0-38.528c0-4.259,2.4-6.661,6.641-6.663q24.752-.008,49.5,0c.387,0,.776.036,1.163.055a2.157,2.157,0,0,0,.27.5,7.934,7.934,0,0,1,2.129,5.832q-.07,19.709-.006,39.419a9.215,9.215,0,0,1-1.146,4.329C2405.972,33.984,2405.247,34.293,2405.051,35.008Zm-5.538-25.876a19.905,19.905,0,1,0-39.811.023,19.905,19.905,0,0,0,39.811-.023Z" transform="translate(-31.797 -72.462)" fill="#ab9df1"/>
      <path id="Trazado_128352" data-name="Trazado 128352" d="M2334.588-89.119c-3.488,3.5-4.4,7.634-4.2,12.164.076,1.744.012,1.747-1.69,1.747-10.314,0-20.628-.017-30.942.027-1.054,0-1.285-.288-1.27-1.3.061-3.93.04-7.862.01-11.793,0-.694.153-.933.9-.931q18.273.036,36.546.019C2334.082-89.183,2334.224-89.156,2334.588-89.119Zm-27.157,7.893c1.593,0,3.185.018,4.777-.006a2.054,2.054,0,0,0,2.251-2.006,2.039,2.039,0,0,0-2.2-1.955q-4.776-.052-9.554,0a2.04,2.04,0,0,0-2.194,1.961,2.058,2.058,0,0,0,2.259,2C2304.323-81.208,2305.877-81.226,2307.43-81.226Z" transform="translate(-4.54 -33.954)" fill="#826be9"/>
      <path id="Trazado_128353" data-name="Trazado 128353" d="M2488.01-75.251c-4.085.017-8.171.043-12.257.05-5.448.009-10.9-.033-16.346.031-1.115.013-1.36-.338-1.314-1.368.137-3.051-.009-6.07-1.463-8.869a14.285,14.285,0,0,0-2.545-3.544c.154-.314.375-.218.546-.218q16.405-.008,32.811,0c.194,0,.388.022.582.034Z" transform="translate(-88.349 -33.964)" fill="#826be9"/>
      <path id="Trazado_128354" data-name="Trazado 128354" d="M2413.257-69.655c0,3.115-.023,6.23.017,9.344.01.762-.1,1.151-.986,1.062-.959-.1-2.218.288-2.817-.194-.636-.513-.19-1.819-.193-2.776-.022-5.373-.008-10.746-.012-16.119,0-4.449-2.407-6.855-6.849-6.857q-7.184,0-14.367,0c-4.286,0-6.727,2.444-6.731,6.739-.007,6.035-.018,12.07.017,18.1,0,.825-.123,1.234-1.057,1.1-.949-.138-2.224.416-2.782-.226-.47-.541-.166-1.774-.167-2.7-.007-5.49-.03-10.98,0-16.47.026-4.236,1.785-7.49,5.629-9.475a10.406,10.406,0,0,1,4.853-1.049c4.983-.006,9.967-.016,14.951,0a10.062,10.062,0,0,1,10.486,10.405C2413.281-75.729,2413.256-72.692,2413.257-69.655Z" transform="translate(-47.48 -33.965)" fill="#cdd5d8"/>
      <path id="Trazado_128355" data-name="Trazado 128355" d="M2318.534-25.995a10.4,10.4,0,0,0-1.984,5.387c-.017.58-.276.8-.873.8q-9.218-.025-18.437,0c-.571,0-.727-.217-.725-.758.015-4.162.022-8.323-.005-12.485,0-.671.3-.745.843-.743q10.559.037,21.118.046Q2318.5-29.874,2318.534-25.995ZM2304.465-29.8v0c-.662,0-1.327-.041-1.985.009a2.031,2.031,0,0,0-1.957,1.958,1.989,1.989,0,0,0,1.926,1.975c1.36.061,2.727.059,4.087,0a1.914,1.914,0,0,0,1.919-1.946,1.939,1.939,0,0,0-1.889-1.986C2305.872-29.849,2305.167-29.8,2304.465-29.8Z" transform="translate(-4.553 -63.417)" fill="#826be9"/>
      <path id="Trazado_128356" data-name="Trazado 128356" d="M2501.606-19.882c-5.054.019-10.108.031-15.163.068-.6,0-.826-.226-.873-.8a9.57,9.57,0,0,0-5.345-8.063.884.884,0,0,1-.565-.9q.049-1.749,0-3.5c-.017-.559.175-.733.731-.731q10.616.041,21.232.048c-.1,1.7.27,3.415-.2,5.1a4.474,4.474,0,0,0-4.865-.824,1.971,1.971,0,0,0,.011,3.32,4.446,4.446,0,0,0,4.857-.844.883.883,0,0,1,.2.753Q2501.622-23.066,2501.606-19.882Z" transform="translate(-101.949 -63.415)" fill="#826be9"/>
      <path id="Trazado_128357" data-name="Trazado 128357" d="M2306.475,35.538c-3,0-6-.022-8.992.015-.762.009-.989-.212-.981-.987q.057-6.014,0-12.029c-.006-.758.2-.984.972-.98q8.993.046,17.986,0c.74,0,1.005.178,1,.965q-.056,6.014,0,12.029c.006.759-.212,1.01-.988,1C2312.471,35.515,2309.473,35.538,2306.475,35.538Zm1.054-6.005c1.554,0,3.109.019,4.663-.006a2,2,0,1,0-.012-3.966q-4.662-.029-9.325,0a2.067,2.067,0,0,0-2.331,1.929c-.04,1.178.909,2.022,2.342,2.04C2304.42,29.548,2305.975,29.533,2307.529,29.533Z" transform="translate(-4.548 -92.854)" fill="#826be9"/>
      <path id="Trazado_128358" data-name="Trazado 128358" d="M2508.427,35.476q-7.588.036-15.177.076c-.552,0-.75-.223-.749-.766q.019-6.249,0-12.5c0-.589.253-.709.772-.706q7.591.038,15.183.047Q2508.441,28.553,2508.427,35.476Z" transform="translate(-108.777 -92.867)" fill="#826be9"/>
      <path id="Trazado_128359" data-name="Trazado 128359" d="M2470.141,35.062c.2-.715.921-1.024,1.247-1.657a9.213,9.213,0,0,0,1.147-4.329q-.046-19.709.006-39.419a7.934,7.934,0,0,0-2.129-5.832,2.148,2.148,0,0,1-.27-.5c3.89-.2,6.507,2.5,6.517,6.793.019,8.4.005,16.8.005,25.2,0,4.317.02,8.634-.007,12.951-.015,2.452-.705,4.618-2.956,5.964A5.441,5.441,0,0,1,2470.141,35.062Z" transform="translate(-96.887 -72.516)" fill="#826be9"/>
      <path id="Trazado_128360" data-name="Trazado 128360" d="M2526.331-19.882q.015-3.184.029-6.368a.882.882,0,0,0-.2-.753,3,3,0,0,0,0-1.652c.466-1.685.091-3.4.2-5.1,1.049-.013,2.1-.007,3.147-.046.562-.02.844.107.841.761q-.036,6.242,0,12.484c0,.552-.188.771-.743.748C2528.5-19.852,2527.417-19.86,2526.331-19.882Z" transform="translate(-126.673 -63.415)" fill="#583ae2"/>
      <path id="Trazado_128361" data-name="Trazado 128361" d="M2526.518,35.473q.013-6.924.026-13.847c1.05-.014,2.1-.009,3.148-.048.565-.021.842.116.838.765q-.034,6.243,0,12.485c0,.562-.209.763-.752.739C2528.69,35.52,2527.6,35.5,2526.518,35.473Z" transform="translate(-126.868 -92.864)" fill="#583ae2"/>
      <path id="Trazado_128362" data-name="Trazado 128362" d="M2526.54-75.254l.014-13.887c1.049-.013,2.1-.007,3.148-.045.562-.02.845.1.841.759q-.036,6.243,0,12.486c0,.546-.175.775-.736.753C2528.716-75.231,2527.627-75.234,2526.54-75.254Z" transform="translate(-126.879 -33.962)" fill="#583ae2"/>
      <path id="Trazado_128363" data-name="Trazado 128363" d="M2343.476-25.995q-.031-3.879-.062-7.758c1.087-.012,2.175,0,3.262-.045.565-.022.773.2.724.748a3.551,3.551,0,0,0,0,.815c.289,2.051-.037,3.743-2.233,4.667C2344.5-27.288,2344.034-26.533,2343.476-25.995Z" transform="translate(-29.496 -63.417)" fill="#583ae2"/>
      <path id="Trazado_128364" data-name="Trazado 128364" d="M2409.367-130.628c-3.465.017-6.93.045-10.394.049-6.776.008-13.552-.024-20.328.03-1.061.008-1.284-.3-1.269-1.3.059-3.932.031-7.866.016-11.8,0-.579.04-.929.79-.927q15.6.055,31.19.059Q2409.369-137.572,2409.367-130.628Zm-21.052-5.973c1.594,0,3.187.016,4.781-.005a2.03,2.03,0,0,0,2.26-1.982,2.038,2.038,0,0,0-2.172-1.98q-4.779-.06-9.561,0a2.028,2.028,0,0,0-2.2,2.065,2.031,2.031,0,0,0,2.226,1.9C2385.2-136.582,2386.76-136.6,2388.315-136.6Z" transform="translate(-47.556 -4.507)" fill="#826be9"/>
      <path id="Trazado_128365" data-name="Trazado 128365" d="M2445.7-130.622q0-6.945,0-13.89c1.048-.015,2.1-.011,3.142-.052.572-.022.837.13.833.771q-.034,6.231,0,12.462c0,.644-.271.792-.84.77C2447.8-130.6,2446.747-130.6,2445.7-130.622Z" transform="translate(-83.89 -4.512)" fill="#583ae2"/>
      <path id="Trazado_128366" data-name="Trazado 128366" d="M2318.463-130.616q-10.619.023-21.236.055c-.586,0-.712-.238-.71-.765.015-4.162.021-8.324,0-12.486,0-.662.279-.754.837-.752q10.56.039,21.12.048Q2318.466-137.566,2318.463-130.616Zm-13.948-5.995c.7,0,1.4.043,2.091-.01a1.811,1.811,0,0,0,1.828-1.754,1.733,1.733,0,0,0-1.456-2.059,14.5,14.5,0,0,0-4.963,0,1.836,1.836,0,0,0-1.461,2.075,1.9,1.9,0,0,0,1.869,1.744C2303.12-136.575,2303.818-136.608,2304.516-136.61Z" transform="translate(-4.554 -4.514)" fill="#826be9"/>
      <path id="Trazado_128367" data-name="Trazado 128367" d="M2343.4-130.617q0-6.95.006-13.9c1.05-.013,2.1-.009,3.151-.047.556-.02.85.092.846.754q-.037,6.249,0,12.5c0,.543-.166.775-.733.753C2345.573-130.6,2344.484-130.6,2343.4-130.617Z" transform="translate(-29.486 -4.512)" fill="#583ae2"/>
      <path id="Trazado_128368" data-name="Trazado 128368" d="M2501.619-130.622l-21.708.018-.2-.184c-.012-4.314-.018-8.628-.044-12.942,0-.542.061-.848.738-.845,7.073.035,14.147.04,21.221.054-.105,1.694.279,3.407-.2,5.086a4.408,4.408,0,0,0-4.877-.773,1.952,1.952,0,0,0-.04,3.246,4.366,4.366,0,0,0,4.938-.82c.255.251.19.575.19.879Q2501.633-133.762,2501.619-130.622Z" transform="translate(-101.952 -4.508)" fill="#826be9"/>
      <path id="Trazado_128369" data-name="Trazado 128369" d="M2526.332-130.618q.01-3.141.017-6.282c0-.3.065-.628-.19-.879a2.992,2.992,0,0,0-.021-1.652c.479-1.679.1-3.392.2-5.086,1.049-.014,2.1-.009,3.148-.048.562-.021.846.1.843.759q-.036,6.243,0,12.485c0,.538-.158.781-.728.758C2528.508-130.6,2527.42-130.6,2526.332-130.618Z" transform="translate(-126.665 -4.512)" fill="#583ae2"/>
      <path id="Trazado_128370" data-name="Trazado 128370" d="M2479.758-115.128l.2.184C2479.807-114.912,2479.747-114.981,2479.758-115.128Z" transform="translate(-102 -20.167)" fill="#b43731"/>
      <path id="Trazado_128371" data-name="Trazado 128371" d="M2413.1,15.976a19.906,19.906,0,1,1-19.982-19.9A19.835,19.835,0,0,1,2413.1,15.976ZM2393.17,31.912a15.928,15.928,0,1,0-15.905-15.978A15.915,15.915,0,0,0,2393.17,31.912Z" transform="translate(-45.382 -79.306)" fill="#020202"/>
      <path id="Trazado_128372" data-name="Trazado 128372" d="M2312-76.7c-1.553,0-3.108.018-4.661-.006a2.058,2.058,0,0,1-2.259-2,2.04,2.04,0,0,1,2.194-1.961q4.776-.053,9.554,0a2.039,2.039,0,0,1,2.2,1.955,2.054,2.054,0,0,1-2.251,2.006C2315.188-76.684,2313.595-76.7,2312-76.7Z" transform="translate(-9.112 -38.478)" fill="#010101"/>
      <path id="Trazado_128373" data-name="Trazado 128373" d="M2309.023-25.281c.7,0,1.406-.048,2.1.011a1.94,1.94,0,0,1,1.889,1.986,1.914,1.914,0,0,1-1.919,1.946c-1.361.055-2.727.057-4.087,0a1.988,1.988,0,0,1-1.926-1.975,2.031,2.031,0,0,1,1.956-1.958c.658-.051,1.323-.009,1.985-.009Z" transform="translate(-9.112 -67.936)" fill="#020202"/>
      <path id="Trazado_128374" data-name="Trazado 128374" d="M2519.6-24.2a3,3,0,0,1,0,1.652,4.446,4.446,0,0,1-4.857.844,1.971,1.971,0,0,1-.012-3.32A4.474,4.474,0,0,1,2519.6-24.2Z" transform="translate(-120.123 -67.874)" fill="#020202"/>
      <path id="Trazado_128375" data-name="Trazado 128375" d="M2312.1,34.064c-1.554,0-3.108.015-4.663,0-1.433-.017-2.382-.862-2.342-2.04a2.066,2.066,0,0,1,2.33-1.929q4.662-.025,9.325,0a2,2,0,1,1,.011,3.966C2315.206,34.083,2313.651,34.064,2312.1,34.064Z" transform="translate(-9.117 -97.386)" fill="#010101"/>
      <path id="Trazado_128376" data-name="Trazado 128376" d="M2392.91-132.081c-1.555,0-3.11.018-4.665-.006a2.032,2.032,0,0,1-2.227-1.9,2.028,2.028,0,0,1,2.2-2.065q4.78-.057,9.561,0a2.038,2.038,0,0,1,2.172,1.98,2.03,2.03,0,0,1-2.26,1.982C2396.1-132.064,2394.5-132.081,2392.91-132.081Z" transform="translate(-52.151 -9.026)" fill="#020202"/>
      <path id="Trazado_128377" data-name="Trazado 128377" d="M2309.08-132.161c-.7,0-1.4.034-2.091-.007a1.9,1.9,0,0,1-1.869-1.744,1.835,1.835,0,0,1,1.461-2.075,14.5,14.5,0,0,1,4.963,0,1.733,1.733,0,0,1,1.456,2.059,1.811,1.811,0,0,1-1.828,1.754C2310.477-132.12,2309.777-132.163,2309.08-132.161Z" transform="translate(-9.118 -8.961)" fill="#020202"/>
      <path id="Trazado_128378" data-name="Trazado 128378" d="M2519.589-134.959a2.994,2.994,0,0,1,.021,1.652,4.367,4.367,0,0,1-4.939.82,1.952,1.952,0,0,1,.041-3.246A4.407,4.407,0,0,1,2519.589-134.959Z" transform="translate(-120.117 -8.983)" fill="#020202"/>
      <path id="Trazado_128379" data-name="Trazado 128379" d="M2397.688,36.43a15.928,15.928,0,1,1,15.95-15.939A15.9,15.9,0,0,1,2397.688,36.43Zm-1.979-7.954c0,.544-.019,1.09,0,1.633.064,1.5.817,2.348,2.044,2.32,1.179-.026,1.9-.846,1.948-2.3.035-1.01.041-2.024,0-3.033a1.039,1.039,0,0,1,.772-1.2,7.916,7.916,0,0,0,5.147-8.47,7.986,7.986,0,0,0-15.567-1.16,7.666,7.666,0,0,0,4.041,9.211,2.374,2.374,0,0,1,1.615,2.883A.808.808,0,0,0,2395.709,28.476Z" transform="translate(-49.899 -83.823)" fill="#ced6d9"/>
      <path id="Trazado_128380" data-name="Trazado 128380" d="M2404.747,35.244a.978.978,0,0,1,0-.117,2.374,2.374,0,0,0-1.614-2.883,7.665,7.665,0,0,1-4.041-9.211,7.986,7.986,0,0,1,15.567,1.16,7.917,7.917,0,0,1-5.147,8.47,1.039,1.039,0,0,0-.772,1.2c.044,1.009.039,2.023,0,3.033-.051,1.451-.769,2.271-1.947,2.3-1.228.027-1.98-.818-2.045-2.32C2404.729,36.334,2404.748,35.788,2404.747,35.244Zm2-6.064a3.9,3.9,0,1,0-3.967-3.877A3.865,3.865,0,0,0,2406.747,29.18Z" transform="translate(-58.939 -90.591)" fill="#030303"/>
      <path id="Trazado_128381" data-name="Trazado 128381" d="M2411.29,33.813a3.9,3.9,0,1,1,3.972-3.872A3.865,3.865,0,0,1,2411.29,33.813Z" transform="translate(-63.481 -95.224)" fill="#826be9"/>
    </g>
  </g>
</svg>
