<svg xmlns="http://www.w3.org/2000/svg" width="90.997" height="90.997" viewBox="0 0 90.997 90.997">
  <g id="Grupo_86761" data-name="Grupo 86761" transform="translate(-0.278 -0.277)">
    <circle id="Elipse_5411" data-name="Elipse 5411" cx="45.498" cy="45.498" r="45.498" transform="translate(0.278 0.277)" fill="#2ff980"/>
    <g id="Grupo_86514" data-name="Grupo 86514" transform="translate(-5969.761 8339.8)">
      <path id="Trazado_130295" data-name="Trazado 130295" d="M2025.818,65.334c-.917-.22-1.14-.523-1.141-1.592q0-11.418,0-22.836c0-1.226-.012-2.453,0-3.679a3.187,3.187,0,0,1,3.381-3.349c2.964-.007,5.928-.016,8.892.011.537,0,.672-.14.669-.673-.023-4.419-.015-8.838-.012-13.257,0-2.471,1.257-3.732,3.707-3.732q9.736,0,19.471,0c2.389,0,3.68,1.3,3.682,3.7,0,4.419.012,8.838-.014,13.257,0,.57.128.725.707.712,1.839-.041,3.68-.035,5.519,0,.517.009.615-.148.607-.639a13.3,13.3,0,0,1,1.164-5.724c.466-1.036.733-1.182,1.831-.98a1.464,1.464,0,0,1,.275,1.926,11.436,11.436,0,0,0,8.955,15.935,9.153,9.153,0,0,0,3.576-.053,11.381,11.381,0,0,0,9.4-10.3,10.7,10.7,0,0,0-2.835-8.518c-.252-.283-.483-.59-.76-.847a11.4,11.4,0,0,0-14.775-.735c-.643.487-1.249.8-1.988.231-.468-.9-.415-1.322.367-1.909,4.208-3.161,8.83-3.938,13.709-1.956a13.138,13.138,0,0,1,8.487,10.929,13.242,13.242,0,0,1-3.779,11.416,1.332,1.332,0,0,0-.4,1.01q.014,16.625-.008,33.25c0,.6.174.74.726.691,2.581-.226,3.811.75,3.6,3.65a27.252,27.252,0,0,1-.115,3.208,5,5,0,0,1-4.843,4.108c-1.762.028-3.525.009-5.288.009q-31.422,0-62.843,0a5.057,5.057,0,0,1-5.138-3.447,4.645,4.645,0,0,1-.268-1.5c0-1.2-.016-2.4,0-3.6a2.391,2.391,0,0,1,2.2-2.416c.076-.009.153-.013.229-.018.605-.04,1.426.262,1.765-.113.4-.442.119-1.264.124-1.92.017-1.941,0-3.882.01-5.822.005-.892.265-1.192,1.162-1.429a1.2,1.2,0,0,1,1.127,1.369c-.014,2.3-.005,4.6,0,6.895,0,.983,0,.984,1,.984h61.54c.255,0,.511-.012.766-.018.281,0,.562.009.842.006,1.272-.011,1.13.139,1.13-1.159q0-15.27,0-30.54c0-.179-.006-.357,0-.536.012-.4-.125-.418-.452-.238-.555.307-1.137.564-1.708.843-.639.04-.734.426-.733.991.016,8.021,0,16.042.021,24.063a3.2,3.2,0,0,1-.915,2.428,3.682,3.682,0,0,1-2.772.87q-26.1.006-52.206,0c-.1,0-.2,0-.307,0a3.19,3.19,0,0,1-3.359-3.494c.055-9.375.023-18.75.028-28.125a2.971,2.971,0,0,1,3.13-3.123c1.3-.007,2.607-.025,3.91.009.547.014.714-.18.686-.7-.037-.688-.03-1.38,0-2.068.019-.462-.142-.623-.613-.62-2.964.017-5.928.013-8.893.006a.97.97,0,0,0-1.088,1.012c-.021.254-.009.51-.009.766q0,12.912,0,25.825c0,1.117-.173,1.346-1.146,1.56m28.109-45.256c1.6.454,2.075.223,2.331-1.045.094-.463-.066-.515-.44-.5-.58.019-1.161.013-1.742.017q-3.865-.007-7.729-.01c-.185,0-.418-.088-.533.169a1.248,1.248,0,0,0,.925,1.479c2.4-.03,4.792-.071,7.187-.108m6.129,37.38c.229.006.459.018.688.018,1.094,0,1.438-.351,1.446-1.472,0-.459,0-.919,0-1.378,0-1.97,0-1.97-1.983-1.892-.817-.007-1.635-.019-2.452-.019-5.672,0-11.344.01-17.015-.015-.642,0-.841.179-.808.815.051.968.015,1.94.014,2.911a.921.921,0,0,0,1.025,1.053q9.542-.006,19.083-.019m34.481,22.494c-.305-.014-.611-.039-.916-.039q-13.1,0-26.207.012c-1.676,0-1.676,0-1.712,1.7A2.162,2.162,0,0,1,2063.319,84c-2.2.007-4.4-.081-6.589.023-2.777.131-3.447-1.067-3.24-3.282.066-.7-.193-.829-.845-.828q-14.558.031-29.118.014a1.791,1.791,0,0,1-.23,0c-.481-.064-.689.1-.659.627a16.485,16.485,0,0,1,0,2.373c-.174,1.98,1.068,3.406,3.411,3.4q33.333-.071,66.667-.029c.357,0,.714-.018,1.072-.028a2.688,2.688,0,0,0,2.753-2.668c.027-.636.007-1.274.007-1.91,0-2,0-2-2.01-1.737m-34.478-61.4c-1.305-.073-1.305-.073-1.6,1.186-.058.248-.112.5-.18.742a2.4,2.4,0,0,1-2.482,1.966q-4.749.04-9.5,0a2.437,2.437,0,0,1-2.523-2.016c-.178-.627-.044-1.518-.562-1.82-.5-.29-1.29-.085-1.952-.084-1.062,0-1.335.256-1.335,1.292q-.006,14.972-.016,29.944c0,.567.192.654.7.652,4.367-.019,8.734-.008,13.1-.012,2.17,0,4.34-.017,6.509-.026a8.226,8.226,0,0,1,1.068.037c.752.12.91-.178.909-.908q-.04-14.536-.018-29.071c0-1.827-.142-1.966-1.96-1.91a1.014,1.014,0,0,0-.15.026m25.148,28.337a14,14,0,0,1-10.539-4.8.86.86,0,0,0-.761-.233c-2.913,0-5.825.018-8.737-.015-.587-.007-.715.158-.712.724.024,4.546.019,9.092.011,13.638a3.28,3.28,0,0,1-3.56,3.585q-9.888.008-19.774,0a4.405,4.405,0,0,1-1.062-.1,3.246,3.246,0,0,1-2.461-3.43q-.013-6.819.008-13.638c0-.57-.1-.811-.743-.78-1.172.057-2.349.015-3.525.016-1.106,0-1.215.111-1.215,1.237q0,13.753,0,27.506c0,1.294.034,1.328,1.339,1.328q25.446,0,50.892,0c.279,0,.559-.027.838-.041,1.813.159,1.864.113,1.864-1.675V48.541c0-1.882,0-1.882-1.863-1.649m-16.586-7.345c1.226,0,2.452-.01,3.677,0,.44.005.541-.114.34-.53a11.78,11.78,0,0,1-.878-2.36.553.553,0,0,0-.638-.492c-2.017.012-4.035.019-6.052,0-.5-.006-.6.2-.589.637.025.714.031,1.43,0,2.143-.022.474.153.62.616.61,1.174-.026,2.349-.009,3.524-.009m-9.043,42.146h2.675c1.262,0,1.252,0,1.15-1.271-.025-.308-.1-.468-.44-.467q-3.363.009-6.726,0c-.319,0-.473.114-.452.446a3.073,3.073,0,0,1,0,.611c-.071.521.107.718.662.694,1.043-.043,2.088-.012,3.134-.012" transform="translate(3955.932 -8346.438)" fill="#030303"/>
      <path id="Trazado_130296" data-name="Trazado 130296" d="M2038.161,110.288c.972-.214,1.146-.443,1.146-1.56q0-12.912,0-25.826c0-.256-.011-.512.009-.766a.969.969,0,0,1,1.088-1.012c2.964.007,5.929.011,8.893-.006.47,0,.632.158.613.62-.029.689-.035,1.381,0,2.068.028.525-.14.719-.686.7-1.3-.034-2.606-.016-3.91-.009a2.971,2.971,0,0,0-3.129,3.123c-.005,9.375.027,18.75-.028,28.125a3.191,3.191,0,0,0,3.359,3.494c.1,0,.2,0,.307,0q26.1,0,52.206,0a3.682,3.682,0,0,0,2.772-.87,3.2,3.2,0,0,0,.915-2.428c-.019-8.021-.006-16.042-.021-24.063,0-.565.093-.951.733-.991.3.267.176.622.176.938q.012,15.342.01,30.685c-.255.006-.51.018-.766.018h-61.54c-1,0-1,0-1-.984,0-2.3-.01-4.6,0-6.895a1.2,1.2,0,0,0-1.127-1.369q-.012-1.5-.024-3" transform="translate(3943.589 -8391.393)" fill="#585858"/>
      <path id="Trazado_130297" data-name="Trazado 130297" d="M2196.2,36.284c.739.568,1.345.256,1.988-.231a11.4,11.4,0,0,1,14.775.736c.277.257.508.563.76.847a1.21,1.21,0,0,0,.2.8,12.137,12.137,0,0,1,.772,8.553,12.486,12.486,0,0,1-10.721,9.241c-.194.022-.353.051-.4.273a11.437,11.437,0,0,1-8.955-15.935,1.463,1.463,0,0,0-.276-1.926,8.831,8.831,0,0,1,1.852-2.357m.48,8.627a3.581,3.581,0,0,0,1.015,2.95c1.195,1.189,2.379,2.387,3.576,3.572a2.345,2.345,0,0,0,3.636-.007q3.83-3.805,7.634-7.636a3.31,3.31,0,1,0-4.706-4.644c-1.29,1.274-2.566,2.56-3.847,3.842-.86.859-.852.852-1.75.065a3.177,3.177,0,0,0-3.62-.61,3.043,3.043,0,0,0-1.938,2.468" transform="translate(3835.871 -8358.532)" fill="#a3d24c"/>
      <path id="Trazado_130298" data-name="Trazado 130298" d="M2111.795,129.626c-.28.014-.559.041-.839.041q-25.445,0-50.891,0c-1.305,0-1.339-.034-1.339-1.328q0-13.753,0-27.506c0-1.126.108-1.236,1.214-1.237,1.176,0,2.353.04,3.525-.017.642-.031.746.21.743.78q-.031,6.819-.008,13.638a3.246,3.246,0,0,0,2.46,3.43,4.41,4.41,0,0,0,1.062.1q9.887.008,19.774,0a3.281,3.281,0,0,0,3.56-3.585c.007-4.546.012-9.092-.011-13.638,0-.566.125-.73.712-.724,2.912.033,5.825.015,8.738.015a.861.861,0,0,1,.761.233,13.994,13.994,0,0,0,10.539,4.8v24.992" transform="translate(3929.343 -8404.181)" fill="#c8e0fa"/>
      <path id="Trazado_130299" data-name="Trazado 130299" d="M2104.308,55.412c-2.17.009-4.34.024-6.51.026-4.366,0-8.733-.007-13.1.012-.506,0-.7-.085-.7-.652q.027-14.972.016-29.944c0-1.036.273-1.291,1.335-1.292.663,0,1.454-.206,1.953.084.518.3.385,1.194.562,1.82a2.437,2.437,0,0,0,2.524,2.016q4.749.037,9.5,0a2.4,2.4,0,0,0,2.482-1.966c.068-.245.121-.494.181-.742.3-1.259.3-1.259,1.6-1.186a3.9,3.9,0,0,1,.162.972q-.013,15.426-.011,30.852m-15.3-15.323a1.73,1.73,0,0,0-1.78,1.711,1.774,1.774,0,0,0,1.774,1.815,1.8,1.8,0,0,0,1.756-1.771,1.757,1.757,0,0,0-1.75-1.755m12.253,0a1.724,1.724,0,0,0-1.759,1.73,1.766,1.766,0,0,0,1.714,1.8,1.808,1.808,0,0,0,1.814-1.79,1.755,1.755,0,0,0-1.769-1.736m-7.879,1.784a1.773,1.773,0,0,0,1.766,1.748,1.824,1.824,0,0,0,1.767-1.766,1.764,1.764,0,0,0-1.824-1.763,1.725,1.725,0,0,0-1.708,1.781" transform="translate(3911.834 -8351.47)" fill="#ebf5fd"/>
      <path id="Trazado_130300" data-name="Trazado 130300" d="M2098.925,229.847c-.357.01-.714.028-1.072.028q-33.334,0-66.666.029c-2.343,0-3.585-1.42-3.411-3.4a16.52,16.52,0,0,0,0-2.373c-.03-.529.178-.69.659-.627a1.736,1.736,0,0,0,.23,0q14.559,0,29.118-.014c.652,0,.911.124.845.827-.207,2.215.463,3.413,3.24,3.282,2.192-.1,4.393-.016,6.589-.023a2.161,2.161,0,0,0,2.383-2.37c.036-1.7.036-1.7,1.712-1.7q13.1-.006,26.207-.012c.305,0,.611.026.916.039-.068,2.1.486,4.276-.743,6.24-.012.019-.005.05-.007.075" transform="translate(3950.794 -8490.018)" fill="#aaa"/>
      <path id="Trazado_130301" data-name="Trazado 130301" d="M2104.213,139.687q-9.541.01-19.083.018a.921.921,0,0,1-1.025-1.052c0-.97.038-1.943-.014-2.911-.034-.637.166-.818.808-.815,5.671.024,11.343.013,17.015.015.817,0,1.634.013,2.451.019a27.78,27.78,0,0,1-.152,4.725" transform="translate(3911.775 -8428.668)" fill="#5a5a5a"/>
      <path id="Trazado_130302" data-name="Trazado 130302" d="M2247.505,142.405q0-15.342-.009-30.684c0-.317.12-.672-.177-.939.57-.278,1.153-.536,1.708-.843.327-.181.465-.158.452.238-.005.178,0,.357,0,.536q0,15.269,0,30.54c0,1.3.142,1.148-1.13,1.159-.28,0-.561,0-.842-.006" transform="translate(3798.698 -8411.281)" fill="#424242"/>
      <path id="Trazado_130303" data-name="Trazado 130303" d="M2149.749,55.549q0-15.426.01-30.852a3.928,3.928,0,0,0-.162-.973,1.064,1.064,0,0,1,.15-.026c1.818-.057,1.96.082,1.96,1.909q0,14.536.018,29.071c0,.729-.157,1.028-.909.908a8.219,8.219,0,0,0-1.068-.037" transform="translate(3866.394 -8351.608)" fill="#d4e3f3"/>
      <path id="Trazado_130304" data-name="Trazado 130304" d="M2231.438,140.784V115.792c1.863-.233,1.863-.233,1.863,1.649V139.11c0,1.788-.051,1.833-1.864,1.675" transform="translate(3809.7 -8415.339)" fill="#aed3f4"/>
      <path id="Trazado_130305" data-name="Trazado 130305" d="M2225.939,65.408c.042-.222.2-.251.4-.273a12.486,12.486,0,0,0,10.721-9.242,12.142,12.142,0,0,0-.772-8.553,1.212,1.212,0,0,1-.2-.8,10.7,10.7,0,0,1,2.835,8.518,11.38,11.38,0,0,1-9.4,10.3,9.164,9.164,0,0,1-3.575.053" transform="translate(3813.509 -8367.438)" fill="#95c046"/>
      <path id="Trazado_130306" data-name="Trazado 130306" d="M2168.123,84.5c-1.175,0-2.35-.017-3.524.009-.464.01-.639-.136-.617-.609.031-.713.026-1.43,0-2.144-.015-.439.094-.642.589-.637,2.017.023,4.035.016,6.052,0a.554.554,0,0,1,.638.492,11.782,11.782,0,0,0,.878,2.36c.2.415.1.535-.34.53-1.226-.014-2.451,0-3.677,0" transform="translate(3856.429 -8391.393)" fill="#5a5a5a"/>
      <path id="Trazado_130307" data-name="Trazado 130307" d="M2111.238,25.257c-2.4.037-4.791.078-7.187.108a1.249,1.249,0,0,1-.926-1.479c.115-.257.348-.169.533-.169q3.864,0,7.729.01c.1.525-.178,1.013-.149,1.53" transform="translate(3898.621 -8351.618)" fill="#5a5a5a"/>
      <path id="Trazado_130308" data-name="Trazado 130308" d="M2139.442,225.372c-1.045,0-2.091-.031-3.133.013-.555.023-.733-.174-.663-.695a3.073,3.073,0,0,0,0-.611c-.022-.332.133-.446.452-.446q3.363.009,6.726,0c.336,0,.415.158.44.467.1,1.271.112,1.271-1.15,1.271h-2.675" transform="translate(3876.068 -8490.117)" fill="#878787"/>
      <path id="Trazado_130309" data-name="Trazado 130309" d="M2259.365,229.675c0-.026,0-.056.007-.075,1.229-1.963.675-4.139.742-6.24,2.01-.258,2.011-.258,2.01,1.737,0,.637.019,1.275-.007,1.91a2.689,2.689,0,0,1-2.753,2.668" transform="translate(3790.354 -8489.846)" fill="#878787"/>
      <path id="Trazado_130310" data-name="Trazado 130310" d="M2149.587,139.712a27.805,27.805,0,0,0,.152-4.725c1.983-.077,1.983-.077,1.983,1.893,0,.459,0,.919,0,1.378-.007,1.122-.352,1.472-1.447,1.473-.229,0-.459-.012-.688-.018" transform="translate(3866.4 -8428.69)" fill="#424242"/>
      <path id="Trazado_130311" data-name="Trazado 130311" d="M2129.638,25.27c-.029-.518.249-1.006.149-1.53.581,0,1.162,0,1.742-.017.373-.012.533.039.439.5-.256,1.268-.728,1.5-2.331,1.045" transform="translate(3880.222 -8351.631)" fill="#424242"/>
      <path id="Trazado_130312" data-name="Trazado 130312" d="M2203.479,54.719a3.044,3.044,0,0,1,1.938-2.468,3.177,3.177,0,0,1,3.62.61c.9.786.89.794,1.75-.065,1.282-1.282,2.558-2.568,3.847-3.842a3.31,3.31,0,1,1,4.707,4.644q-3.8,3.838-7.634,7.635a2.345,2.345,0,0,1-3.637.008c-1.2-1.185-2.382-2.383-3.575-3.572a3.583,3.583,0,0,1-1.015-2.951M2209.13,59c.726.835.726.835,1.483.079l.7-.7q3.133-3.133,6.266-6.268c.657-.66.682-1.03.149-1.683-.585-.5-1.068-.255-1.526.2q-2.566,2.568-5.136,5.133c-.908.9-1.471.9-2.394-.014-.4-.394-.784-.8-1.2-1.181a1,1,0,1,0-1.39,1.433c1,1.011,2.026,2,3.042,3" transform="translate(3829.071 -8368.341)" fill="#020302"/>
      <path id="Trazado_130313" data-name="Trazado 130313" d="M2096.3,77.511a1.757,1.757,0,0,1,1.749,1.755,1.8,1.8,0,0,1-1.755,1.771,1.775,1.775,0,0,1-1.774-1.815,1.731,1.731,0,0,1,1.78-1.711" transform="translate(3904.549 -8388.892)" fill="#030303"/>
      <path id="Trazado_130314" data-name="Trazado 130314" d="M2136.225,77.5a1.754,1.754,0,0,1,1.769,1.736,1.807,1.807,0,0,1-1.814,1.79,1.765,1.765,0,0,1-1.714-1.8,1.723,1.723,0,0,1,1.759-1.73" transform="translate(3876.876 -8388.888)" fill="#030303"/>
      <path id="Trazado_130315" data-name="Trazado 130315" d="M2114.547,79.294a1.725,1.725,0,0,1,1.708-1.781,1.764,1.764,0,0,1,1.824,1.763,1.824,1.824,0,0,1-1.767,1.766,1.773,1.773,0,0,1-1.765-1.748" transform="translate(3890.674 -8388.894)" fill="#030303"/>
      <path id="Trazado_130316" data-name="Trazado 130316" d="M2214.233,64.194c-1.015-1-2.039-1.99-3.042-3a1,1,0,1,1,1.391-1.433c.413.378.8.787,1.2,1.181.923.913,1.486.918,2.394.014q2.571-2.563,5.135-5.133c.459-.459.941-.705,1.527-.2a13.911,13.911,0,0,1-.908,1.118q-3.465,3.493-6.956,6.962c-.212.211-.386.487-.737.5" transform="translate(3823.967 -8373.535)" fill="#dedede"/>
      <path id="Trazado_130317" data-name="Trazado 130317" d="M2221.875,64.818c.351-.009.526-.285.737-.5q3.483-3.476,6.957-6.962a13.961,13.961,0,0,0,.908-1.118c.533.654.509,1.023-.148,1.683q-3.129,3.139-6.267,6.268l-.7.7c-.756.756-.756.756-1.483-.079" transform="translate(3816.324 -8374.159)" fill="#c4c4c4"/>
    </g>
  </g>
</svg>
