<svg xmlns="http://www.w3.org/2000/svg" xmlns:xlink="http://www.w3.org/1999/xlink" width="96" height="96" viewBox="0 0 96 96">
  <defs>
    <clipPath id="clip-path">
      <rect id="Rect치ngulo_36758" data-name="Rect치ngulo 36758" width="96" height="96" fill="#fff" stroke="#707070" stroke-width="1"/>
    </clipPath>
    <clipPath id="clip-path-2">
      <rect id="Rect치ngulo_36826" data-name="Rect치ngulo 36826" width="82.203" height="37.99" fill="none"/>
    </clipPath>
  </defs>
  <g id="Grupo_86110" data-name="Grupo 86110" clip-path="url(#clip-path)">
    <g id="Grupo_86444" data-name="Grupo 86444" transform="translate(6.898 29.005)">
      <g id="Grupo_86443" data-name="Grupo 86443" clip-path="url(#clip-path-2)">
        <path id="Trazado_129761" data-name="Trazado 129761" d="M81.087,27.48a1.376,1.376,0,0,1,1.133,1.578c-.02,3.818-.006,7.636-.01,11.454a2.761,2.761,0,0,1-2.515,3.06c-.318.067-.482.162-.455.506.02.265.007.534,0,.8a2.842,2.842,0,0,1-3.038,3.07c-.16.005-.321,0-.481,0H6.495a3.822,3.822,0,0,1-2.166-.434A2.985,2.985,0,0,1,3,44.538c.045-.606-.038-.94-.793-1.034a2.613,2.613,0,0,1-2.17-2.611C.019,35.581.028,30.268.029,24.955a1.238,1.238,0,0,1,1.128-1.324c.994.182,1.279.522,1.279,1.571q0,7.549,0,15.1c0,.484-.019.923.663.915,2.238-.026,4.476-.038,6.714-.055a11.07,11.07,0,0,0,1.184.05c.926-.056,1.7.1,1.887,1.189-.113.911-.75,1.217-1.548,1.284-.5.042-1.008.007-1.513.006a22.54,22.54,0,0,0-3.789-.139c-.525-.037-.738.193-.684.7.058.535-.241,1.309.688,1.326a27.887,27.887,0,0,0,3.819-.053c.293.013.586.036.88.036q32.1,0,64.2,0c.454,0,.908-.038,1.361-.059a.461.461,0,0,0,.487-.325c.339-.992-.037-1.532-1.083-1.532H18.24c-.268,0-.536.01-.8,0a1.277,1.277,0,0,1-1.385-1.254c.26-1,.509-1.17,1.756-1.17H78.38c.214,0,.429-.013.642,0,.581.041.8-.2.791-.8-.033-1.468-.057-2.939.008-4.4.034-.774-.133-1-.97-1q-29.965.044-59.93.023c-1.36,0-1.717-.352-1.717-1.692q0-8.571,0-17.142c0-1.094.412-1.518,1.485-1.518q17.409,0,34.819,0c1.01,0,1.306.254,1.521,1.251-.281.962-.553,1.152-1.677,1.152q-16.49,0-32.98-.015c-.636,0-.778.168-.774.783.027,4.647.034,9.294-.005,13.941-.006.719.186.853.871.852q29.249-.03,58.5-.016a2.09,2.09,0,0,1,.321,0c.427.068.54-.115.529-.529-.028-1.041-.014-2.083-.007-3.124.006-.977.285-1.3,1.283-1.5" transform="translate(-0.018 -9.962)" fill="#030303"/>
        <path id="Trazado_129762" data-name="Trazado 129762" d="M122.373,30.124c-1,.206-1.277.524-1.284,1.5-.007,1.041-.02,2.084.008,3.124.011.414-.1.6-.529.529a2.05,2.05,0,0,0-.321,0q-29.249,0-58.5.016c-.686,0-.877-.133-.871-.852.039-4.647.032-9.294.005-13.941,0-.615.138-.784.774-.783q16.49.032,32.98.015c1.124,0,1.4-.19,1.677-1.152l3.194.034c.176.863.741,1.129,1.575,1.127,6.416-.014,12.831,0,19.247-.024.643,0,.786.177.77.787-.043,1.654-.019,3.309-.013,4.964,0,.975.286,1.295,1.284,1.5v3.157M69.38,22.135c-1.576,0-3.152-.011-4.727,0a1.2,1.2,0,0,0-1.344,1.329c-.014,2.053-.007,4.107,0,6.16a1.16,1.16,0,0,0,1.123,1.3c.368.033.483.1.495.491.032,1.1.428,1.449,1.538,1.452q2.884.006,5.769,0c1.057,0,1.448-.376,1.506-1.416.014-.254-.067-.476.366-.526.931-.109,1.235-.5,1.238-1.426q.012-2.96,0-5.92c0-1.019-.438-1.441-1.474-1.446-1.5-.007-2.991,0-4.487,0M83.759,32.873c.988,0,1.976.006,2.965,0s1.423-.4,1.45-1.384c.01-.376.055-.537.5-.564A1.119,1.119,0,0,0,89.783,29.7c.013-2.107.018-4.214,0-6.32a1.141,1.141,0,0,0-1.2-1.23q-4.807-.029-9.614,0a1.137,1.137,0,0,0-1.211,1.212q-.032,3.2,0,6.4a1.082,1.082,0,0,0,1.082,1.163c.511.022.515.239.523.628a1.194,1.194,0,0,0,1.349,1.321c1.015.015,2.03,0,3.045,0M98.2,22.135c-1.549,0-3.1-.01-4.647,0-.856.007-1.339.436-1.348,1.242-.021,2.107-.016,4.213,0,6.32a1.134,1.134,0,0,0,1.111,1.228c.354.034.492.075.5.483.031,1.109.422,1.458,1.529,1.46q2.845.007,5.689,0c1.161,0,1.513-.327,1.59-1.489.017-.259.01-.4.362-.451.942-.127,1.242-.5,1.246-1.421q.012-2.96,0-5.92c0-1.025-.433-1.448-1.466-1.454-1.522-.008-3.045,0-4.567,0m14.544,0c-1.549,0-3.1-.006-4.647,0-1,.005-1.445.428-1.45,1.386q-.017,3.04,0,6.08a1.162,1.162,0,0,0,1.175,1.327c.35.038.421.131.437.464.055,1.155.418,1.476,1.6,1.478q2.8,0,5.608,0c1.181,0,1.535-.325,1.611-1.472.015-.239-.032-.415.342-.469,1-.142,1.262-.49,1.265-1.483q.008-2.92,0-5.84c0-1.034-.428-1.465-1.449-1.471-1.5-.009-2.991,0-4.487,0" transform="translate(-41.303 -12.606)" fill="#f2fafd"/>
        <path id="Trazado_129763" data-name="Trazado 129763" d="M81.069,14.361c-1-.205-1.28-.526-1.284-1.5-.007-1.655-.03-3.31.013-4.964.016-.61-.128-.79-.77-.787-6.416.027-12.831.01-19.247.024-.834,0-1.4-.264-1.575-1.127.188-1.013.513-1.286,1.571-1.286q6.739,0,13.479,0c1.979,0,3.958,0,5.937-.005.195,0,.539.117.559-.134a5.56,5.56,0,0,0-.049-1.9c-.138-.49-.75-.257-1.149-.258Q44.616,2.4,10.678,2.411c-.292,0-.584.03-.876.046Q6.4,2.435,3,2.41c-.531,0-.583.322-.58.742.01,1.92.007,3.841,0,5.761,0,1.054-.25,1.357-1.277,1.591A1.375,1.375,0,0,1,0,8.93C.03,7.035.008,5.14.01,3.245.011,1.069,1.074,0,3.249,0h55.5Q68.816,0,78.882,0c2.277,0,3.312,1.043,3.312,3.333,0,3.15-.013,6.3.009,9.449a1.375,1.375,0,0,1-1.134,1.578" transform="translate(0 0)" fill="#040505"/>
        <path id="Trazado_129764" data-name="Trazado 129764" d="M3.545,15.591c1.028-.234,1.276-.537,1.278-1.591,0-1.92.007-3.84,0-5.761,0-.421.049-.747.58-.742q3.4.029,6.806.047,0,1.119,0,2.237C11.039,9.79,9.87,9.8,8.7,9.809c-.915.01-1.47.467-1.47,1.2s.554,1.192,1.47,1.2c1.168.013,2.337.019,3.505.027v2.192c-1.2.009-2.394.01-3.591.029a1.218,1.218,0,0,0-1.381,1.368c-.014,1.249-.011,2.5,0,3.747.007,1.02.435,1.439,1.463,1.451,1.171.014,2.341.019,3.511.027v2.512c-1.2.009-2.394.01-3.591.029a1.219,1.219,0,0,0-1.381,1.368c-.014,1.249-.011,2.5,0,3.747.007,1.02.435,1.439,1.463,1.451,1.171.014,2.341.019,3.511.028q-.005,3.049-.011,6.1c-2.238.017-4.476.029-6.714.055-.682.008-.664-.432-.663-.915q.009-7.549,0-15.1c0-1.049-.285-1.39-1.279-1.571q0-1.582,0-3.165" transform="translate(-2.404 -5.086)" fill="#b8d7f7"/>
        <path id="Trazado_129765" data-name="Trazado 129765" d="M30.466,14.33V12.139c1.176-.009,2.352-.014,3.528-.028.907-.011,1.467-.5,1.442-1.241-.024-.715-.557-1.149-1.442-1.159-1.176-.014-2.352-.019-3.528-.028q0-1.118,0-2.237c.292-.016.585-.046.877-.046q33.938,0,67.876.007c.4,0,1.012-.233,1.149.258a5.56,5.56,0,0,1,.049,1.9c-.021.251-.364.133-.559.134-1.979.009-3.958.005-5.937.005q-6.74,0-13.479,0c-1.058,0-1.384.274-1.571,1.286l-3.194-.034c-.214-1-.511-1.251-1.521-1.251q-17.409,0-34.819,0c-1.073,0-1.485.424-1.485,1.518q0,8.571,0,17.142c0,1.34.357,1.691,1.717,1.691q29.965,0,59.93-.022c.837,0,1,.228.971,1-.064,1.466-.041,2.937-.008,4.4.013.6-.21.84-.791.8-.213-.015-.428,0-.642,0H38.454c-1.246,0-1.5.169-1.755,1.17l-3.174.011c-.191-1.091-.96-1.244-1.887-1.189a11.146,11.146,0,0,1-1.183-.05q.005-3.05.011-6.1,1.724-.013,3.448-.027c1.095-.01,1.517-.415,1.524-1.483q.012-1.8,0-3.605c-.007-1.068-.428-1.472-1.524-1.481q-1.724-.015-3.448-.027V20.953q1.724-.014,3.448-.027c1.095-.01,1.517-.415,1.524-1.483q.012-1.8,0-3.6c-.007-1.068-.428-1.472-1.524-1.481q-1.724-.015-3.448-.027M48.7,31.96c-.8,0-1.605-.019-2.406.006a1.19,1.19,0,1,0-.042,2.38c1.6.039,3.209.036,4.812,0a1.194,1.194,0,1,0-.038-2.385c-.775-.022-1.551,0-2.326,0m14.452,0c-.775,0-1.551-.014-2.326,0a1.2,1.2,0,1,0-.054,2.39c1.577.029,3.156.031,4.732,0a1.194,1.194,0,1,0-.026-2.386c-.775-.023-1.55,0-2.326-.006m14.4,0c-.776,0-1.551-.017-2.326,0a1.194,1.194,0,1,0-.04,2.385q2.365.051,4.732,0a1.2,1.2,0,1,0-.04-2.39c-.775-.018-1.55,0-2.326,0m14.462,2.4c.749,0,1.5.016,2.246,0,.86-.023,1.386-.519,1.365-1.245A1.2,1.2,0,0,0,94.27,31.96q-2.246-.02-4.492,0c-.831.007-1.34.453-1.365,1.145-.026.727.5,1.228,1.357,1.252.748.021,1.5,0,2.246,0" transform="translate(-20.663 -4.987)" fill="#c6def8"/>
        <path id="Trazado_129766" data-name="Trazado 129766" d="M33.546,100.863l3.173-.012A1.277,1.277,0,0,0,38.1,102.1c.267.015.535,0,.8,0H96.364c1.047,0,1.422.54,1.083,1.532a.461.461,0,0,1-.487.324c-.454.021-.908.059-1.361.059q-32.1,0-64.2,0c-.294,0-.587-.024-.88-.036q-.017-.918-.034-1.837c.5,0,1.012.036,1.513-.006.8-.068,1.434-.373,1.548-1.285" transform="translate(-20.684 -68.424)" fill="#6b6b7f"/>
        <path id="Trazado_129767" data-name="Trazado 129767" d="M21.03,104.577q.017.918.034,1.837a27.933,27.933,0,0,1-3.819.052c-.929-.017-.631-.792-.688-1.326-.055-.508.159-.738.684-.7a22.54,22.54,0,0,1,3.789.139" transform="translate(-11.228 -70.848)" fill="#464655"/>
        <path id="Trazado_129768" data-name="Trazado 129768" d="M74.494,29.63c1.5,0,2.991-.006,4.487,0,1.036.005,1.469.427,1.473,1.446q.013,2.96,0,5.92c0,.926-.307,1.318-1.239,1.426-.433.05-.351.272-.366.526-.059,1.04-.45,1.412-1.506,1.416q-2.885.009-5.769,0c-1.109,0-1.505-.354-1.537-1.452-.012-.395-.127-.458-.495-.491a1.16,1.16,0,0,1-1.123-1.3c0-2.053-.011-4.107,0-6.16a1.2,1.2,0,0,1,1.344-1.33c1.576-.015,3.151,0,4.727,0m-3.668,4.229c0,.648.012,1.181,0,1.712-.009.3.024.448.407.489.872.1,1.175.461,1.19,1.38.007.407.1.548.528.533.959-.032,1.921-.033,2.88,0,.459.015.666-.059.632-.592a1.126,1.126,0,0,1,1.163-1.321c.45-.019.434-.233.431-.546-.01-.985-.023-1.971.006-2.956.012-.413-.1-.542-.529-.535-1.573.025-3.147.005-4.72.012-.634,0-1.462-.2-1.851.113-.413.337-.074,1.2-.132,1.71" transform="translate(-46.417 -20.1)" fill="#010101"/>
        <path id="Trazado_129769" data-name="Trazado 129769" d="M119.351,40.367c-1.015,0-2.03.012-3.045,0a1.194,1.194,0,0,1-1.349-1.321c-.009-.389-.012-.606-.523-.628a1.082,1.082,0,0,1-1.082-1.163q-.032-3.2,0-6.4a1.137,1.137,0,0,1,1.211-1.212q4.807-.027,9.614,0a1.141,1.141,0,0,1,1.2,1.229c.02,2.107.016,4.213,0,6.32a1.119,1.119,0,0,1-1.106,1.228c-.449.028-.493.188-.5.564-.027.984-.453,1.375-1.45,1.384s-1.976,0-2.965,0m.075-8.334c-1.067,0-2.134.007-3.2,0-.305,0-.493.022-.484.414.025,1.065.01,2.13.007,3.2,0,.22-.007.361.31.417,1.052.186,1.249.406,1.281,1.453.013.418.169.467.517.461,1.013-.018,2.027-.026,3.04,0,.4.012.508-.123.476-.5-.053-.615.16-1.252.776-1.309.961-.089.838-.663.827-1.277-.013-.719-.039-1.44.008-2.156.036-.539-.09-.746-.679-.713-.957.054-1.92.015-2.88.015" transform="translate(-76.895 -20.1)" fill="#010101"/>
        <path id="Trazado_129770" data-name="Trazado 129770" d="M164.273,29.631c1.522,0,3.045-.006,4.567,0,1.032.005,1.462.429,1.466,1.454q.013,2.96,0,5.92c0,.923-.3,1.294-1.246,1.421-.352.048-.345.192-.362.451-.077,1.162-.429,1.487-1.59,1.489q-2.844,0-5.689,0c-1.106,0-1.5-.351-1.529-1.46-.012-.408-.149-.449-.5-.483a1.134,1.134,0,0,1-1.111-1.228c-.014-2.107-.019-4.214,0-6.32.008-.806.492-1.235,1.348-1.242,1.549-.014,3.1,0,4.647,0m.1,2.4c-1.067,0-2.134.014-3.2-.008-.371-.008-.512.082-.5.48.027,1.038.016,2.077,0,3.115,0,.281.045.392.377.436.934.123,1.193.428,1.218,1.434.01.4.125.489.5.48.986-.024,1.974-.03,2.96,0,.441.014.583-.1.582-.561,0-.889.319-1.24,1.215-1.354.33-.042.383-.15.379-.434-.012-1.038-.022-2.077,0-3.115.01-.4-.125-.491-.5-.483-1.013.023-2.027.008-3.04.008" transform="translate(-107.377 -20.101)" fill="#010101"/>
        <path id="Trazado_129771" data-name="Trazado 129771" d="M209.3,29.632c1.5,0,2.991-.006,4.487,0,1.021.006,1.445.436,1.449,1.471q.011,2.92,0,5.84c0,.994-.268,1.34-1.265,1.483-.374.054-.326.23-.342.469-.075,1.147-.43,1.47-1.611,1.472q-2.8,0-5.608,0c-1.177,0-1.54-.323-1.6-1.478-.016-.333-.087-.426-.437-.464a1.162,1.162,0,0,1-1.175-1.327q-.019-3.04,0-6.08c.005-.958.455-1.381,1.45-1.386,1.549-.008,3.1,0,4.647,0m-.025,2.4c-1.04,0-2.08.012-3.12-.006-.374-.006-.578.035-.56.5.04,1.011.019,2.023.008,3.035,0,.3.011.452.4.495.878.1,1.179.458,1.2,1.375.008.4.085.554.522.538.985-.034,1.974-.038,2.96,0,.481.019.57-.156.552-.588a1.14,1.14,0,0,1,1.163-1.327c.442-.021.44-.222.436-.541-.012-.985-.022-1.971,0-2.956.011-.4-.087-.555-.523-.541-1.012.033-2.027.011-3.04.011" transform="translate(-137.862 -20.103)" fill="#010101"/>
        <path id="Trazado_129772" data-name="Trazado 129772" d="M19.976,29.059q1.724.013,3.448.027c1.1.01,1.518.413,1.524,1.481q.012,1.8,0,3.605c-.007,1.068-.429,1.473-1.524,1.483q-1.724.015-3.448.027c-1.17-.009-2.341-.014-3.511-.028-1.028-.012-1.456-.431-1.463-1.451-.009-1.249-.013-2.5,0-3.747a1.219,1.219,0,0,1,1.381-1.368c1.2-.019,2.394-.02,3.591-.029m0,4.166a16.393,16.393,0,0,1,1.679.038c.727.087.918-.165.918-.893s-.19-.98-.918-.893a16.212,16.212,0,0,1-1.679.038c-.694-.009-1.387-.025-2.081-.021-.185,0-.406-.1-.494.234-.286,1.069.038,1.526,1.135,1.522.48,0,.96-.016,1.44-.025" transform="translate(-10.173 -19.716)" fill="#000101"/>
        <path id="Trazado_129773" data-name="Trazado 129773" d="M19.976,57.47q1.724.013,3.448.027c1.1.01,1.518.413,1.525,1.481q.012,1.8,0,3.605c-.007,1.068-.43,1.473-1.525,1.483q-1.724.015-3.448.027c-1.17-.009-2.341-.014-3.511-.028-1.028-.012-1.455-.431-1.463-1.451-.009-1.249-.013-2.5,0-3.747A1.219,1.219,0,0,1,16.385,57.5c1.2-.019,2.394-.02,3.591-.029m0,4.166a16.167,16.167,0,0,1,1.681.038c.73.088.916-.166.916-.893s-.187-.981-.916-.893a16.087,16.087,0,0,1-1.682.038,16.176,16.176,0,0,1-1.682-.038c-.728-.088-.917.165-.917.893s.189.98.917.893a16.355,16.355,0,0,1,1.682-.038" transform="translate(-10.173 -38.992)" fill="#000101"/>
        <path id="Trazado_129774" data-name="Trazado 129774" d="M19.992,14.6c1.176.009,2.352.014,3.528.028.885.011,1.417.445,1.442,1.16.025.742-.535,1.23-1.442,1.241-1.176.014-2.352.019-3.528.028-1.168-.009-2.337-.014-3.505-.027-.915-.01-1.469-.467-1.469-1.2s.555-1.191,1.469-1.2c1.168-.012,2.337-.018,3.505-.027" transform="translate(-10.189 -9.908)" fill="#010101"/>
        <path id="Trazado_129775" data-name="Trazado 129775" d="M79.552,83.87c.775,0,1.551-.018,2.326,0a1.194,1.194,0,1,1,.038,2.386c-1.6.032-3.209.035-4.812,0a1.19,1.19,0,1,1,.042-2.38c.8-.025,1.6-.006,2.406-.007" transform="translate(-51.511 -56.898)" fill="#040506"/>
        <path id="Trazado_129776" data-name="Trazado 129776" d="M124.487,83.869c.776,0,1.551-.017,2.326.005a1.194,1.194,0,1,1,.026,2.386c-1.577.033-3.155.031-4.732,0a1.2,1.2,0,1,1,.054-2.39c.775-.018,1.55,0,2.326,0" transform="translate(-81.994 -56.899)" fill="#040506"/>
        <path id="Trazado_129777" data-name="Trazado 129777" d="M169.37,83.868c.776,0,1.551-.014,2.326,0a1.2,1.2,0,1,1,.04,2.39q-2.366.044-4.732,0a1.194,1.194,0,1,1,.04-2.386c.775-.022,1.55,0,2.326-.005" transform="translate(-112.478 -56.898)" fill="#040506"/>
        <path id="Trazado_129778" data-name="Trazado 129778" d="M214.314,86.27c-.749,0-1.5.016-2.246,0-.857-.024-1.383-.525-1.357-1.252.024-.692.534-1.138,1.365-1.145q2.246-.019,4.492,0a1.2,1.2,0,0,1,1.357,1.152c.021.726-.505,1.222-1.365,1.245-.748.02-1.5,0-2.246,0" transform="translate(-142.96 -56.896)" fill="#040506"/>
        <path id="Trazado_129779" data-name="Trazado 129779" d="M75.755,38.81c.059-.513-.281-1.373.132-1.71.389-.317,1.216-.11,1.851-.113,1.574-.007,3.147.013,4.72-.012.426-.007.54.123.529.535-.029.985-.015,1.97-.006,2.956,0,.313.019.526-.431.546a1.126,1.126,0,0,0-1.163,1.321c.034.532-.173.607-.632.592-.959-.033-1.921-.032-2.88,0-.428.015-.521-.125-.528-.533-.015-.92-.319-1.285-1.19-1.38-.383-.042-.416-.187-.407-.489.016-.532,0-1.065,0-1.712" transform="translate(-51.346 -25.052)" fill="#daeafb"/>
        <path id="Trazado_129780" data-name="Trazado 129780" d="M124.5,37.077c.96,0,1.922.04,2.88-.015.589-.033.715.174.679.713-.047.716-.022,1.438-.008,2.156.011.614.135,1.188-.827,1.277-.616.057-.829.694-.776,1.31.032.376-.072.511-.476.5-1.013-.03-2.027-.021-3.04,0-.348.006-.5-.043-.517-.461-.032-1.047-.229-1.267-1.281-1.453-.317-.056-.31-.2-.31-.417,0-1.065.017-2.131-.007-3.2-.009-.392.178-.417.484-.414,1.067.012,2.133,0,3.2,0" transform="translate(-81.97 -25.143)" fill="#daeafb"/>
        <path id="Trazado_129781" data-name="Trazado 129781" d="M169.443,37.1c1.013,0,2.027.015,3.04-.008.374-.008.51.087.5.483-.027,1.038-.016,2.077,0,3.115,0,.283-.049.392-.379.434-.9.114-1.217.465-1.215,1.354,0,.466-.141.576-.582.561-.986-.032-1.974-.026-2.96,0-.375.009-.49-.082-.5-.48-.026-1.006-.284-1.312-1.218-1.434-.332-.044-.38-.155-.377-.436.011-1.038.023-2.077,0-3.115-.01-.4.13-.488.5-.48,1.066.022,2.133.008,3.2.008" transform="translate(-112.45 -25.163)" fill="#daeafb"/>
        <path id="Trazado_129782" data-name="Trazado 129782" d="M214.341,37.091c1.013,0,2.028.023,3.04-.011.436-.014.534.137.523.541-.026.985-.016,1.97,0,2.956,0,.319.006.52-.436.541a1.14,1.14,0,0,0-1.163,1.327c.017.432-.072.607-.552.588-.986-.039-1.974-.035-2.96,0-.438.015-.514-.14-.522-.538-.017-.917-.318-1.28-1.2-1.375-.39-.042-.4-.2-.4-.495.011-1.012.032-2.025-.008-3.035-.018-.468.186-.509.56-.5,1.04.018,2.08.006,3.12.006" transform="translate(-142.926 -25.157)" fill="#daeafb"/>
        <path id="Trazado_129783" data-name="Trazado 129783" d="M24.852,38.337c-.48.009-.96.024-1.44.025-1.1,0-1.421-.453-1.135-1.522.088-.331.309-.233.494-.234.694,0,1.387.013,2.081.021v1.71" transform="translate(-15.047 -24.827)" fill="#f9e271"/>
        <path id="Trazado_129784" data-name="Trazado 129784" d="M30.493,38.294v-1.71a16.211,16.211,0,0,0,1.679-.038c.727-.087.917.165.918.893s-.191.98-.918.893a16.393,16.393,0,0,0-1.679-.038" transform="translate(-20.689 -24.784)" fill="#fcf298"/>
        <path id="Trazado_129785" data-name="Trazado 129785" d="M25,66.7a16.355,16.355,0,0,0-1.682.038c-.728.088-.917-.165-.917-.893s.189-.981.917-.893A16.176,16.176,0,0,0,25,64.995V66.7" transform="translate(-15.201 -44.06)" fill="#e7f4fd"/>
        <path id="Trazado_129786" data-name="Trazado 129786" d="M30.488,66.7v-1.71a16.087,16.087,0,0,0,1.682-.038c.729-.088.916.167.916.893s-.187.981-.916.893a16.167,16.167,0,0,0-1.681-.038" transform="translate(-20.685 -44.059)" fill="#f2fafd"/>
      </g>
    </g>
  </g>
</svg>
