<svg xmlns="http://www.w3.org/2000/svg" width="97.708" height="97.708" viewBox="0 0 97.708 97.708">
  <g id="Grupo_86789" data-name="Grupo 86789" transform="translate(-0.278 -0.277)">
    <circle id="Elipse_5411" data-name="Elipse 5411" cx="48.854" cy="48.854" r="48.854" transform="translate(0.278 0.277)" fill="#2ff980"/>
    <g id="Grupo_86809" data-name="Grupo 86809" transform="translate(-157.304 951.943)">
      <path id="Trazado_131525" data-name="Trazado 131525" d="M19.61,21.137a1.3,1.3,0,0,1-1.126-1.529,28.475,28.475,0,0,1,.138-4.078,5.9,5.9,0,0,1,5.412-4.782c1.62-.091,3.249-.041,4.874-.042q6.292-.006,12.585,0h.817c.19-.253,0-.388-.059-.541a2.26,2.26,0,0,1,.52-2.535c1.119-1.142,2.247-2.276,3.394-3.39a2.239,2.239,0,0,1,2.942-.314c1,.617,1.98,1.274,2.969,1.914.8.517,1.033.421,1.247-.535.245-1.1.47-2.2.713-3.3A2.287,2.287,0,0,1,56.469.014q2.28-.029,4.561,0a2.29,2.29,0,0,1,2.462,2.052c.255,1.149.5,2.3.758,3.449.151.665.456.788,1.043.417,1-.629,1.977-1.278,2.97-1.911a2.3,2.3,0,0,1,3.192.313C72.54,5.4,73.609,6.48,74.682,7.556a2.192,2.192,0,0,1,.573,2.581c-.264.6.008.573.44.572,2.884-.009,5.767,0,8.651,0,2.779,0,5.558-.006,8.337,0a6.017,6.017,0,0,1,6.347,6.369q0,22.608,0,45.217a3.189,3.189,0,0,1-3.5,3.514c-1.495,0-2.989.006-4.483,0-.977-.006-1.3-.282-1.49-1.236a1.226,1.226,0,0,1,1.4-1.128c.7.013,1.394-.018,2.091-.029.89.011,1.78.028,2.67.032.645,0,.951-.326.951-.975q-.005-11.283,0-22.567c0-.645-.292-.977-.948-.97q-1.335.016-2.672.027-8.65-.013-17.3-.028c-.714,0-.952.387-.949,1.05.012,2.49-.02,4.981.017,7.471A2.029,2.029,0,0,1,73.5,49.538c-1.1.5-2.176,1.051-3.393,1.645,1.261.615,2.375,1.179,3.507,1.7a1.9,1.9,0,0,1,1.2,1.92c-.022,2.464-.008,4.928-.007,7.392,0,1.037.2,1.244,1.229,1.245,2.884,0,5.768.019,8.652-.011.855-.009,1.42.262,1.609,1.134-.276,1.017-.549,1.237-1.59,1.238-2.987,0-5.975.011-8.963,0a3.152,3.152,0,0,1-3.3-3.316c-.012-1.291-.012-1.308-1.311-1.283-.67.013-1.559-.3-1.947.152-.329.386-.115,1.246-.117,1.9-.006,2.1.01,4.192-.012,6.288-.005.474.118.641.614.627,1.231-.034,2.463-.017,3.695-.009,1.47.01,2.128.642,2.147,2.088q.025,1.926,0,3.852a1.839,1.839,0,0,1-2.091,2.079q-14.662.018-29.324,0A1.84,1.84,0,0,1,42.008,76.1q-.028-1.925,0-3.851c.018-1.442.678-2.077,2.149-2.086,1.231-.008,2.464-.025,3.7.009.5.014.615-.159.611-.629-.02-2.542-.03-5.084.006-7.624.008-.6-.172-.732-.747-.73-7.495.019-14.99,0-22.484.022a6.485,6.485,0,0,1-5.219-2.057A5.7,5.7,0,0,1,18.5,55.291q-.022-14.659-.012-29.319a1.211,1.211,0,0,1,1.1-1.372c.979.149,1.262.48,1.262,1.529q0,7.352,0,14.7,0,7.117,0,14.233a3.664,3.664,0,0,0,2.7,3.626,6.654,6.654,0,0,0,1.72.129h45.85c1.32,0,1.329,0,1.317-1.315-.011-1.162.185-1.017-1.059-1.018q-22.257-.006-44.513,0c-2.505,0-3.661-1.156-3.661-3.644q0-16.906,0-33.813c0-2.461,1.145-3.615,3.6-3.616,4.247,0,8.494-.032,12.74.016a24.454,24.454,0,0,0,4.643-.716c.4-.072.6-.4.478-.666-.208-.466-.385-1.037-1.139-.983-.835.061-1.677.014-2.516.014-5.452,0-10.906-.009-16.358,0a3.617,3.617,0,0,0-3.8,3.807c-.007.891,0,1.782,0,2.674,0,1.06-.213,1.322-1.239,1.576m53.3-4.056a4.322,4.322,0,0,1-1.648-.673c-.163-.326-.308-.663-.492-.978a2.509,2.509,0,0,1,.267-3.048c.633-.83,1.13-1.762,1.732-2.619a.569.569,0,0,0-.108-.905c-.527-.471-1-1-1.509-1.492-.485-.476-.961-1.292-1.476-1.32-.573-.032-1.186.657-1.78,1.034-.02.013-.029.043-.043.065l-1.8,1.111a2.834,2.834,0,0,1-4.007-1.677c-.264-1.2-.538-2.4-.766-3.606-.083-.44-.237-.622-.709-.609-1.2.032-2.411.027-3.615,0-.444-.009-.648.113-.733.58-.226,1.234-.5,2.459-.776,3.684a2.84,2.84,0,0,1-3.975,1.636c-1.084-.684-2.163-1.376-3.225-2.093a.505.505,0,0,0-.781.066Q46.167,7.6,44.807,8.9a.541.541,0,0,0-.07.844c.712,1.034,1.385,2.095,2.055,3.156a2.826,2.826,0,0,1-1.661,4.013c-1.2.265-2.4.547-3.607.763-.5.089-.636.3-.624.778.031,1.178.033,2.358,0,3.536-.015.5.175.668.651.754,1.183.215,2.355.494,3.53.752a2.816,2.816,0,0,1,1.7,4.044c-.659,1.038-1.326,2.071-2.013,3.091-.231.343-.305.573.056.909.9.838,1.76,1.721,2.616,2.606a.538.538,0,0,0,.841.093c1.054-.73,2.138-1.414,3.224-2.1a2.843,2.843,0,0,1,3.957,1.674c.267,1.2.552,2.4.76,3.606.094.544.333.668.835.654q1.728-.048,3.458,0c.486.014.688-.137.777-.629.224-1.234.5-2.459.776-3.684a2.868,2.868,0,0,1,3.927-1.64c.624.379,1.241.768,1.862,1.152.492.338.989.668,1.474,1.016a.424.424,0,0,0,.657-.059q1.362-1.408,2.772-2.769a.468.468,0,0,0,.067-.72c-.557-.82-1.018-1.715-1.643-2.477a2.906,2.906,0,0,1-.2-3.736,4.125,4.125,0,0,0,.2-.42,3.655,3.655,0,0,1,1.735-.772c1.1-.217,2.2-.437,3.3-.648.324-.062.4-.261.4-.563q-.016-1.922,0-3.845c0-.3-.074-.5-.4-.562-1.1-.211-2.2-.431-3.3-.647m18.88-3.949c-.234-.018-.468-.052-.7-.053q-8.528,0-17.055,0a1.634,1.634,0,0,0-.391.012c-.5.126-.652.594-.8.984a.5.5,0,0,0,.438.627,26.438,26.438,0,0,0,4.4.742c4.375-.022,8.75,0,13.124-.013a4.378,4.378,0,0,1,2.054.4,3.5,3.5,0,0,1,1.466,3.111c-.034,5.291-.014,10.582-.014,15.873,0,1.736,0,1.715,1.737,1.769.473.014.631-.072.629-.577-.017-6.444,0-12.887-.019-19.331A3.605,3.605,0,0,0,93.979,13.2a5.948,5.948,0,0,0-2.185-.07M69.609,72.568c-.286-.016-.573-.045-.859-.045q-10.969,0-21.936,0c-.78,0-1.806-.332-2.276.125-.511.5-.076,1.541-.179,2.335-.1.738.221.85.879.848,7.888-.021,15.776-.013,23.664-.016.233,0,.467-.033.7-.05,1.042.018,2.083.028,3.123.058.363.01.435-.172.431-.481q-.016-1.174,0-2.347c0-.307-.057-.493-.424-.483-1.04.03-2.082.038-3.123.054M88.334,17.836c-2.96-.016-5.92-.024-8.881-.057-.474-.006-.484.242-.482.589.009,1.363.021,2.726,0,4.089a2.31,2.31,0,0,1-2.035,2.484c-1.124.25-2.25.486-3.373.739-.827.187-.927.45-.457,1.18.625.968,1.265,1.925,1.878,2.9a2.283,2.283,0,0,1-.324,3.129q-1.595,1.63-3.225,3.225a2.284,2.284,0,0,1-3.13.316c-.972-.617-1.93-1.256-2.9-1.878-.725-.466-.994-.362-1.179.465-.257,1.149-.491,2.3-.75,3.45A2.233,2.233,0,0,1,61.235,40.4c-1.649.057-3.3.057-4.953,0a2.231,2.231,0,0,1-2.239-1.938c-.264-1.174-.5-2.353-.768-3.527-.163-.726-.449-.831-1.091-.42-.991.636-1.972,1.288-2.97,1.913a2.281,2.281,0,0,1-3.129-.321q-1.628-1.6-3.226-3.224a2.28,2.28,0,0,1-.322-3.128c.614-.974,1.253-1.932,1.875-2.9.47-.732.37-.99-.459-1.178-1.1-.249-2.2-.482-3.295-.726a2.331,2.331,0,0,1-2.11-2.579c-.015-1.258-.04-2.518.012-3.774.027-.646-.147-.836-.812-.83-3.643.034-7.288.015-10.931.016-1.16,0-1.247.09-1.247,1.26q0,16.906,0,33.812c0,1.126.127,1.255,1.268,1.255q21.431,0,42.861,0a.952.952,0,0,0,.716-.138c-.988-.482-1.891-.938-2.807-1.363a1.5,1.5,0,0,1-.006-2.848c1.421-.663,2.816-1.382,4.242-2.033a.923.923,0,0,0,.613-1.011c-.033-2.2-.015-4.4-.014-6.6a3.185,3.185,0,0,1,3.538-3.545q6.252-.012,12.5-.027c1,.009,1.991,0,2.986.034.374.012.487-.1.487-.48q-.018-8.728-.006-17.455c0-.545-.239-.85-.792-.847-.942,0-1.883.027-2.825.042M58.8,61.2c-2.435,0-4.87,0-7.305,0-.4,0-.688-.014-.682.553.029,2.618.022,5.236,0,7.854,0,.468.18.575.6.562.812-.024,1.624-.026,2.435,0,.435.014.6-.119.592-.573a18.17,18.17,0,0,1,.073-2.351,4.3,4.3,0,0,1,8.5.008,13.023,13.023,0,0,1,.067,2.194c-.034.615.2.763.762.727a16.459,16.459,0,0,1,2.12,0c.573.038.766-.125.758-.731q-.053-3.73,0-7.461c.008-.6-.132-.8-.769-.793-2.382.039-4.766.016-7.148.016m-.084,8.972h1.566c.221,0,.45-.026.449-.31a7.612,7.612,0,0,0-.2-2.79,1.688,1.688,0,0,0-1.488-1.108A1.905,1.905,0,0,0,56.8,67.886c-.249,2.285-.249,2.285,1.909,2.284" transform="translate(147.682 -941.904)" fill="#040404"/>
      <path id="Trazado_131526" data-name="Trazado 131526" d="M21.274,40.761c1.026-.255,1.234-.516,1.239-1.576,0-.891,0-1.782,0-2.673a3.617,3.617,0,0,1,3.8-3.807c5.452-.013,10.905,0,16.358,0,.839,0,1.681.047,2.516-.014.754-.055.931.517,1.139.982.118.265-.082.6-.478.666a24.458,24.458,0,0,1-4.643.716c-4.246-.048-8.493-.018-12.74-.016-2.451,0-3.6,1.155-3.6,3.616V72.464c0,2.488,1.156,3.644,3.661,3.644q22.257,0,44.514,0c1.243,0,1.048-.144,1.059,1.018.012,1.315,0,1.315-1.317,1.315H26.939a6.651,6.651,0,0,1-1.72-.129,3.664,3.664,0,0,1-2.7-3.626q-.014-7.117,0-14.233,0-7.353,0-14.7c0-1.049-.282-1.38-1.263-1.529a32.918,32.918,0,0,0,.024-3.462" transform="translate(146.018 -961.528)" fill="#809dab"/>
      <path id="Trazado_131527" data-name="Trazado 131527" d="M163.876,123.068c-.189-.872-.754-1.142-1.609-1.134-2.884.03-5.768.013-8.651.011-1.025,0-1.229-.208-1.229-1.245,0-2.464-.015-4.928.007-7.392a1.9,1.9,0,0,0-1.2-1.92c-1.131-.525-2.245-1.088-3.506-1.7,1.217-.593,2.291-1.149,3.392-1.645a2.028,2.028,0,0,0,1.321-2.089c-.037-2.49,0-4.98-.016-7.471,0-.663.234-1.052.949-1.05q8.65.016,17.3.028,0,2.166,0,4.333a4.061,4.061,0,0,0-1.822-.382c-3.667.009-7.334,0-11,.006a2.733,2.733,0,0,0-3.049,3.056q0,5.461,0,10.92c0,2.135.99,3.141,3.1,3.143,3.641,0,7.282,0,10.922.005a5.084,5.084,0,0,0,1.621-.226c.308.192.221.5.223.78.007.939,0,1.879,0,2.819-.7.012-1.394.042-2.09.029a1.226,1.226,0,0,0-1.4,1.128h-3.261" transform="translate(70.101 -1000.405)" fill="#f5f0ee"/>
      <path id="Trazado_131528" data-name="Trazado 131528" d="M99.14,63.247l-12.5.028A3.184,3.184,0,0,0,83.1,66.819c0,2.2-.019,4.4.014,6.605a.922.922,0,0,1-.613,1.01c-1.426.65-2.821,1.37-4.242,2.033a1.5,1.5,0,0,0,.005,2.848c.917.425,1.819.881,2.807,1.363a.952.952,0,0,1-.716.138q-21.43.006-42.861,0c-1.142,0-1.269-.129-1.269-1.254q0-16.906,0-33.812c0-1.17.088-1.259,1.247-1.26,3.644,0,7.288.017,10.931-.016.664-.006.839.184.812.83-.052,1.256-.027,2.516-.012,3.773a2.331,2.331,0,0,0,2.11,2.579c1.1.244,2.2.477,3.3.726.829.188.929.446.459,1.178-.622.969-1.262,1.927-1.875,2.9a2.28,2.28,0,0,0,.322,3.128q1.6,1.629,3.226,3.224a2.283,2.283,0,0,0,3.129.321c1-.625,1.979-1.277,2.97-1.913.642-.412.927-.306,1.091.42.264,1.174.5,2.353.768,3.527a2.231,2.231,0,0,0,2.239,1.938c1.649.057,3.3.057,4.952,0a2.234,2.234,0,0,0,2.241-1.936c.259-1.148.493-2.3.75-3.45.185-.827.454-.931,1.179-.465.969.622,1.927,1.261,2.9,1.878a2.283,2.283,0,0,0,3.13-.316q1.63-1.595,3.225-3.225a2.283,2.283,0,0,0,.324-3.129c-.613-.975-1.254-1.932-1.878-2.9-.471-.729-.371-.993.457-1.18,1.122-.253,2.249-.489,3.372-.739a2.31,2.31,0,0,0,2.035-2.484c.024-1.363.011-2.726,0-4.089,0-.347.008-.594.482-.589,2.96.033,5.92.041,8.881.058.01.442.164.86.163,1.312q-.023,8.7-.012,17.393M47.523,69.239c-1.939,0-3.879-.008-5.818,0a2.584,2.584,0,0,0-2.728,2.551c-.063,1.307-.057,2.621,0,3.929a2.569,2.569,0,0,0,2.616,2.6q5.935.061,11.87,0a2.59,2.59,0,0,0,2.609-2.757q.023-1.768,0-3.537a2.609,2.609,0,0,0-2.809-2.783c-1.913-.008-3.826,0-5.739,0m-2.809-2.294c.995,0,1.989.017,2.983-.006a1.153,1.153,0,0,0,1.251-1.126,1.138,1.138,0,0,0-1.178-1.205q-3.06-.057-6.122,0a1.109,1.109,0,0,0-1.192,1.255c.038.683.465,1.066,1.275,1.083.994.02,1.989,0,2.983,0m-.04-4.261c.995,0,1.989.016,2.983,0a1.179,1.179,0,1,0,0-2.347q-2.944-.032-5.888,0c-.867.009-1.331.476-1.31,1.223.02.715.462,1.112,1.313,1.127.968.018,1.937,0,2.905,0m-1.852-4.272c.444,0,.888.018,1.33,0a1.075,1.075,0,0,0,1.107-1.085,1.092,1.092,0,0,0-1.039-1.235,21.339,21.339,0,0,0-2.736,0,1.083,1.083,0,0,0-1.024,1.241,1.069,1.069,0,0,0,1.11,1.077c.416.025.834,0,1.252,0" transform="translate(137.027 -968.609)" fill="#d7eef2"/>
      <path id="Trazado_131529" data-name="Trazado 131529" d="M101.547,36.833c-.621-.384-1.238-.773-1.862-1.152a2.868,2.868,0,0,0-3.927,1.64c-.276,1.224-.553,2.449-.776,3.683-.089.492-.291.643-.777.629q-1.728-.049-3.458,0c-.5.014-.742-.109-.835-.654-.208-1.21-.494-2.407-.761-3.606A2.843,2.843,0,0,0,85.194,35.7c-1.086.682-2.17,1.367-3.224,2.1a.538.538,0,0,1-.841-.093c-.856-.885-1.715-1.768-2.616-2.606-.361-.336-.287-.566-.056-.909.686-1.02,1.354-2.053,2.012-3.091a2.816,2.816,0,0,0-1.7-4.044c-1.175-.259-2.347-.537-3.53-.752-.477-.087-.666-.25-.651-.754.035-1.178.032-2.358,0-3.536-.012-.481.125-.689.624-.778,1.209-.216,2.407-.5,3.607-.763a2.826,2.826,0,0,0,1.661-4.013c-.67-1.062-1.343-2.122-2.055-3.157a.541.541,0,0,1,.07-.844q1.358-1.307,2.667-2.665a.505.505,0,0,1,.781-.066c1.062.716,2.142,1.409,3.225,2.093a2.84,2.84,0,0,0,3.975-1.637c.273-1.225.55-2.449.776-3.683.086-.467.289-.59.733-.58,1.2.025,2.411.03,3.615,0,.472-.012.626.169.709.609.227,1.207.5,2.406.766,3.606a2.834,2.834,0,0,0,4.007,1.677l1.8-1.111a6.394,6.394,0,0,1,1.293,1.23,1.29,1.29,0,0,1,.139,1.6,11.373,11.373,0,0,1-1.463,2.092c-1.242-.684-2.043-.232-2.069,1.176-.011.6,0,1.206-.006,1.809,0,.166.059.354-.195.444a2.589,2.589,0,0,1-2.236-.6,5.858,5.858,0,0,0-8.851-.239,2.48,2.48,0,0,1-2.226.848c-.386.007-.5-.118-.485-.492.024-.681.028-1.364-.006-2.044a1.157,1.157,0,0,0-1.151-1.236A1.136,1.136,0,0,0,83.1,16.477c-.036,1.257-.039,2.517,0,3.774A1.123,1.123,0,0,0,84.333,21.4c.55.018,1.1-.012,1.651.011.255.011.7-.189.588.4-.08.4.192,1-.646.93a21.84,21.84,0,0,0-2.437-.007c-.882.03-1.341.475-1.319,1.221.021.712.465,1.111,1.321,1.134.812.022,1.627.043,2.437-.007.575-.035.6.255.645.7.056.581-.3.484-.633.485-.525,0-1.049-.011-1.573,0A1.133,1.133,0,0,0,83.1,27.465c-.038,1.231-.034,2.464,0,3.7a1.169,1.169,0,1,0,2.337.021c.038-.679.01-1.363.021-2.044a.73.73,0,0,1,.086-.435c.244-.271,1.822-.006,2.065.323a5.92,5.92,0,0,0,9.669.016c.118-.16.164-.41.43-.4a4.085,4.085,0,0,1,1.614.1c.33.163.086.816.117,1.249.023.313,0,.629,0,.943a1.3,1.3,0,0,0,.647,1.328,1.257,1.257,0,0,0,1.5-.31c.44.64.9,1.265,1.313,1.923a1.4,1.4,0,0,1-.171,1.853,6.408,6.408,0,0,1-1.191,1.113" transform="translate(113.992 -945.456)" fill="#f6d8aa"/>
      <path id="Trazado_131530" data-name="Trazado 131530" d="M107.379,153.139c2.383,0,4.766.024,7.148-.016.637-.01.777.193.77.793q-.048,3.73,0,7.461c.008.606-.184.769-.757.731a16.313,16.313,0,0,0-2.12,0c-.567.036-.8-.111-.762-.727a13.066,13.066,0,0,0-.067-2.194,4.3,4.3,0,0,0-8.5-.007,18.233,18.233,0,0,0-.073,2.351c.008.455-.157.588-.592.573-.811-.027-1.624-.025-2.435,0-.422.013-.6-.094-.6-.562.019-2.618.025-5.236,0-7.853-.006-.567.286-.554.682-.553,2.435.007,4.87,0,7.305,0" transform="translate(99.099 -1033.845)" fill="#c4d0d9"/>
      <path id="Trazado_131531" data-name="Trazado 131531" d="M108.382,184.582c-.233.018-.467.051-.7.051-7.888,0-15.777-.005-23.665.016-.658,0-.975-.11-.879-.848.1-.794-.332-1.837.179-2.335.47-.457,1.5-.125,2.277-.125q10.967-.013,21.935,0c.286,0,.573.03.859.045q0,1.6-.007,3.2" transform="translate(108.903 -1050.718)" fill="#d9e4e9"/>
      <path id="Trazado_131532" data-name="Trazado 131532" d="M204.776,101.792q0-2.167,0-4.333,1.336-.013,2.672-.027c.656-.008.948.325.948.97q0,11.283,0,22.567c0,.649-.306.978-.951.975-.89,0-1.78-.02-2.671-.031,0-.94.007-1.879,0-2.819,0-.275.085-.588-.223-.78a3.069,3.069,0,0,0,1.5-2.892c-.041-3.64-.035-7.28,0-10.919a3.069,3.069,0,0,0-1.272-2.712" transform="translate(35.958 -1000.406)" fill="#efe8e4"/>
      <path id="Trazado_131533" data-name="Trazado 131533" d="M193.46,63.281q0-8.7.012-17.393c0-.452-.153-.87-.163-1.312.942-.015,1.884-.039,2.825-.043.553,0,.792.3.792.847q-.006,8.728.006,17.455c0,.381-.112.492-.487.481-.995-.032-1.991-.026-2.986-.035" transform="translate(42.707 -968.643)" fill="#b2e4ed"/>
      <path id="Trazado_131534" data-name="Trazado 131534" d="M201.969,32.765a5.954,5.954,0,0,1,2.184.07,3.605,3.605,0,0,1,2.681,3.477c.018,6.443,0,12.887.02,19.331,0,.5-.156.591-.629.576-1.737-.054-1.737-.033-1.737-1.769,0-5.291-.02-10.583.014-15.873a3.5,3.5,0,0,0-1.466-3.112c.267-.161.069-.357.042-.542-.123-.846-.79-1.413-1.109-2.159" transform="translate(37.507 -961.538)" fill="#6e8b96"/>
      <path id="Trazado_131535" data-name="Trazado 131535" d="M142.253,47.061a3.659,3.659,0,0,0-1.735.772,13.151,13.151,0,0,0-3.053.527c-.14-.157-.079-.348-.083-.525-.022-1.086-.321-1.392-1.392-1.4a12.027,12.027,0,0,1-1.254-.013c-.284-.033-.762.285-.772-.414-.009-.643.244-.794.831-.756.729.047,1.464.024,2.2.007.908-.02,1.366-.412,1.381-1.146.016-.765-.459-1.191-1.4-1.213-.81-.019-1.621-.012-2.432,0-.326,0-.5-.042-.557-.447-.093-.686.058-1,.815-.89a7.948,7.948,0,0,0,1.253.01c.971-.014,1.314-.362,1.333-1.312,0-.253-.085-.522.08-.76a29.868,29.868,0,0,0,3.14.627,4.312,4.312,0,0,0,1.648.673,13.9,13.9,0,0,1,.148,3.561,8.034,8.034,0,0,1-.148,2.7" transform="translate(78.343 -965.62)" fill="#f6d8aa"/>
      <path id="Trazado_131536" data-name="Trazado 131536" d="M173.46,32.774c.319.746.985,1.313,1.109,2.159.027.185.225.381-.042.542a4.377,4.377,0,0,0-2.054-.4c-4.374.012-8.75-.008-13.124.014a26.444,26.444,0,0,1-4.4-.742.5.5,0,0,1-.438-.627c.147-.39.3-.858.8-.984a1.637,1.637,0,0,1,.392-.012q8.527,0,17.054,0c.235,0,.469.034.7.052" transform="translate(66.017 -961.546)" fill="#809dab"/>
      <path id="Trazado_131537" data-name="Trazado 131537" d="M145.422,25.492a29.867,29.867,0,0,1-3.14-.627c0-.437.017-.875,0-1.311a4.58,4.58,0,0,0-.3-2.407,11.362,11.362,0,0,0,1.463-2.092,1.289,1.289,0,0,0-.139-1.6,6.383,6.383,0,0,0-1.293-1.23c.014-.022.024-.052.044-.065.595-.377,1.207-1.066,1.78-1.034.515.028.99.844,1.475,1.32.505.5.982,1.022,1.509,1.492a.57.57,0,0,1,.108.905c-.6.856-1.1,1.788-1.732,2.619a2.508,2.508,0,0,0-.267,3.048c.183.314.328.651.491.978" transform="translate(73.526 -950.988)" fill="#f3cc8d"/>
      <path id="Trazado_131538" data-name="Trazado 131538" d="M142.329,60.874a13.171,13.171,0,0,1,3.053-.527,3.957,3.957,0,0,1-.2.42,2.907,2.907,0,0,0,.2,3.736c.626.762,1.086,1.657,1.644,2.476a.468.468,0,0,1-.068.72q-1.409,1.361-2.772,2.769a.423.423,0,0,1-.657.059c-.485-.348-.982-.678-1.474-1.016A6.4,6.4,0,0,0,143.25,68.4a1.4,1.4,0,0,0,.171-1.853c-.41-.658-.873-1.283-1.313-1.923.442-1.227.121-2.5.221-3.747" transform="translate(73.479 -978.133)" fill="#f3cc8d"/>
      <path id="Trazado_131539" data-name="Trazado 131539" d="M154.717,49.014a8.036,8.036,0,0,0,.148-2.7,13.9,13.9,0,0,0-.148-3.561c1.1.217,2.2.436,3.3.647.324.062.4.26.4.562q-.016,1.922,0,3.845c0,.3-.073.5-.4.563-1.1.211-2.2.431-3.3.648" transform="translate(65.879 -967.572)" fill="#f3cc8d"/>
      <path id="Trazado_131540" data-name="Trazado 131540" d="M116.138,169.269c-2.158,0-2.158,0-1.909-2.284a1.905,1.905,0,0,1,2.239-1.924,1.688,1.688,0,0,1,1.488,1.108,7.611,7.611,0,0,1,.2,2.79c0,.284-.228.309-.449.31h-1.566" transform="translate(90.256 -1041.003)" fill="#6e8b96"/>
      <path id="Trazado_131541" data-name="Trazado 131541" d="M146.429,184.738q0-1.6.007-3.2c1.041-.016,2.082-.024,3.123-.054.367-.01.429.175.424.483q-.017,1.174,0,2.347c0,.31-.068.492-.43.481-1.041-.03-2.082-.04-3.123-.058" transform="translate(70.856 -1050.874)" fill="#c4d0d9"/>
      <path id="Trazado_131542" data-name="Trazado 131542" d="M181.262,107.771a3.068,3.068,0,0,1,1.272,2.712q-.05,5.459,0,10.919a3.069,3.069,0,0,1-1.5,2.892,5.085,5.085,0,0,1-1.621.227c-3.64-.008-7.281,0-10.922-.006-2.113,0-3.1-1.007-3.1-3.143q0-5.46,0-10.92a2.733,2.733,0,0,1,3.049-3.056c3.667-.006,7.334,0,11-.006a4.066,4.066,0,0,1,1.822.382m-4.729,2.034q-4.082-.025-8.164-.053c-.479,0-.626.215-.624.676q.019,5.538,0,11.076c0,.462.141.66.629.656,2.723-.025,5.445-.028,8.168-.039.994.011,1.988.008,2.982.038.465.014.648-.144.646-.631q-.022-5.574,0-11.149c0-.423-.131-.641-.578-.63-1.018.025-2.037.038-3.056.056" transform="translate(59.471 -1006.384)" fill="#040404"/>
      <path id="Trazado_131543" data-name="Trazado 131543" d="M51.593,106.448c1.913,0,3.826-.006,5.739,0a2.609,2.609,0,0,1,2.809,2.783q.02,1.769,0,3.537a2.589,2.589,0,0,1-2.609,2.756q-5.934.067-11.87,0a2.569,2.569,0,0,1-2.616-2.6c-.055-1.307-.061-2.622,0-3.928a2.583,2.583,0,0,1,2.728-2.551c1.939-.011,3.878,0,5.817,0m-.054,6.736v-.008c1.833,0,3.666-.012,5.5.008.515.006.769-.114.746-.7-.04-1.02-.023-2.042-.005-3.063.007-.414-.093-.617-.566-.616q-5.617.019-11.235-.006c-.456,0-.6.183-.593.6.011,1.021.023,2.043-.005,3.063-.016.551.2.732.738.724,1.807-.023,3.614-.009,5.421-.009" transform="translate(132.957 -1005.818)" fill="#040404"/>
      <path id="Trazado_131544" data-name="Trazado 131544" d="M51.068,97.156c-.995,0-1.989.016-2.983,0-.81-.016-1.237-.4-1.275-1.082A1.108,1.108,0,0,1,48,94.814q3.06-.053,6.123,0a1.138,1.138,0,0,1,1.178,1.2,1.153,1.153,0,0,1-1.25,1.127c-.994.023-1.989.006-2.983.006" transform="translate(130.672 -998.819)" fill="#060504"/>
      <path id="Trazado_131545" data-name="Trazado 131545" d="M51.03,86.49c-.968,0-1.937.014-2.9,0-.851-.016-1.293-.412-1.314-1.128-.021-.747.444-1.214,1.311-1.223q2.944-.03,5.888,0a1.179,1.179,0,1,1,0,2.347c-.994.021-1.989,0-2.984.006" transform="translate(130.67 -992.414)" fill="#060504"/>
      <path id="Trazado_131546" data-name="Trazado 131546" d="M49.178,75.8c-.418,0-.836.021-1.252,0a1.069,1.069,0,0,1-1.11-1.077,1.083,1.083,0,0,1,1.024-1.241,21.339,21.339,0,0,1,2.736,0,1.092,1.092,0,0,1,1.039,1.235A1.076,1.076,0,0,1,50.509,75.8c-.442.022-.887,0-1.33,0" transform="translate(130.67 -985.996)" fill="#060504"/>
      <path id="Trazado_131547" data-name="Trazado 131547" d="M113.211,42.274c-.1,1.247.221,2.52-.221,3.747a1.257,1.257,0,0,1-1.5.31A1.3,1.3,0,0,1,110.84,45c0-.314.018-.631-.005-.943-.032-.433.213-1.086-.117-1.249a4.078,4.078,0,0,0-1.614-.1c-.266-.005-.312.245-.43.4A5.92,5.92,0,0,1,99,43.1c-.243-.328-1.822-.593-2.065-.323a.727.727,0,0,0-.086.435c-.011.681.018,1.365-.021,2.044a1.169,1.169,0,1,1-2.337-.021c-.033-1.231-.036-2.465,0-3.7a1.133,1.133,0,0,1,1.265-1.192c.524-.016,1.048,0,1.573,0,.33,0,.69.1.633-.485-.043-.444-.07-.734-.644-.7-.81.05-1.625.028-2.437.007-.856-.023-1.3-.422-1.321-1.134-.022-.745.437-1.191,1.319-1.221a21.84,21.84,0,0,1,2.437.007c.837.066.566-.529.646-.93.117-.588-.332-.388-.588-.4-.55-.023-1.1.007-1.651-.011A1.123,1.123,0,0,1,94.5,34.328c-.041-1.257-.038-2.516,0-3.773a1.136,1.136,0,0,1,1.186-1.195A1.157,1.157,0,0,1,96.836,30.6c.034.68.03,1.363.006,2.044-.013.374.1.5.485.492a2.481,2.481,0,0,0,2.226-.848,5.858,5.858,0,0,1,8.851.239,2.589,2.589,0,0,0,2.236.6c.255-.09.193-.278.195-.444.008-.6-.005-1.206.006-1.809.026-1.408.827-1.86,2.069-1.176a4.581,4.581,0,0,1,.3,2.408c.022.436,0,.873,0,1.31-.165.239-.075.507-.08.761-.019.949-.362,1.3-1.333,1.312a7.948,7.948,0,0,1-1.253-.01c-.756-.111-.909.2-.815.89.055.4.23.452.556.447.81-.012,1.621-.018,2.432,0,.942.022,1.418.448,1.4,1.213-.016.734-.473,1.126-1.381,1.146-.732.016-1.467.04-2.2-.007-.587-.038-.84.113-.831.756.01.7.488.381.772.414a11.917,11.917,0,0,0,1.254.013c1.071.011,1.37.317,1.392,1.4,0,.177-.058.368.082.525m-10.829-9.18a3.025,3.025,0,0,0-2,2.673,22.187,22.187,0,0,0,0,4.466,3.009,3.009,0,0,0,2.009,2.663,3.415,3.415,0,0,0,4.928-2.867,31.1,31.1,0,0,0,.008-4,3.424,3.424,0,0,0-4.947-2.933" transform="translate(102.598 -959.532)" fill="#060504"/>
      <path id="Trazado_131548" data-name="Trazado 131548" d="M180.082,125.67c-2.723.011-5.446.014-8.168.039-.487,0-.63-.194-.629-.656q.017-5.538,0-11.076c0-.461.146-.68.624-.676q4.082.035,8.165.053,0,1.205.01,2.411a1.9,1.9,0,0,0-1.144.63c-.354.386-.756.729-1.1,1.12-.253.285-.418.282-.676,0a17.8,17.8,0,0,0-1.394-1.384,1.165,1.165,0,0,0-1.642,1.651,12.38,12.38,0,0,0,1.219,1.225c.406.348.468.607.025.979a11.876,11.876,0,0,0-1.221,1.222,1.139,1.139,0,0,0,.023,1.682,1.176,1.176,0,0,0,1.633-.025,8.117,8.117,0,0,0,1.11-1.11c.448-.584.746-.456,1.209.014.569.579,1,1.384,1.958,1.467Z" transform="translate(55.932 -1009.934)" fill="#e96d71"/>
      <path id="Trazado_131549" data-name="Trazado 131549" d="M193.277,125.664q0-1.217,0-2.433a1.232,1.232,0,0,0,.567-2.26,6.4,6.4,0,0,1-.574-.623q0-.837-.009-1.675c.174-.191.344-.386.524-.571.979-1.014.8-1.852-.506-2.343q0-1.205-.01-2.411c1.018-.018,2.037-.031,3.056-.056.447-.011.579.207.578.63q-.015,5.574,0,11.149c0,.487-.181.645-.646.631-.993-.03-1.987-.028-2.981-.038" transform="translate(42.736 -1009.929)" fill="#e45459"/>
      <path id="Trazado_131550" data-name="Trazado 131550" d="M55.111,116.725c-1.807,0-3.614-.014-5.421.009-.541.007-.754-.174-.738-.724.028-1.02.016-2.042.005-3.063,0-.42.137-.605.593-.6q5.618.024,11.234.006c.473,0,.573.2.566.616-.018,1.021-.035,2.043.005,3.063.023.583-.231.7-.746.7-1.833-.02-3.666-.008-5.5-.008Z" transform="translate(129.385 -1009.359)" fill="#efaa69"/>
      <path id="Trazado_131551" data-name="Trazado 131551" d="M115.634,38.2a3.424,3.424,0,0,1,4.947,2.933,31.108,31.108,0,0,1-.008,4,3.415,3.415,0,0,1-4.928,2.867c.7-.255.876-.91,1.125-1.494a8.68,8.68,0,0,0,.324-3.4c.155-.013.312-.018.467-.04a1.15,1.15,0,0,0,1.151-1.226q-.026-1.049-1.229-1.125l-.545-.035a2.8,2.8,0,0,0-1.3-2.485" transform="translate(89.346 -964.643)" fill="#e45459"/>
      <path id="Trazado_131552" data-name="Trazado 131552" d="M113.922,43.618a8.681,8.681,0,0,1-.324,3.4c-.249.584-.428,1.239-1.125,1.493a3.008,3.008,0,0,1-2.008-2.663,22.19,22.19,0,0,1,0-4.467,3.024,3.024,0,0,1,2-2.672,2.8,2.8,0,0,1,1.3,2.485c-1.189.126-1.726.738-1.4,1.623.269.729.924.755,1.556.8" transform="translate(92.518 -965.145)" fill="#e96d71"/>
      <path id="Trazado_131553" data-name="Trazado 131553" d="M183.848,119.467c1.3.49,1.484,1.328.506,2.342-.179.186-.35.381-.524.572-1,.92-1.09.7.009,1.675a6.386,6.386,0,0,0,.574.622,1.233,1.233,0,0,1-.567,2.261c-.953-.082-1.389-.888-1.958-1.467-.462-.47-.76-.6-1.209-.014a8.118,8.118,0,0,1-1.11,1.11,1.177,1.177,0,0,1-1.633.025,1.14,1.14,0,0,1-.023-1.683,11.873,11.873,0,0,1,1.221-1.222c.443-.373.38-.632-.025-.979a12.334,12.334,0,0,1-1.219-1.225,1.165,1.165,0,0,1,1.642-1.651,17.794,17.794,0,0,1,1.394,1.384c.257.283.423.286.676,0,.347-.392.748-.735,1.1-1.12a1.9,1.9,0,0,1,1.144-.63" transform="translate(52.167 -1013.636)" fill="#040404"/>
      <path id="Trazado_131554" data-name="Trazado 131554" d="M192.1,128.435c-1.1-.971-1-.754-.009-1.675q0,.838.009,1.675" transform="translate(43.91 -1018.016)" fill="#e96d71"/>
      <path id="Trazado_131555" data-name="Trazado 131555" d="M116.809,47.353c-.633-.048-1.288-.074-1.556-.8-.326-.885.211-1.5,1.4-1.623l.545.035q1.2.076,1.229,1.125a1.149,1.149,0,0,1-1.151,1.226c-.154.022-.311.028-.467.04" transform="translate(89.632 -968.879)" fill="#040404"/>
    </g>
  </g>
</svg>
