<svg xmlns="http://www.w3.org/2000/svg" width="67" height="90.367" viewBox="0 0 67 90.367">
  <g id="Grupo_87548" data-name="Grupo 87548" transform="translate(-218 -1538.725)">
    <g id="Grupo_81330" data-name="Grupo 81330" transform="translate(218 1538.725)">
      <rect id="Rectángulo_34185" data-name="Rectángulo 34185" width="67" height="90.367" rx="5" fill="#fff"/>
    </g>
    <g id="Grupo_86768" data-name="Grupo 86768" transform="translate(225.142 1548.938)">
      <path id="Trazado_131249" data-name="Trazado 131249" d="M297.389,16.2a3.53,3.53,0,0,1,3.556,5.909c-1.26,1.258-2.511,2.525-3.783,3.77a.444.444,0,0,0-.088.645,23.013,23.013,0,0,1,2.668,10.217,31.057,31.057,0,0,0,.589,3.879c.335,2.024.669,4.049,1.034,6.069.081.452-.142.411-.434.411q-14.689-.006-29.378-.015c-.484,0-.6.107-.6.6a3.866,3.866,0,0,1-4.075,4.079q-4.467,0-8.935,0a3.887,3.887,0,0,1-4.072-4.095q0-12.237,0-24.472a8.506,8.506,0,0,1,7.452-8.642c.237-.035.335-.1.324-.357-.02-.436,0-.874-.007-1.311a2.416,2.416,0,0,1,.752-1.827Q265.76,7.7,269.124,4.33a2.471,2.471,0,0,1,1.831-.746q11.994.007,23.988,0a2.321,2.321,0,0,1,2.445,2.434q.008,4.808,0,9.614ZM283.153,5.142c-3.917,0-7.834.006-11.75-.01-.372,0-.447.1-.444.454.021,1.618.012,3.237.008,4.855a2.336,2.336,0,0,1-2.46,2.471c-1.521,0-3.043,0-4.564,0-.746,0-.746,0-.746.763,0,.781,0,.781.765.935a8.541,8.541,0,0,1,7.005,8.554q0,10.948-.009,21.9c0,.4.095.5.5.5q8.546-.022,17.092-.01c1.073,0,1.05,0,1.082-1.069.012-.411-.1-.5-.5-.494-5.373.015-10.747,0-16.121.02-.407,0-.5-.1-.494-.5q.021-9.613,0-19.227c0-.405.1-.5.5-.5,3.464.018,6.928.01,10.391.012a.8.8,0,0,0,.653-.216,4.484,4.484,0,0,1,3.274-1.338c1.052-.006,2.1-.01,3.156,0a.8.8,0,0,0,.631-.265q2.2-2.225,4.43-4.427a.907.907,0,0,0,.3-.717c-.011-3.544-.006-7.088-.007-10.633,0-.819-.244-1.057-1.076-1.058h-11.6M255.426,23a6.994,6.994,0,1,0,7.034-6.977A7.01,7.01,0,0,0,255.426,23m0,4.942v.467q0,9.638,0,19.277a2.348,2.348,0,0,0,2.553,2.526q4.419,0,8.837,0a2.358,2.358,0,0,0,2.6-2.582q0-9.566,0-19.131c0-.151-.012-.3-.022-.527a9.1,9.1,0,0,1-1.257,1.385.712.712,0,0,0-.279.621c.012,1.489.006,2.978,0,4.467a1.578,1.578,0,0,1-1.753,1.78q-3.69,0-7.381,0a1.568,1.568,0,0,1-1.744-1.739c0-1.505,0-3.011,0-4.516,0-.171.038-.348-.133-.488a9.557,9.557,0,0,1-1.419-1.541M287.287,30.7c0,1.084-.007,2.168,0,3.252a3.8,3.8,0,0,0,1.374,2.983c.554.472,1.136.909,1.7,1.372a.478.478,0,0,0,.484.1q3.5-.965,7.006-1.911c.214-.058.311-.144.3-.4a21.164,21.164,0,0,0-2.236-8.463c-.126-.25-.205-.3-.43-.076q-2.44,2.468-4.9,4.912a.557.557,0,0,0-.188.419c0,.319.148.74-.062.929-.226.205-.647.042-.983.065a.809.809,0,0,0-.1,0c-.353.065-.419-.1-.416-.424.017-1.651.012-3.3.006-4.951a1.566,1.566,0,0,0-1.14-1.563c-.3-.092-.428-.07-.421.3.023,1.149.008,2.3.009,3.447m3.107-.23c.6-.6,1.095-1.108,1.6-1.611q3.947-3.949,7.893-7.9a1.964,1.964,0,1,0-2.77-2.785q-3.822,3.8-7.629,7.616c-.182.181-.227.281-.012.49A3.027,3.027,0,0,1,290.4,28.6c-.01.578,0,1.156,0,1.871m4.939,15.073c1.261,0,2.522-.014,3.782.009.367.007.468-.072.4-.449-.394-2.258-.779-4.517-1.137-6.781-.055-.354-.181-.323-.434-.253q-3.218.887-6.443,1.754c-.269.071-.342.191-.34.464.015,1.616.018,3.233,0,4.849,0,.356.112.419.437.414,1.244-.018,2.489-.008,3.734-.008M282.723,28.452a6.534,6.534,0,0,1,.1-2.86c.094-.328-.141-.245-.3-.245-2.7,0-5.4,0-8.1-.008-.27,0-.358.065-.351.345.018.792.022,1.585,0,2.377-.009.316.078.4.4.4,2.588-.013,5.176-.008,7.764-.008Zm-24.188,2.18c0,1.311.007,2.552-.005,3.792,0,.3.178.244.349.244,2.359,0,4.717-.008,7.077.008.328,0,.361-.123.355-.393-.015-.71-.005-1.422-.005-2.133V30.63a8.62,8.62,0,0,1-7.77,0m24.475-.556c-.053-.028-.091-.065-.128-.065-2.845,0-5.691,0-8.536-.01-.27,0-.274.124-.272.323.007.825.013,1.649,0,2.473-.005.255.071.324.324.323,1.778-.011,3.556-.008,5.335,0a.544.544,0,0,0,.421-.181c.944-.953,1.9-1.9,2.859-2.861m2.722,2.346c0-.773.01-1.4-.007-2.035,0-.157.124-.391-.1-.464-.168-.056-.334.069-.467.2q-2.16,2.166-4.328,4.324c-.157.156-.19.256-.015.428q1.2,1.172,2.369,2.368c.164.167.266.167.429,0,.678-.694,1.367-1.379,2.057-2.063a.393.393,0,0,0,.141-.384,16.464,16.464,0,0,1-.082-2.376m-3.885,7.6c-.608.239-1.159.461-1.714.673a2.028,2.028,0,0,1-2.77-1.109.36.36,0,0,0-.386-.262c-.856.015-1.714.019-2.571,0-.293-.008-.34.1-.335.361.015.808.013,1.617,0,2.426,0,.238.038.336.311.335q3.59-.017,7.18,0c.245,0,.293-.085.289-.307-.012-.678,0-1.357,0-2.115m4.663-.424c0-.823,0-1.647,0-2.469,0-.136.078-.329-.068-.4s-.228.133-.33.221a17.815,17.815,0,0,1-2.62,2.4c-.128.072-.084.2-.085.305,0,.823.01,1.646-.008,2.469-.006.271.1.314.334.311.823-.013,1.647-.016,2.469,0,.265.005.321-.084.317-.33-.014-.839-.005-1.678-.005-2.517m-17.1-33.18-4.939,4.936c1.366,0,2.783.012,4.2-.007a.689.689,0,0,0,.73-.7c.025-1.429.01-2.86.01-4.229m9.269,28.251c-1.492,0-2.925,0-4.358-.005-.244,0-.247.121-.246.3,0,.84.01,1.681,0,2.521,0,.233.066.3.3.3.937-.012,1.874-.007,2.811,0,.154,0,.263-.013.332-.192.371-.957.76-1.908,1.164-2.917M289.223,23.9a8.817,8.817,0,0,0-2.728,0,3.323,3.323,0,0,0-2.293,3.955.771.771,0,0,0,1.518-.1c.035-.3,0-.614.016-.92a1.441,1.441,0,0,1,1.313-1.439,1.744,1.744,0,0,0,1.371-.718c.257-.268.534-.516.8-.773m-7.2,14.372c-.713-.708-1.366-1.353-2.013-2-.155-.157-.236-.175-.327.064-.287.753-.591,1.5-.895,2.245a.5.5,0,0,0,.1.58.521.521,0,0,0,.62.119c.8-.326,1.611-.643,2.515-1m6.037.2v2.764c0,1.279,0,1.271,1.264,1.218.234-.009.3-.073.3-.3-.014-.727-.009-1.453,0-2.18a.452.452,0,0,0-.187-.412c-.434-.331-.855-.677-1.37-1.088" transform="translate(-253.871 -3.584)" fill="#010101"/>
      <path id="Trazado_131250" data-name="Trazado 131250" d="M285.958,5.607h11.6c.833,0,1.076.238,1.076,1.057,0,3.545,0,7.089.007,10.634a.909.909,0,0,1-.3.716q-2.228,2.2-4.43,4.427a.794.794,0,0,1-.631.265c-1.052-.014-2.1-.011-3.156,0a4.487,4.487,0,0,0-3.274,1.338.8.8,0,0,1-.652.216c-3.463,0-6.927.006-10.391-.012-.4,0-.5.092-.5.5q.021,9.613,0,19.228c0,.4.087.5.494.5,5.374-.015,10.748-.005,16.121-.02.4,0,.514.083.5.494-.032,1.069-.01,1.069-1.082,1.069q-8.545,0-17.092.01c-.4,0-.5-.092-.5-.5q.021-10.948.009-21.9a8.541,8.541,0,0,0-7.005-8.554c-.765-.154-.765-.154-.765-.934,0-.763,0-.763.746-.763,1.521,0,3.043,0,4.564,0a2.336,2.336,0,0,0,2.46-2.471c0-1.618.012-3.237-.008-4.855,0-.354.071-.454.443-.453,3.917.015,7.834.009,11.751.009m.25,6.216c3.48,0,6.959-.006,10.439.009.363,0,.455-.085.447-.448-.025-1.279-.021-2.557,0-3.836.005-.321-.088-.4-.4-.4q-10.488.014-20.977,0c-.317,0-.4.081-.4.4.018,1.279.024,2.558,0,3.836-.007.368.093.447.451.445,3.48-.015,6.959-.008,10.44-.008m.048,1.554H276.4c-1.073,0-1.052,0-1.082,1.068-.012.407.1.5.5.5q10.075-.022,20.15-.01c1.126,0,1.108,0,1.13-1.116.007-.366-.088-.449-.45-.447-3.463.015-6.927.009-10.39.009m0,3.108H276.4c-1.076,0-1.055,0-1.085,1.066-.012.4.091.5.5.5q10.075-.022,20.15-.011c1.128,0,1.111,0,1.132-1.114.007-.361-.083-.451-.447-.449-3.463.015-6.928.009-10.391.009m-4.7,3.108h-5.195c-1.034,0-1.015,0-1.042,1.058-.01.388.068.51.488.507,3.64-.019,7.281-.012,10.922-.012,1.034,0,1.016,0,1.042-1.057.01-.388-.066-.514-.487-.508-1.909.027-3.819.012-5.728.012" transform="translate(-256.676 -4.05)" fill="#e5e8eb"/>
      <path id="Trazado_131251" data-name="Trazado 131251" d="M255.9,26.737a6.993,6.993,0,1,1,6.953,7.01,7.005,7.005,0,0,1-6.953-7.01m6.216,4.5c0,.3,0,.509,0,.72,0,.111-.018.24.155.237a3.814,3.814,0,0,0,1.331-.074c.212-.088.041-.625.067-.959a1.416,1.416,0,0,0,0-.291c-.031-.242.064-.36.293-.472a2.086,2.086,0,0,0,1.255-1.923,2.116,2.116,0,0,0-1.192-2.014c-.483-.261-.979-.5-1.468-.745a.646.646,0,0,1-.4-.83.716.716,0,0,1,.862-.458.669.669,0,0,1,.652.655c.038.3-.159.7.1.86.224.138.6.034.9.036.113,0,.227,0,.34,0,.132.005.205-.029.213-.185.045-.9.045-1.89-.81-2.343-.816-.434-.766-1.019-.746-1.7,0-.081,0-.162,0-.243.009-.148-.064-.2-.2-.192-.434.013-.939-.11-1.276.077-.237.131-.049.688-.075,1.053a1.033,1.033,0,0,0,0,.195c.034.241-.062.357-.291.471a2.093,2.093,0,0,0-1.256,1.971,2.131,2.131,0,0,0,1.233,1.99c.443.232.893.451,1.342.673.368.181.628.438.484.878s-.512.511-.909.453a.663.663,0,0,1-.6-.747c0-.178-.013-.357,0-.534.022-.223-.081-.305-.279-.261-.421.1-1.08-.278-1.24.195a2.163,2.163,0,0,0,.955,2.5c.5.273.655.589.561,1.011" transform="translate(-254.339 -7.324)" fill="#f4d57e"/>
      <path id="Trazado_131252" data-name="Trazado 131252" d="M255.895,35.262a9.533,9.533,0,0,0,1.418,1.542c.172.14.133.317.134.487,0,1.506,0,3.011,0,4.517a1.568,1.568,0,0,0,1.745,1.738q3.69,0,7.38,0a1.578,1.578,0,0,0,1.754-1.78c0-1.489.006-2.978-.005-4.467a.711.711,0,0,1,.279-.621,9.134,9.134,0,0,0,1.257-1.385c.01.225.022.376.022.527q0,9.566,0,19.131a2.359,2.359,0,0,1-2.6,2.583q-4.419,0-8.838,0a2.348,2.348,0,0,1-2.553-2.527q0-9.637,0-19.276Zm1.554,15.23c0,1.279,0,2.559,0,3.837a1.547,1.547,0,0,0,1.638,1.649q3.787.01,7.576,0a1.551,1.551,0,0,0,1.662-1.675q.007-3.763,0-7.526a1.551,1.551,0,0,0-1.664-1.674q-3.763-.007-7.527,0a1.564,1.564,0,0,0-1.687,1.7c0,1.229,0,2.46,0,3.689" transform="translate(-254.339 -10.908)" fill="#969ea8"/>
      <path id="Trazado_131253" data-name="Trazado 131253" d="M297.334,37.72c0-1.149.015-2.3-.008-3.447-.008-.373.117-.4.42-.3a1.565,1.565,0,0,1,1.14,1.563c.007,1.65.012,3.3-.005,4.951,0,.328.062.49.415.424a.813.813,0,0,1,.1,0c.335-.023.757.141.983-.065.209-.19.057-.61.061-.929a.558.558,0,0,1,.188-.419q2.459-2.451,4.9-4.912c.224-.227.3-.174.43.076a21.146,21.146,0,0,1,2.236,8.463c.014.253-.082.338-.3.4q-3.5.949-7.005,1.911a.478.478,0,0,1-.484-.1c-.562-.463-1.145-.9-1.7-1.372a3.8,3.8,0,0,1-1.373-2.983c-.008-1.084,0-2.168,0-3.252" transform="translate(-263.918 -10.599)" fill="#e9cfb5"/>
      <path id="Trazado_131254" data-name="Trazado 131254" d="M301.06,34.68c0-.714-.008-1.293,0-1.871a3.025,3.025,0,0,0-.922-2.319c-.215-.208-.17-.308.012-.49q3.818-3.8,7.628-7.616a1.964,1.964,0,1,1,2.771,2.785q-3.937,3.96-7.894,7.9c-.5.5-1,1.009-1.6,1.611" transform="translate(-264.536 -7.79)" fill="#ed8773"/>
      <path id="Trazado_131255" data-name="Trazado 131255" d="M306.549,55.907c-1.245,0-2.489-.012-3.734.008-.325,0-.441-.059-.436-.414.021-1.616.016-3.233,0-4.849,0-.274.071-.393.34-.464q3.225-.863,6.442-1.754c.253-.07.378-.1.434.252.357,2.264.743,4.524,1.137,6.781.066.377-.036.456-.4.45-1.261-.024-2.522-.009-3.782-.009" transform="translate(-265.087 -13.943)" fill="#bbd989"/>
      <path id="Trazado_131256" data-name="Trazado 131256" d="M288.8,35H288.3c-2.588,0-5.176-.006-7.764.008-.319,0-.406-.083-.4-.4.023-.792.019-1.585,0-2.378-.007-.279.082-.345.351-.344,2.7.01,5.4.005,8.1.008.155,0,.39-.082.3.245A6.55,6.55,0,0,0,288.8,35" transform="translate(-259.946 -10.126)" fill="#fbe9ae"/>
      <path id="Trazado_131257" data-name="Trazado 131257" d="M259.936,38.766a8.62,8.62,0,0,0,7.77,0v1.522c0,.71-.01,1.421.005,2.132.006.27-.027.4-.355.394C265,42.8,262.639,42.8,260.28,42.8c-.171,0-.351.051-.349-.244.012-1.241.005-2.482.005-3.792" transform="translate(-255.272 -11.718)" fill="#83d2ee"/>
      <path id="Trazado_131258" data-name="Trazado 131258" d="M289.085,38.021c-.963.962-1.914,1.908-2.859,2.86a.541.541,0,0,1-.421.182q-2.667-.009-5.335,0c-.253,0-.328-.067-.324-.322.015-.824.009-1.649,0-2.473,0-.2,0-.324.271-.324,2.845.011,5.691.007,8.536.01.038,0,.075.038.128.065" transform="translate(-259.946 -11.529)" fill="#fbe9ae"/>
      <path id="Trazado_131259" data-name="Trazado 131259" d="M293.8,40.339a16.248,16.248,0,0,0,.081,2.376.4.4,0,0,1-.141.384c-.69.683-1.378,1.368-2.056,2.063-.164.167-.266.166-.43,0q-1.173-1.2-2.369-2.369c-.175-.171-.142-.272.015-.428q2.17-2.155,4.328-4.324c.132-.134.3-.259.467-.2.222.074.1.308.1.464.016.631.007,1.262.007,2.036" transform="translate(-261.94 -11.501)" fill="#ed8773"/>
      <path id="Trazado_131260" data-name="Trazado 131260" d="M287.922,50.771c0,.758-.008,1.437,0,2.115,0,.221-.044.308-.289.308q-3.59-.014-7.18,0c-.273,0-.315-.1-.311-.335.013-.809.015-1.618,0-2.426-.005-.258.041-.367.335-.361.856.02,1.714.016,2.571,0a.359.359,0,0,1,.385.262,2.028,2.028,0,0,0,2.77,1.109c.555-.212,1.105-.434,1.714-.673" transform="translate(-259.946 -14.332)" fill="#fae8ae"/>
      <path id="Trazado_131261" data-name="Trazado 131261" d="M295.388,49.563c0,.84-.008,1.678.005,2.518,0,.246-.052.334-.317.329-.823-.018-1.646-.015-2.469,0-.239,0-.341-.04-.334-.311.018-.823,0-1.646.008-2.469,0-.105-.043-.232.085-.3a17.822,17.822,0,0,0,2.62-2.406c.1-.088.171-.294.33-.221s.067.261.068.4c.006.823,0,1.646,0,2.469" transform="translate(-262.75 -13.548)" fill="#fbe9ae"/>
      <path id="Trazado_131262" data-name="Trazado 131262" d="M272.6,7.271c0,1.369.015,2.8-.01,4.23a.688.688,0,0,1-.73.7c-1.416.018-2.833.007-4.2.007L272.6,7.271" transform="translate(-257.059 -4.436)" fill="#bbd989"/>
      <path id="Trazado_131263" data-name="Trazado 131263" d="M284.754,44.017c-.4,1.009-.793,1.96-1.164,2.918-.07.179-.179.192-.332.191-.937,0-1.875-.008-2.812,0-.232,0-.3-.065-.3-.3.013-.84.008-1.681,0-2.521,0-.178,0-.3.246-.3,1.432.01,2.865,0,4.358,0" transform="translate(-259.946 -12.931)" fill="#fae8ae"/>
      <path id="Trazado_131264" data-name="Trazado 131264" d="M298.316,29.972c-.268.257-.546.505-.8.773a1.741,1.741,0,0,1-1.37.718,1.442,1.442,0,0,0-1.314,1.439c-.015.306.019.617-.015.92a.771.771,0,0,1-1.518.1,3.323,3.323,0,0,1,2.293-3.955,8.817,8.817,0,0,1,2.728,0" transform="translate(-262.964 -9.659)" fill="#e9cfb5"/>
      <path id="Trazado_131265" data-name="Trazado 131265" d="M289.508,48.061c-.9.36-1.711.677-2.515,1a.521.521,0,0,1-.62-.119.5.5,0,0,1-.1-.58c.3-.747.607-1.492.894-2.245.091-.238.171-.221.327-.064.647.651,1.3,1.3,2.013,2" transform="translate(-261.351 -13.377)" fill="#a7aeb8"/>
      <path id="Trazado_131266" data-name="Trazado 131266" d="M298.347,48.954c.515.411.936.757,1.37,1.088a.452.452,0,0,1,.187.412c-.007.727-.012,1.453,0,2.18,0,.229-.061.293-.3.3-1.264.053-1.264.061-1.264-1.218Z" transform="translate(-264.154 -14.074)" fill="#fae8ae"/>
      <path id="Trazado_131267" data-name="Trazado 131267" d="M289.009,12.292c-3.48,0-6.96-.005-10.44.009-.358,0-.458-.077-.451-.445.025-1.279.021-2.557,0-3.836,0-.317.08-.4.4-.4q10.488.014,20.976,0c.313,0,.405.073.4.4-.019,1.278-.023,2.557,0,3.835.007.364-.085.451-.448.448-3.48-.015-6.959-.009-10.439-.009m.005-1.554h8.3c1.023,0,.995,0,1.036-1.026.018-.467-.145-.538-.564-.537q-8.49.02-16.98.009c-1.129,0-1.109,0-1.131,1.122-.008.385.121.441.464.439,2.959-.013,5.919-.008,8.878-.008" transform="translate(-259.477 -4.518)"/>
      <path id="Trazado_131268" data-name="Trazado 131268" d="M289.056,15.714c3.463,0,6.927.007,10.39-.008.361,0,.457.081.45.447-.021,1.116,0,1.116-1.13,1.116q-10.076,0-20.15.01c-.4,0-.51-.089-.5-.5.031-1.067.009-1.069,1.082-1.069Z" transform="translate(-259.477 -6.387)"/>
      <path id="Trazado_131269" data-name="Trazado 131269" d="M289.058,19.757c3.463,0,6.927.006,10.39-.009.365,0,.454.087.447.449-.021,1.114,0,1.114-1.132,1.114q-10.075,0-20.15.011c-.405,0-.508-.1-.5-.5.03-1.065.009-1.066,1.084-1.066Z" transform="translate(-259.477 -7.321)"/>
      <path id="Trazado_131270" data-name="Trazado 131270" d="M284.355,23.8c1.91,0,3.819.015,5.728-.012.421-.006.5.12.487.508-.027,1.057-.008,1.057-1.042,1.057-3.641,0-7.282-.008-10.922.012-.421,0-.5-.119-.488-.507.028-1.057.008-1.058,1.042-1.058Z" transform="translate(-259.477 -8.255)"/>
      <path id="Trazado_131271" data-name="Trazado 131271" d="M263.495,31.693c.094-.422-.061-.738-.561-1.011a2.163,2.163,0,0,1-.955-2.5c.16-.472.819-.1,1.24-.195.2-.045.3.038.279.261-.016.177,0,.356,0,.534a.663.663,0,0,0,.6.747c.4.058.768-.019.909-.453s-.116-.7-.484-.878c-.448-.221-.9-.441-1.342-.673a2.131,2.131,0,0,1-1.233-1.99,2.093,2.093,0,0,1,1.256-1.971c.229-.114.325-.231.291-.471a1.033,1.033,0,0,1,0-.195c.026-.365-.161-.923.075-1.053.337-.187.843-.064,1.276-.077.139,0,.212.045.2.192,0,.081,0,.162,0,.243-.02.681-.069,1.267.746,1.7.855.453.856,1.445.81,2.343-.008.155-.081.19-.213.185-.113-.005-.227,0-.34,0-.307,0-.681.1-.9-.036-.258-.16-.06-.564-.1-.86a.669.669,0,0,0-.652-.655.716.716,0,0,0-.862.458.646.646,0,0,0,.4.83c.489.248.985.484,1.468.745a2.116,2.116,0,0,1,1.192,2.014,2.086,2.086,0,0,1-1.255,1.923c-.229.112-.324.23-.293.472a1.416,1.416,0,0,1,0,.291c-.026.334.145.87-.067.959a3.815,3.815,0,0,1-1.331.074c-.173,0-.155-.126-.155-.237,0-.211,0-.421,0-.72" transform="translate(-255.723 -7.783)" fill="#030201"/>
      <path id="Trazado_131272" data-name="Trazado 131272" d="M257.916,53.451c0-1.23,0-2.46,0-3.69a1.565,1.565,0,0,1,1.687-1.7q3.763-.006,7.526,0a1.551,1.551,0,0,1,1.664,1.674q.007,3.763,0,7.526a1.552,1.552,0,0,1-1.662,1.675q-3.788.007-7.576,0a1.546,1.546,0,0,1-1.638-1.649c-.006-1.279,0-2.558,0-3.836m7.771,1.574v1.209c0,1.175,0,1.163,1.184,1.158.3,0,.383-.073.378-.375-.019-1.032-.008-2.064-.008-3.1,0-1.248,0-1.239-1.232-1.2-.251.007-.334.068-.328.325.018.661.006,1.323.006,1.984m-5.424-5.411c-.793,0-.793,0-.793.809,0,.745,0,.745.761.745.793,0,.793,0,.793-.81,0-.744,0-.744-.761-.744m3.869.818c0-.818,0-.818-.832-.818-.722,0-.722,0-.722.735,0,.819,0,.819.832.819.722,0,.722,0,.722-.736m3.108-.035c0-.783,0-.783-.529-.783-1.025,0-1.025,0-1.025.577,0,.976,0,.976.625.976.929,0,.929,0,.929-.77m-7.771,3.06c0,.819,0,.819.833.819.722,0,.722,0,.722-.736,0-.818,0-.818-.832-.818-.723,0-.723,0-.723.735m4.663.062c0-.8,0-.8-.806-.8-.748,0-.748,0-.748.757,0,.8,0,.8.8.8.749,0,.749,0,.749-.757m-3.839,2.311c-.824,0-.824,0-.824.827,0,.727,0,.727.73.727.824,0,.824,0,.824-.827,0-.727,0-.727-.73-.727m3.839.781c0-.781,0-.781-.773-.781s-.78,0-.78.773,0,.781.773.781.781,0,.781-.773" transform="translate(-254.806 -13.867)"/>
      <path id="Trazado_131273" data-name="Trazado 131273" d="M289.481,11.2c-2.959,0-5.919-.005-8.878.008-.343,0-.472-.054-.464-.439.022-1.122,0-1.122,1.131-1.122q8.49,0,16.98-.009c.418,0,.582.07.563.537-.041,1.025-.012,1.026-1.036,1.026Z" transform="translate(-259.944 -4.985)" fill="#ee8774"/>
      <path id="Trazado_131274" data-name="Trazado 131274" d="M268.022,56.423c0-.661.012-1.323-.005-1.983-.007-.258.076-.319.327-.326,1.233-.035,1.232-.043,1.232,1.2,0,1.032-.012,2.065.008,3.1.006.3-.081.374-.377.375-1.184.005-1.184.017-1.184-1.157v-1.21" transform="translate(-257.142 -15.264)" fill="#ee8774"/>
      <path id="Trazado_131275" data-name="Trazado 131275" d="M260.731,50.082c.761,0,.761,0,.761.745,0,.809,0,.809-.793.809-.76,0-.76,0-.76-.744,0-.81,0-.81.793-.81" transform="translate(-255.274 -14.335)" fill="#ee8774"/>
      <path id="Trazado_131276" data-name="Trazado 131276" d="M265.535,50.9c0,.736,0,.736-.722.736-.832,0-.832,0-.832-.819,0-.735,0-.735.722-.735.832,0,.832,0,.832.818" transform="translate(-256.209 -14.335)" fill="#ee8774"/>
      <path id="Trazado_131277" data-name="Trazado 131277" d="M269.578,50.866c0,.77,0,.77-.929.77-.626,0-.626,0-.625-.977,0-.578,0-.578,1.025-.577.529,0,.529,0,.529.784" transform="translate(-257.143 -14.335)" fill="#ee8774"/>
      <path id="Trazado_131278" data-name="Trazado 131278" d="M259.938,54.861c0-.736,0-.736.721-.736.832,0,.832,0,.832.819,0,.735,0,.735-.722.735-.831,0-.831,0-.831-.818" transform="translate(-255.274 -15.269)" fill="#ee8774"/>
      <path id="Trazado_131279" data-name="Trazado 131279" d="M265.535,54.921c0,.757,0,.757-.749.757-.8,0-.8,0-.8-.8,0-.757,0-.757.748-.757.806,0,.806,0,.806.8" transform="translate(-256.209 -15.269)" fill="#ee8774"/>
      <path id="Trazado_131280" data-name="Trazado 131280" d="M260.761,58.168c.73,0,.73,0,.73.727,0,.826,0,.826-.824.826-.73,0-.73,0-.73-.727,0-.826,0-.826.824-.826" transform="translate(-255.274 -16.204)" fill="#ee8774"/>
      <path id="Trazado_131281" data-name="Trazado 131281" d="M265.535,58.949c0,.773,0,.773-.781.773s-.773,0-.773-.781,0-.773.78-.773.773,0,.773.781" transform="translate(-256.209 -16.204)" fill="#ee8774"/>
    </g>
  </g>
</svg>
