<svg xmlns="http://www.w3.org/2000/svg" xmlns:xlink="http://www.w3.org/1999/xlink" width="81.311" height="81.311" viewBox="0 0 81.311 81.311">
  <defs>
    <clipPath id="clip-path">
      <rect id="Rect치ngulo_36627" data-name="Rect치ngulo 36627" width="81.311" height="81.311" fill="#fff" stroke="#707070" stroke-width="1"/>
    </clipPath>
    <clipPath id="clip-path-2">
      <rect id="Rect치ngulo_36876" data-name="Rect치ngulo 36876" width="66.198" height="66.181" fill="none"/>
    </clipPath>
  </defs>
  <g id="Grupo_85840" data-name="Grupo 85840" clip-path="url(#clip-path)">
    <g id="Grupo_86498" data-name="Grupo 86498" transform="translate(7.556 7.564)">
      <g id="Grupo_86489" data-name="Grupo 86489" transform="translate(0 0.001)" clip-path="url(#clip-path-2)">
        <path id="Trazado_130062" data-name="Trazado 130062" d="M43.722,55.159c.608,1.218,1.224,2.322,1.714,3.479a1.319,1.319,0,0,0,1.534.95,25,25,0,0,1,2.713-.014,3.3,3.3,0,0,1-.006,6.6c-3.943.02-7.886.007-11.829.007q-10.569,0-21.138,0a3.3,3.3,0,0,1-3.109-4.8,3.135,3.135,0,0,1,2.854-1.8c1.12-.024,2.241-.011,3.361-.005.267,0,.477,0,.623-.307.625-1.3,1.28-2.578,1.92-3.866a.818.818,0,0,0,.018-.239H3.828A3.475,3.475,0,0,1,0,51.311q0-23.749,0-47.5A3.449,3.449,0,0,1,3.785,0H62.416A3.443,3.443,0,0,1,66.2,3.753q0,23.813,0,47.627a3.458,3.458,0,0,1-3.767,3.779q-8.953,0-17.906,0h-.8M48.347,61.8c-.194-.009-.387-.027-.58-.027q-15.447,0-30.893,0a2.821,2.821,0,0,0-.452.011,1.011,1.011,0,0,0-.938.985.982.982,0,0,0,.751,1.128,3.148,3.148,0,0,0,.829.073q15.285.005,30.57,0c.236,0,.473-.018.709-.028.448.008.9.051,1.344.016a1.031,1.031,0,0,0,1.02-1.157,1.013,1.013,0,0,0-1.079-1.023c-.426-.014-.854.013-1.281.021m13.424-13.26c-.258-.011-.515-.032-.773-.032q-7.527,0-15.054,0h-34.5c-1.065,0-1.318-.184-1.519-1.086.192-.895.5-1.111,1.581-1.111l49.4,0c.3,0,.6-.023.9-.034.452.01.9.026,1.354.028.837,0,.837,0,.837-.816,0-13.671-.019-27.342.019-41.013.006-2.271-.626-2.384-2.483-2.242-.214-.01-.429-.028-.644-.028q-28.558,0-57.116,0C2.632,2.2,2.2,2.625,2.2,3.754q0,6.911,0,13.822,0,14.049-.01,28.1c0,.487.094.675.626.653,1.075-.045,2.153-.014,3.23-.013,1.176,0,1.315.092,1.71,1.123-.285.9-.553,1.106-1.482,1.114-1.163.01-2.326.019-3.489-.006-.435-.009-.618.1-.594.57.036.687.009,1.378.009,2.066,0,1.422.365,1.78,1.811,1.78q28.364,0,56.728,0c.257,0,.514-.028.771-.042a3.364,3.364,0,0,0,1.276.047,1.21,1.21,0,0,0,1.2-1.195c.032-.963.005-1.929.013-2.893,0-.267-.1-.4-.375-.388a12.8,12.8,0,0,0-1.859.056m-18.339,11c-.717-1.431-1.392-2.774-2.059-4.119-.119-.24-.317-.254-.541-.254q-7.721,0-15.442,0c-.217,0-.432-.012-.554.231-.678,1.36-1.361,2.719-2.074,4.142Z" transform="translate(0 0)" fill="#010102"/>
        <path id="Trazado_130063" data-name="Trazado 130063" d="M68.077,52.576c-.3.012-.6.034-.9.034q-24.7,0-49.4,0c-1.086,0-1.39.216-1.582,1.111l-2.165.012c-.4-1.031-.534-1.123-1.71-1.123-1.077,0-2.155-.031-3.23.013-.532.022-.626-.166-.625-.653q.021-14.049.01-28.1,0-6.911,0-13.822c0-1.129.428-1.55,1.567-1.55q28.558,0,57.116,0c.215,0,.429.018.644.028a6.4,6.4,0,0,1,.269,2.477q0,20.783,0,41.567M32.7,50.407q6.529,0,13.058,0a4.337,4.337,0,0,0,4.613-4.019c.034-.245.081-.365.366-.41,2.453-.385,3.578-1.516,4.048-4.053.042-.228.107-.331.355-.346A4.39,4.39,0,0,0,59.2,37.589c.018-.277.111-.379.415-.428a4.421,4.421,0,0,0,4.04-4.757q0-8.433,0-16.867A4.468,4.468,0,0,0,58.826,10.7q-9.858,0-19.717,0c-2.112,0-4.224-.016-6.335,0A4.358,4.358,0,0,0,28.405,14.5c-.052.506-.242.613-.681.684a4.079,4.079,0,0,0-3.6,3.228,1.44,1.44,0,0,1-1.31,1.311,4.116,4.116,0,0,0-3.251,3.664c-.04.254.019.528-.41.6-2.731.458-4.06,2.063-4.061,4.845,0,5.579.046,11.159-.019,16.737A4.625,4.625,0,0,0,19.9,50.431c4.265-.092,8.532-.024,12.8-.025" transform="translate(-6.274 -6.3)" fill="#47a7ec"/>
        <path id="Trazado_130064" data-name="Trazado 130064" d="M14.028,183.087l2.165-.012c.2.9.454,1.086,1.519,1.086h34.5q7.527,0,15.054,0c.257,0,.515.021.773.032-.025,1.461.276,2.942-.259,4.373-.257.015-.514.042-.771.042q-28.364,0-56.728,0c-1.445,0-1.81-.359-1.811-1.78,0-.689.027-1.379-.009-2.066-.025-.469.158-.58.594-.57,1.162.025,2.326.016,3.489.006.929-.008,1.2-.219,1.482-1.114" transform="translate(-6.27 -135.652)" fill="#4154ae"/>
        <path id="Trazado_130065" data-name="Trazado 130065" d="M237.811,52.544q0-20.783,0-41.567a6.4,6.4,0,0,0-.269-2.477c1.856-.142,2.489-.029,2.483,2.242C239.983,24.414,240,38.085,240,51.757c0,.817,0,.82-.837.816-.452,0-.9-.018-1.355-.028" transform="translate(-176.008 -6.269)" fill="#3176b5"/>
        <path id="Trazado_130066" data-name="Trazado 130066" d="M108.546,217.36H87.877c.713-1.423,1.4-2.781,2.074-4.142.121-.243.336-.231.554-.231q7.721,0,15.442,0c.224,0,.421.014.541.254.668,1.346,1.343,2.688,2.059,4.119" transform="translate(-65.114 -157.815)" fill="#29378b"/>
        <path id="Trazado_130067" data-name="Trazado 130067" d="M92.622,240.639c-.236.01-.473.028-.709.028q-15.285,0-30.57,0a3.161,3.161,0,0,1-.829-.073.982.982,0,0,1-.751-1.129,1.011,1.011,0,0,1,.938-.985,2.822,2.822,0,0,1,.452-.011q15.447,0,30.893,0c.193,0,.386.018.58.027a3.954,3.954,0,0,1,0,2.142" transform="translate(-44.278 -176.694)" fill="#4154ae"/>
        <path id="Trazado_130068" data-name="Trazado 130068" d="M237.468,191.59c.535-1.431.233-2.912.259-4.373a12.757,12.757,0,0,1,1.859-.055c.277-.013.377.12.375.388-.008.964.019,1.93-.013,2.893a1.21,1.21,0,0,1-1.2,1.195,3.365,3.365,0,0,1-1.276-.047" transform="translate(-175.955 -138.675)" fill="#263273"/>
        <path id="Trazado_130069" data-name="Trazado 130069" d="M186.629,240.657a3.954,3.954,0,0,0,0-2.142c.427-.009.855-.036,1.281-.021a1.013,1.013,0,0,1,1.079,1.023,1.031,1.031,0,0,1-1.02,1.156c-.445.035-.9-.008-1.344-.016" transform="translate(-138.285 -176.712)" fill="#29378b"/>
        <path id="Trazado_130070" data-name="Trazado 130070" d="M51.583,56.688c-4.267,0-8.535-.067-12.8.025a4.624,4.624,0,0,1-4.832-4.859c.064-5.578.018-11.158.019-16.737,0-2.783,1.33-4.387,4.061-4.845.428-.072.37-.346.41-.6a4.116,4.116,0,0,1,3.251-3.664A1.441,1.441,0,0,0,43,24.7a4.078,4.078,0,0,1,3.6-3.228c.44-.071.63-.178.681-.684a4.359,4.359,0,0,1,4.37-3.794c2.111-.021,4.223-.005,6.335-.005q9.858,0,19.717,0a4.468,4.468,0,0,1,4.831,4.832q0,8.434,0,16.867a4.421,4.421,0,0,1-4.04,4.757c-.3.049-.4.151-.415.428a4.39,4.39,0,0,1-4.061,3.989c-.249.015-.313.117-.356.346-.47,2.537-1.595,3.668-4.048,4.053-.285.045-.332.165-.366.409a4.337,4.337,0,0,1-4.613,4.019q-6.529.011-13.058,0M68.6,50.046c.3.007.6.037.9.015a2.2,2.2,0,0,0,1.947-1.708c.064-.34.017-.516-.4-.49-.6.038-1.2.021-1.805.028-.237-.007-.473-.019-.71-.019q-10.5,0-21.005,0a4.4,4.4,0,0,1-4.71-4.662c-.01-1.572.01-3.144-.008-4.716-.006-.531.243-1.235-.114-1.543-.3-.26-.989-.049-1.5-.1-.488-.049-.611.115-.608.6.023,3.338.01,6.676.013,10.015,0,1.786.823,2.61,2.6,2.61q12.377,0,24.754,0c.215,0,.429-.018.644-.028m9.569-24.28c.538.01,1.078,0,1.613.037.472.037.581-.162.571-.6-.025-1.1-.008-2.2-.008-3.295,0-1.981-.986-2.873-2.965-2.687a1.278,1.278,0,0,0-.191-.028q-12.761,0-25.522,0a2.158,2.158,0,0,0-2.215,2.273c-.013,1.163-.009,2.325,0,3.488.005.943-.117.841.809.841q13.569,0,27.138,0c.257,0,.515-.022.772-.034m-.144,2.286c-.106-.011-.213-.03-.32-.03q-13.859,0-27.718-.013c-.481,0-.553.168-.551.592.016,3.359.008,6.718.009,10.076,0,1.776.822,2.588,2.616,2.588q12.34,0,24.681,0c.215,0,.429-.016.644-.025,1.791.133,2.919-.645,2.938-2.169.044-3.544.013-7.09.021-10.636,0-.292-.07-.439-.393-.426-.642.027-1.285.03-1.928.043m-26.4,26.431q6.527,0,13.055,0a2.2,2.2,0,0,0,2.25-1.393c.276-.7.208-.811-.529-.811q-11.666,0-23.331,0a4.406,4.406,0,0,1-4.675-4.641c-.012-1.572.006-3.144-.007-4.716,0-.531.233-1.223-.1-1.551s-1.026-.046-1.555-.108c-.47-.054-.564.138-.562.577.018,3.359.008,6.719.011,10.078a2.255,2.255,0,0,0,2.579,2.567q6.431,0,12.861,0m8.8-8.813q6.557,0,13.114,0a2.182,2.182,0,0,0,2.2-1.377c.317-.737.252-.826-.55-.826q-11.629,0-23.257,0a4.406,4.406,0,0,1-4.69-4.683c-.007-1.593,0-3.186,0-4.779,0-1.568,0-1.549-1.573-1.573-.49-.007-.652.1-.648.627.026,3.358.011,6.716.014,10.074a2.233,2.233,0,0,0,2.535,2.535q6.428,0,12.856,0M42.828,31.323c0-.9-.036-1.81.013-2.712.033-.612-.237-.634-.69-.5A2.258,2.258,0,0,0,40.59,30.33c-.019.882,0,1.765,0,2.648,0,1.73,0,1.712,1.723,1.693.454,0,.537-.174.527-.571-.023-.925-.007-1.851-.007-2.777m4.414-4.428c0-.945-.01-1.889.005-2.833.006-.367-.077-.492-.481-.4a2.112,2.112,0,0,0-1.715,1.985c-.032,1.008-.013,2.018-.014,3.026,0,1.664,0,1.652,1.695,1.589.394-.015.524-.148.515-.533-.019-.944-.006-1.889-.006-2.833m-8.868,8.822c0-.9-.024-1.809.009-2.711.021-.565-.229-.607-.667-.463a2.255,2.255,0,0,0-1.543,2.228c-.014.882,0,1.765,0,2.647,0,1.707,0,1.694,1.693,1.656.391-.009.527-.121.518-.517-.023-.947-.007-1.894-.007-2.841" transform="translate(-25.157 -12.581)" fill="#020202"/>
        <path id="Trazado_130071" data-name="Trazado 130071" d="M121.666,72.786c-.215.009-.429.025-.644.025q-12.34,0-24.681,0c-1.793,0-2.615-.812-2.616-2.588,0-3.359.006-6.717-.009-10.076,0-.424.07-.593.551-.592q13.859.023,27.717.013c.107,0,.213.02.32.03.01,3.287.009,6.575.036,9.862a5.2,5.2,0,0,1-.674,3.326M108.071,63.94h0c0,.409-.022.82.005,1.227a1.032,1.032,0,0,0,.992,1.01,1.015,1.015,0,0,0,1.136-.837,9.345,9.345,0,0,0,.007-2.7,1,1,0,0,0-1.188-.837,1.01,1.01,0,0,0-.951,1.038c-.02.365,0,.732,0,1.1m2.194,5.523a1.1,1.1,0,0,0-1.155-1.053,1.058,1.058,0,0,0-1.035,1.152,1.1,1.1,0,0,0,1.1,1.041,1.143,1.143,0,0,0,1.088-1.14" transform="translate(-69.44 -44.128)" fill="#f4f4f4"/>
        <path id="Trazado_130072" data-name="Trazado 130072" d="M122.465,32.091c-.257.012-.515.034-.772.034q-13.569,0-27.138,0c-.927,0-.8.1-.809-.841-.007-1.163-.012-2.325,0-3.488a2.159,2.159,0,0,1,2.215-2.273q12.761-.02,25.523,0a1.28,1.28,0,0,1,.191.028c.074.126.154.249.221.379a3.579,3.579,0,0,1,.467,2.536,1.238,1.238,0,0,0-1.238-.749c-1.352,0-2.7-.008-4.057.005a1.152,1.152,0,0,0-1.278,1.081c-.018.66.491,1.113,1.287,1.119,1.331.009,2.662-.013,3.992.01a1.3,1.3,0,0,0,1.283-.678,15.166,15.166,0,0,1,.112,2.839m-24.32-3.27a1.14,1.14,0,0,0-1.13-1.1,1.106,1.106,0,0,0-1.062,1.148,1.055,1.055,0,0,0,1.083,1.043,1.087,1.087,0,0,0,1.11-1.1m8.812-.016a1.12,1.12,0,0,0-1.136-1.08,1.139,1.139,0,0,0-1.058,1.1,1.081,1.081,0,0,0,1.112,1.09,1.066,1.066,0,0,0,1.083-1.112m-5.532-1.08a1.127,1.127,0,0,0-1.066,1.152,1.1,1.1,0,0,0,2.195-.057,1.135,1.135,0,0,0-1.128-1.1" transform="translate(-69.457 -18.906)" fill="#e0503f"/>
        <path id="Trazado_130073" data-name="Trazado 130073" d="M57.962,123.775q-6.431,0-12.861,0a2.255,2.255,0,0,1-2.579-2.567c0-3.359.007-6.719-.011-10.079,0-.439.092-.632.562-.577.529.061,1.224-.222,1.555.107s.092,1.02.1,1.552c.014,1.572-.005,3.144.007,4.716a4.406,4.406,0,0,0,4.675,4.641q11.665.007,23.331,0c.736,0,.805.106.529.811a2.2,2.2,0,0,1-2.25,1.393q-6.528.005-13.055,0" transform="translate(-31.499 -81.874)" fill="#ccd4d7"/>
        <path id="Trazado_130074" data-name="Trazado 130074" d="M92.059,89.872q-6.428,0-12.856,0a2.233,2.233,0,0,1-2.535-2.535c0-3.358.012-6.717-.014-10.075,0-.525.158-.634.648-.627,1.573.023,1.573,0,1.573,1.573,0,1.593-.005,3.186,0,4.779a4.406,4.406,0,0,0,4.69,4.683q11.629,0,23.257,0c.8,0,.868.089.55.826a2.183,2.183,0,0,1-2.2,1.377q-6.557,0-13.114,0" transform="translate(-56.798 -56.783)" fill="#ced6d9"/>
        <path id="Trazado_130075" data-name="Trazado 130075" d="M87.574,106.786c-.215.01-.43.027-.644.027q-12.377,0-24.754,0c-1.776,0-2.6-.824-2.6-2.61,0-3.338.01-6.676-.013-10.015,0-.486.12-.651.608-.6.511.052,1.2-.16,1.5.1.357.307.108,1.012.114,1.543.018,1.572,0,3.144.008,4.717a4.4,4.4,0,0,0,4.71,4.662q10.5,0,21,0c.237,0,.473.013.71.019a3.568,3.568,0,0,1-.646,2.155" transform="translate(-44.135 -69.321)" fill="#f0f0f0"/>
        <path id="Trazado_130076" data-name="Trazado 130076" d="M201.617,72.783a5.2,5.2,0,0,0,.674-3.326c-.027-3.287-.026-6.574-.036-9.862.643-.013,1.286-.016,1.928-.043.323-.013.393.134.393.426-.008,3.545.022,7.091-.022,10.636-.019,1.524-1.146,2.3-2.938,2.169" transform="translate(-149.391 -44.126)" fill="#c4cacc"/>
        <path id="Trazado_130077" data-name="Trazado 130077" d="M61.788,62.976c0,.926-.016,1.852.007,2.777.01.4-.073.567-.527.571-1.723.019-1.723.037-1.723-1.693,0-.883-.015-1.766,0-2.648a2.258,2.258,0,0,1,1.56-2.216c.453-.137.723-.114.69.5-.048.9-.012,1.808-.012,2.712" transform="translate(-44.117 -44.235)" fill="#d54c3c"/>
        <path id="Trazado_130078" data-name="Trazado 130078" d="M202.379,32.117a15.188,15.188,0,0,0-.112-2.839l.011-.788a3.579,3.579,0,0,0-.467-2.536c-.068-.129-.147-.253-.221-.379,1.979-.187,2.963.705,2.965,2.686,0,1.1-.017,2.2.009,3.295.01.434-.1.634-.571.6-.535-.042-1.075-.027-1.613-.037" transform="translate(-149.371 -18.933)" fill="#b33028"/>
        <path id="Trazado_130079" data-name="Trazado 130079" d="M78.942,45.922c0,.944-.013,1.889.006,2.833.008.385-.121.519-.515.533-1.7.063-1.7.075-1.695-1.589,0-1.009-.018-2.018.014-3.026a2.113,2.113,0,0,1,1.715-1.985c.4-.091.486.034.481.4-.015.944-.005,1.889-.005,2.833" transform="translate(-56.857 -31.608)" fill="#b33028"/>
        <path id="Trazado_130080" data-name="Trazado 130080" d="M44.711,80.033c0,.947-.015,1.895.007,2.841.01.4-.127.508-.518.517-1.694.038-1.693.05-1.693-1.656,0-.882-.011-1.765,0-2.647a2.255,2.255,0,0,1,1.543-2.229c.438-.144.688-.1.667.463-.033.9-.009,1.808-.009,2.711" transform="translate(-31.493 -56.898)" fill="#b33028"/>
        <path id="Trazado_130081" data-name="Trazado 130081" d="M167.7,138.38a3.568,3.568,0,0,0,.646-2.155c.6-.007,1.205.01,1.805-.028.413-.026.461.15.4.49A2.2,2.2,0,0,1,168.6,138.4c-.3.021-.6-.009-.9-.016" transform="translate(-124.256 -100.916)" fill="#ccd4d7"/>
        <path id="Trazado_130082" data-name="Trazado 130082" d="M149.117,70.339c0-.366-.016-.733,0-1.1a1.01,1.01,0,0,1,.951-1.038,1,1,0,0,1,1.188.837,9.335,9.335,0,0,1-.007,2.7,1.015,1.015,0,0,1-1.136.837,1.032,1.032,0,0,1-.992-1.01c-.027-.407,0-.818,0-1.227h0" transform="translate(-110.486 -50.526)" fill="#020202"/>
        <path id="Trazado_130083" data-name="Trazado 130083" d="M151.333,94.792a1.143,1.143,0,0,1-1.088,1.14,1.1,1.1,0,0,1-1.1-1.041,1.058,1.058,0,0,1,1.035-1.152,1.1,1.1,0,0,1,1.155,1.053" transform="translate(-110.508 -69.456)" fill="#020202"/>
        <path id="Trazado_130084" data-name="Trazado 130084" d="M185.444,34.752q-.005.394-.011.787a1.3,1.3,0,0,1-1.283.678c-1.33-.023-2.661,0-3.992-.01-.8-.005-1.3-.459-1.287-1.119a1.152,1.152,0,0,1,1.278-1.081c1.352-.013,2.7,0,4.057-.005a1.239,1.239,0,0,1,1.238.749" transform="translate(-132.536 -25.194)" fill="#020202"/>
        <path id="Trazado_130085" data-name="Trazado 130085" d="M104.476,35.137a1.087,1.087,0,0,1-1.11,1.1,1.055,1.055,0,0,1-1.083-1.043,1.107,1.107,0,0,1,1.063-1.148,1.14,1.14,0,0,1,1.13,1.1" transform="translate(-75.788 -25.223)" fill="#020202"/>
        <path id="Trazado_130086" data-name="Trazado 130086" d="M138.491,35.118a1.066,1.066,0,0,1-1.083,1.112,1.081,1.081,0,0,1-1.112-1.09,1.139,1.139,0,0,1,1.058-1.1,1.12,1.12,0,0,1,1.136,1.079" transform="translate(-100.991 -25.221)" fill="#020202"/>
        <path id="Trazado_130087" data-name="Trazado 130087" d="M120.359,34.039a1.135,1.135,0,0,1,1.128,1.1,1.1,1.1,0,0,1-2.195.057,1.127,1.127,0,0,1,1.066-1.152" transform="translate(-88.391 -25.221)" fill="#020202"/>
      </g>
    </g>
  </g>
</svg>
