<svg xmlns="http://www.w3.org/2000/svg" width="97.708" height="97.708" viewBox="0 0 97.708 97.708">
  <g id="Grupo_86790" data-name="Grupo 86790" transform="translate(-0.278 -0.277)">
    <circle id="Elipse_5411" data-name="Elipse 5411" cx="48.854" cy="48.854" r="48.854" transform="translate(0.278 0.277)" fill="#2ff980"/>
    <g id="Grupo_86811" data-name="Grupo 86811" transform="translate(-279.184 853.934)">
      <path id="Trazado_131601" data-name="Trazado 131601" d="M358.8,320.91c-.222.935-.831,1.231-1.764,1.229q-15.137-.029-30.275-.014a3.007,3.007,0,0,1-3.277-3.234q-.005-24.518,0-49.037a3.011,3.011,0,0,1,3.175-3.259c2.029-.028,4.06-.016,6.089,0,1.026.007,1.352.289,1.6,1.29a1.386,1.386,0,0,1-1.6,1.306q-2.788,0-5.576,0c-1.106,0-1.116.011-1.116,1.086,0,4.087.032,8.175-.026,12.26-.013.9.262,1.058,1.093,1.057q28.864-.035,57.729-.02c.313,0,.627-.023.941-.036,1.515.011,3.031.013,4.546.04.425.007.611-.11.61-.575q-.02-6.562,0-13.125c0-.521-.233-.738-.719-.728-1.485.029-2.972-.083-4.456.061-.37-.019-.739-.054-1.109-.054q-22.265,0-44.529,0c-1.31,0-1.49-.126-1.893-1.277.35-1.058.657-1.288,1.8-1.289q7.079-.006,14.159,0c11.871,0,23.742.031,35.613-.026a3.375,3.375,0,0,1,3.738,3.706c-.083,7.547-.031,15.1-.031,22.645v1.021c.475-.127.9-.258,1.329-.352a1.93,1.93,0,0,1,2.354,2.157.635.635,0,0,0,.427.826,23.9,23.9,0,0,1,13.49,18.346c1.829,10.845-5.18,22.589-15.588,26.113a2.34,2.34,0,0,1-3.092-1.5q-.87-2.594-1.645-5.218c-.441-1.488.123-2.526,1.647-3.194a13.619,13.619,0,0,0,8.338-10.445,13.776,13.776,0,0,0-7.2-14.57c-.394-.2-.643-.279-.856.2a2.34,2.34,0,0,1-.44.514c-1.544.622-2.365.31-3.115-1.178q-1.684-3.341-3.373-6.679a2.62,2.62,0,0,1,0-2.039,2.948,2.948,0,0,1,1.615-1.036c1.012-.286,2.01-.62,3.016-.925.315-.1.538-.186.535-.612-.023-2.564-.017-5.128-.006-7.692,0-.366-.116-.5-.489-.5-1.564.034-3.129.047-4.694.067a3.775,3.775,0,0,0-.423-.046q-29.3,0-58.6-.018c-.677,0-.7.279-.7.807q.02,11.535.01,23.071c0,1.457.018,2.914.027,4.372-.009,1.343-.022,2.686-.027,4.03,0,1.117,0,1.118,1.147,1.118q14.89,0,29.78,0c1.221,0,1.516.225,1.812,1.358m33.516-23.82c-1.146.342-2.291.691-3.439,1.024-.367.106-.435.27-.26.616.76,1.5,1.5,3.012,2.246,4.523.136.278.24.429.541.138a1.647,1.647,0,0,1,1.906-.259,16.37,16.37,0,0,1,9.9,18.577,16.156,16.156,0,0,1-9.305,11.574c-.481.226-.63.406-.439.946.437,1.236.807,2.5,1.172,3.756.125.43.291.546.722.359a19.754,19.754,0,0,0,5.53-3.364,1.214,1.214,0,0,0,.219-.122,21.135,21.135,0,0,0,7.64-15.354,21.432,21.432,0,0,0-12.945-20.938c-.936-.413-1.644-.908-1.647-2.1l-1.845.624" transform="translate(-39.137 -1105.175)" fill="#030303"/>
      <path id="Trazado_131602" data-name="Trazado 131602" d="M341.553,269.583c.4,1.152.583,1.277,1.893,1.278q22.265,0,44.53,0c.37,0,.739.035,1.109.054q.011,7.163.021,14.327c-.314.013-.627.036-.94.036q-28.866,0-57.73.02c-.831,0-1.105-.153-1.093-1.057.058-4.086.024-8.174.026-12.261,0-1.075.01-1.085,1.116-1.086q2.788-.005,5.576,0a1.387,1.387,0,0,0,1.6-1.306l3.9,0m2.394,5.958a2.541,2.541,0,0,0-2.519,2.505,2.523,2.523,0,0,0,5.046-.006,2.542,2.542,0,0,0-2.527-2.5m-10.128,2.536a2.5,2.5,0,1,0,4.993-.059,2.5,2.5,0,0,0-4.993.059m15.277-.043a2.5,2.5,0,1,0,4.993.027,2.5,2.5,0,0,0-4.993-.027" transform="translate(-42.439 -1106.878)" fill="#5767c3"/>
      <path id="Trazado_131603" data-name="Trazado 131603" d="M443.377,349.166c1.021.3,1.237.589,1.239,1.7q.005,2.658,0,5.316a3.039,3.039,0,0,1-3.372,3.4c-5.147,0-10.294.013-15.441-.014-.728,0-.857.137-.6.832a14.017,14.017,0,0,0,6.123,7.352c.4.24.639.376.955-.217a1.906,1.906,0,0,1,3.445.056c1.234,2.377,2.414,4.783,3.573,7.2a1.906,1.906,0,0,1-1.188,2.815q-3.778,1.237-7.588,2.376a1.907,1.907,0,0,1-2.616-1.924c-.01-.544-.357-.591-.65-.742a24.042,24.042,0,0,1-10.591-10.616,24.758,24.758,0,0,1-2.485-8.316,26.705,26.705,0,0,1,.181-6.522c.248-1.024.431-2.069.755-3.068a23.939,23.939,0,0,1,14.446-15.555c1.586-.637,2.9-.129,3.412,1.368.619,1.8,1.174,3.629,1.7,5.463a2.261,2.261,0,0,1-1.282,2.764c-.33.167-.68.294-1.011.458a13.459,13.459,0,0,0-7.315,8.57,12.415,12.415,0,0,0-.611,4.459c0,.544.173.705.732.7q7.961-.035,15.922,0c.7,0,.963-.183.944-.915-.045-1.767-.019-3.536-.013-5.3,0-1.075.27-1.39,1.336-1.63m-20.746,1.488a16.669,16.669,0,0,1,9.129-9.917c.442-.193.32-.448.223-.757-.377-1.2-.781-2.386-1.1-3.6-.177-.663-.417-.757-1.052-.5a21.609,21.609,0,0,0-12.755,24.125,21.31,21.31,0,0,0,12.333,15.464c.614.29,1.178.605,1.317,1.341.078.412.356.3.59.226,1-.322,2-.66,3-.993a13.833,13.833,0,0,0,2.391-.735l-2.61-5.258c-1.01.967-1.127,1.013-2.187.876l-.939-.409c-.218-.132-.434-.266-.653-.395a16.217,16.217,0,0,1-8.4-13.052,18.615,18.615,0,0,1,.715-6.421" transform="translate(-90.225 -1142.626)" fill="#030303"/>
      <path id="Trazado_131604" data-name="Trazado 131604" d="M366.613,376.3a26.683,26.683,0,0,0-.181,6.522l-4.292-.016c-.3-1.132-.591-1.358-1.813-1.358H330.549c-1.148,0-1.152,0-1.148-1.118.005-1.343.018-2.686.027-4.03h37.185" transform="translate(-42.472 -1167.069)" fill="#bae2f5"/>
      <path id="Trazado_131605" data-name="Trazado 131605" d="M456.824,353.617c-1.066.24-1.332.555-1.336,1.63-.007,1.768-.032,3.537.013,5.3.019.732-.248.918-.944.915q-7.96-.035-15.921,0c-.56,0-.729-.159-.732-.7a12.419,12.419,0,0,1,.611-4.459q4.89,0,9.78,0a1.84,1.84,0,0,0,2.039-2.076q.006-6.688.006-13.377,1.687,3.34,3.373,6.679c.75,1.488,1.571,1.8,3.115,1.178q0,2.453,0,4.906" transform="translate(-103.672 -1147.077)" fill="#bae1f4"/>
      <path id="Trazado_131606" data-name="Trazado 131606" d="M389.128,324.3q0,6.689-.007,13.377a1.84,1.84,0,0,1-2.039,2.076q-4.89,0-9.78,0a13.459,13.459,0,0,1,7.315-8.57c.331-.164.681-.291,1.011-.458a2.261,2.261,0,0,0,1.282-2.764c-.524-1.833-1.079-3.659-1.7-5.462-.514-1.5-1.826-2.006-3.412-1.368a23.939,23.939,0,0,0-14.446,15.554c-.323,1-.507,2.045-.755,3.068H329.415c-.01-1.457-.027-2.915-.027-4.372q0-11.535-.01-23.071c0-.528.024-.807.7-.807q29.3.029,58.6.018a3.782,3.782,0,0,1,.423.046l.022,10.693a2.62,2.62,0,0,0,0,2.039m-46.712-9.629c-2,0-4-.01-6,0a3.7,3.7,0,0,0-3.884,3.794q-.058,6.044,0,12.088a3.747,3.747,0,0,0,3.935,3.856q5.961.02,11.922,0a3.7,3.7,0,0,0,3.887-3.795q.062-6.044,0-12.088a3.749,3.749,0,0,0-3.935-3.854c-1.973-.016-3.945,0-5.918,0m19.385,9.378c1.486,0,2.973.008,4.459,0,1.034-.008,1.58-.46,1.585-1.273s-.543-1.3-1.565-1.3q-4.459-.02-8.918,0c-1,.005-1.563.514-1.544,1.326.019.781.555,1.239,1.525,1.248,1.486.015,2.973,0,4.459,0m.028-8.51c-1.515,0-3.03-.007-4.545,0-.894.006-1.433.465-1.465,1.209a1.289,1.289,0,0,0,1.429,1.356q4.587.028,9.175,0a1.282,1.282,0,0,0,1.42-1.362c-.036-.747-.568-1.2-1.469-1.2-1.515-.01-3.03,0-4.545,0" transform="translate(-42.46 -1130.522)" fill="#d6ecf7"/>
      <path id="Trazado_131607" data-name="Trazado 131607" d="M485.05,374.473a19.753,19.753,0,0,1-5.53,3.364c-.432.188-.6.071-.722-.359-.366-1.26-.735-2.52-1.172-3.756-.191-.539-.041-.72.439-.946A16.157,16.157,0,0,0,487.37,361.2a16.371,16.371,0,0,0-9.9-18.577,1.648,1.648,0,0,0-1.906.259c-.3.291-.405.14-.541-.138-.742-1.511-1.486-3.021-2.246-4.523-.174-.345-.107-.51.26-.616,1.149-.332,2.293-.681,3.439-1.024-.068.493-.224.917.478,1.222a22.8,22.8,0,0,1,13.791,23.677,22.939,22.939,0,0,1-4.686,11.464c-.363.471-1.033.786-1,1.527" transform="translate(-123.288 -1144.67)" fill="#8bcb93"/>
      <path id="Trazado_131608" data-name="Trazado 131608" d="M489.873,373.666c-.028-.741.642-1.055,1-1.527a22.938,22.938,0,0,0,4.686-11.464A22.805,22.805,0,0,0,481.773,337c-.7-.3-.546-.728-.478-1.222l1.845-.624c0,1.192.711,1.687,1.647,2.1a21.432,21.432,0,0,1,12.945,20.938,21.135,21.135,0,0,1-7.64,15.354,1.214,1.214,0,0,1-.219.122" transform="translate(-128.111 -1143.862)" fill="#80bb89"/>
      <path id="Trazado_131609" data-name="Trazado 131609" d="M466.4,286.875q-.01-7.164-.021-14.327c1.483-.144,2.97-.032,4.455-.061.486-.01.721.208.72.728q-.016,6.562,0,13.125c0,.465-.185.582-.61.575-1.515-.027-3.031-.028-4.546-.04" transform="translate(-119.734 -1108.508)" fill="#3e4fb4"/>
      <path id="Trazado_131610" data-name="Trazado 131610" d="M466.4,322.255q-.011-5.347-.022-10.693c1.565-.021,3.13-.034,4.694-.067.373-.008.49.129.489.5-.011,2.564-.017,5.128.006,7.692,0,.426-.219.517-.534.612-1.007.3-2,.64-3.017.925a2.952,2.952,0,0,0-1.615,1.036" transform="translate(-119.733 -1130.518)" fill="#accfdf"/>
      <path id="Trazado_131611" data-name="Trazado 131611" d="M359.586,283.249a2.542,2.542,0,0,1,2.527,2.5,2.523,2.523,0,0,1-5.046.007,2.54,2.54,0,0,1,2.519-2.505" transform="translate(-58.077 -1114.586)" fill="#010203"/>
      <path id="Trazado_131612" data-name="Trazado 131612" d="M339.612,285.81a2.5,2.5,0,0,1,4.994-.059,2.5,2.5,0,1,1-4.994.059" transform="translate(-48.232 -1114.612)" fill="#010203"/>
      <path id="Trazado_131613" data-name="Trazado 131613" d="M374.655,285.766a2.5,2.5,0,0,1,4.993.027,2.5,2.5,0,1,1-4.993-.027" transform="translate(-67.998 -1114.611)" fill="#010203"/>
      <path id="Trazado_131614" data-name="Trazado 131614" d="M437.621,379.658c-1,.333-2,.671-3,.993-.234.075-.513.187-.59-.226-.139-.736-.7-1.051-1.317-1.341a21.309,21.309,0,0,1-12.333-15.463A21.608,21.608,0,0,1,433.137,339.5c.634-.259.875-.165,1.051.5.323,1.211.727,2.4,1.1,3.6.1.309.219.564-.222.757a16.668,16.668,0,0,0-9.13,9.917c-.241.006-.331.185-.431.363a14.379,14.379,0,0,0-1.746,9.553,15.058,15.058,0,0,0,8.172,11.26c.93.5,1.222.4,1.635-.572.147-.346.226-.724.706-.736l.94.409c.145.334.283.672.436,1,.637,1.38,1.446,2.679,1.971,4.113" transform="translate(-93.534 -1146.236)" fill="#8bcb93"/>
      <path id="Trazado_131615" data-name="Trazado 131615" d="M438.984,393.413c-.48.013-.559.391-.706.736-.414.972-.7,1.073-1.635.572a15.058,15.058,0,0,1-8.172-11.26,14.37,14.37,0,0,1,1.746-9.553c.1-.178.19-.357.431-.363a18.635,18.635,0,0,0-.715,6.421,16.217,16.217,0,0,0,8.4,13.052c.219.129.435.263.653.395" transform="translate(-98.242 -1165.517)" fill="#80bb89"/>
      <path id="Trazado_131616" data-name="Trazado 131616" d="M457.4,424.04c-.524-1.434-1.333-2.733-1.971-4.113-.153-.331-.29-.669-.436-1,1.06.136,1.177.09,2.187-.876l2.61,5.258a13.828,13.828,0,0,1-2.391.735" transform="translate(-113.312 -1190.618)" fill="#80bb89"/>
      <path id="Trazado_131617" data-name="Trazado 131617" d="M346.457,318.76c1.973,0,3.945-.013,5.918,0a3.749,3.749,0,0,1,3.935,3.854q.069,6.043,0,12.088a3.7,3.7,0,0,1-3.887,3.8q-5.961.023-11.922,0a3.747,3.747,0,0,1-3.935-3.856q-.05-6.043,0-12.088a3.7,3.7,0,0,1,3.884-3.793c2-.013,4,0,6,0m-.06,2.577c-1.945,0-3.89-.007-5.835,0-1,0-1.416.4-1.419,1.4q-.02,5.875,0,11.75c0,.994.437,1.427,1.414,1.43q5.878.018,11.756,0c1,0,1.42-.413,1.423-1.4q.018-5.832,0-11.665c0-1.112-.44-1.512-1.592-1.516-1.916-.007-3.832,0-5.749,0" transform="translate(-46.5 -1134.613)" fill="#040405"/>
      <path id="Trazado_131618" data-name="Trazado 131618" d="M396.008,336.929c-1.486,0-2.973.011-4.459,0-.969-.01-1.506-.467-1.525-1.248-.019-.811.539-1.32,1.544-1.326q4.459-.022,8.918,0c1.022,0,1.57.488,1.565,1.3s-.551,1.265-1.585,1.273c-1.486.011-2.973,0-4.459,0" transform="translate(-76.666 -1143.404)" fill="#070808"/>
      <path id="Trazado_131619" data-name="Trazado 131619" d="M396.037,320.754c1.515,0,3.03-.007,4.545,0,.9.006,1.433.456,1.469,1.2a1.282,1.282,0,0,1-1.42,1.362q-4.587.029-9.175,0a1.289,1.289,0,0,1-1.429-1.356c.032-.745.571-1.2,1.465-1.209,1.515-.01,3.03,0,4.545,0" transform="translate(-76.667 -1135.739)" fill="#040405"/>
      <path id="Trazado_131620" data-name="Trazado 131620" d="M349.75,324.674c1.916,0,3.833,0,5.749,0,1.151,0,1.588.4,1.592,1.516q.018,5.832,0,11.665c0,.991-.425,1.4-1.423,1.4q-5.878.015-11.756,0c-.977,0-1.411-.436-1.414-1.43q-.021-5.876,0-11.751c0-1,.421-1.4,1.419-1.4,1.945-.01,3.89,0,5.835,0" transform="translate(-49.853 -1137.95)" fill="#9dd5f3"/>
    </g>
  </g>
</svg>
