<svg xmlns="http://www.w3.org/2000/svg" width="67" height="90.367" viewBox="0 0 67 90.367">
  <g id="Grupo_87549" data-name="Grupo 87549" transform="translate(-638 -1538.725)">
    <g id="Grupo_81330" data-name="Grupo 81330" transform="translate(638 1538.725)">
      <rect id="Rectángulo_34185" data-name="Rectángulo 34185" width="67" height="90.367" rx="5" fill="#fff"/>
    </g>
    <g id="Grupo_86771" data-name="Grupo 86771" transform="translate(649.617 1548.938)">
      <path id="Trazado_131354" data-name="Trazado 131354" d="M338.392,218.22a.687.687,0,0,1-.782.6q-7.587-.007-15.176-.006A1.969,1.969,0,0,1,320.4,217a24.38,24.38,0,0,1,.02-3.673,6.2,6.2,0,0,1,2.413-4.314H312.088a1.69,1.69,0,0,1-.462-.024.631.631,0,0,1,.051-1.234,2.084,2.084,0,0,1,.422-.011q7.5,0,15.007.01c.338,0,.468-.1.525-.411.061-.331.155-.656.24-.982.066-.255.043-.4-.274-.271a2.325,2.325,0,0,1-.871.127c-1.494,0-2.987,0-4.481,0a2.036,2.036,0,0,1-2.139-1.657c-.095-.366-.089-.847-.324-1.063-.261-.24-.753-.074-1.143-.074q-6.7-.008-13.4,0c-.886,0-1.108.212-1.1,1.088a6.905,6.905,0,0,0,.059,1.557,2.138,2.138,0,0,0,2.064,1.676c.929.016,1.86,0,2.79.006.522,0,.826.24.82.639s-.3.639-.833.627a23.061,23.061,0,0,1-3.374-.074,3.378,3.378,0,0,1-2.8-3.292c-.01-.493-.012-.986,0-1.479a1.9,1.9,0,0,1,1.058-1.749.575.575,0,0,0,.35-.617q-.012-11.285-.012-22.569a3.5,3.5,0,0,1,1.568-3.134,3.466,3.466,0,0,1,2-.563q4,.009,7.99,0,12.682,0,25.363,0a3.436,3.436,0,0,1,3.494,2.723,4.921,4.921,0,0,1,.072,1.094q0,11.221-.006,22.443a.581.581,0,0,0,.349.619,1.9,1.9,0,0,1,1.057,1.75,12.351,12.351,0,0,1-.036,1.856,3.376,3.376,0,0,1-2.8,2.932c-.083.017-.164.039-.251.06.029.149.164.187.251.265a6.212,6.212,0,0,1,2.141,4.609c.026.944.018,1.888,0,2.832a2.04,2.04,0,0,1-2.118,2.1c-.958.006-1.916-.009-2.874.006a.72.72,0,0,1-.827-.6c.118-.535.28-.667.83-.67l2.217-.014c.154,0,.308.014.462.014.789,0,1.043-.248,1.044-1.026q0-1.223,0-2.445a4.963,4.963,0,0,0-3.872-4.9,2.721,2.721,0,0,0-1.033-.16c-4.253,0-8.507-.009-12.76,0a4.949,4.949,0,0,0-4.818,4.215,26.313,26.313,0,0,0-.067,3.248c-.015.838.23,1.068,1.083,1.068h14.788c.605,0,.778.135.875.672m3.79-19c-.194-.052-.237.041-.236.218.006.822,0,1.644,0,2.466,0,.165.027.282.234.223.349.006.7.008,1.047.021.171.006.258-.043.257-.232q-.008-1.3,0-2.6c0-.163-.053-.245-.221-.185a4.95,4.95,0,0,1-1.082.092m-.217-5.512v4.14c.138.181.332.081.5.083.785.01,1.021-.232,1.022-1.026,0-.771,0-1.543,0-2.314,0-.872-.691-1.27-1.518-.884m-6.63,12.519-5.858-.014c-.121,0-.262-.035-.3.143-.108.453-.219.906-.332,1.373h6.833c.351,0,.7,0,1.053.017.2.01.259-.041.223-.258-.212-1.283-.244-1.314-1.531-1.274a.6.6,0,0,0-.083.014m1.645-4.211h-9.4a6.224,6.224,0,0,0,1.3,1.477.4.4,0,0,0,.384.081.6.6,0,0,1,.779.594,3.487,3.487,0,0,1,.006.506c-.01.191.043.275.257.273,1.394-.014,2.788-.014,4.182-.019.183.006.365.016.547.016.7,0,.7,0,.747-.7.034-.515.306-.729.844-.654.085.012.163.037.239-.023a5.68,5.68,0,0,0,1.387-1.55Zm6.471,1.421q-2.217-.012-4.433-.025a.387.387,0,0,0-.326.151,8.107,8.107,0,0,1-1.613,1.419,1.9,1.9,0,0,1,.918,1.491c.087.34.178.68.253,1.022.038.172.094.256.3.254,1.38-.018,2.759-.019,4.138-.025a2.132,2.132,0,0,0,2.192-2c.028-.505.018-1.013.005-1.52a.74.74,0,0,0-.762-.782c-.224-.01-.448.01-.673.017m-12.517-21.028q-4.855-.007-9.71-.018c-.237,0-.275.1-.275.3q.008,3.271,0,6.543c0,.238.065.318.309.313.7-.014,1.409-.033,2.11.006.413.023.551-.1.635-.513a6.11,6.11,0,0,1,4.274-4.824,8.928,8.928,0,0,1,2.669-.3c.364.007.728.012,1.092.025.163.005.243-.027.26-.225.121-1.325.108-1.345-1.2-1.321a1.622,1.622,0,0,0-.167.018m10.4-5.591c-.112-.006-.225-.016-.337-.016q-16.592,0-33.183,0a2.574,2.574,0,0,0-.5.037,2.169,2.169,0,0,0-1.767,2.332q0,10.989,0,21.978c0,1,0,.974,1.013,1.006.419.014.535-.085.534-.523q-.024-10.524-.011-21.048a2.048,2.048,0,0,1,2.248-2.256h30.352a2.054,2.054,0,0,1,2.27,2.276q0,4.416,0,8.833c0,.86,0,1.719,0,2.579,0,.147-.08.38.229.311a3.788,3.788,0,0,1,.882.051c.393.117.429-.02.428-.363q-.015-6.4-.008-12.8c0-.169,0-.338-.021-.506a2.119,2.119,0,0,0-2.126-1.887m-2.795,23.888a2.069,2.069,0,0,0,2.123-2.092c.007-2.8,0-5.6.006-8.405a4.816,4.816,0,0,0-.953-2.954,4.383,4.383,0,0,0-2.772-1.836,2.981,2.981,0,0,0-1.232-.186c-1.859,0-3.719.034-5.577-.008a4.968,4.968,0,0,0-4.972,4.988c.043,2.731.046,5.464-.007,8.194a2.266,2.266,0,0,0,2.358,2.337c3.506-.044,7.013-.015,10.519-.016.169,0,.337-.014.506-.022m.846-15.605a8.744,8.744,0,0,1,1.292,1.3v-5.49c0-1.174-.173-1.344-1.338-1.311a1.188,1.188,0,0,0-.125.017c-.169-.006-.337-.017-.506-.017q-12.531,0-25.064,0c-1.465,0-2.931,0-4.4,0-.625,0-.9.278-.9.906q0,10.65-.008,21.3c0,.289.094.347.36.347q8.56-.011,17.119-.008c.09,0,.216.057.268-.046s-.037-.223-.105-.3a1.2,1.2,0,0,0-.309-.211,3.267,3.267,0,0,1-1.617-1.971c-.1-.346-.24-.466-.574-.413a1.734,1.734,0,0,1-.3,0,2.022,2.022,0,0,1-2.108-2.015c-.03-.942-.027-1.888,0-2.831a2.051,2.051,0,0,1,1.767-2.007c.338-.042.809.17.98-.121.161-.273.029-.712.057-1.076.022-.287-.092-.353-.359-.347-.8.016-1.606.014-2.409,0a1.332,1.332,0,0,1-1.429-1.426q-.007-3.423,0-6.846a1.335,1.335,0,0,1,1.4-1.411c.3-.007.592,0,.888,0q5.03,0,10.06,0a1.374,1.374,0,0,1,1.522,1.513,5.634,5.634,0,0,1-.007.8c-.059.423.11.54.507.492.264-.032.535.006.8-.008a7.088,7.088,0,0,1,4.529,1.174M321.13,203.417c.064.262.116.479.17.7.165.674.364.833,1.052.833h3.841c.253,0,.507.013.759,0,.411-.029.824-.468.744-.771a1.846,1.846,0,0,0-1.025-.754H321.13Zm2.753-7.644c0-.618,0-1.236,0-1.854,0-.1.049-.223-.091-.293a1.013,1.013,0,0,0-1.446.809c-.022.9-.018,1.8,0,2.7a.764.764,0,0,0,.827.81,2.8,2.8,0,0,1,.295,0c.316.045.444-.054.426-.4-.03-.588-.008-1.179-.008-1.769m16.76,5.531c-.281.165-.528.294-.754.452a.317.317,0,0,0-.14.327c.036.123.168.06.256.064.7.028.7.026.672-.686a1.137,1.137,0,0,0-.034-.157" transform="translate(-302.863 -175.533)" fill="#030303"/>
      <path id="Trazado_131355" data-name="Trazado 131355" d="M348.679,236.573c-.1-.537-.269-.672-.875-.672H333.016c-.853,0-1.1-.229-1.083-1.068a26.327,26.327,0,0,1,.067-3.248,4.949,4.949,0,0,1,4.819-4.215c4.253-.012,8.506,0,12.759,0a2.73,2.73,0,0,1,1.033.159c0,.16.139.2.234.274a5.45,5.45,0,0,1,2.3,4.5c0,.842-.006,1.685,0,2.527a2.208,2.208,0,0,1-.174,1.063l-2.217.014c-.55,0-.712.135-.83.67l-1.25,0" transform="translate(-313.15 -193.885)" fill="#84d5c0"/>
      <path id="Trazado_131356" data-name="Trazado 131356" d="M342.391,187.332a7.085,7.085,0,0,0-4.529-1.174c-.267.014-.539-.025-.8.008-.4.048-.566-.068-.507-.492a5.625,5.625,0,0,0,.006-.8,1.373,1.373,0,0,0-1.521-1.513q-5.03,0-10.06,0c-.3,0-.592-.006-.888,0a1.335,1.335,0,0,0-1.4,1.411q-.008,3.423,0,6.846a1.332,1.332,0,0,0,1.429,1.426c.8.011,1.606.012,2.409,0,.267-.005.38.06.358.347-.028.364.105.8-.057,1.077-.171.29-.643.078-.98.12a2.051,2.051,0,0,0-1.767,2.008c-.027.943-.03,1.888,0,2.831a2.022,2.022,0,0,0,2.108,2.015,1.8,1.8,0,0,0,.3,0c.334-.052.475.067.574.413a3.267,3.267,0,0,0,1.617,1.971,1.17,1.17,0,0,1,.309.211c.068.076.161.187.105.3s-.178.045-.268.045q-8.559,0-17.118.008c-.267,0-.361-.058-.36-.347q.012-10.649.008-21.3c0-.627.278-.9.9-.906,1.465,0,2.931,0,4.4,0h25.065c.169,0,.337.011.506.017.021.28.182.523.18.814-.012,1.557-.008,3.114-.01,4.671m-24.7,15.511c1.141,0,2.281.006,3.421,0a1.326,1.326,0,0,0,1.427-1.422c.006-1.126.017-2.252,0-3.378a4.811,4.811,0,0,0-2.364-4.176c-.22-.141-.295-.192-.064-.423a3.282,3.282,0,0,0,.933-3.248,3.421,3.421,0,0,0-2.973-2.612,3.465,3.465,0,0,0-3.455,1.94,3.387,3.387,0,0,0,.673,3.894c.228.228.207.282-.058.45a4.7,4.7,0,0,0-2.343,4.093c-.021,1.126-.006,2.252,0,3.379a1.354,1.354,0,0,0,1.515,1.507c1.1,0,2.2,0,3.295,0" transform="translate(-305.866 -177.762)" fill="#93b3f7"/>
      <path id="Trazado_131357" data-name="Trazado 131357" d="M350.762,206.023c-.169.008-.337.023-.506.023-3.507,0-7.013-.028-10.519.015a2.266,2.266,0,0,1-2.358-2.337q.078-4.094.006-8.193a4.97,4.97,0,0,1,4.972-4.989c1.858.042,3.717.008,5.576.008a2.972,2.972,0,0,1,1.233.186c-.007.13.076.194.172.265a4.407,4.407,0,0,1,.619.5,5.837,5.837,0,0,1,1.657,4.105q0,3.945,0,7.891a3.017,3.017,0,0,1-.716,2.221,1.047,1.047,0,0,0-.139.3m-5.641-12.674a5.041,5.041,0,0,0,.837-.04.6.6,0,0,0,.5-.634.557.557,0,0,0-.49-.592,5.039,5.039,0,0,0-1.63-.015.56.56,0,0,0-.515.611.593.593,0,0,0,.5.628,4.434,4.434,0,0,0,.8.041" transform="translate(-315.085 -180.847)" fill="#575252"/>
      <path id="Trazado_131358" data-name="Trazado 131358" d="M343.649,193.027c-.309.07-.229-.163-.229-.311-.005-.859,0-1.719,0-2.578q0-4.417,0-8.834a2.054,2.054,0,0,0-2.27-2.276H310.8a2.048,2.048,0,0,0-2.248,2.256q0,10.524.011,21.048c0,.439-.116.537-.535.523-1.011-.032-1.012-.01-1.012-1.006q0-10.989,0-21.977a2.167,2.167,0,0,1,1.767-2.332,2.575,2.575,0,0,1,.5-.038q16.592,0,33.184,0c.112,0,.225.01.337.016a.785.785,0,0,0,.213.4,2.439,2.439,0,0,1,.63,1.654q.014,6.726,0,13.453" transform="translate(-304.332 -176.23)" fill="#ced5e1"/>
      <path id="Trazado_131359" data-name="Trazado 131359" d="M340.858,187.676a8.949,8.949,0,0,0-2.669.3,6.111,6.111,0,0,0-4.274,4.824c-.083.413-.222.537-.635.513-.7-.038-1.407-.019-2.11-.005-.244.005-.309-.076-.309-.313q.012-3.272,0-6.543c0-.2.037-.3.275-.3q4.854.016,9.709.018.006.751.011,1.5" transform="translate(-312.777 -179.294)" fill="#f1f3f7"/>
      <path id="Trazado_131360" data-name="Trazado 131360" d="M361.445,223.011c-1.38.006-2.759.007-4.138.025-.206,0-.262-.081-.3-.253-.076-.342-.166-.682-.253-1.022a1.9,1.9,0,0,0-.919-1.492,8.087,8.087,0,0,0,1.613-1.419.39.39,0,0,1,.326-.15q2.216.017,4.433.026a8.407,8.407,0,0,1-.076,3.153c-.125.445-.492.735-.686,1.134" transform="translate(-321.62 -190.817)" fill="#f1f3f7"/>
      <path id="Trazado_131361" data-name="Trazado 131361" d="M348.036,219.45c-1.394.005-2.788.006-4.182.019-.214,0-.268-.083-.257-.273a3.5,3.5,0,0,0-.006-.507.6.6,0,0,0-.78-.594.4.4,0,0,1-.383-.081,6.224,6.224,0,0,1-1.3-1.477h9.4a1.449,1.449,0,0,1-.211.453,7.4,7.4,0,0,1-1.976,1.967c-.183.123-.348.238-.3.492" transform="translate(-316.413 -190.052)" fill="#f7d8b7"/>
      <path id="Trazado_131362" data-name="Trazado 131362" d="M363.271,193.036q0-6.726,0-13.453a2.439,2.439,0,0,0-.63-1.654.785.785,0,0,1-.213-.4,2.119,2.119,0,0,1,2.126,1.887c.016.168.021.337.021.506q0,6.4.007,12.8c0,.344-.034.48-.428.364a3.752,3.752,0,0,0-.882-.052" transform="translate(-323.954 -176.239)" fill="#b3bfd5"/>
      <path id="Trazado_131363" data-name="Trazado 131363" d="M357.224,206.13a1.06,1.06,0,0,1,.139-.3,3.015,3.015,0,0,0,.716-2.22q-.012-3.945,0-7.892a5.836,5.836,0,0,0-1.657-4.1,4.359,4.359,0,0,0-.619-.5c-.1-.071-.18-.134-.172-.265a4.381,4.381,0,0,1,2.772,1.836,4.811,4.811,0,0,1,.953,2.954c-.009,2.8,0,5.6-.006,8.405a2.069,2.069,0,0,1-2.123,2.092" transform="translate(-321.546 -180.954)" fill="#3f3939"/>
      <path id="Trazado_131364" data-name="Trazado 131364" d="M363.225,235.976a2.208,2.208,0,0,0,.174-1.063c-.01-.843,0-1.685,0-2.527a5.45,5.45,0,0,0-2.3-4.5c-.095-.073-.236-.114-.234-.273a4.963,4.963,0,0,1,3.872,4.9q0,1.223,0,2.445c0,.778-.255,1.026-1.044,1.026-.154,0-.308-.009-.462-.014" transform="translate(-323.399 -193.975)" fill="#6ebfb5"/>
      <path id="Trazado_131365" data-name="Trazado 131365" d="M349.912,224.55h-6.833c.112-.466.223-.918.332-1.373.042-.178.184-.143.3-.143q2.929.006,5.858.015a10.842,10.842,0,0,1,.338,1.5" transform="translate(-317.103 -192.352)" fill="#ced5e1"/>
      <path id="Trazado_131366" data-name="Trazado 131366" d="M331.144,218.7h5.541a1.845,1.845,0,0,1,1.025.754c.081.3-.333.742-.744.771-.252.017-.506,0-.759,0h-3.841c-.688,0-.887-.159-1.052-.833-.054-.217-.106-.434-.17-.7" transform="translate(-312.877 -190.818)" fill="#f1f3f7"/>
      <path id="Trazado_131367" data-name="Trazado 131367" d="M359.316,187.332c0-1.557,0-3.113.01-4.67,0-.292-.16-.535-.18-.815a1.2,1.2,0,0,1,.125-.017c1.165-.032,1.338.138,1.338,1.311v5.49a8.747,8.747,0,0,0-1.292-1.3" transform="translate(-322.792 -177.761)" fill="#798bed"/>
      <path id="Trazado_131368" data-name="Trazado 131368" d="M334.554,205.636c0,.59-.023,1.181.008,1.769.018.348-.11.447-.426.4a2.8,2.8,0,0,0-.295,0,.765.765,0,0,1-.827-.811c-.018-.9-.022-1.8,0-2.7a1.014,1.014,0,0,1,1.446-.81c.14.07.09.192.091.294.005.618,0,1.236,0,1.854" transform="translate(-313.534 -185.396)" fill="#e9b496"/>
      <path id="Trazado_131369" data-name="Trazado 131369" d="M364.52,223.014c.194-.4.561-.689.686-1.134a8.4,8.4,0,0,0,.076-3.153c.225-.006.45-.028.673-.017a.74.74,0,0,1,.762.782c.013.506.023,1.014-.005,1.519a2.133,2.133,0,0,1-2.192,2" transform="translate(-324.695 -190.821)" fill="#ced5e1"/>
      <path id="Trazado_131370" data-name="Trazado 131370" d="M363.4,203.6c.827-.386,1.514.012,1.518.884,0,.771,0,1.543,0,2.314,0,.794-.237,1.036-1.022,1.026-.164,0-.358.1-.5-.083.183-.058.205-.217.223-.371a15.077,15.077,0,0,0,.006-3.357c-.017-.165-.028-.344-.229-.412" transform="translate(-324.298 -185.417)" fill="#eba182"/>
      <path id="Trazado_131371" data-name="Trazado 131371" d="M363.735,212.148a4.949,4.949,0,0,0,1.082-.092c.168-.059.222.022.221.185q-.006,1.3,0,2.6c0,.189-.087.238-.257.232-.349-.013-.7-.014-1.048-.021q0-1.453,0-2.907" transform="translate(-324.417 -188.458)" fill="#b3bfd5"/>
      <path id="Trazado_131372" data-name="Trazado 131372" d="M351.818,219.45c-.043-.254.122-.369.3-.492a7.4,7.4,0,0,0,1.976-1.967,1.449,1.449,0,0,0,.211-.453h1.272a5.666,5.666,0,0,1-1.387,1.55c-.076.06-.154.034-.239.023-.538-.075-.81.138-.844.654-.047.7-.047.7-.747.7-.182,0-.365-.01-.547-.016" transform="translate(-320.195 -190.052)" fill="#e9b496"/>
      <path id="Trazado_131373" data-name="Trazado 131373" d="M346.332,187.674q-.006-.751-.011-1.5c.056-.006.111-.017.167-.019,1.3-.024,1.318,0,1.2,1.322-.018.2-.1.23-.261.224-.364-.012-.728-.017-1.092-.025" transform="translate(-318.251 -179.292)" fill="#b3bfd5"/>
      <path id="Trazado_131374" data-name="Trazado 131374" d="M353.472,224.547a10.847,10.847,0,0,0-.338-1.5.532.532,0,0,1,.083-.014c1.287-.041,1.32-.008,1.531,1.274.036.216-.02.267-.224.258-.35-.017-.7-.013-1.052-.017" transform="translate(-320.663 -192.348)" fill="#b3bfd5"/>
      <path id="Trazado_131375" data-name="Trazado 131375" d="M363.4,203.676c.2.068.212.247.229.412a15.077,15.077,0,0,1-.006,3.357c-.018.154-.041.313-.223.371v-4.14" transform="translate(-324.298 -185.498)" fill="#f0ba9b"/>
      <path id="Trazado_131376" data-name="Trazado 131376" d="M363.607,212.2q0,1.453,0,2.907c-.206.059-.234-.057-.233-.223,0-.822,0-1.645,0-2.466,0-.177.041-.27.236-.218" transform="translate(-324.288 -188.511)" fill="#ced5e1"/>
      <path id="Trazado_131377" data-name="Trazado 131377" d="M360.858,215.43a1.145,1.145,0,0,1,.034.157c.032.712.032.714-.672.686-.088,0-.22.059-.256-.064a.317.317,0,0,1,.139-.327c.227-.158.473-.287.754-.452" transform="translate(-323.079 -189.66)" fill="#798bed"/>
      <path id="Trazado_131378" data-name="Trazado 131378" d="M318.53,205.988c-1.1,0-2.2,0-3.295,0a1.355,1.355,0,0,1-1.515-1.508c0-1.126-.016-2.252,0-3.378a4.7,4.7,0,0,1,2.342-4.093c.266-.167.287-.221.059-.45a3.387,3.387,0,0,1-.674-3.893,3.467,3.467,0,0,1,3.456-1.94,3.422,3.422,0,0,1,2.973,2.611,3.284,3.284,0,0,1-.933,3.248c-.231.231-.157.282.064.423a4.811,4.811,0,0,1,2.364,4.176c.02,1.126.01,2.252,0,3.379a1.325,1.325,0,0,1-1.427,1.422c-1.141.009-2.281,0-3.421,0m.607-8.331a3.235,3.235,0,0,0-1.939.192c.329.265.6.49.875.7a.746.746,0,0,0,.968-.007c.156-.116.3-.251.446-.377a.679.679,0,0,0,.355-.324,1.555,1.555,0,0,0-.705-.184m-.674-1.372a2.144,2.144,0,1,0-2.081-2.119,2.143,2.143,0,0,0,2.081,2.119m1.765,2.96c-.092.064-.186.124-.275.192a2.038,2.038,0,0,1-2.831-.022c-.275-.218-.558-.429-.821-.661-.182-.161-.293-.127-.44.048a3.462,3.462,0,0,0-.864,2.191c-.016.858-.009,1.716-.006,2.574,0,.365-.121.847.063,1.063.216.254.715.083,1.089.083,1.561,0,3.121-.014,4.682-.023.323.01.647.007.968.034.275.023.327-.1.324-.346-.012-1.085-.006-2.169-.009-3.253a3.5,3.5,0,0,0-.612-1.944c-.417-.636-.421-.634-1.019-.159-.087.069-.165.149-.248.223" transform="translate(-306.705 -180.906)" fill="#030304"/>
      <path id="Trazado_131379" data-name="Trazado 131379" d="M348.655,194.153a4.367,4.367,0,0,1-.8-.041.592.592,0,0,1-.5-.628.559.559,0,0,1,.515-.612,5.022,5.022,0,0,1,1.63.016.556.556,0,0,1,.49.591.6.6,0,0,1-.5.634,4.979,4.979,0,0,1-.838.04" transform="translate(-318.618 -181.652)" fill="#030303"/>
      <path id="Trazado_131380" data-name="Trazado 131380" d="M321.5,209.045c-1.561.009-3.121.025-4.682.023-.375,0-.873.171-1.089-.083-.184-.216-.062-.7-.063-1.063,0-.858-.01-1.717.006-2.575a3.455,3.455,0,0,1,.864-2.19c.147-.176.258-.21.44-.049.263.233.545.443.82.662a2.039,2.039,0,0,0,2.832.021c.088-.068.183-.129.275-.192a2.588,2.588,0,0,1,.586,1.867c.056,1.19.012,2.385.01,3.578" transform="translate(-307.384 -185.26)" fill="#84d5c0"/>
      <path id="Trazado_131381" data-name="Trazado 131381" d="M319.925,196.993a2.144,2.144,0,0,1,0-4.286,3.049,3.049,0,0,1,.936,2.292,2.984,2.984,0,0,1-.936,1.995" transform="translate(-308.168 -181.614)" fill="#f7d8b7"/>
      <path id="Trazado_131382" data-name="Trazado 131382" d="M324.4,209.063c0-1.193.045-2.387-.01-3.578a2.588,2.588,0,0,0-.586-1.867c.082-.074.161-.153.248-.222.6-.476.6-.477,1.019.158a3.5,3.5,0,0,1,.612,1.944c0,1.084,0,2.168.008,3.253,0,.244-.049.369-.324.346-.321-.026-.645-.024-.968-.034" transform="translate(-310.276 -185.279)" fill="#6ebfb5"/>
      <path id="Trazado_131383" data-name="Trazado 131383" d="M321.066,196.992A2.984,2.984,0,0,0,322,195a3.049,3.049,0,0,0-.936-2.292,2.146,2.146,0,1,1,0,4.286" transform="translate(-309.309 -181.613)" fill="#f0ba9b"/>
      <path id="Trazado_131384" data-name="Trazado 131384" d="M321.4,201.933c-.149.126-.291.26-.446.377a.747.747,0,0,1-.969.007c-.278-.21-.545-.435-.875-.7a3.23,3.23,0,0,1,1.939-.192c.021.235.285.3.351.508" transform="translate(-308.615 -184.673)" fill="#f1f3f7"/>
      <path id="Trazado_131385" data-name="Trazado 131385" d="M322.46,201.974c-.065-.2-.33-.273-.351-.508a1.542,1.542,0,0,1,.7.184.676.676,0,0,1-.354.324" transform="translate(-309.678 -184.715)" fill="#b3bfd5"/>
    </g>
  </g>
</svg>
