<svg xmlns="http://www.w3.org/2000/svg" width="92" height="141" viewBox="0 0 92 141">
  <g id="Grupo_87547" data-name="Grupo 87547" transform="translate(-840 -3041)">
    <rect id="Rectángulo_36780" data-name="Rectángulo 36780" width="92" height="141" rx="11" transform="translate(840 3041)" fill="#fff"/>
    <g id="Grupo_86335" data-name="Grupo 86335" transform="translate(854.45 3055.001)">
      <path id="Trazado_129081" data-name="Trazado 129081" d="M611.383-321.078a1.082,1.082,0,0,1-1.205.809c-2.279-.017-4.558,0-6.837-.016-.422,0-.563.1-.55.539a12.28,12.28,0,0,0,.486,4.5,7.771,7.771,0,0,0,1.237,2.04,1.958,1.958,0,0,0,1.875.892.866.866,0,0,1,1.082.875c0,.563-.381.884-1.095.885q-6.283.008-12.566,0-6.036,0-12.073,0a3.242,3.242,0,0,1-.675-.035.814.814,0,0,1-.691-.883.846.846,0,0,1,.682-.838.646.646,0,0,1,.305-.021c.983.216,1.557-.366,2.1-1.042a6.923,6.923,0,0,0,1.569-4.245c.023-.718-.021-1.438.016-2.155.021-.419-.126-.511-.519-.507-2.176.018-4.353.008-6.529.008-3.614,0-7.228.008-10.841,0a4.475,4.475,0,0,1-4.717-3.8,5.648,5.648,0,0,1-.059-.981q0-16.725,0-33.449a4.477,4.477,0,0,1,4.745-4.742c1.191,0,2.382.018,3.573-.008a1.02,1.02,0,0,1,1.177.9,1.032,1.032,0,0,1-1.194.888c-1.087-.031-2.179.049-3.262-.021a2.92,2.92,0,0,0-3.257,3.233c.06,9.133.023,18.267.026,27.4,0,.941-.11.823.811.823q27.429,0,54.859,0c.225,0,.45-.018.675-.027.84.009,1.682-.011,2.52.037.5.029.607-.156.606-.625q-.019-13.936-.012-27.873a2.7,2.7,0,0,0-3.119-2.935l-6.038,0c-.076-.017-.115.009-.106.091-.009,1.86-.009,3.721-.033,5.581,0,.371.189.377.459.376,1.145-.007,2.291.014,3.435-.009a3.5,3.5,0,0,1,2.14.6,3.271,3.271,0,0,1,1,2.543q-.029,8.16,0,16.32a3.268,3.268,0,0,1-1,2.543,3.592,3.592,0,0,1-2.149.6c-5.051-.013-10.1-.005-15.152-.007a2.729,2.729,0,0,1-3.039-3.043c0-2.443-.014-4.887.011-7.33,0-.474-.135-.587-.589-.574-1.128.033-2.258.013-3.387.01a2.735,2.735,0,0,1-3.05-3.033c0-4.641-.011-9.281.013-13.921,0-.592-.1-.79-.755-.787-5.6.031-11.21.019-16.815.017-.825,0-1-.131-1.231-.9.242-.766.393-.877,1.249-.877q8.439,0,16.877.009c.471,0,.674-.061.688-.608a2.571,2.571,0,0,1,2.389-2.456c.531-.04,1.067-.024,1.6-.025q7.114,0,14.228,0a2.687,2.687,0,0,1,3.07,2.755c.045.412.281.321.507.322,1.93,0,3.862.06,5.789-.011a4.645,4.645,0,0,1,4.838,4.808c-.048,11.129-.019,22.258-.021,33.387a4.483,4.483,0,0,1-4.706,4.788c-1.971.02-3.942-.007-5.913.011a1.084,1.084,0,0,1-1.216-.8c.154-.8.379-.994,1.193-.995,2.027,0,4.054.01,6.081,0a2.66,2.66,0,0,0,2.749-2.694c.029-1.023,0-2.048.013-3.071,0-.278-.052-.4-.368-.393-.92.027-1.842.021-2.762.028-.123-.007-.245-.02-.368-.02H564.736a2.094,2.094,0,0,1-.246,0c-.247-.029-.316.084-.311.319.021.922.027,1.845.039,2.767a2.535,2.535,0,0,0,.458,1.921,2.854,2.854,0,0,0,2.513,1.153q21.432-.011,42.865,0C611.019-322.066,611.19-321.937,611.383-321.078Zm6.067-26.357c.552.01,1.107-.007,1.656.038.409.033.466-.138.461-.492-.019-1.229-.034-2.459,0-3.688.053-2.024-.12-2.1-2.117-2-.9-.006-1.8,0-2.7-.024-.275-.006-.4.045-.394.362.015,1.825.011,3.649,0,5.474,0,.248.043.372.332.364C615.607-347.426,616.529-347.426,617.45-347.435Zm-6.91-10.92c.51.014,1.022.01,1.53.048.378.029.491-.1.485-.481-.021-1.311-.045-2.624,0-3.933.063-1.793-.277-1.925-2.012-1.8q-7.36-.011-14.72-.018c-.691,0-1.011.366-1.015,1.109q-.013,2.156,0,4.312c0,.9-.123.8.769.8q6.714.005,13.429,0C609.517-358.322,610.029-358.344,610.541-358.356Zm-12.814,38.119c-.2-.014-.406-.039-.609-.039q-4.758,0-9.517,0c-.78,0-.81,0-.774.8a10.368,10.368,0,0,1-1.666,6.888l-.124.178.139.054h17.71a8.964,8.964,0,0,1-1.865-6.022c.02-.512,0-1.024.006-1.536.005-.258-.087-.373-.355-.367C599.689-320.263,598.708-320.252,597.727-320.237Zm19.842-25.33-3.011-.024a.415.415,0,0,0-.448.234,2.94,2.94,0,0,1-2.984,1.619c-2.909-.033-5.819-.009-8.729-.012-.318,0-.594-.043-.587.448.03,2.192.027,4.384.036,6.576-.01.266-.028.532-.027.8,0,1.027.283,1.305,1.319,1.305q7.6,0,15.208,0c.924,0,1.206-.286,1.207-1.213,0-2.627.01-5.254-.006-7.882,0-.606.278-1.421-.129-1.765S618.2-345.585,617.569-345.567Zm-22.733-2c-.012.163-.034.326-.036.489-.015,1.277.211,1.506,1.484,1.506q7.538,0,15.077,0c.915,0,1.172-.255,1.173-1.163,0-2.646.011-5.293-.006-7.939,0-.6.281-1.418-.135-1.761s-1.217-.107-1.849-.08l-15.323-.026c-.021,0-.041,0-.061,0-.265-.024-.362.1-.36.36Q594.823-351.877,594.836-347.57Z" transform="translate(-562.378 366.331)" fill="#030202"/>
      <path id="Trazado_129082" data-name="Trazado 129082" d="M625.972-317.974c-.225.009-.45.027-.675.027q-27.429,0-54.859,0c-.92,0-.81.118-.811-.823,0-9.133.033-18.267-.026-27.4a2.92,2.92,0,0,1,3.257-3.233c1.083.071,2.175-.01,3.262.021a1.032,1.032,0,0,0,1.194-.888l2.369-.019c.231.767.406.9,1.231.9,5.605,0,11.211.014,16.815-.017.655,0,.758.195.755.787-.024,4.64-.015,9.281-.013,13.921a2.734,2.734,0,0,0,3.05,3.033c1.129,0,2.259.022,3.387-.01.453-.013.594.1.589.574-.025,2.443-.014,4.887-.011,7.33a2.729,2.729,0,0,0,3.039,3.043c5.051,0,10.1-.006,15.152.007a3.592,3.592,0,0,0,2.149-.6c.215.168.14.407.142.62C625.975-319.795,625.972-318.884,625.972-317.974Zm-29.181-12.793a10.076,10.076,0,0,0-1.078-1.709.971.971,0,0,0,.241-1.5c-2.211-3.836-4.412-7.677-6.643-11.5a2.915,2.915,0,0,0-5.233.008q-5.861,10.106-11.683,20.235a2.925,2.925,0,0,0,2.621,4.532q11.667.012,23.334,0a2.924,2.924,0,0,0,2.658-4.512c-.935-1.661-1.917-3.3-2.849-4.958A1.056,1.056,0,0,0,596.791-330.767Z" transform="translate(-567.818 354.249)" fill="#d38487"/>
      <path id="Trazado_129083" data-name="Trazado 129083" d="M626.041-211.954c.921-.007,1.842,0,2.762-.028.316-.009.372.115.368.393-.014,1.024.015,2.048-.013,3.071a2.66,2.66,0,0,1-2.749,2.693c-2.027.015-4.054,0-6.081,0-.814,0-1.039.193-1.193.995l-2.24-.008c-.193-.859-.364-.987-1.33-.987q-21.433,0-42.865,0a2.854,2.854,0,0,1-2.513-1.153,2.535,2.535,0,0,1-.458-1.921h28.242c.271.955.725,1.373,1.478,1.36s1.2-.463,1.4-1.363h23.569c.1,0,.206.005.307,0a1.325,1.325,0,0,0,1.316-1.4C626.047-210.846,626.042-211.4,626.041-211.954Z" transform="translate(-567.891 250.085)" fill="#dad8e8"/>
      <path id="Trazado_129084" data-name="Trazado 129084" d="M626.022-211.947c0,.554.006,1.108,0,1.662a1.326,1.326,0,0,1-1.316,1.4c-.1.007-.2,0-.308,0H600.831a1.446,1.446,0,0,0-.955-1.361c-.919-.331-1.652.189-1.922,1.364H569.711c-.012-.923-.018-1.845-.038-2.767-.005-.235.064-.348.311-.319a2.1,2.1,0,0,0,.246,0h55.425C625.777-211.967,625.9-211.954,626.022-211.947Z" transform="translate(-567.871 250.078)" fill="#edebee"/>
      <path id="Trazado_129085" data-name="Trazado 129085" d="M693.746-317.722q-.017-4.307-.037-8.614c0-.262.1-.384.36-.36.02,0,.041,0,.061,0l15.323.026q0,3.355,0,6.71a2.018,2.018,0,0,1-2.233,2.244C702.732-317.709,698.239-317.718,693.746-317.722Zm6.008-7.137c-.9,0-1.8-.006-2.7,0-.664.006-1.018.317-1.029.876a.884.884,0,0,0,.992.929c1.822.021,3.644.018,5.467,0a.958.958,0,0,0,1.023-.925c-.012-.527-.412-.875-1.047-.882C701.555-324.866,700.654-324.859,699.753-324.859Zm6.047,5.424c.779,0,1.558.009,2.337,0a.92.92,0,0,0,1.014-.853.934.934,0,0,0-.986-.957q-2.337-.03-4.675,0a.949.949,0,0,0-1.021.931c0,.51.425.872,1.054.881C704.283-319.427,705.042-319.435,705.8-319.435Zm-7.368,0c.451,0,.9.013,1.353,0a.887.887,0,0,0,.938-.854.877.877,0,0,0-.906-.952c-.921-.031-1.845-.031-2.766,0a.877.877,0,0,0-.906.95.886.886,0,0,0,.936.855C697.531-319.424,697.982-319.437,698.433-319.437Z" transform="translate(-661.288 336.482)" fill="#496f8f"/>
      <path id="Trazado_129086" data-name="Trazado 129086" d="M722.145-273.452c-.009-2.192-.005-4.384-.036-6.576-.007-.491.269-.448.587-.448,2.909,0,5.819-.021,8.729.012a2.94,2.94,0,0,0,2.984-1.619.415.415,0,0,1,.448-.234l3.011.024c-.062,2.455.148,4.914-.119,7.364a1.562,1.562,0,0,1-1.583,1.482Q729.156-273.441,722.145-273.452Zm6.364-3.431c-.944,0-1.888,0-2.831,0-.739.005-1.134.336-1.126.923.008.568.388.892,1.091.895q2.924.01,5.847,0c.664,0,1.086-.379,1.078-.922s-.426-.89-1.1-.9C730.478-276.889,729.494-276.883,728.509-276.883Zm7.416,1.82c.225,0,.451.013.674,0a.884.884,0,0,0,.933-.92.868.868,0,0,0-.9-.89,12.547,12.547,0,0,0-1.41,0,.909.909,0,0,0-.918.886.925.925,0,0,0,.944.924C735.474-275.05,735.7-275.063,735.925-275.063Z" transform="translate(-682.678 303.057)" fill="#496f8f"/>
      <path id="Trazado_129087" data-name="Trazado 129087" d="M654.665-172.09a10.368,10.368,0,0,0,1.666-6.888c-.037-.795-.006-.8.774-.8q4.759,0,9.517,0c.2,0,.406.025.609.039,0,.881.034,1.763.007,2.643a8.2,8.2,0,0,0,1.377,4.685c.108.172.264.32.224.55H654.68Z" transform="translate(-631.883 225.83)" fill="#d1c6e1"/>
      <path id="Trazado_129088" data-name="Trazado 129088" d="M709.462-352.9c-.512.012-1.024.034-1.536.034q-6.714,0-13.429,0c-.891,0-.765.1-.769-.8q-.009-2.156,0-4.312c0-.743.324-1.109,1.015-1.109q7.36,0,14.72.018Q709.464-355.981,709.462-352.9Zm-4.862-4.292a.888.888,0,0,0-.516-.881.848.848,0,0,0-.927.112c-.266.224-.5.641-.77.665-.332.03-.52-.465-.82-.67a.849.849,0,0,0-1.174.075.805.805,0,0,0-.075,1.163c.215.272.641.489.673.766.039.337-.448.53-.663.824a.835.835,0,0,0,.045,1.171.823.823,0,0,0,1.166.111c.3-.211.546-.671.824-.677s.525.453.817.669a.821.821,0,0,0,1.167-.093.832.832,0,0,0,.086-1.123,2.035,2.035,0,0,0-.461-.491c-.348-.26-.271-.458.016-.708C704.294-356.544,704.625-356.817,704.6-357.189Z" transform="translate(-661.3 360.872)" fill="#ebe9ec"/>
      <path id="Trazado_129089" data-name="Trazado 129089" d="M797.5-315.186c0-.91,0-1.821,0-2.731,0-.213.074-.453-.142-.62a3.269,3.269,0,0,0,1-2.543q-.029-8.16,0-16.32a3.272,3.272,0,0,0-1-2.543c.219-.169.142-.412.143-.627q.006-3.006,0-6.011a2.7,2.7,0,0,1,3.119,2.935q.007,13.936.012,27.873c0,.469-.1.653-.606.625C799.186-315.2,798.344-315.177,797.5-315.186Z" transform="translate(-739.35 351.46)" fill="#cd6a70"/>
      <path id="Trazado_129090" data-name="Trazado 129090" d="M722.172-273.694q7.01,0,14.021.005a1.562,1.562,0,0,0,1.583-1.482c.267-2.451.057-4.91.119-7.364.632-.018,1.428-.27,1.849.085s.126,1.159.129,1.765c.016,2.627.008,5.254.006,7.882,0,.927-.283,1.213-1.207,1.213q-7.6,0-15.208,0c-1.036,0-1.317-.278-1.319-1.305C722.144-273.162,722.163-273.428,722.172-273.694Z" transform="translate(-682.705 303.299)" fill="#3e5d79"/>
      <path id="Trazado_129091" data-name="Trazado 129091" d="M693.746-317.963c4.493,0,8.987.013,13.48.005a2.018,2.018,0,0,0,2.233-2.244q0-3.355,0-6.71c.632-.027,1.424-.27,1.849.08s.131,1.157.135,1.761c.017,2.646.009,5.292.006,7.939,0,.907-.258,1.162-1.173,1.163q-7.538,0-15.077,0c-1.273,0-1.5-.229-1.484-1.506C693.712-317.637,693.734-317.8,693.746-317.963Z" transform="translate(-661.289 336.723)" fill="#3e5d79"/>
      <path id="Trazado_129092" data-name="Trazado 129092" d="M779.088-346.57q0,3.005,0,6.011c0,.215.076.457-.143.627a3.5,3.5,0,0,0-2.14-.6c-1.145.023-2.29,0-3.435.009-.271,0-.464,0-.459-.376.024-1.86.024-3.721.033-5.581l.106-.091Z" transform="translate(-720.939 351.449)" fill="#d38487"/>
      <path id="Trazado_129093" data-name="Trazado 129093" d="M707.177-171.879c.04-.23-.117-.378-.224-.55a8.2,8.2,0,0,1-1.377-4.685c.027-.88,0-1.762-.007-2.643.981-.015,1.963-.026,2.944-.048.268-.006.361.108.355.367-.011.512.014,1.025-.006,1.536a8.964,8.964,0,0,0,1.865,6.022Z" transform="translate(-670.221 225.851)" fill="#b4b1cf"/>
      <path id="Trazado_129094" data-name="Trazado 129094" d="M776.008-308.6c-.922.01-1.844.009-2.765.034-.289.008-.333-.116-.332-.364.008-1.825.012-3.65,0-5.474,0-.316.119-.368.394-.362.9.02,1.8.018,2.7.024Q776.007-311.671,776.008-308.6Z" transform="translate(-720.936 327.496)" fill="#edebee"/>
      <path id="Trazado_129095" data-name="Trazado 129095" d="M785.461-308.607q0-3.071,0-6.142c2-.1,2.169-.024,2.117,2-.032,1.229-.018,2.459,0,3.688.005.354-.052.525-.461.492C786.567-308.614,786.013-308.6,785.461-308.607Z" transform="translate(-730.389 327.502)" fill="#dad8e8"/>
      <path id="Trazado_129096" data-name="Trazado 129096" d="M757.476-352.944q0-3.084,0-6.168c1.735-.122,2.075.009,2.012,1.8-.046,1.31-.022,2.622,0,3.933.006.378-.107.51-.485.481C758.5-352.935,757.986-352.93,757.476-352.944Z" transform="translate(-709.314 360.919)" fill="#cccbd7"/>
      <path id="Trazado_129097" data-name="Trazado 129097" d="M654.286-148.638l.015.232-.139-.054Z" transform="translate(-631.504 202.378)" fill="#b4b1cf"/>
      <path id="Trazado_129098" data-name="Trazado 129098" d="M773.146-346.587l-.106.091C773.031-346.578,773.071-346.6,773.146-346.587Z" transform="translate(-721.035 351.464)" fill="#cd6a70"/>
      <path id="Trazado_129099" data-name="Trazado 129099" d="M603.894-321.037a1.056,1.056,0,0,1,1.368.6c.932,1.663,1.913,3.3,2.849,4.958a2.924,2.924,0,0,1-2.658,4.512q-11.667.01-23.334,0A2.925,2.925,0,0,1,579.5-315.5q5.823-10.128,11.683-20.235a2.915,2.915,0,0,1,5.233-.008c2.23,3.824,4.432,7.666,6.643,11.5a.971.971,0,0,1-.241,1.5.97.97,0,0,1-1.279-.531c-.577-1.014-1.164-2.022-1.747-3.032q-2.441-4.227-4.884-8.453c-.624-1.074-1.6-1.064-2.224.017-.563.974-1.111,1.956-1.665,2.935q-2.99,5.151-5.979,10.3-2,3.455-3.986,6.92a1.134,1.134,0,0,0,.387,1.688,1.97,1.97,0,0,0,.964.124q9.506,0,19.013,0c.2,0,.408-.02.612-.03,1.107.01,2.214.031,3.321.028,1.29,0,1.764-.832,1.123-1.95q-1.376-2.4-2.76-4.795C603.316-320.21,603.351-320.473,603.894-321.037Z" transform="translate(-574.921 344.519)" fill="#050402"/>
      <path id="Trazado_129100" data-name="Trazado 129100" d="M640.458-315.521c-.543.565-.578.827-.182,1.516q1.378,2.4,2.76,4.795c.641,1.117.167,1.946-1.123,1.949-1.107,0-2.214-.018-3.321-.028-.163-.307-.317-.62-.49-.922q-2.161-3.746-4.33-7.487c-.81-1.394-1.638-2.778-2.458-4.167-.011-.182-.03-.365-.03-.547,0-1.224,0-2.448,0-3.672,0-.724-.344-1.15-.9-1.158s-.9.417-.91,1.137c0,.265-.014.529-.022.794-.155-.084-.2-.246-.293-.382a28.325,28.325,0,0,0-1.577-2.6c.554-.979,1.1-1.962,1.665-2.935.625-1.081,1.6-1.091,2.224-.017q2.45,4.222,4.884,8.453c.584,1.01,1.17,2.019,1.747,3.032a.97.97,0,0,0,1.279.531A10.06,10.06,0,0,1,640.458-315.521Z" transform="translate(-611.484 339.003)" fill="#e4c14e"/>
      <path id="Trazado_129101" data-name="Trazado 129101" d="M684.235-203.912c.271-1.175,1-1.7,1.922-1.364a1.446,1.446,0,0,1,.955,1.361c-.2.9-.661,1.351-1.4,1.363S684.506-202.957,684.235-203.912Z" transform="translate(-654.153 245.108)" fill="#020405"/>
      <path id="Trazado_129102" data-name="Trazado 129102" d="M706.807-319.253c.9,0,1.8-.007,2.7,0,.635.006,1.035.355,1.047.882a.958.958,0,0,1-1.023.925c-1.822.015-3.645.018-5.467,0a.884.884,0,0,1-.992-.929c.011-.559.366-.869,1.029-.876C705.005-319.259,705.906-319.253,706.807-319.253Z" transform="translate(-668.342 330.876)" fill="#020405"/>
      <path id="Trazado_129103" data-name="Trazado 129103" d="M732.531-302.852c-.759,0-1.518.008-2.276,0-.629-.008-1.05-.371-1.054-.881a.949.949,0,0,1,1.021-.931q2.337-.027,4.675,0a.934.934,0,0,1,.986.957.92.92,0,0,1-1.014.853C734.09-302.843,733.31-302.852,732.531-302.852Z" transform="translate(-688.019 319.899)" fill="#020405"/>
      <path id="Trazado_129104" data-name="Trazado 129104" d="M705.862-302.869c-.451,0-.9.013-1.353,0a.886.886,0,0,1-.936-.855.877.877,0,0,1,.906-.95c.921-.031,1.845-.031,2.766,0a.877.877,0,0,1,.906.952.887.887,0,0,1-.938.854C706.764-302.856,706.313-302.869,705.862-302.869Z" transform="translate(-668.717 319.915)" fill="#020405"/>
      <path id="Trazado_129105" data-name="Trazado 129105" d="M735.96-260.311c.985,0,1.969-.006,2.954,0,.678.005,1.1.353,1.1.9s-.413.919-1.078.922q-2.923.011-5.847,0c-.7,0-1.083-.327-1.091-.895-.008-.587.387-.918,1.126-.923C734.072-260.316,735.016-260.311,735.96-260.311Z" transform="translate(-690.129 286.484)" fill="#020405"/>
      <path id="Trazado_129106" data-name="Trazado 129106" d="M773.134-258.52c-.225,0-.451.012-.674,0a.925.925,0,0,1-.944-.924.909.909,0,0,1,.918-.886,12.561,12.561,0,0,1,1.41,0,.868.868,0,0,1,.9.89.884.884,0,0,1-.933.92C773.584-258.507,773.359-258.52,773.134-258.52Z" transform="translate(-719.887 286.514)" fill="#020405"/>
      <path id="Trazado_129107" data-name="Trazado 129107" d="M724.069-354.38c.024.372-.307.645-.612.911-.287.25-.364.448-.016.708a2.033,2.033,0,0,1,.461.491.832.832,0,0,1-.086,1.123.821.821,0,0,1-1.166.093c-.291-.216-.551-.674-.817-.669s-.527.466-.824.677a.823.823,0,0,1-1.166-.111.835.835,0,0,1-.045-1.171c.215-.293.7-.486.663-.824-.032-.277-.458-.494-.673-.766a.805.805,0,0,1,.075-1.163.849.849,0,0,1,1.174-.075c.3.205.488.7.82.67.274-.024.5-.441.77-.665a.848.848,0,0,1,.926-.112A.888.888,0,0,1,724.069-354.38Z" transform="translate(-680.768 358.063)" fill="#020405"/>
      <path id="Trazado_129108" data-name="Trazado 129108" d="M596.526-314.847a28.3,28.3,0,0,1,1.577,2.6c.088.136.138.3.293.382q.011,3.994.022,7.987c0,.389-.019.78.009,1.167a.834.834,0,0,0,.859.861.842.842,0,0,0,.92-.8,3.963,3.963,0,0,0,.021-.613q.018-2.579.033-5.158c.82,1.389,1.648,2.773,2.458,4.167q2.174,3.738,4.33,7.487c.174.3.327.614.49.922-.2.01-.408.03-.612.03q-9.506,0-19.013,0a1.97,1.97,0,0,1-.964-.124,1.134,1.134,0,0,1-.387-1.688q1.984-3.465,3.986-6.92Q593.531-309.7,596.526-314.847Zm2.768,14.926a.992.992,0,0,0-.979.978,1.02,1.02,0,0,0,.975.992.978.978,0,0,0,.994-1.018A.958.958,0,0,0,599.294-299.921Z" transform="translate(-580.43 327.556)" fill="#efdb61"/>
      <path id="Trazado_129109" data-name="Trazado 129109" d="M637.017-305.2q-.016,2.579-.033,5.158a3.955,3.955,0,0,1-.021.613.841.841,0,0,1-.92.8.834.834,0,0,1-.859-.861c-.028-.387-.008-.778-.009-1.167q-.011-3.994-.022-7.987c.007-.265.018-.529.022-.794.011-.72.35-1.145.91-1.137s.894.434.9,1.158c.007,1.224,0,2.448,0,3.672C636.986-305.566,637.006-305.384,637.017-305.2Z" transform="translate(-617.188 324.341)" fill="#050402"/>
      <path id="Trazado_129110" data-name="Trazado 129110" d="M635.8-254.383a.958.958,0,0,1,.99.952.977.977,0,0,1-.994,1.018,1.02,1.02,0,0,1-.975-.992A.992.992,0,0,1,635.8-254.383Z" transform="translate(-616.941 282.019)" fill="#050402"/>
    </g>
  </g>
</svg>
